<svg xmlns="http://www.w3.org/2000/svg" xmlns:xlink="http://www.w3.org/1999/xlink" width="190" height="190" viewBox="0 0 190 190">
  <defs>
    <clipPath id="clip-path">
      <rect id="Rectangle_380576" data-name="Rectangle 380576" width="190" height="190" transform="translate(390 2309)" fill="#fff" stroke="#707070" stroke-width="1"/>
    </clipPath>
  </defs>
  <g id="Mask_Group_432" data-name="Mask Group 432" transform="translate(-390 -2309)" clip-path="url(#clip-path)">
    <g id="Group_1077239" data-name="Group 1077239" transform="translate(405.166 2303.825)">
      <g id="Group_1078437" data-name="Group 1078437">
        <path id="Path_829029" data-name="Path 829029" d="M65.962,6a47.452,47.452,0,0,1,47.452,47.452V72.825H18.51V53.452A47.452,47.452,0,0,1,65.962,6Z" transform="translate(13.872 2.518)" fill="#3e4950"/>
        <path id="Path_829030" data-name="Path 829030" d="M117.459,87.8c-5.3-23.043-4.552-61.218-4.552-61.218H22.392S23.137,64.759,17.84,87.8Z" transform="translate(12.185 54.338)" fill="#3e4950"/>
        <path id="Path_829031" data-name="Path 829031" d="M40.723,22.408h10.89a10.553,10.553,0,1,1,0,21.105H40.723Z" transform="translate(69.795 43.825)" fill="#d1a596"/>
        <path id="Path_829032" data-name="Path 829032" d="M0,0H10.89a10.553,10.553,0,1,1,0,21.105H0Z" transform="translate(49.149 87.34) rotate(180)" fill="#d1a596"/>
        <path id="Path_829033" data-name="Path 829033" d="M109.424,59.7,94.9,58.05V33.624H59.729V58.05L45.209,59.7A35.176,35.176,0,0,0,14,94.649V119.37H140.633V94.649A35.176,35.176,0,0,0,109.424,59.7Z" transform="translate(2.518 72.062)" fill="#aacb6c"/>
        <path id="Path_829034" data-name="Path 829034" d="M62.176,33.62V58.067L44.588,119.379,27,58.067V33.62Z" transform="translate(35.246 72.053)" fill="#d1a596"/>
        <path id="Path_829035" data-name="Path 829035" d="M50.216,101.886,25.073,72.652l9.188-6.7L21.97,54.9,39.663,40.568,57.251,80.781,74.839,40.568,92.536,54.9,80.246,65.951l9.184,6.7L64.287,101.886Z" transform="translate(22.583 89.545)" fill="#8db14c"/>
        <path id="Path_829036" data-name="Path 829036" d="M47.812,46,38.6,67.105,29.38,46Z" transform="translate(41.238 103.221)" fill="#eceef0"/>
        <path id="Path_829037" data-name="Path 829037" d="M99.426,33.462a36.029,36.029,0,0,1-.457,6.965L96.717,55.236c-1.372,9.04-10.482,31.447-36.583,31.447S24.923,64.276,23.551,55.236L21.3,40.427a36.033,36.033,0,0,1-.457-6.965l.035-.035C28.23,33,46.064,31.6,60.134,18.02,74.2,31.6,92.039,33,99.39,33.427Z" transform="translate(19.7 32.778)" fill="#e1bcad"/>
        <rect id="Rectangle_380575" data-name="Rectangle 380575" width="21.105" height="14.07" rx="2" transform="translate(69.281 91.321)" fill="#2e353a"/>
        <g id="Group_1077238" data-name="Group 1077238" transform="translate(13 5)">
          <path id="Path_829038" data-name="Path 829038" d="M44.051,18.07A3.517,3.517,0,1,0,49.785,14q-1-1.406-2.088-2.739a3.518,3.518,0,1,0-5.449,4.452q.941,1.151,1.8,2.362Z" transform="translate(58.636 7.497)" fill="#202225"/>
          <path id="Path_829039" data-name="Path 829039" d="M132.062,136.433a312.23,312.23,0,0,1-3.468-47.616A13.93,13.93,0,0,0,130.8,66.389V55.969a50.742,50.742,0,0,0-3.483-18.554,3.517,3.517,0,1,0-6.551,2.563,43.742,43.742,0,0,1,3,15.991v6.984c-.772-.132-4.432-.259-4.478-.261-5.8-.333-23.462-1.348-37.016-14.426a3.518,3.518,0,0,0-4.885,0C63.837,61.344,46.177,62.359,40.376,62.692c-.109.006-3.706.129-4.478.261V55.97a43.938,43.938,0,0,1,70.326-35.129,3.518,3.518,0,0,0,4.232-5.62A50.974,50.974,0,0,0,28.864,55.969V66.388a13.93,13.93,0,0,0,2.211,22.428,312.229,312.229,0,0,1-3.469,47.616A38.611,38.611,0,0,0,13,166.7v24.729a3.518,3.518,0,0,0,3.518,3.518H143.151a3.518,3.518,0,0,0,3.518-3.518V166.7a38.611,38.611,0,0,0-14.606-30.27Zm-45.3,9.27H72.9l-7.141-16.327v-8.72a43.76,43.76,0,0,0,28.141,0v8.72Zm-3.077,7.035-3.853,8.809-3.853-8.809Zm17.253-35.5a41.035,41.035,0,0,0,14.106-15.259H118a10.459,10.459,0,0,0,3.8-.737c.305,9.1.966,20.206,2.371,30.365a38.569,38.569,0,0,0-11.826-3.329l-11.408-1.3Zm27.5-40.452a7.042,7.042,0,0,1-7.035,7.035h-.795l1.527-10.046c.211-1.29.354-2.595.437-3.906a7.03,7.03,0,0,1,5.867,6.917Zm-9.015,14.07h1.979c.038,0,.072-.011.11-.011v.582a3.5,3.5,0,0,1-3.286,3.471,40.577,40.577,0,0,0,1.2-4.042ZM79.834,55.547a62.856,62.856,0,0,0,35.72,13.943q-.1,1.6-.364,3.188l-2.251,14.811a32.672,32.672,0,0,1-2.228,7.457H93.289A10.533,10.533,0,0,0,83.352,87.8H76.317a10.553,10.553,0,1,0,0,21.106h7.035a10.539,10.539,0,0,0,9.872-6.93h13.621a31.492,31.492,0,0,1-27.011,13.965c-23.613,0-31.9-20.543-33.1-28.457L44.471,72.639q-.255-1.559-.359-3.148A62.856,62.856,0,0,0,79.834,55.547Zm3.518,46.327H76.317a3.518,3.518,0,0,1,0-7.035h7.035a3.518,3.518,0,0,1,0,7.035ZM31.225,76.785a7.03,7.03,0,0,1,5.866-6.917c.082,1.305.223,2.6.431,3.867l1.534,10.086H38.26a7.042,7.042,0,0,1-7.035-7.035Zm6.869,14.054c.057,0,.109.017.166.017h1.98a44,44,0,0,0,18.488,26.382v9.742l-11.4,1.3a38.566,38.566,0,0,0-11.83,3.33,344.745,344.745,0,0,0,2.6-40.768Zm36.319,97.075-7.246-8.423a3.518,3.518,0,1,0-5.335,4.586l3.3,3.837h-45.1V166.7a31.608,31.608,0,0,1,28.082-31.435l2.531-.288-8.311,6.733a3.518,3.518,0,0,0-.137,5.348l9.063,8.148-5.682,4.148a3.518,3.518,0,0,0-.594,5.134l5.026,5.843a3.518,3.518,0,1,0,5.335-4.586l-2.542-2.955,6.109-4.459a3.518,3.518,0,0,0,.278-5.457l-9.227-8.294,10.908-8.836,15.738,35.988a3.518,3.518,0,0,0,6.444,0l15.738-35.988,10.907,8.835-9.225,8.3a3.518,3.518,0,0,0,.278,5.457l6.108,4.459L85.255,187.914Zm65.22,0h-45.1l20.146-23.421a3.52,3.52,0,0,0-.594-5.136l-5.682-4.148,9.063-8.148a3.518,3.518,0,0,0-.137-5.349l-8.311-6.733,2.533.288A31.608,31.608,0,0,1,139.633,166.7Z" transform="translate(-13 -5)"/>
        </g>
      </g>
    </g>
  </g>
</svg>
