<svg xmlns="http://www.w3.org/2000/svg" width="154" height="154" viewBox="0 0 154 154">
  <g id="Group_1077066" data-name="Group 1077066" transform="translate(-385.5 -2058.299)">
    <g id="Group_159182" data-name="Group 159182" transform="translate(385.5 2058.299)">
      <path id="Union_12" data-name="Union 12" d="M77,0A77,77,0,1,1,0,77,77,77,0,0,1,77,0Z" transform="translate(0 0)" fill="#ffae7e"/>
    </g>
    <g id="Group_1077272" data-name="Group 1077272" transform="translate(409.502 2083)">
      <path id="Path_829094" data-name="Path 829094" d="M358.574,117.195,377.617,141.4l10.362-8.918L370.4,109.657Zm0,0" transform="translate(-285.039 -86.771)" fill="#c1e29a"/>
      <path id="Path_829095" data-name="Path 829095" d="M41.308,117.18,20.4,142.651,10.04,133.734l19.438-24.077Zm0,0" transform="translate(-7.981 -86.771)" fill="#c1e29a"/>
      <path id="Path_829096" data-name="Path 829096" d="M140.725,170.566l-19.043-24.208H106.266L94.23,149.833l-12.756-3.49-20.907,25.47L70.9,185.738l-1.092,1.093a5.217,5.217,0,0,0,6.468,8.1l-.009.244a5.217,5.217,0,0,0,7.353,7.4l0,.02A5.217,5.217,0,0,0,91,209.979l1-1,0,.094a5.217,5.217,0,0,0,7.378,7.378l2.434-2.434a8.015,8.015,0,0,0,.989-1.363,5.388,5.388,0,0,1-.989,1.363l-.014.014,1.986,1.6a5.217,5.217,0,0,0,7.379-7.378l.007-.007a5.217,5.217,0,1,0,7.378-7.379l.008-.007a5.217,5.217,0,1,0,7.378-7.378l.007-.008a5.217,5.217,0,0,0,7.379-7.378Zm0,0" transform="translate(-48.147 -115.934)" fill="#fcc89d"/>
      <path id="Path_829097" data-name="Path 829097" d="M104.571,123.257,87,100.428a2.059,2.059,0,0,0-2.737-.481l-11.347,7.216h-14.8a2.041,2.041,0,0,0-.566.095l-11.474,3.3L34.17,107.3,22.6,99.947a2.058,2.058,0,0,0-2.707.444L.456,124.468a2.058,2.058,0,0,0,.26,2.853L10.9,136.09l9.14,12.317a7.27,7.27,0,0,0,4.573,12.212,7.323,7.323,0,0,0-.085,1.113,7.277,7.277,0,0,0,7.276,7.276l.078,0c0,.05,0,.1,0,.148a7.275,7.275,0,0,0,7.276,7.276,7.424,7.424,0,0,0,1.136-.089,7.276,7.276,0,0,0,12.382,4.43l1.113-1.113.467.377a7.273,7.273,0,0,0,12.331-5.343,7.264,7.264,0,0,0,7.386-7.382,7.27,7.27,0,0,0,7.385-7.389,7.272,7.272,0,0,0,6.216-11.235l6.674-13.977,10.034-8.634a2.059,2.059,0,0,0,.288-2.817ZM21.943,104.408l8.318,5.29-18.1,22.046L4.914,125.5Zm1.174,46.742,2.511-2.511c.076-.076.156-.148.238-.215a3.151,3.151,0,0,1,1.715-.7l.054,0c.09-.007.179-.012.27-.011a3.14,3.14,0,0,1,2.253.989,3.237,3.237,0,0,1-.139,4.479l-2.434,2.434a3.158,3.158,0,0,1-4.466-4.467Zm6.459,12.814a3.157,3.157,0,0,1,0-4.466l4.868-4.868a3.192,3.192,0,0,1,3.59-.62,3.148,3.148,0,0,1,1.74,3.261,3.333,3.333,0,0,1-.94,1.9l-4.791,4.79a3.158,3.158,0,0,1-4.467,0Zm7.351,7.422a3.157,3.157,0,0,1,0-4.466l4.867-4.868a3.194,3.194,0,0,1,3.818-.5,3.143,3.143,0,0,1,1.508,3.192,3.337,3.337,0,0,1-.936,1.853l-4.79,4.79a3.158,3.158,0,0,1-4.467,0Zm8.373,6.473a3.162,3.162,0,0,1,0-4.466l2.511-2.511c.076-.076.155-.147.237-.215l.006,0a3.147,3.147,0,0,1,1.4-.65l.036,0c.088-.016.178-.029.268-.037.036,0,.072,0,.109-.006.074,0,.147-.009.221-.008a3.138,3.138,0,0,1,2.253.989,2.845,2.845,0,0,1,.2.24,3.26,3.26,0,0,1-.356,4.252l-2.422,2.422a3.162,3.162,0,0,1-4.466,0Zm38.408-22.978a3.161,3.161,0,0,1-4.466,0,1.872,1.872,0,0,0-.14-.126L65.862,141.378a2.059,2.059,0,0,0-2.927,2.9L76.317,157.8l0,0a3.159,3.159,0,1,1-4.467,4.467L62.9,153.222a2.059,2.059,0,1,0-2.926,2.9l8.815,8.906a1.955,1.955,0,0,0,.144.161,3.159,3.159,0,1,1-4.468,4.466l-4.886-4.937a2.059,2.059,0,0,0-2.927,2.9l4.75,4.8a1.838,1.838,0,0,0,.145.162,3.158,3.158,0,0,1-4.466,4.467,4.555,4.555,0,0,0-.467-.372c-.135-.1-.17-.174-.1-.337s.17-.316.238-.482c.075-.186.136-.377.2-.57a7.423,7.423,0,0,0,.267-3.167,7.2,7.2,0,0,0-6.138-6.2,7.343,7.343,0,0,0-1.763-6.626,7.222,7.222,0,0,0-5.186-2.276H43.91a7.206,7.206,0,0,0-7.133-7.422,7.4,7.4,0,0,0-1.757.187,7.206,7.206,0,0,0-7.06-6.178,7.293,7.293,0,0,0-4.971,1.87l-7.959-10.724,19.04-23.2,6.068,1.66L32.214,127.19a7.277,7.277,0,0,0,2.744,9.917q.159.09.32.171l.025.012a7.322,7.322,0,0,0,.873.366,7.276,7.276,0,0,0,8.7-3.292l5.15-9.088,9.2.652,24.487,24.486a3.163,3.163,0,0,1,0,4.467Zm.853-9.438-22.971-22.97a1.827,1.827,0,0,0-.136-.125,2.06,2.06,0,0,0-1.174-.473l-11.259-.8a2.093,2.093,0,0,0-1.937,1.039l-5.79,10.219a3.158,3.158,0,1,1-5.5-3.115l7.73-13.642,3.132-.9.062-.021,11.69-3.376H72.536L90.169,133.7Zm8.306-14.979L76.56,109.724l8.322-5.293,15.237,19.792Zm0,0" transform="translate(0 -78.797)"/>
      <path id="Path_829098" data-name="Path 829098" d="M302.2,47.053a2.053,2.053,0,0,0,1.456-.6l14.064-14.064a2.059,2.059,0,0,0-2.912-2.912L300.748,43.538a2.059,2.059,0,0,0,1.456,3.515Zm0,0" transform="translate(-238.593 -22.553)"/>
      <path id="Path_829099" data-name="Path 829099" d="M137.863,46.45a2.059,2.059,0,0,0,2.912-2.912L126.711,29.475a2.059,2.059,0,0,0-2.912,2.912Zm0,0" transform="translate(-97.931 -22.553)"/>
      <path id="Path_829100" data-name="Path 829100" d="M248.02,56.455a2.059,2.059,0,0,0,2.059-2.059V42.758a2.059,2.059,0,1,0-4.118,0V54.4A2.059,2.059,0,0,0,248.02,56.455Zm0,0" transform="translate(-195.52 -31.955)"/>
      <path id="Path_829101" data-name="Path 829101" d="M246.139,3.341A2.057,2.057,0,1,0,249.292.92a2.058,2.058,0,0,0-3.153,2.421Zm0,0" transform="translate(-195.54)"/>
    </g>
  </g>
</svg>
