<svg xmlns="http://www.w3.org/2000/svg" width="189.691" height="189.635" viewBox="0 0 189.691 189.635">
  <g id="Group_1078431" data-name="Group 1078431" transform="translate(-1.736 -1.752)">
    <path id="Path_828867" data-name="Path 828867" d="M127.316,63.655a56.656,56.656,0,1,0-87.225,47.707,18.048,18.048,0,0,1,8.536,15.115V139.2a9.443,9.443,0,0,0,9.443,9.443H83.25a9.443,9.443,0,0,0,9.443-9.443V126.738a18.542,18.542,0,0,1,8.719-15.492,56.606,56.606,0,0,0,25.9-47.591Z" transform="translate(26.333 11.272)" fill="#ffae7e"/>
    <path id="Path_828868" data-name="Path 828868" d="M27,70.885a9.443,9.443,0,0,0,9.443,9.443h12.59a9.443,9.443,0,0,0,9.443-9.443V52H27Z" transform="translate(54.256 107.911)" fill="#ebebeb"/>
    <path id="Path_828869" data-name="Path 828869" d="M115.723,38.948l9.9-7.422L114.288,16.418l-9.9,7.422a6.3,6.3,0,0,1-10.006-5.927L96.133,5.672,77.436,3,75.689,15.241A6.3,6.3,0,0,1,64.421,18.13L57,8.234,41.894,19.566l7.419,9.9a6.3,6.3,0,0,1-5.927,10.006L31.145,37.721l-2.672,18.7,12.244,1.747A6.3,6.3,0,0,1,43.6,69.432l-9.893,7.422L45.042,91.962l9.893-7.419A6.3,6.3,0,0,1,64.944,90.47l-1.763,12.238,18.7,2.672L83.64,93.136A6.3,6.3,0,0,1,94.908,90.25l7.422,9.893,15.108-11.331-7.425-9.893A6.3,6.3,0,0,1,115.94,68.91l12.241,1.75,2.672-18.7-12.241-1.75a6.3,6.3,0,0,1-2.889-11.265ZM79.665,76.221A22.033,22.033,0,1,1,101.7,54.189,22.033,22.033,0,0,1,79.665,76.221Z" transform="translate(57.419 2.681)" fill="#10bde0"/>
    <path id="Path_828870" data-name="Path 828870" d="M64.275,72.707A56.81,56.81,0,0,1,56.519,66.7,15.713,15.713,0,1,1,41.335,47.033c.482,0,.944.1,1.4.142A56.612,56.612,0,0,1,38.219,25H34.213L32.038,35.346a3.148,3.148,0,0,1-4.866,1.945l-8.7-6L9.032,40.738l5.98,8.7A3.148,3.148,0,0,1,13.067,54.3L2.737,56.476v12.59L13.08,71.241a3.148,3.148,0,0,1,1.945,4.866L9.032,84.8l9.443,9.443,8.7-5.98a3.148,3.148,0,0,1,4.869,1.945l2.172,10.33H46.8L48.975,90.2a3.148,3.148,0,0,1,4.869-1.945l8.7,6,9.88-9.88a18.325,18.325,0,0,0-8.146-11.659Z" transform="translate(2.15 49.927)" fill="#c9dfff"/>
    <path id="Path_828871" data-name="Path 828871" d="M188.719,51l-12.244-1.747a3.148,3.148,0,0,1-1.445-5.634l9.9-7.422a3.148,3.148,0,0,0,.63-4.407L174.225,16.678a3.148,3.148,0,0,0-4.407-.63l-9.893,7.422a3.148,3.148,0,0,1-5.017-2.962l1.75-12.244A3.148,3.148,0,0,0,153.986,4.7L135.3,2.032A3.148,3.148,0,0,0,131.739,4.7l-1.75,12.244a3.148,3.148,0,0,1-5.634,1.445l-7.419-9.9a3.148,3.148,0,0,0-4.407-.63l-9.458,7.1a60.9,60.9,0,0,0-12.873,0A59.8,59.8,0,0,0,37.467,68.587c-.085.891-.116,1.775-.161,2.66h-.944a3.148,3.148,0,0,0-3.078,2.518L31.109,84.108,22.4,78.1a3.148,3.148,0,0,0-4.013.365L8.941,87.907a3.148,3.148,0,0,0-.365,4.01l5.98,8.7L4.21,102.788a3.148,3.148,0,0,0-2.474,3.081v12.59a3.148,3.148,0,0,0,2.5,3.081l10.346,2.175-5.98,8.7a3.148,3.148,0,0,0,.365,4.01l9.443,9.443a3.148,3.148,0,0,0,4.013.365l8.7-6,2.175,10.346a3.148,3.148,0,0,0,3.078,2.518h12.59a3.148,3.148,0,0,0,3.081-2.5l2.175-10.346,8.7,5.98a3.148,3.148,0,0,0,4.01-.365l4.888-4.9v8.971a12.549,12.549,0,0,0,6.3,10.84v17.488a12.59,12.59,0,0,0,12.59,12.59h12.59a12.59,12.59,0,0,0,12.59-12.59V160.776a12.549,12.549,0,0,0,6.3-10.84V137.478a15.423,15.423,0,0,1,7.28-12.848,60.387,60.387,0,0,0,7.409-5.666l-4.2-4.69a53.572,53.572,0,0,1-6.632,5.071,21.68,21.68,0,0,0-10.154,18.133v12.458a6.3,6.3,0,0,1-6.3,6.3H84.4a6.3,6.3,0,0,1-6.3-6.3V137.216a21.177,21.177,0,0,0-9.984-17.765A53.348,53.348,0,0,1,96.317,20.933a3.431,3.431,0,0,0-.123.343,3.148,3.148,0,0,0,.6,2.332l7.419,9.893A3.081,3.081,0,0,1,104.4,37a3.129,3.129,0,0,1-3.148,1.514l-12.244-1.75a3.148,3.148,0,0,0-3.563,2.672L82.776,58.125a3.148,3.148,0,0,0,2.672,3.563l12.244,1.75a3.148,3.148,0,0,1,1.445,5.634l-9.893,7.419a3.148,3.148,0,0,0-.63,4.407L99.946,96.005a3.148,3.148,0,0,0,4.407.63l9.9-7.419a3.148,3.148,0,0,1,5,2.962L117.5,104.422a3.148,3.148,0,0,0,2.669,3.563l18.7,2.672a3.5,3.5,0,0,0,.444.028,3.148,3.148,0,0,0,3.119-2.7l1.747-12.244a3.148,3.148,0,0,1,5.634-1.445l7.422,9.893a3.148,3.148,0,0,0,4.407.63l15.108-11.331a3.148,3.148,0,0,0,.63-4.407l-7.419-9.893a3.094,3.094,0,0,1-.189-3.494,3.056,3.056,0,0,1,3.148-1.511l12.244,1.747a3.148,3.148,0,0,0,3.563-2.669l2.669-18.7A3.148,3.148,0,0,0,188.726,51ZM42.774,99.575A59.6,59.6,0,0,0,54.457,116.4a12.571,12.571,0,1,1-11.8-16.827Zm60.515,84.984H90.7a6.3,6.3,0,0,1-6.3-6.3v-3.148h25.18v3.148A6.3,6.3,0,0,1,103.289,184.559Zm6.3-22.033v6.3H84.4v-6.3ZM71.067,132.81l-6.751,6.739-6.537-4.507a6.3,6.3,0,0,0-9.732,3.887L46.4,146.788H38.915l-1.649-7.847a6.3,6.3,0,0,0-9.732-3.887l-6.541,4.495-5.735-5.722,4.5-6.534a6.3,6.3,0,0,0-3.884-9.735L8.031,115.9v-7.479l7.847-1.652a6.3,6.3,0,0,0,3.887-9.716L15.258,90.5l5.735-5.722,6.544,4.507a6.3,6.3,0,0,0,9.729-3.89l.551-2.619a59.929,59.929,0,0,0,2.5,10.673,18.885,18.885,0,1,0,19.033,27.384,59.5,59.5,0,0,0,5.379,3.919,15.363,15.363,0,0,1,6.342,8.055ZM182.922,69.245l-9.128-1.3a9.443,9.443,0,0,0-8.889,15.014l5.53,7.375-10.072,7.554-5.533-7.372a9.443,9.443,0,0,0-16.9,4.328l-1.275,9.14L124.192,102.2l1.3-9.128a9.443,9.443,0,0,0-15.014-8.892l-7.375,5.53L95.552,79.638l7.372-5.533A9.443,9.443,0,0,0,98.6,57.2l-9.128-1.3,1.782-12.461,9.128,1.3a9.443,9.443,0,0,0,8.892-15.014l-5.549-7.381,10.072-7.554,5.533,7.375a9.443,9.443,0,0,0,16.9-4.328l1.3-9.128,12.461,1.778-1.3,9.128A9.443,9.443,0,0,0,163.7,28.506l7.375-5.53,7.554,10.072-7.375,5.533a9.443,9.443,0,0,0,4.328,16.9l9.128,1.3Z" transform="translate(0 0.533)"/>
    <path id="Path_828872" data-name="Path 828872" d="M61.916,11.264A25.18,25.18,0,1,0,87.1,36.444,25.18,25.18,0,0,0,61.916,11.264Zm0,44.066A18.885,18.885,0,1,1,80.8,36.444,18.885,18.885,0,0,1,61.916,55.33Z" transform="translate(75.165 20.429)"/>
    <path id="Path_828873" data-name="Path 828873" d="M31,46h6.3v9.443H31Z" transform="translate(62.846 95.025)"/>
    <path id="Path_828874" data-name="Path 828874" d="M48.313,85.626A37.771,37.771,0,0,1,41.936,18.48l-3.365-5.326a44.066,44.066,0,0,0,7.457,78.33,20.094,20.094,0,0,1,12.9,18.759h6.3A26.336,26.336,0,0,0,48.313,85.626Z" transform="translate(34.913 24.487)"/>
    <path id="Path_828875" data-name="Path 828875" d="M51,39H73.033v6.3H51Z" transform="translate(105.797 79.993)"/>
    <path id="Path_828876" data-name="Path 828876" d="M0,0H6.3V24.582H0Z" transform="matrix(0.64, -0.768, 0.768, 0.64, 151.635, 140.299)"/>
    <path id="Path_828877" data-name="Path 828877" d="M45,47h6.3V69.033H45Z" transform="translate(92.912 97.173)"/>
    <path id="Path_828878" data-name="Path 828878" d="M0,0H25.955V6.292H0Z" transform="matrix(0.97, -0.243, 0.243, 0.97, 4.952, 56.136)"/>
    <path id="Path_828879" data-name="Path 828879" d="M0,0H6.292V27.075H0Z" transform="matrix(0.581, -0.814, 0.814, 0.581, 10.18, 23.981)"/>
    <path id="Path_828880" data-name="Path 828880" d="M0,0H6.3V25.989H0Z" transform="matrix(0.969, -0.248, 0.248, 0.969, 37.149, 3.311)"/>
  </g>
</svg>
