<svg xmlns="http://www.w3.org/2000/svg" width="189.219" height="189.626" viewBox="0 0 189.219 189.626">
  <g id="Group_1078432" data-name="Group 1078432" transform="translate(-0.549)">
    <path id="Path_828881" data-name="Path 828881" d="M216.636,40.148v111.9c0,.223,0,.447-.015.67a14.447,14.447,0,0,1-14.433,13.773H120.97a14.446,14.446,0,0,1-14.448-14.444V22.491A14.426,14.426,0,0,1,120.97,8.044h64.514a14.4,14.4,0,0,1,6.274,1.437c3.9,1.878,5,4.252,12.016,11.424,8.069,8.762,10,9.66,11.64,13.453A14.288,14.288,0,0,1,216.636,40.148Z" transform="translate(-66.725 -5.064)" fill="#ffc477"/>
    <path id="Path_828882" data-name="Path 828882" d="M235.628,40.148v111.9c0,.223,0,.447-.015.67a14.492,14.492,0,0,1-3.262.368H151.132a14.446,14.446,0,0,1-14.447-14.444V9.086c0-.227,0-.451.015-.674a14.513,14.513,0,0,1,3.262-.369h64.514a14.469,14.469,0,0,1,10.556,4.588l7.734,8.274,8.855,9.264a14.538,14.538,0,0,1,4.007,9.979Z" transform="translate(-85.716 -5.064)" fill="#ffdaaa"/>
    <path id="Path_828883" data-name="Path 828883" d="M344.3,195.312v81.226a20.417,20.417,0,0,1-20.416,20.416H270.83a20.417,20.417,0,0,1-20.416-20.416V195.312A20.408,20.408,0,0,1,270.83,174.9h53.053A20.415,20.415,0,0,1,344.3,195.312Z" transform="translate(-157.324 -110.121)" fill="#4cba68"/>
    <path id="Path_828884" data-name="Path 828884" d="M358.65,195.312v81.226a20.308,20.308,0,0,1-3.954,12.075,20.33,20.33,0,0,1-8.021,1.638H293.622a20.417,20.417,0,0,1-20.416-20.416V188.61a20.308,20.308,0,0,1,3.954-12.075,20.331,20.331,0,0,1,8.021-1.638h53.053A20.415,20.415,0,0,1,358.65,195.312Z" transform="translate(-171.675 -110.121)" fill="#c1e29a"/>
    <path id="Path_828885" data-name="Path 828885" d="M371.685,369.022v9.54a3.052,3.052,0,0,1-3.05,3.053h-9.544a3.053,3.053,0,0,1-3.053-3.053v-9.54a3.053,3.053,0,0,1,3.053-3.053h9.544A3.052,3.052,0,0,1,371.685,369.022Z" transform="translate(-223.83 -230.428)" fill="#2c733f"/>
    <path id="Path_828886" data-name="Path 828886" d="M354.122,213.661v10.221a6.583,6.583,0,0,1-6.583,6.583H294.88a6.585,6.585,0,0,1-6.583-6.583V213.661a6.585,6.585,0,0,1,6.583-6.583h52.659A6.583,6.583,0,0,1,354.122,213.661Z" transform="translate(-181.177 -130.384)" fill="#1e81ce"/>
    <path id="Path_828887" data-name="Path 828887" d="M373.113,213.661v10.221a6.583,6.583,0,0,1-6.583,6.583H325.041a6.585,6.585,0,0,1-6.583-6.583V213.661a6.585,6.585,0,0,1,6.583-6.583h41.488A6.583,6.583,0,0,1,373.113,213.661Z" transform="translate(-200.167 -130.384)" fill="#d5fff5"/>
    <g id="Group_1077180" data-name="Group 1077180" transform="translate(107.121 110.593)">
      <path id="Path_828888" data-name="Path 828888" d="M303.947,369.022v9.54a3.053,3.053,0,0,1-3.053,3.053H291.35a3.055,3.055,0,0,1-3.053-3.053v-9.54a3.055,3.055,0,0,1,3.053-3.053h9.544A3.053,3.053,0,0,1,303.947,369.022Z" transform="translate(-288.297 -341.021)" fill="#2c733f"/>
      <path id="Path_828889" data-name="Path 828889" d="M371.685,301.661v9.54a3.052,3.052,0,0,1-3.05,3.053h-9.544a3.053,3.053,0,0,1-3.053-3.053v-9.54a3.053,3.053,0,0,1,3.053-3.053h9.544A3.052,3.052,0,0,1,371.685,301.661Z" transform="translate(-330.95 -298.608)" fill="#2c733f"/>
    </g>
    <path id="Path_828890" data-name="Path 828890" d="M440.242,301.661v9.54a3.053,3.053,0,0,1-3.053,3.053h-9.54A3.053,3.053,0,0,1,424.6,311.2v-9.54a3.053,3.053,0,0,1,3.053-3.053h9.54A3.053,3.053,0,0,1,440.242,301.661Z" transform="translate(-266.996 -188.015)" fill="#ffae7e"/>
    <g id="Group_1077181" data-name="Group 1077181" transform="translate(107.121 110.593)">
      <path id="Path_828891" data-name="Path 828891" d="M303.947,301.661v9.54a3.053,3.053,0,0,1-3.053,3.053H291.35A3.055,3.055,0,0,1,288.3,311.2v-9.54a3.055,3.055,0,0,1,3.053-3.053h9.544A3.053,3.053,0,0,1,303.947,301.661Z" transform="translate(-288.297 -298.608)" fill="#2c733f"/>
      <path id="Path_828892" data-name="Path 828892" d="M371.685,433.081v9.543a3.052,3.052,0,0,1-3.05,3.053h-9.544a3.053,3.053,0,0,1-3.053-3.053v-9.543a3.052,3.052,0,0,1,3.053-3.05h9.544A3.051,3.051,0,0,1,371.685,433.081Z" transform="translate(-330.95 -381.357)" fill="#2c733f"/>
      <path id="Path_828893" data-name="Path 828893" d="M303.947,433.081v9.543a3.053,3.053,0,0,1-3.053,3.053H291.35a3.055,3.055,0,0,1-3.053-3.053v-9.543a3.054,3.054,0,0,1,3.053-3.05h9.544A3.052,3.052,0,0,1,303.947,433.081Z" transform="translate(-288.297 -381.357)" fill="#2c733f"/>
    </g>
    <path id="Path_828894" data-name="Path 828894" d="M440.242,370.5v29.628a5.207,5.207,0,0,1-5.205,5.209H429.8a5.207,5.207,0,0,1-5.205-5.209V370.5a4.536,4.536,0,0,1,4.535-4.535h6.576A4.534,4.534,0,0,1,440.242,370.5Z" transform="translate(-266.996 -230.427)" fill="#ee8700"/>
    <g id="Group_1077182" data-name="Group 1077182" transform="translate(107.121 110.593)">
      <path id="Path_828895" data-name="Path 828895" d="M371.685,369.022v2.837a3.052,3.052,0,0,1-3.05,3.053h-9.544a3.053,3.053,0,0,1-3.053-3.053v-2.837a3.053,3.053,0,0,1,3.053-3.053h9.544A3.052,3.052,0,0,1,371.685,369.022Z" transform="translate(-330.95 -341.021)" fill="#317f46"/>
      <path id="Path_828896" data-name="Path 828896" d="M303.947,369.022v2.837a3.053,3.053,0,0,1-3.053,3.053H291.35a3.055,3.055,0,0,1-3.053-3.053v-2.837a3.055,3.055,0,0,1,3.053-3.053h9.544A3.053,3.053,0,0,1,303.947,369.022Z" transform="translate(-288.297 -341.021)" fill="#317f46"/>
      <path id="Path_828897" data-name="Path 828897" d="M371.685,301.661V304.5a3.052,3.052,0,0,1-3.05,3.053h-9.544a3.053,3.053,0,0,1-3.053-3.053v-2.837a3.053,3.053,0,0,1,3.053-3.053h9.544A3.052,3.052,0,0,1,371.685,301.661Z" transform="translate(-330.95 -298.608)" fill="#317f46"/>
    </g>
    <path id="Path_828898" data-name="Path 828898" d="M440.242,301.661V304.5a3.053,3.053,0,0,1-3.053,3.053h-9.54A3.053,3.053,0,0,1,424.6,304.5v-2.837a3.053,3.053,0,0,1,3.053-3.053h9.54A3.053,3.053,0,0,1,440.242,301.661Z" transform="translate(-266.996 -188.015)" fill="#ff9811"/>
    <g id="Group_1077183" data-name="Group 1077183" transform="translate(107.121 110.593)">
      <path id="Path_828899" data-name="Path 828899" d="M303.947,301.661V304.5a3.053,3.053,0,0,1-3.053,3.053H291.35A3.055,3.055,0,0,1,288.3,304.5v-2.837a3.055,3.055,0,0,1,3.053-3.053h9.544A3.053,3.053,0,0,1,303.947,301.661Z" transform="translate(-288.297 -298.608)" fill="#317f46"/>
      <path id="Path_828900" data-name="Path 828900" d="M371.685,433.081v2.841a3.052,3.052,0,0,1-3.05,3.053h-9.544a3.053,3.053,0,0,1-3.053-3.053v-2.841a3.052,3.052,0,0,1,3.053-3.05h9.544A3.051,3.051,0,0,1,371.685,433.081Z" transform="translate(-330.95 -381.357)" fill="#317f46"/>
      <path id="Path_828901" data-name="Path 828901" d="M303.947,433.081v2.841a3.053,3.053,0,0,1-3.053,3.053H291.35a3.055,3.055,0,0,1-3.053-3.053v-2.841a3.054,3.054,0,0,1,3.053-3.05h9.544A3.052,3.052,0,0,1,303.947,433.081Z" transform="translate(-288.297 -381.357)" fill="#317f46"/>
    </g>
    <path id="Path_828902" data-name="Path 828902" d="M440.242,370.5v22.926a5.207,5.207,0,0,1-5.205,5.209H429.8a5.207,5.207,0,0,1-5.205-5.209V370.5a4.536,4.536,0,0,1,4.535-4.535h6.576A4.534,4.534,0,0,1,440.242,370.5Z" transform="translate(-266.996 -230.427)" fill="#ffae7e"/>
    <path id="Path_828903" data-name="Path 828903" d="M360.319,36.8h-18.1a5.554,5.554,0,0,1-5.554-5.554V11.924a14.428,14.428,0,0,1,4.282,3.148l7.737,8.275,8.854,9.266A14.3,14.3,0,0,1,360.319,36.8Z" transform="translate(-211.628 -7.508)" fill="#ffb655"/>
    <path id="Path_828904" data-name="Path 828904" d="M126.948,468.726a7.094,7.094,0,0,1-7.075,7.075H76.531a7.075,7.075,0,0,1,0-14.149h43.342A7.1,7.1,0,0,1,126.948,468.726Z" transform="translate(-43.386 -290.672)" fill="#aa6100"/>
    <path id="Path_828905" data-name="Path 828905" d="M126.948,430.521a7.094,7.094,0,0,1-7.075,7.075H76.531a7.075,7.075,0,0,1,0-14.149h43.342A7.1,7.1,0,0,1,126.948,430.521Z" transform="translate(-43.386 -266.617)" fill="#cc7400"/>
    <path id="Path_828906" data-name="Path 828906" d="M126.948,392.317a7.094,7.094,0,0,1-7.075,7.075H76.531a7.075,7.075,0,0,1,0-14.149h43.342A7.1,7.1,0,0,1,126.948,392.317Z" transform="translate(-43.386 -242.563)" fill="#ee8700"/>
    <path id="Path_828907" data-name="Path 828907" d="M126.948,354.111a7.094,7.094,0,0,1-7.075,7.075H76.531a7.1,7.1,0,0,1-7.075-7.075,7.094,7.094,0,0,1,7.075-7.075h43.342A7.1,7.1,0,0,1,126.948,354.111Z" transform="translate(-43.386 -218.507)" fill="#ff9811"/>
    <path id="Path_828908" data-name="Path 828908" d="M119.871,322.983H76.531a7.1,7.1,0,0,1-7.075-7.075h0a7.1,7.1,0,0,1,7.075-7.075h43.341a7.1,7.1,0,0,1,7.075,7.075h0A7.1,7.1,0,0,1,119.871,322.983Z" transform="translate(-43.386 -194.453)" fill="#ffa733"/>
    <path id="Path_828909" data-name="Path 828909" d="M63.755,399.684a23.019,23.019,0,0,0-23.99-22.044h-9.02C10.293,378.526.761,404,16.422,417.9a22.97,22.97,0,0,0,16.294,5.8h7.048v-.008c.643.026,1.292.032,1.947,0a23.412,23.412,0,0,0,4.282-.584A23.051,23.051,0,0,0,63.758,401.5v-.026C63.781,400.882,63.781,400.287,63.755,399.684Z" transform="translate(-5.083 -237.763)" fill="#cc7400"/>
    <path id="Path_828910" data-name="Path 828910" d="M97.09,402.5v.026a23.051,23.051,0,0,1-17.765,21.608,23.06,23.06,0,0,1-17.743-21.455c0-.052-.007-.1-.007-.153V402.5a23.058,23.058,0,0,1,17.762-23.25,23.056,23.056,0,0,1,17.75,21.459C97.112,401.317,97.112,401.913,97.09,402.5Z" transform="translate(-38.415 -238.793)" fill="#ee8700"/>
    <path id="Path_828911" data-name="Path 828911" d="M166.559,61.983H152.89v-26.9a17.47,17.47,0,0,0-4.83-12.038L139.228,13.8c-7.5-7.723-8.441-9.9-12.906-12.072A17.467,17.467,0,0,0,118.76,0H54.246A17.446,17.446,0,0,0,36.819,17.426V111.4H33.144A10.047,10.047,0,0,0,26.01,128.53a10.017,10.017,0,0,0-2.919,7.075,10.314,10.314,0,0,0,.2,1.988C1.472,139.812-7.219,166.815,8.747,181.471a25.173,25.173,0,0,0,18.163,6.654l49.575-.019a10.047,10.047,0,0,0,7.134-17.128,10,10,0,0,0,2.9-6.576H90.3v2.014a23.234,23.234,0,0,0,23.209,23.209h53.053a23.234,23.234,0,0,0,23.209-23.209V85.191A23.234,23.234,0,0,0,166.559,61.983ZM128.013,10.534c11.7,12.366,14.336,15.155,14.831,15.68,0,0,0,0,.007.007h0a.081.081,0,0,0,.015.019l0,0a.063.063,0,0,0,.022.022.051.051,0,0,1,.011.015s.007,0,.007.007.007,0,.011.011.011.011.015.015H128.012V10.534ZM33.144,117.359H76.486a4.1,4.1,0,1,1,0,8.192H33.144a4.1,4.1,0,1,1,0-8.192Zm0,14.149H76.486a4.1,4.1,0,1,1,0,8.192H46.549a24.259,24.259,0,0,0-3.772-1.363,25.11,25.11,0,0,0-5.958-.875c-.584-.015-1.169-.011-1.754.015H29.506a4.027,4.027,0,0,1-.458-1.873A4.1,4.1,0,0,1,33.144,131.509Zm47.438,18.246a4.1,4.1,0,0,1-4.1,4.1H59.816a25.058,25.058,0,0,0-5.057-8.192H76.486A4.1,4.1,0,0,1,80.582,149.754Zm-61.93-5.347a25.7,25.7,0,0,0-4.692,6.017H10.49A19.673,19.673,0,0,1,18.652,144.407ZM7.321,156.01h4.338a25.717,25.717,0,0,0-.812,4.465H6.264A19.574,19.574,0,0,1,7.321,156.01Zm.48,14.764a19.541,19.541,0,0,1-1.4-4.714h4.55a22.48,22.48,0,0,0,1.065,4.714Zm3.716,5.585c1.828,0,2.89.007,3.139-.007a25.155,25.155,0,0,0,4.007,4.848A19.679,19.679,0,0,1,11.518,176.359Zm25.417,6.185a19.744,19.744,0,0,1-20.587-18.9c-.749-17.393,20.025-27.409,33.106-15.4C62.348,160.083,54.5,181.821,36.935,182.544Zm39.552-.395H52.444a25.518,25.518,0,0,0,6.4-8.192H76.486a4.1,4.1,0,0,1,0,8.192ZM80.549,164.4a4.1,4.1,0,0,1-4.063,3.6H60.9a25.592,25.592,0,0,0,.361-8.192H76.486A4.1,4.1,0,0,1,80.549,164.4Zm9.748-5.958H84.92a9.883,9.883,0,0,0-1.3-1.616,10.031,10.031,0,0,0,0-14.149,10.032,10.032,0,0,0,0-14.149A10.062,10.062,0,0,0,76.486,111.4H42.777V17.426A11.483,11.483,0,0,1,54.245,5.958h67.81V29.293a2.978,2.978,0,0,0,2.979,2.979h21.544c.622,2.413.238,1.616.354,29.71H113.506A23.234,23.234,0,0,0,90.3,85.191v73.254Zm93.886,7.972a17.643,17.643,0,0,1-17.624,17.624H113.506a17.645,17.645,0,0,1-17.624-17.624V85.191a17.645,17.645,0,0,1,17.624-17.624H166.56a17.643,17.643,0,0,1,17.624,17.624v81.226Z"/>
    <path id="Path_828912" data-name="Path 828912" d="M300.264,222.926H290.133a3.8,3.8,0,0,1-3.791-3.791V208.914a3.8,3.8,0,0,1,3.791-3.791h52.659a3.794,3.794,0,0,1,3.791,3.791v10.221a3.794,3.794,0,0,1-3.791,3.791H312.307a2.793,2.793,0,0,0,0,5.585h30.485a9.386,9.386,0,0,0,9.376-9.376V208.914a9.386,9.386,0,0,0-9.376-9.376H290.133a9.376,9.376,0,0,0-9.376,9.376v10.221a9.376,9.376,0,0,0,9.376,9.376h10.132a2.793,2.793,0,0,0,0-5.585Z" transform="translate(-176.429 -125.637)"/>
    <path id="Path_828913" data-name="Path 828913" d="M286.6,379.66h9.544a5.851,5.851,0,0,0,5.846-5.846v-9.54a5.851,5.851,0,0,0-5.846-5.846H286.6a5.853,5.853,0,0,0-5.846,5.846v9.54A5.853,5.853,0,0,0,286.6,379.66Zm-.261-15.386a.262.262,0,0,1,.261-.261h9.544a.262.262,0,0,1,.261.261v9.54a.262.262,0,0,1-.261.261H286.6a.262.262,0,0,1-.261-.261Z" transform="translate(-176.429 -225.68)"/>
    <path id="Path_828914" data-name="Path 828914" d="M432.442,291.068H422.9a5.851,5.851,0,0,0-5.846,5.846v9.54A5.851,5.851,0,0,0,422.9,312.3h9.54a5.851,5.851,0,0,0,5.846-5.846v-9.54A5.851,5.851,0,0,0,432.442,291.068Zm.261,15.386a.259.259,0,0,1-.261.261H422.9a.262.262,0,0,1-.261-.261c.116-9.439-.242-9.8.261-9.8h9.54a.259.259,0,0,1,.261.261Z" transform="translate(-262.248 -183.268)"/>
    <path id="Path_828915" data-name="Path 828915" d="M286.6,312.3h9.544a5.851,5.851,0,0,0,5.846-5.846v-9.54a5.851,5.851,0,0,0-5.846-5.846H286.6a5.853,5.853,0,0,0-5.846,5.846v9.54A5.853,5.853,0,0,0,286.6,312.3Zm-.261-15.386a.262.262,0,0,1,.261-.261h9.544a.262.262,0,0,1,.261.261v9.54a.262.262,0,0,1-.261.261H286.6a.262.262,0,0,1-.261-.261Z" transform="translate(-176.429 -183.268)"/>
    <path id="Path_828916" data-name="Path 828916" d="M300.5,424.461a5.843,5.843,0,0,0-4.375-1.97h-9.544a5.829,5.829,0,0,0-4.371,1.97c-2.029,2.275-1.34,4.755-1.474,5.958v7.458a5.853,5.853,0,0,0,5.846,5.846h9.544a5.851,5.851,0,0,0,5.846-5.846v-7.458C301.841,429.242,302.523,426.736,300.5,424.461Zm-4.375,13.677c-9.428-.116-9.8.242-9.8-.261,0-10.1-.112-9.8.261-9.8h9.544c.458,0,.175.637.261,2.342C296.39,430.419,296.632,438.137,296.129,438.137Z" transform="translate(-176.412 -266.016)"/>
    <path id="Path_828917" data-name="Path 828917" d="M430.959,358.428h-6.576a7.337,7.337,0,0,0-7.328,7.328v29.628a8.01,8.01,0,0,0,8,8h5.235a8.008,8.008,0,0,0,8-8V365.756A7.335,7.335,0,0,0,430.959,358.428Zm1.743,36.956a2.416,2.416,0,0,1-2.413,2.417h-5.235a2.418,2.418,0,0,1-2.413-2.417V365.756a1.745,1.745,0,0,1,1.743-1.743h6.576a1.745,1.745,0,0,1,1.742,1.743v29.628Z" transform="translate(-262.248 -225.68)"/>
    <path id="Path_828918" data-name="Path 828918" d="M174.536,186.451h0c-3.405-1.251-5.865-2.155-5.865-5.31,0-2.875,1.91-4.333,5.675-4.333,4,0,5.074,1.76,6.482,1.76,1.533,0,2.38-1.627,2.38-2.751,0-2.327-3.8-3.48-7.188-3.785v-2.1a2.646,2.646,0,1,0-5.293,0v2.432c-4.639,1.1-7.188,4.305-7.188,9.053,0,6.5,4.785,8.3,8.631,9.744,3.765,1.415,6.74,2.533,6.74,6.831,0,3.551-1.971,5.351-5.861,5.351-5.692,0-5.745-3.843-7.916-3.843a2.792,2.792,0,0,0-2.427,2.751c0,2.2,3.277,5.093,8.021,5.844v2.027a2.646,2.646,0,1,0,5.293,0v-2.081c5.1-.96,8.021-4.707,8.021-10.327C184.042,189.943,178.772,188.007,174.536,186.451Z" transform="translate(-102.101 -105.331)"/>
    <path id="Path_828919" data-name="Path 828919" d="M363.873,422.491h-9.544a5.843,5.843,0,0,0-4.375,1.97c-2.022,2.279-1.337,4.755-1.471,5.958v7.458a5.851,5.851,0,0,0,5.846,5.846h9.544a5.85,5.85,0,0,0,5.842-5.846v-9.544a5.852,5.852,0,0,0-5.842-5.842Zm0,15.646c-9.428-.116-9.8.242-9.8-.261v-9.544a.261.261,0,0,1,.261-.257h9.544a.258.258,0,0,1,.257.257C364.018,437.784,364.368,438.137,363.873,438.137Z" transform="translate(-219.066 -266.016)"/>
    <path id="Path_828920" data-name="Path 828920" d="M363.888,291.068h-9.544a5.851,5.851,0,0,0-5.846,5.846v9.54a5.851,5.851,0,0,0,5.846,5.846h9.544a5.758,5.758,0,0,0,2.126-.4,5.853,5.853,0,0,0,3.716-5.444v-9.54A5.853,5.853,0,0,0,363.888,291.068Zm.257,15.386a.258.258,0,0,1-.257.261h-9.544a.262.262,0,0,1-.261-.261v-9.54c0-.5.346-.149,9.8-.261a.258.258,0,0,1,.257.261v9.54Z" transform="translate(-219.082 -183.268)"/>
    <path id="Path_828921" data-name="Path 828921" d="M366.014,358.83a5.758,5.758,0,0,0-2.126-.4h-9.544a5.851,5.851,0,0,0-5.846,5.846v9.54a5.851,5.851,0,0,0,5.846,5.846h9.544a5.85,5.85,0,0,0,5.842-5.846v-9.54A5.852,5.852,0,0,0,366.014,358.83Zm-1.869,14.983a.258.258,0,0,1-.257.261h-9.544a.262.262,0,0,1-.261-.261v-9.54a.262.262,0,0,1,.261-.261h9.544a.258.258,0,0,1,.257.261Z" transform="translate(-219.082 -225.68)"/>
    <path id="Path_828922" data-name="Path 828922" d="M322.839,108.627h7.015a2.793,2.793,0,1,0,0-5.585h-7.015a2.793,2.793,0,0,0,0,5.585Z" transform="translate(-201.167 -64.879)"/>
    <path id="Path_828923" data-name="Path 828923" d="M158.963,108.627h49.523a2.793,2.793,0,1,0,0-5.585H158.963a2.793,2.793,0,1,0,0,5.585Z" transform="translate(-97.984 -64.879)"/>
    <path id="Path_828924" data-name="Path 828924" d="M167.839,146.057a2.793,2.793,0,0,0,0-5.585h-8.877a2.793,2.793,0,1,0,0,5.585Z" transform="translate(-97.984 -88.446)"/>
    <path id="Path_828925" data-name="Path 828925" d="M263.546,143.265a2.794,2.794,0,0,0-2.793-2.793H213.092a2.793,2.793,0,1,0,0,5.585h47.662A2.794,2.794,0,0,0,263.546,143.265Z" transform="translate(-132.066 -88.446)"/>
    <path id="Path_828926" data-name="Path 828926" d="M83.433,407.9c0-.7.259-.9.5-1.037a4.8,4.8,0,0,1,4.048.274,3.192,3.192,0,0,0,1.511.459c2.754,0,4.933-5.118-1.647-6.25v-.176a2.83,2.83,0,1,0-5.66,0v.537a6.35,6.35,0,0,0-4.317,6.36c0,4.763,3.46,6.063,5.988,7.012,2.41.906,3.243,1.3,3.243,2.941,0,1.025-.276,1.973-2.279,1.973-2.919,0-2.57-2.307-4.754-2.307a2.918,2.918,0,0,0-2.7,2.893c0,1.935,2.012,3.771,4.818,4.516v.212a2.83,2.83,0,0,0,5.66,0v-.286c3.036-.976,4.817-3.59,4.817-7.167C92.665,409.37,83.433,410.644,83.433,407.9Z" transform="translate(-48.369 -250.811)"/>
  </g>
</svg>
