<svg id="Group_1078433" data-name="Group 1078433" xmlns="http://www.w3.org/2000/svg" xmlns:xlink="http://www.w3.org/1999/xlink" width="183.525" height="183.525" viewBox="0 0 183.525 183.525">
  <defs>
    <linearGradient id="linear-gradient" x1="0.5" x2="0.5" y2="1" gradientUnits="objectBoundingBox">
      <stop offset="0" stop-color="#defff8"/>
      <stop offset="0.803" stop-color="#eaf5ff"/>
      <stop offset="1" stop-color="#f0feff"/>
    </linearGradient>
  </defs>
  <path id="Path_828927" data-name="Path 828927" d="M243.78,18.5h-7.939a1.108,1.108,0,0,1-1.108-1.108V8.608A1.108,1.108,0,0,0,233.625,7.5h-8.862a1.108,1.108,0,0,0-1.108,1.108v8.78a1.108,1.108,0,0,1-1.108,1.108h-7.939A1.108,1.108,0,0,0,213.5,19.6v8.862a1.108,1.108,0,0,0,1.108,1.108h7.939a1.108,1.108,0,0,1,1.108,1.108V54.4h11.078V30.681a1.108,1.108,0,0,1,1.108-1.108h7.939a1.108,1.108,0,0,0,1.108-1.108V19.6A1.108,1.108,0,0,0,243.78,18.5Z" transform="translate(-137.431 -7.5)" fill="#ffbf54"/>
  <g id="Group_1077185" data-name="Group 1077185" transform="translate(85.116)">
    <path id="Path_828928" data-name="Path 828928" d="M244.647,12.956V8.608A1.108,1.108,0,0,1,245.755,7.5h-5.539a1.108,1.108,0,0,0-1.108,1.108v8.78A1.108,1.108,0,0,1,238,18.5h1.108a5.539,5.539,0,0,0,5.539-5.539Z" transform="translate(-238 -7.5)" fill="#ffa442"/>
  </g>
  <g id="Group_1077186" data-name="Group 1077186" transform="translate(76.069 10.995)">
    <path id="Path_828929" data-name="Path 828929" d="M229.194,67.639V48.354a5.539,5.539,0,0,0-5.539-5.539h-4.247a.369.369,0,0,1-.369-.369v-5.17h-4.431a1.108,1.108,0,0,0-1.108,1.108v8.862a1.108,1.108,0,0,0,1.108,1.108h7.939a1.108,1.108,0,0,1,1.108,1.108V73.177h11.078V67.639Z" transform="translate(-213.5 -37.276)" fill="#ffa442"/>
  </g>
  <path id="Path_828930" data-name="Path 828930" d="M398.58,363.066H363.5V303.681L398.58,320.6l3.693,5.576v33.2Z" transform="translate(-232.042 -194.312)" fill="#ffe8c8"/>
  <path id="Path_828931" data-name="Path 828931" d="M94.307,348.772H53.5V302.613l39.953-21.6Z" transform="translate(-36.514 -180.017)" fill="#ffe8c8"/>
  <path id="Path_828932" data-name="Path 828932" d="M89.658,254.284,43.5,278.36V335.6l20.259,7.162L88,336.884l-.188-8.667H52.732a1.847,1.847,0,0,1-1.846-1.846V292.287a1.846,1.846,0,0,1,.993-1.637l37.708-19.42Z" transform="translate(-30.207 -163.155)" fill="#fdd9b4"/>
  <path id="Path_828933" data-name="Path 828933" d="M376.433,298.31V281.65L333.967,259.5l-11.435,43.758,11.435,35.634,22.129,3.693,20.337-3.693v-7.385H343.2a1.847,1.847,0,0,1-1.846-1.846v-46.6a1.846,1.846,0,0,1,2.7-1.637Z" transform="translate(-206.202 -166.445)" fill="#fdd9b4"/>
  <g id="Group_1077188" data-name="Group 1077188" transform="translate(7.393 89.362)">
    <g id="Group_1077187" data-name="Group 1077187">
      <path id="Path_828934" data-name="Path 828934" d="M27.52,280.409v-3.083a1.107,1.107,0,0,1,.6-.982l1.62-6.464L68.5,249.659l3.693-.16v11.632L29.14,281.391a1.108,1.108,0,0,1-1.62-.982Z" transform="translate(-27.52 -249.5)" fill="#8aaadc"/>
    </g>
  </g>
  <g id="Group_1077189" data-name="Group 1077189" transform="translate(3.7 85.669)">
    <path id="Path_828935" data-name="Path 828935" d="M62.194,243.352v8.283a1.846,1.846,0,0,1-.993,1.637L23.968,272.693a.369.369,0,0,1-.54-.328v-8.793l-5.313,2.771a1.108,1.108,0,0,0-.6.982v14.161a1.108,1.108,0,0,0,1.62.982l50.439-26.309,3.693-7.258-3.693-9.4Z" transform="translate(-17.52 -239.5)" fill="url(#linear-gradient)"/>
  </g>
  <g id="Group_1077191" data-name="Group 1077191" transform="translate(129.624 89.522)">
    <g id="Group_1077190" data-name="Group 1077190">
      <path id="Path_828936" data-name="Path 828936" d="M408.732,281.819v-7.914a1.107,1.107,0,0,0-.6-.982l-44.078-22.991-4.679.143-.849,10.654,47.235,24.23Z" transform="translate(-358.531 -249.932)" fill="url(#linear-gradient)"/>
    </g>
  </g>
  <g id="Group_1077192" data-name="Group 1077192" transform="translate(124.073 85.669)">
    <path id="Path_828937" data-name="Path 828937" d="M354.578,250.818v-7.464l-7.385-3.853-3.693,7.385,3.693,9.274,50.439,26.309a1.108,1.108,0,0,0,1.62-.982v-6.248L355.57,252.454A1.846,1.846,0,0,1,354.578,250.818Z" transform="translate(-343.5 -239.5)" fill="#7398d4"/>
  </g>
  <path id="Path_828938" data-name="Path 828938" d="M233.121,264.349H168.5V163.015l28.941-15.11a8.1,8.1,0,0,1,6.74,0l28.941,15.11,3.693,12.675v84.966Z" transform="translate(-109.048 -95.595)" fill="#ffe8c8"/>
  <path id="Path_828939" data-name="Path 828939" d="M193.661,148.047a1.845,1.845,0,0,1,1.685,0l35.161,18.031v-16.6l-32.633-16.735a7.385,7.385,0,0,0-6.74,0L158.5,149.478V258.429l36,3.693,36-3.693v-7.385H167.732a1.847,1.847,0,0,1-1.846-1.846V163.418a1.847,1.847,0,0,1,1-1.643Z" transform="translate(-102.741 -85.982)" fill="#fdd9b4"/>
  <g id="Group_1077194" data-name="Group 1077194" transform="translate(47.052 38.562)">
    <g id="Group_1077193" data-name="Group 1077193">
      <path id="Path_828940" data-name="Path 828940" d="M222.229,146.348l-41.756-21.994a1.845,1.845,0,0,0-1.685,0l-42.255,20.94a1.108,1.108,0,0,1-1.613-.986v-8.57a1.108,1.108,0,0,1,.6-.986l6.031-4.21,34.707-17.8a7.385,7.385,0,0,1,6.74,0l41.477,21.27a1.108,1.108,0,0,1,.6.986v8.5l-1.237,1.862A1.108,1.108,0,0,1,222.229,146.348Z" transform="translate(-134.92 -111.929)" fill="url(#linear-gradient)"/>
    </g>
  </g>
  <g id="Group_1077195" data-name="Group 1077195" transform="translate(46.313 47.548)">
    <path id="Path_828941" data-name="Path 828941" d="M223.819,158.848,180.9,136.873a5.538,5.538,0,0,0-5.055,0l-33.923,17.4a1.108,1.108,0,0,1-1.613-.986v-7.368c0-.011,0-.023,0-.034l-6.785,3.48a1.108,1.108,0,0,0-.6.986v14.109a1.108,1.108,0,0,0,1.613.986l42.993-22.048a1.845,1.845,0,0,1,1.685,0l42.994,22.048a1.108,1.108,0,0,0,1.613-.986v-5.608Z" transform="translate(-132.921 -136.263)" fill="#7398d4"/>
  </g>
  <path id="Path_828942" data-name="Path 828942" d="M248.6,333l-9.937-9.578a3.693,3.693,0,0,0-5.125,0l-4.853,4.677-2.712,4.446c-1.805,1.74-1.5,4.594-1.5,7.1v38.911h23.264l3.693-7.385V339.647A9.23,9.23,0,0,0,248.6,333Z" transform="translate(-144.336 -206.111)" fill="#d77f4a"/>
  <path id="Path_828943" data-name="Path 828943" d="M245.149,379.14v7.385l-12.581,3.693h-5.487L214.5,386.525v-38.91a9.228,9.228,0,0,1,2.825-6.647l6.17-5.949a9.221,9.221,0,0,0-1.61,5.21v37.8a1.106,1.106,0,0,0,1.108,1.108Z" transform="translate(-138.062 -214.078)" fill="#c86d36"/>
  <g id="Group_1077196" data-name="Group 1077196" transform="translate(2.439 172.447)">
    <path id="Path_828944" data-name="Path 828944" d="M193.345,483.107H15.952a1.847,1.847,0,0,1-1.846-1.846v-4.915a1.847,1.847,0,0,1,1.846-1.846H193.345a1.847,1.847,0,0,1,1.846,1.846v4.915A1.847,1.847,0,0,1,193.345,483.107Z" transform="translate(-14.106 -474.5)" fill="url(#linear-gradient)"/>
  </g>
  <g id="Group_1077197" data-name="Group 1077197" transform="translate(0 172.447)">
    <path id="Path_828945" data-name="Path 828945" d="M14.885,480.039a1.847,1.847,0,0,1-1.846-1.846V474.5H9.346A1.847,1.847,0,0,0,7.5,476.346v7.385a1.847,1.847,0,0,0,1.846,1.846H189.179a1.847,1.847,0,0,0,1.846-1.846v-3.693Z" transform="translate(-7.5 -474.5)" fill="#7398d4"/>
  </g>
  <circle id="Ellipse_5917" data-name="Ellipse 5917" cx="11.078" cy="11.078" r="11.078" transform="translate(80.685 76.918)" fill="#e9edf1"/>
  <g id="Group_1077198" data-name="Group 1077198" transform="translate(28.064 134.043)">
    <path id="Path_828946" data-name="Path 828946" d="M89.962,370.5a6.462,6.462,0,0,0-6.462,6.462V394.5H96.424v-17.54A6.462,6.462,0,0,0,89.962,370.5Z" transform="translate(-83.5 -370.5)" fill="#dce6eb"/>
    <path id="Path_828947" data-name="Path 828947" d="M399.962,370.5a6.462,6.462,0,0,0-6.462,6.462V394.5h12.924v-17.54A6.462,6.462,0,0,0,399.962,370.5Z" transform="translate(-279.028 -370.5)" fill="#dce6eb"/>
  </g>
</svg>
