<svg id="Group_1077496" data-name="Group 1077496" xmlns="http://www.w3.org/2000/svg" xmlns:xlink="http://www.w3.org/1999/xlink" width="352.998" height="218.592" viewBox="0 0 352.998 218.592">
  <defs>
    <clipPath id="clip-path">
      <rect id="Rectangle_380689" data-name="Rectangle 380689" width="352.998" height="218.592" fill="none"/>
    </clipPath>
    <clipPath id="clip-path-3">
      <rect id="Rectangle_380676" data-name="Rectangle 380676" width="19.956" height="24.534" fill="none"/>
    </clipPath>
    <clipPath id="clip-path-4">
      <rect id="Rectangle_380677" data-name="Rectangle 380677" width="26.649" height="27.409" fill="none"/>
    </clipPath>
    <clipPath id="clip-path-5">
      <rect id="Rectangle_380678" data-name="Rectangle 380678" width="26.299" height="27.449" fill="none"/>
    </clipPath>
    <clipPath id="clip-path-6">
      <rect id="Rectangle_380679" data-name="Rectangle 380679" width="59.034" height="34.042" fill="none"/>
    </clipPath>
    <clipPath id="clip-path-7">
      <rect id="Rectangle_380680" data-name="Rectangle 380680" width="38.675" height="32.439" fill="none"/>
    </clipPath>
    <clipPath id="clip-path-8">
      <rect id="Rectangle_380681" data-name="Rectangle 380681" width="38.07" height="22.166" fill="none"/>
    </clipPath>
    <clipPath id="clip-path-9">
      <rect id="Rectangle_380682" data-name="Rectangle 380682" width="10.007" height="10.289" fill="none"/>
    </clipPath>
    <clipPath id="clip-path-10">
      <rect id="Rectangle_380683" data-name="Rectangle 380683" width="21.368" height="28.641" fill="none"/>
    </clipPath>
    <clipPath id="clip-path-11">
      <rect id="Rectangle_380684" data-name="Rectangle 380684" width="73.242" height="37.982" fill="none"/>
    </clipPath>
    <clipPath id="clip-path-12">
      <rect id="Rectangle_380685" data-name="Rectangle 380685" width="124.987" height="78.077" fill="none"/>
    </clipPath>
    <clipPath id="clip-path-13">
      <rect id="Rectangle_380686" data-name="Rectangle 380686" width="135.187" height="4.884" fill="none"/>
    </clipPath>
    <clipPath id="clip-path-14">
      <rect id="Rectangle_380687" data-name="Rectangle 380687" width="91.865" height="37.807" fill="#e8e8e8"/>
    </clipPath>
  </defs>
  <g id="Group_1077495" data-name="Group 1077495" clip-path="url(#clip-path)">
    <g id="Group_1077494" data-name="Group 1077494">
      <g id="Group_1077493" data-name="Group 1077493" clip-path="url(#clip-path)">
        <path id="Path_829717" data-name="Path 829717" d="M603.842,211.466l-31-5.133a.935.935,0,0,0-1.075.769l-3.329,20.1a.934.934,0,0,0,.769,1.074l31,5.133a.934.934,0,0,0,1.074-.769l3.329-20.1a.934.934,0,0,0-.769-1.075" transform="translate(-251.633 -91.334)" fill="#f9f2ff"/>
        <path id="Path_829718" data-name="Path 829718" d="M601.208,239.843a.825.825,0,0,0-.179-.572l-13.158-16.888a.991.991,0,0,0-1.3-.216L568.687,233.9a.86.86,0,0,0-.255.257l-.011.068a.9.9,0,0,0,.781,1l31,5.133a.92.92,0,0,0,1.009-.516" transform="translate(-251.625 -98.281)" fill="#ece6f2"/>
        <path id="Path_829719" data-name="Path 829719" d="M607.288,212.282a.92.92,0,0,0-.789-.816l-31-5.133a.9.9,0,0,0-1.063.7l-.008.052a.854.854,0,0,0,.158.325l13.158,16.888a.991.991,0,0,0,1.3.216l17.88-11.731a.829.829,0,0,0,.357-.5" transform="translate(-254.29 -91.333)" fill="#ded6e8"/>
        <g id="Group_1077459" data-name="Group 1077459" transform="translate(333.042 117.558)" opacity="0.3" style="mix-blend-mode: overlay;isolation: isolate">
          <g id="Group_1077458" data-name="Group 1077458">
            <g id="Group_1077457" data-name="Group 1077457" clip-path="url(#clip-path-3)">
              <path id="Path_829720" data-name="Path 829720" d="M617.516,214.584a.962.962,0,0,0,.009-.221c0-.013.008-.025.011-.038a.911.911,0,0,0-.694-.795h0c-.03-.008-.061-.014-.093-.02L601.2,210.935c-.085.574-.179,1.148-.273,1.719-.786,4.762-1.364,9.552-2.218,14.3q-.534,2.969-1.13,5.924l15.532,2.573c.031.005.062.008.094.011h0a.91.91,0,0,0,.912-.526c0-.012,0-.025,0-.037a.924.924,0,0,0,.064-.216Z" transform="translate(-597.58 -210.935)" fill="#4a1e43"/>
            </g>
          </g>
        </g>
        <path id="Path_829721" data-name="Path 829721" d="M537.443,227.47,513.151,247.4a.935.935,0,0,0-.13,1.315l12.922,15.754a.935.935,0,0,0,1.315.13l24.292-19.926a.934.934,0,0,0,.13-1.315L538.758,227.6a.934.934,0,0,0-1.315-.13" transform="translate(-227.011 -100.603)" fill="#f9f2ff"/>
        <path id="Path_829722" data-name="Path 829722" d="M562.236,255.351a.829.829,0,0,0-.548-.243l-21.374-1.237a.992.992,0,0,0-1.022.838l-2.964,21.179a.845.845,0,0,0,.026.361l.044.053a.9.9,0,0,0,1.268.073l24.292-19.926a.92.92,0,0,0,.278-1.1" transform="translate(-237.419 -112.383)" fill="#ece6f2"/>
        <path id="Path_829723" data-name="Path 829723" d="M538.562,227.4a.921.921,0,0,0-1.134.056l-24.292,19.926a.9.9,0,0,0-.176,1.258l.033.041a.843.843,0,0,0,.349.1l21.374,1.237a.992.992,0,0,0,1.021-.838L538.7,228a.83.83,0,0,0-.139-.6" transform="translate(-226.997 -100.593)" fill="#ded6e8"/>
        <g id="Group_1077462" data-name="Group 1077462" transform="translate(298.249 126.642)" opacity="0.3" style="mix-blend-mode: overlay;isolation: isolate">
          <g id="Group_1077461" data-name="Group 1077461">
            <g id="Group_1077460" data-name="Group 1077460" clip-path="url(#clip-path-4)">
              <path id="Path_829724" data-name="Path 829724" d="M548.648,227.589a.937.937,0,0,0-.16-.153c-.007-.011-.013-.022-.021-.033a.91.91,0,0,0-1.055,0l0,0c-.026.017-.051.036-.076.056l-12.183,9.993c.376.443.745.891,1.112,1.339,3.063,3.73,6.284,7.321,9.295,11.1q1.881,2.357,3.71,4.755l12.173-9.985c.025-.02.048-.042.07-.064l0,0a.912.912,0,0,0,.205-1.033l-.027-.026a.938.938,0,0,0-.12-.191Z" transform="translate(-535.151 -227.234)" fill="#4a1e43"/>
            </g>
          </g>
        </g>
        <path id="Path_829725" data-name="Path 829725" d="M584.63,269.421l-25.22-18.738a.935.935,0,0,0-1.307.193l-12.152,16.356a.935.935,0,0,0,.193,1.307l25.221,18.737a.933.933,0,0,0,1.307-.193l12.152-16.356a.934.934,0,0,0-.193-1.307" transform="translate(-241.601 -110.892)" fill="#f9f2ff"/>
        <path id="Path_829726" data-name="Path 829726" d="M572.483,298.688a.832.832,0,0,0,.1-.591L568.6,277.061a.991.991,0,0,0-1.061-.788l-21.265,2.258a.847.847,0,0,0-.344.113l-.041.055a.9.9,0,0,0,.236,1.248l25.22,18.738a.92.92,0,0,0,1.133,0" transform="translate(-241.587 -122.299)" fill="#ece6f2"/>
        <path id="Path_829727" data-name="Path 829727" d="M594.749,270.5a.92.92,0,0,0-.329-1.086L569.2,250.674a.9.9,0,0,0-1.263.134l-.031.042a.867.867,0,0,0-.008.362l3.981,21.036a.992.992,0,0,0,1.061.788l21.266-2.258a.83.83,0,0,0,.545-.28" transform="translate(-251.391 -110.882)" fill="#ded6e8"/>
        <g id="Group_1077465" data-name="Group 1077465" transform="translate(317.125 149.133)" opacity="0.3" style="mix-blend-mode: overlay;isolation: isolate">
          <g id="Group_1077464" data-name="Group 1077464">
            <g id="Group_1077463" data-name="Group 1077463" clip-path="url(#clip-path-5)">
              <path id="Path_829728" data-name="Path 829728" d="M595.117,278.294a.927.927,0,0,0,.109-.192c.009-.009.018-.018.027-.028a.911.911,0,0,0-.254-1.024l0,0c-.023-.021-.047-.041-.073-.06l-12.648-9.4c-.339.472-.684.939-1.029,1.4-2.876,3.876-5.58,7.872-8.512,11.708q-1.833,2.4-3.715,4.752l12.638,9.389c.026.019.052.036.079.052l0,0a.911.911,0,0,0,1.052-.051l.018-.033a.945.945,0,0,0,.156-.163Z" transform="translate(-569.02 -267.59)" fill="#4a1e43"/>
            </g>
          </g>
        </g>
        <path id="Path_829729" data-name="Path 829729" d="M566.106,295.98H545.394V292.5a.974.974,0,0,0-.984-.963H509.041a.974.974,0,0,0-.984.963v44.392a.974.974,0,0,0,.984.963h57.065a.974.974,0,0,0,.984-.963V296.943a.974.974,0,0,0-.984-.963" transform="translate(-224.908 -129.058)" fill="#c1e29a"/>
        <g id="Group_1077468" data-name="Group 1077468" transform="translate(283.149 174.754)" opacity="0.3" style="mix-blend-mode: overlay;isolation: isolate">
          <g id="Group_1077467" data-name="Group 1077467">
            <g id="Group_1077466" data-name="Group 1077466" clip-path="url(#clip-path-6)">
              <path id="Path_829730" data-name="Path 829730" d="M552.493,320.2c-6.292,2.933-12.573,5.892-18.87,8.812-8.509,3.946-17.111,7.694-25.566,11.748v5.879a.974.974,0,0,0,.984.963h57.065a.974.974,0,0,0,.984-.963v-33.08c-4.862,2.22-9.752,4.382-14.6,6.641" transform="translate(-508.056 -313.563)" fill="#4a1e43"/>
            </g>
          </g>
        </g>
        <path id="Path_829731" data-name="Path 829731" d="M254.108,122.3a23.833,23.833,0,0,1-8-17.64c0-13.774,12.225-24.939,27.306-24.939s27.307,11.166,27.307,24.939S288.492,129.6,273.41,129.6a29.284,29.284,0,0,1-12.458-2.749c-2.4,1.56-4.966,2.919-7.467,4.3a.613.613,0,0,1-.889-.683c.449-2.73.964-5.45,1.512-8.162" transform="translate(-108.946 -35.289)" fill="#e8e8e8"/>
        <g id="Group_1077471" data-name="Group 1077471" transform="translate(153.097 61.867)" opacity="0.3" style="mix-blend-mode: overlay;isolation: isolate">
          <g id="Group_1077470" data-name="Group 1077470">
            <g id="Group_1077469" data-name="Group 1077469" clip-path="url(#clip-path-7)">
              <path id="Path_829732" data-name="Path 829732" d="M312.044,111.07c-9.2,7.349-18.481,14.609-27.6,22.064-3.261,2.666-6.515,5.337-9.739,8.046a29.348,29.348,0,0,0,11.367,2.268c15.082,0,27.307-11.166,27.307-24.939a22.944,22.944,0,0,0-1.258-7.5l-.076.061" transform="translate(-274.704 -111.009)" fill="#4a1e43"/>
            </g>
          </g>
        </g>
        <path id="Path_829733" data-name="Path 829733" d="M314.192,102.612h5.424a1.336,1.336,0,0,0,1.336-1.336v-.041a1.336,1.336,0,0,0-1.336-1.336h-5.424a1.336,1.336,0,0,0-1.336,1.336v.041a1.336,1.336,0,0,0,1.336,1.336" transform="translate(-138.496 -44.224)" fill="#213150"/>
        <path id="Path_829734" data-name="Path 829734" d="M266.846,102.612h21.915a1.336,1.336,0,0,0,1.336-1.336v-.041a1.336,1.336,0,0,0-1.336-1.336H266.846a1.336,1.336,0,0,0-1.336,1.336v.041a1.336,1.336,0,0,0,1.336,1.336" transform="translate(-117.537 -44.224)" fill="#213150"/>
        <path id="Path_829735" data-name="Path 829735" d="M273.3,113.843h30.911a1.336,1.336,0,0,0,1.336-1.336v-.041a1.336,1.336,0,0,0-1.336-1.336H273.3a1.336,1.336,0,0,0-1.336,1.336v.041a1.336,1.336,0,0,0,1.336,1.336" transform="translate(-120.394 -49.195)" fill="#213150"/>
        <path id="Path_829736" data-name="Path 829736" d="M295.9,125.074h15.619a1.336,1.336,0,0,0,1.336-1.336V123.7a1.336,1.336,0,0,0-1.336-1.336H295.9a1.336,1.336,0,0,0-1.336,1.336v.041a1.336,1.336,0,0,0,1.336,1.336" transform="translate(-130.398 -54.167)" fill="#213150"/>
        <path id="Path_829737" data-name="Path 829737" d="M259.314,125.074h15.619a1.336,1.336,0,0,0,1.336-1.336V123.7a1.336,1.336,0,0,0-1.336-1.336H259.314a1.336,1.336,0,0,0-1.336,1.336v.041a1.336,1.336,0,0,0,1.336,1.336" transform="translate(-114.202 -54.167)" fill="#213150"/>
        <path id="Path_829738" data-name="Path 829738" d="M273.3,136.3h30.911a1.336,1.336,0,0,0,1.336-1.336v-.041a1.336,1.336,0,0,0-1.336-1.336H273.3a1.336,1.336,0,0,0-1.336,1.336v.041A1.336,1.336,0,0,0,273.3,136.3" transform="translate(-120.394 -59.138)" fill="#213150"/>
        <path id="Path_829739" data-name="Path 829739" d="M268.46,147.535h14.12a1.336,1.336,0,0,0,1.336-1.336v-.041a1.336,1.336,0,0,0-1.336-1.336H268.46a1.336,1.336,0,0,0-1.336,1.336v.041a1.336,1.336,0,0,0,1.336,1.336" transform="translate(-118.251 -64.11)" fill="#213150"/>
        <path id="Path_829740" data-name="Path 829740" d="M301.279,147.535H308.5a1.336,1.336,0,0,0,1.336-1.336v-.041a1.336,1.336,0,0,0-1.336-1.336h-7.223a1.336,1.336,0,0,0-1.336,1.336v.041a1.336,1.336,0,0,0,1.336,1.336" transform="translate(-132.779 -64.11)" fill="#213150"/>
        <path id="Path_829741" data-name="Path 829741" d="M235.521,31.028a6.706,6.706,0,0,1-4.773,2.633A5.162,5.162,0,0,1,226.4,31.71a9.835,9.835,0,0,0-.983-1.325,1.388,1.388,0,0,0-1.506-.367,1.919,1.919,0,0,0-.792,1.2l-1.433,4.306a1.893,1.893,0,0,1-2.821,1.573l-4.376-1.25c-.524-.149-1.171-.269-1.545.129-.553.59.093,1.489.561,2.148a5.374,5.374,0,0,1-.152,6.079,6.641,6.641,0,0,1-5.663,2.584c-2.539-.124-5.638-1.673-6.547-4.193a4.91,4.91,0,0,1,2.015-5.8,11.313,11.313,0,0,0,2.124-1.134,1.5,1.5,0,0,0,.3-2.119,2.01,2.01,0,0,0-.862-.387l-4.07-1.1a2.607,2.607,0,0,1-1.65-.931,2.616,2.616,0,0,1-.015-2.032l1.609-5.987a1.432,1.432,0,0,1,.337-.7,1.032,1.032,0,0,1,1.319.1,5.143,5.143,0,0,1,.847,1.167,5.336,5.336,0,0,0,4.72,2.255,6.642,6.642,0,0,0,5.536-9.132,5.216,5.216,0,0,0-5.746-2.886c-1.088.276-2.4.9-3.192.1-.621-.618-.4-1.651-.139-2.486q1.592-5.021,3.352-9.985a2.733,2.733,0,0,1,.619-1.13c.673-.627,1.741-.427,2.629-.188l4.276,1.154a1.814,1.814,0,0,1,.892.43,1.336,1.336,0,0,1-.332,1.825,8.34,8.34,0,0,1-1.853.919,4.943,4.943,0,0,0-2.5,5.7,6.376,6.376,0,0,0,3.494,3.7,7.536,7.536,0,0,0,7.755-.6c2.14-1.7,2.854-5.126,1.2-7.3a3.541,3.541,0,0,1-.716-1.11c-.119-.427.087-.989.527-1.048a1.127,1.127,0,0,1,.462.069l5.11,1.506a2.713,2.713,0,0,1,1.748,1.067,2.717,2.717,0,0,1-.11,2.117l-3.509,10.47c-.281.839-.526,1.87.074,2.521.808.877,2.221.231,3.384-.033a5.241,5.241,0,0,1,5.761,3.24,6.5,6.5,0,0,1-1.012,6.171" transform="translate(-87.994 0)" fill="#ffae7e"/>
        <g id="Group_1077474" data-name="Group 1077474" transform="translate(110.854 24.635)" opacity="0.3" style="mix-blend-mode: overlay;isolation: isolate">
          <g id="Group_1077473" data-name="Group 1077473">
            <g id="Group_1077472" data-name="Group 1077472" clip-path="url(#clip-path-8)">
              <path id="Path_829742" data-name="Path 829742" d="M236.492,44.2q-5.68.857-11.358,1.733c-5.625.871-11.243,1.785-16.87,2.646-3.073.47-6.211,1.3-9.358,1.78a1.365,1.365,0,0,0,.144.337,2.608,2.608,0,0,0,1.649.931l4.071,1.1a2.02,2.02,0,0,1,.862.387,1.5,1.5,0,0,1-.3,2.118,11.35,11.35,0,0,1-2.124,1.135,4.909,4.909,0,0,0-2.015,5.8c.909,2.52,4.008,4.069,6.547,4.193a6.641,6.641,0,0,0,5.663-2.584,5.374,5.374,0,0,0,.152-6.079c-.468-.66-1.114-1.559-.561-2.148.373-.4,1.02-.279,1.545-.129l4.376,1.25a1.894,1.894,0,0,0,2.821-1.573l1.433-4.306a1.917,1.917,0,0,1,.792-1.2,1.388,1.388,0,0,1,1.506.366,9.909,9.909,0,0,1,.983,1.325,5.162,5.162,0,0,0,4.353,1.951,6.5,6.5,0,0,0,4.35-2.127c.149-.161.29-.33.423-.5a6.506,6.506,0,0,0,1.012-6.171c-.03-.075-.066-.148-.1-.222" transform="translate(-198.907 -44.202)" fill="#4a1e43"/>
            </g>
          </g>
        </g>
        <path id="Path_829743" data-name="Path 829743" d="M166.46,22.241c-.134-.174-.277-.342-.427-.5a6.5,6.5,0,0,0-4.371-2.086,5.161,5.161,0,0,0-4.334,1.992,9.867,9.867,0,0,1-.97,1.334,1.387,1.387,0,0,1-1.5.381,1.916,1.916,0,0,1-.8-1.2q-.737-2.147-1.474-4.293a2.532,2.532,0,0,0-1.134-1.64,2.514,2.514,0,0,0-1.7.094l-4.364,1.291c-.522.154-1.169.28-1.545-.114-.559-.585.079-1.489.54-2.154a5.374,5.374,0,0,0-.21-6.077,6.642,6.642,0,0,0-5.687-2.53c-2.537.148-5.622,1.727-6.507,4.255a4.909,4.909,0,0,0,2.07,5.78,11.329,11.329,0,0,1,2.135,1.114,1.5,1.5,0,0,1,.316,2.116,2.011,2.011,0,0,1-.859.4l-4.06,1.136a2.608,2.608,0,0,0-1.641.947,2.616,2.616,0,0,0,0,2.032l1.665,5.972a1.431,1.431,0,0,0,.344.7,1.031,1.031,0,0,0,1.318-.115A5.121,5.121,0,0,0,134.1,29.9a5.335,5.335,0,0,1,4.7-2.3,6.641,6.641,0,0,1,5.622,9.078,5.215,5.215,0,0,1-5.718,2.941c-1.091-.266-2.4-.874-3.193-.075-.615.624-.387,1.655-.115,2.487q1.639,5,3.446,9.953a2.728,2.728,0,0,0,.629,1.124c.679.621,1.746.411,2.631.163l4.265-1.194a1.818,1.818,0,0,0,.888-.438,1.336,1.336,0,0,0-.349-1.821,8.327,8.327,0,0,0-1.862-.9,4.944,4.944,0,0,1-2.553-5.675,6.375,6.375,0,0,1,3.459-3.736,7.536,7.536,0,0,1,7.76.527c2.156,1.678,2.9,5.1,1.269,7.288a3.539,3.539,0,0,0-.705,1.117c-.115.428.1.988.537,1.043a1.124,1.124,0,0,0,.461-.072l5.1-1.554a2.713,2.713,0,0,0,1.737-1.083,2.714,2.714,0,0,0-.13-2.116q-1.8-5.218-3.607-10.436c-.289-.836-.544-1.865.049-2.521.8-.884,2.219-.252,3.385,0a5.242,5.242,0,0,0,5.73-3.294,6.508,6.508,0,0,0-1.071-6.161" transform="translate(-57.426 -2.979)" fill="#213150"/>
        <g id="Group_1077477" data-name="Group 1077477" transform="translate(80.058 40.246)" opacity="0.3" style="mix-blend-mode: overlay;isolation: isolate">
          <g id="Group_1077476" data-name="Group 1077476">
            <g id="Group_1077475" data-name="Group 1077475" clip-path="url(#clip-path-9)">
              <path id="Path_829744" data-name="Path 829744" d="M153.069,78.805a8.314,8.314,0,0,0-1.862-.9,4.944,4.944,0,0,1-2.553-5.675l0-.015c-.446.444-.894.886-1.338,1.332-1.211,1.217-2.426,2.439-3.673,3.626q.668,1.9,1.357,3.8a2.743,2.743,0,0,0,.63,1.124c.679.62,1.746.411,2.631.163l4.265-1.194a1.818,1.818,0,0,0,.888-.438,1.335,1.335,0,0,0-.349-1.821" transform="translate(-143.648 -72.214)" fill="#4a1e43"/>
            </g>
          </g>
        </g>
        <g id="Group_1077480" data-name="Group 1077480" transform="translate(89.102 17.863)" opacity="0.3" style="mix-blend-mode: overlay;isolation: isolate">
          <g id="Group_1077479" data-name="Group 1077479">
            <g id="Group_1077478" data-name="Group 1077478" clip-path="url(#clip-path-10)">
              <path id="Path_829745" data-name="Path 829745" d="M179.382,32.949a6.979,6.979,0,0,0-1.035-.9c-4.4,4.746-9.063,9.27-13.693,13.77q-2.388,2.321-4.776,4.641a7.434,7.434,0,0,1,7.181.777c2.156,1.678,2.9,5.1,1.269,7.287a3.551,3.551,0,0,0-.7,1.117c-.115.428.1.988.537,1.043a1.124,1.124,0,0,0,.461-.072l5.1-1.554a2.71,2.71,0,0,0,1.737-1.083,2.714,2.714,0,0,0-.13-2.116l-3.608-10.436c-.289-.836-.544-1.865.05-2.521.8-.884,2.219-.252,3.384,0a5.242,5.242,0,0,0,5.73-3.294,6.506,6.506,0,0,0-1.071-6.161,6.576,6.576,0,0,0-.427-.5" transform="translate(-159.877 -32.051)" fill="#4a1e43"/>
            </g>
          </g>
        </g>
        <path id="Path_829746" data-name="Path 829746" d="M558.09,110.3H489.2a2.174,2.174,0,0,1-2.174-2.174V59.384A2.174,2.174,0,0,1,489.2,57.21H558.09a2.174,2.174,0,0,1,2.174,2.174v48.744a2.174,2.174,0,0,1-2.174,2.174" transform="translate(-215.596 -25.326)" fill="#213150"/>
        <path id="Path_829747" data-name="Path 829747" d="M557.368,109.612H495.49a2.175,2.175,0,0,1-2.175-2.174V65.406a2.175,2.175,0,0,1,2.175-2.174h61.878a2.174,2.174,0,0,1,2.174,2.174v42.032a2.174,2.174,0,0,1-2.174,2.174" transform="translate(-218.382 -27.992)" fill="#d8d2f7"/>
        <path id="Path_829748" data-name="Path 829748" d="M555.984,84.56c-.007-8.08-6.9-14.624-15.394-14.616s-15.375,6.564-15.367,14.644a14.384,14.384,0,0,0,6.143,11.685v.005a9.266,9.266,0,0,0,18.508-.016v-.014a14.38,14.38,0,0,0,6.11-11.687" transform="translate(-232.507 -30.963)" fill="#ffae7e"/>
        <path id="Path_829749" data-name="Path 829749" d="M549.112,111.16c.037-4.542.125-9.15.261-13.7a9.049,9.049,0,0,0,4.251-2.243,5.218,5.218,0,0,0,1.352-4.555,6.521,6.521,0,0,0-5.06-5.317,5.324,5.324,0,0,1-5.34-.6c-.043,0-.086-.007-.151-.011l-.217-.006,0,.158-.037-.158-.228.007c-.044,0-.087.006-.132.01a5.321,5.321,0,0,1-5.336.611,6.516,6.516,0,0,0-5.05,5.326,5.216,5.216,0,0,0,1.36,4.553,9.053,9.053,0,0,0,4.254,2.236c.145,4.548.241,9.155.286,13.7a.293.293,0,0,0,.186.272.3.3,0,0,0,.322-.067.3.3,0,0,0,.083-.21c-.046-4.57-.143-9.211-.289-13.8a.31.31,0,0,0,.018-.2.288.288,0,0,0-.209-.212c-3.239-.844-5.067-2.334-5.43-4.428a5.946,5.946,0,0,1,2.73-5.865,4.622,4.622,0,0,1,4.148-.458,5.355,5.355,0,0,0-1.391,2.778,4.394,4.394,0,0,0,.074,1.906,1.878,1.878,0,0,0,1.309,1.385,1.6,1.6,0,0,0,1.344-.226,3.04,3.04,0,0,0,1.189-1.959,4.351,4.351,0,0,0-1.155-3.69,3.507,3.507,0,0,0-.343-.3,4.068,4.068,0,0,1,1.047-.557,3.837,3.837,0,0,1,1.03-.21l.1,0,.02,0h.023c.046,0,.091,0,.165,0h.014l.112.005a3.821,3.821,0,0,1,1.016.206,3.98,3.98,0,0,1,1.047.555,3.514,3.514,0,0,0-.343.305,4.351,4.351,0,0,0-1.149,3.692,3.041,3.041,0,0,0,1.193,1.957,1.6,1.6,0,0,0,1.345.224,1.878,1.878,0,0,0,1.306-1.387,4.388,4.388,0,0,0,.071-1.906,5.36,5.36,0,0,0-1.4-2.776,4.634,4.634,0,0,1,4.149.451,5.947,5.947,0,0,1,2.741,5.86c-.359,2.094-2.184,3.587-5.422,4.438a.285.285,0,0,0-.21.212.31.31,0,0,0,.019.2c-.138,4.574-.227,9.215-.264,13.8a.3.3,0,1,0,.591,0m-.722-21.415a2.094,2.094,0,0,1-.632,1.749,1.18,1.18,0,0,1-1.582-.221,3.13,3.13,0,0,1-.439-3.108,3.258,3.258,0,0,1,1.228-1.66,4.757,4.757,0,0,1,1.425,3.24m-8.38.008a4.755,4.755,0,0,1,1.418-3.243,3.256,3.256,0,0,1,1.231,1.657,3.133,3.133,0,0,1-.433,3.109,1.181,1.181,0,0,1-1.582.224,2.091,2.091,0,0,1-.635-1.748" transform="translate(-236.104 -37.508)" fill="#080927"/>
        <path id="Path_829750" data-name="Path 829750" d="M553.094,131.313l-10.377.009a1.041,1.041,0,1,1,0-2.083l10.377-.009a1.041,1.041,0,0,1,0,2.082" transform="translate(-239.789 -57.208)" fill="#7968cc"/>
        <path id="Path_829751" data-name="Path 829751" d="M552.89,135.56l-8.361.007a1.041,1.041,0,1,1,0-2.082l8.362-.007a1.041,1.041,0,1,1,0,2.082" transform="translate(-240.592 -59.088)" fill="#7968cc"/>
        <path id="Path_829752" data-name="Path 829752" d="M552.719,139.807l-6.667.006a1.041,1.041,0,1,1,0-2.083l6.667-.006a1.041,1.041,0,1,1,0,2.082" transform="translate(-241.266 -60.968)" fill="#7968cc"/>
        <g id="Group_1077483" data-name="Group 1077483" transform="translate(271.426 46.994)" opacity="0.3" style="mix-blend-mode: overlay;isolation: isolate">
          <g id="Group_1077482" data-name="Group 1077482">
            <g id="Group_1077481" data-name="Group 1077481" clip-path="url(#clip-path-11)">
              <path id="Path_829753" data-name="Path 829753" d="M487.022,116.969v3.8a1.534,1.534,0,0,0,1.534,1.534H558.73a1.534,1.534,0,0,0,1.534-1.534V84.322c-24.111,11.545-49.034,21.321-73.242,32.647" transform="translate(-487.022 -84.322)" fill="#4a1e43"/>
            </g>
          </g>
        </g>
        <path id="Path_829754" data-name="Path 829754" d="M512.717,198.822c.468-.8,1.669-2.626.724-3.472a6.946,6.946,0,0,0-3.219-1l-.049-.006a10.032,10.032,0,0,0,.321-1.4,6.38,6.38,0,0,0,3.142.39,1.149,1.149,0,0,0,.779-1.085,11.918,11.918,0,0,0-.338-4.4c-.235-.9-.677-3.037-1.943-2.967a6.174,6.174,0,0,0-2.747,1.4,10.017,10.017,0,0,0-.685-1.073,6.378,6.378,0,0,0,2.5-1.946,1.149,1.149,0,0,0-.216-1.318,11.919,11.919,0,0,0-3.353-2.875c-.8-.468-2.626-1.669-3.472-.724a6.492,6.492,0,0,0-.974,3.057,10.125,10.125,0,0,0-1.613-.3l-.018,0c.021-.069.048-.138.068-.207a6.952,6.952,0,0,0,.447-3.341c-.371-1.213-2.531-.891-3.455-.8a11.912,11.912,0,0,0-4.251,1.2,1.148,1.148,0,0,0-.75,1.1,6.954,6.954,0,0,0,1.57,2.983c.034.048.074.092.108.14a10.049,10.049,0,0,0-1.349.862c-.013-.027-.027-.055-.041-.081a6.957,6.957,0,0,0-2.046-2.678c-1.12-.6-2.42,1.16-3.01,1.875a11.907,11.907,0,0,0-2.158,3.854,1.148,1.148,0,0,0,.251,1.312,6.951,6.951,0,0,0,3.219,1c.051.009.1.012.155.02a10,10,0,0,0-.3,1.407,6.273,6.273,0,0,0-3.1-.378c-1.213.371-.89,2.531-.8,3.454a11.914,11.914,0,0,0,1.2,4.252,1.146,1.146,0,0,0,1.1.75,6.375,6.375,0,0,0,2.815-1.448,9.972,9.972,0,0,0,.686,1.073,6.179,6.179,0,0,0-2.423,1.9c-.6,1.12,1.16,2.419,1.876,3.01a11.918,11.918,0,0,0,3.854,2.158,1.148,1.148,0,0,0,1.311-.251,6.375,6.375,0,0,0,.966-3.015,10.167,10.167,0,0,0,1.2.268c-.013.037-.026.075-.036.113a6.952,6.952,0,0,0-.446,3.341,1.148,1.148,0,0,0,1.085.779,11.921,11.921,0,0,0,4.4-.338c.9-.235,3.036-.677,2.967-1.943a6.949,6.949,0,0,0-1.57-2.983c-.011-.016-.024-.031-.036-.046q.395-.211.772-.458c.2-.124.392-.251.58-.387.02.038.038.077.059.114a6.961,6.961,0,0,0,2.046,2.678,1.149,1.149,0,0,0,1.318-.216,11.9,11.9,0,0,0,2.875-3.354M497,196.207a5.124,5.124,0,1,1,2.549,1.024A6.127,6.127,0,0,1,497,196.207" transform="translate(-215.144 -78.196)" fill="#213150"/>
        <path id="Path_829755" data-name="Path 829755" d="M466.409,161.906c-.208-.727-.605-2.461-1.635-2.381a5.667,5.667,0,0,0-2.4,1.331l-.031.026a8.15,8.15,0,0,0-.64-.975,5.2,5.2,0,0,0,2-1.628.935.935,0,0,0-.2-1.069,9.715,9.715,0,0,0-2.781-2.281c-.66-.367-2.167-1.312-2.84-.528a5.027,5.027,0,0,0-.725,2.4,8.248,8.248,0,0,0-1.017-.2,5.187,5.187,0,0,0,.261-2.564.934.934,0,0,0-.9-.615,9.7,9.7,0,0,0-3.58.354c-.726.207-2.461.6-2.381,1.635a5.279,5.279,0,0,0,1.25,2.294,8.134,8.134,0,0,0-1.087.779l-.012.008c-.029-.05-.055-.106-.084-.157a5.668,5.668,0,0,0-1.714-2.144c-.922-.465-1.949.988-2.417,1.581a9.707,9.707,0,0,0-1.689,3.176.935.935,0,0,0,.227,1.063,5.662,5.662,0,0,0,2.639.756c.047.007.1.008.143.015a8.257,8.257,0,0,0-.252,1.279l-.071-.021a5.662,5.662,0,0,0-2.727-.3c-.981.324-.68,2.077-.592,2.827a9.7,9.7,0,0,0,1.052,3.44.934.934,0,0,0,.912.591,5.653,5.653,0,0,0,2.4-1.331c.034-.025.065-.053.1-.08a8.142,8.142,0,0,0,.659.969,5.115,5.115,0,0,0-1.97,1.612c-.465.922.988,1.949,1.581,2.417a9.7,9.7,0,0,0,3.177,1.689.935.935,0,0,0,1.063-.228,5.2,5.2,0,0,0,.733-2.471,8.124,8.124,0,0,0,1.017.2,5.032,5.032,0,0,0-.244,2.5c.324.981,2.077.68,2.827.592a9.72,9.72,0,0,0,3.44-1.052.935.935,0,0,0,.591-.913,5.188,5.188,0,0,0-1.229-2.266,8.16,8.16,0,0,0,.834-.556c.015.028.03.057.047.085a5.658,5.658,0,0,0,1.714,2.144.935.935,0,0,0,1.069-.2,9.707,9.707,0,0,0,2.281-2.781c.367-.66,1.312-2.167.528-2.84a5.658,5.658,0,0,0-2.638-.756l-.048,0q.1-.351.166-.712c.039-.186.073-.372.1-.558.033.01.066.021.1.029a5.656,5.656,0,0,0,2.728.3.934.934,0,0,0,.615-.9,9.715,9.715,0,0,0-.353-3.58m-10.388,7.771a4.179,4.179,0,1,1,2.037-.923,4.99,4.99,0,0,1-2.037.923" transform="translate(-196.128 -67.899)" fill="#7816c2"/>
        <path id="Path_829756" data-name="Path 829756" d="M462.054,212.009c0-.663.092-2.221-.794-2.406a4.97,4.97,0,0,0-2.349.533l-.032.014a7.156,7.156,0,0,0-.3-.978,4.557,4.557,0,0,0,2.083-.883.819.819,0,0,0,.094-.949,8.5,8.5,0,0,0-1.784-2.6c-.466-.471-1.5-1.636-2.263-1.14a4.41,4.41,0,0,0-1.2,1.846,7.232,7.232,0,0,0-.808-.419,4.561,4.561,0,0,0,.848-2.1.82.82,0,0,0-.6-.738,8.507,8.507,0,0,0-3.1-.579c-.663,0-2.221-.093-2.406.794a4.642,4.642,0,0,0,.491,2.239,7.208,7.208,0,0,0-1.106.39l-.012,0c-.012-.05-.02-.1-.032-.152a4.965,4.965,0,0,0-.918-2.226c-.663-.618-1.884.355-2.424.74a8.507,8.507,0,0,0-2.2,2.263.819.819,0,0,0-.069.951A4.969,4.969,0,0,0,445.2,207.9c.038.018.079.03.117.048a7.129,7.129,0,0,0-.526,1.015l-.055-.035a4.964,4.964,0,0,0-2.224-.925c-.906.032-1.081,1.583-1.191,2.236a8.524,8.524,0,0,0,.044,3.156.821.821,0,0,0,.624.722,4.969,4.969,0,0,0,2.349-.534c.035-.013.069-.03.1-.043a7.13,7.13,0,0,0,.318.978,4.48,4.48,0,0,0-2.054.875c-.618.663.354,1.884.74,2.424a8.508,8.508,0,0,0,2.263,2.2.82.82,0,0,0,.951.069,4.564,4.564,0,0,0,1.223-1.9,7.2,7.2,0,0,0,.808.419,4.407,4.407,0,0,0-.817,2.044c.032.905,1.583,1.081,2.237,1.19a8.513,8.513,0,0,0,3.156-.043.821.821,0,0,0,.721-.625,4.554,4.554,0,0,0-.48-2.21,7.059,7.059,0,0,0,.839-.264c.006.028.011.056.018.083a4.964,4.964,0,0,0,.919,2.227.82.82,0,0,0,.949.094,8.511,8.511,0,0,0,2.6-1.785c.471-.466,1.636-1.5,1.14-2.263a4.974,4.974,0,0,0-2.038-1.283l-.039-.016q.169-.272.314-.56c.078-.147.153-.295.22-.446.026.017.051.034.077.049a4.966,4.966,0,0,0,2.224.925.82.82,0,0,0,.738-.605,8.518,8.518,0,0,0,.579-3.1m-10.655,4a3.665,3.665,0,1,1,1.942-.279,4.378,4.378,0,0,1-1.942.279" transform="translate(-195.311 -89.248)" fill="#d8d2f7"/>
        <path id="Path_829757" data-name="Path 829757" d="M208.379,292.969H329.017a2.175,2.175,0,0,0,2.175-2.174V204.541a2.174,2.174,0,0,0-2.175-2.174H208.379a2.174,2.174,0,0,0-2.174,2.174v86.253a2.174,2.174,0,0,0,2.174,2.174" transform="translate(-91.283 -89.584)" fill="#213150"/>
        <g id="Group_1077486" data-name="Group 1077486" transform="translate(114.922 125.308)" opacity="0.3" style="mix-blend-mode: overlay;isolation: isolate">
          <g id="Group_1077485" data-name="Group 1077485">
            <g id="Group_1077484" data-name="Group 1077484" clip-path="url(#clip-path-12)">
              <path id="Path_829758" data-name="Path 829758" d="M321.087,231.15c-20.909,13.13-41.487,26.9-63.023,39-17.5,9.828-35.582,19.026-51.859,30.848v.693a1.231,1.231,0,0,0,1.231,1.231H329.96a1.231,1.231,0,0,0,1.231-1.231V224.842q-5.061,3.14-10.1,6.308" transform="translate(-206.205 -224.841)" fill="#4a1e43"/>
            </g>
          </g>
        </g>
        <path id="Path_829759" data-name="Path 829759" d="M219.119,291.893H327.786a2.174,2.174,0,0,0,2.174-2.174v-75.8a2.174,2.174,0,0,0-2.174-2.174H219.119a2.174,2.174,0,0,0-2.174,2.174v75.8a2.174,2.174,0,0,0,2.174,2.174" transform="translate(-96.038 -93.736)" fill="#f9f2ff"/>
        <path id="Path_829760" data-name="Path 829760" d="M329.69,371.909h-138.3a2.174,2.174,0,0,1-2.174-2.174v-3.085a2.174,2.174,0,0,1,2.174-2.174h138.3a2.174,2.174,0,0,1,2.174,2.174v3.085a2.174,2.174,0,0,1-2.174,2.174" transform="translate(-83.763 -161.347)" fill="#c1e29a"/>
        <g id="Group_1077489" data-name="Group 1077489" transform="translate(112.914 205.678)" opacity="0.3" style="mix-blend-mode: overlay;isolation: isolate">
          <g id="Group_1077488" data-name="Group 1077488">
            <g id="Group_1077487" data-name="Group 1077487" clip-path="url(#clip-path-13)">
              <path id="Path_829761" data-name="Path 829761" d="M322.5,369.315c-28.421.586-56.8,1.738-85.175,2.911-11.363.469-22.7.831-34.019,1.657l-.7.05H335.743c1.13,0,2.046-.59,2.046-1.318v-3.566q-7.647.109-15.291.266" transform="translate(-202.602 -369.049)" fill="#4a1e43"/>
            </g>
          </g>
        </g>
        <path id="Path_829762" data-name="Path 829762" d="M267.073,309.67H243.626a1.336,1.336,0,0,1-1.336-1.336v-.041a1.336,1.336,0,0,1,1.336-1.336h23.447a1.336,1.336,0,0,1,1.336,1.336v.041a1.336,1.336,0,0,1-1.336,1.336" transform="translate(-107.257 -135.884)" fill="#d8d2f7"/>
        <path id="Path_829763" data-name="Path 829763" d="M351.472,309.67H301.614a1.336,1.336,0,0,1-1.336-1.336v-.041a1.336,1.336,0,0,1,1.336-1.336h49.858a1.336,1.336,0,0,1,1.336,1.336v.041a1.336,1.336,0,0,1-1.336,1.336" transform="translate(-132.928 -135.884)" fill="#d8d2f7"/>
        <path id="Path_829764" data-name="Path 829764" d="M325.736,320.9h-82.26a1.336,1.336,0,0,1-1.336-1.336v-.041a1.336,1.336,0,0,1,1.336-1.336h82.26a1.336,1.336,0,0,1,1.336,1.336v.041a1.336,1.336,0,0,1-1.336,1.336" transform="translate(-107.191 -140.856)" fill="#d8d2f7"/>
        <path id="Path_829765" data-name="Path 829765" d="M280.031,332.131H243.626a1.336,1.336,0,0,1-1.336-1.336v-.041a1.336,1.336,0,0,1,1.336-1.336h36.405a1.336,1.336,0,0,1,1.336,1.336v.041a1.336,1.336,0,0,1-1.336,1.336" transform="translate(-107.257 -145.827)" fill="#d8d2f7"/>
        <path id="Path_829766" data-name="Path 829766" d="M362.158,332.131H325.753a1.336,1.336,0,0,1-1.336-1.336v-.041a1.336,1.336,0,0,1,1.336-1.336h36.405a1.336,1.336,0,0,1,1.336,1.336v.041a1.336,1.336,0,0,1-1.336,1.336" transform="translate(-143.614 -145.827)" fill="#d8d2f7"/>
        <path id="Path_829767" data-name="Path 829767" d="M325.736,343.362h-82.26a1.336,1.336,0,0,1-1.336-1.336v-.041a1.336,1.336,0,0,1,1.336-1.336h82.26a1.336,1.336,0,0,1,1.336,1.336v.041a1.336,1.336,0,0,1-1.336,1.336" transform="translate(-107.191 -150.799)" fill="#d8d2f7"/>
        <path id="Path_829768" data-name="Path 829768" d="M325.6,276.054h36.405a1.336,1.336,0,0,0,1.336-1.336v-.041a1.336,1.336,0,0,0-1.336-1.336H325.6a1.336,1.336,0,0,0-1.336,1.336v.041a1.336,1.336,0,0,0,1.336,1.336" transform="translate(-143.548 -121.003)" fill="#d8d2f7"/>
        <path id="Path_829769" data-name="Path 829769" d="M243.477,276.054h36.405a1.336,1.336,0,0,0,1.336-1.336v-.041a1.336,1.336,0,0,0-1.336-1.336H243.477a1.336,1.336,0,0,0-1.336,1.336v.041a1.336,1.336,0,0,0,1.336,1.336" transform="translate(-107.192 -121.003)" fill="#d8d2f7"/>
        <path id="Path_829770" data-name="Path 829770" d="M243.477,287.284h82.26a1.336,1.336,0,0,0,1.336-1.336v-.041a1.336,1.336,0,0,0-1.336-1.336h-82.26a1.336,1.336,0,0,0-1.336,1.336v.041a1.336,1.336,0,0,0,1.336,1.336" transform="translate(-107.192 -125.974)" fill="#d8d2f7"/>
        <path id="Path_829771" data-name="Path 829771" d="M243.477,298.515h33.2a1.336,1.336,0,0,0,1.336-1.336v-.041a1.336,1.336,0,0,0-1.336-1.336h-33.2a1.336,1.336,0,0,0-1.336,1.336v.041a1.336,1.336,0,0,0,1.336,1.336" transform="translate(-107.192 -130.946)" fill="#d8d2f7"/>
        <path id="Path_829772" data-name="Path 829772" d="M317.135,298.515h41.126a1.336,1.336,0,0,0,1.336-1.336v-.041a1.336,1.336,0,0,0-1.336-1.336H317.135a1.336,1.336,0,0,0-1.336,1.336v.041a1.336,1.336,0,0,0,1.336,1.336" transform="translate(-139.799 -130.946)" fill="#d8d2f7"/>
        <path id="Path_829773" data-name="Path 829773" d="M306.829,254.725H296.8a1.336,1.336,0,0,1-1.336-1.336v-.041a1.336,1.336,0,0,1,1.336-1.336h10.026a1.336,1.336,0,0,1,1.336,1.336v.041a1.336,1.336,0,0,1-1.336,1.336" transform="translate(-130.798 -111.561)" fill="#7816c2"/>
        <path id="Path_829774" data-name="Path 829774" d="M325.3,254.725h-1.748a1.336,1.336,0,0,1-1.336-1.336v-.041a1.336,1.336,0,0,1,1.336-1.336H325.3a1.336,1.336,0,0,1,1.336,1.336v.041a1.336,1.336,0,0,1-1.336,1.336" transform="translate(-142.639 -111.561)" fill="#7816c2"/>
        <path id="Path_829775" data-name="Path 829775" d="M296.722,232.34h6.283A1.336,1.336,0,0,0,304.341,231v-.041a1.336,1.336,0,0,0-1.336-1.336h-6.283a1.336,1.336,0,0,0-1.336,1.336V231a1.336,1.336,0,0,0,1.336,1.336" transform="translate(-130.762 -101.652)" fill="#7816c2"/>
        <path id="Path_829776" data-name="Path 829776" d="M315.414,232.34H321.7A1.336,1.336,0,0,0,323.033,231v-.041a1.336,1.336,0,0,0-1.336-1.336h-6.283a1.336,1.336,0,0,0-1.336,1.336V231a1.336,1.336,0,0,0,1.336,1.336" transform="translate(-139.037 -101.652)" fill="#7816c2"/>
        <path id="Path_829777" data-name="Path 829777" d="M296.722,243.571h16.845a1.336,1.336,0,0,0,1.336-1.336v-.041a1.336,1.336,0,0,0-1.336-1.336H296.722a1.336,1.336,0,0,0-1.336,1.336v.041a1.336,1.336,0,0,0,1.336,1.336" transform="translate(-130.762 -106.624)" fill="#7816c2"/>
        <path id="Path_829778" data-name="Path 829778" d="M246.608,233.939a12.154,12.154,0,1,0,12.154-12.154,12.154,12.154,0,0,0-12.154,12.154" transform="translate(-109.169 -98.18)" fill="#c1e29a"/>
        <path id="Path_829779" data-name="Path 829779" d="M258.22,233.7a5.682,5.682,0,1,0,5.682-5.682,5.682,5.682,0,0,0-5.682,5.682" transform="translate(-114.309 -100.938)" fill="#213150"/>
        <path id="Path_829780" data-name="Path 829780" d="M262.466,257.117a9.7,9.7,0,0,1-7.489-3.745c1.2-2.247,4.1-3.832,7.489-3.832s6.284,1.584,7.489,3.832a9.7,9.7,0,0,1-7.489,3.745" transform="translate(-112.874 -110.467)" fill="#213150"/>
        <path id="Path_829781" data-name="Path 829781" d="M97.9,357.771a1.4,1.4,0,1,1-1.4-1.4,1.4,1.4,0,0,1,1.4,1.4" transform="translate(-42.101 -157.761)" fill="#080927"/>
        <path id="Path_829782" data-name="Path 829782" d="M97.9,348.423a1.4,1.4,0,1,1-1.4-1.4,1.4,1.4,0,0,1,1.4,1.4" transform="translate(-42.101 -153.623)" fill="#080927"/>
        <path id="Path_829783" data-name="Path 829783" d="M97.9,339.743a1.4,1.4,0,1,1-1.4-1.4,1.4,1.4,0,0,1,1.4,1.4" transform="translate(-42.101 -149.78)" fill="#080927"/>
        <path id="Path_829784" data-name="Path 829784" d="M198.174,356.855a1.4,1.4,0,1,1-1.4,1.4,1.4,1.4,0,0,1,1.4-1.4" transform="translate(-87.11 -157.973)" fill="#080927"/>
        <path id="Path_829785" data-name="Path 829785" d="M188.826,356.855a1.4,1.4,0,1,1-1.4,1.4,1.4,1.4,0,0,1,1.4-1.4" transform="translate(-82.972 -157.973)" fill="#080927"/>
        <path id="Path_829786" data-name="Path 829786" d="M179.478,356.855a1.4,1.4,0,1,1-1.4,1.4,1.4,1.4,0,0,1,1.4-1.4" transform="translate(-78.834 -157.973)" fill="#080927"/>
        <path id="Path_829787" data-name="Path 829787" d="M160.789,356.855a1.4,1.4,0,1,1-1.4,1.4,1.4,1.4,0,0,1,1.4-1.4" transform="translate(-70.56 -157.973)" fill="#080927"/>
        <path id="Path_829788" data-name="Path 829788" d="M151.441,356.855a1.4,1.4,0,1,1-1.4,1.4,1.4,1.4,0,0,1,1.4-1.4" transform="translate(-66.422 -157.973)" fill="#080927"/>
        <path id="Path_829789" data-name="Path 829789" d="M142.093,356.855a1.4,1.4,0,1,1-1.4,1.4,1.4,1.4,0,0,1,1.4-1.4" transform="translate(-62.284 -157.973)" fill="#080927"/>
        <path id="Path_829790" data-name="Path 829790" d="M171.532,358.251a1.4,1.4,0,1,1-1.4-1.4,1.4,1.4,0,0,1,1.4,1.4" transform="translate(-74.699 -157.973)" fill="#080927"/>
        <path id="Path_829791" data-name="Path 829791" d="M123.4,356.855a1.4,1.4,0,1,1-1.4,1.4,1.4,1.4,0,0,1,1.4-1.4" transform="translate(-54.011 -157.973)" fill="#080927"/>
        <path id="Path_829792" data-name="Path 829792" d="M114.056,356.855a1.4,1.4,0,1,1-1.4,1.4,1.4,1.4,0,0,1,1.4-1.4" transform="translate(-49.873 -157.973)" fill="#080927"/>
        <path id="Path_829793" data-name="Path 829793" d="M104.708,356.855a1.4,1.4,0,1,1-1.4,1.4,1.4,1.4,0,0,1,1.4-1.4" transform="translate(-45.734 -157.973)" fill="#080927"/>
        <path id="Path_829794" data-name="Path 829794" d="M134.147,358.251a1.4,1.4,0,1,1-1.4-1.4,1.4,1.4,0,0,1,1.4,1.4" transform="translate(-58.149 -157.973)" fill="#080927"/>
        <path id="Path_829795" data-name="Path 829795" d="M407.073,42.254l-.013-.048a8.816,8.816,0,0,0-2.716-3.708L390.679,25.444c-.225-.215-.468-.479-.422-.781a.987.987,0,0,1,.345-.516l5.945-5.743a2.172,2.172,0,0,1,1.2-.728c.4-.042.8.138,1.206.1a2.25,2.25,0,0,0,1.282-.766l5.419-5.241-4.217-4.06-4.908,4.634a3.23,3.23,0,0,0-1.331,2.244,3.374,3.374,0,0,1,.048.953,1.685,1.685,0,0,1-.538.752l-6.366,6.1a.616.616,0,0,1-1.043.006l-2.977-2.82a4.2,4.2,0,0,1-.964-1.163,3.98,3.98,0,0,1-.274-1.688c-.032-2.456-.029-5.04-1.288-7.177a11.089,11.089,0,0,0-3.507-3.406,8.829,8.829,0,0,0-3.59-1.578,3.883,3.883,0,0,0-3.58,1.207.781.781,0,0,0-.214.56.932.932,0,0,0,.34.507l3.294,3.1a4.005,4.005,0,0,1,1.559,2.438c.069,1.145-.862,2.093-1.725,2.884l-1.946,1.785a3.661,3.661,0,0,1-1.374.918c-1.272.375-2.5-.628-3.422-1.547l-2.823-2.8a1.764,1.764,0,0,0-.681-.488c-1.1-.344-1.957,1.505-2.055,2.321a7.291,7.291,0,0,0,1.159,3.837,10.373,10.373,0,0,0,6.424,5,19.04,19.04,0,0,0,4.187.443,9.11,9.11,0,0,1,1.957.181,8.423,8.423,0,0,1,3.664,2.474,4.166,4.166,0,0,1,1.134,1.507,1.39,1.39,0,0,1-.5,1.666c-.779.439-1.742-.188-2.314-.86s-1.161-1.5-2.062-1.566a1.441,1.441,0,0,0-1.413,1.883,2.286,2.286,0,0,1,.342.826,1.261,1.261,0,0,1-.507.842l-8.672,8.254a8.818,8.818,0,0,0-2.61,3.477,4.335,4.335,0,0,0,1.052,4.273A4.756,4.756,0,0,0,368.3,48.92a9.17,9.17,0,0,0,4.053-2.73l8.119-7.951a1.734,1.734,0,0,1,1.243-.661,4.356,4.356,0,0,1,.9.314,1.45,1.45,0,0,0,1.81-1.291c-.011-.884-.868-1.5-1.579-2.059s-1.4-1.461-1-2.252a1.586,1.586,0,0,1,1.887-.571,4.553,4.553,0,0,1,1.7,1.25c4.149,4.188,8.416,8.265,12.683,12.341a9.086,9.086,0,0,0,2.842,2.079,4.787,4.787,0,0,0,4.717-.774,4.363,4.363,0,0,0,1.391-4.36m-2.929,2.48a2.736,2.736,0,0,1-1.915.771H402.2a2.745,2.745,0,0,1-1.909-.79,2.549,2.549,0,0,1-.774-1.858,2.635,2.635,0,0,1,2.709-2.569h.013a2.661,2.661,0,0,1,2.7,2.592,2.565,2.565,0,0,1-.793,1.854" transform="translate(-160.277 -2.004)" fill="#7816c2"/>
        <path id="Path_829796" data-name="Path 829796" d="M98.339,284.178H27.591a10.558,10.558,0,0,1-10.558-10.558V230.336a10.558,10.558,0,0,1,10.558-10.558H98.339A10.558,10.558,0,0,1,108.9,230.336v43.283a10.558,10.558,0,0,1-10.558,10.558" transform="translate(-7.54 -97.292)" fill="#213150"/>
        <path id="Path_829797" data-name="Path 829797" d="M17.033,240.736v42.6a10.123,10.123,0,0,0,10.123,10.123H98.775A10.123,10.123,0,0,0,108.9,283.333v-42.6Z" transform="translate(-7.54 -106.57)" fill="#e8e8e8"/>
        <path id="Path_829798" data-name="Path 829798" d="M56.83,290.913H37.247a1.116,1.116,0,0,1-1.116-1.116v-.035a1.116,1.116,0,0,1,1.116-1.116H56.83a1.116,1.116,0,0,1,1.116,1.116v.035a1.116,1.116,0,0,1-1.116,1.116" transform="translate(-15.995 -127.779)" fill="#f9f2ff"/>
        <path id="Path_829799" data-name="Path 829799" d="M127.321,290.913H85.68a1.116,1.116,0,0,1-1.116-1.116v-.035a1.116,1.116,0,0,1,1.116-1.116h41.642a1.116,1.116,0,0,1,1.116,1.116v.035a1.116,1.116,0,0,1-1.116,1.116" transform="translate(-37.435 -127.779)" fill="#f9f2ff"/>
        <path id="Path_829800" data-name="Path 829800" d="M105.826,300.293h-68.7a1.115,1.115,0,0,1-1.116-1.116v-.035a1.116,1.116,0,0,1,1.116-1.116h68.7a1.116,1.116,0,0,1,1.116,1.116v.035a1.116,1.116,0,0,1-1.116,1.116" transform="translate(-15.94 -131.931)" fill="#f9f2ff"/>
        <path id="Path_829801" data-name="Path 829801" d="M67.653,309.673H37.248a1.116,1.116,0,0,1-1.116-1.116v-.035a1.116,1.116,0,0,1,1.116-1.116H67.653a1.116,1.116,0,0,1,1.116,1.116v.035a1.116,1.116,0,0,1-1.116,1.116" transform="translate(-15.995 -136.084)" fill="#f9f2ff"/>
        <path id="Path_829802" data-name="Path 829802" d="M136.246,309.673H105.841a1.115,1.115,0,0,1-1.116-1.116v-.035a1.116,1.116,0,0,1,1.116-1.116h30.406a1.116,1.116,0,0,1,1.116,1.116v.035a1.115,1.115,0,0,1-1.116,1.116" transform="translate(-46.36 -136.084)" fill="#f9f2ff"/>
        <path id="Path_829803" data-name="Path 829803" d="M105.826,319.053h-68.7a1.116,1.116,0,0,1-1.116-1.116V317.9a1.116,1.116,0,0,1,1.116-1.116h68.7a1.116,1.116,0,0,1,1.116,1.116v.035a1.116,1.116,0,0,1-1.116,1.116" transform="translate(-15.94 -140.236)" fill="#f9f2ff"/>
        <path id="Path_829804" data-name="Path 829804" d="M105.716,250.375h30.406a1.115,1.115,0,0,0,1.116-1.116v-.035a1.116,1.116,0,0,0-1.116-1.116H105.716a1.116,1.116,0,0,0-1.116,1.116v.035a1.116,1.116,0,0,0,1.116,1.116" transform="translate(-46.305 -109.833)" fill="#7816c2"/>
        <path id="Path_829805" data-name="Path 829805" d="M37.123,250.375H67.528a1.116,1.116,0,0,0,1.116-1.116v-.035a1.116,1.116,0,0,0-1.116-1.116H37.123a1.116,1.116,0,0,0-1.116,1.116v.035a1.116,1.116,0,0,0,1.116,1.116" transform="translate(-15.94 -109.833)" fill="#7816c2"/>
        <path id="Path_829806" data-name="Path 829806" d="M105.716,258.872h30.406a1.115,1.115,0,0,0,1.116-1.116v-.035a1.116,1.116,0,0,0-1.116-1.116H105.716a1.116,1.116,0,0,0-1.116,1.116v.035a1.115,1.115,0,0,0,1.116,1.116" transform="translate(-46.305 -113.595)" fill="#7816c2"/>
        <path id="Path_829807" data-name="Path 829807" d="M37.123,258.872H67.528a1.115,1.115,0,0,0,1.116-1.116v-.035a1.116,1.116,0,0,0-1.116-1.116H37.123a1.116,1.116,0,0,0-1.116,1.116v.035a1.115,1.115,0,0,0,1.116,1.116" transform="translate(-15.94 -113.595)" fill="#7816c2"/>
        <path id="Path_829808" data-name="Path 829808" d="M37.123,272.217h68.7a1.116,1.116,0,0,0,1.116-1.116v-.035a1.116,1.116,0,0,0-1.116-1.116h-68.7a1.116,1.116,0,0,0-1.116,1.116v.035a1.116,1.116,0,0,0,1.116,1.116" transform="translate(-15.94 -119.502)" fill="#f9f2ff"/>
        <path id="Path_829809" data-name="Path 829809" d="M37.123,281.6h27.73a1.116,1.116,0,0,0,1.116-1.116v-.035a1.116,1.116,0,0,0-1.116-1.116H37.123a1.116,1.116,0,0,0-1.116,1.116v.035a1.116,1.116,0,0,0,1.116,1.116" transform="translate(-15.94 -123.655)" fill="#f9f2ff"/>
        <path id="Path_829810" data-name="Path 829810" d="M98.643,281.6h34.348a1.116,1.116,0,0,0,1.116-1.116v-.035a1.116,1.116,0,0,0-1.116-1.116H98.643a1.116,1.116,0,0,0-1.116,1.116v.035a1.116,1.116,0,0,0,1.116,1.116" transform="translate(-43.173 -123.655)" fill="#f9f2ff"/>
        <g id="Group_1077492" data-name="Group 1077492" transform="translate(9.493 149.079)" opacity="0.3" style="mix-blend-mode: overlay;isolation: isolate">
          <g id="Group_1077491" data-name="Group 1077491">
            <g id="Group_1077490" data-name="Group 1077490" clip-path="url(#clip-path-14)">
              <path id="Path_829811" data-name="Path 829811" d="M74.771,276.891C60.7,280.8,46.608,284.666,32.678,289.048c-5.221,1.642-10.426,3.337-15.645,4.984v1.146A10.123,10.123,0,0,0,27.156,305.3H98.775A10.123,10.123,0,0,0,108.9,295.178V267.494q-17.071,4.671-34.127,9.4" transform="translate(-17.033 -267.494)" fill="#e8e8e8"/>
            </g>
          </g>
        </g>
        <path id="Path_829812" data-name="Path 829812" d="M347.714,385.734H34.167a2.174,2.174,0,0,1-2.174-2.174v-3.819a2.174,2.174,0,0,1,2.174-2.174H347.714a2.174,2.174,0,0,1,2.173,2.174v3.819a2.174,2.174,0,0,1-2.173,2.174" transform="translate(-14.163 -167.142)" fill="#080927"/>
        <path id="Path_829813" data-name="Path 829813" d="M184.24,146.141a1.4,1.4,0,1,1-1.4,1.4,1.4,1.4,0,0,1,1.4-1.4" transform="translate(-80.942 -64.694)" fill="#080927"/>
        <path id="Path_829814" data-name="Path 829814" d="M165.551,146.141a1.4,1.4,0,1,1-1.4,1.4,1.4,1.4,0,0,1,1.4-1.4" transform="translate(-72.668 -64.694)" fill="#080927"/>
        <path id="Path_829815" data-name="Path 829815" d="M156.2,146.141a1.4,1.4,0,1,1-1.4,1.4,1.4,1.4,0,0,1,1.4-1.4" transform="translate(-68.53 -64.694)" fill="#080927"/>
        <path id="Path_829816" data-name="Path 829816" d="M146.855,146.141a1.4,1.4,0,1,1-1.4,1.4,1.4,1.4,0,0,1,1.4-1.4" transform="translate(-64.392 -64.694)" fill="#080927"/>
        <path id="Path_829817" data-name="Path 829817" d="M176.294,147.537a1.4,1.4,0,1,1-1.4-1.4,1.4,1.4,0,0,1,1.4,1.4" transform="translate(-76.807 -64.694)" fill="#080927"/>
        <path id="Path_829818" data-name="Path 829818" d="M194.42,147.623a1.4,1.4,0,1,1-1.4-1.4,1.4,1.4,0,0,1,1.4,1.4" transform="translate(-84.831 -64.732)" fill="#080927"/>
        <path id="Path_829819" data-name="Path 829819" d="M194.42,138.275a1.4,1.4,0,1,1-1.4-1.4,1.4,1.4,0,0,1,1.4,1.4" transform="translate(-84.831 -60.594)" fill="#080927"/>
        <path id="Path_829820" data-name="Path 829820" d="M194.42,129.595a1.4,1.4,0,1,1-1.4-1.4,1.4,1.4,0,0,1,1.4,1.4" transform="translate(-84.831 -56.751)" fill="#080927"/>
        <path id="Path_829821" data-name="Path 829821" d="M219.929,146.707a1.4,1.4,0,1,1-1.4,1.4,1.4,1.4,0,0,1,1.4-1.4" transform="translate(-96.741 -64.945)" fill="#080927"/>
        <path id="Path_829822" data-name="Path 829822" d="M210.581,146.707a1.4,1.4,0,1,1-1.4,1.4,1.4,1.4,0,0,1,1.4-1.4" transform="translate(-92.602 -64.945)" fill="#080927"/>
        <path id="Path_829823" data-name="Path 829823" d="M201.233,146.707a1.4,1.4,0,1,1-1.4,1.4,1.4,1.4,0,0,1,1.4-1.4" transform="translate(-88.464 -64.945)" fill="#080927"/>
        <path id="Path_829824" data-name="Path 829824" d="M230.672,148.1a1.4,1.4,0,1,1-1.4-1.4,1.4,1.4,0,0,1,1.4,1.4" transform="translate(-100.879 -64.945)" fill="#080927"/>
        <path id="Path_829825" data-name="Path 829825" d="M230.762,157.26a1.4,1.4,0,1,0-1.4,1.4,1.4,1.4,0,0,0,1.4-1.4" transform="translate(-100.919 -68.998)" fill="#080927"/>
        <path id="Path_829826" data-name="Path 829826" d="M230.762,166.608a1.4,1.4,0,1,0-1.4,1.4,1.4,1.4,0,0,0,1.4-1.4" transform="translate(-100.919 -73.136)" fill="#080927"/>
        <path id="Path_829827" data-name="Path 829827" d="M230.762,185.3a1.4,1.4,0,1,0-1.4,1.4,1.4,1.4,0,0,0,1.4-1.4" transform="translate(-100.919 -81.41)" fill="#080927"/>
        <path id="Path_829828" data-name="Path 829828" d="M230.762,194.645a1.4,1.4,0,1,0-1.4,1.4,1.4,1.4,0,0,0,1.4-1.4" transform="translate(-100.919 -85.548)" fill="#080927"/>
        <path id="Path_829829" data-name="Path 829829" d="M229.367,174.553a1.4,1.4,0,1,0,1.4,1.4,1.4,1.4,0,0,0-1.4-1.4" transform="translate(-100.919 -77.271)" fill="#080927"/>
        <path id="Path_829830" data-name="Path 829830" d="M194.42,92.592a1.4,1.4,0,1,1-1.4-1.4,1.4,1.4,0,0,1,1.4,1.4" transform="translate(-84.831 -40.371)" fill="#080927"/>
        <path id="Path_829831" data-name="Path 829831" d="M194.51,101.749a1.4,1.4,0,1,0-1.4,1.4,1.4,1.4,0,0,0,1.4-1.4" transform="translate(-84.871 -44.424)" fill="#080927"/>
        <path id="Path_829832" data-name="Path 829832" d="M194.51,111.1a1.4,1.4,0,1,0-1.4,1.4,1.4,1.4,0,0,0,1.4-1.4" transform="translate(-84.871 -48.563)" fill="#080927"/>
        <path id="Path_829833" data-name="Path 829833" d="M193.115,119.042a1.4,1.4,0,1,0,1.4,1.4,1.4,1.4,0,0,0-1.4-1.4" transform="translate(-84.871 -52.698)" fill="#080927"/>
        <path id="Path_829834" data-name="Path 829834" d="M482.448,306.532a1.4,1.4,0,1,1-1.4,1.4,1.4,1.4,0,0,1,1.4-1.4" transform="translate(-212.953 -135.696)" fill="#080927"/>
        <path id="Path_829835" data-name="Path 829835" d="M480.966,243.073a1.4,1.4,0,1,1,1.4,1.4,1.4,1.4,0,0,1-1.4-1.4" transform="translate(-212.915 -106.986)" fill="#080927"/>
        <path id="Path_829836" data-name="Path 829836" d="M480.966,252.421a1.4,1.4,0,1,1,1.4,1.4,1.4,1.4,0,0,1-1.4-1.4" transform="translate(-212.915 -111.124)" fill="#080927"/>
        <path id="Path_829837" data-name="Path 829837" d="M480.966,225.514a1.4,1.4,0,1,1,1.4,1.4,1.4,1.4,0,0,1-1.4-1.4" transform="translate(-212.915 -99.213)" fill="#080927"/>
        <path id="Path_829838" data-name="Path 829838" d="M480.966,234.862a1.4,1.4,0,1,1,1.4,1.4,1.4,1.4,0,0,1-1.4-1.4" transform="translate(-212.915 -103.351)" fill="#080927"/>
        <path id="Path_829839" data-name="Path 829839" d="M480.966,261.769a1.4,1.4,0,1,1,1.4,1.4,1.4,1.4,0,0,1-1.4-1.4" transform="translate(-212.915 -115.262)" fill="#080927"/>
        <path id="Path_829840" data-name="Path 829840" d="M480.966,280.458a1.4,1.4,0,1,1,1.4,1.4,1.4,1.4,0,0,1-1.4-1.4" transform="translate(-212.915 -123.536)" fill="#080927"/>
        <path id="Path_829841" data-name="Path 829841" d="M480.966,289.806a1.4,1.4,0,1,1,1.4,1.4,1.4,1.4,0,0,1-1.4-1.4" transform="translate(-212.915 -127.674)" fill="#080927"/>
        <path id="Path_829842" data-name="Path 829842" d="M480.966,299.154a1.4,1.4,0,1,1,1.4,1.4,1.4,1.4,0,0,1-1.4-1.4" transform="translate(-212.915 -131.812)" fill="#080927"/>
        <path id="Path_829843" data-name="Path 829843" d="M482.362,269.714a1.4,1.4,0,1,1-1.4,1.4,1.4,1.4,0,0,1,1.4-1.4" transform="translate(-212.915 -119.398)" fill="#080927"/>
        <path id="Path_829844" data-name="Path 829844" d="M492.074,314.939a1.4,1.4,0,1,1-1.4,1.4,1.4,1.4,0,0,1,1.4-1.4" transform="translate(-217.214 -139.418)" fill="#080927"/>
        <path id="Path_829845" data-name="Path 829845" d="M473.385,314.939a1.4,1.4,0,1,1-1.4,1.4,1.4,1.4,0,0,1,1.4-1.4" transform="translate(-208.941 -139.418)" fill="#080927"/>
        <path id="Path_829846" data-name="Path 829846" d="M464.037,314.939a1.4,1.4,0,1,1-1.4,1.4,1.4,1.4,0,0,1,1.4-1.4" transform="translate(-204.803 -139.418)" fill="#080927"/>
        <path id="Path_829847" data-name="Path 829847" d="M454.689,314.939a1.4,1.4,0,1,1-1.4,1.4,1.4,1.4,0,0,1,1.4-1.4" transform="translate(-200.665 -139.418)" fill="#080927"/>
        <path id="Path_829848" data-name="Path 829848" d="M484.129,316.335a1.4,1.4,0,1,1-1.4-1.4,1.4,1.4,0,0,1,1.4,1.4" transform="translate(-213.08 -139.418)" fill="#080927"/>
        <path id="Path_829849" data-name="Path 829849" d="M436,314.939a1.4,1.4,0,1,1-1.4,1.4,1.4,1.4,0,0,1,1.4-1.4" transform="translate(-192.392 -139.418)" fill="#080927"/>
        <path id="Path_829850" data-name="Path 829850" d="M446.744,316.335a1.4,1.4,0,1,1-1.4-1.4,1.4,1.4,0,0,1,1.4,1.4" transform="translate(-196.53 -139.418)" fill="#080927"/>
        <path id="Path_829851" data-name="Path 829851" d="M502.254,316.421a1.4,1.4,0,1,1-1.4-1.4,1.4,1.4,0,0,1,1.4,1.4" transform="translate(-221.103 -139.456)" fill="#080927"/>
        <path id="Path_829852" data-name="Path 829852" d="M321.607,178.57a1.4,1.4,0,1,1,1.4-1.4,1.4,1.4,0,0,1-1.4,1.4" transform="translate(-141.752 -77.814)" fill="#080927"/>
        <path id="Path_829853" data-name="Path 829853" d="M340.295,178.57a1.4,1.4,0,1,1,1.4-1.4,1.4,1.4,0,0,1-1.4,1.4" transform="translate(-150.025 -77.814)" fill="#080927"/>
        <path id="Path_829854" data-name="Path 829854" d="M329.551,177.175a1.4,1.4,0,1,1,1.4,1.4,1.4,1.4,0,0,1-1.4-1.4" transform="translate(-145.886 -77.814)" fill="#080927"/>
        <path id="Path_829855" data-name="Path 829855" d="M311.425,177.089a1.4,1.4,0,1,1,1.4,1.4,1.4,1.4,0,0,1-1.4-1.4" transform="translate(-137.862 -77.776)" fill="#080927"/>
        <path id="Path_829856" data-name="Path 829856" d="M441.406,101.392a1.4,1.4,0,1,1-1.4,1.4,1.4,1.4,0,0,1,1.4-1.4" transform="translate(-194.785 -44.884)" fill="#080927"/>
        <path id="Path_829857" data-name="Path 829857" d="M432.058,101.392a1.4,1.4,0,1,1-1.4,1.4,1.4,1.4,0,0,1,1.4-1.4" transform="translate(-190.646 -44.884)" fill="#080927"/>
        <path id="Path_829858" data-name="Path 829858" d="M422.71,101.392a1.4,1.4,0,1,1-1.4,1.4,1.4,1.4,0,0,1,1.4-1.4" transform="translate(-186.508 -44.884)" fill="#080927"/>
        <path id="Path_829859" data-name="Path 829859" d="M452.149,102.788a1.4,1.4,0,1,1-1.4-1.4,1.4,1.4,0,0,1,1.4,1.4" transform="translate(-198.923 -44.884)" fill="#080927"/>
        <path id="Path_829860" data-name="Path 829860" d="M469.724,101.392a1.4,1.4,0,1,1-1.4,1.4,1.4,1.4,0,0,1,1.4-1.4" transform="translate(-207.32 -44.884)" fill="#080927"/>
        <path id="Path_829861" data-name="Path 829861" d="M461.779,102.788a1.4,1.4,0,1,1-1.4-1.4,1.4,1.4,0,0,1,1.4,1.4" transform="translate(-203.186 -44.884)" fill="#080927"/>
        <path id="Path_829862" data-name="Path 829862" d="M479.905,102.874a1.4,1.4,0,1,1-1.4-1.4,1.4,1.4,0,0,1,1.4,1.4" transform="translate(-211.21 -44.922)" fill="#080927"/>
        <path id="Path_829863" data-name="Path 829863" d="M405.791,74.845a1.4,1.4,0,1,0-1.4,1.4,1.4,1.4,0,0,0,1.4-1.4" transform="translate(-178.401 -32.515)" fill="#080927"/>
        <path id="Path_829864" data-name="Path 829864" d="M404.4,82.79a1.4,1.4,0,1,0,1.4,1.4,1.4,1.4,0,0,0-1.4-1.4" transform="translate(-178.401 -36.65)" fill="#080927"/>
        <path id="Path_829865" data-name="Path 829865" d="M414.026,101.392a1.4,1.4,0,1,0,1.4,1.4,1.4,1.4,0,0,0-1.4-1.4" transform="translate(-182.664 -44.884)" fill="#080927"/>
        <path id="Path_829866" data-name="Path 829866" d="M403.282,93.725a1.4,1.4,0,1,0,1.4-1.4,1.4,1.4,0,0,0-1.4,1.4" transform="translate(-178.526 -40.872)" fill="#080927"/>
        <path id="Path_829867" data-name="Path 829867" d="M403.192,102.882a1.4,1.4,0,1,1,1.4,1.4,1.4,1.4,0,0,1-1.4-1.4" transform="translate(-178.486 -44.926)" fill="#080927"/>
        <path id="Path_829868" data-name="Path 829868" d="M403.192,112.23a1.4,1.4,0,1,1,1.4,1.4,1.4,1.4,0,0,1-1.4-1.4" transform="translate(-178.486 -49.064)" fill="#080927"/>
        <path id="Path_829869" data-name="Path 829869" d="M403.192,130.919a1.4,1.4,0,1,1,1.4,1.4,1.4,1.4,0,0,1-1.4-1.4" transform="translate(-178.486 -57.338)" fill="#080927"/>
        <path id="Path_829870" data-name="Path 829870" d="M403.192,140.267a1.4,1.4,0,1,1,1.4,1.4,1.4,1.4,0,0,1-1.4-1.4" transform="translate(-178.486 -61.476)" fill="#080927"/>
        <path id="Path_829871" data-name="Path 829871" d="M403.192,149.615a1.4,1.4,0,1,1,1.4,1.4,1.4,1.4,0,0,1-1.4-1.4" transform="translate(-178.486 -65.614)" fill="#080927"/>
        <path id="Path_829872" data-name="Path 829872" d="M404.588,120.175a1.4,1.4,0,1,1-1.4,1.4,1.4,1.4,0,0,1,1.4-1.4" transform="translate(-178.486 -53.199)" fill="#080927"/>
        <path id="Path_829873" data-name="Path 829873" d="M403.192,168.3a1.4,1.4,0,1,1,1.4,1.4,1.4,1.4,0,0,1-1.4-1.4" transform="translate(-178.486 -73.887)" fill="#080927"/>
        <path id="Path_829874" data-name="Path 829874" d="M404.588,157.56a1.4,1.4,0,1,1-1.4,1.4,1.4,1.4,0,0,1,1.4-1.4" transform="translate(-178.486 -69.749)" fill="#080927"/>
        <path id="Path_829875" data-name="Path 829875" d="M403.188,177.655a1.4,1.4,0,1,1,1.4,1.4,1.4,1.4,0,0,1-1.4-1.4" transform="translate(-178.484 -78.027)" fill="#080927"/>
        <path id="Path_829876" data-name="Path 829876" d="M349.643,178.57a1.4,1.4,0,1,1,1.4-1.4,1.4,1.4,0,0,1-1.4,1.4" transform="translate(-154.163 -77.814)" fill="#080927"/>
        <path id="Path_829877" data-name="Path 829877" d="M358.991,178.57a1.4,1.4,0,1,1,1.4-1.4,1.4,1.4,0,0,1-1.4,1.4" transform="translate(-158.301 -77.814)" fill="#080927"/>
        <path id="Path_829878" data-name="Path 829878" d="M377.68,178.57a1.4,1.4,0,1,1,1.4-1.4,1.4,1.4,0,0,1-1.4,1.4" transform="translate(-166.574 -77.814)" fill="#080927"/>
        <path id="Path_829879" data-name="Path 829879" d="M387.028,178.57a1.4,1.4,0,1,1,1.4-1.4,1.4,1.4,0,0,1-1.4,1.4" transform="translate(-170.712 -77.814)" fill="#080927"/>
        <path id="Path_829880" data-name="Path 829880" d="M396.376,178.57a1.4,1.4,0,1,1,1.4-1.4,1.4,1.4,0,0,1-1.4,1.4" transform="translate(-174.851 -77.814)" fill="#080927"/>
        <path id="Path_829881" data-name="Path 829881" d="M366.936,177.175a1.4,1.4,0,1,1,1.4,1.4,1.4,1.4,0,0,1-1.4-1.4" transform="translate(-162.436 -77.814)" fill="#080927"/>
        <path id="Path_829882" data-name="Path 829882" d="M311.425,186.437a1.4,1.4,0,1,1,1.4,1.4,1.4,1.4,0,0,1-1.4-1.4" transform="translate(-137.862 -81.914)" fill="#080927"/>
        <path id="Path_829883" data-name="Path 829883" d="M311.425,195.117a1.4,1.4,0,1,1,1.4,1.4,1.4,1.4,0,0,1-1.4-1.4" transform="translate(-137.862 -85.757)" fill="#080927"/>
        <path id="Path_829884" data-name="Path 829884" d="M78,153.973H16.3a5.524,5.524,0,0,1-5.524-5.524V110.881a5.524,5.524,0,0,1,5.524-5.524H78a5.524,5.524,0,0,1,5.524,5.524v37.568A5.524,5.524,0,0,1,78,153.973" transform="translate(-4.771 -46.64)" fill="#ffe5d5"/>
        <path id="Path_829885" data-name="Path 829885" d="M83.477,163.39a1.817,1.817,0,0,0-.59-1.171L48.485,130.5a2.166,2.166,0,0,0-2.887,0L11.234,162.183a1.863,1.863,0,0,0-.457.645v.151a1.967,1.967,0,0,0,2.041,1.882H81.485a2.012,2.012,0,0,0,1.992-1.471" transform="translate(-4.771 -57.528)" fill="#ffae7e"/>
        <path id="Path_829886" data-name="Path 829886" d="M83.479,106.834a2.011,2.011,0,0,0-1.994-1.477H12.819a1.967,1.967,0,0,0-2.042,1.883v.115a1.871,1.871,0,0,0,.457.645l34.4,31.714a2.167,2.167,0,0,0,2.888,0l34.363-31.679a1.812,1.812,0,0,0,.591-1.2" transform="translate(-4.771 -46.64)" fill="#fcc4a3"/>
        <path id="Path_829887" data-name="Path 829887" d="M15.824,101.7a7.912,7.912,0,1,1-7.912-7.912,7.912,7.912,0,0,1,7.912,7.912" transform="translate(0 -41.519)" fill="#7816c2"/>
        <path id="Path_829888" data-name="Path 829888" d="M13.568,99.356h-1.23a.09.09,0,0,0-.054.018,8.511,8.511,0,0,1-2.734,1.369.091.091,0,0,0-.065.086v1.713a.089.089,0,0,0,.031.067.085.085,0,0,0,.07.022,4.021,4.021,0,0,0,.56-.108,4.357,4.357,0,0,0,.546-.184,4.2,4.2,0,0,0,.5-.243,2.852,2.852,0,0,0,.261-.171v6.96a.09.09,0,0,0,.09.09h2.028a.09.09,0,0,0,.09-.09v-9.44a.09.09,0,0,0-.09-.09" transform="translate(-4.199 -43.983)" fill="#fbf6ff"/>
      </g>
    </g>
  </g>
</svg>
