<svg xmlns="http://www.w3.org/2000/svg" xmlns:xlink="http://www.w3.org/1999/xlink" width="210" height="186" viewBox="0 0 210 186">
  <defs>
    <clipPath id="clip-path">
      <rect id="Rectangle_380690" data-name="Rectangle 380690" width="210" height="186" transform="translate(370 1787)" fill="#fff" stroke="#707070" stroke-width="1"/>
    </clipPath>
  </defs>
  <g id="Mask_Group_442" data-name="Mask Group 442" transform="translate(-370 -1787)" clip-path="url(#clip-path)">
    <g id="Group_1077515" data-name="Group 1077515" transform="translate(405.755 1805.797)">
      <path id="Path_829889" data-name="Path 829889" d="M329.232,365.82v20.45H296V374.332a6.711,6.711,0,0,0,2.045-3.3l2.736-10a34.227,34.227,0,0,1,6.544,1.509l4.32,1.43a35.5,35.5,0,0,0,11.324,1.841,33,33,0,0,0,6.161-.563Zm0,0" transform="translate(-201.417 -245.673)" fill="#ffae7e"/>
      <path id="Path_829890" data-name="Path 829890" d="M330.794,289.508a5.116,5.116,0,0,1-3.63,8.717H322L324.761,288h2.4A5.106,5.106,0,0,1,330.794,289.508Zm0,0" transform="translate(-219.109 -195.973)" fill="#ccd1d9"/>
      <path id="Path_829891" data-name="Path 829891" d="M244.642,288.153l-2.71,10.072h-8.1a10.292,10.292,0,0,0-7.235,2.991l-.434-.434,9.791-9.791A10.236,10.236,0,0,1,243.185,288h.869Zm0,0" transform="translate(-153.893 -195.973)" fill="#e6e9ed"/>
      <path id="Path_829892" data-name="Path 829892" d="M220.824,248.383l-3.4,12.552-.588-.154h-.869a10.235,10.235,0,0,0-7.235,2.991l-9.791,9.791-3.5,3.527a5.418,5.418,0,0,1-3.834,1.585,5.513,5.513,0,0,1-3.859-1.585,5.4,5.4,0,0,1,.025-7.669l18.406-18.431A10.236,10.236,0,0,1,213.411,248h5.981Zm0,0" transform="translate(-126.675 -168.755)" fill="#f0d0b4"/>
      <path id="Path_829893" data-name="Path 829893" d="M170.795,82.133V23.338H112V8h92.027V92.358l-.179.256L194.517,86.4a10.144,10.144,0,0,0-5.674-1.713h-3.527l4.933-18.226,2.736-10.174L196.819,42.1a6.954,6.954,0,0,0,.23-1.764,6.764,6.764,0,0,0-6.749-6.774h-.844a6.751,6.751,0,0,0-6.518,5.01l-3.554,13.191-2.761,10.148-5.5,20.323Zm0,0" transform="translate(-76.212 -5.444)" fill="#ffae7e"/>
      <path id="Path_829894" data-name="Path 829894" d="M100.027,114.795l.332.1-.766,2.837-1.432-.383H92.179a10.235,10.235,0,0,0-7.235,2.991L66.539,138.773a5.4,5.4,0,0,0-.025,7.669,5.513,5.513,0,0,0,3.859,1.585,5.418,5.418,0,0,0,3.834-1.585l3.5-3.527.434.434a10.292,10.292,0,0,0-2.991,7.235,2.564,2.564,0,0,0,2.556,2.556H90.031l-1.84,6.8a7,7,0,0,0-.256,1.764,6.786,6.786,0,0,0,6.774,6.774h.844a6.723,6.723,0,0,0,4.474-1.713V194.04H8V56h92.027Zm0,0" transform="translate(-5.444 -38.106)" fill="#fff"/>
      <path id="Path_829895" data-name="Path 829895" d="M40,88h61.351v20.45H40Zm0,0" transform="translate(-27.218 -59.881)" fill="#c1e29a"/>
      <path id="Path_829896" data-name="Path 829896" d="M57.894,352h7.669v25.563H40V352Zm0,0" transform="translate(-27.218 -239.523)" fill="#ffae7e"/>
      <path id="Path_829897" data-name="Path 829897" d="M57.894,216h7.669v25.563H40V216Zm0,0" transform="translate(-27.218 -146.98)" fill="#ffae7e"/>
      <path id="Path_829898" data-name="Path 829898" d="M340.543,94.774a6.954,6.954,0,0,1-.23,1.764l-3.834,14.188-13.6-4.525,3.554-13.191A6.751,6.751,0,0,1,332.95,88h.844a6.764,6.764,0,0,1,6.749,6.774Zm0,0" transform="translate(-219.707 -59.881)" fill="#ffeaa7"/>
      <path id="Path_829899" data-name="Path 829899" d="M330.6,149.486l-2.736,10.174-13.625-4.551L317,144.961Zm0,0" transform="translate(-213.827 -98.64)" fill="#e6e9ed"/>
      <path id="Path_829900" data-name="Path 829900" d="M270.251,373.626a6.723,6.723,0,0,1-4.474,1.713h-.844a6.786,6.786,0,0,1-6.774-6.774,7,7,0,0,1,.256-1.764l1.84-6.8h10a33.206,33.206,0,0,1,4.781.332l-2.736,10A6.711,6.711,0,0,1,270.251,373.626Zm0,0" transform="translate(-175.668 -244.967)" fill="#fcd770"/>
      <path id="Path_829901" data-name="Path 829901" d="M296.584,199.5,290.371,222.5H275.519l2.71-10.072,3.4-12.552.766-2.837,5.5-20.323,13.625,4.551Zm0,0" transform="translate(-187.48 -120.25)" fill="#fcd770"/>
      <path id="Path_829902" data-name="Path 829902" d="M247.814,284.12a33.2,33.2,0,0,0-4.781-.332H220.717a2.564,2.564,0,0,1-2.556-2.556,10.211,10.211,0,0,1,10.225-10.225H256.5a5.113,5.113,0,1,0,0-10.225h-2.4L257.553,248h3.527a10.144,10.144,0,0,1,5.674,1.713l9.331,6.212,8.538,5.7a10.148,10.148,0,0,0,5.676,1.713h16.641v20.45h-7.669a35.523,35.523,0,0,0-8.691,1.073l-11.887,2.966c-.844.2-1.688.383-2.531.511A33,33,0,0,1,270,288.9a35.5,35.5,0,0,1-11.324-1.841l-4.32-1.43A34.223,34.223,0,0,0,247.814,284.12Zm0,0" transform="translate(-148.45 -168.755)" fill="#f0d0b4"/>
      <path id="Path_829903" data-name="Path 829903" d="M112.638,81.8a7.639,7.639,0,0,1,4.254,1.288l17.853,11.9a12.767,12.767,0,0,0,7.091,2.147h16.655V92.027H141.839a7.651,7.651,0,0,1-4.256-1.288l-7.211-4.808V0H33.232V15.338H0V158.491H97.14V143.153h33.232V121.646c.161-.039.327-.051.488-.092l11.889-2.972a33.43,33.43,0,0,1,8.073-.992h7.669v-5.113h-7.669a38.448,38.448,0,0,0-9.31,1.146l-11.892,2.972a33.417,33.417,0,0,1-18.592-.713l-4.308-1.437a38.3,38.3,0,0,0-12.137-1.968H72.277a7.679,7.679,0,0,1,7.669-7.669h28.119a7.649,7.649,0,0,0,.9-15.248l2.1-7.759Zm-3.229,38.93a38.267,38.267,0,0,0,12.14,1.971c1.241,0,2.478-.107,3.71-.227V138.04H97.14v-8.362a9.22,9.22,0,0,0,1.966-3.645l2.093-7.754a32.994,32.994,0,0,1,3.9,1.017Zm-13.333-3.083-1.9,7.05a4.222,4.222,0,0,1-4.069,3.117h-.829a4.213,4.213,0,0,1-4.067-5.312l1.327-4.913h8.05c.5,0,.995.039,1.493.059Zm-14.84-.059-.966,3.576a9.266,9.266,0,0,0,4.39,10.491l-.8,3.205,4.959,1.241.8-3.175H90.1a9.284,9.284,0,0,0,1.925-.225v20.675H5.113V20.45H38.345V5.112h86.914V82.523l-5.53-3.687a12.761,12.761,0,0,0-7.091-2.147h-.2l10.64-39.364a9.331,9.331,0,0,0-9-11.762h-.829a9.343,9.343,0,0,0-9,6.894L97.14,58.751V15.338H43.457v5.113h48.57V76.689H86.741a12.643,12.643,0,0,0-7.6,2.556H53.682v5.113H73.775l-5.113,5.113H53.682v5.113h9.869l-4.271,4.271a7.932,7.932,0,0,0,7.925,13.252c0,.125-.039.243-.039.371a5.118,5.118,0,0,0,5.113,5.113ZM100.928,99.7H91.37l10.794-39.94,8.769,2.922ZM81.316,84.046A7.622,7.622,0,0,1,86.741,81.8H90.91l-2.086,7.715a12.66,12.66,0,0,0-8.566,3.7L66.947,106.523a2.867,2.867,0,0,1-4.9-2.025,2.848,2.848,0,0,1,.841-2.027Zm2.556,12.782a7.588,7.588,0,0,1,3.51-1.976L86.073,99.7H81.007ZM118.144,35.99l-3.13,11.582-8.769-2.922,2.935-10.858a4.225,4.225,0,0,1,4.069-3.117h.829a4.215,4.215,0,0,1,4.067,5.315Zm-13.233,13.6,8.769,2.922-1.412,5.217L103.5,54.812Zm3.154,44.989a2.556,2.556,0,1,1,0,5.113h-1.842l1.383-5.113Zm0,0" transform="translate(0 0)"/>
      <path id="Path_829904" data-name="Path 829904" d="M98.464,80H32v25.563H98.464Zm-5.113,20.45H37.113V85.113H93.351Zm0,0" transform="translate(-21.775 -54.437)"/>
      <path id="Path_829905" data-name="Path 829905" d="M64,112h5.113v5.113H64Zm0,0" transform="translate(-43.55 -76.212)"/>
      <path id="Path_829906" data-name="Path 829906" d="M96,112h5.113v5.113H96Zm0,0" transform="translate(-65.324 -76.212)"/>
      <path id="Path_829907" data-name="Path 829907" d="M128,112h5.113v5.113H128Zm0,0" transform="translate(-87.099 -76.212)"/>
      <path id="Path_829908" data-name="Path 829908" d="M160,112h5.113v5.113H160Zm0,0" transform="translate(-108.874 -76.212)"/>
      <path id="Path_829909" data-name="Path 829909" d="M192,112h5.113v5.113H192Zm0,0" transform="translate(-130.649 -76.212)"/>
      <path id="Path_829910" data-name="Path 829910" d="M62.676,223.338H57.563v10.225H37.113v-20.45H52.45V208H32v30.676H62.676Zm0,0" transform="translate(-21.775 -141.536)"/>
      <path id="Path_829911" data-name="Path 829911" d="M89.02,178.344,65.264,202.1l-3.305-3.305-3.615,3.615,6.92,6.92,27.37-27.37Zm0,0" transform="translate(-39.701 -121.356)"/>
      <path id="Path_829912" data-name="Path 829912" d="M57.563,369.563H37.113v-20.45H52.45V344H32v30.676H62.676V359.338H57.563Zm0,0" transform="translate(-21.775 -234.079)"/>
      <path id="Path_829913" data-name="Path 829913" d="M61.959,334.794l-3.615,3.615,6.92,6.92,27.37-27.37-3.615-3.615L65.264,338.1Zm0,0" transform="translate(-39.701 -213.899)"/>
      <path id="Path_829914" data-name="Path 829914" d="M256,440h5.113v5.113H256Zm0,0" transform="translate(-174.198 -299.403)"/>
      <path id="Path_829915" data-name="Path 829915" d="M152,440h28.119v5.113H152Zm0,0" transform="translate(-103.43 -299.403)"/>
      <path id="Path_829916" data-name="Path 829916" d="M168,216h33.232v5.113H168Zm0,0" transform="translate(-114.318 -146.98)"/>
    </g>
  </g>
</svg>
