<svg xmlns="http://www.w3.org/2000/svg" xmlns:xlink="http://www.w3.org/1999/xlink" width="210" height="166" viewBox="0 0 210 166">
  <defs>
    <clipPath id="clip-path">
      <rect id="Rectangle_380692" data-name="Rectangle 380692" width="210" height="166" transform="translate(370 2230)" fill="#fff" stroke="#707070" stroke-width="1"/>
    </clipPath>
  </defs>
  <g id="Mask_Group_444" data-name="Mask Group 444" transform="translate(-370 -2230)" clip-path="url(#clip-path)">
    <g id="Group_1077575" data-name="Group 1077575" transform="translate(401.895 2232.363)">
      <g id="Group_1077566" data-name="Group 1077566" transform="translate(32.145 102.111)">
        <g id="Group_1077561" data-name="Group 1077561" transform="translate(0 7.881)">
          <path id="Path_829951" data-name="Path 829951" d="M202.666,367.107a25.088,25.088,0,0,0,6.023,16.522H117.905a2.872,2.872,0,0,1-2.344-1.2c-1.527-2.148-4.335-7.2-4.335-15.322s2.808-13.175,4.335-15.322a2.873,2.873,0,0,1,2.344-1.2h90.784A25.09,25.09,0,0,0,202.666,367.107Z" transform="translate(-111.226 -350.585)" fill="#d5fff5"/>
          <path id="Path_829952" data-name="Path 829952" d="M138.926,350.587l-25.6,27.73a29.01,29.01,0,0,1-2.1-11.208c0-8.124,2.806-13.176,4.335-15.323a2.869,2.869,0,0,1,2.344-1.2Z" transform="translate(-111.229 -350.586)" fill="#5bf6d1"/>
          <path id="Path_829953" data-name="Path 829953" d="M237.231,367.107a25.088,25.088,0,0,0,6.023,16.522H151.089s-5.3-5.364-5.3-16.522,5.3-16.522,5.3-16.522h92.165A25.09,25.09,0,0,0,237.231,367.107Z" transform="translate(-135.801 -350.585)" fill="#e0d3ce"/>
          <g id="Group_1077560" data-name="Group 1077560" transform="translate(9.989 0.001)">
            <path id="Path_829954" data-name="Path 829954" d="M163.5,350.587l-17.612,19.078c-.061-.815-.1-1.668-.1-2.555,0-11.159,5.3-16.523,5.3-16.523Z" transform="translate(-145.79 -350.587)" fill="#cdbfbb"/>
            <path id="Path_829955" data-name="Path 829955" d="M435.32,367.113a25.085,25.085,0,0,0,6.023,16.521H430.422a25.67,25.67,0,0,1,0-33.042h10.921A25.077,25.077,0,0,0,435.32,367.113Z" transform="translate(-343.878 -350.591)" fill="#cdbfbb"/>
          </g>
        </g>
        <g id="Group_1077565" data-name="Group 1077565" transform="translate(12.436)">
          <g id="Group_1077563" data-name="Group 1077563" transform="translate(0.001)">
            <path id="Path_829956" data-name="Path 829956" d="M255.48,328.115a4.8,4.8,0,0,1-4.795,4.795h-91.63a4.8,4.8,0,0,1,0-9.592h91.63A4.8,4.8,0,0,1,255.48,328.115Z" transform="translate(-154.26 -323.317)" fill="#d5fff5"/>
            <g id="Group_1077562" data-name="Group 1077562">
              <path id="Path_829957" data-name="Path 829957" d="M176.794,323.317l-8.852,9.592h-8.887a4.8,4.8,0,0,1,0-9.592Z" transform="translate(-154.26 -323.317)" fill="#d5fff5"/>
              <path id="Path_829958" data-name="Path 829958" d="M469.813,328.115a4.8,4.8,0,0,1-4.8,4.8h-9.3a4.8,4.8,0,0,0,0-9.593h9.3A4.8,4.8,0,0,1,469.813,328.115Z" transform="translate(-368.59 -323.32)" fill="#d5fff5"/>
            </g>
          </g>
          <g id="Group_1077564" data-name="Group 1077564" transform="translate(0 39.212)">
            <path id="Path_829959" data-name="Path 829959" d="M250.683,468.588h-91.63a4.8,4.8,0,0,1,0-9.592h91.63a4.8,4.8,0,0,1,0,9.592Z" transform="translate(-154.257 -458.996)" fill="#d5fff5"/>
            <path id="Path_829960" data-name="Path 829960" d="M469.813,463.794a4.794,4.794,0,0,1-4.8,4.794h-9.3a4.794,4.794,0,0,0,0-9.589h9.3A4.8,4.8,0,0,1,469.813,463.794Z" transform="translate(-368.589 -458.999)" fill="#d5fff5"/>
          </g>
        </g>
      </g>
      <g id="Group_1077574" data-name="Group 1077574" transform="translate(-0.001 12.193)">
        <g id="Group_1077569" data-name="Group 1077569" transform="translate(2.168 57.278)">
          <g id="Group_1077567" data-name="Group 1077567" transform="translate(0 18.345)">
            <path id="Path_829961" data-name="Path 829961" d="M70.632,281.6l-7.742-7.742-52.7,48.654A8.346,8.346,0,1,0,21.978,334.3Z" transform="translate(-7.5 -273.857)" fill="#873f30"/>
            <path id="Path_829962" data-name="Path 829962" d="M22.753,340.405a8.349,8.349,0,0,1-11.8,0,8.264,8.264,0,0,1-2.035-3.326,8.333,8.333,0,0,0,8.469-2.028c.08-.08.16-.165.238-.247L66.28,282.1l5.361,5.361L22.986,340.163C22.909,340.245,22.831,340.328,22.753,340.405Z" transform="translate(-8.508 -279.715)" fill="#6c3328"/>
          </g>
          <path id="Path_829963" data-name="Path 829963" d="M208.464,210.382l-17.828,21.266,7.283,7.283L219.185,221.1Z" transform="translate(-137.708 -210.382)" fill="#873f30"/>
          <path id="Path_829964" data-name="Path 829964" d="M215.521,210.382l-5.761,6.872,1.729,1.729a3.258,3.258,0,0,1,0,4.607l-10.927,10.927,4.414,4.414L226.242,221.1Z" transform="translate(-144.765 -210.382)" fill="#6c3328"/>
          <g id="Group_1077568" data-name="Group 1077568" transform="translate(47.028 16.912)">
            <path id="Path_829965" data-name="Path 829965" d="M178.825,284.9l-7.07-7.07a5.234,5.234,0,0,1,7.4-7.4l7.07,7.07a5.234,5.234,0,1,1-7.4,7.4Z" transform="translate(-170.222 -268.899)" fill="#ba5d4f"/>
            <path id="Path_829966" data-name="Path 829966" d="M194.2,292.883a5.233,5.233,0,0,1-7.4,0l-5.358-5.358a5.234,5.234,0,0,0,7.4-7.4l5.358,5.359a5.231,5.231,0,0,1,0,7.4Z" transform="translate(-178.199 -276.879)" fill="#a34f41"/>
          </g>
        </g>
        <g id="Group_1077570" data-name="Group 1077570" transform="translate(57.516 8.673)">
          <path id="Path_829967" data-name="Path 829967" d="M0,0H22.2V34.858H0Z" transform="translate(24.645 0) rotate(45)" fill="#ba5d4f"/>
          <path id="Path_829968" data-name="Path 829968" d="M0,0H22.2V34.858H0Z" transform="translate(50.083 74.748) rotate(-135)" fill="#a34f41"/>
        </g>
        <g id="Group_1077573" data-name="Group 1077573" transform="translate(0 0)">
          <path id="Path_829969" data-name="Path 829969" d="M178.576,56.253l-.545-.545a5.3,5.3,0,0,1,0-7.488l26.975-26.975a5.3,5.3,0,0,1,7.488,0l.545.545a5.3,5.3,0,0,1,0,7.488L186.064,56.253a5.3,5.3,0,0,1-7.488,0Z" transform="translate(-125.475 -17.526)" fill="#873f30"/>
          <path id="Path_829970" data-name="Path 829970" d="M349.794,227.471l.545.545a5.3,5.3,0,0,0,7.488,0L384.8,201.041a5.3,5.3,0,0,0,0-7.488l-.545-.545a5.3,5.3,0,0,0-7.488,0l-26.975,26.975A5.3,5.3,0,0,0,349.794,227.471Z" transform="translate(-247.598 -139.648)" fill="#6c3328"/>
          <g id="Group_1077572" data-name="Group 1077572">
            <path id="Path_829971" data-name="Path 829971" d="M0,0H24.934V52.646H0Z" transform="translate(104.671 18.604) rotate(45)" fill="#ffae7e"/>
            <path id="Path_829972" data-name="Path 829972" d="M0,0H52.646V12.62H0Z" transform="translate(76.146 64.551) rotate(-45)" fill="#e57330"/>
            <path id="Path_829973" data-name="Path 829973" d="M263.772,68.927l-4.319-1.766a3.971,3.971,0,0,0-4.311.868L224.815,98.356a3.972,3.972,0,0,0-.868,4.311l1.766,4.319a2.647,2.647,0,0,0,4.322.87L264.642,73.25A2.648,2.648,0,0,0,263.772,68.927Z" transform="translate(-159.014 -51.065)" fill="#873f30"/>
            <path id="Path_829974" data-name="Path 829974" d="M328.125,133.281l1.766,4.319a3.971,3.971,0,0,1-.868,4.311L298.7,172.238a3.972,3.972,0,0,1-4.311.868l-4.319-1.766a2.647,2.647,0,0,1-.87-4.322L323.8,132.411A2.648,2.648,0,0,1,328.125,133.281Z" transform="translate(-205.064 -97.115)" fill="#6c3328"/>
            <g id="Group_1077571" data-name="Group 1077571">
              <path id="Path_829975" data-name="Path 829975" d="M141.007,139.155h-1.612a22.416,22.416,0,0,1-1.867-3.559,2.168,2.168,0,1,0-4.006,1.658c.268.647.568,1.279.883,1.9H49.377a6.936,6.936,0,0,0-1.889.263,25.2,25.2,0,0,1-3.186-12.9c0-.945.042-1.877.123-2.79H85.955a2.168,2.168,0,0,0,0-4.335h-39.7l5.093-5.517h83.049a27.059,27.059,0,0,0-2.087,5.517H103.815a2.168,2.168,0,1,0,0,4.335h27.733c-.085.881-.134,1.77-.138,2.667a2.168,2.168,0,0,0,2.159,2.177h.009a2.168,2.168,0,0,0,2.167-2.158,23.193,23.193,0,0,1,3.645-12.538h1.617a6.963,6.963,0,0,0,0-13.927h-27.1l24.825-24.826a7.462,7.462,0,0,0,0-10.553l-.546-.546a7.458,7.458,0,0,0-10.17-.355l-3.837-3.837,1.306-1.306a6.124,6.124,0,0,0,1.342-6.664l-1.766-4.319a4.8,4.8,0,0,0-3.487-2.894l-3.015-3.015A2.168,2.168,0,1,0,115.5,44.7l1.483,1.483L82.822,80.339,72.776,70.293l34.161-34.161,1.33,1.33a2.167,2.167,0,1,0,3.065-3.065l-2.861-2.861a4.805,4.805,0,0,0-2.894-3.487h0l-4.319-1.766a6.126,6.126,0,0,0-6.664,1.342l-1.306,1.306-3.837-3.837A7.459,7.459,0,0,0,89.1,14.925l-.546-.546a7.462,7.462,0,0,0-10.553,0L51.022,41.353a7.462,7.462,0,0,0,0,10.553l.545.545a7.459,7.459,0,0,0,10.17.355l3.837,3.837-1.307,1.307a6.125,6.125,0,0,0-1.342,6.664l1.766,4.319a4.8,4.8,0,0,0,3.438,2.882L57.261,84.78a7.405,7.405,0,0,0-9.782,9.389l-4.929,4.55A2.168,2.168,0,0,0,45.49,101.9l4.555-4.2,5.37,5.37L15.053,146.793a6.178,6.178,0,1,1-8.73-8.73l31.66-29.227a2.168,2.168,0,1,0-2.941-3.185L3.382,134.877a10.513,10.513,0,0,0,7.124,18.238l.217,0a10.424,10.424,0,0,0,7.515-3.38l12.991-14.073a24.982,24.982,0,0,0,3.485,7.431,5.048,5.048,0,0,0,4.111,2.111h3.652a6.952,6.952,0,0,0,6.9,7.88h91.63a6.963,6.963,0,0,0,0-13.927Zm2.628-32.248a2.631,2.631,0,0,1-2.628,2.628H55.346l3.6-3.9a7.408,7.408,0,0,0,7.394-1.353h74.664a2.631,2.631,0,0,1,2.628,2.628ZM78.243,81.892,65.693,92.414l-4.99-4.99L71.224,74.873ZM68.788,99.944a7.443,7.443,0,0,0-.452-4.089L81.3,84.986a4.8,4.8,0,0,0,2.882,3.438L88.5,90.19a6.126,6.126,0,0,0,6.664-1.342l1.307-1.307,3.837,3.837a7.476,7.476,0,0,0-.863,8.565H68.788ZM132.915,66.17a3.107,3.107,0,0,1,2.211.916l.546.546a3.126,3.126,0,0,1,0,4.422L108.7,99.028a3.127,3.127,0,0,1-4.422,0l-.545-.545a3.131,3.131,0,0,1,0-4.422L130.7,67.085a3.1,3.1,0,0,1,2.211-.916Zm-7.973.547L103.359,88.3l-3.823-3.822,21.583-21.583ZM85.665,83.628l34.606-34.606a.456.456,0,0,1,.331-.142.529.529,0,0,1,.1.01.461.461,0,0,1,.349.289L122.82,53.5a1.8,1.8,0,0,1-.394,1.957L92.1,85.783a1.8,1.8,0,0,1-1.957.394l-4.319-1.766a.48.48,0,0,1-.158-.784ZM56.844,50.3a3.105,3.105,0,0,1-2.211-.916l-.545-.545a3.127,3.127,0,0,1,0-4.422L81.063,17.445a3.127,3.127,0,0,1,4.422,0l.546.546a3.127,3.127,0,0,1,0,4.422L59.055,49.388a3.109,3.109,0,0,1-2.211.915Zm7.973-.547L86.4,28.174,90.222,32,68.64,53.579Zm2.516,11.26L97.66,30.69a1.8,1.8,0,0,1,1.958-.394l4.319,1.766a.48.48,0,0,1,.158.783L69.488,67.451a.479.479,0,0,1-.783-.158l-1.766-4.319a1.8,1.8,0,0,1,.394-1.957Zm-15.97,30.6A3.066,3.066,0,0,1,56.6,89.449l7.069,7.069a3.066,3.066,0,0,1-4.336,4.336l-7.069-7.069a3.046,3.046,0,0,1-.9-2.168ZM38.246,140.579a21.868,21.868,0,0,1-3.472-8.76l5.2-5.628c0,.107,0,.214,0,.322a30.074,30.074,0,0,0,3.362,14.354h-4.5A.705.705,0,0,1,38.246,140.579Zm102.761,8.168H49.377a2.628,2.628,0,1,1,0-5.256h91.63a2.628,2.628,0,1,1,0,5.256Z" transform="translate(0.001 -12.193)"/>
              <path id="Path_829976" data-name="Path 829976" d="M204.495,417.166a2.168,2.168,0,0,0,0,4.335h50.5a2.168,2.168,0,0,0,0-4.335Z" transform="translate(-143.852 -300.125)"/>
            </g>
          </g>
        </g>
      </g>
    </g>
  </g>
</svg>
