<svg xmlns="http://www.w3.org/2000/svg" xmlns:xlink="http://www.w3.org/1999/xlink" width="210" height="174" viewBox="0 0 210 174">
  <defs>
    <clipPath id="clip-path">
      <rect id="Rectangle_380693" data-name="Rectangle 380693" width="210" height="174" transform="translate(370 3083)" fill="#fff" stroke="#707070" stroke-width="1"/>
    </clipPath>
  </defs>
  <g id="Mask_Group_445" data-name="Mask Group 445" transform="translate(-370 -3083)" clip-path="url(#clip-path)">
    <g id="Group_1077583" data-name="Group 1077583" transform="translate(405.45 3095.884)">
      <g id="Group_1077582" data-name="Group 1077582" transform="translate(9.865 2.316)">
        <g id="Group_1077579" data-name="Group 1077579" transform="translate(0)">
          <g id="Group_1077576" data-name="Group 1077576" transform="translate(119.937 18.59)">
            <path id="Path_829977" data-name="Path 829977" d="M429.814,161.922V80.248a8.054,8.054,0,0,1,8.039-8.039h3.216a8.054,8.054,0,0,1,8.039,8.039v81.674l-9.166,5.847c-.448.286-.722.724-1.254.724s-.832-.4-1.254-.724Z" transform="translate(-429.814 -72.209)" fill="#cc8b64" fill-rule="evenodd"/>
            <path id="Path_829978" data-name="Path 829978" d="M453.133,72.313a8.033,8.033,0,0,1,1.287-.1h3.216a8.054,8.054,0,0,1,8.039,8.039v81.674l-6.44,7.768a1.635,1.635,0,0,1-1.254.724,1.414,1.414,0,0,1-1.254-.724l-1.642-2.843,4.8-4.925V80.248a8.059,8.059,0,0,0-6.751-7.935Z" transform="translate(-446.382 -72.209)" fill="#de6f2c" fill-rule="evenodd"/>
            <path id="Path_829979" data-name="Path 829979" d="M438.207,396.617l-8.393-14.537h19.293l-8.393,14.537a1.448,1.448,0,0,1-2.507,0Z" transform="translate(-429.814 -292.367)" fill="#ffae7e" fill-rule="evenodd"/>
          </g>
          <g id="Group_1077577" data-name="Group 1077577">
            <path id="Path_829980" data-name="Path 829980" d="M18.441,8h88.75a2.8,2.8,0,0,1,2.047.848L125.493,25.1a2.8,2.8,0,0,1,.848,2.047V148.705a2.9,2.9,0,0,1-2.9,2.9H18.441a2.9,2.9,0,0,1-2.9-2.9V10.9a2.9,2.9,0,0,1,2.9-2.9Z" transform="translate(-15.546 -8)" fill="#fff" fill-rule="evenodd"/>
            <path id="Path_829981" data-name="Path 829981" d="M18.441,8h5.791V151.6H18.441a2.9,2.9,0,0,1-2.9-2.9V10.9A2.9,2.9,0,0,1,18.441,8Z" transform="translate(-15.546 -8)" fill="#fff" fill-rule="evenodd"/>
            <path id="Path_829982" data-name="Path 829982" d="M336.233,8.867v14.8a2.9,2.9,0,0,0,2.9,2.9h14.8a2.907,2.907,0,0,0-.6-.848L337.081,9.464a2.9,2.9,0,0,0-.848-.6Z" transform="translate(-243.389 -8.616)" fill="#fff" fill-rule="evenodd"/>
          </g>
          <g id="Group_1077578" data-name="Group 1077578" transform="translate(30.459 87.744)">
            <path id="Path_829983" data-name="Path 829983" d="M150.225,318.333a18.139,18.139,0,0,1,4.76,1.974l5.958-4.314,4.767,4.767-4.314,5.958a18.141,18.141,0,0,1,1.974,4.759l7.261,1.162v6.742l-7.261,1.162a18.139,18.139,0,0,1-1.974,4.76l4.314,5.958-4.767,4.767-5.958-4.314a18.139,18.139,0,0,1-4.76,1.974l-1.162,7.261h-6.742l-1.162-7.261a18.138,18.138,0,0,1-4.76-1.974l-5.958,4.314-4.767-4.767,4.314-5.958a18.14,18.14,0,0,1-1.973-4.759l-7.261-1.162v-6.742l7.261-1.162a18.138,18.138,0,0,1,1.973-4.76l-4.314-5.958,4.767-4.767,5.958,4.313a18.139,18.139,0,0,1,4.76-1.973l1.162-7.261h6.742Z" transform="translate(-120.753 -311.073)" fill="#ffe177" fill-rule="evenodd"/>
            <path id="Path_829984" data-name="Path 829984" d="M180.343,317.133l1.575-1.14,4.767,4.767-4.314,5.958a18.142,18.142,0,0,1,1.974,4.759l7.261,1.162v6.742l-7.261,1.162a18.14,18.14,0,0,1-1.974,4.76l4.314,5.958-4.767,4.767-1.575-1.14,3.627-3.627-4.314-5.958a18.119,18.119,0,0,0,1.974-4.76l7.261-1.162V332.64l-7.261-1.162a18.147,18.147,0,0,0-1.973-4.759l4.314-5.958Zm-9.143,1.2a18.126,18.126,0,0,1,4.611,1.887.994.994,0,0,0,.148.087l-1.146.83a32.581,32.581,0,0,0-6.328-2.8l-1.162-7.261h2.715Zm4.613,33.469a18.143,18.143,0,0,1-4.613,1.888l-1.162,7.261h-2.715l1.162-7.261a32.6,32.6,0,0,0,6.328-2.8l1.146.83A1,1,0,0,0,175.813,351.8Zm-25.537-34.668,1.14-1.14,5.958,4.313q-.806.377-1.569.83Zm7.1,34.582-5.958,4.314-1.14-1.14,5.529-4Q156.567,351.337,157.374,351.715Z" transform="translate(-141.729 -311.072)" fill="#ffd064" fill-rule="evenodd"/>
            <circle id="Ellipse_5942" data-name="Ellipse 5942" cx="10.748" cy="10.748" r="10.748" transform="translate(9.721 24.933) rotate(-45)" fill="#eceff1"/>
            <path id="Path_829985" data-name="Path 829985" d="M180.514,360.087a10.833,10.833,0,0,1,1.358.085,10.75,10.75,0,0,0,0,21.327,10.749,10.749,0,1,1-1.358-21.412Z" transform="translate(-155.576 -345.896)" fill="#d1d1d6" fill-rule="evenodd"/>
          </g>
        </g>
        <g id="Group_1077580" data-name="Group 1077580" transform="translate(19.936 26.786)">
          <path id="Path_829986" data-name="Path 829986" d="M86.853,100.519H105.6a2.454,2.454,0,0,1,2.447,2.447v18.745a2.454,2.454,0,0,1-2.447,2.447H86.853a2.454,2.454,0,0,1-2.447-2.447V102.966A2.454,2.454,0,0,1,86.853,100.519Z" transform="translate(-84.406 -100.519)" fill="#c1e29a" fill-rule="evenodd"/>
        </g>
        <g id="Group_1077581" data-name="Group 1077581" transform="translate(19.936 60.528)">
          <path id="Path_829987" data-name="Path 829987" d="M86.853,217.065H105.6a2.454,2.454,0,0,1,2.447,2.447v18.745A2.454,2.454,0,0,1,105.6,240.7H86.853a2.454,2.454,0,0,1-2.447-2.447V219.512A2.454,2.454,0,0,1,86.853,217.065Z" transform="translate(-84.406 -217.065)" fill="#ffae7e" fill-rule="evenodd"/>
        </g>
      </g>
      <path id="Path_829988" data-name="Path 829988" d="M87.885,116.4l-5.31.851a2.317,2.317,0,0,0-1.879,1.713,15.625,15.625,0,0,1-1.722,4.152,2.318,2.318,0,0,0,.119,2.54l3.152,4.358-1.971,1.975-4.361-3.156a2.318,2.318,0,0,0-2.539-.116,15.829,15.829,0,0,1-4.152,1.722,2.315,2.315,0,0,0-1.714,1.878l-.851,5.311H63.866l-.851-5.31a2.313,2.313,0,0,0-1.714-1.878,15.836,15.836,0,0,1-4.149-1.722,2.317,2.317,0,0,0-2.542.115l-4.358,3.156-1.975-1.975,3.156-4.358a2.323,2.323,0,0,0,.116-2.54,15.862,15.862,0,0,1-1.723-4.152,2.315,2.315,0,0,0-1.879-1.713l-5.308-.851V113.6l5.312-.849a2.317,2.317,0,0,0,1.875-1.714,15.9,15.9,0,0,1,1.723-4.152,2.323,2.323,0,0,0-.116-2.54l-3.156-4.358,1.975-1.975,4.358,3.156a2.315,2.315,0,0,0,2.539.116A15.849,15.849,0,0,1,61.3,99.565a2.316,2.316,0,0,0,1.714-1.878l.851-5.311h2.792l.851,5.311a2.317,2.317,0,0,0,1.714,1.878,15.869,15.869,0,0,1,4.152,1.722,2.315,2.315,0,0,0,2.539-.116l4.361-3.156,1.971,1.975-3.152,4.358a2.318,2.318,0,0,0-.119,2.54,15.8,15.8,0,0,1,1.722,4.153,2.319,2.319,0,0,0,1.879,1.712l5.31.849Zm2.684-7.054-5.824-.933a20.476,20.476,0,0,0-1.046-2.525l3.458-4.777a2.314,2.314,0,0,0-.238-3l-4.766-4.768a2.317,2.317,0,0,0-3-.238L74.38,96.563a20.583,20.583,0,0,0-2.528-1.046l-.933-5.823a2.315,2.315,0,0,0-2.283-1.95H61.892a2.316,2.316,0,0,0-2.286,1.95l-.933,5.823a20.608,20.608,0,0,0-2.525,1.046l-4.777-3.458a2.316,2.316,0,0,0-3,.238l-4.767,4.768a2.313,2.313,0,0,0-.238,3l3.457,4.777a20.881,20.881,0,0,0-1.045,2.525l-5.822.933a2.313,2.313,0,0,0-1.952,2.286v6.743a2.316,2.316,0,0,0,1.952,2.287l5.822.931a20.784,20.784,0,0,0,1.045,2.525l-3.457,4.777a2.313,2.313,0,0,0,.238,3l4.767,4.768a2.316,2.316,0,0,0,3,.239l4.777-3.459a20.345,20.345,0,0,0,2.525,1.047l.933,5.822a2.314,2.314,0,0,0,2.286,1.95h6.744a2.314,2.314,0,0,0,2.283-1.95l.933-5.823a20.386,20.386,0,0,0,2.528-1.047l4.776,3.461a2.316,2.316,0,0,0,3-.239l4.766-4.768a2.314,2.314,0,0,0,.238-3L83.7,124.114a19.946,19.946,0,0,0,1.046-2.525l5.824-.931a2.316,2.316,0,0,0,1.949-2.287v-6.743a2.313,2.313,0,0,0-1.949-2.286Zm-25.306,13.3A7.646,7.646,0,1,0,57.616,115,7.654,7.654,0,0,0,65.262,122.645Zm0-19.924A12.278,12.278,0,1,0,77.54,115,12.294,12.294,0,0,0,65.262,102.721Zm72.574-79.5h3.223a5.729,5.729,0,0,1,5.722,5.722V108.3H132.118V28.944a5.725,5.725,0,0,1,5.718-5.722Zm-4.022,89.712h11.274l-5.64,9.76Zm7.245-94.345h-3.223a10.367,10.367,0,0,0-10.351,10.356v81.673a2.3,2.3,0,0,0,.311,1.158l9.643,16.709a2.319,2.319,0,0,0,4.015,0l9.642-16.709a2.3,2.3,0,0,0,.314-1.158V28.944a10.365,10.365,0,0,0-10.352-10.356ZM27.486,20.267A2.315,2.315,0,0,1,29.8,17.951H82.854a2.316,2.316,0,0,1,0,4.632H29.8a2.316,2.316,0,0,1-2.316-2.316ZM68.377,81.829a2.316,2.316,0,0,1,0-4.632H88.353a2.316,2.316,0,1,1,0,4.632Zm33-12.015a2.316,2.316,0,0,1-2.316,2.316H68.377a2.316,2.316,0,0,1,0-4.632H99.066A2.315,2.315,0,0,1,101.382,69.814ZM66.061,45.771a2.315,2.315,0,0,1,2.316-2.316H88.353a2.316,2.316,0,1,1,0,4.632H68.377a2.315,2.315,0,0,1-2.316-2.316Zm35.32-9.7a2.316,2.316,0,0,1-2.316,2.316H68.377a2.316,2.316,0,0,1,0-4.632H99.066A2.315,2.315,0,0,1,101.382,36.072ZM47.457,71.133,44.6,74.663l2.857,3.53a2.316,2.316,0,0,1-3.6,2.913l-2.234-2.76-2.233,2.76a2.316,2.316,0,0,1-3.6-2.913l2.854-3.53-2.854-3.53a2.316,2.316,0,1,1,3.6-2.913l2.233,2.76,2.234-2.76a2.316,2.316,0,0,1,3.6,2.913Zm-15.338,12.9a.138.138,0,0,0,.13.131H50.992a.139.139,0,0,0,.132-.131V65.291a.139.139,0,0,0-.132-.131H32.248a.139.139,0,0,0-.13.131Zm23.638,0A4.768,4.768,0,0,1,50.992,88.8H32.248a4.767,4.767,0,0,1-4.762-4.762V65.291a4.768,4.768,0,0,1,4.762-4.763H50.992a4.769,4.769,0,0,1,4.765,4.763ZM35,42.074A2.317,2.317,0,1,1,38.274,38.8l2.286,2.289,4.247-5.248a2.316,2.316,0,1,1,3.6,2.914L42.544,46a2.311,2.311,0,0,1-1.68.856c-.041,0-.08,0-.122,0a2.326,2.326,0,0,1-1.639-.679ZM32.119,31.549V50.294a.138.138,0,0,0,.13.131H50.992a.139.139,0,0,0,.132-.131V31.549a.139.139,0,0,0-.132-.131H32.248a.138.138,0,0,0-.13.131Zm.13,23.508H50.992a4.768,4.768,0,0,0,4.765-4.762V31.549a4.769,4.769,0,0,0-4.765-4.763H32.248a4.768,4.768,0,0,0-4.762,4.763V50.294a4.767,4.767,0,0,0,4.762,4.762ZM12.182,143.6H118.345V22.583H102.708a2.317,2.317,0,0,1-2.316-2.316V4.631H12.182ZM105.024,7.907,115.067,17.95H105.024Zm-.677-7.23A2.318,2.318,0,0,0,102.708,0H9.866A2.315,2.315,0,0,0,7.55,2.316v143.6a2.315,2.315,0,0,0,2.316,2.316h110.8a2.317,2.317,0,0,0,2.316-2.316V20.267a2.317,2.317,0,0,0-.68-1.638Z" transform="translate(0 0)" fill-rule="evenodd"/>
    </g>
  </g>
</svg>
