<svg xmlns="http://www.w3.org/2000/svg" xmlns:xlink="http://www.w3.org/1999/xlink" width="190" height="178" viewBox="0 0 190 178">
  <defs>
    <clipPath id="clip-path">
      <rect id="Rectangle_381035" data-name="Rectangle 381035" width="190" height="178" transform="translate(1125 3424)" fill="#fff" stroke="#707070" stroke-width="1"/>
    </clipPath>
  </defs>
  <g id="Mask_Group_454" data-name="Mask Group 454" transform="translate(-1125 -3424)" clip-path="url(#clip-path)">
    <g id="Group_1078325" data-name="Group 1078325" transform="translate(1144.634 3432.847)">
      <g id="Group_1078308" data-name="Group 1078308" transform="translate(119.444 2.351)">
        <path id="Path_830913" data-name="Path 830913" d="M405.268,21.9l-2.831-10.862A4.712,4.712,0,0,0,394.546,8.9L382.408,21.033a4.711,4.711,0,0,0-1.21,4.587l4.406,15.944Z" transform="translate(-381.028 -7.512)" fill="#7816c2"/>
      </g>
      <g id="Group_1078309" data-name="Group 1078309" transform="translate(124.021 16.739)">
        <path id="Path_830914" data-name="Path 830914" d="M415.318,53.493l10.862,2.831a4.712,4.712,0,0,1,2.143,7.891L416.186,76.353a4.711,4.711,0,0,1-4.587,1.21l-15.944-4.407Z" transform="translate(-395.655 -53.493)" fill="#7816c2"/>
      </g>
      <g id="Group_1078310" data-name="Group 1078310" transform="translate(133.752 18.485)">
        <path id="Path_830915" data-name="Path 830915" d="M449.688,68.048,437.55,80.186a4.71,4.71,0,0,1-4.587,1.211l-6.211-1.715a4.906,4.906,0,0,0,3.627-1.433l12.639-12.636a4.908,4.908,0,0,0,.363-6.54l4.165,1.086a4.71,4.71,0,0,1,2.143,7.889Z" transform="translate(-426.751 -59.073)" fill="#444"/>
      </g>
      <g id="Group_1078311" data-name="Group 1078311" transform="translate(2.657 23.368)">
        <circle id="Ellipse_5948" data-name="Ellipse 5948" cx="67.296" cy="67.296" r="67.296" fill="#ee6161"/>
      </g>
      <g id="Group_1078312" data-name="Group 1078312" transform="translate(27.506 34.832)">
        <path id="Path_830916" data-name="Path 830916" d="M196.965,167.144a67.3,67.3,0,0,1-109.744,52.22,67.3,67.3,0,0,0,80.032-108.051,67.232,67.232,0,0,1,29.712,55.831Z" transform="translate(-87.221 -111.313)" fill="#e94444"/>
      </g>
      <g id="Group_1078313" data-name="Group 1078313" transform="translate(20.587 41.298)">
        <circle id="Ellipse_5949" data-name="Ellipse 5949" cx="49.366" cy="49.366" r="49.366" fill="#f9f7f8"/>
      </g>
      <g id="Group_1078314" data-name="Group 1078314" transform="translate(39.572 48.313)">
        <path id="Path_830917" data-name="Path 830917" d="M205.528,196.743a49.368,49.368,0,0,1-79.747,38.911,49.371,49.371,0,0,0,55.762-81.262,49.348,49.348,0,0,1,23.985,42.35Z" transform="translate(-125.781 -154.393)" fill="#efedef"/>
      </g>
      <g id="Group_1078315" data-name="Group 1078315" transform="translate(38.609 59.32)">
        <circle id="Ellipse_5950" data-name="Ellipse 5950" cx="31.344" cy="31.344" r="31.344" fill="#ee6161"/>
      </g>
      <g id="Group_1078316" data-name="Group 1078316" transform="translate(49.639 62.885)">
        <path id="Path_830918" data-name="Path 830918" d="M209.608,228.741a31.341,31.341,0,0,1-51.657,23.869,31.346,31.346,0,0,0,34.84-51.647,31.327,31.327,0,0,1,16.816,27.778Z" transform="translate(-157.951 -200.963)" fill="#e94444"/>
      </g>
      <g id="Group_1078317" data-name="Group 1078317" transform="translate(55.722 76.434)">
        <circle id="Ellipse_5951" data-name="Ellipse 5951" cx="14.231" cy="14.231" r="14.231" fill="#f9f7f8"/>
      </g>
      <g id="Group_1078318" data-name="Group 1078318" transform="translate(58.817 77.78)">
        <path id="Path_830919" data-name="Path 830919" d="M212.646,261.446a14.229,14.229,0,0,1-25.365,8.859,14.229,14.229,0,0,0,17.179-21.742A14.228,14.228,0,0,1,212.646,261.446Z" transform="translate(-187.281 -248.563)" fill="#efedef"/>
      </g>
      <g id="Group_1078319" data-name="Group 1078319" transform="translate(2.657 113.87)">
        <circle id="Ellipse_5952" data-name="Ellipse 5952" cx="22.045" cy="22.045" r="22.045" fill="#c1e29a"/>
      </g>
      <g id="Group_1078320" data-name="Group 1078320" transform="translate(10.63 115.813)">
        <path id="Path_830920" data-name="Path 830920" d="M69.408,390.2a22.048,22.048,0,0,1-36.117,16.973A22.05,22.05,0,0,0,56.428,370.1,22.048,22.048,0,0,1,69.408,390.2Z" transform="translate(-33.291 -370.103)" fill="#09a76d"/>
      </g>
      <g id="Group_1078324" data-name="Group 1078324" transform="translate(0.31 0)">
        <g id="Group_1078321" data-name="Group 1078321" transform="translate(11.612 125.857)">
          <path id="Path_830921" data-name="Path 830921" d="M61.61,403.329a4.252,4.252,0,0,0-6.008.242l-7.324,7.939a.8.8,0,0,1-1.171,0l-2.291-2.483a4.262,4.262,0,0,0-6.28,5.765l5.365,5.873a5.08,5.08,0,0,0,7.485.018l10.467-11.346A4.252,4.252,0,0,0,61.61,403.329Z" transform="translate(-37.42 -402.202)" fill="#f9f7f8"/>
        </g>
        <g id="Group_1078322" data-name="Group 1078322" transform="translate(17.755 125.858)">
          <path id="Path_830922" data-name="Path 830922" d="M75.341,409.34,64.874,420.686a5.082,5.082,0,0,1-7.485-.019l-.338-.369a5.055,5.055,0,0,0,3.708-1.637l10.467-11.346a4.247,4.247,0,0,0,.513-5.082,4.251,4.251,0,0,1,3.6,7.106Z" transform="translate(-57.051 -402.206)" fill="#efedef"/>
        </g>
        <g id="Group_1078323" data-name="Group 1078323">
          <path id="Path_830923" data-name="Path 830923" d="M160.169,22.279a6.983,6.983,0,0,0-5.031-4.98l-9.53-2.484-2.484-9.53A7.059,7.059,0,0,0,131.3,2.075L119.165,14.212a7.07,7.07,0,0,0-1.812,6.872l4.033,14.592-4,4a69.774,69.774,0,0,0-16.089-11.221,2.347,2.347,0,1,0-2.115,4.19A65.079,65.079,0,0,1,114.064,43l-9.383,9.383a51.7,51.7,0,0,0-82,59.234,24.253,24.253,0,0,0-12.409,4.653,64.981,64.981,0,0,1,79-87.632,2.347,2.347,0,0,0,1.394-4.482A69.7,69.7,0,0,0,6.577,119.612,24.388,24.388,0,0,0,1.6,143.754a2.347,2.347,0,1,0,4.445-1.507,19.717,19.717,0,1,1,5.342,8.183,2.347,2.347,0,0,0-3.174,3.458A24.365,24.365,0,0,0,41,154.04,69.642,69.642,0,0,0,120.711,42.988l3.969-3.969,14.659,4.052a7.067,7.067,0,0,0,6.872-1.812L158.349,29.12a6.982,6.982,0,0,0,1.82-6.841ZM27.93,111.744A47,47,0,0,1,101.358,55.7L91.92,65.141a33.749,33.749,0,1,0,3.335,3.3l9.435-9.435a47,47,0,0,1-55.817,73.672A24.435,24.435,0,0,0,27.93,111.744ZM67.885,92.5a2.346,2.346,0,0,0,3.319,0l8.546-8.546a11.909,11.909,0,1,1-3.368-3.27l-8.5,8.5a2.347,2.347,0,0,0,0,3.319Zm11.87-15.189a16.611,16.611,0,1,0,3.352,3.286l8.823-8.823a29.046,29.046,0,1,1-3.339-3.3ZM124.989,56.16a64.943,64.943,0,0,1-80.637,94.185A24.255,24.255,0,0,0,49,137.934,51.688,51.688,0,0,0,108.009,55.69l9.381-9.381A65.289,65.289,0,0,1,124.989,56.16Zm-3.112-36.326a2.369,2.369,0,0,1,.607-2.3L134.621,5.394a2.274,2.274,0,0,1,1.647-.7,2.491,2.491,0,0,1,.646.085,2.322,2.322,0,0,1,1.668,1.686l2.492,9.561-6.054,6.054a2.344,2.344,0,0,0-.275.232L125.2,31.86ZM155.029,25.8,142.892,37.939a2.367,2.367,0,0,1-2.3.607l-12.061-3.334,15.864-15.864,9.561,2.492a2.365,2.365,0,0,1,1.076,3.961Z" transform="translate(-0.31 0)"/>
          <path id="Path_830924" data-name="Path 830924" d="M37.027,417.1a7.446,7.446,0,0,0,5.465,2.418h.018a7.446,7.446,0,0,0,5.459-2.391l10.467-11.346a6.6,6.6,0,0,0-9.7-8.949l-6.185,6.7L41.4,402.291a6.609,6.609,0,0,0-9.737,8.939Zm-1.784-11.739a1.917,1.917,0,0,1,2.707.109l2.291,2.484a3.144,3.144,0,0,0,4.621,0l7.324-7.939a1.9,1.9,0,1,1,2.8,2.583L44.519,413.946a2.7,2.7,0,0,1-2.009.88H42.5a2.7,2.7,0,0,1-2.011-.89l-5.365-5.873a1.92,1.92,0,0,1,.116-2.7Z" transform="translate(-20.667 -271.2)"/>
        </g>
      </g>
    </g>
  </g>
</svg>
