<svg xmlns="http://www.w3.org/2000/svg" xmlns:xlink="http://www.w3.org/1999/xlink" width="190" height="178" viewBox="0 0 190 178">
  <defs>
    <clipPath id="clip-path">
      <rect id="Rectangle_381036" data-name="Rectangle 381036" width="190" height="178" transform="translate(1125 3424)" fill="#fff" stroke="#707070" stroke-width="1"/>
    </clipPath>
  </defs>
  <g id="Mask_Group_455" data-name="Mask Group 455" transform="translate(-1125 -3424)" clip-path="url(#clip-path)">
    <g id="Group_1078332" data-name="Group 1078332" transform="translate(1150.079 3443.083)">
      <g id="Group_1078331" data-name="Group 1078331" transform="translate(3.167 3.161)">
        <g id="Group_1078327" data-name="Group 1078327">
          <path id="Path_830925" data-name="Path 830925" d="M12.513,9H68.188A3.52,3.52,0,0,1,71.7,12.513V68.188A3.52,3.52,0,0,1,68.188,71.7H12.513A3.52,3.52,0,0,1,9,68.188V12.513A3.52,3.52,0,0,1,12.513,9Z" transform="translate(-9 -9)" fill="#c1e29a" fill-rule="evenodd"/>
          <g id="Group_1078326" data-name="Group 1078326" transform="translate(10.056 5.999)">
            <path id="Path_830926" data-name="Path 830926" d="M96.241,63.905c8.313,28.4-4.094,21.747-3.842,36.99,0,.255-15.009,1.364-20.353,1.934C71.03,102.937,55.737,74.574,61.73,73Z" transform="translate(-56.522 -55.065)" fill="#ffd6bd" fill-rule="evenodd"/>
            <path id="Path_830927" data-name="Path 830927" d="M85.843,33.47a4.292,4.292,0,0,1,4.279,4.279V35.474a4.279,4.279,0,1,1,8.559,0v1.915a3.928,3.928,0,1,1,7.856,0v1.932a3.928,3.928,0,1,1,7.856,0v6.322a3.928,3.928,0,1,1-7.856,0,3.928,3.928,0,0,1-7.856,0v-.351a4.279,4.279,0,1,1-8.559,0v-.173a4.279,4.279,0,1,1-8.559,0v-7.37a4.292,4.292,0,0,1,4.279-4.28Z" transform="translate(-72.008 -31.195)" fill="#f9c6aa" fill-rule="evenodd"/>
            <path id="Path_830928" data-name="Path 830928" d="M117.02,35.635a3.9,3.9,0,0,1,1.351-.241,3.94,3.94,0,0,1,3.928,3.928v6.322a3.94,3.94,0,0,1-3.928,3.928,3.89,3.89,0,0,1-1.351-.241,3.943,3.943,0,0,0,2.577-3.687V39.322A3.943,3.943,0,0,0,117.02,35.635Zm-16.063-4.219a4.242,4.242,0,0,1,1.352-.22,4.293,4.293,0,0,1,4.279,4.279v9.818a4.292,4.292,0,0,1-4.279,4.279,4.24,4.24,0,0,1-1.351-.22,4.3,4.3,0,0,0,2.928-4.059V35.474a4.3,4.3,0,0,0-2.928-4.059ZM93.749,33.47a4.292,4.292,0,0,1,4.279,4.279v7.37A4.292,4.292,0,0,1,93.749,49.4a4.249,4.249,0,0,1-1.351-.22,4.3,4.3,0,0,0,2.928-4.059v-7.37A4.3,4.3,0,0,0,92.4,33.69,4.246,4.246,0,0,1,93.749,33.47Zm15.415.233a3.9,3.9,0,0,1,1.351-.241,3.94,3.94,0,0,1,3.928,3.928v8.254a3.94,3.94,0,0,1-3.928,3.928,3.889,3.889,0,0,1-1.351-.241,3.943,3.943,0,0,0,2.577-3.687V37.389A3.943,3.943,0,0,0,109.164,33.7Z" transform="translate(-79.914 -31.195)" fill="#eaab92" fill-rule="evenodd"/>
            <path id="Path_830929" data-name="Path 830929" d="M74.181,102.945c-.008-.36-16.932,1.639-16.974,1.283-1.389-11.661-20.488-20.991-4.931-35.582a5.313,5.313,0,0,1,3.767-1.49H72.111a.731.731,0,0,1,.731.8,8.554,8.554,0,0,1-8.487,7.721H60.341c-3.806,0-5.307,3.885-2.5,6.166,2.61,2.124,9.914-2.733,13.642,7.087Z" transform="translate(-46.206 -57.437)" fill="#ffd6bd" fill-rule="evenodd"/>
            <path id="Path_830930" data-name="Path 830930" d="M74.181,103.122c-.008-.36-16.932,1.639-16.974,1.283-1.042-8.747-12.05-16.184-10.918-25.513.941,8.1,9.979,14.924,10.918,22.81.038.318,13.583-1.248,16.445-1.324ZM64.356,73.154c-1.69,0-3.381-.016-5.072-.016a4.92,4.92,0,0,0-3.429,8.494c2.193,2.075,4.415,1.962,6.623,1.85,2.407-.122,4.792-.243,6.681,4.736a1.348,1.348,0,1,0,2.523-.95c-2.588-6.819-5.944-6.649-9.331-6.478-1.643.083-3.3.167-4.649-1.111-1.966-1.859.816-3.822,2.639-3.822h4.015a8.555,8.555,0,0,0,8.487-7.721.731.731,0,0,0-.426-.738A8.559,8.559,0,0,1,64.356,73.154Z" transform="translate(-46.207 -57.614)" fill="#f9c6aa" fill-rule="evenodd"/>
            <path id="Path_830931" data-name="Path 830931" d="M70.814,189.7H101.2a1.293,1.293,0,0,1,1.289,1.289v5.289a1.292,1.292,0,0,1-1.289,1.289H70.814a1.292,1.292,0,0,1-1.289-1.289v-5.289A1.292,1.292,0,0,1,70.814,189.7Z" transform="translate(-63.223 -146.86)" fill="#b4d2d7" fill-rule="evenodd"/>
          </g>
        </g>
        <g id="Group_1078328" data-name="Group 1078328" transform="translate(70.809)">
          <path id="Path_830932" data-name="Path 830932" d="M333.7,68.188V12.513A3.52,3.52,0,0,0,330.188,9H274.513A3.52,3.52,0,0,0,271,12.513V68.188a3.52,3.52,0,0,0,3.513,3.513h55.674A3.52,3.52,0,0,0,333.7,68.188Z" transform="translate(-271 -9)" fill="#ffda2d" fill-rule="evenodd"/>
          <path id="Path_830933" data-name="Path 830933" d="M333.893,57.121l-.926-18.192,6.692-3.513h18.881a3.487,3.487,0,0,1,0,6.975h1.748a3.5,3.5,0,0,1,0,7h1.749a3.5,3.5,0,0,1,0,7h1.749a3.5,3.5,0,0,1,0,7l-12.451-.063c1.327,5.169,3.479,12.009,3.682,14.191.467,5.033-3.7,8.595-6.079,4.639Z" transform="translate(-316.22 -28.277)" fill="#ffd6bd" fill-rule="evenodd"/>
          <path id="Path_830934" data-name="Path 830934" d="M315.288,35.416h4.928a1.2,1.2,0,0,1,1.192,1.192v24.38a1.2,1.2,0,0,1-1.192,1.192h-4.928a1.2,1.2,0,0,1-1.192-1.192V36.608a1.2,1.2,0,0,1,1.192-1.192Z" transform="translate(-302.449 -28.277)" fill="#64b5f6" fill-rule="evenodd"/>
        </g>
        <g id="Group_1078329" data-name="Group 1078329" transform="translate(70.809 70.809)">
          <path id="Path_830935" data-name="Path 830935" d="M274.513,333.7h55.674a3.52,3.52,0,0,0,3.513-3.513V274.513A3.52,3.52,0,0,0,330.188,271H274.513A3.52,3.52,0,0,0,271,274.513v55.674A3.52,3.52,0,0,0,274.513,333.7Z" transform="translate(-271 -271)" fill="#fc685b" fill-rule="evenodd"/>
          <path id="Path_830936" data-name="Path 830936" d="M362.662,326.115h5.306a1.938,1.938,0,0,1,1.933,1.933v14.414a1.939,1.939,0,0,1-1.933,1.933h-5.306a1.939,1.939,0,0,1-1.933-1.933V328.048A1.938,1.938,0,0,1,362.662,326.115Z" transform="translate(-336.478 -311.219)" fill="#8d9ca8" fill-rule="evenodd"/>
          <circle id="Ellipse_5953" data-name="Ellipse 5953" cx="17.342" cy="17.342" r="17.342" transform="translate(10.862 54.673) rotate(-88.108)" fill="#596c76"/>
        </g>
        <g id="Group_1078330" data-name="Group 1078330" transform="translate(0 70.809)">
          <path id="Path_830937" data-name="Path 830937" d="M71.7,274.513v55.674a3.52,3.52,0,0,1-3.513,3.513H12.513A3.52,3.52,0,0,1,9,330.188V274.513A3.52,3.52,0,0,1,12.513,271H68.188A3.52,3.52,0,0,1,71.7,274.513Z" transform="translate(-9 -271)" fill="#64b5f6" fill-rule="evenodd"/>
          <path id="Path_830938" data-name="Path 830938" d="M62.529,330.344l22.289-22.38.506-7.665-7.634.508.2,5.2-5.176-.2.2,5.2-5.176-.2.2,5.2-5.176-.2-7.367,7.4h0a12.4,12.4,0,1,0,7.939,11.581,12.393,12.393,0,0,0-.811-4.425Z" transform="translate(-30.636 -292.381)" fill="#ffda2d" fill-rule="evenodd"/>
          <ellipse id="Ellipse_5954" data-name="Ellipse 5954" cx="4.763" cy="4.782" rx="4.763" ry="4.782" transform="translate(15.596 37.606)" fill="#eff4f7"/>
        </g>
      </g>
      <path id="Path_830939" data-name="Path 830939" d="M117.831,89.033a2.165,2.165,0,0,1,.8,2.953L117.461,94a2.147,2.147,0,0,1-1.874,1.082,2.113,2.113,0,0,1-1.071-.291,2.161,2.161,0,0,1-.79-2.953l1.16-2.01a2.151,2.151,0,0,1,2.945-.791Zm6.6,2.8-1.16-2.012a2.164,2.164,0,0,0-3.747,2.163L120.686,94a2.163,2.163,0,0,0,3.747-2.163ZM119.921,81.1l1.16-2.011a2.163,2.163,0,1,1,3.747,2.162l-1.16,2.011a2.163,2.163,0,1,1-3.747-2.162Zm8.285,5.784a2.163,2.163,0,0,1-2.167,2.162h-2.32a2.162,2.162,0,0,1,0-4.324h2.32a2.163,2.163,0,0,1,2.167,2.162Zm-23.238,14.139a2.162,2.162,0,0,1-2.154,2.163,8.7,8.7,0,0,0-8.693,8.692,2.167,2.167,0,0,1-4.334,0,13.034,13.034,0,0,1,13.027-13.017,2.161,2.161,0,0,1,2.154,2.162Zm-2.154,26.035a15.18,15.18,0,1,0-15.181-15.18A15.2,15.2,0,0,0,102.815,127.056ZM100.38,91.029h4.856v1.5a19.016,19.016,0,0,0-4.856,0Zm9.178,2.549V90.8a4.1,4.1,0,0,0-4.092-4.1h-.5V83.623h8.668a1.758,1.758,0,0,1,1.593.923l1.976,3.417a2.163,2.163,0,1,0,3.747-2.162l-1.976-3.417a6.109,6.109,0,0,0-5.341-3.085h-8.821a4.174,4.174,0,0,0-4.168,4.166V86.7h-.5a4.1,4.1,0,0,0-4.092,4.1v2.779a19.509,19.509,0,1,0,13.5,0Zm-86.041,25.4a2.62,2.62,0,1,1,2.6-2.621A2.617,2.617,0,0,1,23.517,118.979Zm0-9.565a6.944,6.944,0,1,0,6.934,6.944A6.944,6.944,0,0,0,23.517,109.414ZM55.244,88.6l.293-4.393-3.072.2.115,3.1a2.151,2.151,0,0,1-2.243,2.243l-2.843-.111.115,2.862a2.17,2.17,0,0,1-2.243,2.243l-2.843-.111.115,2.862A2.132,2.132,0,0,1,42,99.112a2.165,2.165,0,0,1-1.619.631l-4.219-.166-6.7,6.725a2.251,2.251,0,0,1-.561.409,2.17,2.17,0,0,1-1.746.084,10.091,10.091,0,0,0-3.633-.671,10.2,10.2,0,1,0,9.522,6.579,2.156,2.156,0,0,1,.484-2.3Zm2.46-8.872-7.623.509a2.173,2.173,0,0,0-2.027,2.242l.115,2.86-2.843-.111a2.17,2.17,0,0,0-2.243,2.243l.115,2.862-2.843-.111a2.149,2.149,0,0,0-2.243,2.243l.115,2.862-2.843-.112a2.182,2.182,0,0,0-1.619.635l-6.424,6.456a14.564,14.564,0,1,0,10.695,14.048,14.882,14.882,0,0,0-.51-3.834L58.877,91.08A2.175,2.175,0,0,0,59.5,89.7l.51-7.666a2.158,2.158,0,0,0-2.307-2.3Zm6-17.383A1.357,1.357,0,0,1,62.357,63.7H6.678a1.357,1.357,0,0,1-1.351-1.352V6.674A1.357,1.357,0,0,1,6.678,5.323H62.357a1.357,1.357,0,0,1,1.351,1.351ZM62.357,1H6.678A5.675,5.675,0,0,0,1.006,6.674V62.349a5.676,5.676,0,0,0,5.672,5.676H62.357a5.684,5.684,0,0,0,5.672-5.676V6.674A5.683,5.683,0,0,0,62.357,1Zm59.2,35.1L109.1,36.038a2.154,2.154,0,0,0-2.1,2.7c.484,1.868,1.058,3.932,1.619,5.931a77.017,77.017,0,0,1,2,7.922,4.79,4.79,0,0,1-.969,3.616,1.036,1.036,0,0,1-.51.354c-.051-.009-.293-.143-.586-.646L95.091,33.545V13.959l2.855-1.5h18.343a1.325,1.325,0,1,1,0,2.65h-6.552a2.163,2.163,0,0,0,0,4.325h8.311a1.336,1.336,0,0,1,0,2.672h-6.565a2.162,2.162,0,0,0,0,4.324h8.311a1.336,1.336,0,0,1,0,2.672h-6.552a2.162,2.162,0,1,0,0,4.324h8.3a1.336,1.336,0,0,1,.012,2.672ZM87.787,34.9V12.462h2.983V34.9Zm37.106-4.693a5.773,5.773,0,0,0,.548-2.44,5.643,5.643,0,0,0-2.307-4.556,5.63,5.63,0,0,0-1.746-6.994,5.562,5.562,0,0,0,.561-2.431,5.66,5.66,0,0,0-5.66-5.651H97.41a2.21,2.21,0,0,0-1.007.249L94.389,9.444a3.342,3.342,0,0,0-2.651-1.307h-4.92a3.358,3.358,0,0,0-3.352,3.355V35.872a3.358,3.358,0,0,0,3.352,3.355h4.92a3.274,3.274,0,0,0,1.5-.362l11.6,19.278a5.006,5.006,0,0,0,4.309,2.735,4.427,4.427,0,0,0,1.377-.219c2.868-.941,4.754-4.581,4.4-8.469a70.781,70.781,0,0,0-2.142-8.693c-.293-1.036-.586-2.09-.879-3.122l9.637.048a5.663,5.663,0,0,0,3.353-10.215Zm9.624,32.14V6.674a1.357,1.357,0,0,0-1.351-1.351H77.487a1.357,1.357,0,0,0-1.351,1.351V62.348A1.357,1.357,0,0,0,77.487,63.7h55.678A1.357,1.357,0,0,0,134.516,62.348ZM133.165,1H77.487a5.675,5.675,0,0,0-5.672,5.675V62.349a5.676,5.676,0,0,0,5.672,5.676h55.678a5.684,5.684,0,0,0,5.672-5.676V6.674A5.683,5.683,0,0,0,133.165,1Zm1.351,132.159V77.484a1.356,1.356,0,0,0-1.351-1.351H77.487a1.356,1.356,0,0,0-1.351,1.351v55.675a1.356,1.356,0,0,0,1.351,1.351h55.678A1.356,1.356,0,0,0,134.516,133.158Zm-1.351-61.351H77.487a5.675,5.675,0,0,0-5.672,5.676v55.675a5.676,5.676,0,0,0,5.672,5.676h55.678a5.684,5.684,0,0,0,5.672-5.676V77.484A5.683,5.683,0,0,0,133.165,71.808ZM63.708,133.158V77.484a1.356,1.356,0,0,0-1.351-1.351H6.678a1.356,1.356,0,0,0-1.351,1.351v55.675a1.356,1.356,0,0,0,1.351,1.351H62.357A1.356,1.356,0,0,0,63.708,133.158ZM62.357,71.808H6.678a5.675,5.675,0,0,0-5.672,5.676v55.675a5.676,5.676,0,0,0,5.672,5.676H62.357a5.684,5.684,0,0,0,5.672-5.676V77.484A5.683,5.683,0,0,0,62.357,71.808ZM50.693,42.732c1.976-2.962,3.7-5.569,2.639-13.266a6.059,6.059,0,0,1-5.583-1.208,6.077,6.077,0,0,1-7.967-.1A6.4,6.4,0,0,1,35.614,29.7a6.463,6.463,0,0,1-2.1-.358,10.427,10.427,0,0,1-2.142.224H27.354a1.619,1.619,0,0,0-1.415,1.021,1.194,1.194,0,0,0,.4,1.411c1.058,1,2.116.991,4.041.893,3.1-.158,7.342-.372,10.134,7a2.161,2.161,0,1,1-4.041,1.535c-1.682-4.427-3.161-4.352-5.876-4.214-2.014.1-4.78.242-7.227-2.07a5.527,5.527,0,0,1-1.44-6.152,5.921,5.921,0,0,1,5.43-3.746h4.015a6.416,6.416,0,0,0,5.978-4.2H23.058a3.184,3.184,0,0,0-2.295.905c-8.987,8.438-5.086,14.231-.153,21.564a56.563,56.563,0,0,1,3.875,6.325H47.392a19.37,19.37,0,0,1,3.3-7.1Zm-.37,14.97V54.158H21.682V57.7ZM27.061,13.6a2.114,2.114,0,0,0-2.116,2.116v1h4.232v-1A2.123,2.123,0,0,0,27.061,13.6Zm6.437-.158v3.277H37.73V13.439a2.116,2.116,0,1,0-4.232,0Zm10.325.149a1.768,1.768,0,0,0-1.772,1.765v8.255a1.766,1.766,0,0,0,3.531,0V15.353A1.765,1.765,0,0,0,43.823,13.588Zm7.852,1.932a1.765,1.765,0,0,0-1.759,1.765v6.323a1.766,1.766,0,0,0,3.531,0V17.286A1.767,1.767,0,0,0,51.675,15.52Zm5.507,10.693a6.14,6.14,0,0,0,.586-2.605V17.286A6.091,6.091,0,0,0,48.832,11.9a6.09,6.09,0,0,0-7.814-1.955,6.435,6.435,0,0,0-10.886.112,6.388,6.388,0,0,0-3.072-.785,6.453,6.453,0,0,0-6.45,6.441V17.1a7.582,7.582,0,0,0-2.8,1.693C6.13,29.748,12.172,38.718,17.029,45.925c.943,1.4,1.861,2.761,2.639,4.106a3.456,3.456,0,0,0-2.307,3.254v5.29a3.452,3.452,0,0,0,3.454,3.45H51.2a3.449,3.449,0,0,0,3.442-3.45v-5.29a3.454,3.454,0,0,0-2.8-3.389,16.346,16.346,0,0,1,2.448-4.766C56.646,41.6,59.3,37.6,57.181,26.214Z" transform="translate(0 0)" fill-rule="evenodd"/>
    </g>
  </g>
</svg>
