<svg xmlns="http://www.w3.org/2000/svg" xmlns:xlink="http://www.w3.org/1999/xlink" width="190" height="178" viewBox="0 0 190 178">
  <defs>
    <clipPath id="clip-path">
      <rect id="Rectangle_381037" data-name="Rectangle 381037" width="190" height="178" transform="translate(1125 3424)" fill="#fff" stroke="#707070" stroke-width="1"/>
    </clipPath>
  </defs>
  <g id="Mask_Group_456" data-name="Mask Group 456" transform="translate(-1125 -3424)" clip-path="url(#clip-path)">
    <g id="Artboard51" transform="translate(1126.686 3404.068)">
      <g id="Group_1078345" data-name="Group 1078345" transform="translate(14.285 37.536)">
        <g id="Group_1078344" data-name="Group 1078344" transform="translate(2.575 2.364)">
          <g id="Group_1078337" data-name="Group 1078337" transform="translate(0 48.816)">
            <g id="Group_1078333" data-name="Group 1078333" transform="translate(50.564 15.939)">
              <path id="Path_830940" data-name="Path 830940" d="M197.085,245.252a3.283,3.283,0,0,0-3.283-3.283H179.423a3.283,3.283,0,0,0-3.283,3.283v60.5a3.283,3.283,0,0,0,3.283,3.283H193.8a3.283,3.283,0,0,0,3.283-3.283Z" transform="translate(-176.14 -241.969)" fill="#7816c2" fill-rule="evenodd"/>
              <path id="Path_830941" data-name="Path 830941" d="M218.936,309.037a3.283,3.283,0,0,0,3.283-3.283v-60.5a3.283,3.283,0,0,0-3.283-3.283h3.611a3.283,3.283,0,0,1,3.283,3.283v60.5a3.283,3.283,0,0,1-3.283,3.283Z" transform="translate(-204.886 -241.969)" fill="#7816c2" fill-rule="evenodd"/>
            </g>
            <g id="Group_1078334" data-name="Group 1078334" transform="translate(11.69 33.654)">
              <path id="Path_830942" data-name="Path 830942" d="M78.671,299.211a3.283,3.283,0,0,0-3.283-3.283H61.018a3.283,3.283,0,0,0-3.283,3.283V342a3.283,3.283,0,0,0,3.283,3.283h14.37A3.283,3.283,0,0,0,78.671,342Z" transform="translate(-57.735 -295.928)" fill="#ffae7e" fill-rule="evenodd"/>
              <path id="Path_830943" data-name="Path 830943" d="M100.5,345.28A3.283,3.283,0,0,0,103.787,342V299.211a3.283,3.283,0,0,0-3.283-3.283h3.611a3.283,3.283,0,0,1,3.283,3.283V342a3.283,3.283,0,0,1-3.283,3.283Z" transform="translate(-86.462 -295.928)" fill="#ffae7e" fill-rule="evenodd"/>
            </g>
            <g id="Group_1078335" data-name="Group 1078335" transform="translate(89.447)">
              <path id="Path_830944" data-name="Path 830944" d="M294.572,196.705a3.283,3.283,0,0,1,3.283-3.283h14.37a3.283,3.283,0,0,1,3.283,3.283v76.44a3.283,3.283,0,0,1-3.283,3.283h-14.37a3.283,3.283,0,0,1-3.283-3.283Z" transform="translate(-294.572 -193.422)" fill="#6cf5c2" fill-rule="evenodd"/>
              <path id="Path_830945" data-name="Path 830945" d="M337.34,193.422h3.611a3.283,3.283,0,0,1,3.283,3.283v76.44a3.283,3.283,0,0,1-3.283,3.283H337.34a3.283,3.283,0,0,0,3.283-3.283v-76.44A3.283,3.283,0,0,0,337.34,193.422Z" transform="translate(-323.299 -193.422)" fill="#00e499" fill-rule="evenodd"/>
            </g>
            <g id="Group_1078336" data-name="Group 1078336" transform="translate(0 80.811)">
              <path id="Path_830946" data-name="Path 830946" d="M22.128,445.178a2.3,2.3,0,0,0,2.3,2.3H141.9a2.3,2.3,0,0,0,2.3-2.3v-3.316a2.3,2.3,0,0,0-2.3-2.3H24.426a2.3,2.3,0,0,0-2.3,2.3Z" transform="translate(-22.128 -439.564)" fill="#a79ba7" fill-rule="evenodd"/>
              <path id="Path_830947" data-name="Path 830947" d="M22.128,451.614H144.2v1.658a2.3,2.3,0,0,1-2.3,2.3H24.426a2.3,2.3,0,0,1-2.3-2.3Z" transform="translate(-22.128 -447.658)" fill="#837683" fill-rule="evenodd"/>
            </g>
          </g>
          <g id="Group_1078341" data-name="Group 1078341" transform="translate(79.948 40.526)">
            <g id="Group_1078338" data-name="Group 1078338" transform="translate(42.441 52.029)">
              <path id="Path_830948" data-name="Path 830948" d="M401.322,326.645l8.59,14.381-6.544,3.909-8.459-14.156A30.25,30.25,0,0,0,401.322,326.645Z" transform="translate(-394.91 -326.645)" fill="#a79ba7" fill-rule="evenodd"/>
              <path id="Path_830949" data-name="Path 830949" d="M408.707,328.1q.971-.693,1.883-1.46l8.59,14.381-2.03,1.212Z" transform="translate(-404.177 -326.645)" fill="#837683" fill-rule="evenodd"/>
            </g>
            <g id="Group_1078339" data-name="Group 1078339">
              <path id="Path_830950" data-name="Path 830950" d="M295.859,168.172a30.219,30.219,0,1,1-30.219,30.219A30.217,30.217,0,0,1,295.859,168.172Z" transform="translate(-265.64 -168.172)" fill="#a79ba7" fill-rule="evenodd"/>
              <path id="Path_830951" data-name="Path 830951" d="M352.683,168.216q.815-.044,1.642-.044a30.219,30.219,0,1,1,0,60.438q-.826,0-1.642-.044a30.22,30.22,0,0,0,0-60.35Z" transform="translate(-324.106 -168.172)" fill="#837683" fill-rule="evenodd"/>
            </g>
            <g id="Group_1078340" data-name="Group 1078340" transform="translate(48.121 64.061)">
              <path id="Path_830952" data-name="Path 830952" d="M428.224,392.656l7.383-4.41a2.752,2.752,0,0,0,.956-3.766L424.7,364.627a2.76,2.76,0,0,0-3.768-.948l-7.384,4.41a2.744,2.744,0,0,0-.947,3.768l11.854,19.851A2.76,2.76,0,0,0,428.224,392.656Z" transform="translate(-412.211 -363.293)" fill="#f1ba84" fill-rule="evenodd"/>
              <path id="Path_830953" data-name="Path 830953" d="M441.869,392.883l5.566-3.324a2.752,2.752,0,0,0,.956-3.766L436.528,365.94a2.764,2.764,0,0,0-3.288-1.175l1.819-1.086a2.76,2.76,0,0,1,3.768.948l11.862,19.853a2.752,2.752,0,0,1-.956,3.766l-7.383,4.41A2.742,2.742,0,0,1,441.869,392.883Z" transform="translate(-426.336 -363.293)" fill="#e3a76f" fill-rule="evenodd"/>
            </g>
          </g>
          <g id="Group_1078342" data-name="Group 1078342" transform="translate(88.798 49.367)">
            <path id="Path_830954" data-name="Path 830954" d="M313.973,237.846A21.373,21.373,0,1,0,292.6,216.473a21.413,21.413,0,0,0,21.376,21.373Z" transform="translate(-292.597 -195.1)" fill="#ffc338" fill-rule="evenodd"/>
            <path id="Path_830955" data-name="Path 830955" d="M295.149,216.473a21.375,21.375,0,0,1,20.1-21.337c-.42-.023-.846-.036-1.273-.036a21.373,21.373,0,1,0,0,42.746c.426,0,.853-.013,1.273-.036a21.375,21.375,0,0,1-20.1-21.337Z" transform="translate(-292.597 -195.1)" fill="#f5b829" fill-rule="evenodd"/>
          </g>
          <g id="Group_1078343" data-name="Group 1078343" transform="translate(18.815)">
            <path id="Path_830956" data-name="Path 830956" d="M158.928,64.061a74.725,74.725,0,0,1-27.253,25.532c-17.543,9.791-36.733,12.042-52.238,7.575,11.843.1,23.775-2.591,36.637-9.768,11.666-6.5,25.259-19.374,32.118-30.538l-6.025-4.039a.732.732,0,0,1-.325-.731.719.719,0,0,1,.517-.613l20.725-6.7a.726.726,0,0,1,.65.089.737.737,0,0,1,.339.561l1.839,21.841a.748.748,0,0,1-.377.716.741.741,0,0,1-.8-.022Z" transform="translate(-79.437 -44.735)" fill="#6cf5c2" fill-rule="evenodd"/>
            <path id="Path_830957" data-name="Path 830957" d="M158.928,64.061a74.724,74.724,0,0,1-27.253,25.532c-17.543,9.791-36.733,12.043-52.238,7.575.177.008.354.008.532.008h.258c14.568,2.8,33.684-1.019,47.484-8.72s21.656-16.436,27.8-26.366ZM160.22,45.7l1.713,20.386,2.8,1.876a.763.763,0,0,0,1.181-.694l-1.839-21.841a.738.738,0,0,0-.339-.561.726.726,0,0,0-.65-.089Z" transform="translate(-79.437 -44.735)" fill="#00e499" fill-rule="evenodd"/>
          </g>
        </g>
        <path id="Path_830958" data-name="Path 830958" d="M129.921,167.163h9.064a2.627,2.627,0,0,1,2.626,2.626V177.7a2.627,2.627,0,0,1-2.626,2.626H16.912a2.626,2.626,0,0,1-2.626-2.626V169.79a2.626,2.626,0,0,1,2.626-2.626h9.064V122.632a2.627,2.627,0,0,1,2.626-2.627H49.538a2.627,2.627,0,0,1,2.627,2.627v44.531H64.849V104.917a2.627,2.627,0,0,1,2.627-2.627H88.421a2.627,2.627,0,0,1,2.627,2.627v62.247h12.684V134.019a32.843,32.843,0,1,1,46.143.543l4.543,7.607a5.4,5.4,0,0,1,5.307,2.564l0,0,11.861,19.85a5.383,5.383,0,0,1-1.859,7.369l0,0-7.381,4.409,0,0a5.393,5.393,0,0,1-7.363-1.843l-.007-.012-11.852-19.847a5.382,5.382,0,0,1,.243-5.895l-4.34-7.262a32.768,32.768,0,0,1-9.1,2.132Zm-98.692,0H46.911v-41.9H31.228Zm38.874,0H85.794v-59.62H70.1Zm38.883,0h15.683V143.67a33.091,33.091,0,0,1-15.683-5.34Zm36.779-29.241q-.977.675-2,1.278l3.881,6.495,2.034-1.215ZM19.538,175.075h116.82v-2.659H19.538ZM134.22,84.255a27.592,27.592,0,1,0,19.511,33.794A27.59,27.59,0,0,0,134.22,84.255Zm-.931,3.475A24,24,0,1,1,103.9,104.7,23.994,23.994,0,0,1,133.289,87.73Zm-1.36,5.074a18.742,18.742,0,1,0,13.253,22.954A18.742,18.742,0,0,0,131.929,92.8Zm-7.479,6.345v-.5a2.626,2.626,0,0,1,5.253,0v.471A8.316,8.316,0,0,1,135.2,104a2.626,2.626,0,1,1-4.842,2.036,3.6,3.6,0,0,0-4.733-1.746,2.027,2.027,0,0,0-1.489,1.929,1.621,1.621,0,0,0,1.094,1.366,8.379,8.379,0,0,0,2.29.659c3.753.614,7.8,2.412,8.345,6.874v0c.507,4.2-2.641,6.778-6.161,7.62v.419a2.626,2.626,0,1,1-5.253,0v-.458a8.232,8.232,0,0,1-6.134-5.955,2.626,2.626,0,1,1,5.1-1.269c.424,1.7,2.191,2.353,3.853,2.313a5.764,5.764,0,0,0,2.349-.532,1.488,1.488,0,0,0,1.034-1.507,2.1,2.1,0,0,0-1.429-1.631,10.248,10.248,0,0,0-2.55-.694h0c-3.7-.609-7.566-2.555-7.781-6.953v0a7.113,7.113,0,0,1,4.811-7.071q.368-.145.751-.258Zm35.2,72.708,7.383-4.41a.121.121,0,0,0,.05-.162l0,0-11.862-19.852a.121.121,0,0,0-.164-.042l0,0-7.384,4.41-.006,0a.11.11,0,0,0-.04.151l.007.012,11.851,19.846a.126.126,0,0,0,.166.045Zm-43.3-108.205A79.723,79.723,0,0,1,88.476,87.5h0c-18.9,9.957-39.58,12.2-56.284,7.659A2.626,2.626,0,0,1,32.9,90c11.921.1,23.933-2.477,36.883-9.3,10.985-5.79,23.663-16.84,30.946-26.945l-5.313-3.363a2.627,2.627,0,0,1,.555-4.7l23.418-8.01a2.626,2.626,0,0,1,3.46,2.191l2.774,24.606a2.627,2.627,0,0,1-4.016,2.513Zm.669-5.794,2.777,1.76L118,43.706l-15.139,5.178,2.985,1.889a2.626,2.626,0,0,1,.8,3.651C99.29,65.73,84.736,78.758,72.234,85.347a89.436,89.436,0,0,1-15.507,6.464,80.279,80.279,0,0,0,29.3-8.955,73.576,73.576,0,0,0,27.384-24.221,2.626,2.626,0,0,1,3.6-.779Z" transform="translate(-14.285 -37.536)" fill-rule="evenodd"/>
      </g>
    </g>
  </g>
</svg>
