<svg xmlns="http://www.w3.org/2000/svg" xmlns:xlink="http://www.w3.org/1999/xlink" width="400" height="214" viewBox="0 0 400 214">
  <defs>
    <clipPath id="clip-path">
      <rect id="Rectangle_380784" data-name="Rectangle 380784" width="400" height="214" rx="20" transform="translate(285 419)" fill="#fff" stroke="#707070" stroke-width="1"/>
    </clipPath>
    <clipPath id="clip-path-2">
      <rect id="Rectangle_380800" data-name="Rectangle 380800" width="374.917" height="245.176" fill="none"/>
    </clipPath>
    <clipPath id="clip-path-4">
      <rect id="Rectangle_380785" data-name="Rectangle 380785" width="4.114" height="2.603" fill="none"/>
    </clipPath>
    <clipPath id="clip-path-5">
      <rect id="Rectangle_380786" data-name="Rectangle 380786" width="0.06" height="2.233" fill="none"/>
    </clipPath>
    <clipPath id="clip-path-9">
      <rect id="Rectangle_380790" data-name="Rectangle 380790" width="16.631" height="21.018" fill="#74875c"/>
    </clipPath>
    <clipPath id="clip-path-10">
      <rect id="Rectangle_380791" data-name="Rectangle 380791" width="65.972" height="21.958" fill="none"/>
    </clipPath>
    <clipPath id="clip-path-11">
      <rect id="Rectangle_380792" data-name="Rectangle 380792" width="5.155" height="24.334" fill="none"/>
    </clipPath>
    <clipPath id="clip-path-12">
      <rect id="Rectangle_380793" data-name="Rectangle 380793" width="68.854" height="26.808" fill="none"/>
    </clipPath>
    <clipPath id="clip-path-13">
      <rect id="Rectangle_380794" data-name="Rectangle 380794" width="4.991" height="21.901" fill="none"/>
    </clipPath>
    <clipPath id="clip-path-14">
      <rect id="Rectangle_380795" data-name="Rectangle 380795" width="44.633" height="50.141" fill="none"/>
    </clipPath>
    <clipPath id="clip-path-15">
      <rect id="Rectangle_380796" data-name="Rectangle 380796" width="6.648" height="23.463" fill="none"/>
    </clipPath>
    <clipPath id="clip-path-16">
      <rect id="Rectangle_380797" data-name="Rectangle 380797" width="9.551" height="44.029" fill="none"/>
    </clipPath>
    <clipPath id="clip-path-17">
      <rect id="Rectangle_380798" data-name="Rectangle 380798" width="39.063" height="7.685" fill="none"/>
    </clipPath>
  </defs>
  <g id="Mask_Group_453" data-name="Mask Group 453" transform="translate(-285 -419)" clip-path="url(#clip-path)">
    <g id="Group_1077984" data-name="Group 1077984" transform="translate(302.083 419)">
      <g id="Group_1077983" data-name="Group 1077983" clip-path="url(#clip-path-2)">
        <g id="Group_1077949" data-name="Group 1077949">
          <g id="Group_1077948" data-name="Group 1077948" clip-path="url(#clip-path-2)">
            <path id="Path_830541" data-name="Path 830541" d="M355.529,97.939c-.923-2.084-1.131-4.391-1.742-6.58a4.355,4.355,0,0,0-1.979-2.947,17.578,17.578,0,0,0-2.367-.536c-2.784-.834-3.543-4.719-6.178-5.925a8.945,8.945,0,0,0-2.65-.551c-3.528-.417-7.175-1.637-9.393-4.406a17.282,17.282,0,0,0-2.173-2.68,2.6,2.6,0,0,0-3.186-.3c.744,1.488,1.474,2.977,2.2,4.451a11.716,11.716,0,0,0,2.471,3.707,3.989,3.989,0,0,0,4.154.893,2.745,2.745,0,0,1,1.4-.491,1.511,1.511,0,0,1,.908.581c1.92,2.129,1.3,5.657-.581,7.83-1.861,2.159-4.63,3.29-7.294,4.347a5.654,5.654,0,0,1-2.977.581c-1.846-.343-2.829-2.352-3.364-4.153-1.206-3.99-1.787-8.322-4.258-11.686a14.642,14.642,0,0,1-2.247-3.26c-.507-1.34-.388-2.9-1.191-4.079-.834-1.235-2.605-1.95-2.724-3.439a2.715,2.715,0,0,1,1.741-2.412c.953-.461,2.025-.6,3.007-1,.387-.164.819-.447.833-.863,0-.625-.863-.878-1.087-1.459-.238-.655.432-1.266.715-1.906.61-1.459-.908-2.933-2.382-3.528-1.459-.6-3.231-1.027-3.915-2.457a8.5,8.5,0,0,1-.476-2.129,4.658,4.658,0,0,0-3.483-3.841c-1.832-.3-3.856,1.325-3.559,3.141a12.921,12.921,0,0,0,1.325,2.694c.417.923.3,2.293-.655,2.591-1.563.476-3.067-2.382-4.377-1.4.536,1.831,1.057,3.662,1.593,5.508-2.055,1.042-4.511-.849-5.389-2.992s-.908-4.571-1.949-6.625-3.856-3.6-5.643-2.143c-.089,2.65,3.409,3.721,4.957,5.865,1.117,1.549.953,4.064-.7,5.047s-4.243-.729-3.617-2.531c.223-.625.744-1.146.8-1.816.059-.834-.641-1.5-1.281-2.04-1-.849-2-1.682-2.992-2.516A6.3,6.3,0,0,0,283.7,51.15c-2.054-.6-4.109,1.072-5.2,2.9-1.087,1.846-1.7,4-3.2,5.538-2.159,2.233-6.252,2.367-8.276.03-2.04-2.337-1-6.714,1.994-7.562,1.131-.313,2.561-.283,3.156-1.28,1.042-1.772-1.935-4.035-.907-5.821.788-1.369,2.872-.744,4.391-1.205,1.5-.462,2.352-1.98,3.245-3.29s2.263-2.605,3.811-2.263a4.766,4.766,0,0,1,.163-2.709,1.658,1.658,0,0,1,2.277-.834c-.759,1.251.149,2.992,1.474,3.617a8.039,8.039,0,0,0,4.332.313c1.459-.179,3.29-.714,3.409-2.173.045-.477-.134-.983.045-1.429.639-1.741,3.855.655,5.091-.744.715-.729-.074-2.025-1.072-2.263a10.917,10.917,0,0,0-3.022.149c-1.012.045-2.248-.491-2.293-1.5s1.072-1.713,1.191-2.695c.194-1.667-2.635-2.1-3.633-.745-.982,1.355-.64,3.216-.342,4.868s.461,3.6-.759,4.764c-.521.789-1.876.372-2.323-.461a6.73,6.73,0,0,1-.432-2.784,2.4,2.4,0,0,0-1.414-2.278,5.046,5.046,0,0,0-1.979.223c-2.591.313-4.392-3.037-3.573-5.508s3.156-4.079,5.434-5.344c1.667-.923,3.736-1.787,5.389-.849.774.431,1.31,1.176,2.069,1.623,1.31.774,2.933.491,4.437.521a10.335,10.335,0,0,1,6.475,2.516c.67.61,1.3,1.623.775,2.353-.566.774-2.189.937-1.906,1.845a3.228,3.228,0,0,0,4.049-2.605,2.709,2.709,0,0,1,1.563,2.2,4.82,4.82,0,0,1,7.071.581,6.1,6.1,0,0,0,1.31,1.683c.6.387,1.637.193,1.712-.507a1.425,1.425,0,0,0-.119-.655c-.357-1.013-.729-2.01-1.087-3.007,1.385-.745,3.022.417,3.96,1.667,3.483,4.66,5.97,1.861,10.882,2.62,3.32.506,4.779,2.635,6.654,5.211,5.746,7.919,13.338,14.41,18.564,22.687.551.863,1.057,1.741,1.533,2.635-.089-.223-.163-.446-.253-.669a91.742,91.742,0,0,0-7.592-15.438q-.96-1.563-1.965-3.081c-.417-.625-.849-1.265-1.28-1.876-.551-.8-1.131-1.578-1.712-2.352-.462-.625-.923-1.235-1.4-1.831-.327-.417-.669-.833-1.012-1.25-.357-.477-.745-.938-1.162-1.4L341,31.843a5.5,5.5,0,0,0-.4-.447c-.432-.506-.893-1-1.355-1.489a.427.427,0,0,0-.134-.149c-.119-.134-.253-.268-.387-.4-.372-.417-.774-.819-1.161-1.221-.64-.655-1.3-1.309-1.965-1.935-.551-.551-1.117-1.071-1.7-1.593-.506-.461-1.012-.923-1.533-1.369-.506-.447-1.012-.879-1.533-1.31-.625-.536-1.265-1.057-1.921-1.579H328.9q-2.7-2.166-5.567-4.093c-.477-.328-.938-.641-1.415-.953-.476-.328-.967-.626-1.444-.923s-.967-.61-1.459-.893c-.491-.313-.983-.6-1.474-.879-.4-.237-.789-.461-1.191-.669a6.369,6.369,0,0,0-.611-.343c-.848-.476-1.712-.938-2.575-1.369-.431-.223-.863-.447-1.31-.655-.551-.283-1.117-.551-1.682-.8a1.336,1.336,0,0,0-.253-.119c-.506-.239-1.013-.477-1.533-.7-.73-.313-1.459-.625-2.189-.923-.833-.343-1.667-.685-2.515-1-.938-.357-1.876-.7-2.829-1.013s-1.921-.64-2.888-.938-1.935-.565-2.918-.833c-1.935-.521-3.9-.983-5.88-1.385-.029-.015-.074-.015-.1-.029-.759-.149-1.519-.3-2.277-.417a.634.634,0,0,0-.149-.03c-.328-.06-.67-.119-1.013-.164-1.415-.238-2.843-.431-4.287-.6-.163-.029-.343-.045-.521-.059-.417-.06-.833-.089-1.265-.134-.952-.09-1.905-.164-2.873-.223-1-.075-2.009-.119-3.021-.149C272.6.015,271.539,0,270.482,0q-4.2,0-8.307.372c-.655.045-1.3.1-1.935.179-.67.075-1.34.149-2.009.239s-1.34.179-2,.283c-.67.1-1.325.208-1.995.327-.566.089-1.147.193-1.712.313q-2.1.4-4.153.893-.961.223-1.92.491c-.641.163-1.281.342-1.906.521-1.057.3-2.084.625-3.111.953h-.015c-.833.283-1.682.565-2.5.849a.109.109,0,0,0-.059.029c-.849.3-1.667.61-2.5.937l-.133.045c-.76.3-1.519.61-2.263.923-.938.387-1.861.8-2.769,1.221-.774.357-1.533.715-2.277,1.087-.8.4-1.607.8-2.4,1.221l-.089.045c-.76.4-1.519.819-2.263,1.25-.774.431-1.533.879-2.293,1.355h-.015c-.715.431-1.413.863-2.113,1.309-.267.164-.521.343-.789.521-.745.477-1.46.967-2.189,1.473-.893.611-1.757,1.251-2.62,1.891-.759.565-1.5,1.146-2.233,1.727a93.654,93.654,0,0,0-11.7,11.09c-1.265,1.4-2.456,2.829-3.618,4.287-.983,1.251-1.935,2.516-2.843,3.826q-1.228,1.708-2.368,3.479,1.141-1.77,2.368-3.479c.238-.03.477-.059.715-.075a11,11,0,0,0,3.96-.64,23.538,23.538,0,0,0,2.917-2.263c2.591-1.846,6.833-2.189,7.533-5.285.238-1.042-.045-2.173.343-3.171.729-1.861,3.215-2.129,5.21-2.1.848,0,1.846.119,2.233.863a2.128,2.128,0,0,1-.09,1.727,16.182,16.182,0,0,1-6.833,8.4c-2.591,1.579-5.97,2.8-6.684,5.746.357,1,2.173.923,2.322,1.965.1.834-.967,1.266-1.355,2.01-.565,1.087.73,2.412,1.965,2.352a5.439,5.439,0,0,0,3.171-1.786c2.709-2.516,5.553-5.225,6.535-8.8.417-1.474.565-3.2,1.756-4.184a2.911,2.911,0,0,1,4.422,1.415c1.176-.655,3.007-1.146,3.617.075a6.272,6.272,0,0,1,.253,1.4c.388,1.905,2.993,2.769,3.261,4.689.313,2.218-2.53,3.365-4.749,3.707-2.01.313-4.02.625-6.029.953a5.575,5.575,0,0,0-2.5.8,1.95,1.95,0,0,0-.744,2.337,5.866,5.866,0,0,0,1.041,1.072c1.668,1.667.3,5.106-2.053,5.181-.8.029-1.594-.268-2.4-.3-2.382-.1-4.273,1.995-5.4,4.094s-1.98,4.5-3.886,5.925c-3.066,2.307-8.351,1.772-9.84,5.315-.6,1.429-.283,3.037-.045,4.571.238,1.519.343,3.215-.551,4.481-.878,1.251-3.17,1.518-3.825.119a3.431,3.431,0,0,1-.089-1.98c.357-2.2.7-4.407,1.042-6.61.252-1.638.476-3.469-.492-4.809-1.355-1.875-4.391-1.7-6.148-.193-1.741,1.5-2.471,3.856-2.961,6.1a26.515,26.515,0,0,1-1.7,5.925h0c-.312,1.846-.565,3.722-.759,5.612-.194,1.935-.328,3.856-.4,5.821a8.126,8.126,0,0,0,.76-.715c.937-.968,2.828-5.061,4.525-3.052a1.52,1.52,0,0,1,.03,1.861c-.521.669-1.563.819-1.965,1.547-.491.864.193,1.936,1,2.5a8.7,8.7,0,0,1,2.352,1.757c1.087,1.563.045,3.93,1.1,5.523.908,1.369,2.843,1.459,4.5,1.637.193.03.372.06.565.089.461-3.275,1.995-5.94,6.461-6.952,6.164-1.4,14.262,3.707,17.73,8.351,3.871,5.2,5.7,12.549,11.626,15.154,4.243,1.861,10.272,1.191,12.342,5.345,1.845,3.722-1.37,7.9-1.861,12.028-.313,2.724.581,5.433.789,8.158s-.611,5.925-3.1,7.071c-1.384.625-3.126.551-4.243,1.593-1.98,1.876-.357,5.747-2.337,7.622a10.131,10.131,0,0,1-2.516,1.325c-4.451,2.248-4.332,8.8-2.263,13.338.074.164.149.313.224.477a94.05,94.05,0,0,0,48.247,13.324,93.616,93.616,0,0,0,44.139-10.986h.015a94.128,94.128,0,0,0,8.322-5.017,92.816,92.816,0,0,0,11.686-9.289,91.468,91.468,0,0,0,7.145-7.458c1.578-1.816,3.067-3.707,4.5-5.642.729-1,1.444-1.995,2.114-3.022a92.445,92.445,0,0,0,11.7-24.072,91.411,91.411,0,0,0,3.587-15.944c.283-2.114.506-4.258.655-6.416a5.415,5.415,0,0,1-3.781,1.682c-2.263-.029-4.124-1.921-5.032-4" transform="translate(-80.37 0)" fill="#f5f5f5"/>
            <path id="Path_830542" data-name="Path 830542" d="M298.291,26.247c-1.864,1.114-2.855,3.217-4.293,4.844s-4.017,2.787-5.714,1.433a3.929,3.929,0,0,1-1.276-2.769,7.1,7.1,0,0,1,1.013-4.31c.81-1.32,2.047-2.359,2.733-3.749s.546-3.423-.859-4.074c-.76-.352-1.717-.214-2.392-.711-1.212-.894-.344-3.005,1.064-3.538s2.972-.12,4.475-.024c5.453.348,9.463-3.222,13.562-6.188,3.188-2.306,9.979-5.03,13.669-2.674,1.472.94,2.047,3.357.66,4.419-.62.475-1.477.581-2.054,1.107-.693.631-.791,1.668-1.188,2.518-1.032,2.207-4.008,3.008-4.967,5.248-.577,1.349-.317,3.026-1.206,4.192a5.152,5.152,0,0,1-3.059,1.52l-7.111,1.69a10.682,10.682,0,0,0-3.056,1.064" transform="translate(-130.64 -1.631)" fill="#ebebeb"/>
            <path id="Path_830543" data-name="Path 830543" d="M375.273,191.241c-2.359,3.555-2.787,8-3.442,12.212s-1.779,8.7-5.018,11.472-9.189,2.612-10.971-1.264c-.968-2.1-.471-4.585-1-6.84-.688-2.937-3.026-5.2-4.136-8.009-.946-2.393-.949-5.037-1.026-7.609-.422-14.057-3.85-28.729-13.421-39.034a9.277,9.277,0,0,0-4.18-2.942,5.34,5.34,0,0,0-5.492,1.894c-.769,1.017-1.165,2.315-2.106,3.174-2.045,1.868-5.616.529-6.982-1.88s-1.177-5.362-.948-8.122q.425-5.133.85-10.266c.148-1.79.349-3.712,1.524-5.071,1.671-1.932,4.667-2.023,6.711-3.555,2.68-2.007,3.037-5.837,4.727-8.728s6.98-4.113,7.761-.857c5.595-11.974,17.958,5.815,25.311,4.478,2.135-.389,4.221-1.414,6.37-1.113,3.8.531,5.755,4.712,7.046,8.32q3.215,8.983,6.43,17.967c.816,2.281,1.872,4.817,4.13,5.693,1.732.672,3.743.159,5.488.794,4.613,1.679,3.113,8.939-.6,12.152s-8.923,5.239-10.688,9.82c-1.33,3.451-.269,7.5-1.7,10.906-1.024,2.44-3.177,4.2-4.641,6.409" transform="translate(-144.056 -50.836)" fill="#ebebeb"/>
            <path id="Path_830544" data-name="Path 830544" d="M446.493,254.446c-1.517.212-3.306-.536-4.458.472a4.944,4.944,0,0,0-1.088,2.405,5.137,5.137,0,0,1-2.148,2.934,3.225,3.225,0,0,1-3.506-.063,2.374,2.374,0,0,1-.482-3.285,16.526,16.526,0,0,1,1.309-1.069c2.012-1.9.634-5.428,2.165-7.689.9-1.333,2.322-2.686,3.313-4.037.761-1.038,1.041-1.862,2.443-2.138,6.132-1.207,8.9,11.566,2.453,12.47" transform="translate(-197.762 -110.138)" fill="#ebebeb"/>
            <g id="Group_1077944" data-name="Group 1077944" transform="translate(137.751 172.18)" opacity="0.6">
              <g id="Group_1077943" data-name="Group 1077943">
                <g id="Group_1077942" data-name="Group 1077942" clip-path="url(#clip-path-4)">
                  <path id="Path_830545" data-name="Path 830545" d="M252.9,316.106q1.186.8,2.4,1.561c.566.357,1.132.7,1.712,1.042-.58-.342-1.146-.685-1.712-1.042q-1.217-.759-2.4-1.561" transform="translate(-252.897 -316.106)" fill="#263238"/>
                </g>
              </g>
            </g>
            <g id="Group_1077947" data-name="Group 1077947" transform="translate(96.088 90.123)" opacity="0.6">
              <g id="Group_1077946" data-name="Group 1077946">
                <g id="Group_1077945" data-name="Group 1077945" clip-path="url(#clip-path-5)">
                  <path id="Path_830546" data-name="Path 830546" d="M176.469,165.473v0c-.015.179-.03.342-.03.521-.022.558-.02,1.13-.029,1.7.009-.568.007-1.139.029-1.7,0-.179.015-.342.03-.521" transform="translate(-176.409 -165.458)" fill="#263238"/>
                </g>
              </g>
            </g>
            <path id="Path_830547" data-name="Path 830547" d="M188.673,199.7c-.3-2.695.6-5.389.64-8.113.03-1.876-.1-3.856-.134-5.746a25.909,25.909,0,0,1-4.778-.669,1.431,1.431,0,0,1-.879-.447,1.743,1.743,0,0,1-.193-1c-.119-2.113-2.159-3.513-3.989-4.57a15.951,15.951,0,0,0-2.9-1.429c0,.223,0,.432.015.655a93.74,93.74,0,0,0,5.985,29.847,90.067,90.067,0,0,0,5.746,12.326c.923,1.712,1.935,3.394,2.992,5.046,1.31,2.04,2.679,4.035,4.153,5.955,1.369,1.846,2.829,3.647,4.362,5.374a93.186,93.186,0,0,0,6.654,6.848q3.1,2.9,6.476,5.508c-5.136-13.785-9.974-27.853-18.757-39.583-2.307-3.067-4.957-6.193-5.389-10" transform="translate(-80.333 -80.922)" fill="#ebebeb"/>
            <path id="Path_830548" data-name="Path 830548" d="M189.3,173c-.193-.029-.372-.059-.566-.089-1.652-.179-3.587-.268-4.5-1.638-1.057-1.593-.015-3.959-1.1-5.523a8.684,8.684,0,0,0-2.352-1.757c-.8-.565-1.489-1.637-1-2.5.4-.729,1.444-.878,1.965-1.548a1.52,1.52,0,0,0-.03-1.861c-1.7-2.01-3.588,2.084-4.525,3.052a8.189,8.189,0,0,1-.759.715v.015c-.015.179-.03.342-.03.521-.022.558-.02,1.13-.03,1.7s-.029,1.131-.029,1.7c0,.461-.008.437,0,.9s.029,1.4.045,1.857a15.907,15.907,0,0,1,2.9,1.429c1.831,1.057,3.871,2.457,3.99,4.57a1.743,1.743,0,0,0,.193,1,1.43,1.43,0,0,0,.878.447,25.874,25.874,0,0,0,4.779.67" transform="translate(-80.293 -71.728)" fill="#ebebeb"/>
            <path id="Path_830549" data-name="Path 830549" d="M199.357,183.567c.03,1.891.164,3.871.134,5.746-.045,2.725-.938,5.419-.64,8.114.432,3.811,3.081,6.937,5.389,10,8.783,11.73,13.621,25.8,18.757,39.583h.015c.953.759,1.921,1.474,2.9,2.173q1.161.837,2.347,1.64t2.4,1.561c.565.357,1.131.7,1.712,1.042-.075-.163-.149-.313-.223-.476-2.069-4.541-2.189-11.09,2.263-13.338a10.159,10.159,0,0,0,2.516-1.325c1.98-1.875.357-5.746,2.337-7.622,1.116-1.042,2.859-.967,4.243-1.593,2.486-1.146,3.29-4.332,3.1-7.071s-1.1-5.434-.789-8.158c.491-4.124,3.707-8.307,1.861-12.028-2.069-4.153-8.1-3.483-12.341-5.345-5.925-2.6-7.756-9.959-11.626-15.154-3.468-4.645-11.567-9.751-17.73-8.351-4.466,1.012-6,3.677-6.461,6.952" transform="translate(-90.511 -78.647)" fill="#ebebeb"/>
            <path id="Path_830550" data-name="Path 830550" d="M183.31,88.5c1.757-1.5,4.794-1.683,6.148.193.967,1.34.744,3.171.491,4.809-.343,2.2-.685,4.407-1.042,6.61a3.44,3.44,0,0,0,.089,1.98c.655,1.4,2.948,1.131,3.826-.119.893-1.265.789-2.963.551-4.481s-.551-3.141.045-4.57c1.489-3.543,6.773-3.007,9.84-5.315,1.905-1.429,2.754-3.826,3.885-5.925s3.022-4.2,5.4-4.094c.8.03,1.593.327,2.4.3,2.352-.075,3.722-3.514,2.055-5.181a5.889,5.889,0,0,1-1.042-1.072A1.952,1.952,0,0,1,216.7,69.3a5.571,5.571,0,0,1,2.5-.8c2.009-.327,4.019-.64,6.029-.953,2.219-.343,5.062-1.489,4.749-3.707-.268-1.921-2.873-2.784-3.261-4.689a6.271,6.271,0,0,0-.253-1.4c-.611-1.221-2.441-.729-3.617-.075a2.911,2.911,0,0,0-4.422-1.415c-1.191.983-1.339,2.71-1.756,4.184-.983,3.573-3.826,6.282-6.535,8.8a5.439,5.439,0,0,1-3.171,1.787c-1.235.06-2.531-1.265-1.965-2.352.387-.745,1.459-1.176,1.354-2.01-.149-1.042-1.965-.967-2.322-1.965.715-2.947,4.094-4.167,6.684-5.746a16.181,16.181,0,0,0,6.833-8.4,2.129,2.129,0,0,0,.089-1.727c-.387-.744-1.385-.863-2.233-.863-1.995-.03-4.481.238-5.21,2.1-.387,1-.1,2.129-.343,3.171-.7,3.1-4.942,3.439-7.533,5.285A23.554,23.554,0,0,1,199.4,60.78a10.993,10.993,0,0,1-3.96.64c-.238.015-.476.045-.715.075Q193.5,63.2,192.36,64.974t-2.2,3.592A93.131,93.131,0,0,0,182,86.758q-1.094,3.338-1.931,6.784t-1.418,6.986a26.522,26.522,0,0,0,1.7-5.925c.491-2.248,1.221-4.6,2.962-6.1" transform="translate(-81.341 -21.837)" fill="#ebebeb"/>
            <path id="Path_830551" data-name="Path 830551" d="M439.116,116.471s-2.367,1.727-3.781,1.7c-2.263-.029-4.123-1.92-5.032-4s-1.131-4.392-1.741-6.58a4.359,4.359,0,0,0-1.98-2.948,17.752,17.752,0,0,0-2.367-.536c-2.784-.833-3.543-4.719-6.178-5.925a8.963,8.963,0,0,0-2.649-.551c-3.528-.417-7.176-1.637-9.394-4.406a17.243,17.243,0,0,0-2.173-2.679,2.6,2.6,0,0,0-3.186-.3c.744,1.489,1.474,2.977,2.2,4.451a11.721,11.721,0,0,0,2.471,3.707,3.988,3.988,0,0,0,4.153.893,2.735,2.735,0,0,1,1.4-.491,1.512,1.512,0,0,1,.908.581c1.92,2.129,1.3,5.657-.581,7.83-1.861,2.158-4.63,3.289-7.295,4.347a5.658,5.658,0,0,1-2.977.581c-1.846-.343-2.829-2.352-3.365-4.153-1.206-3.99-1.787-8.322-4.258-11.686a14.632,14.632,0,0,1-2.247-3.26c-.507-1.34-.387-2.9-1.191-4.079-.834-1.236-2.605-1.951-2.724-3.439a2.715,2.715,0,0,1,1.741-2.411c.953-.462,2.025-.6,3.007-1,.387-.164.819-.447.834-.864,0-.625-.864-.878-1.087-1.459-.238-.655.432-1.265.715-1.905.611-1.459-.908-2.933-2.382-3.529-1.459-.6-3.231-1.027-3.915-2.456a8.524,8.524,0,0,1-.476-2.129,4.657,4.657,0,0,0-3.483-3.841c-1.831-.3-3.856,1.325-3.558,3.141a12.939,12.939,0,0,0,1.325,2.695c.417.923.3,2.293-.655,2.59-1.563.477-3.067-2.381-4.377-1.4.535,1.831,1.057,3.662,1.593,5.508-2.055,1.042-4.511-.849-5.389-2.993-.879-2.129-.908-4.57-1.95-6.625s-3.856-3.6-5.642-2.144c-.089,2.65,3.409,3.722,4.957,5.866,1.116,1.548.953,4.064-.7,5.047-1.637.982-4.243-.73-3.617-2.531.223-.625.744-1.147.8-1.817.059-.833-.641-1.5-1.281-2.039-1-.849-1.995-1.683-2.992-2.516a6.286,6.286,0,0,0-2.129-1.34c-2.054-.595-4.108,1.072-5.2,2.9s-1.7,4-3.2,5.538c-2.158,2.233-6.252,2.367-8.277.029s-1-6.713,1.995-7.562c1.131-.313,2.561-.283,3.156-1.281,1.042-1.771-1.935-4.034-.908-5.821.789-1.369,2.873-.744,4.391-1.206s2.353-1.98,3.245-3.29,2.263-2.6,3.811-2.263a4.768,4.768,0,0,1,.164-2.709,1.658,1.658,0,0,1,2.277-.833c-.759,1.25.149,2.992,1.474,3.617a8.039,8.039,0,0,0,4.332.313c1.459-.179,3.29-.715,3.409-2.174.045-.476-.133-.982.045-1.429.64-1.742,3.855.655,5.091-.745.714-.729-.075-2.025-1.073-2.263a10.911,10.911,0,0,0-3.021.149c-1.013.045-2.248-.491-2.293-1.5s1.072-1.712,1.191-2.695c.194-1.667-2.635-2.1-3.633-.744-.982,1.355-.64,3.215-.342,4.868s.461,3.6-.759,4.763c-.521.789-1.875.372-2.322-.461a6.707,6.707,0,0,1-.432-2.784,2.4,2.4,0,0,0-1.414-2.277,5.047,5.047,0,0,0-1.98.223c-2.591.313-4.392-3.037-3.573-5.508.8-2.487,3.156-4.079,5.434-5.345,1.667-.923,3.737-1.787,5.389-.849.775.432,1.31,1.176,2.069,1.623,1.31.774,2.933.491,4.436.521a10.331,10.331,0,0,1,6.475,2.516c.671.61,1.3,1.623.775,2.352-.566.774-2.188.938-1.905,1.846a3.227,3.227,0,0,0,4.049-2.605,2.709,2.709,0,0,1,1.563,2.2,4.819,4.819,0,0,1,7.071.581,6.089,6.089,0,0,0,1.31,1.682c.6.387,1.637.193,1.712-.506a1.421,1.421,0,0,0-.119-.655c-.357-1.012-.729-2.009-1.087-3.007,1.385-.745,3.022.417,3.96,1.667,3.483,4.659,5.97,1.861,10.882,2.62,3.32.506,4.779,2.635,6.655,5.21,5.746,7.92,13.338,14.41,18.564,22.687.551.863,1.057,1.741,1.533,2.634h0v.015q.67,1.786,1.264,3.6t1.118,3.653a82.282,82.282,0,0,1,2.256,9.234s.654,5.319.811,7.053c.12,1.326.239,2.653.311,3.989s.113,2.68.121,4.035Z" transform="translate(-155.144 -16.224)" fill="#ebebeb"/>
            <path id="Path_830552" data-name="Path 830552" d="M58.143,133.024c.362-2.631-3.351-4.8-6.142-5.021a15.792,15.792,0,0,1-3.974-.344c-2.732-.952-3.823-4.481-6.488-5.6-1.992-.84-4.287-.093-6.218.88s-3.841,2.2-6,2.334c-1.878.12-3.916-.576-5.559.341-1.224.684-1.865,2.094-2.993,2.926a7.137,7.137,0,0,1-3.913,1.061,11.015,11.015,0,0,0-4.034.66,3.188,3.188,0,0,0-2.02,3.236Z" transform="translate(-4.901 -55.406)" fill="#f5f5f5"/>
            <path id="Path_830553" data-name="Path 830553" d="M160.468,36.135c.362-2.631-3.351-4.8-6.142-5.021a15.792,15.792,0,0,1-3.974-.344c-2.732-.952-3.823-4.481-6.488-5.6-1.992-.84-4.287-.093-6.218.88s-3.841,2.2-6,2.334c-1.878.12-3.916-.576-5.559.341-1.224.684-1.865,2.094-2.993,2.926a7.137,7.137,0,0,1-3.912,1.061,11.015,11.015,0,0,0-4.034.66,3.188,3.188,0,0,0-2.02,3.236Z" transform="translate(-51.49 -11.292)" fill="#ebebeb"/>
            <path id="Path_830554" data-name="Path 830554" d="M618.709,105.018c.582-4.228-5.386-7.707-9.87-8.069-2.138-.173-4.36.154-6.385-.552-4.39-1.53-6.143-7.2-10.426-9.007-3.2-1.351-6.889-.148-9.993,1.414s-6.172,3.529-9.64,3.75c-3.017.193-6.293-.925-8.932.548-1.967,1.1-3,3.365-4.81,4.7-1.773,1.308-4.087,1.585-6.287,1.7s-4.479.142-6.482,1.059-3.661,3.036-3.245,5.2Z" transform="translate(-247.038 -39.523)" fill="#f5f5f5"/>
            <path id="Path_830555" data-name="Path 830555" d="M559.522,38.176a7.2,7.2,0,0,0-1.2-4.151,6.912,6.912,0,0,0-3.206-2.76,5.579,5.579,0,0,0-6.519,1.861,5.574,5.574,0,0,0-5.524-3.573,6.909,6.909,0,0,0-3.909,1.618,7.194,7.194,0,0,0-2.442,3.565,8.754,8.754,0,0,0,.221,5.49,12.379,12.379,0,0,0,3.58,4.623c2.487,2.1,5.778,4.759,5.778,4.759s3.432-1.8,6.451-3.016a12.385,12.385,0,0,0,4.847-3.271,8.753,8.753,0,0,0,1.928-5.145" transform="translate(-244.219 -13.452)" fill="#ebebeb"/>
            <path id="Path_830556" data-name="Path 830556" d="M113.465,81.3a5.525,5.525,0,0,0-2.563-2.108,5.307,5.307,0,0,0-3.229-.358,4.285,4.285,0,0,0-3.324,4.007,4.281,4.281,0,0,0-5.051.132A5.312,5.312,0,0,0,97.523,85.7a5.518,5.518,0,0,0,0,3.318,6.72,6.72,0,0,0,2.522,3.383,9.507,9.507,0,0,0,4.274,1.377c2.487.252,5.725.509,5.725.509s1.394-2.629,2.78-4.71a9.516,9.516,0,0,0,1.652-4.175,6.723,6.723,0,0,0-1.01-4.1" transform="translate(-44.287 -35.842)" fill="#ebebeb"/>
          </g>
        </g>
        <g id="Group_1077951" data-name="Group 1077951">
          <g id="Group_1077950" data-name="Group 1077950" clip-path="url(#clip-path-2)">
            <path id="Path_830557" data-name="Path 830557" d="M374.917,449.37c0,.078-83.935.142-187.45.142C83.917,449.511,0,449.448,0,449.37s83.917-.142,187.467-.142c103.515,0,187.45.063,187.45.142" transform="translate(0 -204.538)" fill="#263238"/>
          </g>
        </g>
        <g id="Group_1077953" data-name="Group 1077953">
          <g id="Group_1077952" data-name="Group 1077952" clip-path="url(#clip-path-2)">
            <path id="Path_830558" data-name="Path 830558" d="M348.19,72.314a18.66,18.66,0,1,0-5.572.182l3.209,4.867Z" transform="translate(-148.504 -16.099)" fill="#fff"/>
            <path id="Path_830559" data-name="Path 830559" d="M348.054,72.149s-.043.123-.141.346c-.106.239-.251.565-.438.984l-1.709,3.753-.062.135-.083-.124-3.236-4.849.083.051A18.631,18.631,0,0,1,333.587,69a18.888,18.888,0,0,1-2.126-1.8,21.054,21.054,0,0,1-1.9-2.214,18.126,18.126,0,0,1-2.834-5.509,18.81,18.81,0,0,1,11.674-23.4A18.532,18.532,0,0,1,350.676,36a17.675,17.675,0,0,1,5.239,2.759,18.223,18.223,0,0,1,3.977,4.049l.412.558c.126.193.238.394.357.589.229.4.479.779.685,1.18A19.446,19.446,0,0,1,362.39,47.6a20.265,20.265,0,0,1,.7,2.5c.074.419.127.839.19,1.253l.089.62.031.62a18.785,18.785,0,0,1-6.015,15.005,18.7,18.7,0,0,1-4.716,3.15,17.957,17.957,0,0,1-3.387,1.176c-.4.094-.7.155-.909.185a2.341,2.341,0,0,1-.32.045,1.912,1.912,0,0,1,.3-.082c.208-.046.515-.121.907-.226A19.286,19.286,0,0,0,352.6,70.6a18.831,18.831,0,0,0,4.63-3.173A18.346,18.346,0,0,0,363.07,52.61L363.037,52l-.09-.608c-.064-.406-.117-.819-.192-1.23a19.981,19.981,0,0,0-.7-2.449,19.079,19.079,0,0,0-1.032-2.409c-.2-.394-.45-.767-.676-1.155-.117-.192-.227-.389-.351-.577l-.406-.546a17.9,17.9,0,0,0-3.908-3.959,17.333,17.333,0,0,0-5.135-2.693,18.169,18.169,0,0,0-12.02.087,18.465,18.465,0,0,0-11.47,22.915,17.834,17.834,0,0,0,2.762,5.419,20.878,20.878,0,0,0,1.859,2.185,18.711,18.711,0,0,0,2.082,1.778,18.488,18.488,0,0,0,8.731,3.459l.054.007.029.045,3.182,4.885-.144.011,1.8-3.745.47-.957a2.378,2.378,0,0,1,.168-.313" transform="translate(-148.368 -15.934)" fill="#263238"/>
            <path id="Path_830560" data-name="Path 830560" d="M361.569,62.31a4.6,4.6,0,0,0-1.076-2.541,4.413,4.413,0,0,0-2.241-1.509,3.564,3.564,0,0,0-3.994,1.672,3.558,3.558,0,0,0-3.772-1.849,4.411,4.411,0,0,0-2.357,1.321,4.591,4.591,0,0,0-1.279,2.445,5.589,5.589,0,0,0,.554,3.464,7.905,7.905,0,0,0,2.619,2.662c1.735,1.144,4.023,2.582,4.023,2.582s2.04-1.4,3.863-2.4a7.91,7.91,0,0,0,2.827-2.44,5.591,5.591,0,0,0,.834-3.408" transform="translate(-157.892 -26.422)" fill="#e86266"/>
          </g>
        </g>
        <path id="Path_830561" data-name="Path 830561" d="M202.06,405.549,199.008,428l72.774.065L267.2,402.443Z" transform="translate(-90.61 -183.236)" fill="#263238"/>
        <g id="Group_1077982" data-name="Group 1077982">
          <g id="Group_1077981" data-name="Group 1077981" clip-path="url(#clip-path-2)">
            <path id="Path_830562" data-name="Path 830562" d="M311.053,272.993l19.542,21.684c3.225,3.578,5.553,6.836,10.189,8.145,3.247.917,10.087,1.3,11.813-.838,2.369-2.926,3.838-7.986.522-14.35C350.96,283.491,332,266.563,332,266.563Z" transform="translate(-141.625 -121.368)" fill="#c27461"/>
            <path id="Path_830563" data-name="Path 830563" d="M322.869,262.793c.111,1.071,5.221,11.732,5.221,11.732l16.776-10.944s-10.8-25.656-18.686-27.379Z" transform="translate(-147.005 -107.544)" fill="#c1e29a"/>
            <path id="Path_830564" data-name="Path 830564" d="M356.678,202.42l.237-8.152-.543-10.383-1.65-8.636s-.433-.848-1.523-.206-.147,5.353-.147,5.353l.169,3.543s-.638,2.735-.843,2.5-.889-5.013-.889-5.013l-1.978-10.272a1.365,1.365,0,0,0-1.733-.71c-.7.221-1.158,1.241-1.07,2.764s.751,4.091.821,4.956.639,5.859.639,5.859L344.7,172.538s-.643-3.738-2.2-3.2-.517,3.22-.447,4.379,2.325,8.98,2.136,11.161-.535,1.091-.535,1.091l-1.614-6.438c-.711-2.837-1.786-4.481-3.014-4.688s.419,6.369.419,6.369l2.083,9.188-.517,2.925-2.049-2.632s-.06-3.449-2.215-4.886c-2.19-1.461-2.711.178-2.711.178l4.018,13.349c.95,2.182,7.1,6.425,7.1,6.425l1.1,13.385,13.674-.272Z" transform="translate(-152.089 -77.077)" fill="#c27461"/>
            <path id="Path_830565" data-name="Path 830565" d="M355.992,215.5a14.677,14.677,0,0,1-1.825-1.533,7.489,7.489,0,0,0-5-2.067,4.017,4.017,0,0,0-2.472.9l-.228.2-.2-.262c-.877-1.156-1.818-2.165-2.378-2.892-.588-.724-.878-1.212-.814-1.251a7.724,7.724,0,0,1,1.074,1.021,38.11,38.11,0,0,1,2.6,2.826l-.427-.064a4.438,4.438,0,0,1,2.82-1.078,6.151,6.151,0,0,1,3.193.769,9.782,9.782,0,0,1,2.12,1.584,7.024,7.024,0,0,1,1.54,1.851" transform="translate(-156.2 -94.971)" fill="#7d4336"/>
            <path id="Path_830566" data-name="Path 830566" d="M357.867,277.828l-2.9-41.65,11.579-3.63,8.406,45.28Z" transform="translate(-161.62 -105.881)" fill="#c27461"/>
            <path id="Path_830567" data-name="Path 830567" d="M294.543,120.556a4.684,4.684,0,0,0,2.506-8.978,4.873,4.873,0,0,0-3.767-8.449,5.832,5.832,0,0,0-8.5-5.279,6.556,6.556,0,0,0-8.051-.628,4.663,4.663,0,0,0-4.567,7.661" transform="translate(-123.38 -43.769)" fill="#263238"/>
            <path id="Path_830568" data-name="Path 830568" d="M283.2,151.389c.367-5.14.261-15.785.053-25.417a19.875,19.875,0,0,0-18.7-19.408l-1.027-.06c-11.117-.007-17.332,9.431-17.031,20.544l-1.71,42.8,6.714,6.064a12.671,12.671,0,0,0,19.677-3.446l.519-9.405s10.748-1.028,11.507-11.668" transform="translate(-111.454 -48.492)" fill="#c27461"/>
            <path id="Path_830569" data-name="Path 830569" d="M282.893,206.211a25.874,25.874,0,0,1-13.711-4.906s2.83,7.857,13.511,7.524Z" transform="translate(-122.561 -91.656)" fill="#7d4336"/>
            <path id="Path_830570" data-name="Path 830570" d="M304.231,157.518a1.523,1.523,0,0,1-1.557,1.448,1.457,1.457,0,0,1-1.486-1.464,1.524,1.524,0,0,1,1.555-1.449,1.459,1.459,0,0,1,1.488,1.465" transform="translate(-137.133 -71.052)" fill="#263238"/>
            <path id="Path_830571" data-name="Path 830571" d="M305.629,150.079c-.2.187-1.3-.734-2.939-.826-1.634-.115-2.884.656-3.049.445-.082-.094.131-.441.676-.79a4.178,4.178,0,0,1,2.456-.6,4.011,4.011,0,0,1,2.324.9c.48.416.63.784.532.868" transform="translate(-136.421 -67.522)" fill="#263238"/>
            <path id="Path_830572" data-name="Path 830572" d="M276.658,157.518a1.522,1.522,0,0,1-1.557,1.447,1.456,1.456,0,0,1-1.486-1.463,1.524,1.524,0,0,1,1.555-1.449,1.458,1.458,0,0,1,1.488,1.465" transform="translate(-124.579 -71.052)" fill="#263238"/>
            <path id="Path_830573" data-name="Path 830573" d="M276.066,148.9c-.2.187-1.3-.733-2.94-.825-1.633-.115-2.883.656-3.049.444-.082-.094.129-.441.677-.79a4.184,4.184,0,0,1,2.456-.6,4.017,4.017,0,0,1,2.325.9c.479.416.629.784.532.868" transform="translate(-122.96 -66.984)" fill="#263238"/>
            <path id="Path_830574" data-name="Path 830574" d="M290.674,161.875a10.817,10.817,0,0,1,2.686-.323c.42-.017.821-.078.908-.359a2.132,2.132,0,0,0-.206-1.254l-1.048-3.255c-1.449-4.631-2.471-8.429-2.284-8.486s1.513,3.651,2.962,8.283q.52,1.712.995,3.271a2.423,2.423,0,0,1,.12,1.653,1.052,1.052,0,0,1-.723.57,2.834,2.834,0,0,1-.716.057,10.685,10.685,0,0,1-2.694-.155" transform="translate(-132.346 -67.475)" fill="#263238"/>
            <path id="Path_830575" data-name="Path 830575" d="M281.441,174.866c.267,0,.166,1.776,1.611,3.127s3.349,1.266,3.348,1.515c.019.113-.442.32-1.242.3a4.431,4.431,0,0,1-2.8-1.165,3.862,3.862,0,0,1-1.238-2.615c-.023-.747.2-1.175.321-1.157" transform="translate(-127.995 -79.618)" fill="#263238"/>
            <path id="Path_830576" data-name="Path 830576" d="M276.278,137.469c-.188.435-1.809.128-3.742.246-1.936.08-3.518.55-3.749.136-.1-.2.192-.6.844-.994a6.521,6.521,0,0,1,5.706-.291c.688.326,1.023.7.941.9" transform="translate(-122.372 -61.943)" fill="#263238"/>
            <path id="Path_830577" data-name="Path 830577" d="M305.413,141.246c-.31.355-1.414-.1-2.769-.2-1.351-.145-2.518.1-2.759-.3-.105-.2.1-.557.62-.88a4.019,4.019,0,0,1,4.454.4c.456.41.591.8.453.976" transform="translate(-136.528 -63.459)" fill="#263238"/>
            <path id="Path_830578" data-name="Path 830578" d="M281.8,119.988s-2.415-6.834-5.539-8.58c-3.782-2.113-5.709,2.061-9.358.805s-7.258-3.282-11.218-.638c-4.335,2.894-2.52,5.211-3.055,9.92-2.169,19.094-5.987,24.3-6.45,15.223-.051-1-2.747-1.943-2.908-6.144-.208-5.446-.028-12.034,1.407-15.806,1.21-3.179,3.189-5.309,6.646-7.58,5.458-3.587,12.644-3.247,17.492-2.469s13.92,6.945,12.983,15.268" transform="translate(-110.73 -47.449)" fill="#263238"/>
            <path id="Path_830579" data-name="Path 830579" d="M243.807,160.949a2.9,2.9,0,0,0-2.957-2.969c-2,.071-4.273,1.069-4.384,5.18-.2,7.293,7.167,5.987,7.185,5.778.013-.142.1-4.936.156-7.989" transform="translate(-107.663 -71.929)" fill="#c27461"/>
            <path id="Path_830580" data-name="Path 830580" d="M244.219,168.127c-.032-.023-.13.086-.347.179a1.274,1.274,0,0,1-.951-.007,3.145,3.145,0,0,1-1.379-2.86,4.2,4.2,0,0,1,.405-1.809,1.468,1.468,0,0,1,.982-.949.648.648,0,0,1,.741.368c.092.206.042.351.08.364.02.019.16-.118.109-.42a.814.814,0,0,0-.275-.465.959.959,0,0,0-.7-.2,1.788,1.788,0,0,0-1.358,1.095,4.319,4.319,0,0,0-.5,2.021c.007,1.471.722,2.867,1.768,3.2a1.358,1.358,0,0,0,1.167-.162c.231-.174.274-.336.249-.35" transform="translate(-109.745 -73.905)" fill="#7d4336"/>
            <path id="Path_830581" data-name="Path 830581" d="M246.128,120.391a6.917,6.917,0,0,0,3,1.606,2.379,2.379,0,0,0,2.732-1.515c.117-.5.027-1.1.383-1.469.425-.444,1.15-.254,1.756-.154a4.654,4.654,0,0,0,5.019-3.047,1.954,1.954,0,0,0,2.6.4,10.46,10.46,0,0,0,2.107-2,3,3,0,0,1,2.573-1.1,7.179,7.179,0,0,0,1.563.442c.961-.029,1.494-1.12,1.695-2.061s.379-2.04,1.218-2.508a3.815,3.815,0,0,1,2.607.081c.873.182,2.021.042,2.3-.805a1.731,1.731,0,0,0-.248-1.339,4.723,4.723,0,0,0-5.46-2.113,6.4,6.4,0,0,0-11.668-1.931,6.5,6.5,0,0,0-10.507,1.753,4.709,4.709,0,0,0-5.7,6.525,4.472,4.472,0,0,0-2.665,3.41c-.116,1.506,1.263,3.093,2.74,2.783a2.608,2.608,0,0,0,4.349,2.862" transform="translate(-109.011 -45.468)" fill="#263238"/>
            <path id="Path_830582" data-name="Path 830582" d="M270.857,112.926a.374.374,0,0,1-.01.133c-.015.087-.028.219-.069.386a4.579,4.579,0,0,1-.611,1.372,5.211,5.211,0,0,1-1.716,1.626,4.861,4.861,0,0,1-3.032.675l.133-.154a2.637,2.637,0,0,1-.265,2,7.524,7.524,0,0,1-1.351,1.717,5.408,5.408,0,0,1-.864.788,2.558,2.558,0,0,1-1.179.36,2.663,2.663,0,0,1-2.294-.978l.277-.062a5.472,5.472,0,0,1-2.539,3.641,3.992,3.992,0,0,1-2.437.643,7.207,7.207,0,0,1-2.325-.656l.2-.074a5.754,5.754,0,0,1-1.856,2.146,3.061,3.061,0,0,1-2.577.541,4.017,4.017,0,0,1-2.9-3.32l.161.087a3.758,3.758,0,0,1-2.523.22,4.08,4.08,0,0,1-1.7-.881,3.539,3.539,0,0,1-.761-.937,1.722,1.722,0,0,1-.162-.388,4.376,4.376,0,0,0,1,1.231,4.043,4.043,0,0,0,1.661.8,3.593,3.593,0,0,0,2.383-.248l.141-.069.02.156a3.788,3.788,0,0,0,2.75,3.08,2.778,2.778,0,0,0,2.341-.517,5.479,5.479,0,0,0,1.745-2.037l.066-.131.134.057a6.954,6.954,0,0,0,2.225.625,3.682,3.682,0,0,0,2.251-.6,5.175,5.175,0,0,0,2.4-3.431l.066-.342.211.279a2.365,2.365,0,0,0,2.026.863,2.262,2.262,0,0,0,1.044-.311,5.284,5.284,0,0,0,.814-.738,7.367,7.367,0,0,0,1.319-1.641,2.393,2.393,0,0,0,.266-1.81l-.05-.177.182.023a4.683,4.683,0,0,0,2.9-.6,5.186,5.186,0,0,0,1.7-1.534,5.661,5.661,0,0,0,.8-1.814" transform="translate(-109.481 -51.416)" fill="#455a64"/>
            <path id="Path_830583" data-name="Path 830583" d="M269.042,264.922l.769-7.758,2.673-28.435c-1.373-1.448-6.907-3.72-6.907-3.72l-13.74-4.939S250.521,223.842,240.2,224c-10.557.156-14.931-6.448-14.931-6.448-5.275,1.7-16.792,6.07-16.792,6.07l-3.929,36.993-.2,12.213-2.429,62.2s69.171-2.938,70.208-3.117l-2.8-22.4Z" transform="translate(-91.936 -99.051)" fill="#c1e29a"/>
            <g id="Group_1077956" data-name="Group 1077956" transform="translate(157.255 147.613)" opacity="0.3">
              <g id="Group_1077955" data-name="Group 1077955">
                <g id="Group_1077954" data-name="Group 1077954" clip-path="url(#clip-path-9)">
                  <path id="Path_830584" data-name="Path 830584" d="M288.7,271v14.556l7.92,6.462,8.256-6.406.454-14.208Z" transform="translate(-288.704 -271.003)" fill="#74875c"/>
                </g>
              </g>
            </g>
            <g id="Group_1077959" data-name="Group 1077959" transform="translate(111.237 181.913)" opacity="0.3">
              <g id="Group_1077958" data-name="Group 1077958">
                <g id="Group_1077957" data-name="Group 1077957" clip-path="url(#clip-path-10)">
                  <path id="Path_830585" data-name="Path 830585" d="M204.422,350.762l-.2,5.17s43.7-7.92,51.333-11a96.975,96.975,0,0,0,14.481-7.017l.159-3.944Z" transform="translate(-204.22 -333.974)"/>
                </g>
              </g>
            </g>
            <path id="Path_830586" data-name="Path 830586" d="M198.034,234.4s-9.853,1.573-11.882,14.135c-1.308,8.1-5.268,43.775.147,53.362,6.265,11.092,62.833-7.515,62.833-7.515l1.933-14.356-43.591,2.883L202,252.654Z" transform="translate(-83.561 -106.725)" fill="#c27461"/>
            <path id="Path_830587" data-name="Path 830587" d="M181.156,273.339h27.626l-7.558-46.078s-15.835,3.208-17.908,19.751a249.811,249.811,0,0,0-2.16,26.327" transform="translate(-82.482 -103.474)" fill="#c1e29a"/>
            <path id="Path_830588" data-name="Path 830588" d="M187.534,289.848a.423.423,0,0,1,.124-.014l.362-.014,1.4-.026,5.15-.044,17.12-.044-.142.154c-.031-.358-.064-.744-.1-1.131-.58-6.949-1.1-13.239-1.487-17.821-.175-2.263-.318-4.1-.418-5.4q-.063-.93-.1-1.47c-.008-.154-.014-.28-.019-.383a.45.45,0,0,1,0-.131.443.443,0,0,1,.026.129c.013.1.028.228.047.381q.056.538.152,1.466c.123,1.3.3,3.136.508,5.4l1.57,17.814c.033.387.066.772.1,1.131l.013.154h-.154l-17.12-.044-5.15-.044-1.4-.026-.362-.014a.428.428,0,0,1-.124-.014" transform="translate(-85.386 -119.983)" fill="#263238"/>
            <path id="Path_830589" data-name="Path 830589" d="M327.167,260.463a5.92,5.92,0,0,1,.013.941c-.006.606-.045,1.48-.1,2.562-.113,2.162-.339,5.144-.65,8.431s-.639,6.26-.9,8.407c-.131,1.074-.244,1.942-.329,2.541a5.822,5.822,0,0,1-.162.927,6.057,6.057,0,0,1,.053-.939c.061-.65.141-1.51.239-2.551.214-2.2.5-5.149.818-8.412.31-3.285.568-6.261.732-8.417.076-1.043.139-1.9.187-2.554a5.956,5.956,0,0,1,.1-.936" transform="translate(-147.991 -118.591)" fill="#263238"/>
            <path id="Path_830590" data-name="Path 830590" d="M223.825,243.1a2.458,2.458,0,0,1-.311-.513l-.768-1.436a22.446,22.446,0,0,0-2.966-4.426,10.271,10.271,0,0,0-4.36-2.923,12.073,12.073,0,0,0-2.167-.407,2.014,2.014,0,0,1,.6-.038,6.5,6.5,0,0,1,1.624.254,9.866,9.866,0,0,1,4.512,2.924,19.818,19.818,0,0,1,2.934,4.525c.3.619.535,1.126.689,1.479a2.43,2.43,0,0,1,.212.562" transform="translate(-97.096 -106.25)" fill="#263238"/>
            <g id="Group_1077962" data-name="Group 1077962" transform="translate(122.768 147.613)" opacity="0.3">
              <g id="Group_1077961" data-name="Group 1077961">
                <g id="Group_1077960" data-name="Group 1077960" clip-path="url(#clip-path-11)">
                  <path id="Path_830591" data-name="Path 830591" d="M225.767,295.337c-.049-.272,4.778-1.448,4.778-1.448L227.013,271l1.909,22.251H225.39Z" transform="translate(-225.39 -271.003)"/>
                </g>
              </g>
            </g>
            <path id="Path_830592" data-name="Path 830592" d="M346.945,319.479l-.853,11.761-3.907,4.918-9.56,12.687,11.58.755s13.582-3.376,15.581-7.559,2.116-22.562,2.116-22.562Z" transform="translate(-151.447 -145.462)" fill="#ffcfb4"/>
            <path id="Path_830593" data-name="Path 830593" d="M434.577,192.256l.652-45.75c.419-10.886-4.992-20.306-15.885-20.424l-1.007.047a19.471,19.471,0,0,0-18.542,18.8c-.312,9.44-.535,19.876-.233,24.919.625,10.435,11.144,11.563,11.144,11.563.017.32-.013,2.917-.057,6.032l.016,5.183Z" transform="translate(-181.859 -57.407)" fill="#ffcfb4"/>
            <path id="Path_830594" data-name="Path 830594" d="M420.08,223.752a25.249,25.249,0,0,0,13.4-4.665s-2.954,7.784-13.417,7.338Z" transform="translate(-191.26 -99.752)" fill="#ff9d64"/>
            <path id="Path_830595" data-name="Path 830595" d="M431.377,168.938c.229.067,1.282-.7,2.982-1.092s3.08-.222,3.231-.379c.076-.072-.183-.228-.789-.318a7.343,7.343,0,0,0-2.628.163,6.589,6.589,0,0,0-2.332,1.01c-.457.342-.575.587-.464.615" transform="translate(-196.392 -76.08)" fill="#263238"/>
            <path id="Path_830596" data-name="Path 830596" d="M434.5,175.284a1.412,1.412,0,0,0,1.428,1.358,1.351,1.351,0,0,0,1.393-1.341,1.413,1.413,0,0,0-1.426-1.359,1.351,1.351,0,0,0-1.394,1.342" transform="translate(-197.832 -79.197)" fill="#263238"/>
            <path id="Path_830597" data-name="Path 830597" d="M420.031,180.2a10.615,10.615,0,0,0-2.628-.346c-.412-.022-.8-.086-.886-.362a2.089,2.089,0,0,1,.216-1.228q.507-1.515,1.064-3.177c1.471-4.522,2.516-8.232,2.333-8.29s-1.524,3.561-3,8.082c-.354,1.115-.691,2.177-1.012,3.194a2.38,2.38,0,0,0-.136,1.618,1.029,1.029,0,0,0,.7.567,2.8,2.8,0,0,0,.7.064,10.435,10.435,0,0,0,2.641-.122" transform="translate(-189.357 -75.943)" fill="#263238"/>
            <path id="Path_830598" data-name="Path 830598" d="M433.745,156.292c.158.392,1.563.136,3.233.264,1.672.093,3.035.532,3.239.164.09-.175-.161-.538-.721-.9a5.283,5.283,0,0,0-2.431-.751,5.223,5.223,0,0,0-2.5.425c-.6.283-.889.61-.82.8" transform="translate(-197.483 -70.6)" fill="#263238"/>
            <path id="Path_830599" data-name="Path 830599" d="M403.175,161.423c.175.32,1.545,0,3.2,0,1.652-.039,3.015.237,3.2-.088.081-.155-.184-.445-.753-.71a5.775,5.775,0,0,0-2.43-.465,5.959,5.959,0,0,0-2.441.536c-.575.282-.847.579-.77.732" transform="translate(-183.563 -72.92)" fill="#263238"/>
            <path id="Path_830600" data-name="Path 830600" d="M464.094,177.781c.185-.085,7.489-2.39,7.41,5.114s-7.6,5.877-7.608,5.662.2-10.776.2-10.776" transform="translate(-211.216 -80.763)" fill="#ffcfb4"/>
            <path id="Path_830601" data-name="Path 830601" d="M468.154,187.772c.033-.023.13.093.35.2a1.309,1.309,0,0,0,.977.031,3.235,3.235,0,0,0,1.527-2.886,4.328,4.328,0,0,0-.346-1.876,1.512,1.512,0,0,0-.973-1.014.666.666,0,0,0-.775.35c-.1.209-.057.359-.1.371-.022.019-.16-.127-.1-.437a.832.832,0,0,1,.3-.467.989.989,0,0,1,.724-.183,1.837,1.837,0,0,1,1.354,1.178,4.441,4.441,0,0,1,.431,2.1c-.064,1.512-.854,2.918-1.941,3.221a1.4,1.4,0,0,1-1.194-.211c-.23-.188-.268-.356-.242-.369" transform="translate(-213.151 -82.798)" fill="#ff9d64"/>
            <path id="Path_830602" data-name="Path 830602" d="M403.432,168.811c.163.17,1.451.087,3.108.632s2.756,1.387,2.964,1.337c.1-.02-.042-.278-.518-.659a7.7,7.7,0,0,0-2.339-1.2,6.865,6.865,0,0,0-2.509-.368c-.565.044-.788.182-.706.261" transform="translate(-183.679 -76.737)" fill="#263238"/>
            <path id="Path_830603" data-name="Path 830603" d="M407.12,174.963a1.412,1.412,0,0,0,1.428,1.358,1.351,1.351,0,0,0,1.393-1.341,1.413,1.413,0,0,0-1.427-1.359,1.351,1.351,0,0,0-1.394,1.342" transform="translate(-185.365 -79.051)" fill="#263238"/>
            <path id="Path_830604" data-name="Path 830604" d="M374.6,129.951a1.687,1.687,0,0,1,.817-.965,5.19,5.19,0,0,1,2.673-.364,15,15,0,0,0,6.553-1.47,7.444,7.444,0,0,1-1.88-1.393,4.468,4.468,0,0,1-1.172-4.475.989.989,0,0,1,.575-.666c.466-.13.859.334,1.172.7a3.847,3.847,0,0,0,3.581,1.625,6.314,6.314,0,0,0,2.726-.731c.032-.032.06-.066.092-.1.38-.372.751-.728,1.115-1.072l0,0v0c2.745-2.587,5.095-4.368,7.489-5.262a24.193,24.193,0,0,1,12.934-.687c3.6,1.043,6.777,4.064,7.186,7.789,2.076-1.666,5.126-1.574,7.574-.516l.063-.026c2.731,1.053,4.222,4,4.964,6.835.04.155.075.312.113.467a10.936,10.936,0,0,0,3.617,3.716c.263.162.563.36.588.667s-.239.55-.492.722a5.5,5.5,0,0,1-2.254.87,12.4,12.4,0,0,0,.864,1.96c.3.535.651,1.175.366,1.716a1.161,1.161,0,0,1-1.23.5,3.409,3.409,0,0,1-1.268-.613l.866,2.231a6.52,6.52,0,0,1-2.993-.276,72.694,72.694,0,0,1-2.122,7.713c-1.152-.032-2.236-.33-2.962.291-.988.843-1.46,2.465-3.049,1.8-.808-.337-1.509-2.068-1.762-2.906a40.656,40.656,0,0,1-1.323-17.246,13.05,13.05,0,0,0-3.959-3.013l.121.114c-2.884-1.084-6.151-2.162-8.946-.867-2.169,1.006-3.484,3.2-5.13,4.928a15.444,15.444,0,0,1-11.381,5.076c-.487,3.131-.252,7.126-.481,10.053l-2.59-4.8,0,.024c-.193-.349-.351-.7-.5-1.051l-.052-.107v-.014a18.22,18.22,0,0,0-.782-1.689l-.029.025a1.832,1.832,0,0,1-2.614-2.518,4.11,4.11,0,0,1,.908-.868,2.9,2.9,0,0,1-2.778.645,2.274,2.274,0,0,1-1.551-2.289,1.934,1.934,0,0,1,1.192-1.522,6.525,6.525,0,0,1-3.693-.913c-.723-.437-1.425-1.144-1.153-2.059" transform="translate(-170.533 -52.137)" fill="#263238"/>
            <path id="Path_830605" data-name="Path 830605" d="M449.108,131.927a8.936,8.936,0,0,1,1.02.982,7.47,7.47,0,0,1,1.511,3.5,13.154,13.154,0,0,1,.2,2.654c-.02.959-.124,1.984-.224,3.064a27.455,27.455,0,0,0-.165,3.414,12,12,0,0,0,.189,1.808,3.751,3.751,0,0,0,.691,1.766,1.572,1.572,0,0,0,1.457.532,2.339,2.339,0,0,0,1.342-.714,5.4,5.4,0,0,0,1.071-2.623l-.22.021a8.735,8.735,0,0,0,1.212,2.214,3.1,3.1,0,0,0,2,1.155,2,2,0,0,0,1.078-.161,1.735,1.735,0,0,0,.748-.7,1.791,1.791,0,0,0,.245-.917,1.292,1.292,0,0,0-.314-.819l-.113.1a6.716,6.716,0,0,0,2.195,1.735,6.116,6.116,0,0,0,.686.287,1.225,1.225,0,0,0,.247.068,1.269,1.269,0,0,0-.233-.106c-.153-.068-.381-.167-.665-.32a6.926,6.926,0,0,1-2.116-1.758l-.113.1a1.335,1.335,0,0,1,.03,1.549,1.557,1.557,0,0,1-.675.619,1.82,1.82,0,0,1-.978.134,2.912,2.912,0,0,1-1.854-1.1,8.605,8.605,0,0,1-1.166-2.166l-.142-.338-.078.359a5.224,5.224,0,0,1-1.02,2.506,2.106,2.106,0,0,1-1.2.638,1.325,1.325,0,0,1-1.239-.45,3.546,3.546,0,0,1-.637-1.652,11.96,11.96,0,0,1-.188-1.771,27.877,27.877,0,0,1,.15-3.385c.094-1.081.191-2.111.2-3.082a13.09,13.09,0,0,0-.231-2.689,7.374,7.374,0,0,0-1.608-3.528,4.241,4.241,0,0,0-1.093-.921" transform="translate(-204.483 -60.068)" fill="#455a64"/>
            <path id="Path_830606" data-name="Path 830606" d="M389.482,136.226s.025.028.082.074l.255.2a3.451,3.451,0,0,0,.434.294,5.647,5.647,0,0,0,.625.35,9.246,9.246,0,0,0,4.439.916,11.806,11.806,0,0,0,6.345-2.162,20.442,20.442,0,0,0,5.559-6.087c.789-1.242,1.44-2.519,2.151-3.7A13.822,13.822,0,0,1,411.778,123a7.12,7.12,0,0,1,3.048-1.745,5.114,5.114,0,0,1,1.587-.142,5.61,5.61,0,0,1,1.442.315,6.038,6.038,0,0,1,3.275,2.917,7.238,7.238,0,0,1,.5,1.575.357.357,0,0,0-.006-.109c-.011-.087-.025-.192-.041-.32a5.241,5.241,0,0,0-.366-1.186,5.915,5.915,0,0,0-1.126-1.611,6.091,6.091,0,0,0-2.174-1.428,5.739,5.739,0,0,0-1.487-.342,5.276,5.276,0,0,0-1.651.133,7.283,7.283,0,0,0-3.151,1.776,13.888,13.888,0,0,0-2.46,3.154c-.72,1.185-1.37,2.459-2.153,3.689a20.454,20.454,0,0,1-5.48,6.032,11.735,11.735,0,0,1-6.224,2.174,9.381,9.381,0,0,1-4.39-.829,14.554,14.554,0,0,1-1.437-.828" transform="translate(-177.334 -55.052)" fill="#455a64"/>
            <path id="Path_830607" data-name="Path 830607" d="M387.955,140.578a1.631,1.631,0,0,0,.367.27,8.1,8.1,0,0,0,1.092.589,10.822,10.822,0,0,0,1.737.62,11.336,11.336,0,0,0,4.49.258,10.83,10.83,0,0,0,1.8-.416,8.109,8.109,0,0,0,1.152-.461,1.669,1.669,0,0,0,.4-.226c-.019-.042-.6.239-1.6.521a12.183,12.183,0,0,1-1.776.359,12.142,12.142,0,0,1-4.406-.253,12.409,12.409,0,0,1-1.723-.559c-.956-.394-1.5-.741-1.527-.7" transform="translate(-176.639 -64.005)" fill="#455a64"/>
            <path id="Path_830608" data-name="Path 830608" d="M428.744,196.385s-3.8,1.1-5.237,1.63l.576,1.652a2.64,2.64,0,0,0,3.568,1.524,2.6,2.6,0,0,0,.876-.673,2.667,2.667,0,0,0,.6-1.854,14.9,14.9,0,0,0-.386-2.278" transform="translate(-192.827 -89.416)" fill="#ff9d64"/>
            <path id="Path_830609" data-name="Path 830609" d="M423.506,197.73a29,29,0,0,1,5.163-1.884l.274-.086.059.287.026.123a12.061,12.061,0,0,1,.344,2.2,2.583,2.583,0,0,1-.552,1.8c-.715.853-1.461.9-1.453.85-.044-.083.61-.274,1.151-1.071.63-.781.342-2.161-.008-3.67-.009-.043-.018-.086-.026-.126l.333.2a29.178,29.178,0,0,1-5.311,1.375" transform="translate(-192.826 -89.132)" fill="#263238"/>
            <path id="Path_830610" data-name="Path 830610" d="M367.635,350.226l73.937-.344-4.078-62.891-.306-18.748-4.332-33.977-16.524-3.543s-4.133,7.6-14.69,7.441c-10.321-.153-9.99-4.543-9.99-4.543L374.1,240.212s-9.622,4.683-11.387,9.223c-1.719,4.419-5.049,29.844-5.049,29.844l15.138-.187-1.38,48.1Z" transform="translate(-162.847 -105.05)" fill="#7816c2"/>
            <path id="Path_830611" data-name="Path 830611" d="M385.7,278.567a1.473,1.473,0,0,1,.039.33c.014.248.033.563.056.951.038.825.072,2.021.077,3.5.021,2.956-.046,7.037-.185,11.543s-.321,8.583-.471,11.534c-.082,1.447-.15,2.631-.2,3.493l-.071.949a1.439,1.439,0,0,1-.044.33,1.481,1.481,0,0,1-.013-.332c0-.248.01-.563.017-.952.027-.862.064-2.047.109-3.5.1-2.985.237-7.046.388-11.534s.237-8.582.268-11.533c.02-1.476.017-2.671.013-3.5,0-.387,0-.7,0-.95a1.467,1.467,0,0,1,.018-.333" transform="translate(-175.242 -126.834)" fill="#263238"/>
            <path id="Path_830612" data-name="Path 830612" d="M494.773,238.076s7.437.781,11.421,6c3.662,4.8,10.723,19.9,10.535,20.276S500.1,275.5,500.1,275.5l-4.064-7.5Z" transform="translate(-225.275 -108.398)" fill="#7816c2"/>
            <path id="Path_830613" data-name="Path 830613" d="M501.415,251.7a1.1,1.1,0,0,1,.043.286c.018.221.041.492.068.824.055.715.115,1.752.178,3.033.126,2.562.223,6.1.281,10.017s.122,7.453.2,10.015c.036,1.25.066,2.276.089,3.035.005.332.01.6.015.825a1.13,1.13,0,0,1-.014.289,1.1,1.1,0,0,1-.043-.286c-.019-.22-.041-.492-.068-.823-.055-.716-.115-1.752-.179-3.033-.126-2.562-.222-6.105-.28-10.019s-.123-7.451-.2-10.014c-.036-1.25-.066-2.276-.088-3.034-.006-.332-.011-.605-.015-.826a1.128,1.128,0,0,1,.014-.289" transform="translate(-228.292 -114.599)" fill="#263238"/>
            <path id="Path_830614" data-name="Path 830614" d="M312.435,364.44s2.449,1.643,3.99,1.437S323,364.44,323,364.44s.1.446,1.438,1.455,9.447,2.344,12.836,1.933a53.679,53.679,0,0,0,9.139-2.567l-1.726-9.709-15.261,2.406-16.987,3.914v2.567Z" transform="translate(-142.254 -161.886)" fill="#824e44"/>
            <path id="Path_830615" data-name="Path 830615" d="M321.141,347.654s-1.335,5.853-.616,6.675,1.624,1.027,2.137-.1a49.773,49.773,0,0,0,1.456-5.146l.616-1.427s-.821,9.652.822,10.166a3.444,3.444,0,0,0,2.567,0s3.286,2.465,3.491-1.437a56.432,56.432,0,0,1,1.394-8.729l.763-1.27v2.194s-1.731,5.134-.763,5.853,2,1.232,2.611.411a61.747,61.747,0,0,0,4.112-8.943s1.925,2.78,4.61,2.817c2.106.028,3.33-.876,2.47-2.191a9.4,9.4,0,0,0-2.978-2.41l-2.772-6.477-6.778-1.586h-7.7Z" transform="translate(-145.841 -153.007)" fill="#ffcfb4"/>
            <path id="Path_830616" data-name="Path 830616" d="M301.651,343.49s6.475,3.855,9.453,4.573,18.944-2.117,18.779-3.123-2.246-1.908-3.684-2.113-5.648-.924-5.648-.924h11.3l5.443,3.441s1.932-.778,1.3-2.356c-.334-.838-4.591-4.166-4.591-4.166l-10.371-2.053-18.381-.719Z" transform="translate(-137.344 -153.006)" fill="#ffc09d"/>
            <path id="Path_830617" data-name="Path 830617" d="M310.246,317.951s18.381,3.081,18.792,3.594,5.134,5.853,5.134,5.853,7.082,2.436,6.162,4.005-2.978.616-2.978.616,2.875,4.518,1.54,5.443-2.772.308-3.8-1.027-4.005-6.264-4.005-6.264,2.465,10.064,1.233,10.371a3,3,0,0,1-4.005-2.156,27.5,27.5,0,0,1-1.027-4l-3.9-6.469s1.54,11.814.616,12.787c0,0-2.362.768-3.183-1.285s-1.951-6.748-1.951-6.748L316.92,327.5l-.205,3.286s1.643,6.058.616,6.469a2.466,2.466,0,0,1-3.081-1.384,22.467,22.467,0,0,1-1.848-4.367c-.2-.8-1.292-3.536-1.292-3.536l-3.9-.514Z" transform="translate(-139.875 -144.766)" fill="#c27461"/>
            <path id="Path_830618" data-name="Path 830618" d="M354.329,332.413a57.487,57.487,0,0,1,4.645,6.6,57.427,57.427,0,0,1-4.645-6.6" transform="translate(-161.328 -151.35)" fill="#7d4336"/>
            <path id="Path_830619" data-name="Path 830619" d="M343.088,326.171a5.266,5.266,0,0,1,.86,1.028,26.255,26.255,0,0,1,1.728,2.732,31.818,31.818,0,0,1,1.421,2.9,5.691,5.691,0,0,1,.453,1.26,7.019,7.019,0,0,1-.636-1.177c-.368-.736-.879-1.751-1.486-2.849s-1.2-2.064-1.646-2.756a7.8,7.8,0,0,1-.694-1.142" transform="translate(-156.21 -148.508)" fill="#7d4336"/>
            <path id="Path_830620" data-name="Path 830620" d="M333.153,327.172c.02-.027.3.13.65.514a4.989,4.989,0,0,1,.976,1.742,9.192,9.192,0,0,1,.4,1.944,2.287,2.287,0,0,1,.017.821,2.524,2.524,0,0,1-.215-.79,16.112,16.112,0,0,0-.47-1.884,6.272,6.272,0,0,0-.863-1.707c-.291-.4-.523-.606-.495-.64" transform="translate(-151.686 -148.963)" fill="#7d4336"/>
            <path id="Path_830621" data-name="Path 830621" d="M321.169,328.194c.015-.031.288.055.662.319a3.7,3.7,0,0,1,1.527,3.092c-.017.458-.115.726-.149.719a4.756,4.756,0,0,0-2.04-4.13" transform="translate(-146.23 -149.427)" fill="#7d4336"/>
            <g id="Group_1077965" data-name="Group 1077965" transform="translate(209.048 178.773)" opacity="0.3">
              <g id="Group_1077964" data-name="Group 1077964">
                <g id="Group_1077963" data-name="Group 1077963" clip-path="url(#clip-path-12)">
                  <path id="Path_830622" data-name="Path 830622" d="M383.792,355.017c1.312-.01,51.241-3.666,51.241-3.666l17.613-3.643-4.35-19.5L383.93,348.921Z" transform="translate(-383.792 -328.209)"/>
                </g>
              </g>
            </g>
            <path id="Path_830623" data-name="Path 830623" d="M371.64,325.834l46.222-10.624s42.081-24.529,42.726-24.925c.717-.44-3.254,24.925-3.254,24.925s-26.807,14.123-34.524,15.955c-4.2,1-50.831,4.873-50.831,4.873Z" transform="translate(-169.211 -132.167)" fill="#824e44"/>
            <path id="Path_830624" data-name="Path 830624" d="M539.222,164.449c2.849-3.073,9.8-2.539,11.43-.483a5.307,5.307,0,0,1,6.925,2.378l7.385,1.691A7.71,7.71,0,0,1,568.5,169.5a2.651,2.651,0,0,1,.59,3.462,4.022,4.022,0,0,1,1.632,6.45,2.8,2.8,0,0,1-.456,4.054,28.1,28.1,0,0,1,4.688,8.288,5.72,5.72,0,0,1,.331,3.9c-.476,1.247-2.131,2.093-3.205,1.3a3.283,3.283,0,0,1,.12,3.546c1.252.043,1.606,1.982.737,2.884a4.569,4.569,0,0,1-3.519.942,6.028,6.028,0,0,0-3.643.586,1.139,1.139,0,0,0,.4.8,5.148,5.148,0,0,1,1.08,7.025c-.151.207-.293.4-.417.571a11.264,11.264,0,0,1-3.662,2.519c-2.846,1.449-4.529,1.153-7.693,1.579.842,2.046-4.335,6.511-10.166,2.017a113.293,113.293,0,0,1-32.348,4.061c-1.732-.012-3.811-.267-4.563-1.826a4.3,4.3,0,0,1-3.944-1.335,12.682,12.682,0,0,1-2.287-3.683,7.543,7.543,0,0,1-5.363-6.851,9.322,9.322,0,0,1-3.452-6.665,5.471,5.471,0,0,1-3.066-7.417,33.006,33.006,0,0,1,3.7-10.182c-1.981-.448-2.7-3.133-1.868-4.985s2.653-3.03,4.377-4.1c-1.488.381-2.764-1.5-2.4-2.987s1.722-2.509,3.047-3.287a27.941,27.941,0,0,1,6.178-2.684c.732-2.606,4.1-5.549,6.558-6.683,9.915-4.573,16.841-5.688,29.328,3.648" transform="translate(-222.997 -71.65)" fill="#263238"/>
            <path id="Path_830625" data-name="Path 830625" d="M528.573,192.844c.852-6.787,5.886-14.866,12.631-13.726l20.866,6.676a4,4,0,0,1,3.323,4.274l-3.539,45.377a12.481,12.481,0,0,1-10.9,11.416h0a12.483,12.483,0,0,1-14.018-12.622c.058-3.121.1-5.466.094-5.451s-8.615-1.986-9.713-13.456c-.546-5.7.314-14.947,1.261-22.487" transform="translate(-240.012 -81.504)" fill="#824e44"/>
            <path id="Path_830626" data-name="Path 830626" d="M536.759,220.308a1.459,1.459,0,0,0,1.313,1.557,1.4,1.4,0,0,0,1.583-1.22,1.461,1.461,0,0,0-1.312-1.557,1.4,1.4,0,0,0-1.585,1.221" transform="translate(-244.388 -99.748)" fill="#263238"/>
            <path id="Path_830627" data-name="Path 830627" d="M532.892,212.342c.168.2,1.323-.547,2.89-.446,1.567.079,2.667.957,2.849.776.089-.08-.074-.434-.552-.83a4.01,4.01,0,0,0-2.266-.856,3.85,3.85,0,0,0-2.315.592c-.5.34-.69.673-.606.764" transform="translate(-242.621 -96.061)" fill="#263238"/>
            <path id="Path_830628" data-name="Path 830628" d="M563.144,221.414a1.459,1.459,0,0,0,1.313,1.557,1.4,1.4,0,0,0,1.583-1.22,1.461,1.461,0,0,0-1.312-1.557,1.4,1.4,0,0,0-1.584,1.221" transform="translate(-256.401 -100.251)" fill="#263238"/>
            <path id="Path_830629" data-name="Path 830629" d="M561.143,214.637c.169.2,1.325-.546,2.891-.445,1.567.078,2.667.956,2.849.775.088-.08-.072-.434-.553-.83a4,4,0,0,0-2.265-.856,3.847,3.847,0,0,0-2.315.592c-.5.34-.689.673-.606.764" transform="translate(-255.485 -97.106)" fill="#263238"/>
            <path id="Path_830630" data-name="Path 830630" d="M546.108,225.587a10.4,10.4,0,0,0-2.518-.618c-.4-.066-.771-.169-.822-.446a2.043,2.043,0,0,1,.341-1.17q.655-1.418,1.373-2.974c1.913-4.237,3.325-7.731,3.154-7.807s-1.862,3.3-3.775,7.534q-.693,1.569-1.324,3a2.315,2.315,0,0,0-.306,1.558,1.007,1.007,0,0,0,.622.626,2.711,2.711,0,0,0,.674.137,10.223,10.223,0,0,0,2.58.164" transform="translate(-246.861 -96.786)" fill="#263238"/>
            <path id="Path_830631" data-name="Path 830631" d="M545.275,267.794a28.952,28.952,0,0,0,15.463-3.112s-4.175,7.572-15.476,5.8Z" transform="translate(-248.262 -120.512)" fill="#5b342f"/>
            <path id="Path_830632" data-name="Path 830632" d="M560.62,203.015c.128.436,1.706.331,3.53.667,1.832.3,3.282.929,3.55.562.12-.176-.114-.593-.687-1.043a6.246,6.246,0,0,0-5.394-.937c-.692.23-1.052.544-1,.75" transform="translate(-255.253 -91.979)" fill="#263238"/>
            <path id="Path_830633" data-name="Path 830633" d="M534.509,202.42c.254.373,1.356.071,2.656.134,1.3.018,2.383.388,2.659.032.122-.174-.029-.541-.489-.908a3.851,3.851,0,0,0-4.282-.133c-.481.337-.655.695-.544.876" transform="translate(-243.352 -91.498)" fill="#263238"/>
            <path id="Path_830634" data-name="Path 830634" d="M520.184,194.687a7.81,7.81,0,0,1,1.971-4.862,29.028,29.028,0,0,0,2.143-2c1.309-1.659,1.168-3.995,1.747-6.026a8.591,8.591,0,0,1,5.419-5.684c2.147-.724,4.562-.58,6.582-1.607,1.492-.759,2.642-2.1,4.177-2.771,2.99-1.3,6.4.277,9.177,2,.517,2.234-.925,4.135-2.314,5.961a7.953,7.953,0,0,1-5.9,3.085c-1.778.076-3.844-.361-5.115.884-1.337,1.31-.869,3.667-1.975,5.176-1.581,2.158-5.078,1.265-7.409,2.575-1.8,1.012-2.587,3.132-3.517,4.976s-2.516,3.757-4.577,3.623a23.263,23.263,0,0,1-.4-5.325" transform="translate(-236.827 -77.975)" fill="#263238"/>
            <path id="Path_830635" data-name="Path 830635" d="M569.257,183.1a40.314,40.314,0,0,1,15.178,3.013,7.339,7.339,0,0,1,3.707,2.654,7.2,7.2,0,0,1,.724,3.957c-.125,4.258-1.93,9.441-3.623,13.349l-5.374,3.09c-4.079-1.04-2.074-8.078-1.814-11.619a8.369,8.369,0,0,1-4.759-7.475,9.263,9.263,0,0,1-4.04-6.969" transform="translate(-259.188 -83.365)" fill="#263238"/>
            <path id="Path_830636" data-name="Path 830636" d="M588.7,226.235c.2-2.432,3.2-2.853,5.273-1.561,1.137.709,1.978,2.087,1.785,4.67-.516,6.889-7.326,4.95-7.323,4.751,0-.124.026-5.011.265-7.859" transform="translate(-267.922 -101.97)" fill="#824e44"/>
            <path id="Path_830637" data-name="Path 830637" d="M592.657,233.589c.032-.02.114.093.31.2a1.2,1.2,0,0,0,.9.086,2.98,2.98,0,0,0,1.574-2.561,3.977,3.977,0,0,0-.208-1.743,1.387,1.387,0,0,0-.833-.989.612.612,0,0,0-.733.276c-.107.186-.074.326-.111.336-.02.016-.139-.126-.062-.407a.77.77,0,0,1,.3-.411.9.9,0,0,1,.676-.125,1.691,1.691,0,0,1,1.174,1.161,4.1,4.1,0,0,1,.272,1.952c-.148,1.385-.956,2.63-1.973,2.843a1.29,1.29,0,0,1-1.084-.265c-.2-.186-.225-.343-.2-.353" transform="translate(-269.838 -103.917)" fill="#5b342f"/>
            <path id="Path_830638" data-name="Path 830638" d="M585.745,217.051a5.767,5.767,0,0,0,1.108-.052,4.067,4.067,0,0,0,1.214-.344l-.082-.043a3.43,3.43,0,0,0,5.424,2.275l-.117-.022a1.419,1.419,0,0,0,.893.619,1.965,1.965,0,0,0,1.119-.074,1.8,1.8,0,0,0,.911-.714,2.408,2.408,0,0,0,.37-1.129,3.528,3.528,0,0,0-.711-2.313,10.333,10.333,0,0,0-1.787-1.8l-.015.16A2.43,2.43,0,0,0,595.2,212a3.537,3.537,0,0,0-.161-2.037,5.453,5.453,0,0,0-1.176-1.741,16.49,16.49,0,0,0-1.607-1.41l.008.156a2.591,2.591,0,0,0,.715-1.989,3.732,3.732,0,0,0-.744-2.062,9.219,9.219,0,0,0-3.321-2.406l.053.119a4.579,4.579,0,0,0-4.873-5.74l.1.12a3.947,3.947,0,0,0-.874-3.372,3.9,3.9,0,0,0-2.887-1.483l.084.088A3.874,3.874,0,0,0,579,187.2a3.786,3.786,0,0,0-2.868-.847l.077.069a3.8,3.8,0,0,0-.528-1.779,4.894,4.894,0,0,0-1.024-1.284,3.962,3.962,0,0,0-2.34-1.059l-.259-.022c-.084,0-.165.01-.244.015a3.46,3.46,0,0,0-.437.042,4.789,4.789,0,0,0-.662.174l-.388.158a.826.826,0,0,0-.129.059.872.872,0,0,0,.136-.041l.392-.139a5.11,5.11,0,0,1,.659-.155,3.572,3.572,0,0,1,.431-.033c.077,0,.157-.011.239-.01l.253.026a3.9,3.9,0,0,1,2.275,1.064,4.788,4.788,0,0,1,.99,1.264,3.689,3.689,0,0,1,.5,1.717v.08l.077-.011a3.649,3.649,0,0,1,2.751.834,3.714,3.714,0,0,1,1.437,2.908l0,.087.087,0a3.721,3.721,0,0,1,2.747,1.427,3.765,3.765,0,0,1,.827,3.209l-.032.133.137-.013a4.379,4.379,0,0,1,4.653,5.492l-.021.081.075.039a9.057,9.057,0,0,1,3.249,2.347,3.524,3.524,0,0,1,.7,1.945,2.378,2.378,0,0,1-.651,1.832l-.085.082.093.074a8.109,8.109,0,0,1,2.725,3.063,3.34,3.34,0,0,1,.155,1.919,2.233,2.233,0,0,1-1.025,1.489l-.121.069.107.091a10.181,10.181,0,0,1,1.759,1.763,3.343,3.343,0,0,1,.684,2.19,1.85,1.85,0,0,1-1.16,1.7,1.516,1.516,0,0,1-1.815-.469l-.046-.075-.071.052a3.337,3.337,0,0,1-3.479.268A3.381,3.381,0,0,1,588.1,216.6l-.012-.078-.07.035a3.971,3.971,0,0,1-1.177.345,5.751,5.751,0,0,1-1.09.065,4.23,4.23,0,0,1-1.676-.352,1.6,1.6,0,0,1-.786-.69c-.106-.215-.121-.346-.134-.342a.414.414,0,0,0,.019.092.945.945,0,0,0,.088.264,1.6,1.6,0,0,0,.786.73" transform="translate(-259.618 -82.995)" fill="#455a64"/>
            <path id="Path_830639" data-name="Path 830639" d="M610.883,205.593a2.351,2.351,0,0,0,.267-.412,3.542,3.542,0,0,0,.389-1.359,3.475,3.475,0,0,0-.527-2.173,3.665,3.665,0,0,0-2.471-1.632l.057.084a4.728,4.728,0,0,0-.565-3.414,4.6,4.6,0,0,0-1.325-1.458,10.947,10.947,0,0,0-1.87-.921,3.8,3.8,0,0,1-.894-.552,2.357,2.357,0,0,1-.615-.86c-.295-.666-.38-1.449-.755-2.168a4.192,4.192,0,0,0-4.164-2.155l.117.119a5.525,5.525,0,0,0-6.012-6.367l.113.115a4.852,4.852,0,0,0-7.467-4.665l.111.013a6.641,6.641,0,0,0-2.384-1.512,10,10,0,0,0-2.465-.611,11.574,11.574,0,0,0-4.093.206,8.2,8.2,0,0,0-2.446.967,4.712,4.712,0,0,0-.568.4c-.125.1-.185.149-.185.149.011.015.262-.193.779-.5a8.489,8.489,0,0,1,2.442-.914,11.615,11.615,0,0,1,4.053-.163,9.873,9.873,0,0,1,2.424.618,6.487,6.487,0,0,1,2.316,1.485l.05.052.061-.039a4.664,4.664,0,0,1,7.165,4.492l-.015.129.129-.013a5.324,5.324,0,0,1,5.787,6.129l-.022.138.138-.019a4,4,0,0,1,3.96,2.043c.357.672.445,1.449.755,2.153a2.53,2.53,0,0,0,.667.923,3.975,3.975,0,0,0,.94.577,10.9,10.9,0,0,1,1.848.9,4.452,4.452,0,0,1,1.284,1.4,4.591,4.591,0,0,1,.57,3.3l-.016.072.073.011a3.555,3.555,0,0,1,2.4,1.555,3.421,3.421,0,0,1,.543,2.109,3.644,3.644,0,0,1-.349,1.346c-.141.288-.241.423-.232.429" transform="translate(-260.952 -79.938)" fill="#455a64"/>
            <path id="Path_830640" data-name="Path 830640" d="M517.817,206.478a.676.676,0,0,0,.036-.565,1.341,1.341,0,0,0-.393-.578,2.346,2.346,0,0,0-.845-.443,4.054,4.054,0,0,1-1.069-.468,2.141,2.141,0,0,1-.758-1.12,4.2,4.2,0,0,1-.147-1.581c.034-.569.134-1.17.145-1.815a18.5,18.5,0,0,0-.808-4.092,5.727,5.727,0,0,1-.055-2.269,2.763,2.763,0,0,1,1.283-1.918,10.328,10.328,0,0,1,2.432-.778,4.173,4.173,0,0,0,1.245-.554,2.777,2.777,0,0,0,.891-1.076,13.393,13.393,0,0,0,.771-2.7,4.6,4.6,0,0,1,.5-1.3,2.108,2.108,0,0,1,1.032-.874,7.7,7.7,0,0,1,1.912-.228,2.987,2.987,0,0,0,.971-.226,1.908,1.908,0,0,0,.773-.631,6.719,6.719,0,0,0,.752-1.75,4.247,4.247,0,0,1,.892-1.541,4.158,4.158,0,0,1,3.028-1.385,4.273,4.273,0,0,1,2.909,1.11l.09.084.053-.111a6.566,6.566,0,0,1,4.155-3.466,6.055,6.055,0,0,1,2.308-.161,5.522,5.522,0,0,1,1.886.559,4.843,4.843,0,0,1,1.983,1.886,4.639,4.639,0,0,1,.331.654l.079.172a.261.261,0,0,0,.031.057.214.214,0,0,0-.018-.062l-.066-.178a4.157,4.157,0,0,0-.309-.671,4.819,4.819,0,0,0-1.983-1.952,5.593,5.593,0,0,0-1.918-.593,6.156,6.156,0,0,0-2.362.144,6.709,6.709,0,0,0-4.28,3.531l.143-.027a4.453,4.453,0,0,0-3.034-1.171,4.349,4.349,0,0,0-3.176,1.442,4.445,4.445,0,0,0-.936,1.608,6.613,6.613,0,0,1-.726,1.7,2.021,2.021,0,0,1-1.6.772,7.758,7.758,0,0,0-1.966.24,2.325,2.325,0,0,0-1.138.961,4.779,4.779,0,0,0-.523,1.358,13.351,13.351,0,0,1-.753,2.661,2.573,2.573,0,0,1-.824,1,3.981,3.981,0,0,1-1.184.527,10.416,10.416,0,0,0-2.475.8,2.648,2.648,0,0,0-.918.891,3.491,3.491,0,0,0-.447,1.157,5.88,5.88,0,0,0,.065,2.341,18.741,18.741,0,0,1,.83,4.055c-.006.63-.1,1.232-.13,1.808a4.307,4.307,0,0,0,.168,1.625,2.236,2.236,0,0,0,.811,1.165,4.056,4.056,0,0,0,1.1.464,2.3,2.3,0,0,1,.83.413,1.312,1.312,0,0,1,.394.544.843.843,0,0,1,0,.552" transform="translate(-233.871 -80.071)" fill="#455a64"/>
            <path id="Path_830641" data-name="Path 830641" d="M497.055,191.352a.773.773,0,0,0,.074-.127l.2-.383.736-1.483c.323-.642.687-1.446,1.2-2.323a6.141,6.141,0,0,1,2.351-2.436c.563-.293,1.211-.482,1.863-.759a4.348,4.348,0,0,0,.952-.535,2.375,2.375,0,0,0,.719-.888c.339-.71.362-1.521.636-2.257a1.944,1.944,0,0,1,.68-.931,3.7,3.7,0,0,1,1.117-.495,7.061,7.061,0,0,0,1.228-.447,2.219,2.219,0,0,0,.959-.959,10.081,10.081,0,0,0,.635-2.665,3.321,3.321,0,0,1,.479-1.258,1.726,1.726,0,0,1,1.107-.7c.91-.173,1.879.16,2.892.018a2.437,2.437,0,0,0,1.339-.68,6.27,6.27,0,0,0,.879-1.173,13.206,13.206,0,0,1,.778-1.176,2.658,2.658,0,0,1,1.028-.851,4.048,4.048,0,0,1,2.6.066,6.087,6.087,0,0,0,2.615.272,7.015,7.015,0,0,0,2.3-1,11.83,11.83,0,0,1,2.048-1.093,7.119,7.119,0,0,1,4.094-.062,7.629,7.629,0,0,1,3,1.613,8.53,8.53,0,0,1,1.639,2.008,9.647,9.647,0,0,1,.691,1.5l.153.4a.827.827,0,0,0,.059.136.688.688,0,0,0-.038-.142c-.034-.1-.078-.238-.134-.41a8.814,8.814,0,0,0-.66-1.521,8.446,8.446,0,0,0-1.633-2.056,7.711,7.711,0,0,0-3.043-1.668,7.242,7.242,0,0,0-4.192.041,11.925,11.925,0,0,0-2.085,1.1,6.837,6.837,0,0,1-2.236.967,5.906,5.906,0,0,1-2.533-.276,8.707,8.707,0,0,0-1.339-.257,2.633,2.633,0,0,0-2.505,1.107,13.253,13.253,0,0,0-.792,1.2,6.166,6.166,0,0,1-.848,1.132,2.223,2.223,0,0,1-1.225.623c-.943.139-1.911-.2-2.9-.015a1.936,1.936,0,0,0-1.234.785,3.5,3.5,0,0,0-.512,1.338,10.077,10.077,0,0,1-.611,2.612,2.017,2.017,0,0,1-.874.879,6.913,6.913,0,0,1-1.193.436,3.874,3.874,0,0,0-1.171.526,2.139,2.139,0,0,0-.741,1.019c-.282.778-.3,1.581-.62,2.247a2.823,2.823,0,0,1-1.577,1.349c-.637.276-1.289.47-1.867.776a6.232,6.232,0,0,0-2.384,2.508c-.51.891-.862,1.7-1.174,2.347l-.7,1.5-.178.393a.783.783,0,0,0-.054.137" transform="translate(-226.313 -75.852)" fill="#455a64"/>
            <path id="Path_830642" data-name="Path 830642" d="M508.154,199.007a.565.565,0,0,0-.126-.024.77.77,0,0,0-.368.075,1.481,1.481,0,0,0-.707,1.21,3.658,3.658,0,0,0,.13,1.034,4.261,4.261,0,0,1,.158,1.2,2.662,2.662,0,0,1-.507,1.265c-.275.411-.623.813-.906,1.3a1.979,1.979,0,0,0-.2,1.733c.21.591.628,1.089.827,1.69a2.571,2.571,0,0,1-.221,1.895c-.279.626-.673,1.23-.949,1.926a3.115,3.115,0,0,0-.24,1.116,2.814,2.814,0,0,0,.242,1.146,13.419,13.419,0,0,0,1.278,1.989,3.169,3.169,0,0,1,.691,2.2,10.438,10.438,0,0,1-.874,2.313,3.588,3.588,0,0,0-.278,1.263,2.849,2.849,0,0,0,.3,1.245,10.523,10.523,0,0,0,1.454,1.976,5.6,5.6,0,0,1,1.172,1.973,16.935,16.935,0,0,0,.679,2.159,2.5,2.5,0,0,0,.685.885,3.177,3.177,0,0,0,.967.486,8.622,8.622,0,0,1,.951.357,3.427,3.427,0,0,1,.787.556,7.029,7.029,0,0,1,1.105,1.5c.308.519.593,1.029.916,1.488a4.729,4.729,0,0,0,2.372,1.808,5.08,5.08,0,0,0,2.249.254,4.5,4.5,0,0,0,1.381-.379,3.4,3.4,0,0,0,.437-.241,5.248,5.248,0,0,1-1.826.539,5.066,5.066,0,0,1-2.2-.283,4.62,4.62,0,0,1-2.29-1.783c-.313-.453-.592-.96-.9-1.484a7.165,7.165,0,0,0-1.124-1.538,3.583,3.583,0,0,0-.829-.592,8.54,8.54,0,0,0-.968-.37,3.017,3.017,0,0,1-.911-.461,2.31,2.31,0,0,1-.629-.821,16.907,16.907,0,0,1-.662-2.136,5.8,5.8,0,0,0-1.2-2.043,10.444,10.444,0,0,1-1.424-1.935,2.642,2.642,0,0,1-.281-1.154,3.388,3.388,0,0,1,.264-1.187,10.469,10.469,0,0,0,.886-2.363,2.631,2.631,0,0,0-.148-1.254,5.076,5.076,0,0,0-.58-1.084,13.37,13.37,0,0,1-1.265-1.954,2.61,2.61,0,0,1-.229-1.063,2.912,2.912,0,0,1,.224-1.049c.262-.671.652-1.276.937-1.921a2.745,2.745,0,0,0,.217-2.024c-.221-.642-.642-1.136-.84-1.69a1.824,1.824,0,0,1,.179-1.606c.268-.474.612-.88.888-1.3a2.771,2.771,0,0,0,.513-1.331,4.314,4.314,0,0,0-.178-1.227,3.633,3.633,0,0,1-.146-1,1.45,1.45,0,0,1,.645-1.179.89.89,0,0,1,.475-.089" transform="translate(-229.95 -90.599)" fill="#455a64"/>
            <path id="Path_830643" data-name="Path 830643" d="M613.756,200.023a2.552,2.552,0,0,0,.547-.044,3.771,3.771,0,0,0,1.464-.6,3.684,3.684,0,0,0,1.49-2.006,3.877,3.877,0,0,0-.5-3.266,9.745,9.745,0,0,0-1.354-1.442A4.652,4.652,0,0,1,614.14,191a3.042,3.042,0,0,1,.146-2.189c.278-.735.695-1.448.962-2.263a6.766,6.766,0,0,0-4.936-8.705l.059.163a3.427,3.427,0,0,0,.625-1.5,4.341,4.341,0,0,0-.072-1.643,4.758,4.758,0,0,0-.665-1.528,5.64,5.64,0,0,0-1.148-1.234,10.677,10.677,0,0,0-4.5-1.917,16.171,16.171,0,0,0-4.634-.285l.109.1a4.9,4.9,0,0,0-2.692-4.292,5,5,0,0,0-2.415-.511,8.061,8.061,0,0,0-2.273.556,4.542,4.542,0,0,1-1.068.226,2.8,2.8,0,0,1-1.036-.129,8.458,8.458,0,0,1-1.808-.922,7.4,7.4,0,0,0-1.729-.83,6.016,6.016,0,0,0-1.739-.265,5.8,5.8,0,0,0-2.878.728,5.964,5.964,0,0,0-1.7,1.425,5.7,5.7,0,0,0-.747,1.174,3.074,3.074,0,0,0-.18.446c.009,0,.066-.151.212-.43a6.071,6.071,0,0,1,.767-1.146,6,6,0,0,1,1.7-1.382,5.731,5.731,0,0,1,2.83-.687,5.877,5.877,0,0,1,1.7.272,7.288,7.288,0,0,1,1.691.826,8.541,8.541,0,0,0,1.839.947,2.949,2.949,0,0,0,1.1.141,4.714,4.714,0,0,0,1.108-.229,7.942,7.942,0,0,1,2.229-.539,4.812,4.812,0,0,1,2.322.5,4.71,4.71,0,0,1,2.575,4.124v.108l.108-.009a16.019,16.019,0,0,1,4.575.288,10.509,10.509,0,0,1,4.414,1.878,5.419,5.419,0,0,1,1.105,1.187,4.537,4.537,0,0,1,.635,1.461,4.109,4.109,0,0,1,.071,1.562,3.231,3.231,0,0,1-.584,1.4l-.095.127.154.035a6.579,6.579,0,0,1,4.81,8.448c-.256.791-.669,1.506-.951,2.258a3.2,3.2,0,0,0-.137,2.3,4.781,4.781,0,0,0,1.309,1.715,9.659,9.659,0,0,1,1.344,1.411,3.771,3.771,0,0,1,.512,3.16,3.617,3.617,0,0,1-1.43,1.976,3.864,3.864,0,0,1-1.43.621c-.351.07-.541.069-.54.081" transform="translate(-263.994 -74.597)" fill="#263238"/>
            <path id="Path_830644" data-name="Path 830644" d="M506.448,174.244a.633.633,0,0,0,.022-.131c.011-.1.026-.226.044-.387l.164-1.487c.079-.644.184-1.432.376-2.332a13.32,13.32,0,0,1,.965-2.959,8.842,8.842,0,0,1,2.252-2.982,6.524,6.524,0,0,1,1.788-1.059,18.746,18.746,0,0,1,2.155-.58,6.26,6.26,0,0,0,2.193-.925,9.874,9.874,0,0,0,1.789-1.717c.546-.636,1.068-1.308,1.672-1.913a7.018,7.018,0,0,1,2.1-1.491,12.45,12.45,0,0,1,5-.971,32.506,32.506,0,0,1,4.792.281,24.606,24.606,0,0,1,7.759,2.317,17.448,17.448,0,0,1,4.446,3.17c.225.233.434.432.6.617l.409.482.255.294a.612.612,0,0,0,.093.1.651.651,0,0,0-.076-.109l-.239-.307-.394-.5c-.163-.19-.368-.395-.59-.633a17,17,0,0,0-4.436-3.245,24.421,24.421,0,0,0-7.8-2.375,32.2,32.2,0,0,0-4.823-.3,12.6,12.6,0,0,0-5.087.986,7.225,7.225,0,0,0-2.156,1.534c-.616.618-1.138,1.295-1.68,1.927a9.7,9.7,0,0,1-1.748,1.686,6.071,6.071,0,0,1-2.125.9,18.721,18.721,0,0,0-2.174.595,6.691,6.691,0,0,0-1.833,1.1,8.952,8.952,0,0,0-2.275,3.052,13.274,13.274,0,0,0-.946,3c-.181.908-.275,1.7-.342,2.347s-.1,1.15-.125,1.492c-.01.162-.017.29-.023.389a.618.618,0,0,0,0,.133" transform="translate(-230.589 -70.619)" fill="#263238"/>
            <path id="Path_830645" data-name="Path 830645" d="M558,241.151a2.577,2.577,0,0,0-1.5-2.187,2.273,2.273,0,0,0-2.549.551,2.044,2.044,0,0,0-.128,2.45,2.228,2.228,0,0,0,.982.868,2.829,2.829,0,0,0,1.671.178,1.928,1.928,0,0,0,1.205-.655,1.809,1.809,0,0,0,.314-1.2" transform="translate(-252.002 -108.722)" fill="#5b342f"/>
            <path id="Path_830646" data-name="Path 830646" d="M556.228,236.966c-.26.006-.12,1.732-1.5,3.078s-3.227,1.309-3.221,1.552c-.015.11.437.3,1.216.258a4.313,4.313,0,0,0,2.7-1.2,3.757,3.757,0,0,0,1.143-2.572c.006-.727-.222-1.138-.339-1.118" transform="translate(-251.108 -107.893)" fill="#263238"/>
            <path id="Path_830647" data-name="Path 830647" d="M563.08,285.284l-13.386-5.077s-10.319,6.133-18.272,4.862c-6.164-.985-6.67-4.154-6.67-4.154l-7.418,1.2s-11.233,9.337-13.579,18.827c-1.386,5.605-1.722,12.944-1.722,19.385,0,2.576,3.282,12.765,3.282,12.765l1.274,14.748-6.206,24.578h64.744v-68Z" transform="translate(-227.829 -127.581)" fill="#ffae7e"/>
            <path id="Path_830648" data-name="Path 830648" d="M474.605,327.443l-9.4-23.542,26.978-18.794,9.134-1.407-2.376,33.32Z" transform="translate(-211.812 -129.171)" fill="#ffae7e"/>
            <path id="Path_830649" data-name="Path 830649" d="M505.974,342.64a1.811,1.811,0,0,1-.17-.326c-.1-.22-.263-.537-.428-.964a26.636,26.636,0,0,1-1.2-3.69,38.481,38.481,0,0,1-.828-12.734,79.414,79.414,0,0,1,2.344-12.571c.41-1.584.763-2.86,1.013-3.74l.3-1.011a1.781,1.781,0,0,1,.121-.348,1.76,1.76,0,0,1-.066.362l-.244,1.025-.925,3.76a87.25,87.25,0,0,0-2.256,12.548,40.013,40.013,0,0,0,.741,12.662,30.622,30.622,0,0,0,1.111,3.7c.149.432.3.754.378.982a1.829,1.829,0,0,1,.118.349" transform="translate(-229.094 -139.896)" fill="#263238"/>
            <g id="Group_1077968" data-name="Group 1077968" transform="translate(272.911 167.822)" opacity="0.3">
              <g id="Group_1077967" data-name="Group 1077967">
                <g id="Group_1077966" data-name="Group 1077966" clip-path="url(#clip-path-13)">
                  <path id="Path_830650" data-name="Path 830650" d="M501.929,330.006l.59-.423a65.933,65.933,0,0,1,3.509-21.478c-4.378,6.483-6.244,14.649-4.1,21.9" transform="translate(-501.038 -308.105)"/>
                </g>
              </g>
            </g>
            <g id="Group_1077971" data-name="Group 1077971" transform="translate(292.365 185.857)" opacity="0.3">
              <g id="Group_1077970" data-name="Group 1077970">
                <g id="Group_1077969" data-name="Group 1077969" clip-path="url(#clip-path-14)">
                  <path id="Path_830651" data-name="Path 830651" d="M536.753,341.827s9.289,34.374,14.461,40.677,8,8.186,15.984,8.82,10.942-8.6,12.715-12.2,1.449-9,1.449-9l-10.876-6.078-8.607,14.182L539.71,341.215Z" transform="translate(-536.753 -341.215)"/>
                </g>
              </g>
            </g>
            <path id="Path_830652" data-name="Path 830652" d="M539.423,348.994s9.458,22,16.239,34.619c5.742,10.682,17.454,9.5,21.171,3.554s9.935-23.732,9.935-23.732l-19.757-3.471-2.2,6.259-14.979-19.1Z" transform="translate(-245.604 -158.049)" fill="#824e44"/>
            <path id="Path_830653" data-name="Path 830653" d="M553,326.076l-1.454-6.581s-.664-1.821-1.748-.215-.58,4.638-.58,4.638-2.045-15.653-3.844-17.357c-.656-.622-1.558.234-1.558.234s-.21-3.061-1.169-3.041-1.867,2.3-1.867,2.3a1.71,1.71,0,0,0-2.129.485c-.839,1.019-.845,9.529-.845,9.529s-.8-7.01-2.054-7.452c-2.012-.709-2.012,1.959-2.012,1.959l.587,9.125a80.2,80.2,0,0,0,2.482,10.143C538.19,333.759,539,333.8,539,333.8l9.018-.24s2.034-1.861,3.637-3.3A4.355,4.355,0,0,0,553,326.076" transform="translate(-243.016 -138.302)" fill="#824e44"/>
            <path id="Path_830654" data-name="Path 830654" d="M581.759,378.12a1.33,1.33,0,0,1-.153-.273l-.385-.8-.7-1.22c-.288-.467-.637-.986-1.012-1.566-1.56-2.285-3.917-5.3-6.6-8.564s-5.164-6.184-6.9-8.345c-.872-1.078-1.558-1.967-2.02-2.59l-.515-.73a1.267,1.267,0,0,1-.164-.266,1.347,1.347,0,0,1,.21.232l.557.7c.487.6,1.2,1.469,2.087,2.531,1.777,2.125,4.277,5.025,6.967,8.291s5.026,6.309,6.55,8.632c.366.59.705,1.119.982,1.6.26.487.491.9.664,1.252l.34.829a1.285,1.285,0,0,1,.1.3" transform="translate(-256.476 -161.072)" fill="#5b342f"/>
            <path id="Path_830655" data-name="Path 830655" d="M599.583,288.455a18.641,18.641,0,0,1,13.5,14.412c2.5,11.227,1.722,35.1,1.722,35.1l-29.37-5.169,7.145-40.769Z" transform="translate(-266.553 -131.336)" fill="#ffae7e"/>
            <path id="Path_830656" data-name="Path 830656" d="M589.465,324.213a.453.453,0,0,1-.007.13c-.014.1-.029.224-.05.376q-.078.529-.215,1.444c-.2,1.277-.491,3.085-.846,5.315-.745,4.511-1.77,10.721-2.911,17.628l-.115-.163.961.172,18.229,3.291,5.518,1.029,1.5.294.388.083a.5.5,0,0,1,.131.038.485.485,0,0,1-.136-.009l-.393-.056-1.507-.241-5.534-.941-18.244-3.209-.961-.171-.139-.025.023-.138c1.174-6.9,2.23-13.107,3-17.614.392-2.223.709-4.027.934-5.3q.169-.908.267-1.435c.031-.15.055-.272.076-.372a.432.432,0,0,1,.035-.125" transform="translate(-266.416 -147.617)" fill="#263238"/>
            <path id="Path_830657" data-name="Path 830657" d="M596.107,307.537a3.58,3.58,0,0,1,.224-.7c.163-.443.407-1.082.739-1.86A17.54,17.54,0,0,1,600.6,299.4a10.553,10.553,0,0,1,3-2.091,12.1,12.1,0,0,1,2.843-.908,11.49,11.49,0,0,1,2-.206,3.03,3.03,0,0,1,.735.034c0,.06-1.052.015-2.693.369a11.459,11.459,0,0,0-5.686,3,18.724,18.724,0,0,0-3.544,5.459l-.82,1.82a3.651,3.651,0,0,1-.326.659" transform="translate(-271.412 -134.859)" fill="#263238"/>
            <path id="Path_830658" data-name="Path 830658" d="M546.13,319.366a9.911,9.911,0,0,1-.148-1.666c-.055-1.031-.113-2.455-.12-4.032a40.016,40.016,0,0,1,.163-4.036,7.288,7.288,0,0,1,.273-1.653,14.964,14.964,0,0,1-.073,1.668c-.056,1.027-.086,2.448-.08,4.02.014,1.527.027,2.909.037,4.027a9.6,9.6,0,0,1-.053,1.672" transform="translate(-248.535 -140.226)" fill="#5b342f"/>
            <path id="Path_830659" data-name="Path 830659" d="M551.715,309.536a7.159,7.159,0,0,1,.087,1.361c.025.839.06,2,.126,3.277s.151,2.435.212,3.273a7.147,7.147,0,0,1,.053,1.363,6.047,6.047,0,0,1-.253-1.342c-.113-.835-.229-1.995-.3-3.279s-.069-2.449-.043-3.292a6.025,6.025,0,0,1,.114-1.361" transform="translate(-251.142 -140.934)" fill="#5b342f"/>
            <path id="Path_830660" data-name="Path 830660" d="M159.14,174.137c-.728-4.848-1.928-10.148-5.128-13.862a30.469,30.469,0,0,0-7.6-6.564,21.333,21.333,0,0,0-9.558-2.966l-2.275,2.017a27.989,27.989,0,0,1,17.334,13.322,33.25,33.25,0,0,1,3.68,21.734c-.793,4.842-2.551,9.463-3.889,14.184s-2.26,9.7-1.332,14.521c4-1.555,2.872,1.075,4.561-2.874s2.567-12.637,3.547-16.818a66.4,66.4,0,0,0,.661-22.693" transform="translate(-61.275 -68.635)" fill="#cc8b64"/>
            <path id="Path_830661" data-name="Path 830661" d="M132.746,163.36c-6.138-9.538-20.461-12.478-20.461-12.478-20.972-1.5-24.717,14.614-26.834,29.291-1.317,9.127,3.525,37.639,3.525,37.639l5.139,1.856,33.746-.013c-.017-.616,2.388-5.782,2.976-7.465,3.1-15.255,5.52-43.22,1.91-48.831" transform="translate(-38.803 -68.654)" fill="#263238"/>
            <path id="Path_830662" data-name="Path 830662" d="M174.189,266.231v0h0Z" transform="translate(-79.31 -121.217)" fill="#263238"/>
            <path id="Path_830663" data-name="Path 830663" d="M124.311,159.953,123,158.7l-14.178,5.714a3.958,3.958,0,0,0-3.737,3.832l.124,46.2a12.951,12.951,0,0,0,2.5,8.343l1.991,2.629c4.541,5.994,13.88,5.5,17.475-1.1a5.03,5.03,0,0,0,.5-1.195,9.39,9.39,0,0,0,.211-1.033c.422-3.717.446-6.939.446-6.939.253-4.081.336-5.755.337-5.717,0,0,8.683-1,11.031-12.145,1.168-5.544.948-13.171.619-20.677-.454-10.388-7.659-16.664-16.01-16.653" transform="translate(-47.845 -72.258)" fill="#ffc09d"/>
            <path id="Path_830664" data-name="Path 830664" d="M133.265,203.14a1.444,1.444,0,0,1-1.463,1.384,1.38,1.38,0,0,1-1.421-1.373,1.444,1.444,0,0,1,1.461-1.385,1.381,1.381,0,0,1,1.423,1.374" transform="translate(-59.364 -91.866)" fill="#263238"/>
            <path id="Path_830665" data-name="Path 830665" d="M159.486,204.029a1.443,1.443,0,0,1-1.462,1.384,1.38,1.38,0,0,1-1.421-1.373,1.444,1.444,0,0,1,1.461-1.385,1.381,1.381,0,0,1,1.422,1.374" transform="translate(-71.303 -92.271)" fill="#263238"/>
            <path id="Path_830666" data-name="Path 830666" d="M162.3,195.635c-.188.179-1.239-.684-2.79-.758-1.548-.1-2.726.645-2.885.447-.079-.088.12-.418.634-.754a3.958,3.958,0,0,1,2.321-.59,3.8,3.8,0,0,1,2.209.837c.459.39.6.738.511.818" transform="translate(-71.303 -88.318)" fill="#263238"/>
            <path id="Path_830667" data-name="Path 830667" d="M133.459,195.667c-.206.159-1.165-.808-2.7-1.04-1.53-.254-2.778.361-2.916.148-.068-.1.162-.4.709-.685a3.959,3.959,0,0,1,2.369-.349,3.808,3.808,0,0,1,2.112,1.061c.415.434.523.8.424.866" transform="translate(-58.204 -88.189)" fill="#263238"/>
            <path id="Path_830668" data-name="Path 830668" d="M148.04,207.212a10.317,10.317,0,0,1,2.542-.328c.4-.021.777-.081.857-.348a2.016,2.016,0,0,0-.205-1.187q-.487-1.466-1.02-3.074c-1.411-4.374-2.411-7.963-2.234-8.018s1.464,3.446,2.875,7.82q.507,1.617.97,3.089a2.293,2.293,0,0,1,.127,1.564,1,1,0,0,1-.68.546,2.7,2.7,0,0,1-.677.06,10.125,10.125,0,0,1-2.553-.125" transform="translate(-67.367 -88.446)" fill="#263238"/>
            <path id="Path_830669" data-name="Path 830669" d="M135.974,247.844a28.623,28.623,0,0,1-14.847-4.768s3.393,7.968,14.693,7.48Z" transform="translate(-55.15 -110.675)" fill="#ff9b6c"/>
            <path id="Path_830670" data-name="Path 830670" d="M142.651,223.867A2.8,2.8,0,0,0,140.2,222.7a2.554,2.554,0,0,0-1.809.857,1.619,1.619,0,0,0-.215,1.842,1.878,1.878,0,0,0,2.007.616,5.888,5.888,0,0,0,2.041-1.083,1.718,1.718,0,0,0,.466-.437.519.519,0,0,0,.027-.577" transform="translate(-62.821 -101.397)" fill="#ff9b6c"/>
            <path id="Path_830671" data-name="Path 830671" d="M139.383,219.591c.253,0,.172,1.681,1.553,2.948s3.182,1.172,3.183,1.407c.019.107-.416.307-1.174.289a4.193,4.193,0,0,1-2.661-1.08,3.652,3.652,0,0,1-1.194-2.467c-.029-.706.179-1.114.294-1.1" transform="translate(-63.327 -99.981)" fill="#263238"/>
            <path id="Path_830672" data-name="Path 830672" d="M134.944,184.816c-.215.394-1.717-.039-3.551-.1-1.833-.1-3.366.209-3.547-.2-.08-.195.234-.549.883-.862a6.171,6.171,0,0,1,5.408.228c.62.367.9.747.807.934" transform="translate(-58.204 -83.384)" fill="#263238"/>
            <path id="Path_830673" data-name="Path 830673" d="M162.241,183.331c-.29.338-1.34-.081-2.624-.162-1.281-.126-2.384.118-2.616-.263-.1-.185.088-.528.58-.838a3.807,3.807,0,0,1,4.222.343c.436.385.567.755.438.921" transform="translate(-71.472 -82.677)" fill="#263238"/>
            <path id="Path_830674" data-name="Path 830674" d="M103.756,187.329s7.942,2.472,12.437-17.13c1.537-6.7,7.75-12.131,7.75-12.131l-2.52-.758s-15.662,4.413-15.926,4.61-3.951,8.1-3.951,8.1Z" transform="translate(-46.235 -71.625)" fill="#263238"/>
            <path id="Path_830675" data-name="Path 830675" d="M102.375,208.4c.04-.837-.828-2.858-1.649-3.028-2.189-.455-6.176-.477-6.494,5.126-.435,7.659,7.345,6.515,7.37,6.3.02-.171.635-5.5.772-8.394" transform="translate(-42.897 -93.424)" fill="#ffc09d"/>
            <path id="Path_830676" data-name="Path 830676" d="M101.057,215.786c-.032-.027-.138.086-.37.176a1.338,1.338,0,0,1-1-.036c-.793-.343-1.4-1.666-1.36-3.049a4.413,4.413,0,0,1,.482-1.89,1.543,1.543,0,0,1,1.062-.967.681.681,0,0,1,.766.41c.09.22.033.37.073.385.02.021.172-.118.128-.438a.853.853,0,0,0-.275-.5,1.006,1.006,0,0,0-.727-.237,1.878,1.878,0,0,0-1.461,1.108,4.537,4.537,0,0,0-.583,2.109c-.039,1.546.669,3.035,1.758,3.418a1.436,1.436,0,0,0,1.232-.133c.248-.175.3-.345.272-.36" transform="translate(-44.526 -95.452)" fill="#ff9b6c"/>
            <path id="Path_830677" data-name="Path 830677" d="M115.492,184.831a11.306,11.306,0,0,0,1.148-.231,6.919,6.919,0,0,0,2.727-1.583,9.45,9.45,0,0,0,1.422-1.666,12.782,12.782,0,0,0,1.157-2.238,48.091,48.091,0,0,0,1.65-5.57c.538-2,1.122-3.884,1.762-5.561a31.923,31.923,0,0,1,2-4.327,23.035,23.035,0,0,1,1.754-2.691c.227-.3.424-.525.549-.68a1.67,1.67,0,0,1,.2-.226,1.71,1.71,0,0,1-.172.252c-.115.163-.3.39-.517.7a26.16,26.16,0,0,0-1.692,2.714,33.586,33.586,0,0,0-1.946,4.324c-.627,1.673-1.2,3.555-1.74,5.548a46,46,0,0,1-1.673,5.588,12.8,12.8,0,0,1-1.191,2.262,9.487,9.487,0,0,1-1.466,1.679,6.785,6.785,0,0,1-2.8,1.552,4.238,4.238,0,0,1-1.168.155" transform="translate(-52.585 -72.876)" fill="#263238"/>
            <path id="Path_830678" data-name="Path 830678" d="M91.733,214.518a18.888,18.888,0,0,0,.169-2.677,41.53,41.53,0,0,0-.742-7.274l-.893-4.969a47.426,47.426,0,0,1-.686-5.739,23.443,23.443,0,0,1,.463-6.339,16.073,16.073,0,0,1,1.077-3.18,15.254,15.254,0,0,1,1.813-2.943,35.562,35.562,0,0,1,4.823-4.858c1.678-1.453,3.286-2.88,4.715-4.343a59.378,59.378,0,0,0,6.887-8.378,57.762,57.762,0,0,0,3.732-6.29c.392-.77.683-1.374.868-1.789l.214-.471a1.12,1.12,0,0,0,.066-.163,1.052,1.052,0,0,0-.086.154l-.233.462c-.2.409-.5,1.007-.9,1.77a61.357,61.357,0,0,1-3.782,6.243,60.384,60.384,0,0,1-6.9,8.326c-1.428,1.455-3.031,2.871-4.713,4.324a35.514,35.514,0,0,0-4.854,4.884,15.379,15.379,0,0,0-1.836,2.983,16.19,16.19,0,0,0-1.089,3.223,23.5,23.5,0,0,0-.456,6.395,47.19,47.19,0,0,0,.708,5.759c.33,1.784.638,3.446.918,4.965a43.281,43.281,0,0,1,.807,7.249c.01.862-.019,1.532-.049,1.984-.014.219-.025.39-.033.516a1.054,1.054,0,0,0,0,.176" transform="translate(-40.68 -70.62)" fill="#455a64"/>
            <path id="Path_830679" data-name="Path 830679" d="M87.207,215.84a18.888,18.888,0,0,0,.169-2.677,41.478,41.478,0,0,0-.742-7.274l-.893-4.969a47.425,47.425,0,0,1-.686-5.739,23.442,23.442,0,0,1,.463-6.339,16.071,16.071,0,0,1,1.077-3.18,15.253,15.253,0,0,1,1.813-2.943,35.559,35.559,0,0,1,4.823-4.858c1.678-1.453,3.286-2.88,4.715-4.343a59.424,59.424,0,0,0,6.888-8.378,57.738,57.738,0,0,0,3.731-6.29c.392-.77.683-1.374.868-1.789l.214-.471a1.122,1.122,0,0,0,.066-.163,1.083,1.083,0,0,0-.086.155c-.057.112-.134.265-.232.461-.2.409-.5,1.007-.9,1.77a61.361,61.361,0,0,1-3.782,6.243,60.415,60.415,0,0,1-6.9,8.326c-1.429,1.455-3.032,2.871-4.713,4.324a35.514,35.514,0,0,0-4.854,4.884,15.379,15.379,0,0,0-1.836,2.983,16.19,16.19,0,0,0-1.089,3.223,23.5,23.5,0,0,0-.456,6.395,47.187,47.187,0,0,0,.708,5.759c.33,1.784.638,3.447.918,4.965a43.281,43.281,0,0,1,.807,7.249c.01.862-.019,1.532-.049,1.984l-.033.516a1.053,1.053,0,0,0,0,.176" transform="translate(-38.619 -71.222)" fill="#455a64"/>
            <path id="Path_830680" data-name="Path 830680" d="M68.828,420.9s-.715-6.375,3.363-17.026a53.422,53.422,0,0,1,7.263-13.546l52.814-3.48L136.34,420.9Z" transform="translate(-31.316 -176.137)" fill="#263238"/>
            <path id="Path_830681" data-name="Path 830681" d="M103.374,311.418c.776-11.763,0-29.591,0-29.591l-8.724-14.634-11.49-1.8s-.028,8.038-6.038,9.368c-10.277,2.273-16.976-10.088-16.976-10.088-.97,0-15.594,3.071-20.229,7.483-4.761,4.532-12.643,16.552-14.864,20,0,0-15.4,22.483-17.655,28.652a11.191,11.191,0,0,0,.755,9.7C8.623,331.9,22.875,352.335,33.9,360.5l.861-1.63,5.727-9.817-14.83-24.369,17.2-18.12,3.38-3.177.971,4.279,4.174,20.111s-8.314,16.617-9.478,25.256c0,0,40.868,14.086,66.085,7.13,0,0-5.4-36.981-4.62-48.744" transform="translate(-3.024 -120.507)" fill="#e9f5dc"/>
            <path id="Path_830682" data-name="Path 830682" d="M83.9,410.21s-6.915-1.867-7.613-1.473-5.859,3.116-5.859,3.116a26.458,26.458,0,0,1-2.437,2.641s-1.772,1.682-3,1.738a5.424,5.424,0,0,1-1.944-.209l-4.783,8.418s2.839,2.7,4.34,2.677,9.837-3.531,9.837-3.531l2.013-.439s7.56,1.093,8.18-1.181l.07-.648-7.428-1.454-2.826.164,5.008-1.293s7.079.345,7.747.229,1.518-1.055,1.3-1.64l-1.461-.344s1.717-.933,1.769-1.958l-6.545-1.772s4.222-1.573,3.631-3.041" transform="translate(-26.529 -186.077)" fill="#ffc09d"/>
            <path id="Path_830683" data-name="Path 830683" d="M96.415,421.923a2.724,2.724,0,0,1-.6-.15c-.381-.112-.934-.264-1.621-.442-1.374-.357-3.283-.809-5.4-1.278a6.818,6.818,0,0,0-.768-.149,2.35,2.35,0,0,0-.728.051c-.471.13-.951.294-1.391.441-.886.3-1.674.605-2.323.886a16.42,16.42,0,0,0-1.5.734,3.433,3.433,0,0,1-.543.3,1.864,1.864,0,0,1,.479-.4,11.248,11.248,0,0,1,1.477-.83c.645-.309,1.431-.636,2.319-.955.449-.158.9-.322,1.416-.468a2.634,2.634,0,0,1,.822-.062,6.841,6.841,0,0,1,.809.153c2.12.47,4.027.958,5.391,1.37.682.206,1.229.391,1.6.538a2.157,2.157,0,0,1,.562.265" transform="translate(-37.125 -191.042)" fill="#ff9b6c"/>
            <path id="Path_830684" data-name="Path 830684" d="M91.137,416.681c-.025.046-.523-.24-1.394-.508a7.849,7.849,0,0,0-6.77,1c-.757.508-1.15.927-1.188.889a3.751,3.751,0,0,1,1.062-1.068,7.343,7.343,0,0,1,6.966-1.028,3.756,3.756,0,0,1,1.325.715" transform="translate(-37.237 -189.187)" fill="#ff9b6c"/>
            <path id="Path_830685" data-name="Path 830685" d="M212.238,297.512l-26.963-20.074-10.069-6.626-7.438-1.512,3.16,31.434h6.985L207.975,313.8l36.826,3.124.543-11.415Z" transform="translate(-76.386 -122.615)" fill="#e9f5dc"/>
            <path id="Path_830686" data-name="Path 830686" d="M181.748,337.711a2.907,2.907,0,0,1-.039-.466q-.022-.5-.058-1.338c-.045-1.162-.093-2.844-.131-4.923s-.066-4.555-.069-7.3.026-5.772-.024-8.94a70.674,70.674,0,0,0-2.149-16.041c-.476-2.022-.891-3.653-1.169-4.781l-.317-1.3a2.887,2.887,0,0,1-.092-.458,2.842,2.842,0,0,1,.148.443q.136.478.368,1.288c.312,1.12.756,2.744,1.258,4.763a67.538,67.538,0,0,1,2.238,16.082c.05,3.176.007,6.2,0,8.945s-.006,5.223.008,7.3c.017,2.058.03,3.733.04,4.923q0,.842,0,1.339a2.87,2.87,0,0,1-.018.467" transform="translate(-80.908 -133.022)" fill="#263238"/>
            <g id="Group_1077974" data-name="Group 1077974" transform="translate(94.879 155.249)" opacity="0.3">
              <g id="Group_1077973" data-name="Group 1077973">
                <g id="Group_1077972" data-name="Group 1077972" clip-path="url(#clip-path-15)">
                  <path id="Path_830687" data-name="Path 830687" d="M179.978,308.485a25.1,25.1,0,0,0-5.788-23.463,81.894,81.894,0,0,1,5.857,23" transform="translate(-174.189 -285.022)"/>
                </g>
              </g>
            </g>
            <path id="Path_830688" data-name="Path 830688" d="M111.741,149.927c-16.884,1.515-17.549,22.152-19.794,38.432-3.207,23.258,13.812,28.253,13.812,28.253L84.617,212.65s-11.564-4.682-11.48-17.52,2.1-28.551,15.561-40.494c11.623-10.312,21.978-5.413,23.043-4.708" transform="translate(-33.3 -67.454)" fill="#cc8b64"/>
            <path id="Path_830689" data-name="Path 830689" d="M132.115,253.664c-1.275-1.151-.781-1.594-4.431-1.93-4.121-.379-8.724,2.259-12.827,2.805a17.418,17.418,0,0,1-11.928-2.294c-4.037-2.692-6.24-7.334-8.254-11.747l-9.913,8.155a8.007,8.007,0,0,0-2.976,6.451,2.736,2.736,0,0,0,.235,1.222c.579.872,4.833-1.184,5.691-.584,4.542,3.176,6.476,8.22,10.636,11.881,4.865,4.281,9.364,7.677,12.789,7.559,3.361-.116,9.748-3.746,12.016-7.95,2.1-3.885,3.929-6.717,5.574-9.68.869-1.565,3.892.636,4.255-1.226a2.887,2.887,0,0,0-.868-2.662" transform="translate(-37.235 -109.501)" fill="#cc8b64"/>
            <path id="Path_830690" data-name="Path 830690" d="M73.134,309.19a2.171,2.171,0,0,1,.123.386c.075.283.173.656.3,1.121.249,1.008.6,2.414,1.024,4.139.846,3.5,1.984,8.341,3.189,13.7S80.008,338.763,80.7,342.3c.344,1.768.6,3.2.761,4.2.068.477.121.858.163,1.148a2.123,2.123,0,0,1,.038.4,2.168,2.168,0,0,1-.094-.394c-.054-.288-.126-.666-.215-1.138-.206-1.017-.5-2.436-.849-4.176-.74-3.522-1.809-8.378-3.012-13.739l-3.107-13.716-.937-4.159L73.2,309.59a2.115,2.115,0,0,1-.067-.4" transform="translate(-33.298 -140.777)" fill="#263238"/>
            <path id="Path_830691" data-name="Path 830691" d="M132.968,264.383a.459.459,0,0,1-.111.075l-.339.2a14.747,14.747,0,0,1-1.335.7,24.466,24.466,0,0,1-5.252,1.759,42.006,42.006,0,0,1-8.164.927c-3.1.1-6.5-.065-10.054-.3-1.782-.116-3.521-.289-5.187-.547s-3.257-.6-4.758-.984a42.1,42.1,0,0,1-7.717-2.827,34.39,34.39,0,0,1-4.781-2.8c-.546-.361-.933-.693-1.21-.9l-.307-.243c-.069-.056-.1-.087-.1-.09a.474.474,0,0,1,.116.067l.324.221c.288.189.684.506,1.238.851a37.393,37.393,0,0,0,4.806,2.709,43.186,43.186,0,0,0,7.695,2.754c1.495.373,3.079.7,4.736.962s3.386.424,5.163.539c3.556.231,6.947.4,10.03.318a43.136,43.136,0,0,0,8.128-.861,25.9,25.9,0,0,0,5.249-1.663c.608-.238,1.039-.51,1.353-.649l.352-.171a.471.471,0,0,1,.125-.05" transform="translate(-38.088 -118.086)" fill="#263238"/>
            <path id="Path_830692" data-name="Path 830692" d="M103.683,236.545a.435.435,0,0,1-.108-.066l-.3-.216-1.137-.852c-.492-.372-1.067-.862-1.747-1.415-.337-.28-.681-.6-1.055-.927s-.761-.682-1.154-1.072a30.434,30.434,0,0,1-4.922-5.985,18.576,18.576,0,0,1-2.755-9.029,32.435,32.435,0,0,1,1.287-9.4c.747-2.823,1.561-5.319,2.216-7.423l1.546-4.983q.26-.857.411-1.358l.114-.351a.413.413,0,0,1,.048-.117.439.439,0,0,1-.02.125l-.087.359-.359,1.373c-.327,1.189-.821,2.9-1.461,5.012s-1.425,4.614-2.155,7.43a32.681,32.681,0,0,0-1.257,9.321,18.477,18.477,0,0,0,2.7,8.906,31.015,31.015,0,0,0,4.838,5.976q.578.588,1.135,1.082c.368.332.706.655,1.037.941.669.562,1.232,1.064,1.713,1.448l1.1.893.283.238c.063.055.093.085.09.089" transform="translate(-41.202 -88.035)" fill="#263238"/>
            <path id="Path_830693" data-name="Path 830693" d="M133.179,151.4c.006.059-.879.1-2.235.5a15.119,15.119,0,0,0-2.308.887,21.34,21.34,0,0,0-2.611,1.54,30.551,30.551,0,0,0-4.192,3.592c-.995,1.009-1.574,1.672-1.609,1.643a2.542,2.542,0,0,1,.362-.5c.246-.314.62-.752,1.1-1.277a25.977,25.977,0,0,1,4.176-3.686,19.651,19.651,0,0,1,2.66-1.545,13.7,13.7,0,0,1,2.368-.844,8.129,8.129,0,0,1,.946-.2,4.841,4.841,0,0,1,.722-.09,2.611,2.611,0,0,1,.62-.015" transform="translate(-54.738 -68.93)" fill="#263238"/>
            <g id="Group_1077977" data-name="Group 1077977" transform="translate(47.637 97.608)" opacity="0.3">
              <g id="Group_1077976" data-name="Group 1077976">
                <g id="Group_1077975" data-name="Group 1077975" clip-path="url(#clip-path-16)">
                  <path id="Path_830694" data-name="Path 830694" d="M96.679,181.7A13.6,13.6,0,0,0,97,180.144a.85.85,0,0,0-1.64-.4l-3.344,8.869c-2.2,5.846-4.437,11.834-4.553,18.08s1.877,13.194,7.158,16.53l-1.535-2.734c-3.982-5.462-4.094-12.9-2.571-19.485s4.478-12.762,6.166-19.307" transform="translate(-87.456 -179.199)"/>
                </g>
              </g>
            </g>
            <path id="Path_830695" data-name="Path 830695" d="M162.064,266.57c-.026-.014.133-.247.249-.722a3.356,3.356,0,0,0-.176-2.015,4.018,4.018,0,0,0-2.089-2.1,7.124,7.124,0,0,0-3.666-.55,28.4,28.4,0,0,0-3.744.644c-1.142.26-2.16.542-3.008.8s-1.528.487-2,.646a4.374,4.374,0,0,1-.74.226,3.73,3.73,0,0,1,.7-.33c.46-.191,1.132-.45,1.977-.734s1.863-.586,3.009-.862a26.4,26.4,0,0,1,3.782-.672,7.237,7.237,0,0,1,3.8.6,4.163,4.163,0,0,1,2.162,2.263,3.325,3.325,0,0,1,.1,2.116,2.435,2.435,0,0,1-.234.531c-.072.112-.113.167-.121.162" transform="translate(-66.881 -118.775)" fill="#263238"/>
            <g id="Group_1077980" data-name="Group 1077980" transform="translate(50.505 144.452)" opacity="0.3">
              <g id="Group_1077979" data-name="Group 1077979">
                <g id="Group_1077978" data-name="Group 1077978" clip-path="url(#clip-path-17)">
                  <path id="Path_830696" data-name="Path 830696" d="M131.784,269.538a38.864,38.864,0,0,1-20.713,3.031c-7.007-.91-12.846-2.936-18.35-7.368,0,0,8.776,5.068,22.4,5.175,11.321.089,16.665-.838,16.665-.838" transform="translate(-92.721 -265.2)"/>
                </g>
              </g>
            </g>
          </g>
        </g>
      </g>
    </g>
  </g>
</svg>
