<svg xmlns="http://www.w3.org/2000/svg" xmlns:xlink="http://www.w3.org/1999/xlink" width="150" height="150" viewBox="0 0 150 150">
  <defs>
    <clipPath id="clip-path">
      <rect id="Rectangle_378109" data-name="Rectangle 378109" width="150" height="150" transform="translate(305 1185)" fill="none" stroke="#707070" stroke-width="1"/>
    </clipPath>
  </defs>
  <g id="Mask_Group_410" data-name="Mask Group 410" transform="translate(-305 -1185)" clip-path="url(#clip-path)">
    <g id="Group_1077766" data-name="Group 1077766" transform="translate(283.9 1195.464)">
      <g id="Group_1077765" data-name="Group 1077765" transform="translate(44.096 1.891)">
        <path id="Path_830343" data-name="Path 830343" d="M205.538,44.806h4.548V40.258a10.927,10.927,0,0,0-10.927-10.927h-3.539a1.008,1.008,0,0,0-1.008,1.008v3.539A10.927,10.927,0,0,0,205.538,44.806Z" transform="translate(-158.081 -23.827)" fill="#b3e59f"/>
        <g id="Group_1077762" data-name="Group 1077762" transform="translate(52.004)">
          <path id="Path_830344" data-name="Path 830344" d="M260.542,22.975h-4.548V18.427A10.927,10.927,0,0,1,266.921,7.5h3.539a1.008,1.008,0,0,1,1.008,1.008v3.539A10.927,10.927,0,0,1,260.542,22.975Z" transform="translate(-255.994 -7.5)" fill="#b3e59f"/>
        </g>
        <g id="Group_1077763" data-name="Group 1077763" transform="translate(0 84.834)">
          <path id="Path_830345" data-name="Path 830345" d="M401.222,353.517l-13.475,2.92-2.037-9.4,13.474-2.92a4.809,4.809,0,0,1,2.037,9.4Z" transform="translate(-301.005 -344.007)" fill="#edbb87"/>
          <path id="Path_830346" data-name="Path 830346" d="M53.5,353.517l13.475,2.92,2.037-9.4-13.475-2.92a4.809,4.809,0,0,0-2.037,9.4Z" transform="translate(-49.71 -344.007)" fill="#edbb87"/>
        </g>
        <g id="Group_1077764" data-name="Group 1077764" transform="translate(5.601 27.882)">
          <circle id="Ellipse_5943" data-name="Ellipse 5943" cx="46.403" cy="46.403" r="46.403" fill="#9dc6fb"/>
          <path id="Path_830347" data-name="Path 830347" d="M200.416,130.618a46.413,46.413,0,0,1-41.265,82.712,46.409,46.409,0,1,0,41.265-82.712Z" transform="translate(-137.162 -127.461)" fill="#80b4fb"/>
          <path id="Path_830348" data-name="Path 830348" d="M272.774,156.628a46.4,46.4,0,0,0-55.481-37.495c.926,3.727,1.87,8.1,2.721,13.269,1.391,8.446,1.974,15.608,6,16.9,3.92,1.263,7.106-4.327,12.542-3.272,4.561.885,5.2,5.379,9.27,8.725,5.52,4.538,15.905,5.771,24.95,1.868Z" transform="translate(-180.646 -118.097)" fill="#b3e59f"/>
          <path id="Path_830349" data-name="Path 830349" d="M344.8,168a28.621,28.621,0,0,0,6.937-1.993,46.474,46.474,0,0,0-28.864-35.368A46.373,46.373,0,0,1,344.8,168Z" transform="translate(-259.612 -127.481)" fill="#95d6a4"/>
          <path id="Path_830350" data-name="Path 830350" d="M91.2,205.5c-1.455-4.7-5.447-9.068-10.315-11.984a46.365,46.365,0,0,0,3.746,59.268c5.821-3.87,9.993-10.1,10.388-15.686.263-3.716-1.362-4.068-2.778-11.458C90.118,214.571,92.964,211.2,91.2,205.5Z" transform="translate(-71.928 -174.501)" fill="#b3e59f"/>
          <path id="Path_830351" data-name="Path 830351" d="M193.558,376.906a46.428,46.428,0,0,0,50.257-12.655c-3.1-4.6-7.78-8.871-10.425-11.285-3.667-3.346-12.408-11.321-17.8-8.737-4.215,2.02-2.156,8.47-5.825,16.827-3.819,8.7-11.011,13.02-16.209,15.849Z" transform="translate(-162.895 -286.842)" fill="#b3e59f"/>
          <path id="Path_830352" data-name="Path 830352" d="M243.816,406.082a48.46,48.46,0,0,0-5.352-6.429,46.571,46.571,0,0,1-42.442,17.694c-.854.5-1.682.964-2.464,1.389C210.426,425.173,231.8,419.987,243.816,406.082Z" transform="translate(-162.896 -328.673)" fill="#95d6a4"/>
        </g>
        <path id="Path_830353" data-name="Path 830353" d="M373.765,366.848a4.412,4.412,0,0,1,6.239,0l7.487,7.487a4.412,4.412,0,0,1-6.239,6.239l-7.487-7.487A4.412,4.412,0,0,1,373.765,366.848Z" transform="translate(-291.104 -275.29)" fill="#f1d0a4"/>
        <path id="Path_830354" data-name="Path 830354" d="M388.225,380.53a4.412,4.412,0,0,1-6.239,0l-7.487-7.487a4.393,4.393,0,0,1-.946-1.409,4.409,4.409,0,0,0,.217,6l7.487,7.487a4.411,4.411,0,0,0,7.185-4.83C388.372,380.371,388.3,380.453,388.225,380.53Z" transform="translate(-291.11 -279.836)" fill="#edbb87"/>
        <path id="Path_830355" data-name="Path 830355" d="M338.41,380.99a4.412,4.412,0,0,1,6.239,0l12.835,12.835a4.412,4.412,0,0,1-6.239,6.239L338.41,387.229A4.412,4.412,0,0,1,338.41,380.99Z" transform="translate(-264.662 -285.866)" fill="#f1d0a4"/>
        <path id="Path_830356" data-name="Path 830356" d="M357.732,401.165a4.412,4.412,0,0,1-6.239,0l-12.835-12.835a4.409,4.409,0,0,1-.761-1.022,4.411,4.411,0,0,0,.517,5.612l12.835,12.835a4.411,4.411,0,0,0,7-5.217A4.43,4.43,0,0,1,357.732,401.165Z" transform="translate(-264.667 -291.558)" fill="#edbb87"/>
        <path id="Path_830357" data-name="Path 830357" d="M313.661,405.739a4.412,4.412,0,0,1,6.239,0l12.835,12.835a4.412,4.412,0,0,1-6.239,6.239l-12.835-12.835A4.412,4.412,0,0,1,313.661,405.739Z" transform="translate(-246.152 -304.376)" fill="#f1d0a4"/>
        <path id="Path_830358" data-name="Path 830358" d="M332.742,426.5a4.412,4.412,0,0,1-6.239,0l-12.835-12.835a4.4,4.4,0,0,1-.644-.825,4.41,4.41,0,0,0,.644,5.415L326.5,431.091a4.409,4.409,0,0,0,6.883-5.415A4.4,4.4,0,0,1,332.742,426.5Z" transform="translate(-246.16 -310.655)" fill="#edbb87"/>
        <path id="Path_830359" data-name="Path 830359" d="M299.518,441.094a4.412,4.412,0,0,1,6.239,0l7.487,7.487a4.412,4.412,0,0,1-6.239,6.239l-7.487-7.487A4.412,4.412,0,0,1,299.518,441.094Z" transform="translate(-235.575 -330.818)" fill="#f1d0a4"/>
        <path id="Path_830360" data-name="Path 830360" d="M314.007,454.676a4.412,4.412,0,0,1-6.239,0l-7.487-7.487a4.393,4.393,0,0,1-.949-1.415,4.409,4.409,0,0,0,.193,6.026l7.487,7.487a4.411,4.411,0,0,0,7.188-4.824C314.137,454.535,314.075,454.608,314.007,454.676Z" transform="translate(-235.582 -335.285)" fill="#edbb87"/>
        <path id="Path_830361" data-name="Path 830361" d="M89.835,366.848a4.412,4.412,0,0,0-6.239,0l-7.487,7.487a4.412,4.412,0,0,0,6.239,6.239l7.487-7.487A4.412,4.412,0,0,0,89.835,366.848Z" transform="translate(-68.487 -275.29)" fill="#f1d0a4"/>
        <path id="Path_830362" data-name="Path 830362" d="M90.1,371.815a4.417,4.417,0,0,1-.639.816l-7.487,7.487a4.412,4.412,0,0,1-6.239,0c-.092-.092-.176-.188-.258-.286a4.41,4.41,0,0,0,6.878,5.423l7.487-7.487a4.41,4.41,0,0,0,.258-5.953Z" transform="translate(-68.496 -279.971)" fill="#edbb87"/>
        <path id="Path_830363" data-name="Path 830363" d="M109.326,380.99a4.412,4.412,0,0,0-6.239,0L90.252,393.825a4.412,4.412,0,0,0,6.239,6.239l12.835-12.835A4.412,4.412,0,0,0,109.326,380.99Z" transform="translate(-79.065 -285.866)" fill="#f1d0a4"/>
        <path id="Path_830364" data-name="Path 830364" d="M109.331,387.9,96.5,400.735a4.4,4.4,0,0,1-6.751-.619,4.41,4.41,0,0,0,6.751,5.62L109.331,392.9a4.411,4.411,0,0,0,.512-5.62A4.464,4.464,0,0,1,109.331,387.9Z" transform="translate(-79.07 -291.538)" fill="#edbb87"/>
        <path id="Path_830365" data-name="Path 830365" d="M134.074,405.739a4.412,4.412,0,0,0-6.239,0L115,418.573a4.412,4.412,0,0,0,6.239,6.239l12.835-12.835A4.412,4.412,0,0,0,134.074,405.739Z" transform="translate(-97.574 -304.376)" fill="#f1d0a4"/>
        <path id="Path_830366" data-name="Path 830366" d="M134.154,409.876a4.4,4.4,0,0,1-.678.883l-12.835,12.835a4.412,4.412,0,0,1-6.239,0c-.025-.025-.045-.052-.069-.077a4.409,4.409,0,0,0,6.917,5.357l12.835-12.835A4.41,4.41,0,0,0,134.154,409.876Z" transform="translate(-97.584 -308.437)" fill="#edbb87"/>
        <path id="Path_830367" data-name="Path 830367" d="M164.081,441.094a4.412,4.412,0,0,0-6.239,0l-7.487,7.487a4.412,4.412,0,0,0,6.239,6.239l7.487-7.487A4.411,4.411,0,0,0,164.081,441.094Z" transform="translate(-124.016 -330.818)" fill="#f1d0a4"/>
        <path id="Path_830368" data-name="Path 830368" d="M164.091,447.555l-7.487,7.487a4.383,4.383,0,0,1-6.685-.529,4.409,4.409,0,0,0,6.685,5.71l7.487-7.487a4.409,4.409,0,0,0,.445-5.71A4.361,4.361,0,0,1,164.091,447.555Z" transform="translate(-124.025 -336.221)" fill="#edbb87"/>
      </g>
      <path id="Path_830369" data-name="Path 830369" d="M143.61,84.841A48.284,48.284,0,0,0,97.991,27.923V19.256h2.657A12.832,12.832,0,0,0,113.466,6.439V2.9a2.9,2.9,0,0,0-2.9-2.9h-3.539A12.84,12.84,0,0,0,94.606,9.653,12.786,12.786,0,0,0,85.173,5.5H81.634a2.9,2.9,0,0,0-2.9,2.9v3.539A12.832,12.832,0,0,0,91.553,24.76H94.21v3.164A48.153,48.153,0,0,0,48.591,84.841a6.7,6.7,0,0,0-1.1,13.241l3.626.786a6.482,6.482,0,0,0-.731,9.644,6.263,6.263,0,0,0,2.445,1.514,6.3,6.3,0,0,0,5.517,9.243,6.3,6.3,0,0,0,9.236,5.514,6.431,6.431,0,0,0,5.975,4.289,6.284,6.284,0,0,0,4.457-1.843l4.655-4.655a48.556,48.556,0,0,0,26.867,0l4.655,4.655a6.3,6.3,0,0,0,10.431-2.446,6.3,6.3,0,0,0,9.236-5.514,6.259,6.259,0,0,0,4.4-1.845,6.39,6.39,0,0,0,1.121-7.4,6.275,6.275,0,0,0,2.444-1.517,6.54,6.54,0,0,0-.731-9.644l3.627-.786a6.7,6.7,0,0,0-1.105-13.24ZM97.991,12.818a9.046,9.046,0,0,1,9.036-9.036h2.657V6.439a9.047,9.047,0,0,1-8.584,9.025l2.741-2.427a1.891,1.891,0,1,0-2.507-2.831l-3.345,2.961Zm-7.065,2.2a1.891,1.891,0,1,0-2.674,2.674l3.283,3.283a9.046,9.046,0,0,1-9.019-9.036V9.285h2.657A9.046,9.046,0,0,1,94.209,18.3ZM48.288,94.387a2.916,2.916,0,0,1,1.166-5.714,48.2,48.2,0,0,0,2.22,6.448Zm4.767,11.451a2.544,2.544,0,0,1,0-3.565l7.487-7.487a2.521,2.521,0,0,1,3.565,3.565l-7.487,7.487A2.545,2.545,0,0,1,53.055,105.838Zm3.565,8.913a2.524,2.524,0,0,1,0-3.565L69.455,98.351a2.537,2.537,0,0,1,3.565,0h0a2.542,2.542,0,0,1,0,3.565L60.185,114.751A2.545,2.545,0,0,1,56.62,114.751Zm9.8,6.239a2.521,2.521,0,0,1-3.565-3.565L75.694,104.59a2.521,2.521,0,0,1,3.565,3.565Zm16.4-3.922-7.487,7.487a2.521,2.521,0,0,1-3.566-3.564l7.488-7.488a2.521,2.521,0,0,1,3.565,3.565Zm2.674-6.239a6.272,6.272,0,0,0-2.446-1.518,6.3,6.3,0,0,0-5.514-9.236A6.306,6.306,0,0,0,68.3,94.557a6.262,6.262,0,0,0-1.514-2.445h0a6.3,6.3,0,0,0-8.913,0l-2.356,2.356a44.493,44.493,0,0,1,3.648-43.1c3.945,2.736,6.885,6.369,8,9.963a16.373,16.373,0,0,1,.362,6.7,44.271,44.271,0,0,0,.631,13.233,39.537,39.537,0,0,0,1.67,6.242,1.891,1.891,0,0,0,3.559-1.279,35.924,35.924,0,0,1-1.515-5.674,40.42,40.42,0,0,1-.575-12.224,19.785,19.785,0,0,0-.52-8.12c-1.368-4.418-4.734-8.667-9.361-11.891A44.613,44.613,0,0,1,84.947,33.08c1.087,4.585,1.982,9.514,2.731,14.325,1.209,7.757,2.164,13.884,6.8,15.378,2.665.859,4.947-.432,6.961-1.57,1.877-1.061,3.65-2.063,5.8-1.645,3.282.637,5.43,5.864,8.43,8.329,4.409,3.624,10.855,5.064,17.307,4.53a1.891,1.891,0,1,0-.312-3.768c-5.754.476-11.208-.9-14.593-3.683-3.756-3.087-4.567-8.045-10.11-9.12-3.519-.683-6.215.841-8.382,2.066-1.769,1-2.9,1.6-3.941,1.263-2.423-.781-3.3-6.406-4.228-12.361-.76-4.873-1.672-9.886-2.768-14.53a44.524,44.524,0,0,1,48.042,62.176l-2.356-2.356a6.3,6.3,0,0,0-8.913,0h0a6.265,6.265,0,0,0-1.514,2.445,6.3,6.3,0,0,0-3.165-.721c-4.254-3.858-12.952-11.36-19.162-8.383-3.266,1.565-3.765,4.806-4.342,8.56a34.506,34.506,0,0,1-2.4,9.212,26.668,26.668,0,0,1-7.823,10.054,6.235,6.235,0,0,0-1.515-2.452Zm21.2,0a6.31,6.31,0,0,0-.25,8.648,44.851,44.851,0,0,1-20.7,0,6.275,6.275,0,0,0,.819-1.16A31.578,31.578,0,0,0,98.3,104.747a38.192,38.192,0,0,0,2.673-10.158c.522-3.392.835-5.052,2.238-5.725,3.474-1.664,9.857,3.285,13.593,6.535a6.27,6.27,0,0,0-2.143,4.675,6.3,6.3,0,0,0-5.514,9.236A6.279,6.279,0,0,0,106.7,110.829Zm13.726,13.726a2.524,2.524,0,0,1-3.565,0l-7.487-7.487a2.524,2.524,0,0,1,0-3.565h0a2.537,2.537,0,0,1,3.565,0l7.488,7.488A2.547,2.547,0,0,1,120.428,124.555Zm8.913-3.565a2.524,2.524,0,0,1-3.565,0l-12.835-12.835a2.521,2.521,0,0,1,3.565-3.565l12.835,12.835A2.524,2.524,0,0,1,129.342,120.99Zm6.239-6.239a2.546,2.546,0,0,1-3.565,0l-12.835-12.835a2.539,2.539,0,0,1,0-3.565h0a2.537,2.537,0,0,1,3.565,0c4.033,4.073,8.978,8.978,12.835,12.835A2.524,2.524,0,0,1,135.581,114.751Zm3.565-8.913a2.524,2.524,0,0,1-3.565,0l-7.487-7.487a2.524,2.524,0,0,1,0-3.565h0a2.542,2.542,0,0,1,3.565,0c1.471,1.471,5.928,5.943,7.487,7.487A2.547,2.547,0,0,1,139.146,105.838Zm4.768-11.452-3.387.734a48.219,48.219,0,0,0,2.22-6.448,2.916,2.916,0,0,1,1.167,5.714Z" transform="translate(0)"/>
    </g>
  </g>
</svg>
