<svg xmlns="http://www.w3.org/2000/svg" xmlns:xlink="http://www.w3.org/1999/xlink" width="150" height="150" viewBox="0 0 150 150">
  <defs>
    <clipPath id="clip-path">
      <rect id="Rectangle_378115" data-name="Rectangle 378115" width="150" height="150" transform="translate(303 1185)" fill="none" stroke="#707070" stroke-width="1"/>
    </clipPath>
  </defs>
  <g id="Mask_Group_412" data-name="Mask Group 412" transform="translate(-303 -1185)" clip-path="url(#clip-path)">
    <g id="Group_1077769" data-name="Group 1077769" transform="translate(320.072 1202.045)">
      <circle id="Ellipse_5944" data-name="Ellipse 5944" cx="16.778" cy="16.778" r="16.778" transform="translate(78.435 18.778)" fill="#eaeaea"/>
      <path id="Path_830394" data-name="Path 830394" d="M65.643,20.593H60.05V15H52.593v5.593H47V28.05h5.593v5.593H60.05V28.05h5.593Z" transform="translate(38.892 11.235)" fill="#ff8088"/>
      <circle id="Ellipse_5945" data-name="Ellipse 5945" cx="16.778" cy="16.778" r="16.778" transform="translate(3.865 18.778)" fill="#a7dbfc"/>
      <path id="Path_830395" data-name="Path 830395" d="M9,19H20.185v9.321H9Z" transform="translate(6.05 14.692)" fill="#eaeaea"/>
      <path id="Path_830396" data-name="Path 830396" d="M16.321,15,7,22.457H25.642Z" transform="translate(4.322 11.235)" fill="#ff8088"/>
      <circle id="Ellipse_5946" data-name="Ellipse 5946" cx="14.914" cy="14.914" r="14.914" transform="translate(43.014 3.864)" fill="#ffe990"/>
      <g id="Group_1077768" data-name="Group 1077768" transform="translate(4.151 41.149)">
        <path id="Path_830397" data-name="Path 830397" d="M43.083,61.066s-6.756-9.545-6.756-9.545A3.492,3.492,0,0,0,30.354,55.1l2.63,5.406-7.832-2.614-5.22-10.436-1.324-5.3a2.852,2.852,0,0,0-5.58,1.16l1.227,7.364L9.349,44.959a3.521,3.521,0,0,0-5.559,4.31L14.515,64.591a3.7,3.7,0,0,0,.6.667L22.5,71.72c2.64,2.31,7.429,5.039,7.146,8.98l16.389.313c-.4-7.891,2.006-12.973-2.949-19.947Z" transform="translate(-3.154 -8.308)" fill="#ffd6a8"/>
        <path id="Path_830398" data-name="Path 830398" d="M79.574,44.319a3.522,3.522,0,0,0-4.627.638L70.04,50.682l1.227-7.364a2.851,2.851,0,0,0-5.578-1.158l-1.325,5.3L59.146,57.893l-7.832,2.614,2.63-5.406a3.492,3.492,0,0,0-5.973-3.579s-6.752,9.543-6.756,9.545c-4.955,6.974-2.548,12.056-2.951,19.947L54.651,80.7c-.283-3.941,4.506-6.67,7.146-8.98l7.384-6.461a3.7,3.7,0,0,0,.6-.667L80.5,49.269A3.519,3.519,0,0,0,79.574,44.319Z" transform="translate(26.985 -8.308)" fill="#ffd6a8"/>
        <circle id="Ellipse_5947" data-name="Ellipse 5947" cx="9.321" cy="9.321" r="9.321" transform="translate(44.455)" fill="#ffd6a8"/>
      </g>
      <path id="Path_830399" data-name="Path 830399" d="M45.572,31.833a9.284,9.284,0,0,0-18.546,0,14.889,14.889,0,0,1,18.546,0Z" transform="translate(21.629 18.149)" fill="#999"/>
      <path id="Path_830400" data-name="Path 830400" d="M51.1,57.235H25V44.185A11.185,11.185,0,0,1,36.186,33h3.728A11.185,11.185,0,0,1,51.1,44.185Z" transform="translate(19.878 26.792)" fill="#eaeaea"/>
      <path id="Path_830401" data-name="Path 830401" d="M33.729,33,30,44.185l3.729,5.593,3.729-5.593Z" transform="translate(24.199 26.792)" fill="#a7dbfc"/>
      <path id="Path_830402" data-name="Path 830402" d="M42,28.642A18.642,18.642,0,1,0,60.643,10,18.664,18.664,0,0,0,42,28.642Zm33.556,0A14.914,14.914,0,1,1,60.643,13.728,14.931,14.931,0,0,1,75.556,28.642Z" transform="translate(34.57 6.914)"/>
      <path id="Path_830403" data-name="Path 830403" d="M20.642,47.285A18.642,18.642,0,1,0,2,28.642,18.664,18.664,0,0,0,20.642,47.285Zm0-33.556A14.914,14.914,0,1,1,5.728,28.642,14.931,14.931,0,0,1,20.642,13.728Z" transform="translate(0 6.914)"/>
      <path id="Path_830404" data-name="Path 830404" d="M9.728,25.185v7.457a1.864,1.864,0,0,0,1.864,1.864H22.778a1.864,1.864,0,0,0,1.864-1.864V25.185h1.864a1.865,1.865,0,0,0,1.165-3.32L18.35,14.408a1.867,1.867,0,0,0-2.33,0L6.7,21.865a1.865,1.865,0,0,0,1.165,3.32Zm11.185,5.593H13.457V25.185h7.457ZM17.185,18.252l4.006,3.2H13.179Z" transform="translate(3.458 10.371)"/>
      <path id="Path_830405" data-name="Path 830405" d="M34.593,21.778a1.866,1.866,0,0,1-1.864-1.864H29a5.585,5.585,0,0,0,3.729,5.25v2.207h3.728V25.164a5.579,5.579,0,0,0-1.864-10.842,1.864,1.864,0,1,1,1.864-1.864h3.728a5.585,5.585,0,0,0-3.728-5.25V5H32.729V7.207A5.579,5.579,0,0,0,34.593,18.05a1.864,1.864,0,1,1,0,3.728Z" transform="translate(23.335 2.593)"/>
      <path id="Path_830406" data-name="Path 830406" d="M39.778,35.556A16.778,16.778,0,1,0,23,18.778,16.8,16.8,0,0,0,39.778,35.556Zm0-29.828a13.05,13.05,0,1,1-13.05,13.05A13.065,13.065,0,0,1,39.778,5.728Z" transform="translate(18.15)"/>
      <path id="Path_830407" data-name="Path 830407" d="M51.593,15.864v3.729H47.864A1.864,1.864,0,0,0,46,21.457v7.457a1.864,1.864,0,0,0,1.864,1.864h3.729v3.729a1.864,1.864,0,0,0,1.864,1.864h7.457a1.864,1.864,0,0,0,1.864-1.864V30.778h3.729a1.864,1.864,0,0,0,1.864-1.864V21.457a1.864,1.864,0,0,0-1.864-1.864H62.778V15.864A1.864,1.864,0,0,0,60.914,14H53.457A1.864,1.864,0,0,0,51.593,15.864Zm3.729,5.593V17.729H59.05v3.729a1.864,1.864,0,0,0,1.864,1.864h3.729V27.05H60.914a1.864,1.864,0,0,0-1.864,1.864v3.729H55.321V28.914a1.864,1.864,0,0,0-1.864-1.864H49.729V23.321h3.729A1.864,1.864,0,0,0,55.321,21.457Z" transform="translate(38.027 10.371)"/>
      <path id="Path_830408" data-name="Path 830408" d="M83.623,47.119a5.385,5.385,0,0,0-9.381-2.511l-.554.645.127-.764a4.715,4.715,0,0,0-9.226-1.915l-1.275,5.1-4.782,9.564-3.05,1.018.841-1.454a5.357,5.357,0,0,0-9.165-5.488c-6.461,9.131-6.754,9.545-6.752,9.545v0c-3.96,5.572-3.669,11.97-3.387,18.156.043.977.089,1.952.116,2.921l3.729-.1c-.028-.99-.073-1.987-.117-2.988-.265-5.813-.513-11.3,2.707-15.833l6.75-9.543a1.636,1.636,0,0,1,1.331-.688,1.609,1.609,0,0,1,1.385.772,1.567,1.567,0,0,1,.123,1.484l-4,6.909a5.612,5.612,0,0,0-.751,2.8v2.224h3.729V64.74a1.859,1.859,0,0,1,.252-.932l.4-.686,8.419-2.809.06.03.03-.06,5.08-1.7a5.6,5.6,0,0,0,2.282-1.6l8.531-9.951a1.664,1.664,0,0,1,2.179-.3,1.656,1.656,0,0,1,.436,2.328L68.961,64.391a1.907,1.907,0,0,1-.3.33L61.28,71.183c-.494.431-1.064.876-1.665,1.344C56.759,74.76,53.2,77.54,53.5,81.7l3.717-.268c-.157-2.177,2.42-4.193,4.694-5.969.656-.513,1.281-1,1.821-1.476l7.388-6.463a5.449,5.449,0,0,0,.895-1L82.743,51.2a5.351,5.351,0,0,0,.88-4.085ZM69,50.728l-3.289,3.838a1.811,1.811,0,0,1-.692.505l-1.478.494,3.2-6.409a1.839,1.839,0,0,0,.14-.382l1.324-5.294a.988.988,0,0,1,.958-.751.986.986,0,0,1,.973,1.15Z" transform="translate(30.139 31.977)"/>
      <path id="Path_830409" data-name="Path 830409" d="M13.7,66.52a5.594,5.594,0,0,0,.9,1.007l7.384,6.461c.541.474,1.165.964,1.821,1.476,2.274,1.777,4.851,3.79,4.694,5.969l3.717.268c.3-4.159-3.257-6.941-6.113-9.174-.6-.466-1.171-.913-1.665-1.344l-7.381-6.458a1.911,1.911,0,0,1-.3-.337L6.029,49.067a1.654,1.654,0,0,1,.436-2.327,1.663,1.663,0,0,1,2.179.3l8.527,9.95a5.632,5.632,0,0,0,2.349,1.624l5.017,1.674.03.058.058-.03,8.419,2.809.4.686a1.864,1.864,0,0,1,.252.932v2.22h3.729V64.74a5.628,5.628,0,0,0-.749-2.8l-3.941-6.808a1.628,1.628,0,0,1,2.785-1.668l6.756,9.549c3.218,4.526,2.968,10.017,2.7,15.827-.045,1-.091,2-.117,2.988l3.729.1c.026-.969.071-1.943.116-2.921.28-6.186.572-12.584-3.358-18.111l-6.786-9.59A5.356,5.356,0,0,0,29.448,56.9l.783,1.353-3.046-1.016L22.4,47.672l-1.275-5.1A4.715,4.715,0,0,0,11.9,44.492l.127.762-.554-.645a5.385,5.385,0,0,0-8.5,6.594Zm2.1-23.443a.98.98,0,0,1,.755-.349.993.993,0,0,1,.96.748l1.324,5.3a1.952,1.952,0,0,0,.14.382l3.2,6.411-1.415-.472a1.855,1.855,0,0,1-.759-.531L16.72,50.728,15.58,43.879a.98.98,0,0,1,.218-.8Z" transform="translate(0 31.977)"/>
      <path id="Path_830410" data-name="Path 830410" d="M25.864,68.606h26.1a1.864,1.864,0,0,0,1.864-1.864V53.692a13.062,13.062,0,0,0-7.759-11.918,11.186,11.186,0,1,0-14.31,0A13.062,13.062,0,0,0,24,53.692v13.05A1.864,1.864,0,0,0,25.864,68.606Zm13.05-42.878a7.424,7.424,0,0,1,5.893,2.94,16.679,16.679,0,0,0-11.786,0A7.424,7.424,0,0,1,38.914,25.729Zm-7.407,7.957a12.786,12.786,0,0,1,14.813,0,7.421,7.421,0,0,1-14.813,0Zm9.077,19.731-1.67,2.507-1.67-2.507,1.67-5.015Zm-12.856.276A9.3,9.3,0,0,1,36.3,44.446L33.416,53.1a1.863,1.863,0,0,0,.216,1.624l3.729,5.593a1.865,1.865,0,0,0,3.1,0l3.729-5.593A1.863,1.863,0,0,0,44.41,53.1l-2.886-8.656A9.3,9.3,0,0,1,50.1,53.692V64.878H27.728Z" transform="translate(19.014 17.285)"/>
    </g>
  </g>
</svg>
