<svg xmlns="http://www.w3.org/2000/svg" xmlns:xlink="http://www.w3.org/1999/xlink" width="150" height="150" viewBox="0 0 150 150">
  <defs>
    <clipPath id="clip-path">
      <rect id="Rectangle_380772" data-name="Rectangle 380772" width="150" height="150" transform="translate(305 1185)" fill="none" stroke="#707070" stroke-width="1"/>
    </clipPath>
  </defs>
  <g id="Mask_Group_448" data-name="Mask Group 448" transform="translate(-305 -1185)" clip-path="url(#clip-path)">
    <g id="Group_1077794" data-name="Group 1077794" transform="translate(325.985 1208.987)">
      <g id="Group_1077791" data-name="Group 1077791" transform="translate(1.583 1.581)">
        <g id="Group_1077780" data-name="Group 1077780" transform="translate(0 9.075)">
          <g id="Group_1077779" data-name="Group 1077779">
            <g id="Group_1077774" data-name="Group 1077774">
              <g id="Group_1077773" data-name="Group 1077773">
                <g id="Group_1077771" data-name="Group 1077771">
                  <path id="Path_830415" data-name="Path 830415" d="M34.3,109.506a5.263,5.263,0,0,0,2.115-7.136l-4.468-8.232A41.273,41.273,0,0,0,37.236,83.1a47.4,47.4,0,0,0,1.577-7.84,8.258,8.258,0,0,0-2.367-6.8L18.495,50.512,7.5,61.507,28.522,79.686,23.628,94.365,32,108.858a1.712,1.712,0,0,0,2.3.648Z" transform="translate(-7.5 -50.512)" fill="#a34f41"/>
                  <path id="Path_830416" data-name="Path 830416" d="M74.707,237.943l-1.388,4.684,4.468,8.232A5.263,5.263,0,0,1,75.671,258a1.712,1.712,0,0,1-2.3-.648L65,242.854l2.4-8.086Z" transform="translate(-52.866 -195.891)" fill="#a34f41"/>
                  <path id="Path_830417" data-name="Path 830417" d="M58.145,177.683l-7.587-2.249-7.123,24.032,8.374,14.493a1.712,1.712,0,0,0,2.3.648,5.263,5.263,0,0,0,2.115-7.136l-4.468-8.232Z" transform="translate(-35.854 -149.076)" fill="#a34f41"/>
                </g>
                <g id="Group_1077772" data-name="Group 1077772" transform="translate(11.917 20.87)">
                  <path id="Path_830418" data-name="Path 830418" d="M71.112,178.072l-6.765-10.839-.361-7.975a6.075,6.075,0,0,1,1.537-4.32l3.5-3.925,1.819-.987a4.949,4.949,0,0,1,6.71,1.989c1.494,2.883-.285,9.947-3.539,11.939-.311.19-1.281.7-1.281.7l3.319,6.115a5.891,5.891,0,0,1-2.367,7.987A1.944,1.944,0,0,1,71.112,178.072Z" transform="translate(-63.98 -149.425)" fill="#ba5d4f"/>
                </g>
              </g>
            </g>
            <g id="Group_1077778" data-name="Group 1077778" transform="translate(73.883 21.364)">
              <g id="Group_1077777" data-name="Group 1077777">
                <g id="Group_1077775" data-name="Group 1077775">
                  <path id="Path_830419" data-name="Path 830419" d="M362.232,182.949a5.263,5.263,0,0,0-2.115,7.136l4.468,8.232a41.274,41.274,0,0,0-5.288,11.035,47.408,47.408,0,0,0-1.577,7.84,8.258,8.258,0,0,0,2.367,6.8l17.564,17.564,10.995-11-20.635-17.792,4.895-14.679L364.532,183.6a1.713,1.713,0,0,0-2.3-.648Z" transform="translate(-357.663 -176.205)" fill="#6c3328"/>
                  <path id="Path_830420" data-name="Path 830420" d="M388.923,188.261l1.388-4.684-4.468-8.232a5.263,5.263,0,0,1,2.115-7.136,1.712,1.712,0,0,1,2.3.648l8.374,14.493-2.4,8.086Z" transform="translate(-379.394 -164.575)" fill="#6c3328"/>
                  <path id="Path_830421" data-name="Path 830421" d="M400.687,188.895l7.587,2.249,7.123-24.032-8.374-14.493a1.712,1.712,0,0,0-2.3-.648,5.263,5.263,0,0,0-2.115,7.136l4.468,8.232Z" transform="translate(-391.609 -151.763)" fill="#6c3328"/>
                </g>
                <g id="Group_1077776" data-name="Group 1077776" transform="translate(5.342 15.306)">
                  <path id="Path_830422" data-name="Path 830422" d="M389.96,225.22l6.765,10.839.361,7.975a6.075,6.075,0,0,1-1.537,4.32l-3.5,3.925-1.819.987a4.949,4.949,0,0,1-6.71-1.989c-1.494-2.883.285-9.947,3.539-11.939.311-.19,1.281-.7,1.281-.7l-3.319-6.116a5.891,5.891,0,0,1,2.367-7.987A1.944,1.944,0,0,1,389.96,225.22Z" transform="translate(-382.981 -224.305)" fill="#873f30"/>
                </g>
              </g>
            </g>
          </g>
        </g>
        <g id="Group_1077790" data-name="Group 1077790" transform="translate(9.075)">
          <g id="Group_1077789" data-name="Group 1077789">
            <g id="Group_1077784" data-name="Group 1077784" transform="translate(0 73.496)">
              <g id="Group_1077783" data-name="Group 1077783">
                <g id="Group_1077781" data-name="Group 1077781">
                  <path id="Path_830423" data-name="Path 830423" d="M109.506,360.4a5.263,5.263,0,0,0-7.136-2.115l-8.232,4.468A41.272,41.272,0,0,0,83.1,357.461a47.4,47.4,0,0,0-7.84-1.577,8.258,8.258,0,0,0-6.8,2.367L50.512,376.2l11,10.995,18.179-21.022,14.679,4.895,14.493-8.374a1.713,1.713,0,0,0,.648-2.3Z" transform="translate(-50.512 -355.828)" fill="#ffcec0"/>
                  <path id="Path_830424" data-name="Path 830424" d="M237.943,387.087l4.684,1.388,8.232-4.468A5.263,5.263,0,0,1,258,386.123a1.712,1.712,0,0,1-.648,2.3L242.854,396.8l-8.086-2.4Z" transform="translate(-195.891 -377.558)" fill="#ffcec0"/>
                  <path id="Path_830425" data-name="Path 830425" d="M177.683,398.851l-2.249,7.587,24.032,7.123,14.493-8.374a1.712,1.712,0,0,0,.648-2.3,5.263,5.263,0,0,0-7.136-2.115l-8.232,4.468Z" transform="translate(-149.076 -389.773)" fill="#ffcec0"/>
                </g>
                <g id="Group_1077782" data-name="Group 1077782" transform="translate(20.87 5.342)">
                  <path id="Path_830426" data-name="Path 830426" d="M178.072,388.124l-10.839,6.765-7.975.361a6.075,6.075,0,0,1-4.32-1.537l-3.925-3.5-.987-1.819a4.949,4.949,0,0,1,1.989-6.71c2.883-1.494,9.947.285,11.939,3.539.19.311.7,1.281.7,1.281l6.115-3.319a5.891,5.891,0,0,1,7.987,2.367,1.944,1.944,0,0,1-.679,2.576Z" transform="translate(-149.425 -381.145)" fill="#ffdfd0"/>
                </g>
              </g>
            </g>
            <g id="Group_1077788" data-name="Group 1077788" transform="translate(21.364)">
              <g id="Group_1077787" data-name="Group 1077787">
                <g id="Group_1077785" data-name="Group 1077785">
                  <path id="Path_830427" data-name="Path 830427" d="M182.95,33.913a5.263,5.263,0,0,0,7.136,2.115l8.232-4.468a41.273,41.273,0,0,0,11.035,5.288,47.4,47.4,0,0,0,7.84,1.577,8.258,8.258,0,0,0,6.8-2.367L241.557,18.5l-11-11L212.77,28.135,198.091,23.24,183.6,31.614A1.713,1.713,0,0,0,182.95,33.913Z" transform="translate(-176.206 -7.5)" fill="#f9a08f"/>
                  <path id="Path_830428" data-name="Path 830428" d="M188.261,72.871l-4.684-1.388-8.232,4.468a5.263,5.263,0,0,1-7.136-2.115,1.712,1.712,0,0,1,.648-2.3l14.493-8.374,8.086,2.4Z" transform="translate(-164.575 -51.418)" fill="#f9a08f"/>
                  <path id="Path_830429" data-name="Path 830429" d="M188.895,56.308l2.249-7.587L167.112,41.6l-14.493,8.374a1.712,1.712,0,0,0-.648,2.3,5.263,5.263,0,0,0,7.136,2.115l8.232-4.468Z" transform="translate(-151.763 -34.404)" fill="#f9a08f"/>
                </g>
                <g id="Group_1077786" data-name="Group 1077786" transform="translate(15.306 11.53)">
                  <path id="Path_830430" data-name="Path 830430" d="M225.22,69.276l10.839-6.765,7.975-.361a6.075,6.075,0,0,1,4.32,1.537l3.925,3.5.987,1.819a4.949,4.949,0,0,1-1.989,6.71c-2.883,1.494-9.947-.285-11.939-3.539-.19-.311-.7-1.281-.7-1.281l-6.116,3.319a5.891,5.891,0,0,1-7.987-2.367,1.944,1.944,0,0,1,.679-2.576Z" transform="translate(-224.305 -62.144)" fill="#fdb0a0"/>
                </g>
              </g>
            </g>
          </g>
        </g>
      </g>
      <g id="Group_1077793" data-name="Group 1077793" transform="translate(0.001 -0.002)">
        <path id="Path_830431" data-name="Path 830431" d="M212.514,217.873a8.757,8.757,0,0,0-12.384-12.384,8.757,8.757,0,0,0-12.384,12.384l11.2,11.2a1.68,1.68,0,0,0,2.377,0Z" transform="translate(-146.115 -160.114)" fill="#e86266"/>
        <path id="Path_830432" data-name="Path 830432" d="M255.41,217.887l-11.2,11.2a1.68,1.68,0,0,1-2.376,0l-2.282-2.282,10.926-10.927c3.413-3.42,4.316-8.054.9-11.471a8.768,8.768,0,0,0-1.917-1.453,8.757,8.757,0,0,1,5.947,14.936Z" transform="translate(-189.011 -160.129)" fill="#d6363a"/>
        <g id="Group_1077792" data-name="Group 1077792" transform="translate(0 0)">
          <path id="Path_830433" data-name="Path 830433" d="M19.013,111.92a3.306,3.306,0,0,0,1.581-.4,6.806,6.806,0,0,0,2.89-3.031c.029,0,.058,0,.087,0a3.3,3.3,0,0,0,1.573-.4,6.8,6.8,0,0,0,2.733-2.726,3.288,3.288,0,0,0,1.263-.384A6.845,6.845,0,0,0,31.89,95.7l-4.011-7.391a43.1,43.1,0,0,0,4.958-10.672,48.479,48.479,0,0,0,1.632-8.106,9.785,9.785,0,0,0-2.82-8.1L13.7,43.475a1.582,1.582,0,0,0-2.238,2.238L29.411,63.664a6.637,6.637,0,0,1,1.914,5.5A45.3,45.3,0,0,1,29.8,76.735a38.973,38.973,0,0,1-3.505,8.08l-1.9-3.5c3.008-1.872,4.713-6.683,4.79-10.276a1.582,1.582,0,0,0-1.548-1.616h-.035a1.583,1.583,0,0,0-1.581,1.548c-.067,3.1-1.585,6.608-3.316,7.667-.181.111-.8.442-1.185.641a1.582,1.582,0,0,0-.66,2.158l3.319,6.116A4.314,4.314,0,0,1,22.453,93.4a.362.362,0,0,1-.479-.126L15.429,82.786l-.342-7.56a4.468,4.468,0,0,1,1.137-3.2l3.32-3.719,2.725-1.479a1.582,1.582,0,1,0-1.509-2.782l-2.967,1.611a1.586,1.586,0,0,0-.426.337l-.578.647L2.618,54.392a1.582,1.582,0,0,0-2.07,2.394L14.68,69.007l-.818.916a7.617,7.617,0,0,0-1.937,5.446l.187,4.123c-.012.032-1.766,5.941-1.766,5.941a1.582,1.582,0,1,0,3.035.9l.171-.578,3.358,5.38-.94,3.173a1.582,1.582,0,0,0,.126,1.2l4.468,8.232a3.681,3.681,0,0,1-1.479,4.991.131.131,0,0,1-.174-.049l-8.033-13.9.383-1.293a1.582,1.582,0,1,0-3.034-.9l-.576,1.945A1.583,1.583,0,0,0,7.8,95.775l8.374,14.493a3.275,3.275,0,0,0,2.843,1.652ZM29.4,100.008a3.666,3.666,0,0,1-.72,1.331,6.806,6.806,0,0,0-.788-2.532L25.74,94.839a7.442,7.442,0,0,0,1.2-1.625l2.167,3.992a3.657,3.657,0,0,1,.294,2.8Zm-9.751-4.58a3.519,3.519,0,0,0,3.4,1.093l2.06,3.8a3.684,3.684,0,0,1-.962,4.646,6.8,6.8,0,0,0-.806-2.73Z" transform="translate(-0.001 -33.936)"/>
          <path id="Path_830434" data-name="Path 830434" d="M372.58,176.616l4.466-14.993a1.583,1.583,0,0,0-.147-1.241l-8.374-14.493a3.277,3.277,0,0,0-4.424-1.247,6.794,6.794,0,0,0-2.895,3.031,3.285,3.285,0,0,0-1.655.4,6.8,6.8,0,0,0-2.734,2.728,3.288,3.288,0,0,0-1.262.383,6.845,6.845,0,0,0-2.751,9.282l4.011,7.391a42.919,42.919,0,0,0-4.958,10.672,48.477,48.477,0,0,0-1.632,8.106,9.785,9.785,0,0,0,2.82,8.1L370.609,212.3a1.583,1.583,0,0,0,2.238-2.238l-17.564-17.564a6.637,6.637,0,0,1-1.914-5.5,45.3,45.3,0,0,1,1.523-7.575,39.314,39.314,0,0,1,3.507-8.077l1.9,3.492c-3.008,1.872-4.713,6.683-4.79,10.276a1.582,1.582,0,1,0,3.164.068c.067-3.1,1.585-6.608,3.316-7.667.181-.111.8-.442,1.185-.641a1.582,1.582,0,0,0,.66-2.159l-3.32-6.116a4.314,4.314,0,0,1,1.732-5.842.362.362,0,0,1,.479.126l6.545,10.488.342,7.561a4.469,4.469,0,0,1-1.136,3.195l-3.32,3.719-2.725,1.479a1.582,1.582,0,1,0,1.51,2.782L366.9,190.5a1.587,1.587,0,0,0,.426-.337l.587-.657L381.69,201.38a1.583,1.583,0,0,0,2.067-2.4l-13.734-11.842.809-.906a7.616,7.616,0,0,0,1.937-5.446Zm-17.288-20.467a3.666,3.666,0,0,1,.72-1.331,6.807,6.807,0,0,0,.789,2.532l2.154,3.968a7.44,7.44,0,0,0-1.2,1.625l-2.167-3.992A3.656,3.656,0,0,1,355.292,156.149Zm6.351,3.487-2.06-3.8a3.683,3.683,0,0,1,.958-4.643,6.825,6.825,0,0,0,.809,2.727l3.7,6.811A3.535,3.535,0,0,0,361.642,159.636Zm6.143,5.387.94-3.173a1.582,1.582,0,0,0-.126-1.2l-4.468-8.232a3.68,3.68,0,0,1,1.479-4.99.131.131,0,0,1,.174.049l8.033,13.9-2.675,9.027Z" transform="translate(-276.276 -113.803)"/>
          <path id="Path_830435" data-name="Path 830435" d="M79.6,370.782l14.936,4.427a1.583,1.583,0,0,0,1.241-.147l14.493-8.374a3.277,3.277,0,0,0,1.247-4.424,6.807,6.807,0,0,0-3.031-2.89,3.275,3.275,0,0,0-.4-1.659,6.8,6.8,0,0,0-2.726-2.733,3.282,3.282,0,0,0-.384-1.263,6.846,6.846,0,0,0-9.282-2.751l-7.391,4.011a43.616,43.616,0,0,0-10.672-4.958,48.5,48.5,0,0,0-8.106-1.632,9.786,9.786,0,0,0-8.1,2.82L43.477,369.16a1.583,1.583,0,0,0,2.238,2.238l17.952-17.952a6.638,6.638,0,0,1,5.5-1.914,45.343,45.343,0,0,1,7.575,1.523,39.29,39.29,0,0,1,8.077,3.507l-3.493,1.9c-1.872-3.008-6.683-4.713-10.276-4.791h-.035a1.582,1.582,0,0,0-.034,3.165c3.1.067,6.608,1.585,7.668,3.316.111.181.442.8.641,1.185a1.583,1.583,0,0,0,2.159.66l6.116-3.319A4.308,4.308,0,0,1,93.4,360.4a.361.361,0,0,1-.126.478l-10.487,6.545-7.561.342a4.468,4.468,0,0,1-3.195-1.136l-3.72-3.32-1.479-2.725a1.583,1.583,0,0,0-2.782,1.51l1.611,2.967a1.585,1.585,0,0,0,.337.426l.647.578-12.254,14.17a1.583,1.583,0,0,0,2.394,2.07l12.221-14.132.916.818a7.61,7.61,0,0,0,5.092,1.945q.176,0,.353-.008Zm16.924-10.976,3.8-2.06a3.684,3.684,0,0,1,4.646.962,6.805,6.805,0,0,0-2.729.806l-6.81,3.7A3.534,3.534,0,0,0,96.523,359.806Zm.686-6.056a3.676,3.676,0,0,1,4.132.426,6.8,6.8,0,0,0-2.532.789l-3.966,2.152a7.382,7.382,0,0,0-1.623-1.2Zm11.478,10.2-13.9,8.033-9.026-2.675,5.38-3.358,3.173.94a1.583,1.583,0,0,0,1.2-.126l8.232-4.468a3.685,3.685,0,0,1,4.99,1.479.129.129,0,0,1-.049.174Z" transform="translate(-33.938 -274.826)"/>
          <path id="Path_830436" data-name="Path 830436" d="M325.346,72.051c-1.3-.153-2.606-.359-3.87-.611a1.582,1.582,0,0,0-.621,3.1c1.347.269,2.734.488,4.122.651a9.955,9.955,0,0,0,1.161.068,9.781,9.781,0,0,0,6.942-2.888l17.564-17.564a1.582,1.582,0,0,0-2.238-2.238L330.842,70.137a6.635,6.635,0,0,1-5.5,1.914Z" transform="translate(-252.152 -41.114)"/>
          <path id="Path_830437" data-name="Path 830437" d="M147.677,23.1a3.292,3.292,0,0,0,.391,1.658,6.8,6.8,0,0,0,2.726,2.731,3.277,3.277,0,0,0,.384,1.265,6.8,6.8,0,0,0,4.071,3.3,6.8,6.8,0,0,0,5.211-.547l7.391-4.011a44.709,44.709,0,0,0,7.22,3.744,1.583,1.583,0,0,0,1.19-2.933,41.538,41.538,0,0,1-4.917-2.394l3.494-1.9c1.872,3.008,6.683,4.713,10.276,4.791h.035a1.582,1.582,0,0,0,.034-3.165c-3.1-.067-6.608-1.585-7.668-3.316-.111-.181-.442-.8-.641-1.185a1.583,1.583,0,0,0-2.159-.66L168.6,23.795a4.308,4.308,0,0,1-5.842-1.731.361.361,0,0,1,.126-.478l10.487-6.545,7.561-.342a4.473,4.473,0,0,1,3.195,1.136l3.72,3.32,1.479,2.725a1.583,1.583,0,0,0,2.782-1.51L190.5,17.4a1.585,1.585,0,0,0-.337-.426l-.657-.587L201.38,2.614a1.583,1.583,0,1,0-2.4-2.067L187.141,14.281l-.906-.809a7.618,7.618,0,0,0-5.445-1.937l-4.107.186L161.624,7.258a1.583,1.583,0,0,0-1.241.147L145.89,15.779a3.277,3.277,0,0,0-1.247,4.424,6.8,6.8,0,0,0,3.035,2.892Zm11.959-.433-3.8,2.06a3.684,3.684,0,0,1-4.646-.962,6.8,6.8,0,0,0,2.73-.805l6.81-3.7a3.535,3.535,0,0,0-1.1,3.4Zm-.686,6.056a3.676,3.676,0,0,1-4.134-.427,6.8,6.8,0,0,0,2.533-.787l3.966-2.152a7.383,7.383,0,0,0,1.623,1.2Zm-11.478-10.2,13.9-8.033,9.026,2.675-5.38,3.357-3.173-.94a1.582,1.582,0,0,0-1.2.126l-8.232,4.468a3.68,3.68,0,0,1-4.99-1.479.129.129,0,0,1,.049-.174Z" transform="translate(-113.804 0.002)"/>
          <path id="Path_830438" data-name="Path 830438" d="M194.261,222.056a.1.1,0,0,1-.139,0l-6.21-6.21a1.582,1.582,0,0,0-2.238,2.238l6.21,6.21a3.267,3.267,0,0,0,4.615,0l11.2-11.2a10.34,10.34,0,0,0-13.5-15.588,10.339,10.339,0,0,0-13.843,15.231,1.583,1.583,0,1,0,2.343-2.127,7.174,7.174,0,0,1,10.382-9.9,1.582,1.582,0,0,0,2.235,0,7.174,7.174,0,0,1,10.147,10.144Z" transform="translate(-140.177 -154.22)"/>
        </g>
      </g>
    </g>
  </g>
</svg>
