<svg xmlns="http://www.w3.org/2000/svg" xmlns:xlink="http://www.w3.org/1999/xlink" width="400" height="276.12" viewBox="0 0 400 276.12">
  <defs>
    <clipPath id="clip-path">
      <rect id="Rectangle_380660" data-name="Rectangle 380660" width="400" height="276.12" fill="none"/>
    </clipPath>
    <clipPath id="clip-path-5">
      <rect id="Rectangle_380652" data-name="Rectangle 380652" width="123.852" height="58" fill="none"/>
    </clipPath>
    <clipPath id="clip-path-6">
      <rect id="Rectangle_380653" data-name="Rectangle 380653" width="96.171" height="45.036" fill="none"/>
    </clipPath>
    <clipPath id="clip-path-8">
      <rect id="Rectangle_380656" data-name="Rectangle 380656" width="8.067" height="3.582" fill="none"/>
    </clipPath>
    <clipPath id="clip-path-9">
      <rect id="Rectangle_380657" data-name="Rectangle 380657" width="7.986" height="3.498" fill="none"/>
    </clipPath>
    <clipPath id="clip-path-10">
      <rect id="Rectangle_380658" data-name="Rectangle 380658" width="15.97" height="9.951" fill="none"/>
    </clipPath>
  </defs>
  <g id="Group_1077418" data-name="Group 1077418" clip-path="url(#clip-path)">
    <g id="Group_1077396" data-name="Group 1077396">
      <g id="Group_1077395" data-name="Group 1077395" clip-path="url(#clip-path)">
        <path id="Path_829491" data-name="Path 829491" d="M210.561,76.58H83.62A1.377,1.377,0,0,1,82.243,75.2V70.587A1.377,1.377,0,0,1,83.62,69.21H210.561a1.376,1.376,0,0,1,1.377,1.377V75.2a1.376,1.376,0,0,1-1.377,1.377" transform="translate(29.317 24.671)" fill="#fff"/>
      </g>
    </g>
    <g id="Group_1077398" data-name="Group 1077398">
      <g id="Group_1077397" data-name="Group 1077397" clip-path="url(#clip-path)">
        <path id="Path_829492" data-name="Path 829492" d="M400,203.391c0,.2-89.55.353-199.991.353C89.531,203.743,0,203.586,0,203.391s89.531-.353,200.009-.353c110.441,0,199.991.157,199.991.353" transform="translate(0 72.377)" fill="#263238"/>
      </g>
    </g>
    <path id="Path_829493" data-name="Path 829493" d="M62.574,139.158l-.695-48.535H95.42l1.157,48.535Z" transform="translate(22.058 32.304)" fill="#ebebeb"/>
    <g id="Group_1077406" data-name="Group 1077406">
      <g id="Group_1077405" data-name="Group 1077405" clip-path="url(#clip-path)">
        <path id="Path_829494" data-name="Path 829494" d="M116.871,158.89c0,.149-16.519.27-36.891.27s-36.895-.121-36.895-.27,16.515-.27,36.895-.27,36.891.122,36.891.27" transform="translate(15.359 56.543)" fill="#263238"/>
        <path id="Path_829495" data-name="Path 829495" d="M150.6,218.54H41.161c-17.433,0-31.566-12.984-31.566-29s14.133-29,31.566-29H150.6a4.042,4.042,0,0,1,4.2,3.861v50.279a4.041,4.041,0,0,1-4.2,3.861" transform="translate(3.42 57.228)" fill="#7816c2"/>
        <path id="Path_829496" data-name="Path 829496" d="M346.1,170.168H93.459V160.54H346.1a4.831,4.831,0,1,1,0,9.628" transform="translate(33.315 57.228)" fill="#7816c2"/>
        <path id="Path_829497" data-name="Path 829497" d="M346.1,205.828H93.459V196.2H346.1a4.831,4.831,0,1,1,0,9.628" transform="translate(33.315 69.939)" fill="#7816c2"/>
        <path id="Path_829498" data-name="Path 829498" d="M341.631,206.38H120.215c-11.647,0-21.086-8.673-21.086-19.372s9.44-19.369,21.086-19.369H341.631q-8.906,19.368,0,38.741" transform="translate(35.337 59.758)" fill="#f5f5f5"/>
        <g id="Group_1077401" data-name="Group 1077401" transform="translate(13.015 217.768)" opacity="0.3">
          <g id="Group_1077400" data-name="Group 1077400">
            <g id="Group_1077399" data-name="Group 1077399" clip-path="url(#clip-path-5)">
              <path id="Path_829499" data-name="Path 829499" d="M131.045,218.54H40.824c-17.248,0-31.229-12.844-31.229-28.689,0-16.187,14.285-29.311,31.9-29.311h91.948c-22.859,12.721-21.15,43.186-2.4,58" transform="translate(-9.595 -160.54)"/>
            </g>
          </g>
        </g>
        <path id="Path_829500" data-name="Path 829500" d="M311.418,183.315c0,.149-45.446.27-101.5.27-56.068,0-101.5-.121-101.5-.27s45.436-.269,101.5-.269c56.049,0,101.5.121,101.5.269" transform="translate(38.648 65.25)" fill="#263238"/>
        <path id="Path_829501" data-name="Path 829501" d="M326.818,189.664c0,.149-45.447.269-101.5.269-56.068,0-101.506-.119-101.506-.269s45.438-.269,101.506-.269c56.048,0,101.5.119,101.5.269" transform="translate(44.137 67.514)" fill="#263238"/>
        <path id="Path_829502" data-name="Path 829502" d="M322.278,177.425c0,.149-45.449.269-101.5.269-56.068,0-101.506-.119-101.506-.269s45.438-.269,101.506-.269c56.047,0,101.5.119,101.5.269" transform="translate(42.519 63.151)" fill="#263238"/>
        <path id="Path_829503" data-name="Path 829503" d="M115.905,200.372c0,.149-21.274.27-47.509.27s-47.513-.121-47.513-.27S42.151,200.1,68.4,200.1s47.509.121,47.509.269" transform="translate(7.444 71.331)" fill="#263238"/>
        <path id="Path_829504" data-name="Path 829504" d="M115.905,164.16c0,.148-21.274.269-47.509.269s-47.513-.121-47.513-.269,21.268-.27,47.513-.27,47.509.121,47.509.27" transform="translate(7.444 58.422)" fill="#263238"/>
        <path id="Path_829505" data-name="Path 829505" d="M147.077,172.981H58.833c-13.536,0-24.511-10.081-24.511-22.519S45.3,127.945,58.833,127.945h88.244Z" transform="translate(12.235 45.609)" fill="#c1e29a"/>
        <path id="Path_829506" data-name="Path 829506" d="M295.618,135.422H99.441v-7.477H295.618a3.752,3.752,0,1,1,0,7.477" transform="translate(35.448 45.609)" fill="#c1e29a"/>
        <path id="Path_829507" data-name="Path 829507" d="M295.618,163.111H99.441v-7.477H295.618a3.752,3.752,0,1,1,0,7.477" transform="translate(35.448 55.479)" fill="#c1e29a"/>
        <path id="Path_829508" data-name="Path 829508" d="M292.145,163.541H120.217c-9.042,0-16.373-6.735-16.373-15.042s7.33-15.042,16.373-15.042H292.145a34.444,34.444,0,0,0,0,30.084" transform="translate(37.017 47.573)" fill="#f5f5f5"/>
        <g id="Group_1077404" data-name="Group 1077404" transform="translate(46.556 173.554)" opacity="0.3">
          <g id="Group_1077403" data-name="Group 1077403">
            <g id="Group_1077402" data-name="Group 1077402" clip-path="url(#clip-path-6)">
              <path id="Path_829509" data-name="Path 829509" d="M128.627,172.981H58.908c-13.578,0-24.586-10.113-24.586-22.588,0-12.4,10.94-22.448,24.435-22.448h71.736c-17.751,9.878-16.424,33.533-1.867,45.036" transform="translate(-34.322 -127.945)"/>
            </g>
          </g>
        </g>
        <path id="Path_829510" data-name="Path 829510" d="M268.686,145.646c0,.149-35.289.27-78.811.27s-78.818-.121-78.818-.27,35.282-.269,78.818-.269,78.811.121,78.811.269" transform="translate(39.589 51.823)" fill="#263238"/>
        <path id="Path_829511" data-name="Path 829511" d="M280.644,150.575c0,.149-35.289.269-78.811.269s-78.818-.119-78.818-.269,35.282-.27,78.818-.27,78.811.121,78.811.27" transform="translate(43.851 53.579)" fill="#263238"/>
        <path id="Path_829512" data-name="Path 829512" d="M277.116,138.656c0,.148-35.289.269-78.81.269-43.537,0-78.818-.121-78.818-.269s35.28-.27,78.818-.27c43.521,0,78.81.121,78.81.27" transform="translate(42.594 49.331)" fill="#263238"/>
        <path id="Path_829513" data-name="Path 829513" d="M116.871,130.772c0,.149-16.519.27-36.891.27s-36.895-.121-36.895-.27,16.515-.27,36.895-.27,36.891.122,36.891.27" transform="translate(15.359 46.52)" fill="#263238"/>
        <path id="Path_829514" data-name="Path 829514" d="M157.575,138.728v18.037l6.805-4.008,7.591,4.008V138.728Z" transform="translate(56.171 49.452)" fill="#d5fff5"/>
        <path id="Path_829515" data-name="Path 829515" d="M84.72,119.188c0,.229-7.036.416-15.713.416s-15.715-.187-15.715-.416,7.035-.416,15.715-.416,15.713.187,15.713.416" transform="translate(18.997 42.339)" fill="#e0e0e0"/>
        <path id="Path_829516" data-name="Path 829516" d="M84.72,97.1c0,.229-7.036.416-15.713.416s-15.715-.187-15.715-.416,7.035-.415,15.715-.415,15.713.186,15.713.415" transform="translate(18.997 34.465)" fill="#e0e0e0"/>
        <path id="Path_829517" data-name="Path 829517" d="M84.72,102.621c0,.229-7.036.416-15.713.416s-15.715-.187-15.715-.416,7.035-.416,15.715-.416,15.713.187,15.713.416" transform="translate(18.997 36.433)" fill="#e0e0e0"/>
        <path id="Path_829518" data-name="Path 829518" d="M84.72,108.143c0,.229-7.036.416-15.713.416s-15.715-.187-15.715-.416,7.035-.415,15.715-.415,15.713.186,15.713.415" transform="translate(18.997 38.402)" fill="#e0e0e0"/>
        <path id="Path_829519" data-name="Path 829519" d="M84.72,113.666c0,.229-7.036.416-15.713.416s-15.715-.187-15.715-.416,7.035-.416,15.715-.416,15.713.187,15.713.416" transform="translate(18.997 40.37)" fill="#e0e0e0"/>
        <path id="Path_829520" data-name="Path 829520" d="M51.427,89.439H336.938c3.525,16.073,3.029,33.758,0,52.46H52.645v-3.568H77.181a8.311,8.311,0,0,0,8.2-8.414v-29.03a8.311,8.311,0,0,0-8.2-8.414H51.427Z" transform="translate(18.332 31.882)" fill="#ffae7e"/>
        <path id="Path_829521" data-name="Path 829521" d="M254.747,143c-.224,0-.406-12.05-.406-26.911s.182-26.914.406-26.914.406,12.047.406,26.914S254.97,143,254.747,143" transform="translate(90.665 31.788)" fill="#263238"/>
        <path id="Path_829522" data-name="Path 829522" d="M90.742,143c-.224,0-.406-12.05-.406-26.911s.182-26.914.406-26.914.406,12.047.406,26.914S90.965,143,90.742,143" transform="translate(32.202 31.788)" fill="#263238"/>
        <path id="Path_829523" data-name="Path 829523" d="M258.44,143c-.224,0-.406-12.05-.406-26.911s.182-26.914.406-26.914.406,12.047.406,26.914S258.663,143,258.44,143" transform="translate(91.981 31.788)" fill="#263238"/>
        <path id="Path_829524" data-name="Path 829524" d="M87.29,143c-.224,0-.406-12.05-.406-26.911s.182-26.914.406-26.914.406,12.047.406,26.914S87.513,143,87.29,143" transform="translate(30.972 31.788)" fill="#263238"/>
        <path id="Path_829525" data-name="Path 829525" d="M133.893,101.336H140.7V120h11.484v5.4H133.893Z" transform="translate(47.729 36.123)" fill="#fff"/>
        <path id="Path_829526" data-name="Path 829526" d="M166.435,120.725H156.259l-1.891,4.676h-6.945l10.624-24.065h6.7L175.408,125.4h-7.082Zm-1.994-5.019-3.094-7.7-3.094,7.7Z" transform="translate(52.552 36.123)" fill="#fff"/>
        <path id="Path_829527" data-name="Path 829527" d="M206.717,101.336l-7.8,24.065h-7.288l-4.607-14.646L182.2,125.4h-7.288l-7.8-24.065h7.013l4.848,15.367,5.088-15.367h6.257l4.847,15.506,5.054-15.506Z" transform="translate(59.571 36.123)" fill="#fff"/>
      </g>
    </g>
    <path id="Path_829528" data-name="Path 829528" d="M133.5,77.238l-20-65.371L90.6,76.962l-.267-.094L113.514,10.96l20.253,66.2Z" transform="translate(32.202 3.907)" fill="#263238"/>
    <g id="Group_1077417" data-name="Group 1077417">
      <g id="Group_1077416" data-name="Group 1077416" clip-path="url(#clip-path)">
        <path id="Path_829529" data-name="Path 829529" d="M90.434,59.582a20.242,20.242,0,0,0,14.2,5.912c8.9.005,16.567,0,16.567,0s8.508-.5,12.4-5.629Z" transform="translate(32.237 21.239)" fill="#455a64"/>
        <path id="Path_829530" data-name="Path 829530" d="M189.55,76.407l-20-65.371L146.657,76.13l-.267-.094,23.178-65.908,20.253,66.2Z" transform="translate(52.184 3.611)" fill="#263238"/>
        <path id="Path_829531" data-name="Path 829531" d="M146.489,58.751a20.242,20.242,0,0,0,14.2,5.911c8.9.005,16.567,0,16.567,0s8.508-.5,12.4-5.629Z" transform="translate(52.219 20.943)" fill="#455a64"/>
        <rect id="Rectangle_380655" data-name="Rectangle 380655" width="94.641" height="2.378" transform="translate(137.174 14.521)" fill="#455a64"/>
        <path id="Path_829532" data-name="Path 829532" d="M117.672,94.752V92.369s6.557-.794,8.859-6.858c.146.346,10.224-4.582,10.673-10.975h3.837V94.752Z" transform="translate(41.947 26.57)" fill="#455a64"/>
        <path id="Path_829533" data-name="Path 829533" d="M157.743,94.752V92.369s-6.557-.794-8.859-6.858c-.148.346-10.224-4.582-10.673-10.975h-3.837V94.752Z" transform="translate(47.9 26.57)" fill="#455a64"/>
        <g id="Group_1077409" data-name="Group 1077409" transform="translate(178.643 102.308)" opacity="0.3">
          <g id="Group_1077408" data-name="Group 1077408">
            <g id="Group_1077407" data-name="Group 1077407" clip-path="url(#clip-path-8)">
              <path id="Path_829534" data-name="Path 829534" d="M139.748,75.422l-8.04.894a1.962,1.962,0,0,0,.7,1.644,3.956,3.956,0,0,0,1.624.785,5.531,5.531,0,0,0,3.791-.152,3.286,3.286,0,0,0,1.925-3.171" transform="translate(-131.697 -75.422)"/>
            </g>
          </g>
        </g>
        <path id="Path_829535" data-name="Path 829535" d="M141.077,74.813a5.172,5.172,0,1,1-5.168-5.35,5.262,5.262,0,0,1,5.168,5.35" transform="translate(46.605 24.761)" fill="#455a64"/>
        <path id="Path_829536" data-name="Path 829536" d="M138.744,74.446l1.9-3.6L137.652,1.057H135.57l-2.915,69.792,1.9,3.6-5.888,9.91,7.984,12.772,7.986-12.772Z" transform="translate(45.865 0.377)" fill="#455a64"/>
        <path id="Path_829537" data-name="Path 829537" d="M139.864,12.964a4.21,4.21,0,1,1-8.416,0,4.21,4.21,0,1,1,8.416,0" transform="translate(46.857 3.068)" fill="#455a64"/>
        <path id="Path_829538" data-name="Path 829538" d="M139.885,12.981a8.218,8.218,0,0,0-.159-1.039,4.366,4.366,0,0,0-1.512-2.356,4.09,4.09,0,0,0-1.761-.814,4.037,4.037,0,0,0-2.2.2,3.805,3.805,0,0,0-1.05.6,4,4,0,0,0-.865.916,4.3,4.3,0,0,0-.577,1.171,4.384,4.384,0,0,0,0,2.657,4.307,4.307,0,0,0,.577,1.172,4.033,4.033,0,0,0,.865.916,3.805,3.805,0,0,0,1.05.6,4.041,4.041,0,0,0,2.206.2,4.12,4.12,0,0,0,1.761-.814,4.359,4.359,0,0,0,1.511-2.356,8.218,8.218,0,0,0,.159-1.039,1.684,1.684,0,0,1,0,.274,2.084,2.084,0,0,1-.023.331,3.268,3.268,0,0,1-.076.449,4.208,4.208,0,0,1-.442,1.165,4.3,4.3,0,0,1-1.059,1.267,4.13,4.13,0,0,1-4.092.667,3.94,3.94,0,0,1-1.093-.614,4.187,4.187,0,0,1-.9-.947,4.529,4.529,0,0,1-.6-1.214,4.933,4.933,0,0,1-.213-1.378A4.87,4.87,0,0,1,131.6,11.6a4.413,4.413,0,0,1,.6-1.214,4.128,4.128,0,0,1,.9-.947,3.914,3.914,0,0,1,1.092-.614,4.13,4.13,0,0,1,4.092.667,4.3,4.3,0,0,1,1.059,1.267,4.208,4.208,0,0,1,.442,1.165,3.286,3.286,0,0,1,.076.448,2.1,2.1,0,0,1,.023.332,1.684,1.684,0,0,1,0,.274" transform="translate(46.836 3.051)" fill="#263238"/>
        <g id="Group_1077412" data-name="Group 1077412" transform="translate(178.52 71.242)" opacity="0.3">
          <g id="Group_1077411" data-name="Group 1077411">
            <g id="Group_1077410" data-name="Group 1077410" clip-path="url(#clip-path-9)">
              <path id="Path_829539" data-name="Path 829539" d="M131.606,52.52h7.986l-1.9,3.5H133.5Z" transform="translate(-131.606 -52.52)"/>
            </g>
          </g>
        </g>
        <path id="Path_829540" data-name="Path 829540" d="M139.357,52.553c0-.009.066-.02.206-.028v.057c-.5.039-2.029.066-3.836.066-1.116,0-2.127-.009-2.858-.027-.365-.009-.662-.019-.865-.031a1.027,1.027,0,0,1-.319-.037,1.027,1.027,0,0,1,.319-.037c.2-.012.5-.022.865-.031.731-.018,1.742-.028,2.858-.028,1.807,0,3.336.028,3.836.068v.057c-.14-.008-.206-.019-.206-.028" transform="translate(46.942 18.699)" fill="#263238"/>
        <path id="Path_829541" data-name="Path 829541" d="M137.1,55.069c0-.009.035-.02.111-.028V55.1c-.27.039-1.092.068-2.062.068a12.4,12.4,0,0,1-2.174-.1,12.481,12.481,0,0,1,2.174-.095c.97,0,1.792.027,2.062.066V55.1c-.076-.008-.111-.019-.111-.028" transform="translate(47.401 19.597)" fill="#263238"/>
        <g id="Group_1077415" data-name="Group 1077415" transform="translate(174.528 84.732)" opacity="0.3">
          <g id="Group_1077414" data-name="Group 1077414">
            <g id="Group_1077413" data-name="Group 1077413" clip-path="url(#clip-path-10)">
              <path id="Path_829542" data-name="Path 829542" d="M128.663,62.465l6.221,9.951c1.438-.594,2.2-.775,3.562-.182l6.187-9.769Z" transform="translate(-128.663 -62.465)"/>
            </g>
          </g>
        </g>
        <path id="Path_829543" data-name="Path 829543" d="M144.531,62.487c0,.046-3.572.083-7.977.083s-7.977-.037-7.977-.083,3.57-.083,7.977-.083,7.977.037,7.977.083" transform="translate(45.834 22.245)" fill="#263238"/>
        <path id="Path_829544" data-name="Path 829544" d="M136.914,69.732a15.182,15.182,0,0,0-1.762-.081c-1.218.033-2.18.326-2.192.27a2.131,2.131,0,0,1,.619-.216,7.046,7.046,0,0,1,1.569-.22,5.365,5.365,0,0,1,1.575.187c.392.113.2.042.191.06" transform="translate(47.396 24.769)" fill="#263238"/>
        <path id="Path_829545" data-name="Path 829545" d="M140.288,75.189a1.661,1.661,0,0,1-.171.381,4.951,4.951,0,0,1-.659.931,5.345,5.345,0,0,1-1.314,1.072,4.954,4.954,0,0,1-4.033.468,5.2,5.2,0,0,1-1.519-.75,4.812,4.812,0,0,1-.848-.765,1.569,1.569,0,0,1-.248-.335,8.183,8.183,0,0,0,1.161,1,5.283,5.283,0,0,0,3.5.88,5.361,5.361,0,0,0,3.212-1.652,8.591,8.591,0,0,0,.917-1.233" transform="translate(46.874 26.803)" fill="#263238"/>
        <path id="Path_829546" data-name="Path 829546" d="M152.5,82.614c0,.046-6.327.083-14.129.083s-14.13-.037-14.13-.083,6.325-.083,14.13-.083,14.129.037,14.129.083" transform="translate(44.287 29.42)" fill="#263238"/>
        <path id="Path_829547" data-name="Path 829547" d="M163.61,87.709c0,.046-10.3.083-23.011.083s-23.014-.037-23.014-.083,10.3-.083,23.014-.083,23.011.037,23.011.083" transform="translate(41.916 31.236)" fill="#263238"/>
        <path id="Path_829548" data-name="Path 829548" d="M111.247,11.239a3.046,3.046,0,1,1-3.587-2.385,3.046,3.046,0,0,1,3.587,2.385" transform="translate(37.506 3.135)" fill="#455a64"/>
        <path id="Path_829549" data-name="Path 829549" d="M111.268,11.256c-.02.005-.06-.265-.27-.7a3.038,3.038,0,0,0-1.413-1.386,2.977,2.977,0,0,0-2.843.151,2.985,2.985,0,0,0-1.144,1.287,2.954,2.954,0,0,0,.69,3.433,2.806,2.806,0,0,0,.738.5,2.773,2.773,0,0,0,.815.25,2.975,2.975,0,0,0,2.68-.962A3.037,3.037,0,0,0,111.289,12c.027-.479-.042-.743-.02-.746a2.318,2.318,0,0,1,.087.749,3.028,3.028,0,0,1-.743,1.9,3.074,3.074,0,0,1-1.161.838,3.135,3.135,0,0,1-1.632.2,3.128,3.128,0,0,1-1.641-.776,3.108,3.108,0,0,1-.73-3.626,2.944,2.944,0,0,1,.52-.78,2.914,2.914,0,0,1,.693-.571,3.124,3.124,0,0,1,1.582-.448,3.077,3.077,0,0,1,2.816,1.788,2.3,2.3,0,0,1,.21.724" transform="translate(37.485 3.117)" fill="#263238"/>
        <path id="Path_829550" data-name="Path 829550" d="M167.336,12.458a3.046,3.046,0,1,1-3.587-2.385,3.044,3.044,0,0,1,3.587,2.385" transform="translate(57.5 3.569)" fill="#455a64"/>
        <path id="Path_829551" data-name="Path 829551" d="M167.357,12.475c-.02.005-.06-.265-.27-.7a3.038,3.038,0,0,0-1.413-1.386,2.977,2.977,0,0,0-2.843.151,2.985,2.985,0,0,0-1.144,1.287,2.954,2.954,0,0,0,.69,3.433,2.806,2.806,0,0,0,.738.5,2.773,2.773,0,0,0,.815.25,2.975,2.975,0,0,0,2.68-.962,3.037,3.037,0,0,0,.766-1.826c.027-.479-.042-.743-.02-.746a2.318,2.318,0,0,1,.087.749,3.028,3.028,0,0,1-.743,1.9,3.074,3.074,0,0,1-1.161.838,3.121,3.121,0,0,1-1.632.2,3.112,3.112,0,0,1-1.641-.775,3.107,3.107,0,0,1-.73-3.626,3.132,3.132,0,0,1,1.213-1.351,3.124,3.124,0,0,1,1.582-.448,3.077,3.077,0,0,1,2.816,1.788,2.3,2.3,0,0,1,.21.724" transform="translate(57.479 3.551)" fill="#263238"/>
        <path id="Path_829552" data-name="Path 829552" d="M136.332,1.434A1.434,1.434,0,1,1,134.9,0a1.433,1.433,0,0,1,1.434,1.434" transform="translate(47.576)" fill="#455a64"/>
      </g>
    </g>
  </g>
</svg>
