<svg xmlns="http://www.w3.org/2000/svg" xmlns:xlink="http://www.w3.org/1999/xlink" width="505.994" height="532.399" viewBox="0 0 505.994 532.399">
  <defs>
    <clipPath id="clip-path">
      <rect id="Rectangle_380673" data-name="Rectangle 380673" width="505.994" height="532.399" fill="none"/>
    </clipPath>
    <linearGradient id="linear-gradient" x1="0.5" x2="0.5" y2="1" gradientUnits="objectBoundingBox">
      <stop offset="0" stop-color="#defff8"/>
      <stop offset="0.803" stop-color="#eaf5ff"/>
      <stop offset="1" stop-color="#f0feff"/>
    </linearGradient>
    <clipPath id="clip-path-4">
      <rect id="Rectangle_380663" data-name="Rectangle 380663" width="8.172" height="21.124" fill="none"/>
    </clipPath>
    <clipPath id="clip-path-7">
      <rect id="Rectangle_380666" data-name="Rectangle 380666" width="3.045" height="3.032" fill="none"/>
    </clipPath>
    <clipPath id="clip-path-8">
      <rect id="Rectangle_380667" data-name="Rectangle 380667" width="39.022" height="4.152" fill="none"/>
    </clipPath>
    <clipPath id="clip-path-9">
      <rect id="Rectangle_380668" data-name="Rectangle 380668" width="19.379" height="4.797" fill="none"/>
    </clipPath>
    <clipPath id="clip-path-10">
      <rect id="Rectangle_380669" data-name="Rectangle 380669" width="3.04" height="3.032" fill="none"/>
    </clipPath>
    <clipPath id="clip-path-11">
      <rect id="Rectangle_380670" data-name="Rectangle 380670" width="39.028" height="3.162" fill="none"/>
    </clipPath>
    <clipPath id="clip-path-12">
      <rect id="Rectangle_380671" data-name="Rectangle 380671" width="19.334" height="4.216" fill="none"/>
    </clipPath>
  </defs>
  <g id="Group_1077451" data-name="Group 1077451" clip-path="url(#clip-path)">
    <g id="Group_1077423" data-name="Group 1077423">
      <g id="Group_1077422" data-name="Group 1077422" clip-path="url(#clip-path)">
        <path id="Path_829555" data-name="Path 829555" d="M431.226,120.841c-1.363-7.953-8.476-15.1-16.536-14.728-4.761.218-9.172,2.916-12.264,6.543a32.616,32.616,0,0,0-3,3.919,32.843,32.843,0,0,0-2.576-4.213c-2.693-3.932-6.8-7.079-11.507-7.8-7.976-1.215-15.8,5.141-17.994,12.906s.326,16.252,4.834,22.944,12.141,15.358,25.637,19.21c9.107-1.6,21-10.3,26.188-16.475s8.586-14.355,7.223-22.308" transform="translate(74.466 21.213)" fill="url(#linear-gradient)"/>
        <path id="Path_829556" data-name="Path 829556" d="M428.733,132.539a.955.955,0,0,1-.267.014l-.78-.014-2.995-.107-11.009-.495.191-.131c-1.162,3.507-2.523,7.615-4.015,12.119l-.242.73-.215-.74c-1.659-5.714-3.519-12.116-5.478-18.862-.6-2.087-1.2-4.144-1.776-6.151l.468.071c-2.789,4.235-5.429,8.242-7.834,11.892l-.076.116-.135-.008-19.354-1.117-5.48-.356-1.449-.113a2.493,2.493,0,0,1-.5-.065,2.587,2.587,0,0,1,.5-.012l1.453.041,5.488.223,19.364.926-.211.107,7.794-11.92.31-.474.158.545c.581,2.006,1.175,4.062,1.781,6.149,1.943,6.751,3.788,13.157,5.432,18.874l-.456-.01c1.526-4.493,2.918-8.589,4.105-12.088l.047-.14.146.008,11,.667,2.989.209.777.067a1.007,1.007,0,0,1,.263.042" transform="translate(74.72 24.016)" fill="#fafafa"/>
        <path id="Path_829557" data-name="Path 829557" d="M308.519,177.554a3.586,3.586,0,0,1,.468-.334c.343-.224.81-.529,1.406-.922a23.193,23.193,0,0,0,2.238-1.564,35.627,35.627,0,0,0,2.908-2.325l1.665-1.463,1.722-1.736a25,25,0,0,0,1.8-1.967c.592-.71,1.262-1.4,1.834-2.217a52.074,52.074,0,0,0,10.851-27.372,49.32,49.32,0,0,0-.026-9.085,89.542,89.542,0,0,0-1.642-9.527c-1.37-6.456-3.194-13.356-2.64-20.686.541-7.314,3.469-14.476,7.339-21.094,3.908-6.6,8.438-12.757,14.087-17.4a34.857,34.857,0,0,1,9.175-5.5,40.583,40.583,0,0,1,9.951-2.477c6.644-.824,13-.46,18.887-.3a85.909,85.909,0,0,0,16.346-.664,32.866,32.866,0,0,0,12.589-4.524,24.847,24.847,0,0,0,7.354-6.922,18.2,18.2,0,0,0,2.712-5.8c.38-1.422.45-2.2.5-2.195a12.673,12.673,0,0,1-.366,2.228,17.72,17.72,0,0,1-2.625,5.911,24.852,24.852,0,0,1-7.369,7.093,33.044,33.044,0,0,1-12.714,4.677,85.409,85.409,0,0,1-16.439.754c-5.9-.135-12.228-.473-18.793.36a40.048,40.048,0,0,0-9.79,2.458,34.266,34.266,0,0,0-8.995,5.417c-5.551,4.571-10.043,10.668-13.923,17.228-3.841,6.563-6.725,13.629-7.262,20.8-.556,7.18,1.227,14.028,2.588,20.5a89.749,89.749,0,0,1,1.625,9.6,49.605,49.605,0,0,1-.007,9.2,52.117,52.117,0,0,1-11.114,27.555c-.581.817-1.263,1.508-1.866,2.216a25.609,25.609,0,0,1-1.828,1.961q-.917.9-1.753,1.725l-1.7,1.449a34.27,34.27,0,0,1-2.96,2.287,21.776,21.776,0,0,1-2.282,1.516l-1.445.866a3.506,3.506,0,0,1-.5.274" transform="translate(62.678 6.395)" fill="url(#linear-gradient)"/>
        <path id="Path_829558" data-name="Path 829558" d="M281.331,151.4s.072-.188.242-.54l.772-1.557c.355-.677.854-1.481,1.416-2.448.635-.919,1.3-2.029,2.219-3.16a44.33,44.33,0,0,1,7.383-7.568,44.978,44.978,0,0,1,12.109-7.019,46.007,46.007,0,0,1,7.87-2.193,59.223,59.223,0,0,1,8.812-.815c6.11-.179,12.625.328,19.439-.081a47.017,47.017,0,0,0,10.283-1.739,44.842,44.842,0,0,0,9.973-4.317A50.468,50.468,0,0,0,378.316,104.3a57.085,57.085,0,0,0,8.4-21.192A69.471,69.471,0,0,0,387.3,61.8c-.859-6.774-2.51-13.1-3.463-19.131a48.865,48.865,0,0,1-.238-16.952,36.445,36.445,0,0,1,5.3-12.94A35.582,35.582,0,0,1,401.368,1.03l1.551-.784c.353-.173.539-.245.539-.245s-.167.114-.508.307l-1.515.841a39.854,39.854,0,0,0-5.388,3.891,37.473,37.473,0,0,0-6.834,7.943,36.256,36.256,0,0,0-5.141,12.823,48.586,48.586,0,0,0,.321,16.773c.971,6,2.642,12.314,3.528,19.143a69.845,69.845,0,0,1-.55,21.51,57.621,57.621,0,0,1-8.489,21.444,51.027,51.027,0,0,1-16.7,15.865,45.365,45.365,0,0,1-10.127,4.364,47.555,47.555,0,0,1-10.425,1.741c-6.877.393-13.39-.136-19.464.019a59.272,59.272,0,0,0-8.737.768,45.8,45.8,0,0,0-7.789,2.126,45.5,45.5,0,0,0-19.453,14.3c-.924,1.113-1.606,2.2-2.257,3.107-.576.952-1.092,1.742-1.467,2.405l-.829,1.523c-.191.342-.3.509-.3.509" transform="translate(57.155 0)" fill="url(#linear-gradient)"/>
        <path id="Path_829559" data-name="Path 829559" d="M370.405,10.32a12.728,12.728,0,0,1,1.846,1.073c1.168.723,2.826,1.818,4.846,3.216a185.809,185.809,0,0,1,29.048,25.009c1.682,1.789,3.012,3.267,3.9,4.313A12.865,12.865,0,0,1,411.38,45.6a12.875,12.875,0,0,1-1.529-1.488c-1.038-1.066-2.4-2.466-4.05-4.159-3.441-3.489-8.313-8.194-13.977-13.076s-11.043-8.991-15-11.875c-1.918-1.378-3.506-2.519-4.715-3.387a12.922,12.922,0,0,1-1.7-1.292" transform="translate(75.251 2.096)" fill="#d5fff5"/>
        <path id="Path_829560" data-name="Path 829560" d="M366.451,21.005a9.6,9.6,0,0,1,1.373,1.224c.942.908,2.15,2.073,3.6,3.468,3.043,2.921,7.3,6.9,12.174,11.1s9.429,7.839,12.764,10.421l3.957,3.054a9.461,9.461,0,0,1,1.41,1.178,9.568,9.568,0,0,1-1.565-.964c-.984-.655-2.383-1.639-4.09-2.885-3.416-2.489-8.032-6.076-12.92-10.291s-9.1-8.258-12.068-11.272c-1.482-1.508-2.66-2.747-3.451-3.625a9.492,9.492,0,0,1-1.184-1.408" transform="translate(74.447 4.267)" fill="#d5fff5"/>
        <path id="Path_829561" data-name="Path 829561" d="M367.77,34.111a20.653,20.653,0,0,1,3.1,2.272c1.853,1.477,4.369,3.576,7.084,5.966s5.113,4.623,6.815,6.276a20.6,20.6,0,0,1,2.643,2.787,22.527,22.527,0,0,1-2.968-2.435l-6.937-6.118-6.946-6.108a22.731,22.731,0,0,1-2.79-2.639" transform="translate(74.715 6.929)" fill="#d5fff5"/>
        <path id="Path_829562" data-name="Path 829562" d="M357.841,49.854a13.259,13.259,0,0,1,2.351,1.723l5.479,4.369,5.531,4.3a13.143,13.143,0,0,1,2.226,1.882,11.823,11.823,0,0,1-2.507-1.494c-1.492-1.006-3.51-2.46-5.668-4.161s-4.044-3.32-5.371-4.536a11.759,11.759,0,0,1-2.041-2.087" transform="translate(72.698 10.127)" fill="#d5fff5"/>
        <path id="Path_829563" data-name="Path 829563" d="M346.049,54.614c.075-.072,1.492,1.305,3.85,3.452s5.686,5.03,9.552,7.978,7.534,5.389,10.23,7.09,4.4,2.7,4.351,2.795a5.553,5.553,0,0,1-1.275-.564c-.8-.4-1.938-1.018-3.323-1.822a102.31,102.31,0,0,1-10.394-6.96,102.371,102.371,0,0,1-9.469-8.169c-1.142-1.121-2.042-2.053-2.64-2.72a5.491,5.491,0,0,1-.882-1.079" transform="translate(70.302 11.095)" fill="#d5fff5"/>
        <path id="Path_829564" data-name="Path 829564" d="M338.574,63.571c.114-.148,7.118,5.034,15.642,11.573s15.346,11.964,15.232,12.112-7.117-5.033-15.643-11.574S338.46,63.719,338.574,63.571" transform="translate(68.784 12.914)" fill="#d5fff5"/>
        <path id="Path_829565" data-name="Path 829565" d="M329.521,71.692a8.128,8.128,0,0,1,1.369.988l3.591,2.855c3.027,2.415,7.23,5.725,11.955,9.27s9.08,6.655,12.246,8.885l3.745,2.649a7.955,7.955,0,0,1,1.331,1.038,8.2,8.2,0,0,1-1.476-.818c-.928-.563-2.251-1.406-3.871-2.474-3.239-2.133-7.645-5.188-12.382-8.74s-8.9-6.929-11.852-9.442c-1.477-1.256-2.658-2.29-3.458-3.024a8.069,8.069,0,0,1-1.2-1.189" transform="translate(66.945 14.564)" fill="#d5fff5"/>
        <path id="Path_829566" data-name="Path 829566" d="M326.78,83.381c.114-.148,6.068,4.25,13.3,9.82s13,10.21,12.883,10.358-6.066-4.248-13.3-9.821-13-10.209-12.882-10.357" transform="translate(66.388 16.939)" fill="#d5fff5"/>
        <path id="Path_829567" data-name="Path 829567" d="M324.173,95.576c.1-.155,3.57,1.978,7.741,4.766s7.47,5.174,7.366,5.329-3.569-1.978-7.741-4.766-7.469-5.174-7.366-5.329" transform="translate(65.858 19.416)" fill="#d5fff5"/>
        <path id="Path_829568" data-name="Path 829568" d="M311.558,107.236a21.491,21.491,0,0,1,3.478,1.971c2.093,1.307,4.938,3.188,8,5.382s5.756,4.284,7.665,5.847a21.63,21.63,0,0,1,2.984,2.661,25.417,25.417,0,0,1-3.277-2.282c-1.98-1.464-4.714-3.487-7.766-5.676s-5.846-4.126-7.867-5.531a25.386,25.386,0,0,1-3.215-2.371" transform="translate(63.295 21.785)" fill="#e0e0e0"/>
        <path id="Path_829569" data-name="Path 829569" d="M300.536,107.44a8.167,8.167,0,0,1,1.4.957c.873.647,2.116,1.615,3.632,2.833,3.033,2.434,7.143,5.9,11.532,9.9s8.222,7.77,10.928,10.564c1.354,1.4,2.432,2.544,3.159,3.352a8.257,8.257,0,0,1,1.082,1.3A8.157,8.157,0,0,1,331,135.227l-3.309-3.2c-2.789-2.7-6.667-6.41-11.046-10.4s-8.432-7.5-11.382-10.028c-1.394-1.2-2.564-2.2-3.492-3a8.158,8.158,0,0,1-1.232-1.161" transform="translate(61.056 21.827)" fill="#e0e0e0"/>
        <path id="Path_829570" data-name="Path 829570" d="M291.286,115.646a9.536,9.536,0,0,1,1.509,1.058c.943.715,2.291,1.771,3.943,3.093,3.305,2.643,7.817,6.362,12.717,10.567s9.263,8.1,12.379,10.967c1.557,1.432,2.806,2.6,3.655,3.428a9.542,9.542,0,0,1,1.274,1.329,9.655,9.655,0,0,1-1.451-1.135l-3.8-3.265-12.5-10.81c-4.863-4.14-9.263-7.886-12.581-10.712l-3.806-3.258a9.7,9.7,0,0,1-1.341-1.262" transform="translate(59.177 23.494)" fill="#e0e0e0"/>
        <path id="Path_829571" data-name="Path 829571" d="M27.187,372.464a3.733,3.733,0,0,1,.468-.335c.343-.224.81-.529,1.406-.922a23.185,23.185,0,0,0,2.238-1.564,35.618,35.618,0,0,0,2.908-2.324l1.665-1.463,1.722-1.735a25.233,25.233,0,0,0,1.8-1.968c.592-.71,1.262-1.4,1.834-2.217a51.991,51.991,0,0,0,6.859-11.59,51.529,51.529,0,0,0,3.992-15.782,49.318,49.318,0,0,0-.026-9.085,89.545,89.545,0,0,0-1.642-9.527c-1.37-6.456-3.194-13.356-2.64-20.686.541-7.314,3.469-14.476,7.339-21.094,3.908-6.6,8.438-12.757,14.087-17.4a34.83,34.83,0,0,1,9.175-5.5,40.582,40.582,0,0,1,9.951-2.477c6.644-.824,13-.46,18.887-.3a86,86,0,0,0,16.346-.665A32.865,32.865,0,0,0,136.14,241.3a24.86,24.86,0,0,0,7.354-6.921,18.209,18.209,0,0,0,2.712-5.8c.38-1.422.45-2.2.5-2.195a12.669,12.669,0,0,1-.366,2.228,17.722,17.722,0,0,1-2.625,5.911,24.852,24.852,0,0,1-7.369,7.093A33.045,33.045,0,0,1,123.63,246.3a85.408,85.408,0,0,1-16.439.754c-5.9-.135-12.228-.473-18.793.36a40.047,40.047,0,0,0-9.79,2.458,34.266,34.266,0,0,0-8.995,5.417c-5.551,4.571-10.043,10.668-13.923,17.228-3.84,6.563-6.724,13.629-7.262,20.8-.556,7.18,1.227,14.028,2.588,20.5a89.768,89.768,0,0,1,1.625,9.6,49.61,49.61,0,0,1-.007,9.2,51.7,51.7,0,0,1-4.112,15.923,51.821,51.821,0,0,1-7,11.632c-.581.817-1.263,1.508-1.866,2.216a25.6,25.6,0,0,1-1.828,1.961q-.917.9-1.753,1.725l-1.7,1.449a34.265,34.265,0,0,1-2.96,2.287,21.781,21.781,0,0,1-2.282,1.516l-1.445.866a3.668,3.668,0,0,1-.5.274" transform="translate(5.523 45.993)" fill="#d5fff5"/>
        <path id="Path_829572" data-name="Path 829572" d="M0,346.314s.071-.188.242-.54l.772-1.557c.355-.677.854-1.481,1.416-2.448.635-.919,1.3-2.029,2.219-3.159a44.331,44.331,0,0,1,7.383-7.568,44.96,44.96,0,0,1,12.109-7.019,46.005,46.005,0,0,1,7.87-2.193,59.22,59.22,0,0,1,8.812-.815c6.11-.179,12.625.328,19.438-.079a47.089,47.089,0,0,0,10.285-1.74,44.842,44.842,0,0,0,9.973-4.317,50.469,50.469,0,0,0,16.468-15.665,57.085,57.085,0,0,0,8.4-21.192,69.47,69.47,0,0,0,.582-21.309c-.859-6.774-2.51-13.1-3.463-19.131a48.864,48.864,0,0,1-.238-16.952,36.446,36.446,0,0,1,5.3-12.94,35.582,35.582,0,0,1,12.472-11.746l1.551-.784c.353-.173.539-.245.539-.245s-.167.114-.508.307l-1.515.841a39.781,39.781,0,0,0-5.388,3.891,37.474,37.474,0,0,0-6.834,7.943,36.255,36.255,0,0,0-5.141,12.823,48.584,48.584,0,0,0,.321,16.773c.971,6,2.642,12.314,3.528,19.143a69.846,69.846,0,0,1-.55,21.51,57.621,57.621,0,0,1-8.489,21.444,51.027,51.027,0,0,1-16.7,15.865,45.364,45.364,0,0,1-10.127,4.364A47.555,47.555,0,0,1,60.3,321.557c-6.877.393-13.39-.136-19.463.019a59.113,59.113,0,0,0-8.737.768,45.8,45.8,0,0,0-7.789,2.126,45.5,45.5,0,0,0-19.453,14.3c-.925,1.113-1.606,2.2-2.257,3.107-.576.952-1.092,1.742-1.467,2.405L.3,345.805c-.191.342-.3.509-.3.509" transform="translate(0 39.598)" fill="#d5fff5"/>
        <path id="Path_829573" data-name="Path 829573" d="M89.074,205.231A12.727,12.727,0,0,1,90.92,206.3c1.168.723,2.826,1.818,4.846,3.215a186.4,186.4,0,0,1,15.169,11.754,186.005,186.005,0,0,1,13.878,13.256c1.682,1.789,3.012,3.267,3.9,4.313a12.864,12.864,0,0,1,1.334,1.666,12.874,12.874,0,0,1-1.529-1.488c-1.038-1.066-2.4-2.466-4.05-4.159-3.441-3.489-8.313-8.194-13.977-13.076s-11.043-8.991-15-11.875c-1.918-1.378-3.506-2.519-4.715-3.387a12.924,12.924,0,0,1-1.7-1.292" transform="translate(18.096 41.694)" fill="#e0e0e0"/>
        <path id="Path_829574" data-name="Path 829574" d="M85.119,215.916a9.6,9.6,0,0,1,1.373,1.224l3.6,3.468c3.043,2.921,7.3,6.9,12.174,11.1s9.429,7.837,12.764,10.421l3.957,3.054a9.462,9.462,0,0,1,1.41,1.178,9.54,9.54,0,0,1-1.565-.965c-.984-.653-2.383-1.637-4.09-2.884-3.416-2.489-8.032-6.076-12.92-10.291s-9.1-8.258-12.068-11.272c-1.482-1.508-2.66-2.747-3.451-3.625a9.5,9.5,0,0,1-1.184-1.408" transform="translate(17.292 43.865)" fill="#e0e0e0"/>
        <path id="Path_829575" data-name="Path 829575" d="M86.439,229.021a20.58,20.58,0,0,1,3.1,2.272c1.854,1.479,4.37,3.576,7.084,5.966s5.113,4.623,6.815,6.276a20.6,20.6,0,0,1,2.643,2.787,22.53,22.53,0,0,1-2.968-2.435l-6.937-6.118-6.945-6.108a22.584,22.584,0,0,1-2.791-2.639" transform="translate(17.56 46.527)" fill="#e0e0e0"/>
        <path id="Path_829576" data-name="Path 829576" d="M76.509,244.765a13.24,13.24,0,0,1,2.351,1.724c1.611,1.284,3.451,2.749,5.479,4.367,2.05,1.594,3.905,3.039,5.531,4.3a13.212,13.212,0,0,1,2.226,1.882,11.8,11.8,0,0,1-2.506-1.494c-1.493-1.006-3.511-2.46-5.669-4.161s-4.044-3.32-5.371-4.536a11.755,11.755,0,0,1-2.041-2.087" transform="translate(15.543 49.725)" fill="#e0e0e0"/>
        <path id="Path_829577" data-name="Path 829577" d="M64.718,249.525c.075-.072,1.492,1.305,3.85,3.452s5.686,5.03,9.552,7.978,7.534,5.389,10.23,7.09,4.4,2.7,4.351,2.795a5.558,5.558,0,0,1-1.275-.564c-.8-.4-1.938-1.018-3.323-1.822a102.848,102.848,0,0,1-19.863-15.13C67.1,252.2,66.2,251.272,65.6,250.6a5.492,5.492,0,0,1-.882-1.079" transform="translate(13.148 50.693)" fill="#e0e0e0"/>
        <path id="Path_829578" data-name="Path 829578" d="M57.243,258.482c.114-.148,7.118,5.034,15.642,11.573s15.346,11.964,15.232,12.112S81,277.134,72.474,270.592,57.129,258.63,57.243,258.482" transform="translate(11.629 52.512)" fill="#e0e0e0"/>
        <path id="Path_829579" data-name="Path 829579" d="M48.189,266.6a8.037,8.037,0,0,1,1.369.988l3.591,2.855c3.027,2.415,7.23,5.723,11.955,9.27s9.08,6.655,12.246,8.885l3.745,2.649a7.881,7.881,0,0,1,1.331,1.038,8.211,8.211,0,0,1-1.476-.818c-.928-.563-2.251-1.408-3.871-2.474-3.239-2.133-7.645-5.188-12.382-8.74s-8.9-6.929-11.852-9.442c-1.477-1.256-2.658-2.29-3.458-3.024a8.073,8.073,0,0,1-1.2-1.189" transform="translate(9.79 54.162)" fill="#d5fff5"/>
        <path id="Path_829580" data-name="Path 829580" d="M45.449,278.291c.114-.148,6.068,4.25,13.3,9.82s13,10.21,12.883,10.358-6.066-4.248-13.3-9.821-13-10.209-12.882-10.357" transform="translate(9.233 56.536)" fill="#d5fff5"/>
        <path id="Path_829581" data-name="Path 829581" d="M42.841,290.487c.1-.155,3.57,1.978,7.741,4.766s7.47,5.174,7.366,5.329-3.569-1.978-7.741-4.766-7.469-5.174-7.366-5.329" transform="translate(8.703 59.013)" fill="#d5fff5"/>
        <path id="Path_829582" data-name="Path 829582" d="M30.226,302.147a21.732,21.732,0,0,1,3.478,1.971c2.093,1.307,4.938,3.188,8,5.382s5.756,4.284,7.665,5.847a21.633,21.633,0,0,1,2.984,2.661,25.415,25.415,0,0,1-3.277-2.282c-1.98-1.464-4.714-3.487-7.765-5.677s-5.847-4.126-7.87-5.531a25.429,25.429,0,0,1-3.214-2.371" transform="translate(6.14 61.383)" fill="#d5fff5"/>
        <path id="Path_829583" data-name="Path 829583" d="M19.205,302.352a8.161,8.161,0,0,1,1.4.956c.873.647,2.116,1.615,3.632,2.833,3.033,2.434,7.143,5.9,11.532,9.9s8.222,7.77,10.928,10.564c1.354,1.4,2.432,2.543,3.159,3.352a8.256,8.256,0,0,1,1.082,1.3,8.134,8.134,0,0,1-1.271-1.119c-.88-.848-1.988-1.92-3.309-3.2-2.789-2.7-6.667-6.41-11.046-10.4s-8.432-7.5-11.382-10.028c-1.394-1.2-2.564-2.2-3.492-3a8.164,8.164,0,0,1-1.232-1.161" transform="translate(3.901 61.425)" fill="#d5fff5"/>
        <path id="Path_829584" data-name="Path 829584" d="M9.955,310.557a9.536,9.536,0,0,1,1.509,1.058c.943.715,2.291,1.771,3.943,3.093,3.305,2.643,7.817,6.362,12.717,10.567s9.263,8.1,12.379,10.967c1.557,1.432,2.806,2.6,3.655,3.428A9.537,9.537,0,0,1,45.433,341a9.654,9.654,0,0,1-1.451-1.135l-3.8-3.265c-3.3-2.851-7.667-6.632-12.5-10.81-4.863-4.14-9.263-7.885-12.581-10.712L11.3,311.82a9.692,9.692,0,0,1-1.342-1.262" transform="translate(2.022 63.092)" fill="#d5fff5"/>
        <path id="Path_829585" data-name="Path 829585" d="M276.767,13.735a18.2,18.2,0,0,1,6.572,12.654,32.128,32.128,0,0,1-2.284,14.352c-3.305,8.86-10.779,16.773-18.173,22.669-6.009-8.613-4.863-20.742-3.895-26.859,1.529-9.667,10.164-26.211,17.779-22.815" transform="translate(52.457 2.699)" fill="url(#linear-gradient)"/>
        <path id="Path_829586" data-name="Path 829586" d="M266.394,71.869c.055-5.46,3.607-10.578,8.441-13.117a20.634,20.634,0,0,1,15.914-.934c2.4.8,4.857,2.166,5.755,4.525a6.643,6.643,0,0,1-1.528,6.558,13.476,13.476,0,0,1-6.023,3.559c-7.693,2.517-15.6,3.541-22.559-.592" transform="translate(54.12 11.512)" fill="#f5f5f5"/>
        <path id="Path_829587" data-name="Path 829587" d="M254.477,89.219c-.112-.06.771-2.266,2.525-5.719a29.08,29.08,0,0,1,3.861-5.638,63.707,63.707,0,0,1,5.716-6.07,31.1,31.1,0,0,1,13.248-7.269,22.542,22.542,0,0,1,4.57-.593,4.984,4.984,0,0,1,1.684.147c.007.192-2.4.132-6.063,1.172a33.332,33.332,0,0,0-12.733,7.333A75.044,75.044,0,0,0,261.6,78.5a32.09,32.09,0,0,0-3.946,5.366c-1.9,3.32-3.034,5.432-3.18,5.354" transform="translate(51.697 12.988)" fill="#e0e0e0"/>
        <path id="Path_829588" data-name="Path 829588" d="M272.33,24.613a17.916,17.916,0,0,1-.456,3.131c-.361,2-.922,4.89-1.647,8.452-1.451,7.124-3.565,16.945-6.165,27.733S258.825,84.42,256.775,91.4c-1.026,3.488-1.889,6.3-2.524,8.234a18.028,18.028,0,0,1-1.084,2.971,18.046,18.046,0,0,1,.688-3.086c.568-2.149,1.307-4.949,2.2-8.321,1.864-7.022,4.377-16.738,6.978-27.516,2.5-10.7,4.767-20.388,6.463-27.644.8-3.4,1.465-6.214,1.976-8.379a18.075,18.075,0,0,1,.859-3.044" transform="translate(51.431 5)" fill="#e0e0e0"/>
        <path id="Path_829589" data-name="Path 829589" d="M260.614,74.953a36.341,36.341,0,0,0-16.907-28.576c-2.494-1.54-5.839-2.729-8.209-1s-2.264,5.3-1.5,8.13a31.049,31.049,0,0,0,26.343,22.2" transform="translate(47.44 9.045)" fill="#f5f5f5"/>
        <path id="Path_829590" data-name="Path 829590" d="M242.793,53.155c.047-.057.539.272,1.391.916s2.043,1.628,3.471,2.9a41.015,41.015,0,0,1,9.251,11.739,25.725,25.725,0,0,1,2.408,7.948,25.035,25.035,0,0,1-1.224,11.182,5.07,5.07,0,0,1-.656,1.53c-.2-.06.576-2.3,1.013-6.036a26.813,26.813,0,0,0-.1-6.546,26.456,26.456,0,0,0-2.392-7.612,46.14,46.14,0,0,0-8.817-11.663c-2.685-2.666-4.454-4.224-4.345-4.355" transform="translate(49.324 10.798)" fill="#e0e0e0"/>
        <path id="Path_829591" data-name="Path 829591" d="M45.3,101.352a18.207,18.207,0,0,1,12.634,6.608,32.132,32.132,0,0,1,6.349,13.074c2.365,9.156.771,19.923-1.913,28.991-9.859-3.619-15.866-14.219-18.576-19.787-4.284-8.8-6.681-27.307,1.505-28.885" transform="translate(8.099 20.591)" fill="url(#linear-gradient)"/>
        <path id="Path_829592" data-name="Path 829592" d="M70.724,155.51c-3.082-4.506-3.1-10.736-.593-15.586a20.625,20.625,0,0,1,12.51-9.88c2.418-.721,5.222-1.008,7.309.413a6.645,6.645,0,0,1,2.5,6.252,13.466,13.466,0,0,1-2.9,6.366C84.69,149.545,78.8,154.912,70.724,155.51" transform="translate(13.881 26.298)" fill="#f5f5f5"/>
        <path id="Path_829593" data-name="Path 829593" d="M69.754,177.3c-.126.014-.665-2.3-1.206-6.135a29.043,29.043,0,0,1-.064-6.833,63.623,63.623,0,0,1,1.208-8.249,31.079,31.079,0,0,1,6.7-13.546,22.493,22.493,0,0,1,3.406-3.1,4.984,4.984,0,0,1,1.464-.845c.117.153-1.894,1.485-4.3,4.432a33.345,33.345,0,0,0-6.236,13.3,74.791,74.791,0,0,0-1.269,8.106,31.973,31.973,0,0,0-.161,6.66c.343,3.809.624,6.19.46,6.209" transform="translate(13.879 28.154)" fill="#e0e0e0"/>
        <path id="Path_829594" data-name="Path 829594" d="M46.935,112.932a18.016,18.016,0,0,1,1.419,2.827c.852,1.847,2.045,4.536,3.492,7.871,2.891,6.672,6.783,15.932,10.831,26.265s7.445,19.8,9.761,26.691c1.157,3.447,2.061,6.247,2.647,8.195a18,18,0,0,1,.813,3.057,18.251,18.251,0,0,1-1.2-2.925l-2.963-8.079c-2.494-6.824-6-16.228-10.04-26.553-4.079-10.209-7.77-19.443-10.535-26.362-1.289-3.241-2.359-5.933-3.18-8a18.108,18.108,0,0,1-1.04-2.987" transform="translate(9.534 22.943)" fill="#e0e0e0"/>
        <path id="Path_829595" data-name="Path 829595" d="M68.5,159.791A36.342,36.342,0,0,0,38.275,146.05c-2.927.167-6.35,1.108-7.306,3.879s1.177,5.638,3.43,7.521a31.05,31.05,0,0,0,34.31,3.108" transform="translate(6.244 29.66)" fill="url(#linear-gradient)"/>
        <path id="Path_829596" data-name="Path 829596" d="M41.723,151.4a5.063,5.063,0,0,1,1.664-.046c1.068.025,2.607.164,4.507.387A41,41,0,0,1,62.2,156.068a25.732,25.732,0,0,1,6.527,5.136,25.06,25.06,0,0,1,5.4,9.866,5.088,5.088,0,0,1,.339,1.631c-.2.067-.847-2.219-2.627-5.529a26.851,26.851,0,0,0-3.833-5.308,26.425,26.425,0,0,0-6.321-4.87,46.091,46.091,0,0,0-13.907-4.509c-3.729-.648-6.071-.913-6.056-1.083" transform="translate(8.476 30.745)" fill="#e0e0e0"/>
      </g>
    </g>
    <rect id="Rectangle_380662" data-name="Rectangle 380662" width="318.196" height="436.019" transform="translate(65.644 55.203)" fill="#455a64"/>
    <path id="Path_829597" data-name="Path 829597" d="M355.7,452.993H76.582V60.53H355.7V452.993Z" transform="translate(15.558 12.297)" fill="#e0e0e0"/>
    <path id="Path_829598" data-name="Path 829598" d="M351.615,446.588H75.008V56.216H351.615V446.588Z" transform="translate(15.239 11.421)" fill="#ebebeb"/>
    <path id="Path_829599" data-name="Path 829599" d="M322.764,416.042,290.9,441.984H70.716V57.039H349.838V394.094Z" transform="translate(14.367 11.588)" fill="#fafafa"/>
    <g id="Group_1077428" data-name="Group 1077428">
      <g id="Group_1077427" data-name="Group 1077427" clip-path="url(#clip-path)">
        <path id="Path_829600" data-name="Path 829600" d="M322.822,416.1s.564-.481,1.7-1.415l5.1-4.174,20.2-16.444-.04.084c-.034-55.366-.106-178.39-.2-337.054l.308.308L73.21,57.438H70.774l.341-.342c-.025,144.72-.048,278.226-.067,384.943l-.273-.273,220.189.156-.073.026,23.925-19.408q3.992-3.225,6-4.844c1.336-1.073,2.013-1.6,2.013-1.6s-.652.557-1.974,1.647-3.314,2.719-5.958,4.89q-7.962,6.508-23.853,19.5l-.033.025h-.042l-220.189.158H70.5v-.274c-.019-106.718-.042-240.224-.069-384.943v-.342H73.21l276.686.032h.309V57.1c-.094,158.664-.167,281.688-.2,337.054v.053l-.041.032c-8.939,7.218-15.718,12.689-20.266,16.362q-3.409,2.738-5.139,4.129c-1.149.919-1.737,1.372-1.737,1.372" transform="translate(14.309 11.53)" fill="#263238"/>
        <path id="Path_829601" data-name="Path 829601" d="M253.558,73.842H139.32v-19.8A19.363,19.363,0,0,1,158.684,34.68h76.3a18.572,18.572,0,0,1,18.572,18.572Z" transform="translate(28.304 7.046)" fill="#ffae7e"/>
        <path id="Path_829602" data-name="Path 829602" d="M163.28,38.246,159.1,17.122H224.88l-3.655,21.124Z" transform="translate(32.323 3.479)" fill="#ffae7e"/>
        <path id="Path_829603" data-name="Path 829603" d="M142,155.036H94.98V108.012H142Zm-45.713-1.313h44.4v-44.4h-44.4Z" transform="translate(19.296 21.944)" fill="#7816c2"/>
        <path id="Path_829604" data-name="Path 829604" d="M296.863,117.508c0,.189-32.732.342-73.1.342s-73.108-.153-73.108-.342,32.725-.342,73.108-.342,73.1.153,73.1.342" transform="translate(30.607 23.803)" fill="#263238"/>
        <path id="Path_829605" data-name="Path 829605" d="M296.863,125.63c0,.189-32.732.342-73.1.342s-73.108-.153-73.108-.342,32.725-.342,73.108-.342,73.1.153,73.1.342" transform="translate(30.607 25.453)" fill="#263238"/>
        <path id="Path_829606" data-name="Path 829606" d="M296.863,133.751c0,.189-32.732.342-73.1.342s-73.108-.153-73.108-.342,32.725-.342,73.108-.342,73.1.153,73.1.342" transform="translate(30.607 27.103)" fill="#263238"/>
        <path id="Path_829607" data-name="Path 829607" d="M296.863,141.873c0,.189-32.732.342-73.1.342s-73.108-.153-73.108-.342,32.725-.342,73.108-.342,73.1.153,73.1.342" transform="translate(30.607 28.753)" fill="#263238"/>
        <path id="Path_829608" data-name="Path 829608" d="M142,215.27H94.98V168.246H142Zm-45.713-1.311h44.4v-44.4h-44.4Z" transform="translate(19.296 34.181)" fill="#7816c2"/>
        <path id="Path_829609" data-name="Path 829609" d="M102.752,192.224,109,185.519l10.4,8.323,23.814-23.121,5.705,6.724-29.981,29.576Z" transform="translate(20.875 34.683)" fill="#7816c2"/>
        <path id="Path_829610" data-name="Path 829610" d="M102.752,133.971,109,127.266l10.4,8.323,23.814-23.121,5.705,6.724-29.981,29.576Z" transform="translate(20.875 22.849)" fill="#7816c2"/>
        <path id="Path_829611" data-name="Path 829611" d="M296.863,177.743c0,.189-32.732.342-73.1.342s-73.108-.153-73.108-.342,32.725-.342,73.108-.342,73.1.153,73.1.342" transform="translate(30.607 36.041)" fill="#263238"/>
        <path id="Path_829612" data-name="Path 829612" d="M296.863,185.865c0,.189-32.732.342-73.1.342s-73.108-.153-73.108-.342,32.725-.342,73.108-.342,73.1.153,73.1.342" transform="translate(30.607 37.691)" fill="#263238"/>
        <path id="Path_829613" data-name="Path 829613" d="M296.863,193.986c0,.189-32.732.342-73.1.342s-73.108-.153-73.108-.342,32.725-.342,73.108-.342,73.1.153,73.1.342" transform="translate(30.607 39.34)" fill="#263238"/>
        <path id="Path_829614" data-name="Path 829614" d="M296.863,202.108c0,.189-32.732.342-73.1.342s-73.108-.153-73.108-.342,32.725-.342,73.108-.342,73.1.153,73.1.342" transform="translate(30.607 40.991)" fill="#263238"/>
        <path id="Path_829615" data-name="Path 829615" d="M142,273.559H94.98V226.535H142Zm-45.713-1.313h44.4v-44.4h-44.4Z" transform="translate(19.296 46.023)" fill="#7816c2"/>
        <path id="Path_829616" data-name="Path 829616" d="M102.752,250.512,109,243.807l10.4,8.323,23.814-23.121,5.705,6.724L118.937,265.31Z" transform="translate(20.875 46.525)" fill="#7816c2"/>
        <path id="Path_829617" data-name="Path 829617" d="M296.863,236.031c0,.189-32.732.342-73.1.342s-73.108-.153-73.108-.342,32.725-.342,73.108-.342,73.1.153,73.1.342" transform="translate(30.607 47.882)" fill="#263238"/>
        <path id="Path_829618" data-name="Path 829618" d="M296.863,244.153c0,.189-32.732.342-73.1.342s-73.108-.153-73.108-.342,32.725-.342,73.108-.342,73.1.153,73.1.342" transform="translate(30.607 49.532)" fill="#263238"/>
        <path id="Path_829619" data-name="Path 829619" d="M296.863,252.274c0,.189-32.732.342-73.1.342s-73.108-.153-73.108-.342,32.725-.342,73.108-.342,73.1.153,73.1.342" transform="translate(30.607 51.182)" fill="#263238"/>
        <path id="Path_829620" data-name="Path 829620" d="M296.863,260.4c0,.189-32.732.342-73.1.342s-73.108-.153-73.108-.342,32.725-.342,73.108-.342,73.1.153,73.1.342" transform="translate(30.607 52.832)" fill="#263238"/>
        <path id="Path_829621" data-name="Path 829621" d="M142,329.837H94.98V282.813H142Zm-45.713-1.313h44.4v-44.4h-44.4Z" transform="translate(19.296 57.456)" fill="#7816c2"/>
        <path id="Path_829622" data-name="Path 829622" d="M102.752,306.791,109,300.085l10.4,8.323,23.814-23.121,5.705,6.724-29.981,29.576Z" transform="translate(20.875 57.959)" fill="#7816c2"/>
        <path id="Path_829623" data-name="Path 829623" d="M296.863,292.31c0,.189-32.732.342-73.1.342s-73.108-.153-73.108-.342,32.725-.342,73.108-.342,73.1.153,73.1.342" transform="translate(30.607 59.316)" fill="#263238"/>
        <path id="Path_829624" data-name="Path 829624" d="M296.863,300.431c0,.189-32.732.342-73.1.342s-73.108-.153-73.108-.342,32.725-.342,73.108-.342,73.1.153,73.1.342" transform="translate(30.607 60.966)" fill="#263238"/>
        <path id="Path_829625" data-name="Path 829625" d="M296.863,308.553c0,.189-32.732.342-73.1.342s-73.108-.153-73.108-.342,32.725-.342,73.108-.342,73.1.153,73.1.342" transform="translate(30.607 62.616)" fill="#263238"/>
        <path id="Path_829626" data-name="Path 829626" d="M296.863,316.675c0,.189-32.732.342-73.1.342s-73.108-.153-73.108-.342,32.725-.342,73.108-.342,73.1.153,73.1.342" transform="translate(30.607 64.266)" fill="#263238"/>
        <path id="Path_829627" data-name="Path 829627" d="M266.167,324.012l-30.6,63.376h21.848Z" transform="translate(47.857 65.826)" fill="#e0e0e0"/>
        <path id="Path_829628" data-name="Path 829628" d="M253.725,387.685l8.753-63.376,50.18,15.487Z" transform="translate(51.546 65.886)" fill="#fafafa"/>
        <path id="Path_829629" data-name="Path 829629" d="M253.725,387.756,270.6,373.867l41.848-34.259.112.577-19.373-5.971-30.8-9.527.414-.263c-2.623,18.408-4.87,34.178-6.467,45.388-1.582,10.9-2.4,16.523-2.6,17.944a2.351,2.351,0,0,1,.029-.282c.028-.226.065-.515.11-.877.108-.821.259-1.973.452-3.451.405-3.079.99-7.505,1.723-13.064,1.512-11.3,3.638-27.193,6.12-45.746l.051-.375.363.112,30.814,9.489,19.37,5.986.6.185-.487.392L270.514,374.29l-12.368,9.939-3.3,2.645-.845.671c-.188.148-.282.219-.277.211" transform="translate(51.546 65.815)" fill="#263238"/>
        <g id="Group_1077426" data-name="Group 1077426" transform="translate(249.031 20.6)" opacity="0.3">
          <g id="Group_1077425" data-name="Group 1077425">
            <g id="Group_1077424" data-name="Group 1077424" clip-path="url(#clip-path-4)">
              <path id="Path_829630" data-name="Path 829630" d="M210.609,17.122l-3.628,21.124H211.5l3.654-21.124H209.4" transform="translate(-206.981 -17.122)"/>
            </g>
          </g>
        </g>
      </g>
    </g>
    <g id="Group_1077430" data-name="Group 1077430">
      <g id="Group_1077429" data-name="Group 1077429" clip-path="url(#clip-path)">
        <path id="Path_829631" data-name="Path 829631" d="M495.138,441.422c0,.173-110.849.313-247.557.313C110.825,441.735,0,441.6,0,441.422s110.825-.313,247.581-.313c136.708,0,247.557.14,247.557.313" transform="translate(0 89.615)" fill="#263238"/>
      </g>
    </g>
    <g id="Group_1077450" data-name="Group 1077450">
      <g id="Group_1077449" data-name="Group 1077449" clip-path="url(#clip-path)">
        <path id="Path_829632" data-name="Path 829632" d="M355.54,416.166l-1.234,20.071s19.987,7.994,20.12,11.726l-39-.995.639-31.352Z" transform="translate(68.144 84.436)" fill="#727997"/>
        <g id="Group_1077433" data-name="Group 1077433" transform="translate(409.259 518.618)" opacity="0.6">
          <g id="Group_1077432" data-name="Group 1077432">
            <g id="Group_1077431" data-name="Group 1077431" clip-path="url(#clip-path-7)">
              <path id="Path_829633" data-name="Path 829633" d="M341.328,431.1a1.594,1.594,0,0,0-1.148,1.789,1.533,1.533,0,0,0,1.764,1.154,1.682,1.682,0,0,0,1.206-1.9,1.589,1.589,0,0,0-1.967-1" transform="translate(-340.154 -431.047)" fill="#fff"/>
            </g>
          </g>
        </g>
        <g id="Group_1077436" data-name="Group 1077436" transform="translate(403.568 528.247)" opacity="0.6">
          <g id="Group_1077435" data-name="Group 1077435">
            <g id="Group_1077434" data-name="Group 1077434" clip-path="url(#clip-path-8)">
              <path id="Path_829634" data-name="Path 829634" d="M335.424,442.208l.188-3.157,37.324,2.134s1.717.8,1.49,2.018Z" transform="translate(-335.424 -439.05)" fill="#fff"/>
            </g>
          </g>
        </g>
        <path id="Path_829635" data-name="Path 829635" d="M352.256,432.635c-.011.19-.966.253-1.918.841-.969.563-1.473,1.376-1.646,1.3-.174-.041.138-1.172,1.3-1.865s2.305-.445,2.26-.272" transform="translate(70.831 87.855)" fill="#263238"/>
        <path id="Path_829636" data-name="Path 829636" d="M355.459,434.11c.038.185-.794.488-1.462,1.278-.691.769-.876,1.636-1.065,1.623-.18.025-.284-1.094.566-2.059s1.961-1.024,1.961-.842" transform="translate(71.676 88.176)" fill="#263238"/>
        <path id="Path_829637" data-name="Path 829637" d="M356.875,438.764c-.174.036-.415-.922.1-1.953s1.416-1.422,1.493-1.262c.1.159-.488.7-.9,1.557-.431.842-.505,1.643-.7,1.658" transform="translate(72.459 88.479)" fill="#263238"/>
        <path id="Path_829638" data-name="Path 829638" d="M352.145,428.9c-.084.172-.952-.113-2.03-.067-1.079.023-1.926.363-2.021.2-.107-.141.729-.824,2-.86s2.148.583,2.05.73" transform="translate(70.716 86.986)" fill="#263238"/>
        <g id="Group_1077439" data-name="Group 1077439" transform="translate(404.056 503.358)" opacity="0.3">
          <g id="Group_1077438" data-name="Group 1077438">
            <g id="Group_1077437" data-name="Group 1077437" clip-path="url(#clip-path-9)">
              <path id="Path_829639" data-name="Path 829639" d="M355.208,419.583l-.215,3.577-19.164-.663.075-4.134Z" transform="translate(-335.829 -418.363)"/>
            </g>
          </g>
        </g>
        <path id="Path_829640" data-name="Path 829640" d="M352.6,425.959a3.673,3.673,0,0,1-1.953-.06,8.7,8.7,0,0,1-2.029-.68,9.089,9.089,0,0,1-1.106-.623,2.406,2.406,0,0,1-.579-.474.833.833,0,0,1-.061-1.017,1.048,1.048,0,0,1,.846-.414,2.587,2.587,0,0,1,.73.12,7,7,0,0,1,1.2.448,6.848,6.848,0,0,1,1.771,1.228c.884.86,1.174,1.58,1.108,1.615-.088.061-.513-.546-1.416-1.261a7.732,7.732,0,0,0-1.717-1.026,7.23,7.23,0,0,0-1.113-.374c-.41-.119-.762-.131-.872.049-.04.07-.046.1.037.22a1.936,1.936,0,0,0,.426.346,10.211,10.211,0,0,0,1.017.616,10.879,10.879,0,0,0,1.87.772,13.26,13.26,0,0,1,1.837.514" transform="translate(70.44 85.873)" fill="#263238"/>
        <path id="Path_829641" data-name="Path 829641" d="M351.471,426.668a3.11,3.11,0,0,1-.467-1.9,6.334,6.334,0,0,1,.848-3.305,1.616,1.616,0,0,1,1.272-.954.91.91,0,0,1,.8.566,2.666,2.666,0,0,1,.183.721,4.353,4.353,0,0,1-.032,1.316,4.5,4.5,0,0,1-.886,2c-.788.991-1.588,1.2-1.6,1.133-.061-.1.611-.448,1.22-1.4a4.489,4.489,0,0,0,.664-1.819,4,4,0,0,0-.007-1.13c-.051-.416-.2-.754-.354-.716-.194-.008-.531.3-.7.622a6.5,6.5,0,0,0-.511,1.047,6.989,6.989,0,0,0-.427,1.939c-.083,1.143.1,1.861,0,1.888" transform="translate(71.309 85.43)" fill="#263238"/>
        <path id="Path_829642" data-name="Path 829642" d="M364.1,314.462l-31.008,9.963c.368.274,5.753,35.125,5.753,35.125l-4.483,92.489,24.606.3,11.014-97.024Z" transform="translate(67.67 63.886)" fill="#263238"/>
        <path id="Path_829643" data-name="Path 829643" d="M326.185,416.011l-.624,20.1s20.219,7.385,20.465,11.111l-39.014.188-.312-31.357Z" transform="translate(62.309 84.516)" fill="#727997"/>
        <g id="Group_1077442" data-name="Group 1077442" transform="translate(374.668 518.926)" opacity="0.6">
          <g id="Group_1077441" data-name="Group 1077441">
            <g id="Group_1077440" data-name="Group 1077440" clip-path="url(#clip-path-10)">
              <path id="Path_829644" data-name="Path 829644" d="M312.533,431.371a1.592,1.592,0,0,0-1.092,1.824,1.53,1.53,0,0,0,1.8,1.1,1.681,1.681,0,0,0,1.148-1.937,1.589,1.589,0,0,0-2-.936" transform="translate(-311.404 -431.303)" fill="#fff"/>
            </g>
          </g>
        </g>
        <g id="Group_1077445" data-name="Group 1077445" transform="translate(369.32 528.763)" opacity="0.6">
          <g id="Group_1077444" data-name="Group 1077444">
            <g id="Group_1077443" data-name="Group 1077443" clip-path="url(#clip-path-11)">
              <path id="Path_829645" data-name="Path 829645" d="M306.959,442.641l.093-3.162,37.371,1s1.74.747,1.55,1.972Z" transform="translate(-306.959 -439.479)" fill="#fff"/>
            </g>
          </g>
        </g>
        <path id="Path_829646" data-name="Path 829646" d="M323.5,432.577c0,.19-.958.282-1.891.9-.951.593-1.431,1.42-1.606,1.345-.176-.036.1-1.175,1.248-1.9s2.291-.515,2.25-.341" transform="translate(65.001 87.847)" fill="#263238"/>
        <path id="Path_829647" data-name="Path 829647" d="M326.743,433.952c.045.184-.778.513-1.422,1.321-.667.79-.825,1.663-1.015,1.654-.179.031-.316-1.084.5-2.074s1.93-1.083,1.935-.9" transform="translate(65.858 88.146)" fill="#263238"/>
        <path id="Path_829648" data-name="Path 829648" d="M328.3,438.556c-.173.042-.443-.91.041-1.955s1.374-1.464,1.455-1.307c.108.156-.467.719-.852,1.583-.4.855-.455,1.659-.644,1.678" transform="translate(66.649 88.427)" fill="#263238"/>
        <path id="Path_829649" data-name="Path 829649" d="M323.281,428.842c-.079.174-.954-.084-2.031-.006-1.078.057-1.914.421-2.014.259-.111-.137.7-.846,1.973-.92s2.164.517,2.072.668" transform="translate(64.853 86.986)" fill="#263238"/>
        <g id="Group_1077448" data-name="Group 1077448" transform="translate(369.032 503.874)" opacity="0.3">
          <g id="Group_1077447" data-name="Group 1077447">
            <g id="Group_1077446" data-name="Group 1077446" clip-path="url(#clip-path-12)">
              <path id="Path_829650" data-name="Path 829650" d="M326.052,419.426l-.107,3.582-19.175-.082-.052-4.134Z" transform="translate(-306.719 -418.792)"/>
            </g>
          </g>
        </g>
        <path id="Path_829651" data-name="Path 829651" d="M323.643,425.883a3.655,3.655,0,0,1-1.954,0,8.747,8.747,0,0,1-2.048-.617,9.288,9.288,0,0,1-1.124-.591,2.4,2.4,0,0,1-.593-.456.83.83,0,0,1-.091-1.013,1.043,1.043,0,0,1,.833-.439,2.534,2.534,0,0,1,.733.1,7.032,7.032,0,0,1,1.216.41,6.912,6.912,0,0,1,1.808,1.174c.908.834,1.221,1.544,1.156,1.581-.087.064-.529-.531-1.453-1.219a7.875,7.875,0,0,0-1.748-.973,7.225,7.225,0,0,0-1.122-.34c-.414-.106-.766-.107-.871.077-.039.07-.043.1.044.219a1.967,1.967,0,0,0,.434.333,10.525,10.525,0,0,0,2.929,1.3,13.43,13.43,0,0,1,1.852.458" transform="translate(64.543 85.888)" fill="#263238"/>
        <path id="Path_829652" data-name="Path 829652" d="M322.524,426.632a3.094,3.094,0,0,1-.526-1.884,6.32,6.32,0,0,1,.748-3.329,1.615,1.615,0,0,1,1.242-.993.909.909,0,0,1,.818.54,2.615,2.615,0,0,1,.2.716,4.315,4.315,0,0,1,.007,1.316,4.478,4.478,0,0,1-.824,2.021c-.758,1.015-1.551,1.246-1.566,1.183-.065-.1.6-.467,1.176-1.441a4.492,4.492,0,0,0,.609-1.838,3.975,3.975,0,0,0-.041-1.129c-.063-.415-.22-.748-.374-.705-.195,0-.523.312-.681.642a6.553,6.553,0,0,0-.479,1.061,7.034,7.034,0,0,0-.369,1.953c-.048,1.144.16,1.857.057,1.887" transform="translate(65.415 85.413)" fill="#263238"/>
        <path id="Path_829653" data-name="Path 829653" d="M302.147,318.565c0,6.993,2.767,136.85,2.767,136.85l23.353-2.085,4.771-79.791,2.512-6.957,2.929-42.99Z" transform="translate(61.384 64.719)" fill="#263238"/>
        <path id="Path_829654" data-name="Path 829654" d="M343.9,178.614c.319.42,18.559,29.362,18.559,29.362l20.513-21.466,10.49,15.15s-21.936,30.961-25.153,32.08-13.6-.643-13.6-.643L340.22,213.98Z" transform="translate(69.119 36.287)" fill="#ebebeb"/>
        <path id="Path_829655" data-name="Path 829655" d="M358.9,209.7c-.17.01-.39-1.487-.393-3.34s.058-3.335.235-3.345a8.321,8.321,0,0,1,.392,3.341c0,1.838-.057,3.334-.233,3.344" transform="translate(72.833 41.245)" fill="#263238"/>
        <path id="Path_829656" data-name="Path 829656" d="M308.259,160.676l-3.154,7.775s-16.18,13.658-17.65,15.76,11.556,70.184,11.556,70.184-.84,100.022,0,100.022,11.977,3.572,34.882,1.891S361,352.315,361,352.315l-7.144-88.465-10.929-59.467L324.17,180.218Z" transform="translate(58.376 32.643)" fill="#ebebeb"/>
        <path id="Path_829657" data-name="Path 829657" d="M341.481,194.88s-2.392-11.542-2.2-11.9-5.393-13.992-5.393-13.992-1.871-6.238-1.871-6.217-25.5-4.316-25.5-4.316l-1.238,3.854,34,42.967,3.483,18.441,3.6-5.028Z" transform="translate(62.02 32.192)" fill="#bf9cd9"/>
        <path id="Path_829658" data-name="Path 829658" d="M359.549,280.445l-5.536-66.555-4.537-25.969c-.608-5.177-4.079-10.4-4.079-10.4l-13.276-7.669a57.46,57.46,0,0,1-3.79-5.065L334.6,180.8l2.2,12.793,1.368,29.351,7.239,39.393,7.069,86.658,15.38-3Z" transform="translate(66.703 33.478)" fill="#ebebeb"/>
        <path id="Path_829659" data-name="Path 829659" d="M338.709,202.91l2.975-21.834-9.563-11.222-3.79-5.065,5.877,16.906Z" transform="translate(66.703 33.478)" fill="#ebebeb"/>
        <path id="Path_829660" data-name="Path 829660" d="M325.222,235.9l23.11-32.88,40.228,12.171-30.43,39.359-37.776-12.283Z" transform="translate(65.083 41.245)" fill="#99684b"/>
        <path id="Path_829661" data-name="Path 829661" d="M367.611,212.04a1,1,0,1,1-1-1,.995.995,0,0,1,1,1" transform="translate(74.279 42.876)" fill="#263238"/>
        <path id="Path_829662" data-name="Path 829662" d="M354.249,208.311a1,1,0,1,1-1-1,1,1,0,0,1,1,1" transform="translate(71.564 42.118)" fill="#263238"/>
        <path id="Path_829663" data-name="Path 829663" d="M338.24,185.453c-.064.017.434,2.145,1.114,4.752s1.283,4.708,1.348,4.692-.434-2.145-1.114-4.754-1.284-4.708-1.348-4.691" transform="translate(68.715 37.676)" fill="#263238"/>
        <path id="Path_829664" data-name="Path 829664" d="M346.044,198.862a5,5,0,0,1-.36,2.768,3.406,3.406,0,0,1-2.08,1.909,3.8,3.8,0,0,1-3.672-.782,9.57,9.57,0,0,1-2.3-6.946,4.217,4.217,0,0,1,2.635-3.581,3.817,3.817,0,0,1,4.352,1.87" transform="translate(68.583 39.023)" fill="#e0e0e0"/>
        <path id="Path_829665" data-name="Path 829665" d="M344.639,194.114a3.106,3.106,0,0,0-.615-.869,4.065,4.065,0,0,0-.99-.775,3.536,3.536,0,0,0-1.6-.455,3.648,3.648,0,0,0-.975.094,2.958,2.958,0,0,0-.988.4,4.153,4.153,0,0,0-1.483,1.784,5.432,5.432,0,0,0-.491,2.515,9.885,9.885,0,0,0,.491,2.7,7.546,7.546,0,0,0,2.145,3.559,3.564,3.564,0,0,0,1.775.733,4.175,4.175,0,0,0,1.753-.155l-.013,0a2.616,2.616,0,0,0,1.126-.612,4.078,4.078,0,0,0,.741-.867,4.652,4.652,0,0,0,.6-1.725,4.414,4.414,0,0,0,.03-1.167,2.911,2.911,0,0,0-.048-.3c-.016-.067-.025-.1-.031-.1a6.2,6.2,0,0,1-.061,1.551,4.651,4.651,0,0,1-.626,1.658,3.935,3.935,0,0,1-.723.818,2.464,2.464,0,0,1-1.048.556h0l-.01,0a3.7,3.7,0,0,1-3.322-.572,7.441,7.441,0,0,1-2.057-3.453,7.008,7.008,0,0,1-.028-5.048,3.985,3.985,0,0,1,1.391-1.71,2.774,2.774,0,0,1,.922-.389,3.511,3.511,0,0,1,.926-.1,3.458,3.458,0,0,1,1.546.4,4.189,4.189,0,0,1,.987.722,8.439,8.439,0,0,1,.682.8" transform="translate(68.564 39.009)" fill="#263238"/>
        <path id="Path_829666" data-name="Path 829666" d="M346.933,198.709a5,5,0,0,1-.36,2.768,3.406,3.406,0,0,1-2.08,1.909,3.8,3.8,0,0,1-3.672-.782,9.569,9.569,0,0,1-2.3-6.945,4.217,4.217,0,0,1,2.635-3.582,3.818,3.818,0,0,1,4.352,1.87" transform="translate(68.764 38.992)" fill="#e0e0e0"/>
        <path id="Path_829667" data-name="Path 829667" d="M345.527,193.961a3.106,3.106,0,0,0-.615-.869,4.118,4.118,0,0,0-.99-.775,3.541,3.541,0,0,0-1.6-.455,3.643,3.643,0,0,0-.973.094,2.956,2.956,0,0,0-.988.4,4.153,4.153,0,0,0-1.483,1.784,5.432,5.432,0,0,0-.491,2.515,9.93,9.93,0,0,0,.49,2.7,7.552,7.552,0,0,0,2.146,3.559,3.564,3.564,0,0,0,1.775.733,4.176,4.176,0,0,0,1.753-.155l-.013,0a2.617,2.617,0,0,0,1.126-.612,4.072,4.072,0,0,0,.74-.867,4.627,4.627,0,0,0,.6-1.725,4.468,4.468,0,0,0,.03-1.167,2.928,2.928,0,0,0-.048-.3c-.016-.067-.025-.1-.031-.1a6.2,6.2,0,0,1-.061,1.551,4.651,4.651,0,0,1-.626,1.658,3.906,3.906,0,0,1-.724.818,2.452,2.452,0,0,1-1.047.556h0l-.011,0a3.7,3.7,0,0,1-3.321-.572,7.434,7.434,0,0,1-2.057-3.453,7.008,7.008,0,0,1-.028-5.048,3.984,3.984,0,0,1,1.391-1.71,2.747,2.747,0,0,1,.922-.387,3.454,3.454,0,0,1,2.473.3,4.189,4.189,0,0,1,.987.722,8.7,8.7,0,0,1,.682.8" transform="translate(68.744 38.978)" fill="#263238"/>
        <path id="Path_829668" data-name="Path 829668" d="M343.066,193.593a2.378,2.378,0,0,1,2.76.758,4.1,4.1,0,0,1,.754,2.918,3.717,3.717,0,0,1-.4,1.508,2.027,2.027,0,0,1-1.163,1,2.4,2.4,0,0,1-2.13-.609,4.3,4.3,0,0,1-1.523-3.264,1.989,1.989,0,0,1,1.16-2" transform="translate(69.351 39.292)" fill="#e0e0e0"/>
        <path id="Path_829669" data-name="Path 829669" d="M342.537,193.907a.465.465,0,0,0-.179.042,1.265,1.265,0,0,0-.442.29,2.458,2.458,0,0,0-.621,1.8,4.359,4.359,0,0,0,.988,2.664,3.7,3.7,0,0,0,1.345,1.054,2,2,0,0,0,1.832-.037,2.485,2.485,0,0,0,1.084-1.485,5.2,5.2,0,0,0,.171-1.694,3.547,3.547,0,0,0-1.149-2.582,2.483,2.483,0,0,0-1.818-.586,1.785,1.785,0,0,0-.51.132c-.108.054-.161.085-.158.093a3.439,3.439,0,0,1,.675-.131,2.448,2.448,0,0,1,1.7.621,3.417,3.417,0,0,1,1.038,2.465,5.057,5.057,0,0,1-.176,1.615,2.265,2.265,0,0,1-.979,1.344,1.77,1.77,0,0,1-1.618.029,3.5,3.5,0,0,1-1.267-.979,4.268,4.268,0,0,1-.989-2.528,2.426,2.426,0,0,1,.519-1.734,1.966,1.966,0,0,1,.553-.4" transform="translate(69.337 39.284)" fill="#263238"/>
        <path id="Path_829670" data-name="Path 829670" d="M342.5,200.436c.037,0,.048-.162.154-.381a1.715,1.715,0,0,1,.635-.688,4.344,4.344,0,0,1,.9-.391c.245-.083.4-.144.39-.177s-.17-.03-.431.012a2.746,2.746,0,0,0-.987.351,1.533,1.533,0,0,0-.667.831c-.078.273-.023.446,0,.443" transform="translate(69.573 40.383)" fill="#263238"/>
        <path id="Path_829671" data-name="Path 829671" d="M340.481,193.656c-.016.025.111.142.361.253a2.3,2.3,0,0,0,2.061-.158c.232-.148.338-.282.319-.3a5.679,5.679,0,0,1-1.349.387,5.62,5.62,0,0,1-1.392-.178" transform="translate(69.171 39.299)" fill="#263238"/>
        <path id="Path_829672" data-name="Path 829672" d="M325.857,207.144c-1.221.344-2.575-.546-3.759-.091a1.763,1.763,0,1,0,1.364,3.249c1.219-.557,1.479-2.281,2.629-2.968" transform="translate(65.21 42.038)" fill="#263238"/>
        <path id="Path_829673" data-name="Path 829673" d="M319.4,216.621a7.6,7.6,0,0,0,1.1-.46l-.2-.39a5.029,5.029,0,0,1-3.957.479c-1.524-.505-2.843-1.868-3.918-4.049l-.042-.083c-.43-.863-6.382-18.6-7.476-21.982a6.06,6.06,0,0,1,2.879-7.592c.176-.1,4.161-2.162,8.262,2.879,4.3,5.281,11.8,15.7,12.492,16.989.084.156.2.349.328.572.954,1.619,2.939,4.991,1.194,7.869-1.945,3.206-4.367,2.993-4.47,2.984l-.048.434c.114.012,2.794.267,4.893-3.192,1.881-3.1-.195-6.623-1.192-8.317-.128-.217-.238-.4-.32-.556-.694-1.295-8.232-11.763-12.538-17.057-4.34-5.335-8.758-3.016-8.8-2.992a6.584,6.584,0,0,0-3.095,8.115c.9,2.784,7.046,21.126,7.5,22.042l.041.082c1.127,2.288,2.533,3.726,4.173,4.27a5.03,5.03,0,0,0,3.194-.044" transform="translate(61.776 36.901)" fill="#263238"/>
        <path id="Path_829674" data-name="Path 829674" d="M305.527,192.958a8.181,8.181,0,0,1,.195-2.356,7.377,7.377,0,0,1,1.068-2.314,7.459,7.459,0,0,1,2.263-2.128,8.232,8.232,0,0,1,5.491-1.019,9.762,9.762,0,0,1,2.256.72c0-.007-.042-.04-.136-.1a3.9,3.9,0,0,0-.419-.231,6.617,6.617,0,0,0-1.672-.549,8.13,8.13,0,0,0-5.638.982,7.47,7.47,0,0,0-2.319,2.205,7.238,7.238,0,0,0-1.052,2.394,5.789,5.789,0,0,0-.141,1.757,3.306,3.306,0,0,0,.061.474c.019.108.033.164.041.162" transform="translate(62.046 37.552)" fill="#263238"/>
        <path id="Path_829675" data-name="Path 829675" d="M302.107,168.451l19.95,24.716,17.871,11.216-34.668-43.707Z" transform="translate(61.376 32.643)" fill="#ebebeb"/>
        <path id="Path_829676" data-name="Path 829676" d="M288.256,180.344s-4.182,6.593-4.85,13.333c-.261,2.643,6.307,52.121,7.049,54.347s9.459,7.79,12.056,8.9,34.315,11.685,47.3,11.5l2.782-24.484-33.386-5.563s-3.895-3.711-5.935-4.452l-2.783-27.266-4.08-21.888s-11.632-7.191-18.151-4.43" transform="translate(57.575 36.51)" fill="#ebebeb"/>
        <path id="Path_829677" data-name="Path 829677" d="M351.055,210.351c-.168.038-1.965-7.2-4.013-16.167s-3.57-16.269-3.4-16.308,1.965,7.2,4.013,16.168,3.57,16.268,3.4,16.306" transform="translate(69.811 36.137)" fill="#263238"/>
        <path id="Path_829678" data-name="Path 829678" d="M308.866,204.136s.046.171.107.511c.061.366.146.867.255,1.512.215,1.362.528,3.326.929,5.853.788,5.129,1.926,12.538,3.346,21.776l-.136-.166a13.529,13.529,0,0,1,3.108,1.971c.985.775,1.952,1.615,2.914,2.511l-.12-.06,33.4,5.506.272.046-.031.273c-.864,7.654-1.8,15.908-2.764,24.487l-.031.278-.271,0c-6.041-.082-12.181-1.415-18.37-2.865-7.7-1.844-15.114-4.039-22.221-6.313-1.773-.579-3.53-1.155-5.26-1.77a22.207,22.207,0,0,1-4.918-2.42c-1.536-.941-3.022-1.924-4.447-2.965a21.386,21.386,0,0,1-3.948-3.493,2.559,2.559,0,0,1-.567-1.249c-.1-.438-.172-.857-.241-1.274q-.2-1.254-.4-2.493-.368-2.478-.727-4.887-.67-4.822-1.3-9.355c-.818-6.037-1.548-11.666-2.185-16.808s-1.19-9.8-1.607-13.894c-.093-1.026-.211-2.012-.271-2.971a11.236,11.236,0,0,1-.018-2.783,32.827,32.827,0,0,1,1.13-4.7,37,37,0,0,1,2.587-6.159c.359-.675.661-1.173.867-1.505a5.007,5.007,0,0,1,.337-.487s-.091.178-.282.52-.472.849-.81,1.532a39.369,39.369,0,0,0-2.466,6.172,33.16,33.16,0,0,0-1.068,4.678,11.01,11.01,0,0,0,.047,2.711c.069.95.195,1.937.3,2.96.45,4.087,1.035,8.737,1.7,13.874.691,5.136,1.447,10.76,2.26,16.794l1.331,9.346q.365,2.406.739,4.879.2,1.233.407,2.482c.069.417.14.835.232,1.226a2.006,2.006,0,0,0,.475,1.05,21.09,21.09,0,0,0,3.831,3.363c1.41,1.026,2.889,2,4.412,2.928a21.625,21.625,0,0,0,4.811,2.359c1.718.609,3.475,1.182,5.245,1.757,7.1,2.262,14.5,4.449,22.178,6.289,6.164,1.446,12.3,2.772,18.215,2.855l-.3.274c.981-8.577,1.925-16.83,2.8-24.482l.241.319L319.193,238.5l-.07-.012-.053-.049c-.943-.888-1.9-1.73-2.87-2.5a13.257,13.257,0,0,0-2.978-1.921l-.119-.049-.017-.118c-1.339-9.25-2.414-16.669-3.157-21.8-.354-2.534-.628-4.5-.819-5.869-.084-.65-.149-1.154-.2-1.522-.041-.343-.047-.52-.047-.52" transform="translate(57.55 36.617)" fill="#263238"/>
        <path id="Path_829679" data-name="Path 829679" d="M305.494,196.546a20.481,20.481,0,0,1-1.539-2.975,33.224,33.224,0,0,0-4.169-6.8,14.933,14.933,0,0,0-6.367-4.552,24,24,0,0,0-3.228-.7,2.221,2.221,0,0,1,.906-.1,9.088,9.088,0,0,1,2.456.375,14.141,14.141,0,0,1,6.712,4.57,27.84,27.84,0,0,1,4.093,7.022,15.809,15.809,0,0,1,1.136,3.16" transform="translate(58.955 36.857)" fill="#263238"/>
        <path id="Path_829680" data-name="Path 829680" d="M298.472,229.339c-.134-.075,1.8-2.429,5.212-3.717,3.4-1.324,6.41-.865,6.36-.719,0,.2-2.894.036-6.136,1.305-3.258,1.222-5.306,3.28-5.436,3.131" transform="translate(60.636 45.651)" fill="#263238"/>
        <path id="Path_829681" data-name="Path 829681" d="M301.622,233.205c-.153-.019.628-2.808,3.072-5.276,2.42-2.494,5.192-3.33,5.213-3.179.085.177-2.462,1.234-4.766,3.617-2.335,2.351-3.341,4.92-3.519,4.838" transform="translate(61.273 45.657)" fill="#263238"/>
        <path id="Path_829682" data-name="Path 829682" d="M339.969,204.384a9.473,9.473,0,0,1-1.382-.751l-3.753-2.252-12.894-7.96-.041-.026-.032-.04-6-7.4c-5.518-6.838-10.464-13.025-13.889-17.366l-.081-.1.048-.114c.991-2.339,1.8-4.25,2.4-5.666.27-.608.493-1.107.676-1.517a2.143,2.143,0,0,1,.272-.511,2.1,2.1,0,0,1-.16.557c-.154.421-.343.935-.57,1.559-.556,1.434-1.3,3.369-2.222,5.739l-.031-.215c3.519,4.265,8.524,10.4,14.043,17.242,2.1,2.607,4.114,5.115,5.97,7.421l-.073-.065,12.775,8.151,3.66,2.4a9.365,9.365,0,0,1,1.278.919" transform="translate(61.334 32.643)" fill="#263238"/>
        <path id="Path_829683" data-name="Path 829683" d="M337.513,208.191a8.572,8.572,0,0,1,.123-1.607c.144-1.139.331-2.61.555-4.382.5-3.713,1.225-8.875,2.079-14.682l.034.194-1.186-2.2c-3.055-5.683-5.788-10.842-7.74-14.591l-2.282-4.457a10.2,10.2,0,0,1-.762-1.674,10.373,10.373,0,0,1,.976,1.559l2.458,4.36c2.051,3.7,4.848,8.823,7.9,14.5l1.183,2.205.049.091-.016.1c-.871,5.8-1.674,10.955-2.28,14.651-.3,1.761-.55,3.222-.744,4.354a8.561,8.561,0,0,1-.349,1.574" transform="translate(66.703 33.478)" fill="#263238"/>
        <path id="Path_829684" data-name="Path 829684" d="M306.7,186.831l1.029-.622-1.032.617a61.529,61.529,0,0,1-4.49-8.37L302,177.94c-1.22-2.947-2.6-6.286-2.017-9.512l.018-.084a6.333,6.333,0,0,1,2.192-3.606l.336-.28.994,0-.007,1.864.217.261c-.075.064-.149.129-.219.2v.085h-.088a3.814,3.814,0,0,0-1.07,1.973l-.013.07c-.433,2.517.8,5.488,1.882,8.109l.214.522a60.15,60.15,0,0,0,4.324,8.04Z" transform="translate(60.915 33.411)" fill="#263238"/>
        <path id="Path_829685" data-name="Path 829685" d="M342.124,244a4.986,4.986,0,0,1,.166.9q.134.98.354,2.6c.3,2.26.691,5.533,1.149,9.582.922,8.1,2.068,19.3,3.116,31.686s1.794,23.629,2.245,31.765c.226,4.068.387,7.362.474,9.638.036,1.091.066,1.964.088,2.623a5.006,5.006,0,0,1-.012.917,5.046,5.046,0,0,1-.114-.91c-.052-.658-.12-1.528-.2-2.616-.164-2.341-.392-5.612-.674-9.625-.563-8.126-1.381-19.352-2.427-31.739s-2.125-23.587-2.932-31.692c-.4-4-.719-7.267-.952-9.6-.1-1.088-.177-1.956-.236-2.614a4.935,4.935,0,0,1-.041-.916" transform="translate(69.503 49.571)" fill="#263238"/>
        <path id="Path_829686" data-name="Path 829686" d="M333.529,267.466c.026.034-.265.31-.815.782s-1.361,1.136-2.38,1.935a72.714,72.714,0,0,1-8.35,5.738,44.2,44.2,0,0,1-5.022,2.473,30.736,30.736,0,0,1-4.354,1.4,20.491,20.491,0,0,1-3.036.521,3.911,3.911,0,0,1-1.13.034c-.014-.114,1.581-.288,4.053-.984a35.959,35.959,0,0,0,4.245-1.505,51.328,51.328,0,0,0,4.932-2.482c3.4-1.966,6.294-4.051,8.4-5.549a30.4,30.4,0,0,1,3.459-2.363" transform="translate(62.663 54.337)" fill="#263238"/>
        <path id="Path_829687" data-name="Path 829687" d="M335.1,271.358a4.237,4.237,0,0,1-.646.973,24.629,24.629,0,0,1-2.082,2.409,34.145,34.145,0,0,1-18.3,9.743,24.476,24.476,0,0,1-3.16.381,4.135,4.135,0,0,1-1.168-.007c-.01-.111,1.643-.242,4.24-.809a37.863,37.863,0,0,0,18.076-9.624c1.92-1.837,2.951-3.137,3.039-3.067" transform="translate(62.927 55.128)" fill="#263238"/>
        <path id="Path_829688" data-name="Path 829688" d="M309.583,284.057c-.172.018-.463-1.458-.65-3.294s-.2-3.341-.025-3.359.462,1.458.648,3.3.2,3.341.026,3.358" transform="translate(62.732 56.357)" fill="#263238"/>
        <path id="Path_829689" data-name="Path 829689" d="M307.95,157.812a2.344,2.344,0,0,1-2.075-1.4,8.115,8.115,0,0,1-.691-2.691l-1.693-12.3a62.929,62.929,0,0,1-.851-10.483c.107-3.511,1.509-6.613,3.09-9.652,1.854-3.567,9.358-9.86,21.822-6.331" transform="translate(61.481 23.143)" fill="#263238"/>
        <path id="Path_829690" data-name="Path 829690" d="M307.589,138.192c-.166-.069-6.657-1.836-6.325,4.748s6.874,4.892,6.876,4.7-.551-9.451-.551-9.451" transform="translate(61.202 28.021)" fill="#ffbe9d"/>
        <path id="Path_829691" data-name="Path 829691" d="M305.718,144.882c-.03-.019-.111.087-.3.185a1.151,1.151,0,0,1-.857.06,2.839,2.839,0,0,1-1.441-2.48,3.785,3.785,0,0,1,.238-1.658,1.324,1.324,0,0,1,.818-.924.584.584,0,0,1,.693.28c.1.179.061.313.1.322.019.016.136-.118.069-.387a.74.74,0,0,0-.279-.4.871.871,0,0,0-.644-.135,1.613,1.613,0,0,0-1.145,1.08,3.888,3.888,0,0,0-.306,1.855,2.98,2.98,0,0,0,1.817,2.759,1.23,1.23,0,0,0,1.039-.226c.2-.173.224-.322.2-.333" transform="translate(61.486 28.388)" fill="#eb996e"/>
        <path id="Path_829692" data-name="Path 829692" d="M340.545,154.923c-.029-4.654-.866-14.232-1.727-22.893a17.958,17.958,0,0,0-18.2-16.185l-.93.017c-10.014.77-14.954,9.706-13.907,19.7l1.406,31.862,23.889,13.106-.081-14.289s9.611-1.676,9.552-11.314" transform="translate(62.094 23.534)" fill="#ffbe9d"/>
        <path id="Path_829693" data-name="Path 829693" d="M328.854,158.287a22.412,22.412,0,0,1-12.628-3.339s3.032,6.988,12.632,5.944Z" transform="translate(64.244 31.479)" fill="#eb996e"/>
        <path id="Path_829694" data-name="Path 829694" d="M331.03,134.747a1.376,1.376,0,0,1-1.3,1.413,1.317,1.317,0,0,1-1.441-1.214,1.377,1.377,0,0,1,1.3-1.414,1.317,1.317,0,0,1,1.443,1.215" transform="translate(66.694 27.127)" fill="#263238"/>
        <path id="Path_829695" data-name="Path 829695" d="M332.6,133.056c-.167.183-1.224-.57-2.7-.539-1.48.011-2.552.793-2.716.614-.081-.078.087-.405.553-.759a3.78,3.78,0,0,1,2.171-.712,3.626,3.626,0,0,1,2.157.652c.461.34.622.663.539.745" transform="translate(66.465 26.748)" fill="#263238"/>
        <path id="Path_829696" data-name="Path 829696" d="M319.068,135a1.375,1.375,0,0,1-1.3,1.413,1.316,1.316,0,0,1-1.441-1.214,1.377,1.377,0,0,1,1.3-1.414A1.317,1.317,0,0,1,319.068,135" transform="translate(64.264 27.178)" fill="#263238"/>
        <path id="Path_829697" data-name="Path 829697" d="M320.321,132.89c-.147.2-1.28-.433-2.748-.242-1.469.17-2.451,1.064-2.634.9-.088-.07.042-.413.469-.815a3.768,3.768,0,0,1,2.08-.943,3.631,3.631,0,0,1,2.215.414c.495.29.691.592.617.682" transform="translate(63.977 26.769)" fill="#263238"/>
        <path id="Path_829698" data-name="Path 829698" d="M324.264,144.822a9.822,9.822,0,0,1,2.4-.479c.378-.046.734-.128.793-.386a1.925,1.925,0,0,0-.273-1.117l-1.171-2.859c-1.629-4.07-2.815-7.421-2.651-7.485s1.618,3.184,3.246,7.254c.392,1,.768,1.961,1.125,2.877a2.193,2.193,0,0,1,.224,1.481.953.953,0,0,1-.611.564,2.581,2.581,0,0,1-.641.1,9.631,9.631,0,0,1-2.438.048" transform="translate(65.69 26.918)" fill="#263238"/>
        <path id="Path_829699" data-name="Path 829699" d="M320.54,143.659c.241-.019.273,1.589,1.67,2.7s3.1.907,3.121,1.131c.024.1-.375.319-1.1.353a4,4,0,0,1-2.6-.854,3.48,3.48,0,0,1-1.3-2.269c-.073-.67.1-1.072.208-1.065" transform="translate(65.075 29.186)" fill="#263238"/>
        <path id="Path_829700" data-name="Path 829700" d="M320.618,127.566c-.138.405-1.621.242-3.354.484-1.737.206-3.129.741-3.366.384-.106-.171.131-.555.691-.954a5.891,5.891,0,0,1,5.121-.662c.643.245.969.556.91.748" transform="translate(63.766 25.701)" fill="#263238"/>
        <path id="Path_829701" data-name="Path 829701" d="M331.9,129.94c-.254.342-1.28.011-2.507.017-1.227-.036-2.262.268-2.507-.079-.108-.168.049-.509.5-.835a3.626,3.626,0,0,1,4.04.051c.439.337.588.681.476.847" transform="translate(66.403 26.096)" fill="#263238"/>
        <path id="Path_829702" data-name="Path 829702" d="M327.983,115.121c-3.407-1.342-6.858-.633-10.481-.1a16.548,16.548,0,0,0-7.709,3.068,14.811,14.811,0,0,0-5.672,11.561,42.42,42.42,0,0,0,1.423,12.986l.357-.082a6.274,6.274,0,0,0-.051,3.352,2.166,2.166,0,0,0,2.659,1.451c1.212-.531,1.253-2.2,1.142-3.522a94.726,94.726,0,0,1-.052-13.377c.189-3.33,2.087-7.405,4.684-8.984,4.727-3.145,10.88-.576,12.972-.212,3.2-2.746,6.2-.6,8.157,1.783-.716-3.59-4.025-6.581-7.432-7.923" transform="translate(61.776 23.231)" fill="#263238"/>
        <path id="Path_829703" data-name="Path 829703" d="M323.862,121.317c2.108.02,3.794-1.42,6.147-1.036,1.421.232,2.848,2.547,4.088,5.437a4.174,4.174,0,0,0-1.228-7.638,3.8,3.8,0,0,0,1.877.614,1.307,1.307,0,0,0,1.322-1.21,1.753,1.753,0,0,0-.787-1.161,10.28,10.28,0,0,0-14.485,1.659" transform="translate(65.172 23.175)" fill="#263238"/>
        <path id="Path_829704" data-name="Path 829704" d="M334.219,117.059c-.06.085-.682-.363-1.82-.719a7.027,7.027,0,0,0-8.086,2.8c-.674.983-.884,1.722-.984,1.692a3.407,3.407,0,0,1,.608-1.926,6.853,6.853,0,0,1,8.613-2.986c1.174.492,1.716,1.086,1.67,1.136" transform="translate(65.682 23.446)" fill="#455a64"/>
        <path id="Path_829705" data-name="Path 829705" d="M333.774,123.936a7.41,7.41,0,0,0,.016-2.24,4.709,4.709,0,0,0-1.054-2.1,4.988,4.988,0,0,0-2.451-1.47,6.586,6.586,0,0,0-5.132.89c-1.189.741-1.778,1.422-1.854,1.35-.055-.038.418-.836,1.607-1.718a7.168,7.168,0,0,1,2.339-1.121,6.209,6.209,0,0,1,3.2-.006,5.3,5.3,0,0,1,2.729,1.7,4.825,4.825,0,0,1,1.052,2.4,2.888,2.888,0,0,1-.452,2.315" transform="translate(65.68 23.833)" fill="#455a64"/>
        <path id="Path_829706" data-name="Path 829706" d="M303.6,139.165a2.357,2.357,0,0,1-.251-.88,13.768,13.768,0,0,1-.218-2.48,16.6,16.6,0,0,1,7.544-13.954,13.776,13.776,0,0,1,2.193-1.175,2.429,2.429,0,0,1,.874-.272c.046.1-1.149.6-2.815,1.812a17.63,17.63,0,0,0-7.353,13.6c-.1,2.056.134,3.333.027,3.348" transform="translate(61.583 24.46)" fill="#455a64"/>
        <path id="Path_829707" data-name="Path 829707" d="M304.784,139.258c-.14.059-.784-3.327.54-7.235,1.283-3.923,3.83-6.244,3.905-6.114.16.123-2.085,2.545-3.311,6.313-1.278,3.75-.932,7.035-1.135,7.036" transform="translate(61.863 25.578)" fill="#455a64"/>
        <path id="Path_829708" data-name="Path 829708" d="M399.125,185.463c-.282-.739-1.671-.9-1.671-.9l.279-.419a2.026,2.026,0,0,0,.138-2.008c-.047-.1-.1-.2-.159-.3a3.342,3.342,0,0,0-1.607-1.159s1.02-1.388.77-2.075a3.305,3.305,0,0,0-3.146-1.848,48.9,48.9,0,0,0-6.558,1.956,1.451,1.451,0,0,1-1.927-1.071,20.964,20.964,0,0,0-2.107-6.07c-1.2-2.014-2.614-2.087-3.47-1.9a.675.675,0,0,0-.483.917,36.355,36.355,0,0,1,1.533,4.238c.223,1.086-.559,8.915-.559,8.915l-3.974,5.355,9.021,13.03,3.966-5.894,8.514-3.75s1.61-2.027,1.438-2.722a2.137,2.137,0,0,0-.836-1.124l1.053-1.484a4.626,4.626,0,0,0-.213-1.69" transform="translate(76.425 34.457)" fill="#ffbe9d"/>
        <path id="Path_829709" data-name="Path 829709" d="M395.076,179.451a.858.858,0,0,1-.176.117l-.523.3-1.942,1.074-2.892,1.57c-.55.285-1.1.626-1.739.89a2.309,2.309,0,0,1-2.1-.051,1.566,1.566,0,0,1-.639-.9,2.222,2.222,0,0,1-.018-1.066,3.006,3.006,0,0,1,1.095-1.635,11.891,11.891,0,0,1,1.475-.979l1.315-.786,1.913-1.124.526-.3a.106.106,0,1,1,.02.035l-.507.33-1.879,1.179-1.3.8a12.177,12.177,0,0,0-1.443.979,2.839,2.839,0,0,0-1.023,1.536,1.651,1.651,0,0,0,.576,1.758,1.7,1.7,0,0,0,.953.247,2.767,2.767,0,0,0,.965-.212c.61-.249,1.173-.59,1.723-.87l2.913-1.532,1.971-1.019.541-.267a.815.815,0,0,1,.195-.082" transform="translate(78.215 35.852)" fill="#eb996e"/>
        <path id="Path_829710" data-name="Path 829710" d="M395.852,182.2a2.144,2.144,0,0,1-.405.243c-.266.143-.657.344-1.144.582-.973.476-2.338,1.1-3.875,1.708a11,11,0,0,1-1.147.41,2.273,2.273,0,0,1-1.159.037,1.773,1.773,0,0,1-1.273-1.4,1.744,1.744,0,0,1,.3-1.258,1.556,1.556,0,0,1,.239-.262c.065-.049.1-.072.1-.066s-.123.119-.279.371a1.734,1.734,0,0,0-.225,1.192A1.641,1.641,0,0,0,388.169,185a2.114,2.114,0,0,0,1.062-.048,11.158,11.158,0,0,0,1.121-.407c1.534-.61,2.9-1.208,3.891-1.651l1.169-.525a2.206,2.206,0,0,1,.439-.173" transform="translate(78.588 37.014)" fill="#eb996e"/>
        <path id="Path_829711" data-name="Path 829711" d="M396.09,185.418a1.827,1.827,0,0,1-.407.16l-1.13.363c-.956.3-2.282.7-3.75,1.13a10.4,10.4,0,0,1-1.09.285,2,2,0,0,1-1.074-.081,1.174,1.174,0,0,1-.7-.689,1.313,1.313,0,0,1,.008-.855,1.8,1.8,0,0,1,.776-.918,1.176,1.176,0,0,1,.4-.185c.007.014-.132.085-.355.25a1.814,1.814,0,0,0-.685.9,1.185,1.185,0,0,0,.012.754,1.008,1.008,0,0,0,.612.576,1.835,1.835,0,0,0,.975.059,11.043,11.043,0,0,0,1.067-.284c1.467-.431,2.8-.809,3.766-1.073l1.148-.3a1.851,1.851,0,0,1,.428-.085" transform="translate(78.799 37.508)" fill="#eb996e"/>
        <path id="Path_829712" data-name="Path 829712" d="M395.919,188.367a8.219,8.219,0,0,1-1.281.129c-.792.054-1.888.115-3.1.17l-.884.038a3.648,3.648,0,0,1-.843-.029,1.21,1.21,0,0,1-.692-.378.789.789,0,0,1-.183-.669,1.135,1.135,0,0,1,.6-.75.608.608,0,0,1,.339-.091c0,.018-.118.042-.3.159a1.1,1.1,0,0,0-.5.706.644.644,0,0,0,.167.535,1.05,1.05,0,0,0,.6.306,3.577,3.577,0,0,0,.8.016l.883-.042c1.21-.055,2.308-.094,3.1-.112a8.2,8.2,0,0,1,1.287.012" transform="translate(79.013 37.947)" fill="#eb996e"/>
        <path id="Path_829713" data-name="Path 829713" d="M388.706,185.838a7.653,7.653,0,0,0-4.407-.476,4.919,4.919,0,0,1,4.407.476" transform="translate(78.074 37.593)" fill="#eb996e"/>
        <path id="Path_829714" data-name="Path 829714" d="M340.974,236.439l1.867-.49s.659-3.135,1.485-3.8,9.092-4.428,10.908-5.418,8.917-4.226,9.808-2.506c1.009,1.947-1.881,3.546-3.449,4.288s-6.041,2.48-5.134,3.553,10.905.587,10.905.587l1.254-1.682s2.2,2.085,1.955,3.9a7.928,7.928,0,0,1-.991,2.972h-.742a2.07,2.07,0,0,1,.083,2.145,19.793,19.793,0,0,1-1.982,2.476,7.352,7.352,0,0,1-4.7,3.436c-.413.113-16.927,1.547-16.927,1.547l-5.526.556Z" transform="translate(69.03 45.454)" fill="#ffbe9d"/>
      </g>
    </g>
  </g>
</svg>
