<svg xmlns="http://www.w3.org/2000/svg" width="169" height="169" viewBox="0 0 169 169">
  <g id="Group_1078443" data-name="Group 1078443" transform="translate(-385.5 -2057.772)">
    <g id="Group_159182" data-name="Group 159182" transform="translate(385.5 2057.772)">
      <path id="Union_12" data-name="Union 12" d="M84.5,0A84.5,84.5,0,1,1,0,84.5,84.5,84.5,0,0,1,84.5,0Z" transform="translate(0 0)" fill="#ffae7e"/>
    </g>
    <g id="Group_1077306" data-name="Group 1077306" transform="translate(427.202 2094.057)">
      <path id="Path_829132" data-name="Path 829132" d="M30.275,25.36a9.144,9.144,0,0,0-.324,1.388A167.68,167.68,0,0,0,28,52.259v5.857a30.223,30.223,0,0,0,3.983,15,8,8,0,0,0,6.946,4.029,28.615,28.615,0,0,1,14.726,4.086,4.468,4.468,0,0,0,6.617-2.747,76.977,76.977,0,0,0,2.3-18.675A44.413,44.413,0,0,0,54.44,34.188l-8-11.328A9.136,9.136,0,0,0,33.814,20.6Z" transform="translate(15.428 8)" fill="#e9353f"/>
      <path id="Path_829133" data-name="Path 829133" d="M31.583,72.357A30.209,30.209,0,0,1,28,58.116V52.259a167.69,167.69,0,0,1,1.952-25.515,9.143,9.143,0,0,1,.323-1.385L33.814,20.6a9.006,9.006,0,0,1,7.1-1.386l7.247,10.268a44.408,44.408,0,0,1,8.121,25.606,76.983,76.983,0,0,1-2.3,18.677,4.458,4.458,0,0,1-6.617,2.744,28.615,28.615,0,0,0-14.726-4.086,7.91,7.91,0,0,1-1.061-.071Z" transform="translate(15.428 8)" fill="#ff4b50"/>
      <path id="Path_829134" data-name="Path 829134" d="M34.3,25.36a9.144,9.144,0,0,1,.324,1.388,167.677,167.677,0,0,1,1.952,25.512v5.857a30.223,30.223,0,0,1-3.983,15,8,8,0,0,1-6.946,4.029,28.615,28.615,0,0,0-14.726,4.086A4.468,4.468,0,0,1,4.3,78.481,76.978,76.978,0,0,1,2,59.807a44.413,44.413,0,0,1,8.131-25.619l8-11.328A9.136,9.136,0,0,1,30.757,20.6Z" transform="translate(0.571 8)" fill="#e9353f"/>
      <path id="Path_829135" data-name="Path 829135" d="M30.7,72.357a30.209,30.209,0,0,0,3.583-14.242V52.259a167.689,167.689,0,0,0-1.952-25.515,9.144,9.144,0,0,0-.323-1.385L28.471,20.6a9.006,9.006,0,0,0-7.1-1.386L14.121,29.486A44.408,44.408,0,0,0,6,55.092,76.983,76.983,0,0,0,8.3,73.769a4.458,4.458,0,0,0,6.617,2.744,28.615,28.615,0,0,1,14.726-4.086,7.91,7.91,0,0,0,1.061-.071Z" transform="translate(2.857 8)" fill="#ff4b50"/>
      <path id="Path_829136" data-name="Path 829136" d="M17.871,48.42,19.2,46.9a11.4,11.4,0,0,0,.709,1.845,9.15,9.15,0,0,0,8.228,5.085V50.69a6.02,6.02,0,0,1-5.417-3.349,8.255,8.255,0,0,1-.869-3.679,11.083,11.083,0,0,0-3.269-7.892L15.1,32.293l-2.222,2.222,3.478,3.478a7.929,7.929,0,0,1,2.263,4.8L15.5,46.351a19.042,19.042,0,0,1-9.743,5.957l.761,3.049a22.231,22.231,0,0,0,5.9-2.426v.24A6.432,6.432,0,0,0,17.3,59.422a3.286,3.286,0,0,1,2.334,2.161l.726,2.175,2.986-.993-.731-2.175a6.419,6.419,0,0,0-4.557-4.215,3.3,3.3,0,0,1-2.494-3.2V50.69a22.472,22.472,0,0,0,2.307-2.269Z" transform="translate(2.721 15.596)" fill="#e9353f"/>
      <path id="Path_829137" data-name="Path 829137" d="M38.143,5V19.952a10.953,10.953,0,0,0,4.381,8.762,10.937,10.937,0,0,1,3.044,3.518l8.289,15.2L47.571,49,42.315,37.436a9.762,9.762,0,0,0-17.773,0L19.286,49,13,47.428l8.289-15.2a10.937,10.937,0,0,1,3.044-3.518,10.953,10.953,0,0,0,4.381-8.762V5Z" transform="translate(6.857)" fill="#d08c76"/>
      <path id="Path_829138" data-name="Path 829138" d="M26.431,28.714a10.937,10.937,0,0,0-3.044,3.518L14.829,48.146,18.241,49,23.5,37.436a9.762,9.762,0,0,1,17.773,0L46.526,49l6.286-1.571-8.289-15.2a10.937,10.937,0,0,0-3.044-3.518A10.953,10.953,0,0,1,37.1,19.952V5H30.812V19.952a10.953,10.953,0,0,1-4.381,8.762Z" transform="translate(7.902)" fill="#f2b89e"/>
      <circle id="Ellipse_5927" data-name="Ellipse 5927" cx="3.143" cy="3.143" r="3.143" transform="translate(52.857 60)" fill="#c1e29a"/>
      <circle id="Ellipse_5928" data-name="Ellipse 5928" cx="3.143" cy="3.143" r="3.143" transform="translate(63.857 67.857)" fill="#709300"/>
      <path id="Path_829139" data-name="Path 829139" d="M36,48h3.143v3.143H36Z" transform="translate(20 24.571)" fill="#8bc000"/>
      <path id="Path_829140" data-name="Path 829140" d="M42,40h3.143v3.143H42Z" transform="translate(23.428 20)" fill="#8bc000"/>
      <path id="Path_829141" data-name="Path 829141" d="M39,36h3.143v3.143H39Z" transform="translate(21.714 17.714)" fill="#8bc000"/>
      <path id="Path_829142" data-name="Path 829142" d="M31,36h3.143v3.143H31Z" transform="translate(17.142 17.714)" fill="#8bc000"/>
      <path id="Path_829143" data-name="Path 829143" d="M56.428,8A20.428,20.428,0,0,0,39.515,39.884L36,50.428l12.571-3.143A20.428,20.428,0,1,0,56.428,8Z" transform="translate(20 1.714)" fill="#6bd1b8"/>
      <path id="Path_829144" data-name="Path 829144" d="M71.209,41.209a20.416,20.416,0,0,0-28.7-28.7,20.416,20.416,0,0,0,28.7,28.7Z" transform="translate(21.142 1.714)" fill="#d5fff5"/>
      <g id="Group_1077305" data-name="Group 1077305" transform="translate(62.285 22.286)">
        <path id="Path_829145" data-name="Path 829145" d="M54,25h3.143v3.143H54Z" transform="translate(-32 -10.857)" fill="#709300"/>
        <path id="Path_829146" data-name="Path 829146" d="M40,16h3.143v3.143H40Z" transform="translate(-40 -16)" fill="#709300"/>
        <path id="Path_829147" data-name="Path 829147" d="M58,19h3.143v3.143H58Z" transform="translate(-29.715 -14.286)" fill="#709300"/>
        <path id="Path_829148" data-name="Path 829148" d="M45,20h3.143v6.1H45Z" transform="translate(-37.143 -13.714)" fill="#709300"/>
        <path id="Path_829149" data-name="Path 829149" d="M40,25h6.286v3.143H40Z" transform="translate(-40 -10.857)" fill="#709300"/>
        <path id="Path_829150" data-name="Path 829150" d="M45,28h3.143v6.286H45Z" transform="translate(-37.143 -9.143)" fill="#709300"/>
        <path id="Path_829151" data-name="Path 829151" d="M47.9,25h6.449v3.143H47.9Z" transform="translate(-35.488 -10.857)" fill="#709300"/>
      </g>
      <path id="Path_829152" data-name="Path 829152" d="M0,0H5.557V3.143H0Z" transform="translate(72.947 34.535) rotate(-45)" fill="#8bc000"/>
      <path id="Path_829153" data-name="Path 829153" d="M0,0H3.143V5.557H0Z" transform="translate(64.305 32.828) rotate(-45)" fill="#8bc000"/>
      <path id="Path_829154" data-name="Path 829154" d="M0,0H5.557V3.143H0Z" transform="translate(64.305 43.177) rotate(-45)" fill="#8bc000"/>
      <path id="Path_829155" data-name="Path 829155" d="M0,0H3.143V5.557H0Z" transform="translate(72.947 41.471) rotate(-45)" fill="#8bc000"/>
      <circle id="Ellipse_5929" data-name="Ellipse 5929" cx="4.714" cy="4.714" r="4.714" transform="translate(66.999 33.285)" fill="#709300"/>
      <path id="Path_829156" data-name="Path 829156" d="M47.143,23a4.659,4.659,0,0,0-2.442.7,4.659,4.659,0,0,0-.7,2.442,4.714,4.714,0,0,0,4.714,4.714,4.659,4.659,0,0,0,2.442-.7,4.659,4.659,0,0,0,.7-2.442A4.714,4.714,0,0,0,47.143,23Z" transform="translate(24.571 10.285)" fill="#c1e29a"/>
      <path id="Path_829157" data-name="Path 829157" d="M51,9h3.143v6.1H51Z" transform="translate(28.571 2.286)" fill="#709300"/>
      <path id="Path_829158" data-name="Path 829158" d="M46,14h6.286v3.143H46Z" transform="translate(25.714 5.143)" fill="#709300"/>
      <path id="Path_829159" data-name="Path 829159" d="M51,17h3.143v6.286H51Z" transform="translate(28.571 6.857)" fill="#709300"/>
      <path id="Path_829160" data-name="Path 829160" d="M53.9,14h6.449v3.143H53.9Z" transform="translate(30.226 5.143)" fill="#709300"/>
      <path id="Path_829161" data-name="Path 829161" d="M0,0H5.557V3.143H0Z" transform="translate(82.377 17.253) rotate(-45)" fill="#8bc000"/>
      <path id="Path_829162" data-name="Path 829162" d="M0,0H3.143V5.557H0Z" transform="translate(73.735 15.546) rotate(-45)" fill="#8bc000"/>
      <path id="Path_829163" data-name="Path 829163" d="M0,0H5.557V3.143H0Z" transform="translate(73.735 25.894) rotate(-45)" fill="#8bc000"/>
      <path id="Path_829164" data-name="Path 829164" d="M0,0H3.143V5.557H0Z" transform="translate(82.377 24.189) rotate(-45)" fill="#8bc000"/>
      <circle id="Ellipse_5930" data-name="Ellipse 5930" cx="4.714" cy="4.714" r="4.714" transform="translate(76.428 16)" fill="#709300"/>
      <path id="Path_829165" data-name="Path 829165" d="M53.143,12a4.659,4.659,0,0,0-2.442.7,4.659,4.659,0,0,0-.7,2.442,4.714,4.714,0,0,0,4.714,4.714,4.659,4.659,0,0,0,2.442-.7,4.659,4.659,0,0,0,.7-2.442A4.714,4.714,0,0,0,53.143,12Z" transform="translate(27.999 4)" fill="#c1e29a"/>
      <path id="Path_829166" data-name="Path 829166" d="M36.572,40a3.127,3.127,0,0,0-1.289.283,3.13,3.13,0,0,0,4.149,4.149A3.13,3.13,0,0,0,36.572,40Z" transform="translate(19.428 20)" fill="#80ac00"/>
      <path id="Path_829167" data-name="Path 829167" d="M43.572,45a3.127,3.127,0,0,0-1.289.283,3.13,3.13,0,0,0,4.149,4.149A3.13,3.13,0,0,0,43.572,45Z" transform="translate(23.428 22.857)" fill="#c1e29a"/>
      <path id="Path_829168" data-name="Path 829168" d="M54.823,26.256l2-2L54.6,22.032l-2,2a6.152,6.152,0,0,0-1.6-.668V20H47.857v3.366a6.152,6.152,0,0,0-1.6.668l-2-2-2.222,2.222,2,2a6.152,6.152,0,0,0-.668,1.6H40V31h3.366a6.152,6.152,0,0,0,.668,1.6l-2,2,2.222,2.222,2-2a6.152,6.152,0,0,0,1.6.668v3.366H51V35.491a6.152,6.152,0,0,0,1.6-.668l2,2L56.825,34.6l-2-2a6.152,6.152,0,0,0,.668-1.6h3.366V27.857H55.491a6.152,6.152,0,0,0-.668-1.6Zm-5.395,6.316a3.143,3.143,0,1,1,3.143-3.143A3.143,3.143,0,0,1,49.428,32.571Z" transform="translate(22.285 8.571)"/>
      <path id="Path_829169" data-name="Path 829169" d="M54,25h3.143v3.143H54Z" transform="translate(30.285 11.428)"/>
      <path id="Path_829170" data-name="Path 829170" d="M40,16h3.143v3.143H40Z" transform="translate(22.285 6.286)"/>
      <path id="Path_829171" data-name="Path 829171" d="M58,19h3.143v3.143H58Z" transform="translate(32.571 8)"/>
      <path id="Path_829172" data-name="Path 829172" d="M76.428,8.143A22.031,22.031,0,0,0,54.942,25.455a10.759,10.759,0,0,0-5.527,1.216,9.428,9.428,0,0,1-2.844-6.719V5H43.428V19.952a12.584,12.584,0,0,0,5.008,10.019,9.322,9.322,0,0,1,2.61,3.014L57.056,44,55.714,48.03,50.6,36.787a11.331,11.331,0,0,0-20.633,0L24.713,48.349l2.86,1.3,5.256-11.562a8.082,8.082,0,0,1,1.014-1.628,166.7,166.7,0,0,1,1.729,23.8v5.858A28.7,28.7,0,0,1,31.8,80.331a6.443,6.443,0,0,1-5.586,3.24,30.211,30.211,0,0,0-15.531,4.3A2.885,2.885,0,0,1,6.395,86.1,75.477,75.477,0,0,1,4.143,67.806a42.617,42.617,0,0,1,7.84-24.7l8-11.333a7.524,7.524,0,0,1,8.6-2.8,12.537,12.537,0,0,0-1.81,2.5L18.484,46.676l2.759,1.505,8.288-15.2a9.336,9.336,0,0,1,2.609-3.014,12.581,12.581,0,0,0,5-10.019V5H34V19.952a9.428,9.428,0,0,1-2.854,6.734,10.656,10.656,0,0,0-13.733,3.28l-8,11.335A45.758,45.758,0,0,0,1,67.806,78.589,78.589,0,0,0,3.345,86.856,6.026,6.026,0,0,0,12.3,90.568a27.077,27.077,0,0,1,13.91-3.855,9.586,9.586,0,0,0,8.311-4.823,31.845,31.845,0,0,0,4.189-15.774V60.259a170.049,170.049,0,0,0-1.969-25.752c-.019-.121-.061-.236-.083-.358a8.042,8.042,0,0,1,7.247,0c-.022.121-.064.239-.083.358a170.049,170.049,0,0,0-1.969,25.752v5.858a31.845,31.845,0,0,0,4.189,15.774,9.586,9.586,0,0,0,8.311,4.823A27.071,27.071,0,0,1,68.27,90.565a6.026,6.026,0,0,0,8.962-3.7,78.6,78.6,0,0,0,2.338-19.055,45.68,45.68,0,0,0-2.759-15.683,22,22,0,0,0-.383-43.981Zm4.714,15.714a3.143,3.143,0,1,1,3.143-3.143A3.143,3.143,0,0,1,81.142,23.857Zm3.173-8.538a6.152,6.152,0,0,0-1.6-.668V12.386a18.81,18.81,0,0,1,3.107,1.428ZM52.01,29a7.584,7.584,0,0,1,2.5-.416c-.036.517-.079,1.032-.079,1.559a22.2,22.2,0,0,0,.187,2.829l-.809-1.485A12.466,12.466,0,0,0,52.01,29ZM74.176,86.1a2.885,2.885,0,0,1-4.284,1.774,30.215,30.215,0,0,0-15.535-4.3,6.443,6.443,0,0,1-5.586-3.24A28.7,28.7,0,0,1,45,66.117V60.259a166.7,166.7,0,0,1,1.729-23.8,8.082,8.082,0,0,1,1.007,1.628L52.992,49.65l2.565-1.168L54.5,51.646a1.571,1.571,0,0,0,1.87,2.021L68.45,50.648a21.819,21.819,0,0,0,4.9,1.257,42.552,42.552,0,0,1,3.082,15.9,75.465,75.465,0,0,1-2.25,18.287ZM76.428,49a18.749,18.749,0,0,1-7.254-1.45,1.59,1.59,0,0,0-.985-.074l-9.795,2.448L61,42.095a1.571,1.571,0,0,0-.192-1.378A18.8,18.8,0,0,1,79.571,11.57v3.082a6.152,6.152,0,0,0-1.6.668l-2-2-2.222,2.222,2,2a6.152,6.152,0,0,0-.668,1.6H71.714v3.143H75.08a6.152,6.152,0,0,0,.668,1.6l-2,2,2.222,2.222,2-2a6.152,6.152,0,0,0,1.6.668v3.366h3.143V26.777a6.152,6.152,0,0,0,1.6-.668l2,2,2.222-2.222-2-2a6.152,6.152,0,0,0,.668-1.6h3.366V19.143H87.2a6.152,6.152,0,0,0-.668-1.6l1.914-1.914A18.849,18.849,0,0,1,76.428,49Z" transform="translate(0 0)"/>
      <path id="Path_829173" data-name="Path 829173" d="M17.871,48.42,19.2,46.9a11.4,11.4,0,0,0,.709,1.845,9.15,9.15,0,0,0,8.228,5.085V50.69a6.02,6.02,0,0,1-5.417-3.349,8.255,8.255,0,0,1-.869-3.679,11.083,11.083,0,0,0-3.269-7.892L15.1,32.293l-2.222,2.222,3.478,3.478a7.929,7.929,0,0,1,2.263,4.8L15.5,46.351a19.042,19.042,0,0,1-9.743,5.957l.761,3.049a22.231,22.231,0,0,0,5.9-2.426v.24A6.432,6.432,0,0,0,17.3,59.422a3.286,3.286,0,0,1,2.334,2.161l.726,2.175,2.986-.993-.731-2.175a6.419,6.419,0,0,0-4.557-4.215,3.3,3.3,0,0,1-2.494-3.2V50.69a22.472,22.472,0,0,0,2.307-2.269Z" transform="translate(2.721 15.596)"/>
      <path id="Path_829174" data-name="Path 829174" d="M37.714,39a4.714,4.714,0,1,0,4.714,4.714A4.714,4.714,0,0,0,37.714,39Zm0,6.286a1.571,1.571,0,1,1,1.571-1.571A1.571,1.571,0,0,1,37.714,45.286Z" transform="translate(18.285 19.428)"/>
      <path id="Path_829175" data-name="Path 829175" d="M44.714,44a4.714,4.714,0,1,0,4.714,4.714A4.714,4.714,0,0,0,44.714,44Zm0,6.286a1.571,1.571,0,1,1,1.571-1.571A1.571,1.571,0,0,1,44.714,50.286Z" transform="translate(22.285 22.285)"/>
      <path id="Path_829176" data-name="Path 829176" d="M36,48h3.143v3.143H36Z" transform="translate(20 24.571)"/>
      <path id="Path_829177" data-name="Path 829177" d="M42,40h3.143v3.143H42Z" transform="translate(23.428 20)"/>
      <path id="Path_829178" data-name="Path 829178" d="M39,36h3.143v3.143H39Z" transform="translate(21.714 17.714)"/>
      <path id="Path_829179" data-name="Path 829179" d="M31,36h3.143v3.143H31Z" transform="translate(17.142 17.714)"/>
    </g>
  </g>
</svg>
