<svg xmlns="http://www.w3.org/2000/svg" width="169" height="169" viewBox="0 0 169 169">
  <g id="Group_1078444" data-name="Group 1078444" transform="translate(-719 -2877.811)">
    <g id="Group_1073327" data-name="Group 1073327" transform="translate(334 819.811)">
      <g id="Group_159182" data-name="Group 159182" transform="translate(385.001 2058)">
        <path id="Union_12" data-name="Union 12" d="M84.5,0A84.5,84.5,0,1,1,0,84.5,84.5,84.5,0,0,1,84.5,0Z" transform="translate(0 0)" fill="#ffae7e"/>
      </g>
    </g>
    <g id="Group_1077307" data-name="Group 1077307" transform="translate(762.998 2910.306)">
      <rect id="Rectangle_380584" data-name="Rectangle 380584" width="45.004" height="33.337" rx="3" transform="translate(14.978 57.006)" fill="#f99950"/>
      <rect id="Rectangle_380585" data-name="Rectangle 380585" width="26.669" height="38.337" rx="1" transform="translate(56.649 60.339) rotate(90)" fill="#f9a25f"/>
      <path id="Path_829180" data-name="Path 829180" d="M56.045,29h-38.4A13.335,13.335,0,0,0,4.307,42.335V64l-.38.952a5.384,5.384,0,1,0,10.381,2V44a5,5,0,0,1,5-5h35a5,5,0,0,1,5,5V60.67a5,5,0,0,1-5,5H44.722a8.711,8.711,0,0,1-4.054-.922,6.646,6.646,0,0,0-7.781,10.574,10.011,10.011,0,0,1,3.089,6.987v.028h6.667v-1.99a4.677,4.677,0,0,1,4.677-4.677h8.658A13.335,13.335,0,0,0,69.313,62.337v-20A13.335,13.335,0,0,0,56.045,29Z" transform="translate(0.67 18.005)" fill="#f9bb8b"/>
      <path id="Path_829181" data-name="Path 829181" d="M55.073,35.859A4.969,4.969,0,0,0,51.213,34h-35a5,5,0,0,0-5,5V61.953A5.356,5.356,0,0,1,4.345,67.12,5.3,5.3,0,0,0,8.387,69a5.384,5.384,0,0,0,5.384-5.384V40.667a5,5,0,0,1,5-5h35a4.989,4.989,0,0,1,1.3.192Z" transform="translate(1.207 21.339)" fill="#f9c69f"/>
      <path id="Path_829182" data-name="Path 829182" d="M47.335,29.858a13.3,13.3,0,0,1,4.8,10.238v20A13.335,13.335,0,0,1,38.8,73.432H30.14a4.677,4.677,0,0,0-4.677,4.677v3.657h2.562v-1.99A4.677,4.677,0,0,1,32.7,75.1H41.36A13.335,13.335,0,0,0,54.694,61.764v-20a13.316,13.316,0,0,0-7.359-11.9Z" transform="translate(15.289 18.577)" fill="#f9c69f"/>
      <path id="Path_829183" data-name="Path 829183" d="M23.383,32.052a28.626,28.626,0,0,0,9.486,1.4A16.872,16.872,0,0,0,43.78,29H18.214a10.213,10.213,0,0,0,5.169,3.052Z" transform="translate(10.455 18.005)" fill="#f9a25f"/>
      <path id="Path_829184" data-name="Path 829184" d="M46.157,8a11.586,11.586,0,0,0-7.4,2.449,1.667,1.667,0,0,1-2.705-1.272L35.9,3H29.23c0,6.194-.807,6.121,1.2,12.038,1.633,4.8,2.919,9.4.822,14.4a16.4,16.4,0,0,1-7.9,8.167,3.769,3.769,0,0,1-1.682.4A10.786,10.786,0,0,0,11.157,46.41l1.4-.072h7.257a6.651,6.651,0,0,1,4.41-1.667h.585A6.667,6.667,0,0,1,26.923,45L30.9,46.338c4.9,1.455,10.358,1.8,14.835-.667,8.788-4.814,11.638-15.8,11.823-25.169A12.121,12.121,0,0,0,46.157,8Z" transform="translate(5.749 0.667)" fill="#f59f7f"/>
      <path id="Path_829185" data-name="Path 829185" d="M45.732,36.413c-4.484,2.457-9.939,2.114-14.835.658l-3.974-1.323a6.667,6.667,0,0,0-2.109-.343H24.23a6.651,6.651,0,0,0-4.41,1.667H12.562l-.275.015a10.7,10.7,0,0,0-1.13,2.865l1.405-.073H19.82a6.651,6.651,0,0,1,4.41-1.667h.585a6.667,6.667,0,0,1,2.109.333L30.9,39.879c4.9,1.455,10.358,1.8,14.835-.667C54.52,34.4,57.37,23.41,57.555,14.043a12.645,12.645,0,0,0-.055-1.357C57.067,21.72,54.076,31.845,45.732,36.413Z" transform="translate(5.749 7.126)" fill="#f58d67"/>
      <circle id="Ellipse_5931" data-name="Ellipse 5931" cx="1.667" cy="1.667" r="1.667" transform="translate(6.644 83.675)" fill="#f9c69f"/>
      <ellipse id="Ellipse_5932" data-name="Ellipse 5932" cx="2.5" cy="3.334" rx="2.5" ry="3.334" transform="translate(48.808 14.197) rotate(-42.285)" fill="#f5aa8e"/>
      <circle id="Ellipse_5933" data-name="Ellipse 5933" cx="0.833" cy="0.833" r="0.833" transform="translate(56.649 17.002)" fill="#f5aa8e"/>
      <path id="Path_829186" data-name="Path 829186" d="M55.67,3A26.638,26.638,0,0,0,36.054,47.694l-3.72,13.645,12.988-7.084A26.669,26.669,0,1,0,55.67,3Z" transform="translate(17.647 0.667)" fill="#c4dcff"/>
      <rect id="Rectangle_380586" data-name="Rectangle 380586" width="6.667" height="10.001" rx="1.862" transform="translate(76.65 8.668)" fill="#a9c358"/>
      <path id="Path_829187" data-name="Path 829187" d="M49.791,19.552A3.1,3.1,0,0,0,49,23.869L51.1,26.9l2.614,3.78a3.1,3.1,0,1,0,5.106-3.53l-.278-.4-4.429-6.409A3.1,3.1,0,0,0,49.791,19.552Z" transform="translate(30.618 11.336)" fill="#f9a25f"/>
      <path id="Path_829188" data-name="Path 829188" d="M39.518,21.472l6.219-6.219a3.1,3.1,0,0,0,0-4.389l-.333-.333a3.1,3.1,0,0,0-4.389,0L34.8,16.753a3.105,3.105,0,0,0,0,4.39l.333.333a3.108,3.108,0,0,0,.6.455l0-.012h-.01a3.1,3.1,0,0,0,3.792-.448Z" transform="translate(20.912 5.082)" fill="#f9d467"/>
      <rect id="Rectangle_380587" data-name="Rectangle 380587" width="10.001" height="6.667" rx="1.862" transform="translate(64.983 43.671)" fill="#a9c358"/>
      <ellipse id="Ellipse_5934" data-name="Ellipse 5934" cx="3.334" cy="4.324" rx="3.334" ry="4.324" transform="translate(84.001 17.15) rotate(-34.659)" fill="#fff"/>
      <circle id="Ellipse_5935" data-name="Ellipse 5935" cx="2.657" cy="2.657" r="2.657" transform="translate(91.394 23.249)" fill="#fff"/>
      <path id="Path_829189" data-name="Path 829189" d="M28.367,36.782a2.125,2.125,0,0,1-.942.222A12.54,12.54,0,0,0,15.591,45.6,15.016,15.016,0,0,0,3.31,60.339V81.688l-.262.653a7.039,7.039,0,0,0,12.263,6.716A8.231,8.231,0,0,0,21.6,92.009h9.094a8.2,8.2,0,0,0,1.683,2.49,8.394,8.394,0,0,1,2.607,5.844,1.653,1.653,0,0,0,1.667,1.652,1.679,1.679,0,0,0,1.667-1.682,11.678,11.678,0,0,0-3.57-8.157,4.979,4.979,0,0,1,5.822-7.926A10.31,10.31,0,0,0,45.4,85.341h9.583a6.667,6.667,0,0,0,6.667-6.667v-15a1.667,1.667,0,1,0-3.334,0v15a3.334,3.334,0,0,1-3.334,3.334H45.392a7.009,7.009,0,0,1-3.284-.732,8.217,8.217,0,0,0-6.226-.58,8.081,8.081,0,0,0-2.57,1.312H24.979a1.667,1.667,0,1,1,0-3.334h25a5,5,0,0,0,0-10H28.312a1.667,1.667,0,0,1,0-3.334H44.981a1.667,1.667,0,1,0,0-3.334H28.312a5,5,0,1,0,0,10H49.981a1.667,1.667,0,0,1,0,3.334h-25a5,5,0,0,0,0,10h5.7a7.834,7.834,0,0,0-.478,1.4,8.646,8.646,0,0,0-.207,1.939H21.6a4.955,4.955,0,0,1-4.95-4.95V62.006a3.334,3.334,0,0,1,3.334-3.334H46.648a1.667,1.667,0,0,0,0-3.334H19.978a6.667,6.667,0,0,0-6.667,6.667V84.96a3.717,3.717,0,1,1-7.167-1.382l.382-.952a1.667,1.667,0,0,0,.118-.618V60.339A11.681,11.681,0,0,1,18.311,48.671h7.257a1.667,1.667,0,0,0,1.1-.417A5,5,0,0,1,29.979,47h.585a5.034,5.034,0,0,1,1.58.255L36.173,48.6a24.739,24.739,0,0,0,10.723.99,1.667,1.667,0,1,0-.5-3.3,21.535,21.535,0,0,1-9.226-.873L33.2,44.091a8.335,8.335,0,0,0-2.632-.42h-.585a8.334,8.334,0,0,0-5,1.667H19.33a9.168,9.168,0,0,1,8.1-5,5.472,5.472,0,0,0,2.43-.573,18.04,18.04,0,0,0,8.689-9.014c2.305-5.491.947-10.5-.78-15.582a15.567,15.567,0,0,1-1.218-7.627c.047-1,.1-2.219.1-3.874a1.667,1.667,0,1,0-3.334,0c0,1.588-.055,2.755-.1,3.719a18.6,18.6,0,0,0,1.393,8.858c1.568,4.615,2.717,8.8.862,13.218a14.726,14.726,0,0,1-7.1,7.321Z" transform="translate(0 0)"/>
      <path id="Path_829190" data-name="Path 829190" d="M32.344,68.67A6.352,6.352,0,0,0,26,75.015V77a1.667,1.667,0,0,0,3.334,0V75.015A3.015,3.015,0,0,1,32.344,72H41A15.018,15.018,0,0,0,56,57V38.667a1.667,1.667,0,1,0-3.334,0V57A11.681,11.681,0,0,1,41,68.67Z" transform="translate(15.647 23.339)"/>
      <path id="Path_829191" data-name="Path 829191" d="M27.027,12.818a3.334,3.334,0,0,0,3.522-.383,9.9,9.9,0,0,1,6.341-2.1,1.707,1.707,0,0,0,1.7-1.632A1.667,1.667,0,0,0,36.961,7a13.438,13.438,0,0,0-8.476,2.8l-.152-6.177A1.667,1.667,0,1,0,25,3.707l.15,6.167a3.294,3.294,0,0,0,1.877,2.944Z" transform="translate(14.98 0)"/>
      <path id="Path_829192" data-name="Path 829192" d="M50.77,18.335h.46A4.775,4.775,0,0,0,56,13.564V9.77A4.775,4.775,0,0,0,51.231,5h-.46A4.775,4.775,0,0,0,46,9.77v3.794a4.775,4.775,0,0,0,4.77,4.77ZM49.334,9.77A1.438,1.438,0,0,1,50.77,8.334h.46A1.438,1.438,0,0,1,52.667,9.77v3.794A1.438,1.438,0,0,1,51.231,15h-.46a1.438,1.438,0,0,1-1.437-1.437Z" transform="translate(28.984 2.001)"/>
      <path id="Path_829193" data-name="Path 829193" d="M43.667,18a1.667,1.667,0,0,0,0,3.334h1.667a1.667,1.667,0,1,0,0-3.334Z" transform="translate(26.316 10.669)"/>
      <path id="Path_829194" data-name="Path 829194" d="M54,16.667a1.667,1.667,0,0,0,1.667,1.667h1.667a1.667,1.667,0,1,0,0-3.334H55.667A1.667,1.667,0,0,0,54,16.667Z" transform="translate(34.318 8.669)"/>
      <path id="Path_829195" data-name="Path 829195" d="M43.167,8.772h1.667a1.667,1.667,0,1,0,0-3.334H43.167a1.667,1.667,0,1,0,0,3.334Z" transform="translate(25.983 2.293)"/>
      <path id="Path_829196" data-name="Path 829196" d="M44,33.971c.27-.18,2.629-1.834,2.167-4.137-.492-2.487-3.719-3.407-6.1-3.884a7.247,7.247,0,0,1-3.445-1.255,1.939,1.939,0,0,1,.133-.167,4.817,4.817,0,0,0,1.24.182,4.739,4.739,0,0,0,3.374-1.4l6.219-6.219a4.782,4.782,0,0,0,0-6.749l-.333-.323a4.777,4.777,0,0,0-6.746,0l-6.217,6.217a4.725,4.725,0,0,0-.288,6.4,3.409,3.409,0,0,0-.7,2.7c.492,2.487,3.719,3.407,6.1,3.884a7.247,7.247,0,0,1,3.445,1.255,2.734,2.734,0,0,1-.71.725,1.667,1.667,0,0,0,1.85,2.774ZM36.654,18.6l6.217-6.217a1.44,1.44,0,0,1,2.034,0l.322.322a1.438,1.438,0,0,1,0,2.034l-6.219,6.217a1.468,1.468,0,0,1-2.032,0l-.333-.333a1.438,1.438,0,0,1,0-2.032Z" transform="translate(20.241 4.42)"/>
      <path id="Path_829197" data-name="Path 829197" d="M47.564,26H43.77A4.775,4.775,0,0,0,39,30.77v.46A4.775,4.775,0,0,0,43.77,36h3.794a4.775,4.775,0,0,0,4.77-4.77v-.46A4.775,4.775,0,0,0,47.564,26ZM49,31.231a1.438,1.438,0,0,1-1.437,1.437H43.77a1.438,1.438,0,0,1-1.437-1.437v-.46a1.438,1.438,0,0,1,1.437-1.437h3.794A1.438,1.438,0,0,1,49,30.77Z" transform="translate(24.316 16.004)"/>
      <path id="Path_829198" data-name="Path 829198" d="M60.962,25.674l-.5.15-.657-.948A1.655,1.655,0,0,0,58.245,22l-.343.118-1.157-1.667.263-.393A1.671,1.671,0,1,0,54.236,18.2l-.225.333c-.12-.03-.232-.078-.355-.1a4.68,4.68,0,0,0-2.1.1l-.2-.263a1.667,1.667,0,1,0-2.63,2.049l.118.152a4.729,4.729,0,0,0-.737,1.8c-.012.065,0,.13-.017.2a1.655,1.655,0,0,0,.148,3.3h.6c.015.022.023.047.037.067L49.959,27.4a1.647,1.647,0,0,0-.465,2.135,1.667,1.667,0,0,0,1.45.842,1.64,1.64,0,0,0,.823-.22l.07-.04.743,1.073a1.647,1.647,0,0,0-.438,2.124,1.667,1.667,0,0,0,2.277.612l.293-.167a4.55,4.55,0,0,0,3.905.8l.105.167a1.667,1.667,0,1,0,2.812-1.79l-.157-.238a4.772,4.772,0,0,0,.737-3.934,1.647,1.647,0,0,0,.925-1.977,1.667,1.667,0,0,0-2.079-1.112ZM56.327,30.76l-4.715-6.811a1.437,1.437,0,1,1,2.364-1.635l4.709,6.811A1.437,1.437,0,0,1,56.32,30.76Z" transform="translate(29.373 10.308)"/>
      <path id="Path_829199" data-name="Path 829199" d="M56.336,2a28.3,28.3,0,0,0-21.46,46.795L31.392,61.568a1.667,1.667,0,0,0,2.407,1.9l12.295-6.707A28.336,28.336,0,1,0,56.336,2ZM67.909,52.478a1.6,1.6,0,0,0-1.572-2.14H64.671a1.667,1.667,0,0,0,0,3.334h.568a24.836,24.836,0,0,1-18.6-.287,1.683,1.683,0,0,0-1.445.073l-9.551,5.214,2.7-9.873a1.667,1.667,0,0,0-.38-1.565,24.979,24.979,0,0,1-6.217-12.518,1.642,1.642,0,0,0,1.263.62h1.667a1.667,1.667,0,0,0,0-3.334H33a1.667,1.667,0,0,0-1.512.983,24.583,24.583,0,0,1-.155-2.65A25,25,0,1,1,67.909,52.478Z" transform="translate(16.98 0)"/>
    </g>
  </g>
</svg>
