<svg xmlns="http://www.w3.org/2000/svg" xmlns:xlink="http://www.w3.org/1999/xlink" width="190" height="178" viewBox="0 0 190 178">
  <defs>
    <clipPath id="clip-path">
      <rect id="Rectangle_381038" data-name="Rectangle 381038" width="190" height="178" transform="translate(1125 3424)" fill="#fff" stroke="#707070" stroke-width="1"/>
    </clipPath>
  </defs>
  <g id="Mask_Group_457" data-name="Mask Group 457" transform="translate(-1125 -3424)" clip-path="url(#clip-path)">
    <g id="Group_1078398" data-name="Group 1078398" transform="translate(1152.127 3439.199)">
      <g id="Group_1078374" data-name="Group 1078374" transform="translate(3.544 2.964)">
        <g id="Group_1078346" data-name="Group 1078346">
          <path id="Path_830959" data-name="Path 830959" d="M13.868,22.337a9.031,9.031,0,0,1,9.026-9.026H97.8V11.026A9,9,0,0,0,88.773,2H11.629A9.035,9.035,0,0,0,2.58,11.026V123.338a9.031,9.031,0,0,0,9.026,9.026h2.262Z" transform="translate(-2.58 -2)" fill="#8aba55"/>
        </g>
        <g id="Group_1078347" data-name="Group 1078347" transform="translate(58.909)" opacity="0.3">
          <path id="Path_830960" data-name="Path 830960" d="M55.644,2H28.36a7.8,7.8,0,0,0,7.792,7.792H56.878v15.15a7.8,7.8,0,0,0,7.792,7.792h.023V11.026A9.035,9.035,0,0,0,55.644,2Z" transform="translate(-28.36 -2)" fill="#fff"/>
        </g>
        <g id="Group_1078348" data-name="Group 1078348" transform="translate(11.311 11.288)">
          <path id="Path_830961" data-name="Path 830961" d="M93.7,6.94H16.556A9.031,9.031,0,0,0,7.53,15.966V128.278a9.031,9.031,0,0,0,9.026,9.026H93.723a9.031,9.031,0,0,0,9.026-9.026V15.989A9.04,9.04,0,0,0,93.7,6.94Z" transform="translate(-7.53 -6.94)" fill="#e2e2e2"/>
        </g>
        <g id="Group_1078349" data-name="Group 1078349" transform="translate(20.84 57.264)">
          <path id="Path_830962" data-name="Path 830962" d="M11.7,27.06H30.643V46H11.7Z" transform="translate(-11.7 -27.06)" fill="#ef4a51"/>
        </g>
        <g id="Group_1078350" data-name="Group 1078350" transform="translate(20.84 84.411)">
          <path id="Path_830963" data-name="Path 830963" d="M11.7,38.94H30.643V57.883H11.7Z" transform="translate(-11.7 -38.94)" fill="#ffab03"/>
        </g>
        <g id="Group_1078351" data-name="Group 1078351" transform="translate(20.84 111.58)">
          <path id="Path_830964" data-name="Path 830964" d="M11.7,50.83H30.643V69.773H11.7Z" transform="translate(-11.7 -50.83)" fill="#7cb5e8"/>
        </g>
        <g id="Group_1078352" data-name="Group 1078352" transform="translate(20.84 111.58)">
          <path id="Path_830965" data-name="Path 830965" d="M11.7,50.83H30.643V69.773H11.7Z" transform="translate(-11.7 -50.83)" fill="#7cb5e8"/>
        </g>
        <g id="Group_1078353" data-name="Group 1078353" transform="translate(27.695 111.58)" opacity="0.3">
          <path id="Path_830966" data-name="Path 830966" d="M14.7,58.348a4.584,4.584,0,0,0,4.57,4.57h7.518V50.83H14.7Z" transform="translate(-14.7 -50.83)" fill="#fff"/>
        </g>
        <g id="Group_1078354" data-name="Group 1078354" transform="translate(27.695 84.411)" opacity="0.3">
          <path id="Path_830967" data-name="Path 830967" d="M14.7,46.458a4.584,4.584,0,0,0,4.57,4.57h7.518V38.94H14.7Z" transform="translate(-14.7 -38.94)" fill="#fff"/>
        </g>
        <g id="Group_1078355" data-name="Group 1078355" transform="translate(27.695 57.241)" opacity="0.3">
          <path id="Path_830968" data-name="Path 830968" d="M14.7,34.568a4.584,4.584,0,0,0,4.57,4.57h7.518V27.05H14.7Z" transform="translate(-14.7 -27.05)" fill="#fff"/>
        </g>
        <g id="Group_1078356" data-name="Group 1078356" transform="translate(42.434 11.288)" opacity="0.3">
          <path id="Path_830969" data-name="Path 830969" d="M76.2,6.94H21.15V35.663A37.819,37.819,0,0,0,58.968,73.481H85.246V15.989A9.04,9.04,0,0,0,76.2,6.94Z" transform="translate(-21.15 -6.94)" fill="#fff"/>
        </g>
        <g id="Group_1078357" data-name="Group 1078357" transform="translate(63.045 11.311)" opacity="0.5">
          <path id="Path_830970" data-name="Path 830970" d="M64.606,6.95H30.17a9.333,9.333,0,0,0,9.323,9.323H64.309V34.417a9.333,9.333,0,0,0,9.323,9.323h.023V15.976A9.035,9.035,0,0,0,64.606,6.95Z" transform="translate(-30.17 -6.95)" fill="#fff"/>
        </g>
        <g id="Group_1078358" data-name="Group 1078358" transform="translate(59.755 51.529)">
          <circle id="Ellipse_5955" data-name="Ellipse 5955" cx="29.386" cy="29.386" r="29.386" transform="translate(0 0)" fill="#fff"/>
        </g>
        <g id="Group_1078359" data-name="Group 1078359" transform="translate(67.216 59.001)">
          <path id="Path_830971" data-name="Path 830971" d="M53.92,71.694A21.937,21.937,0,1,0,38.4,65.272,21.794,21.794,0,0,0,53.92,71.694Z" transform="translate(-31.995 -27.82)" fill="#7cb5e8"/>
        </g>
        <g id="Group_1078360" data-name="Group 1078360" transform="translate(74.347 58.978)" opacity="0.3">
          <path id="Path_830972" data-name="Path 830972" d="M49.91,27.81A21.787,21.787,0,0,0,38.393,31.1,21.924,21.924,0,0,0,68.579,61.286,21.924,21.924,0,0,0,49.91,27.81Z" transform="translate(-35.116 -27.81)" fill="#fff"/>
        </g>
        <g id="Group_1078361" data-name="Group 1078361" transform="translate(111.398 103.148)">
          <path id="Path_830973" data-name="Path 830973" d="M58.894,48.442,52.632,54.7a6.721,6.721,0,0,1-1.3.983l17.3,17.3a6.043,6.043,0,0,0,8.546-8.546l-17.3-17.3A6.094,6.094,0,0,1,58.894,48.442Z" transform="translate(-51.33 -47.14)" fill="#ef4a51"/>
        </g>
        <g id="Group_1078362" data-name="Group 1078362" transform="translate(114.894 103.171)" opacity="0.3">
          <path id="Path_830974" data-name="Path 830974" d="M57.91,47.15a7.493,7.493,0,0,1-.983,1.3L52.86,52.52,66.685,66.345a6.055,6.055,0,0,0,8.546,0,7.343,7.343,0,0,0,.777-.937,6.042,6.042,0,0,0-.777-.937Z" transform="translate(-52.86 -47.15)" fill="#e2e2e2"/>
        </g>
        <g id="Group_1078363" data-name="Group 1078363" transform="translate(100.361 92.134)">
          <path id="Path_830975" data-name="Path 830975" d="M56.074,51.894A28.8,28.8,0,0,0,62.45,42.32L65.1,44.971a6.854,6.854,0,0,1,0,9.689l-6.261,6.261a6.854,6.854,0,0,1-9.689,0L46.5,58.27a29.76,29.76,0,0,0,9.574-6.375Z" transform="translate(-46.5 -42.32)" fill="#4e6575"/>
        </g>
        <g id="Group_1078364" data-name="Group 1078364" transform="translate(103.56 92.112)" opacity="0.3">
          <path id="Path_830976" data-name="Path 830976" d="M57.017,56.2l6.261-6.261a6.878,6.878,0,0,0,1.577-2.491,6.878,6.878,0,0,0-1.577-2.491L60.628,42.31a29.76,29.76,0,0,1-6.375,9.574,28.864,28.864,0,0,1-6.353,4.8,6.854,6.854,0,0,0,9.117-.48Z" transform="translate(-47.9 -42.31)" fill="#e2e2e2"/>
        </g>
        <g id="Group_1078367" data-name="Group 1078367" transform="translate(48.375 18.144)">
          <g id="Group_1078365" data-name="Group 1078365">
            <path id="Path_830977" data-name="Path 830977" d="M34.284,9.94l3.268,6.6L44.841,17.6l-5.279,5.141L40.8,30l-6.512-3.428L27.772,30l1.234-7.267L23.75,17.6l7.267-1.051Z" transform="translate(-23.75 -9.94)" fill="#ffab03"/>
          </g>
          <g id="Group_1078366" data-name="Group 1078366" transform="translate(5.484)" opacity="0.3">
            <path id="Path_830978" data-name="Path 830978" d="M34.468,16.544,31.2,9.94l-3.268,6.6L26.15,16.8a10.586,10.586,0,0,0,10.214,7.929c.137,0,.274-.046.411-.046l-.343-1.942L41.711,17.6Z" transform="translate(-26.15 -9.94)" fill="#fff"/>
          </g>
        </g>
        <g id="Group_1078370" data-name="Group 1078370" transform="translate(25.342 26.187)">
          <g id="Group_1078368" data-name="Group 1078368">
            <path id="Path_830979" data-name="Path 830979" d="M24.227,13.46l3.245,6.6,7.289,1.051-5.279,5.141,1.257,7.267L24.227,30.1l-6.535,3.428,1.257-7.267L13.67,21.115l7.289-1.051Z" transform="translate(-13.67 -13.46)" fill="#ffab03"/>
          </g>
          <g id="Group_1078369" data-name="Group 1078369" transform="translate(5.484)" opacity="0.3">
            <path id="Path_830980" data-name="Path 830980" d="M24.388,20.064l-3.268-6.6-3.268,6.6-1.782.251a10.586,10.586,0,0,0,10.214,7.929c.137,0,.274-.046.411-.046l-.343-1.942,5.279-5.141Z" transform="translate(-16.07 -13.46)" fill="#fff"/>
          </g>
        </g>
        <g id="Group_1078373" data-name="Group 1078373" transform="translate(71.386 26.187)">
          <g id="Group_1078371" data-name="Group 1078371">
            <path id="Path_830981" data-name="Path 830981" d="M44.377,13.46l3.245,6.6,7.289,1.051-5.279,5.141,1.257,7.267L44.377,30.1l-6.535,3.428L39.1,26.256,33.82,21.115l7.289-1.051Z" transform="translate(-33.82 -13.46)" fill="#ffab03"/>
          </g>
          <g id="Group_1078372" data-name="Group 1078372" transform="translate(5.484)" opacity="0.3">
            <path id="Path_830982" data-name="Path 830982" d="M44.538,20.064l-3.268-6.6L38,20.064l-1.782.251a10.586,10.586,0,0,0,10.214,7.929c.137,0,.274-.046.411-.046L46.5,26.256l5.279-5.141Z" transform="translate(-36.22 -13.46)" fill="#fff"/>
          </g>
        </g>
      </g>
      <g id="Group_1078397" data-name="Group 1078397" transform="translate(1.83 1.25)">
        <g id="Group_1078375" data-name="Group 1078375" transform="translate(59.772 51.569)">
          <path id="Path_830983" data-name="Path 830983" d="M59.07,85.977a31.077,31.077,0,1,1,21.982-9.095A31.023,31.023,0,0,1,59.07,85.977Zm0-58.749a27.649,27.649,0,1,0,19.56,8.089A27.576,27.576,0,0,0,59.07,27.228Z" transform="translate(-27.987 -23.818)"/>
        </g>
        <g id="Group_1078376" data-name="Group 1078376" transform="translate(67.185 59.001)">
          <path id="Path_830984" data-name="Path 830984" d="M54.9,74.371A23.663,23.663,0,0,1,33.879,39.844a1.712,1.712,0,1,1,3.039,1.577,20.19,20.19,0,1,0,3.656-5,1.713,1.713,0,1,1-2.422-2.422A23.655,23.655,0,1,1,54.9,74.371Z" transform="translate(-31.231 -27.07)"/>
        </g>
        <g id="Group_1078377" data-name="Group 1078377" transform="translate(111.406 103.18)">
          <path id="Path_830985" data-name="Path 830985" d="M73.86,77.449a7.617,7.617,0,0,1-5.484-2.285l-17.3-17.3a1.7,1.7,0,0,1-.48-1.417,1.751,1.751,0,0,1,.8-1.257,4.993,4.993,0,0,0,.96-.731L58.619,48.2a4.794,4.794,0,0,0,.731-.96,1.712,1.712,0,0,1,2.674-.343l17.3,17.3A7.769,7.769,0,0,1,73.86,77.449ZM54.848,56.815,70.8,72.765a4.416,4.416,0,0,0,6.124,0,4.331,4.331,0,0,0,0-6.124l-15.95-15.95Z" transform="translate(-50.584 -46.404)"/>
        </g>
        <g id="Group_1078378" data-name="Group 1078378" transform="translate(100.336 92.101)">
          <path id="Path_830986" data-name="Path 830986" d="M54.95,65.6a8.5,8.5,0,0,1-6.055-2.514l-2.651-2.651a1.77,1.77,0,0,1-.48-1.554,1.742,1.742,0,0,1,1.028-1.257A27.679,27.679,0,0,0,61.805,42.617a1.742,1.742,0,0,1,1.257-1.028,1.708,1.708,0,0,1,1.554.48l2.651,2.651a8.578,8.578,0,0,1,0,12.111l-6.261,6.261A8.466,8.466,0,0,1,54.95,65.6Zm-4.524-5.827.914.914a5.259,5.259,0,0,0,7.267,0l6.261-6.261a5.131,5.131,0,0,0,0-7.267l-.914-.914a31.837,31.837,0,0,1-5.69,7.838A30.31,30.31,0,0,1,50.426,59.778Z" transform="translate(-45.739 -41.555)"/>
        </g>
        <g id="Group_1078379" data-name="Group 1078379" transform="translate(50.455 122.252)">
          <path id="Path_830987" data-name="Path 830987" d="M43.9,58.178H25.624a1.714,1.714,0,0,1,0-3.428H43.9a1.714,1.714,0,1,1,0,3.428Z" transform="translate(-23.91 -54.75)"/>
        </g>
        <g id="Group_1078380" data-name="Group 1078380" transform="translate(77.121 122.252)">
          <path id="Path_830988" data-name="Path 830988" d="M41.635,58.178H37.294a1.714,1.714,0,0,1,0-3.428h4.342a1.714,1.714,0,0,1,0,3.428Z" transform="translate(-35.58 -54.75)"/>
        </g>
        <g id="Group_1078381" data-name="Group 1078381" transform="translate(50.455 130.524)">
          <path id="Path_830989" data-name="Path 830989" d="M43.9,61.8H25.624a1.714,1.714,0,0,1,0-3.428H43.9a1.714,1.714,0,1,1,0,3.428Z" transform="translate(-23.91 -58.37)"/>
        </g>
        <g id="Group_1078382" data-name="Group 1078382" transform="translate(77.121 130.524)">
          <path id="Path_830990" data-name="Path 830990" d="M41.635,61.8H37.294a1.714,1.714,0,0,1,0-3.428h4.342a1.714,1.714,0,0,1,0,3.428Z" transform="translate(-35.58 -58.37)"/>
        </g>
        <g id="Group_1078383" data-name="Group 1078383" transform="translate(11.311 31.648)">
          <path id="Path_830991" data-name="Path 830991" d="M94.664,128.554H17.52a10.757,10.757,0,0,1-10.74-10.74v-101a1.714,1.714,0,1,1,3.428,0v101a7.319,7.319,0,0,0,7.312,7.312H94.687A7.319,7.319,0,0,0,102,117.814V102.39a1.714,1.714,0,1,1,3.428,0v15.424a10.762,10.762,0,0,1-10.763,10.74Z" transform="translate(-6.78 -15.1)"/>
        </g>
        <g id="Group_1078384" data-name="Group 1078384" transform="translate(11.311 11.311)">
          <path id="Path_830992" data-name="Path 830992" d="M103.713,50.051A1.726,1.726,0,0,1,102,48.337V16.94a7.319,7.319,0,0,0-7.312-7.312H17.52a7.319,7.319,0,0,0-7.312,7.312V20.23a1.714,1.714,0,1,1-3.428,0V16.94A10.757,10.757,0,0,1,17.52,6.2H94.687a10.757,10.757,0,0,1,10.74,10.74V48.36A1.707,1.707,0,0,1,103.713,50.051Z" transform="translate(-6.78 -6.2)"/>
        </g>
        <g id="Group_1078385" data-name="Group 1078385" transform="translate(0.023 115.259)">
          <path id="Path_830993" data-name="Path 830993" d="M14.819,70.245H12.58A10.757,10.757,0,0,1,1.84,59.5V53.4a1.714,1.714,0,0,1,3.428,0v6.1a7.319,7.319,0,0,0,7.312,7.312h2.262a1.714,1.714,0,1,1-.023,3.428Z" transform="translate(-1.84 -51.69)"/>
        </g>
        <g id="Group_1078386" data-name="Group 1078386">
          <path id="Path_830994" data-name="Path 830994" d="M3.544,114.087a1.726,1.726,0,0,1-1.714-1.714V11.99A10.757,10.757,0,0,1,12.57,1.25H89.737a10.757,10.757,0,0,1,10.74,10.74v2.262a1.714,1.714,0,1,1-3.428,0V11.99a7.319,7.319,0,0,0-7.312-7.312H12.593A7.319,7.319,0,0,0,5.28,11.99V112.373a1.746,1.746,0,0,1-1.737,1.714Z" transform="translate(-1.83 -1.25)"/>
        </g>
        <g id="Group_1078387" data-name="Group 1078387" transform="translate(25.326 26.273)">
          <path id="Path_830995" data-name="Path 830995" d="M18.664,36.152a1.753,1.753,0,0,1-1.005-.32,1.706,1.706,0,0,1-.686-1.668l1.1-6.375-4.639-4.5A1.734,1.734,0,0,1,13,21.528a1.711,1.711,0,0,1,1.394-1.165l6.4-.937,2.856-5.8a1.778,1.778,0,0,1,3.062,0l2.856,5.8,6.4.937a1.713,1.713,0,0,1,.96,2.925l-4.639,4.5,1.1,6.375a1.688,1.688,0,0,1-.686,1.668,1.719,1.719,0,0,1-1.805.137l-5.713-3.016L19.464,35.97a1.948,1.948,0,0,1-.8.183ZM25.2,29.3a1.667,1.667,0,0,1,.8.206l3.45,1.805-.663-3.839a1.7,1.7,0,0,1,.5-1.508l2.788-2.719-3.862-.571a1.707,1.707,0,0,1-1.28-.937l-1.714-3.5-1.714,3.5a1.748,1.748,0,0,1-1.28.937l-3.862.571,2.788,2.719a1.7,1.7,0,0,1,.5,1.508l-.663,3.839,3.45-1.805A1.382,1.382,0,0,1,25.2,29.3Z" transform="translate(-12.913 -12.748)"/>
        </g>
        <g id="Group_1078388" data-name="Group 1078388" transform="translate(48.36 18.229)">
          <path id="Path_830996" data-name="Path 830996" d="M28.744,32.632a1.753,1.753,0,0,1-1.005-.32,1.706,1.706,0,0,1-.686-1.668l1.1-6.375-4.639-4.5a1.734,1.734,0,0,1-.434-1.76,1.711,1.711,0,0,1,1.394-1.165l6.4-.937,2.856-5.8a1.778,1.778,0,0,1,3.062,0l2.856,5.8,6.4.937A1.713,1.713,0,0,1,47,19.767l-4.639,4.5,1.1,6.375a1.688,1.688,0,0,1-.686,1.668,1.719,1.719,0,0,1-1.805.137l-5.713-3.016L29.544,32.45a1.948,1.948,0,0,1-.8.183Zm6.512-6.855a1.667,1.667,0,0,1,.8.206l3.45,1.805-.663-3.839a1.7,1.7,0,0,1,.5-1.508l2.788-2.719-3.862-.571a1.707,1.707,0,0,1-1.28-.937l-1.714-3.5-1.714,3.5a1.748,1.748,0,0,1-1.28.937l-3.862.571,2.788,2.719a1.7,1.7,0,0,1,.5,1.508l-.663,3.839,3.45-1.805a1.382,1.382,0,0,1,.754-.206Z" transform="translate(-22.993 -9.227)"/>
        </g>
        <g id="Group_1078389" data-name="Group 1078389" transform="translate(71.371 26.273)">
          <path id="Path_830997" data-name="Path 830997" d="M38.814,36.152a1.753,1.753,0,0,1-1.005-.32,1.706,1.706,0,0,1-.686-1.668l1.1-6.375-4.639-4.5a1.734,1.734,0,0,1-.434-1.76,1.711,1.711,0,0,1,1.394-1.165l6.4-.937,2.856-5.8a1.778,1.778,0,0,1,3.062,0l2.856,5.8,6.4.937a1.713,1.713,0,0,1,.96,2.925l-4.639,4.5,1.1,6.375a1.688,1.688,0,0,1-.686,1.668,1.719,1.719,0,0,1-1.805.137l-5.713-3.016L39.614,35.97a1.948,1.948,0,0,1-.8.183ZM45.35,29.3a1.667,1.667,0,0,1,.8.206l3.45,1.805-.686-3.839a1.7,1.7,0,0,1,.5-1.508L52.2,23.242l-3.862-.571a1.707,1.707,0,0,1-1.28-.937l-1.714-3.5-1.714,3.5a1.748,1.748,0,0,1-1.28.937l-3.862.571,2.788,2.719a1.7,1.7,0,0,1,.5,1.508l-.663,3.839,3.45-1.805A1.52,1.52,0,0,1,45.35,29.3Z" transform="translate(-33.063 -12.748)"/>
        </g>
        <g id="Group_1078390" data-name="Group 1078390" transform="translate(20.84 57.241)">
          <path id="Path_830998" data-name="Path 830998" d="M31.607,48.671H12.664a1.726,1.726,0,0,1-1.714-1.714V28.014A1.726,1.726,0,0,1,12.664,26.3H31.607a1.726,1.726,0,0,1,1.714,1.714v13.6a1.714,1.714,0,0,1-3.428,0V29.75H14.378V45.266H31.607a1.726,1.726,0,0,1,1.714,1.714A1.692,1.692,0,0,1,31.607,48.671Z" transform="translate(-10.95 -26.3)"/>
        </g>
        <g id="Group_1078391" data-name="Group 1078391" transform="translate(26.124 63.874)">
          <path id="Path_830999" data-name="Path 830999" d="M17.69,38.314a1.7,1.7,0,0,1-1.211-.5L13.76,35.092a1.713,1.713,0,0,1,2.422-2.422l1.485,1.485L22.123,29.7a1.713,1.713,0,0,1,2.422,2.422l-5.667,5.667a1.549,1.549,0,0,1-1.188.526Z" transform="translate(-13.262 -29.202)"/>
        </g>
        <g id="Group_1078392" data-name="Group 1078392" transform="translate(20.84 84.411)">
          <path id="Path_831000" data-name="Path 831000" d="M31.607,60.561H12.664a1.726,1.726,0,0,1-1.714-1.714V39.9a1.726,1.726,0,0,1,1.714-1.714H31.607A1.726,1.726,0,0,1,33.321,39.9V58.847A1.7,1.7,0,0,1,31.607,60.561ZM14.378,57.133H29.893V41.618H14.378Z" transform="translate(-10.95 -38.19)"/>
        </g>
        <g id="Group_1078393" data-name="Group 1078393" transform="translate(26.124 91.043)">
          <path id="Path_831001" data-name="Path 831001" d="M17.69,50.2a1.712,1.712,0,0,1-1.211-.5L13.76,46.982a1.713,1.713,0,0,1,2.422-2.422l1.485,1.485,4.456-4.456a1.713,1.713,0,0,1,2.422,2.422l-5.667,5.667a1.559,1.559,0,0,1-1.188.526Z" transform="translate(-13.262 -41.092)"/>
        </g>
        <g id="Group_1078394" data-name="Group 1078394" transform="translate(20.84 111.58)">
          <path id="Path_831002" data-name="Path 831002" d="M31.607,72.451H17.942a1.714,1.714,0,0,1,0-3.428H29.893V53.508H14.378v17.23a1.714,1.714,0,0,1-3.428,0V51.794a1.726,1.726,0,0,1,1.714-1.714H31.607a1.726,1.726,0,0,1,1.714,1.714V70.737A1.711,1.711,0,0,1,31.607,72.451Z" transform="translate(-10.95 -50.08)"/>
        </g>
        <g id="Group_1078395" data-name="Group 1078395" transform="translate(26.124 118.213)">
          <path id="Path_831003" data-name="Path 831003" d="M17.69,62.094a1.712,1.712,0,0,1-1.211-.5L13.76,58.872a1.713,1.713,0,0,1,2.422-2.422l1.485,1.485,4.456-4.456A1.713,1.713,0,0,1,24.545,55.9l-5.667,5.667a1.559,1.559,0,0,1-1.188.526Z" transform="translate(-13.262 -52.982)"/>
        </g>
        <g id="Group_1078396" data-name="Group 1078396" transform="translate(79.549 73.974)">
          <path id="Path_831004" data-name="Path 831004" d="M43.606,50.983a1.7,1.7,0,0,1-1.211-.5l-5.256-5.256A1.713,1.713,0,0,1,39.562,42.8l4.045,4.045L56.334,34.12a1.713,1.713,0,0,1,2.422,2.422L44.817,50.481a1.712,1.712,0,0,1-1.211.5Z" transform="translate(-36.642 -33.622)"/>
        </g>
      </g>
    </g>
  </g>
</svg>
