<svg xmlns="http://www.w3.org/2000/svg" width="169" height="169" viewBox="0 0 169 169">
  <g id="Group_1078446" data-name="Group 1078446" transform="translate(-384.743 -2057.999)">
    <g id="Group_159182" data-name="Group 159182" transform="translate(384.743 2057.999)">
      <path id="Union_12" data-name="Union 12" d="M84.5,0A84.5,84.5,0,1,1,0,84.5,84.5,84.5,0,0,1,84.5,0Z" transform="translate(0 0)" fill="#ffae7e"/>
    </g>
    <g id="Group_1077312" data-name="Group 1077312" transform="translate(416.406 2090.335)">
      <path id="Path_829220" data-name="Path 829220" d="M78.526,24.066H65.148L56.04,5.849A3.345,3.345,0,0,0,53.049,4h-18a3.345,3.345,0,0,0-2.364.98l-6,4.037H20V30.755h6.689l6.689,6.689H46.755a3.342,3.342,0,0,0,2.675-1.338l4.013-5.351H78.526a3.344,3.344,0,1,0,0-6.689Z" transform="translate(12.771 1.344)" fill="#ffdbac"/>
      <path id="Path_829221" data-name="Path 829221" d="M46,18h3.344v3.344H46Z" transform="translate(30.247 10.755)" fill="#ff8088"/>
      <path id="Path_829222" data-name="Path 829222" d="M77.493,53.249l-4.409-8.361-10.722-6.7A3.225,3.225,0,0,0,58.587,43.4L63.05,49.9H35.689a3.343,3.343,0,0,0-3.344,3.344v3.344a3.344,3.344,0,0,0,0,6.689v3.344a3.343,3.343,0,0,0,3.344,3.344h5.016v1.665a5.023,5.023,0,0,0,5.023,5.023H70.247a1.671,1.671,0,0,0,1-.334l6.242-4.682h8.361V53.249Z" transform="translate(18.82 23.993)" fill="#ffdbac"/>
      <path id="Path_829223" data-name="Path 829223" d="M58.049,51.689l-3.344-1.672L49.689,45H43l5.016,6.689,5.016,3.344,6.689,5.016Z" transform="translate(28.231 28.903)" fill="#ff8088"/>
      <path id="Path_829224" data-name="Path 829224" d="M48.4,24l-3.256,8.68a3.477,3.477,0,1,0,6.511,0Z" transform="translate(29.521 14.787)" fill="#ff8088"/>
      <circle id="Ellipse_5937" data-name="Ellipse 5937" cx="16.526" cy="16.526" r="16.526" transform="translate(3.132 4.132)" fill="#e6e6e6"/>
      <circle id="Ellipse_5938" data-name="Ellipse 5938" cx="6.93" cy="6.93" r="6.93" transform="translate(12.728 13.728)" fill="#ff8088"/>
      <path id="Path_829225" data-name="Path 829225" d="M75.233,44.786a1.68,1.68,0,0,0-.592-.637l-10.722-6.7A4.9,4.9,0,0,0,58,45.193l2.548,3.719H36.361a5.023,5.023,0,0,0-5.016,5.016v1.98a4.987,4.987,0,0,0,0,9.418v1.98a5.023,5.023,0,0,0,5.016,5.016h3.344a6.7,6.7,0,0,0,6.7,6.689H70.919a3.368,3.368,0,0,0,2.007-.669l5.8-4.348h7.8V70.65H78.165a1.671,1.671,0,0,0-1,.334l-6.242,4.682H46.4a3.356,3.356,0,0,1-3.351-3.344H53.082V68.978H36.361a1.674,1.674,0,0,1-1.672-1.672V65.633H53.082V62.289H33.016a1.672,1.672,0,0,1,0-3.344H53.082V55.6H34.689V53.928a1.674,1.674,0,0,1,1.672-1.672H52.246l4.515,6.02a1.642,1.642,0,0,0,.41.388l4.941,3.291L68.8,66.971a1.671,1.671,0,0,0,2.642-1.665l-1.672-8.361a1.668,1.668,0,0,0-.891-1.167l-3.1-1.552-1.98-1.98a1.664,1.664,0,0,0,1.3-2.607l-4.463-6.506a1.657,1.657,0,0,0-.309-.339,1.553,1.553,0,0,1,1.818-2.51l10.339,6.463,4.2,7.963a1.675,1.675,0,0,0,1.48.891h8.361V52.256H79.173Zm-11.628,12a1.678,1.678,0,0,0,.435.314L66.652,58.4l.654,3.269-3.264-2.446L59.264,56.04l-2.838-3.784h2.652Z" transform="translate(18.148 23.319)"/>
      <path id="Path_829226" data-name="Path 829226" d="M9.737,22.309,7.246,24.8,9.61,27.165,12.1,24.673A8.3,8.3,0,0,0,15.033,25.9V29.41h3.344V25.9a8.3,8.3,0,0,0,2.931-1.224L23.8,27.165,26.165,24.8l-2.492-2.492A8.3,8.3,0,0,0,24.9,19.377H28.41V16.033H24.9A8.309,8.309,0,0,0,23.673,13.1l2.492-2.492L23.8,8.246l-2.492,2.492a8.3,8.3,0,0,0-2.931-1.224V6H15.033V9.513A8.3,8.3,0,0,0,12.1,10.737L9.61,8.246,7.246,10.61,9.737,13.1a8.309,8.309,0,0,0-1.224,2.931H5v3.344H8.513a8.309,8.309,0,0,0,1.224,2.931Zm6.968-9.62a5.016,5.016,0,1,1-5.016,5.016A5.023,5.023,0,0,1,16.705,12.689Z" transform="translate(2.689 2.689)"/>
      <circle id="Ellipse_5939" data-name="Ellipse 5939" cx="1.599" cy="1.599" r="1.599" transform="translate(18.059 19.059)"/>
      <path id="Path_829227" data-name="Path 829227" d="M19.394,38.787a18.307,18.307,0,0,0,12.585-5.016h6.787l6.2,6.2a1.675,1.675,0,0,0,1.184.49H59.526a5.044,5.044,0,0,0,4.013-2.007l3.512-4.682H91.3a5.016,5.016,0,0,0,0-10.033H78.953L70.306,6.445A4.989,4.989,0,0,0,65.82,3.672h-18A4.98,4.98,0,0,0,44.4,5.018L38.95,8.689H33.572a18.39,18.39,0,1,0-14.178,30.1ZM35.757,12.033h3.7a1.677,1.677,0,0,0,.935-.286l6-4.037a1.515,1.515,0,0,0,.247-.2,1.678,1.678,0,0,1,1.182-.49h18a1.662,1.662,0,0,1,1.495.925l1.211,2.42H61.2v3.344h9l1.672,3.344H64.542v3.344h9l1.672,3.344H67.886v3.344H91.3a1.672,1.672,0,0,1,0,3.344H52.837v3.344H62.87l-2.007,2.675a1.678,1.678,0,0,1-1.338.669H46.841l-6.2-6.2a1.668,1.668,0,0,0-1.182-.49H34.791a18.267,18.267,0,0,0,.967-18.394ZM19.394,5.344A15.049,15.049,0,1,1,4.344,20.394,15.067,15.067,0,0,1,19.394,5.344Z"/>
      <path id="Path_829228" data-name="Path 829228" d="M49.07,23A1.676,1.676,0,0,0,47.5,24.084l-3.254,8.68a5.149,5.149,0,1,0,9.642,0l-3.256-8.68A1.672,1.672,0,0,0,49.07,23Zm1.483,12.6a1.853,1.853,0,0,1-2.966,0,1.774,1.774,0,0,1-.206-1.659l1.689-4.506,1.691,4.506A1.779,1.779,0,0,1,50.553,35.6Z" transform="translate(28.85 14.115)"/>
    </g>
  </g>
</svg>
