<svg xmlns="http://www.w3.org/2000/svg" xmlns:xlink="http://www.w3.org/1999/xlink" width="150" height="150" viewBox="0 0 150 150">
  <defs>
    <clipPath id="clip-path">
      <rect id="Rectangle_380776" data-name="Rectangle 380776" width="150" height="150" transform="translate(303 1185)" fill="none" stroke="#707070" stroke-width="1"/>
    </clipPath>
  </defs>
  <g id="Mask_Group_450" data-name="Mask Group 450" transform="translate(-303 -1185)" clip-path="url(#clip-path)">
    <g id="Layer_68" transform="translate(329.508 1210.958)">
      <g id="Group_1077932" data-name="Group 1077932" transform="translate(0.001 -0.019)">
        <g id="Group_1077796" data-name="Group 1077796" transform="translate(30.628 0.966)">
          <g id="Group_1077795" data-name="Group 1077795">
            <path id="Path_830439" data-name="Path 830439" d="M113.5,4.8a9.817,9.817,0,0,0-13.341.67L99.068,6.558a1.025,1.025,0,0,1-1.449,0L96.534,5.473A9.818,9.818,0,0,0,83.192,4.8a9.6,9.6,0,0,0-.466,14.013L96.05,32.14a3.244,3.244,0,0,0,4.588,0l13.324-13.324A9.6,9.6,0,0,0,113.5,4.8Z" transform="translate(-79.914 -2.501)" fill="#70d6f9"/>
          </g>
        </g>
        <g id="Group_1077798" data-name="Group 1077798" transform="translate(0.958 66.134)">
          <g id="Group_1077797" data-name="Group 1077797">
            <path id="Path_830440" data-name="Path 830440" d="M50.66,186.267a4.655,4.655,0,0,0-3.511-4.255L40.763,180.4a28.332,28.332,0,0,1-6.012-2.295,4.074,4.074,0,0,1-2.273-3.654v-1.92a11.7,11.7,0,0,1-10.868,0v1.92a4.08,4.08,0,0,1-2.277,3.657,27.7,27.7,0,0,1-6.008,2.293L6.94,182.013a4.655,4.655,0,0,0-3.511,4.255L2.5,202.247a1.248,1.248,0,0,0,1.245,1.32H51.664Z" transform="translate(-2.5 -172.536)" fill="#6cadef"/>
          </g>
        </g>
        <g id="Group_1077800" data-name="Group 1077800" transform="translate(13.708 40.902)">
          <g id="Group_1077799" data-name="Group 1077799">
            <path id="Path_830441" data-name="Path 830441" d="M57.671,107.37a2.161,2.161,0,0,0-2.9-.193,11.847,11.847,0,0,1-14.412-.008,2.16,2.16,0,0,0-2.9.2l0,0a6.1,6.1,0,0,0-1.685,4.209v9.9a11.795,11.795,0,0,0,23.59,0v-9.9A6.1,6.1,0,0,0,57.671,107.37Z" transform="translate(-35.766 -106.702)" fill="#f9d0b4"/>
          </g>
        </g>
        <g id="Group_1077802" data-name="Group 1077802" transform="translate(37.268 46.688)">
          <g id="Group_1077801" data-name="Group 1077801">
            <path id="Path_830442" data-name="Path 830442" d="M98.025,121.8a4.928,4.928,0,0,0-.757.06v8.929c0,.266-.012.529-.03.791a4.922,4.922,0,1,0,.787-9.781Z" transform="translate(-97.238 -121.798)" fill="#f9d0b4"/>
          </g>
        </g>
        <g id="Group_1077804" data-name="Group 1077804" transform="translate(8.026 46.688)">
          <g id="Group_1077803" data-name="Group 1077803">
            <path id="Path_830443" data-name="Path 830443" d="M26.624,130.787v-8.929a4.926,4.926,0,1,0,.03,9.72C26.635,131.317,26.624,131.053,26.624,130.787Z" transform="translate(-20.942 -121.798)" fill="#f9d0b4"/>
          </g>
        </g>
        <g id="Group_1077806" data-name="Group 1077806" transform="translate(10.472 28.956)">
          <g id="Group_1077805" data-name="Group 1077805">
            <path id="Path_830444" data-name="Path 830444" d="M54.1,83.2a.73.73,0,0,1-.743-.7c-.09-6.573-7.6-7.807-15.07-6.516A13.215,13.215,0,0,0,27.323,89.007v4.931a4.869,4.869,0,0,1,3.236-.614v-.97a6.1,6.1,0,0,1,1.685-4.209l0,0a2.16,2.16,0,0,1,2.9-.2,11.847,11.847,0,0,0,14.412.008,2.161,2.161,0,0,1,2.9.193,6.1,6.1,0,0,1,1.685,4.209v.97a4.868,4.868,0,0,1,3.262.63V89.9C57.411,84.019,55.286,83.2,54.1,83.2Z" transform="translate(-27.323 -75.531)" fill="#5b5d60"/>
          </g>
        </g>
        <g id="Group_1077808" data-name="Group 1077808" transform="translate(84.964 47.558)">
          <g id="Group_1077807" data-name="Group 1077807">
            <path id="Path_830445" data-name="Path 830445" d="M222.4,124.068a4.491,4.491,0,0,0-.689.055v8.135c0,.242-.011.482-.027.721a4.484,4.484,0,1,0,.717-8.911Z" transform="translate(-221.685 -124.068)" fill="#f9d0b4"/>
          </g>
        </g>
        <g id="Group_1077810" data-name="Group 1077810" transform="translate(63.499 43.802)">
          <g id="Group_1077809" data-name="Group 1077809">
            <path id="Path_830446" data-name="Path 830446" d="M186.51,116.713a8.9,8.9,0,0,1-3.921-2.257.713.713,0,0,0-1.024.057c-1.637,1.91-7.44,7.706-15.886,5.3v6.4a10.746,10.746,0,0,0,21.492,0v-8.682A.843.843,0,0,0,186.51,116.713Z" transform="translate(-165.679 -114.267)" fill="#f9d0b4"/>
          </g>
        </g>
        <g id="Group_1077812" data-name="Group 1077812" transform="translate(58.323 48.407)">
          <g id="Group_1077811" data-name="Group 1077811">
            <path id="Path_830447" data-name="Path 830447" d="M157.35,133.624v-6.4a17.465,17.465,0,0,1-2.273-.826,1.367,1.367,0,0,0-1.486.255,4.473,4.473,0,0,0,3.786,7.691C157.361,134.106,157.35,133.866,157.35,133.624Z" transform="translate(-152.174 -126.283)" fill="#f9d0b4"/>
          </g>
        </g>
        <g id="Group_1077814" data-name="Group 1077814" transform="translate(59.632 31.637)">
          <g id="Group_1077813" data-name="Group 1077813">
            <path id="Path_830448" data-name="Path 830448" d="M170.2,82.526a14.656,14.656,0,0,0-14.613,14.613v2.641c.036-.037.07-.076.108-.112a1.367,1.367,0,0,1,1.486-.255,17.546,17.546,0,0,0,2.273.826c8.446,2.406,14.249-3.39,15.886-5.3a.713.713,0,0,1,1.024-.057,8.907,8.907,0,0,0,3.921,2.257.844.844,0,0,1,.661.819V98.5a4.466,4.466,0,0,1,3.866,1.264V97.139A14.656,14.656,0,0,0,170.2,82.526Z" transform="translate(-155.591 -82.526)" fill="#fed690"/>
          </g>
        </g>
        <g id="Group_1077816" data-name="Group 1077816" transform="translate(51.285 65.192)">
          <g id="Group_1077815" data-name="Group 1077815">
            <path id="Path_830449" data-name="Path 830449" d="M179.073,183.977a4.407,4.407,0,0,0-3.324-4.028l-2.136-.539-5.548-1.4a9.421,9.421,0,0,1-1.859-.683l-2.657-1.31a2.988,2.988,0,0,1-1.666-2.679v-3.259a10.684,10.684,0,0,1-10.222,0v3.259a2.987,2.987,0,0,1-1.666,2.679l-2.657,1.31a9.358,9.358,0,0,1-1.859.683l-5.548,1.4-2.136.539a4.407,4.407,0,0,0-3.324,4.028l-.658,18.073h44.624a1.247,1.247,0,0,0,1.246-1.293Z" transform="translate(-133.813 -170.078)" fill="#7816c2"/>
          </g>
        </g>
        <g id="Group_1077818" data-name="Group 1077818" transform="translate(79.356 54.432)">
          <g id="Group_1077817" data-name="Group 1077817">
            <path id="Path_830450" data-name="Path 830450" d="M217,150.125a7.945,7.945,0,0,0,.178-8.123,4.432,4.432,0,0,1-4.511,2.037,10.783,10.783,0,0,1-5.608,8.723v3.259a2.983,2.983,0,0,0,1.424,2.538c.351.217-.095-.038,2.9,1.451a10.312,10.312,0,0,0,1.344.537c.081.025.164.048.246.071a7.443,7.443,0,0,0,3.881-2.929,6.149,6.149,0,0,0,.08-6.3A1.246,1.246,0,0,1,217,150.125Z" transform="translate(-207.055 -142.002)" fill="#fed690"/>
          </g>
        </g>
        <g id="Group_1077820" data-name="Group 1077820" transform="translate(57.976 54.432)">
          <g id="Group_1077819" data-name="Group 1077819">
            <path id="Path_830451" data-name="Path 830451" d="M156.819,144.039A4.432,4.432,0,0,1,152.309,142a7.944,7.944,0,0,0,.178,8.123,1.246,1.246,0,0,1,.067,1.261,6.15,6.15,0,0,0,.08,6.3,7.44,7.44,0,0,0,3.881,2.929c.082-.023.164-.046.246-.071a10.31,10.31,0,0,0,1.344-.537c3.188-1.586,2.574-1.251,2.9-1.451a2.983,2.983,0,0,0,1.424-2.538v-3.259A10.783,10.783,0,0,1,156.819,144.039Z" transform="translate(-151.269 -142.002)" fill="#fed690"/>
          </g>
        </g>
        <g id="Group_1077822" data-name="Group 1077822" transform="translate(42.023 9.287)">
          <g id="Group_1077821" data-name="Group 1077821">
            <path id="Path_830452" data-name="Path 830452" d="M122.939,29.359h-3.594a.776.776,0,0,1-.777-.776V24.988a.776.776,0,0,0-.776-.776h-2.223a.776.776,0,0,0-.776.776v3.594a.776.776,0,0,1-.776.776h-3.594a.776.776,0,0,0-.776.776v2.223a.776.776,0,0,0,.776.776h3.594a.776.776,0,0,1,.776.776v3.594a.776.776,0,0,0,.776.776h2.223a.776.776,0,0,0,.776-.776V33.911a.776.776,0,0,1,.777-.776h3.594a.776.776,0,0,0,.776-.776V30.136A.777.777,0,0,0,122.939,29.359Z" transform="translate(-109.645 -24.212)" fill="#edf4fc"/>
          </g>
        </g>
        <g id="Group_1077824" data-name="Group 1077824" transform="translate(21.205 57.466)">
          <g id="Group_1077823" data-name="Group 1077823">
            <path id="Path_830453" data-name="Path 830453" d="M63.194,149.919H56.057a.771.771,0,0,0-.7.993,4.366,4.366,0,0,0,8.536,0A.77.77,0,0,0,63.194,149.919Z" transform="translate(-55.328 -149.919)" fill="#fc657e"/>
          </g>
        </g>
        <g id="Group_1077826" data-name="Group 1077826" transform="translate(69.947 57.858)">
          <g id="Group_1077825" data-name="Group 1077825">
            <path id="Path_830454" data-name="Path 830454" d="M190.371,150.942h-7.137a.771.771,0,0,0-.7.993,4.366,4.366,0,0,0,8.536,0,.771.771,0,0,0-.7-.993Z" transform="translate(-182.505 -150.942)" fill="#fc657e"/>
          </g>
        </g>
        <g id="Group_1077828" data-name="Group 1077828" transform="translate(17.15 66.134)">
          <g id="Group_1077827" data-name="Group 1077827">
            <path id="Path_830455" data-name="Path 830455" d="M60.807,178.111a4.075,4.075,0,0,1-2.273-3.655v-1.92a11.7,11.7,0,0,1-10.868,0v1.92a4.075,4.075,0,0,1-2.273,3.655c-.218.107-.432.212-.646.315a8.871,8.871,0,0,0,16.7.011C61.031,178.234,60.8,178.105,60.807,178.111Z" transform="translate(-44.748 -172.536)" fill="#f9d0b4"/>
          </g>
        </g>
        <g id="Group_1077830" data-name="Group 1077830" transform="translate(0.958 90.375)">
          <g id="Group_1077829" data-name="Group 1077829">
            <path id="Path_830456" data-name="Path 830456" d="M2.819,235.783l-.317,5.47a1.248,1.248,0,0,0,1.245,1.32h7.234v-6.79H2.819Z" transform="translate(-2.499 -235.783)" fill="#f9d0b4"/>
          </g>
        </g>
        <g id="Group_1077832" data-name="Group 1077832" transform="translate(41.565 90.375)">
          <g id="Group_1077831" data-name="Group 1077831">
            <path id="Path_830457" data-name="Path 830457" d="M116.614,235.784h-8.163v6.79h8.556Z" transform="translate(-108.451 -235.784)" fill="#f9d0b4"/>
          </g>
        </g>
        <g id="Group_1077834" data-name="Group 1077834" transform="translate(65.499 65.192)">
          <g id="Group_1077833" data-name="Group 1077833">
            <path id="Path_830458" data-name="Path 830458" d="M186.422,176.016a2.988,2.988,0,0,1-1.666-2.679v-3.259a10.684,10.684,0,0,1-10.222,0v3.259a2.987,2.987,0,0,1-1.666,2.679l-1.968.97a26.782,26.782,0,0,0,7.155,9.805,2.439,2.439,0,0,0,3.181,0,26.785,26.785,0,0,0,7.155-9.805Z" transform="translate(-170.898 -170.078)" fill="#f9d0b4"/>
          </g>
        </g>
        <g id="Group_1077836" data-name="Group 1077836" transform="translate(88.95 84.936)">
          <g id="Group_1077835" data-name="Group 1077835">
            <path id="Path_830459" data-name="Path 830459" d="M239.894,221.593l-7.809,2.279v9.95h6.96a1.247,1.247,0,0,0,1.246-1.293Z" transform="translate(-232.085 -221.593)" fill="#f9d0b4"/>
          </g>
        </g>
        <g id="Group_1077838" data-name="Group 1077838" transform="translate(51.286 84.936)">
          <g id="Group_1077837" data-name="Group 1077837">
            <path id="Path_830460" data-name="Path 830460" d="M134.26,221.593l-.445,12.229h8.254v-9.95Z" transform="translate(-133.815 -221.593)" fill="#f9d0b4"/>
          </g>
        </g>
        <g id="Group_1077840" data-name="Group 1077840" transform="translate(40.205 60.793)">
          <g id="Group_1077839" data-name="Group 1077839">
            <path id="Path_830461" data-name="Path 830461" d="M110.384,160.708h-.92v-.882a1.211,1.211,0,0,0-1.226-1.226,1.228,1.228,0,0,0-1.226,1.188v.92h-.882a1.211,1.211,0,0,0-1.226,1.226,1.187,1.187,0,0,0,1.226,1.226h.882v.882a1.211,1.211,0,0,0,1.226,1.226,1.228,1.228,0,0,0,1.226-1.188v-.92h.882a1.211,1.211,0,0,0,1.226-1.226A1.228,1.228,0,0,0,110.384,160.708Z" transform="translate(-104.901 -158.6)" fill="#70d6f9"/>
          </g>
        </g>
        <g id="Group_1077842" data-name="Group 1077842" transform="translate(51.015 69.072)">
          <g id="Group_1077841" data-name="Group 1077841">
            <path id="Path_830462" data-name="Path 830462" d="M134.409,180.2a1.3,1.3,0,1,0,1.3,1.3A1.3,1.3,0,0,0,134.409,180.2Z" transform="translate(-133.106 -180.2)" fill="#f5c84c"/>
          </g>
        </g>
        <g id="Group_1077844" data-name="Group 1077844" transform="translate(80.682 23.396)">
          <g id="Group_1077843" data-name="Group 1077843">
            <path id="Path_830463" data-name="Path 830463" d="M215.409,63.392a2.988,2.988,0,0,1-2.376-2.338c0-.038-.115-.038-.115,0a2.988,2.988,0,0,1-2.376,2.338c-.038,0-.038.077,0,.115a2.988,2.988,0,0,1,2.376,2.338c0,.038.115.038.115,0a2.988,2.988,0,0,1,2.376-2.338C215.448,63.468,215.448,63.392,215.409,63.392Z" transform="translate(-210.513 -61.025)" fill="#fc657e"/>
          </g>
        </g>
        <g id="Group_1077846" data-name="Group 1077846" transform="translate(25.336 0.007)">
          <g id="Group_1077845" data-name="Group 1077845">
            <path id="Path_830464" data-name="Path 830464" d="M67.409,0a1.3,1.3,0,1,0,1.3,1.3A1.3,1.3,0,0,0,67.409,0Z" transform="translate(-66.106 0)" fill="#87d147"/>
          </g>
        </g>
        <g id="Group_1077848" data-name="Group 1077848" transform="translate(17.223 5.891)">
          <g id="Group_1077847" data-name="Group 1077847">
            <path id="Path_830465" data-name="Path 830465" d="M51.971,18.742a4.253,4.253,0,0,1-3.411-3.334c0-.077-.153-.077-.153,0A4.253,4.253,0,0,1,45,18.742c-.077,0-.077.115,0,.153a4.253,4.253,0,0,1,3.411,3.334c0,.077.153.077.153,0A4.253,4.253,0,0,1,51.971,18.9C52.048,18.857,52.048,18.742,51.971,18.742Z" transform="translate(-44.938 -15.35)" fill="#f5c84c"/>
          </g>
        </g>
        <g id="Group_1077850" data-name="Group 1077850" transform="translate(40.607 82.545)">
          <g id="Group_1077849" data-name="Group 1077849">
            <path id="Path_830466" data-name="Path 830466" d="M106.909,215.355a.958.958,0,0,0-.958.958V229.15a.958.958,0,1,0,1.916,0V216.313A.958.958,0,0,0,106.909,215.355Z" transform="translate(-105.951 -215.355)"/>
          </g>
        </g>
        <g id="Group_1077852" data-name="Group 1077852" transform="translate(8.482 82.545)">
          <g id="Group_1077851" data-name="Group 1077851">
            <path id="Path_830467" data-name="Path 830467" d="M23.089,215.355a.958.958,0,0,0-.958.958V229.15a.958.958,0,1,0,1.916,0V216.313A.958.958,0,0,0,23.089,215.355Z" transform="translate(-22.131 -215.355)"/>
          </g>
        </g>
        <g id="Group_1077854" data-name="Group 1077854" transform="translate(27.26 49.897)">
          <g id="Group_1077853" data-name="Group 1077853">
            <path id="Path_830468" data-name="Path 830468" d="M77.155,132.037a3.282,3.282,0,0,0-5.922,0,.958.958,0,1,0,1.7.879,1.37,1.37,0,0,1,2.517,0,.958.958,0,1,0,1.7-.879Z" transform="translate(-71.125 -130.171)"/>
          </g>
        </g>
        <g id="Group_1077856" data-name="Group 1077856" transform="translate(17.609 49.897)">
          <g id="Group_1077855" data-name="Group 1077855">
            <path id="Path_830469" data-name="Path 830469" d="M51.975,132.037a3.282,3.282,0,0,0-5.922,0,.958.958,0,1,0,1.7.879,1.37,1.37,0,0,1,2.517,0,.958.958,0,1,0,1.7-.879Z" transform="translate(-45.945 -130.171)"/>
          </g>
        </g>
        <g id="Group_1077858" data-name="Group 1077858" transform="translate(87.991 82.641)">
          <g id="Group_1077857" data-name="Group 1077857">
            <path id="Path_830470" data-name="Path 830470" d="M230.543,215.606a.958.958,0,0,0-.958.958v12.672a.958.958,0,1,0,1.916,0V216.564A.958.958,0,0,0,230.543,215.606Z" transform="translate(-229.585 -215.606)"/>
          </g>
        </g>
        <g id="Group_1077860" data-name="Group 1077860" transform="translate(58.582 82.641)">
          <g id="Group_1077859" data-name="Group 1077859">
            <path id="Path_830471" data-name="Path 830471" d="M153.808,215.606a.958.958,0,0,0-.958.958v12.672a.958.958,0,1,0,1.916,0V216.564A.959.959,0,0,0,153.808,215.606Z" transform="translate(-152.85 -215.606)"/>
          </g>
        </g>
        <g id="Group_1077862" data-name="Group 1077862" transform="translate(76.002 50.289)">
          <g id="Group_1077861" data-name="Group 1077861">
            <path id="Path_830472" data-name="Path 830472" d="M204.331,133.06a3.283,3.283,0,0,0-5.922,0,.958.958,0,1,0,1.7.88,1.37,1.37,0,0,1,2.517,0,.958.958,0,1,0,1.7-.88Z" transform="translate(-198.301 -131.194)"/>
          </g>
        </g>
        <g id="Group_1077864" data-name="Group 1077864" transform="translate(66.351 50.289)">
          <g id="Group_1077863" data-name="Group 1077863">
            <path id="Path_830473" data-name="Path 830473" d="M179.152,133.06a3.283,3.283,0,0,0-5.922,0,.958.958,0,1,0,1.7.88,1.37,1.37,0,0,1,2.517,0,.958.958,0,1,0,1.7-.88Z" transform="translate(-173.122 -131.194)"/>
          </g>
        </g>
        <g id="Group_1077867" data-name="Group 1077867" transform="translate(29.67)">
          <g id="Group_1077866" data-name="Group 1077866">
            <g id="Group_1077865" data-name="Group 1077865">
              <path id="Path_830474" data-name="Path 830474" d="M116.184,10.131a10.475,10.475,0,0,0-3.6-7.6,10.751,10.751,0,0,0-14.652.712L96.848,4.327a.074.074,0,0,1-.094,0L95.668,3.24a10.75,10.75,0,0,0-14.651-.711,10.475,10.475,0,0,0-3.6,7.6,10.6,10.6,0,0,0,3.087,7.808L93.83,31.263a4.2,4.2,0,0,0,5.943,0L113.1,17.939A10.6,10.6,0,0,0,116.184,10.131Zm-4.442,6.453L98.418,29.908a2.286,2.286,0,0,1-3.233,0L81.861,16.584a8.642,8.642,0,0,1,.421-12.615A8.4,8.4,0,0,1,87.859,1.9a9.143,9.143,0,0,1,6.455,2.7L95.4,5.681a1.981,1.981,0,0,0,2.8,0L99.289,4.6a8.832,8.832,0,0,1,12.032-.627,8.643,8.643,0,0,1,.422,12.615Z" transform="translate(-77.414 0.019)"/>
            </g>
          </g>
        </g>
        <g id="Group_1077870" data-name="Group 1077870" transform="translate(0 65.176)">
          <g id="Group_1077869" data-name="Group 1077869">
            <g id="Group_1077868" data-name="Group 1077868">
              <path id="Path_830475" data-name="Path 830475" d="M50.075,184.673a5.588,5.588,0,0,0-4.234-5.131l-6.386-1.607a27.534,27.534,0,0,1-5.771-2.2l-.051-.027a3.1,3.1,0,0,1-1.738-2.8v-1.92a.958.958,0,0,0-1.4-.849,10.742,10.742,0,0,1-9.979,0,.958.958,0,0,0-1.4.849v1.92a3.141,3.141,0,0,1-1.742,2.8,26.879,26.879,0,0,1-5.818,2.223l-6.386,1.607a5.587,5.587,0,0,0-4.234,5.129L0,200.65a2.206,2.206,0,0,0,2.2,2.333H50.122a.958.958,0,0,0,.957-1.013ZM2.206,201.067a.289.289,0,0,1-.289-.306l.927-15.982A3.679,3.679,0,0,1,5.632,181.4l6.386-1.607a28.583,28.583,0,0,0,6.2-2.363,5,5,0,0,0,2.811-4.516v-.442a12.8,12.8,0,0,0,8.952,0v.442a5,5,0,0,0,2.747,4.484,15.633,15.633,0,0,0,1.848.881,29.73,29.73,0,0,0,4.413,1.513l6.386,1.607a3.68,3.68,0,0,1,2.788,3.381l.945,16.286Z" transform="translate(-0.001 -170.037)"/>
            </g>
          </g>
        </g>
        <g id="Group_1077873" data-name="Group 1077873" transform="translate(12.749 39.942)">
          <g id="Group_1077872" data-name="Group 1077872">
            <g id="Group_1077871" data-name="Group 1077871">
              <path id="Path_830476" data-name="Path 830476" d="M56.822,105.163a3.112,3.112,0,0,0-4.189-.286,10.888,10.888,0,0,1-13.23-.008,3.111,3.111,0,0,0-4.184.29l-.014.015a7.027,7.027,0,0,0-1.94,4.859v9.9a12.753,12.753,0,0,0,25.506,0v-9.9A7.024,7.024,0,0,0,56.822,105.163Zm.033,14.769a10.837,10.837,0,1,1-21.674,0v-9.9a5.116,5.116,0,0,1,1.42-3.547l.012-.013a1.2,1.2,0,0,1,1.608-.1,12.8,12.8,0,0,0,15.594.007,1.2,1.2,0,0,1,1.62.1,5.117,5.117,0,0,1,1.42,3.547v9.9Z" transform="translate(-33.265 -104.195)"/>
            </g>
          </g>
        </g>
        <g id="Group_1077876" data-name="Group 1077876" transform="translate(36.31 45.73)">
          <g id="Group_1077875" data-name="Group 1077875">
            <g id="Group_1077874" data-name="Group 1077874">
              <path id="Path_830477" data-name="Path 830477" d="M96.483,119.3a5.939,5.939,0,0,0-.9.071.958.958,0,0,0-.812.947v8.929c0,.216-.009.447-.028.727a.959.959,0,0,0,.8,1.011,5.88,5.88,0,1,0,.938-11.685Zm.2,9.844V121.22a3.967,3.967,0,0,1,0,7.923Z" transform="translate(-94.738 -119.299)"/>
            </g>
          </g>
        </g>
        <g id="Group_1077879" data-name="Group 1077879" transform="translate(7.068 45.73)">
          <g id="Group_1077878" data-name="Group 1077878">
            <g id="Group_1077877" data-name="Group 1077877">
              <path id="Path_830478" data-name="Path 830478" d="M26.04,129.246v-8.929a.958.958,0,0,0-.812-.947,5.882,5.882,0,1,0-.9,11.694,5.827,5.827,0,0,0,.94-.081.958.958,0,0,0,.8-1.01C26.049,129.692,26.04,129.461,26.04,129.246Zm-1.916-.1a3.967,3.967,0,0,1,0-7.923Z" transform="translate(-18.442 -119.298)"/>
            </g>
          </g>
        </g>
        <g id="Group_1077882" data-name="Group 1077882" transform="translate(9.514 27.993)">
          <g id="Group_1077881" data-name="Group 1077881">
            <g id="Group_1077880" data-name="Group 1077880">
              <path id="Path_830479" data-name="Path 830479" d="M52.772,80.7a6.916,6.916,0,0,0-2.5-5.283C46.549,72.33,40.1,72.887,36.587,73.494A14.145,14.145,0,0,0,24.823,87.459V92.39a.958.958,0,0,0,1.442.827,3.959,3.959,0,0,1,2-.543,4.021,4.021,0,0,1,.611.049.958.958,0,0,0,1.1-.947v-.97a5.116,5.116,0,0,1,1.42-3.547l.012-.013a1.2,1.2,0,0,1,1.608-.1,12.8,12.8,0,0,0,15.594.007,1.2,1.2,0,0,1,1.62.1,5.117,5.117,0,0,1,1.42,3.547v.97a.958.958,0,0,0,1.1.947,4.017,4.017,0,0,1,.61-.049,3.958,3.958,0,0,1,2.016.556.958.958,0,0,0,1.447-.824V88.357c0-6.382-2.449-7.567-4.055-7.656Zm2.139,10.265a5.865,5.865,0,0,0-1.346-.206,7.025,7.025,0,0,0-1.95-4.825,3.112,3.112,0,0,0-4.189-.286,10.888,10.888,0,0,1-13.23-.008,3.111,3.111,0,0,0-4.184.29L30,85.946a7.023,7.023,0,0,0-1.94,4.815,5.873,5.873,0,0,0-1.32.2v-3.5A12.231,12.231,0,0,1,36.913,75.382c5.426-.937,9.847-.386,12.131,1.51a5.067,5.067,0,0,1,1.819,4.075,1.692,1.692,0,0,0,1.7,1.645c1.492,0,2.348,2.094,2.348,5.744Z" transform="translate(-24.823 -73.02)"/>
            </g>
          </g>
        </g>
        <g id="Group_1077885" data-name="Group 1077885" transform="translate(84.006 46.6)">
          <g id="Group_1077884" data-name="Group 1077884">
            <g id="Group_1077883" data-name="Group 1077883">
              <path id="Path_830480" data-name="Path 830480" d="M220.861,121.568a5.5,5.5,0,0,0-.836.066.958.958,0,0,0-.812.947v8.135c0,.221-.01.44-.025.658a.958.958,0,0,0,.8,1.009,5.443,5.443,0,1,0,.867-10.815Zm.269,8.963v-7.036a3.528,3.528,0,0,1,0,7.036Z" transform="translate(-219.187 -121.568)"/>
            </g>
          </g>
        </g>
        <g id="Group_1077888" data-name="Group 1077888" transform="translate(62.541 42.844)">
          <g id="Group_1077887" data-name="Group 1077887">
            <g id="Group_1077886" data-name="Group 1077886">
              <path id="Path_830481" data-name="Path 830481" d="M185.186,114.238a8.1,8.1,0,0,1-3.493-2.033,1.7,1.7,0,0,0-1.236-.435,1.651,1.651,0,0,0-1.16.578c-1.494,1.743-6.98,7.256-14.9,5a.958.958,0,0,0-1.22.921v6.4a11.7,11.7,0,1,0,23.408,0V115.99A1.8,1.8,0,0,0,185.186,114.238Zm-.514,10.434a9.788,9.788,0,1,1-19.576,0v-5.179c8.077,1.65,13.683-3.666,15.489-5.706a9.86,9.86,0,0,0,4.086,2.3Z" transform="translate(-163.181 -111.767)"/>
            </g>
          </g>
        </g>
        <g id="Group_1077891" data-name="Group 1077891" transform="translate(57.365 47.449)">
          <g id="Group_1077890" data-name="Group 1077890">
            <g id="Group_1077889" data-name="Group 1077889">
              <path id="Path_830482" data-name="Path 830482" d="M156.767,132.082v-6.4a.958.958,0,0,0-.7-.921,16.627,16.627,0,0,1-2.149-.78,2.321,2.321,0,0,0-2.528.433,5.431,5.431,0,0,0,4.593,9.336.959.959,0,0,0,.8-1.011C156.777,132.521,156.767,132.3,156.767,132.082Zm-1.916-.185a3.533,3.533,0,0,1-3.26-3.518,3.486,3.486,0,0,1,1.115-2.567.412.412,0,0,1,.281-.112.4.4,0,0,1,.163.035c.563.248,1.133.468,1.7.656V131.9Z" transform="translate(-149.675 -123.783)"/>
            </g>
          </g>
        </g>
        <g id="Group_1077895" data-name="Group 1077895" transform="translate(58.674 30.679)">
          <g id="Group_1077894" data-name="Group 1077894">
            <g id="Group_1077893" data-name="Group 1077893">
              <g id="Group_1077892" data-name="Group 1077892">
                <path id="Path_830483" data-name="Path 830483" d="M168.662,80.026A15.589,15.589,0,0,0,153.091,95.6v2.641a.958.958,0,0,0,1.636.678l.088-.092a.406.406,0,0,1,.442-.076,18.576,18.576,0,0,0,2.4.87,15.521,15.521,0,0,0,4.271.613c6.435,0,10.871-4.248,12.439-6.02a9.851,9.851,0,0,0,4.086,2.3v.451a.958.958,0,0,0,1.1.947,3.571,3.571,0,0,1,.543-.043,3.5,3.5,0,0,1,2.5,1.037.958.958,0,0,0,1.637-.676V95.6a15.59,15.59,0,0,0-15.572-15.572Zm13.655,16.391a5.427,5.427,0,0,0-2.01-.466,1.8,1.8,0,0,0-1.343-1.289,8.1,8.1,0,0,1-3.493-2.033,1.7,1.7,0,0,0-1.236-.435,1.651,1.651,0,0,0-1.16.578c-1.494,1.743-6.981,7.256-14.9,5a16.626,16.626,0,0,1-2.149-.78,2.314,2.314,0,0,0-.937-.2l-.085,0V95.6a13.655,13.655,0,1,1,27.309,0v.82Z" transform="translate(-153.091 -80.026)"/>
              </g>
            </g>
          </g>
        </g>
        <g id="Group_1077898" data-name="Group 1077898" transform="translate(50.327 64.234)">
          <g id="Group_1077897" data-name="Group 1077897">
            <g id="Group_1077896" data-name="Group 1077896">
              <path id="Path_830484" data-name="Path 830484" d="M178.487,182.383a5.341,5.341,0,0,0-4.046-4.9l-7.684-1.94a8.414,8.414,0,0,1-1.669-.614l-2.657-1.31a2.017,2.017,0,0,1-1.132-1.82v-3.259a.959.959,0,0,0-1.417-.841,9.727,9.727,0,0,1-9.306,0,.959.959,0,0,0-1.417.841v3.259a2.017,2.017,0,0,1-1.132,1.82l-2.657,1.31a8.491,8.491,0,0,1-1.673.615l-2.733.69-2.812.71-2.136.538a5.346,5.346,0,0,0-4.047,4.923l-.658,18.073a.958.958,0,0,0,.957.993h44.624a2.206,2.206,0,0,0,2.2-2.286Zm-1.384,17.08a.287.287,0,0,1-.208.088h-43.63l.621-17.062a3.433,3.433,0,0,1,2.6-3.152l2.139-.54,2.809-.709,2.735-.691a10.377,10.377,0,0,0,2.049-.753l2.657-1.31a3.92,3.92,0,0,0,2.2-3.539V170.03a11.785,11.785,0,0,0,8.306,0v1.765a3.921,3.921,0,0,0,2.2,3.539l2.657,1.31a10.366,10.366,0,0,0,2.048.753l7.685,1.94a3.427,3.427,0,0,1,2.6,3.134l.611,16.78a.29.29,0,0,1-.081.212Z" transform="translate(-131.311 -167.578)"/>
            </g>
          </g>
        </g>
        <g id="Group_1077901" data-name="Group 1077901" transform="translate(78.398 53.474)">
          <g id="Group_1077900" data-name="Group 1077900">
            <g id="Group_1077899" data-name="Group 1077899">
              <path id="Path_830485" data-name="Path 830485" d="M216.26,149.1a8.925,8.925,0,0,0,.223-9.075.959.959,0,0,0-1.664-.074,3.473,3.473,0,0,1-3.549,1.6.958.958,0,0,0-1.107.882,9.765,9.765,0,0,1-5.11,7.946.958.958,0,0,0-.5.841v3.259a3.917,3.917,0,0,0,1.88,3.354l.052.032a5.157,5.157,0,0,0,.6.316c.341.166.99.483,2.327,1.148a11.368,11.368,0,0,0,1.477.591c.074.024.15.045.225.066l.051.014a.952.952,0,0,0,.26.036.962.962,0,0,0,.329-.058,8.352,8.352,0,0,0,4.361-3.317,7.146,7.146,0,0,0,.115-7.268A.3.3,0,0,1,216.26,149.1Zm-1.616-1.03a2.211,2.211,0,0,0-.1,2.229,5.181,5.181,0,0,1-.046,5.339,6.344,6.344,0,0,1-3.109,2.429,9.491,9.491,0,0,1-1.125-.455c-1.341-.667-1.994-.985-2.337-1.153a3.717,3.717,0,0,1-.429-.222l-.057-.035a2.013,2.013,0,0,1-.969-1.722v-2.706a11.658,11.658,0,0,0,5.5-8.257,5.4,5.4,0,0,0,3.366-1.276,6.632,6.632,0,0,1-.694,5.829Z" transform="translate(-204.553 -139.504)"/>
            </g>
          </g>
        </g>
        <g id="Group_1077904" data-name="Group 1077904" transform="translate(57.019 53.474)">
          <g id="Group_1077903" data-name="Group 1077903">
            <g id="Group_1077902" data-name="Group 1077902">
              <path id="Path_830486" data-name="Path 830486" d="M161.346,150.38a9.763,9.763,0,0,1-5.11-7.946.959.959,0,0,0-1.107-.882,3.473,3.473,0,0,1-3.549-1.6.959.959,0,0,0-1.664.074,8.923,8.923,0,0,0,.223,9.075.291.291,0,0,1,.03.293h0a7.146,7.146,0,0,0,.115,7.268,8.356,8.356,0,0,0,4.361,3.317.957.957,0,0,0,.59.022l.056-.015c.073-.021.146-.041.216-.063a11.319,11.319,0,0,0,1.485-.594c1.442-.717,2.1-1.041,2.427-1.2a3.9,3.9,0,0,0,.48-.253l.067-.043a3.917,3.917,0,0,0,1.88-3.354v-3.259A.957.957,0,0,0,161.346,150.38Zm-1.417,4.1a2.012,2.012,0,0,1-.969,1.722l-.112.071c-.039.021-.1.05-.271.134-.325.159-.99.484-2.437,1.2a9.349,9.349,0,0,1-1.127.456,6.343,6.343,0,0,1-3.109-2.429,5.185,5.185,0,0,1-.046-5.34,2.208,2.208,0,0,0-.1-2.229,6.633,6.633,0,0,1-.694-5.828,5.405,5.405,0,0,0,3.367,1.276,11.662,11.662,0,0,0,5.5,8.257Z" transform="translate(-148.774 -139.504)"/>
            </g>
          </g>
        </g>
        <g id="Group_1077907" data-name="Group 1077907" transform="translate(41.065 8.329)">
          <g id="Group_1077906" data-name="Group 1077906">
            <g id="Group_1077905" data-name="Group 1077905">
              <path id="Path_830487" data-name="Path 830487" d="M121.4,26.86h-3.413V23.448a1.736,1.736,0,0,0-1.735-1.735h-2.223a1.736,1.736,0,0,0-1.735,1.735V26.86H108.88a1.736,1.736,0,0,0-1.735,1.735v2.223a1.737,1.737,0,0,0,1.735,1.735h3.413v3.413a1.736,1.736,0,0,0,1.735,1.735h2.223a1.736,1.736,0,0,0,1.735-1.735V32.552H121.4a1.736,1.736,0,0,0,1.735-1.735V28.595A1.736,1.736,0,0,0,121.4,26.86Zm-.182,3.776H117.8a1.736,1.736,0,0,0-1.735,1.735v3.413h-1.86V32.37a1.737,1.737,0,0,0-1.735-1.735h-3.413v-1.86h3.413a1.736,1.736,0,0,0,1.735-1.735V23.629h1.86v3.413a1.736,1.736,0,0,0,1.735,1.735h3.413Z" transform="translate(-107.145 -21.713)"/>
            </g>
          </g>
        </g>
        <g id="Group_1077910" data-name="Group 1077910" transform="translate(20.248 56.508)">
          <g id="Group_1077909" data-name="Group 1077909">
            <g id="Group_1077908" data-name="Group 1077908">
              <path id="Path_830488" data-name="Path 830488" d="M62.981,148.086a1.66,1.66,0,0,0-1.327-.667H54.517a1.661,1.661,0,0,0-1.327.667,1.774,1.774,0,0,0-.3,1.539,5.322,5.322,0,0,0,10.383,0,1.774,1.774,0,0,0-.3-1.539Zm-4.9,3.772a3.562,3.562,0,0,1-3.277-2.523h6.553A3.562,3.562,0,0,1,58.085,151.858Z" transform="translate(-52.831 -147.419)"/>
            </g>
          </g>
        </g>
        <g id="Group_1077913" data-name="Group 1077913" transform="translate(68.99 56.9)">
          <g id="Group_1077912" data-name="Group 1077912">
            <g id="Group_1077911" data-name="Group 1077911">
              <path id="Path_830489" data-name="Path 830489" d="M190.158,149.109a1.661,1.661,0,0,0-1.328-.667h-7.137a1.662,1.662,0,0,0-1.328.667,1.775,1.775,0,0,0-.3,1.539,5.322,5.322,0,0,0,10.383,0A1.774,1.774,0,0,0,190.158,149.109Zm-4.9,3.771a3.561,3.561,0,0,1-3.277-2.523h6.553A3.562,3.562,0,0,1,185.262,152.881Z" transform="translate(-180.007 -148.442)"/>
            </g>
          </g>
        </g>
        <g id="Group_1077916" data-name="Group 1077916" transform="translate(16.191 65.176)">
          <g id="Group_1077915" data-name="Group 1077915">
            <g id="Group_1077914" data-name="Group 1077914">
              <path id="Path_830490" data-name="Path 830490" d="M60.324,176.032c-.325-.158-.531-.266-.583-.295l-.053-.028a3.1,3.1,0,0,1-1.738-2.8v-1.92a.958.958,0,0,0-1.4-.849,10.743,10.743,0,0,1-9.979,0,.958.958,0,0,0-1.4.849v1.92a3.1,3.1,0,0,1-1.738,2.8h0q-.322.159-.636.31a.958.958,0,0,0-.486,1.189,9.829,9.829,0,0,0,18.5.012A.957.957,0,0,0,60.324,176.032Zm-8.766,5.775a7.951,7.951,0,0,1-7.119-4.464,5,5,0,0,0,2.643-4.429v-.442a12.8,12.8,0,0,0,8.952,0v.442a5,5,0,0,0,2.643,4.429A7.954,7.954,0,0,1,51.557,181.807Z" transform="translate(-42.246 -170.036)"/>
            </g>
          </g>
        </g>
        <g id="Group_1077919" data-name="Group 1077919" transform="translate(0 89.417)">
          <g id="Group_1077918" data-name="Group 1077918">
            <g id="Group_1077917" data-name="Group 1077917">
              <path id="Path_830491" data-name="Path 830491" d="M9.441,233.284H1.278a.958.958,0,0,0-.957.9L0,239.657a2.206,2.206,0,0,0,2.2,2.333H9.441a.958.958,0,0,0,.958-.958v-6.79A.958.958,0,0,0,9.441,233.284Zm-.958,6.79H2.206a.289.289,0,0,1-.289-.306l.265-4.567h6.3Z" transform="translate(-0.001 -233.284)"/>
            </g>
          </g>
        </g>
        <g id="Group_1077922" data-name="Group 1077922" transform="translate(40.607 89.417)">
          <g id="Group_1077921" data-name="Group 1077921">
            <g id="Group_1077920" data-name="Group 1077920">
              <path id="Path_830492" data-name="Path 830492" d="M116.029,234.188a.958.958,0,0,0-.957-.9h-8.163a.958.958,0,0,0-.958.958v6.79a.958.958,0,0,0,.958.958h8.557a.958.958,0,0,0,.957-1.013Zm-8.161,5.887V235.2h6.3l.282,4.874Z" transform="translate(-105.951 -233.285)"/>
            </g>
          </g>
        </g>
        <g id="Group_1077925" data-name="Group 1077925" transform="translate(64.54 64.235)">
          <g id="Group_1077924" data-name="Group 1077924">
            <g id="Group_1077923" data-name="Group 1077923">
              <path id="Path_830493" data-name="Path 830493" d="M187.271,174.586l-1.968-.97a2.017,2.017,0,0,1-1.132-1.82v-3.259a.959.959,0,0,0-1.417-.841,9.727,9.727,0,0,1-9.306,0,.959.959,0,0,0-1.417.841V171.8a2.017,2.017,0,0,1-1.132,1.82l-1.968.97a.958.958,0,0,0-.458,1.233,27.863,27.863,0,0,0,7.411,10.157,3.412,3.412,0,0,0,4.434,0,27.876,27.876,0,0,0,7.411-10.157.957.957,0,0,0-.458-1.233Zm-8.205,9.94a1.483,1.483,0,0,1-1.929,0A25.964,25.964,0,0,1,170.6,175.9l1.142-.563a3.921,3.921,0,0,0,2.2-3.539v-1.765a11.786,11.786,0,0,0,8.306,0V171.8a3.921,3.921,0,0,0,2.2,3.539l1.142.563A25.965,25.965,0,0,1,179.065,184.526Z" transform="translate(-168.396 -167.579)"/>
            </g>
          </g>
        </g>
        <g id="Group_1077928" data-name="Group 1077928" transform="translate(87.991 83.978)">
          <g id="Group_1077927" data-name="Group 1077927">
            <g id="Group_1077926" data-name="Group 1077926">
              <path id="Path_830494" data-name="Path 830494" d="M239.31,220.016a.958.958,0,0,0-1.226-.885l-7.809,2.279a.958.958,0,0,0-.69.919v9.95a.958.958,0,0,0,.958.958h6.96a2.206,2.206,0,0,0,2.2-2.285h0Zm-1.6,11.217a.288.288,0,0,1-.208.088h-6v-8.273l5.938-1.733.353,9.706A.289.289,0,0,1,237.711,231.233Z" transform="translate(-229.585 -219.092)"/>
            </g>
          </g>
        </g>
        <g id="Group_1077931" data-name="Group 1077931" transform="translate(50.328 83.978)">
          <g id="Group_1077930" data-name="Group 1077930">
            <g id="Group_1077929" data-name="Group 1077929">
              <path id="Path_830495" data-name="Path 830495" d="M140.8,221.411l-7.809-2.279a.958.958,0,0,0-1.226.885l-.445,12.229a.958.958,0,0,0,.957.993h8.254a.958.958,0,0,0,.958-.958v-9.95A.958.958,0,0,0,140.8,221.411Zm-1.226,9.911h-6.3l.364-10.006,5.938,1.733Z" transform="translate(-131.315 -219.093)"/>
            </g>
          </g>
        </g>
      </g>
    </g>
  </g>
</svg>
