<svg xmlns="http://www.w3.org/2000/svg" xmlns:xlink="http://www.w3.org/1999/xlink" width="150" height="150" viewBox="0 0 150 150">
  <defs>
    <clipPath id="clip-path">
      <rect id="Rectangle_380778" data-name="Rectangle 380778" width="150" height="150" transform="translate(303 1185)" fill="none" stroke="#707070" stroke-width="1"/>
    </clipPath>
  </defs>
  <g id="Mask_Group_451" data-name="Mask Group 451" transform="translate(-303 -1185)" clip-path="url(#clip-path)">
    <g id="surface1" transform="translate(320.791 1201.36)">
      <path id="Path_830496" data-name="Path 830496" d="M104.022,348.686l-9.107-1.866-5.27,5.458L71.684,338.1l11.98-8.175L96.4,315.984a4.794,4.794,0,0,1,7.6.679l15.091,17.308a5.563,5.563,0,0,1-1.346,8.435L108.85,347.7A8.264,8.264,0,0,1,104.022,348.686Zm0,0" transform="translate(-54.994 -241.217)" fill="#ffe7cf"/>
      <path id="Path_830497" data-name="Path 830497" d="M147.659,384.462l-3.682-4.224L128.62,389.39a8.283,8.283,0,0,1-4.829.985l-7.976-.859-6.889,5.918,9.292,7.334,5.269-5.458,9.107,1.867a8.282,8.282,0,0,0,4.828-.985l8.891-5.3A5.563,5.563,0,0,0,147.659,384.462Zm0,0" transform="translate(-83.565 -291.707)" fill="#efd5bd"/>
      <path id="Path_830498" data-name="Path 830498" d="M180.863,308.656c-1.778-2.758-3.944-1.362-5.722-4.12s.387-4.154-1.39-6.911-3.944-1.363-5.723-4.122.387-4.155-1.392-6.913c-1.087-1.686-3.056-5.166-4.255-5.645l-9.6,4.742,16.7,26.341a5.447,5.447,0,0,0,7.529,1.626l3.195-2.06a2.124,2.124,0,0,0,.668-2.914Zm0,0" transform="translate(-117.212 -215.533)" fill="#344a5d"/>
      <path id="Path_830499" data-name="Path 830499" d="M100.629,278.068l-7.54,4.651a3.044,3.044,0,0,1-4.189-.991l-4.262-6.908a3.045,3.045,0,0,1,.992-4.189l7.54-4.651a1.883,1.883,0,0,1,2.592.614l5.48,8.882A1.884,1.884,0,0,1,100.629,278.068Zm0,0" transform="translate(-64.584 -203.836)" fill="#344a5d"/>
      <path id="Path_830500" data-name="Path 830500" d="M117.548,85.863l-15.3,9.442a4.285,4.285,0,0,0-1.4,5.9l7.546,12.23a4.285,4.285,0,0,0,5.9,1.4l15.3-9.442L178,94.85,148.676,47.328Zm0,0" transform="translate(-76.878 -36.309)" fill="#ffae7e"/>
      <path id="Path_830501" data-name="Path 830501" d="M183.533,203.344l-48.154,10.941L116.43,225.978l4.408,7.145a4.285,4.285,0,0,0,5.9,1.4l15.3-9.442,48.4-10.536Zm0,0" transform="translate(-89.322 -155.999)" fill="#f58a4b"/>
      <path id="Path_830502" data-name="Path 830502" d="M129.595,232.359l-15.3,9.442a4.285,4.285,0,0,1-5.9-1.4l-7.546-12.23a4.285,4.285,0,0,1,1.4-5.9l15.3-9.442Zm0,0" transform="translate(-76.878 -163.281)" fill="#fd715c"/>
      <path id="Path_830503" data-name="Path 830503" d="M135.379,250.336,116.43,262.028l4.408,7.145a4.285,4.285,0,0,0,5.9,1.4l15.3-9.442Zm0,0" transform="translate(-89.322 -192.05)" fill="#d83e3a"/>
      <path id="Path_830504" data-name="Path 830504" d="M324.456,83.552l-2.089,1.289a2.3,2.3,0,0,1-3.171-.751L287.674,33a2.3,2.3,0,0,1,.751-3.17l2.089-1.289a2.3,2.3,0,0,1,3.17.75l31.521,51.088A2.3,2.3,0,0,1,324.456,83.552Zm0,0" transform="translate(-220.432 -21.634)" fill="#fd715c"/>
      <path id="Path_830505" data-name="Path 830505" d="M413.114,224.624l-5.186-8.405-6.01,3.709,5.186,8.4a2.3,2.3,0,0,0,3.171.751l2.089-1.289A2.3,2.3,0,0,0,413.114,224.624Zm0,0" transform="translate(-308.339 -165.877)" fill="#d83e3a"/>
      <path id="Path_830506" data-name="Path 830506" d="M251.067,398.393a3.956,3.956,0,0,0,5.439,1.313l5.768-3.525a3.956,3.956,0,0,0-4.126-6.751l-5.768,3.526A3.955,3.955,0,0,0,251.067,398.393Zm0,0" transform="translate(-192.166 -298.313)" fill="#ffe7cf"/>
      <path id="Path_830507" data-name="Path 830507" d="M263.71,391.666a3.932,3.932,0,0,0-1.927-1.615,3.956,3.956,0,0,1-1.855,3.906l-5.768,3.525a3.948,3.948,0,0,1-3.512.3,3.953,3.953,0,0,0,5.982,2.845L262.4,397.1A3.955,3.955,0,0,0,263.71,391.666Zm0,0" transform="translate(-192.29 -299.235)" fill="#efd5bd"/>
      <path id="Path_830508" data-name="Path 830508" d="M240.429,364.863a4.015,4.015,0,0,0,5.522,1.333l5.665-3.462a4.016,4.016,0,0,0-4.188-6.853l-5.666,3.463A4.015,4.015,0,0,0,240.429,364.863Zm0,0" transform="translate(-183.998 -272.568)" fill="#ffe7cf"/>
      <path id="Path_830509" data-name="Path 830509" d="M253.062,358.238a4,4,0,0,0-1.889-1.613,4.014,4.014,0,0,1-1.887,3.933l-5.665,3.463a4.008,4.008,0,0,1-3.633.278,4.012,4.012,0,0,0,6.076,2.92l5.665-3.462A4.016,4.016,0,0,0,253.062,358.238Zm0,0" transform="translate(-184.112 -273.592)" fill="#efd5bd"/>
      <path id="Path_830510" data-name="Path 830510" d="M222.293,335.62a4.016,4.016,0,0,0,5.522,1.333l5.665-3.463a4.015,4.015,0,1,0-4.188-6.852l-5.665,3.462A4.016,4.016,0,0,0,222.293,335.62Zm0,0" transform="translate(-170.085 -250.134)" fill="#ffe7cf"/>
      <path id="Path_830511" data-name="Path 830511" d="M234.908,329.055a4,4,0,0,0-1.843-1.594,4.013,4.013,0,0,1-1.894,3.874l-5.665,3.462a4.007,4.007,0,0,1-3.679.26,4.009,4.009,0,0,0,6.082,2.98l5.665-3.462A4.017,4.017,0,0,0,234.908,329.055Zm0,0" transform="translate(-170.18 -251.218)" fill="#efd5bd"/>
      <path id="Path_830512" data-name="Path 830512" d="M205.2,305.628a4.017,4.017,0,0,0,5.522,1.333l5.665-3.463a4.015,4.015,0,1,0-4.188-6.852l-5.665,3.462A4.017,4.017,0,0,0,205.2,305.628Zm0,0" transform="translate(-156.969 -227.125)" fill="#ffe7cf"/>
      <path id="Path_830513" data-name="Path 830513" d="M218.021,298.578a4,4,0,0,0-2.248-1.742,4.015,4.015,0,0,1-1.83,4.264l-5.665,3.463a4.005,4.005,0,0,1-3.273.407,4.008,4.008,0,0,0,6.018,2.59l5.666-3.463A4.017,4.017,0,0,0,218.021,298.578Zm0,0" transform="translate(-157.273 -227.724)" fill="#efd5bd"/>
      <path id="Path_830514" data-name="Path 830514" d="M151.194,307.791l-1.051.642a3.462,3.462,0,0,1-4.773-1.082l-1.742-2.846a2.984,2.984,0,0,0-4.132-.922c-1.431,10.5-16.36,9.555-16.36,9.555l9.251-13.934a7.447,7.447,0,0,1,2.519-2.595l5.221-3.238a5.316,5.316,0,0,1,7.357,1.64l4.92,8.031A3.464,3.464,0,0,1,151.194,307.791Zm0,0" transform="translate(-94.467 -224.43)" fill="#ffe7cf"/>
      <path id="Path_830515" data-name="Path 830515" d="M185.553,325.851l-.04-.066a3.579,3.579,0,0,1-1.171,1.163l-1.051.642a3.462,3.462,0,0,1-4.773-1.082l-1.741-2.846a2.986,2.986,0,0,0-4.133-.922c-.6,4.406-3.294,8.627-6.3,11.519,3.041-1.336,5.733-3.7,6.3-7.866a2.985,2.985,0,0,1,4.133.922l1.741,2.846a3.462,3.462,0,0,0,4.773,1.082l1.051-.642A3.465,3.465,0,0,0,185.553,325.851Zm0,0" transform="translate(-127.614 -247.239)" fill="#efd5bd"/>
      <path id="Path_830516" data-name="Path 830516" d="M101.59,407.148,86.875,389.661l4.845-4.077a.363.363,0,0,1,.51.044l14.249,16.933a.361.361,0,0,1-.044.509Zm0,0" transform="translate(-66.648 -295.743)" fill="#cdd6df"/>
      <path id="Path_830517" data-name="Path 830517" d="M129.219,429.094l-7.58-9.008-5.122,4.31,7.813,9.285,4.846-4.077A.362.362,0,0,0,129.219,429.094Zm0,0" transform="translate(-89.388 -322.277)" fill="#96a4aa"/>
      <path id="Path_830518" data-name="Path 830518" d="M41.746,415.861,25.842,397.2a.382.382,0,0,0-.507-.068L8.4,410.507a2.357,2.357,0,0,0-.9,1.85v5.44a2.356,2.356,0,0,0,2.356,2.357H37.565a2.358,2.358,0,0,0,1.837-.88l2.328-2.9A.384.384,0,0,0,41.746,415.861Zm0,0" transform="translate(-5.754 -304.62)" fill="#3c5666"/>
      <path id="Path_830519" data-name="Path 830519" d="M93.155,448.628l-7.542-8.847-11.1,13.139H88.974a2.358,2.358,0,0,0,1.837-.88l2.328-2.9A.383.383,0,0,0,93.155,448.628Zm0,0" transform="translate(-57.163 -337.387)" fill="#194451"/>
      <path id="Path_830520" data-name="Path 830520" d="M403.554,94.722a1.747,1.747,0,0,0,2.4.572l9.466-5.823a1.746,1.746,0,1,0-1.831-2.974l-9.465,5.822A1.747,1.747,0,0,0,403.554,94.722Zm0,0" transform="translate(-309.396 -66.159)"/>
      <path id="Path_830521" data-name="Path 830521" d="M453.191,168.039l-13.877-1.348a1.746,1.746,0,1,0-.337,3.476l13.876,1.348c.058.005.115.008.171.008a1.746,1.746,0,0,0,.167-3.484Zm0,0" transform="translate(-335.559 -127.874)"/>
      <path id="Path_830522" data-name="Path 830522" d="M370.306,16.367a1.742,1.742,0,0,0,2.26-.994L377.62,2.379a1.746,1.746,0,0,0-3.254-1.266l-5.055,12.994A1.746,1.746,0,0,0,370.306,16.367Zm0,0" transform="translate(-283.233 0)"/>
      <path id="Path_830523" data-name="Path 830523" d="M74.739,22.627a4.055,4.055,0,0,0-5.573-1.32L67.077,22.6a4.05,4.05,0,0,0-1.321,5.573l1.2,1.946L39.5,64.109l-5.8,3.578a1.746,1.746,0,0,0,1.834,2.972L40.1,67.842,49,82.265a7.135,7.135,0,0,0-3.733.781l-.062.032c-.156.083-.312.169-.464.263L39.52,86.579a9.368,9.368,0,0,0-3.082,3.156l-1.289,1.942L34.2,93.1l-.025-.008-.043-.02c-.074-.033-.146-.069-.216-.108l-.045-.024a2.617,2.617,0,0,1-.224-.15c-.016-.011-.03-.023-.045-.034-.065-.051-.13-.105-.191-.164l-.023-.021a2.673,2.673,0,0,1-.187-.2l-.037-.047A2.646,2.646,0,0,1,33,92.091l-7.546-12.23a2.538,2.538,0,0,1,.827-3.493l2.259-1.393A1.746,1.746,0,0,0,26.709,72L24.45,73.4a6.033,6.033,0,0,0-2.641,6.762l-1.68,1.037a4.8,4.8,0,0,0-1.561,6.592l4.262,6.908A4.759,4.759,0,0,0,25.8,96.839a4.835,4.835,0,0,0,1.113.131,4.754,4.754,0,0,0,2.505-.716L31.1,95.217a6.03,6.03,0,0,0,1.149.822l-4.848,7.3-1.143.78a2.109,2.109,0,0,0-2.313.267l-3.008,2.532a2.123,2.123,0,0,0-2.341.036c-.034.024-.067.047-.1.073L1.561,120.4A4.079,4.079,0,0,0,0,123.621v5.44a4.108,4.108,0,0,0,4.1,4.1H31.811a4.083,4.083,0,0,0,3.2-1.533l2.3-2.858a2.118,2.118,0,0,0,.512-1.622l3.091-2.6a2.094,2.094,0,0,0,.641-.944l7.126,1.461A1.715,1.715,0,0,0,49,125.1c.208,0,.416.006.623.006a9.286,9.286,0,0,0,5.13-1.237l7.179-4.275c.12.007.24.012.359.012a5.663,5.663,0,0,0,2.963-.839l5.767-3.525a5.7,5.7,0,0,0-.393-9.945,5.755,5.755,0,0,0-3.7-8.259,5.743,5.743,0,0,0-4.034-6.755,5.747,5.747,0,0,0-.654-4.455,5.839,5.839,0,0,0-.762-.986l34.6-7.532,1.2,1.946a4.053,4.053,0,0,0,5.573,1.321l2.089-1.289a4.05,4.05,0,0,0,1.32-5.574ZM27.588,93.282a1.3,1.3,0,0,1-1.786-.423L21.54,85.952a1.3,1.3,0,0,1,.423-1.786l1.481-.914,5.625,9.116Zm4.7,36.16a.6.6,0,0,1-.476.228H4.1a.611.611,0,0,1-.61-.61v-5.44a.607.607,0,0,1,.232-.479L19.611,110.6,33.93,127.4Zm3.551-5.19-12.56-14.735,1.86-1.565L37.6,122.767Zm17.117-3.378a6.363,6.363,0,0,1-3.735.737l-8.946-1.834a1.741,1.741,0,0,0-.632-.014L28.659,106.713l.995-.679,0,0,.049-.037c.037-.028.075-.056.109-.086l.05-.047c.036-.033.068-.066.1-.1.013-.014.026-.028.038-.043.039-.047.076-.1.11-.146a.128.128,0,0,0,.01-.013l.008-.012.008-.014,9.235-13.909c.02-.03.039-.061.057-.092a5.712,5.712,0,0,1,1.928-1.984l5.221-3.238c.1-.06.195-.114.294-.164.044-.023.09-.042.135-.063s.1-.047.158-.068.122-.047.185-.068c.032-.012.064-.022.1-.032.076-.024.154-.046.231-.065h0a3.708,3.708,0,0,1,.851-.1h.018c.084,0,.166,0,.249.009l.08.007c.074.006.146.015.219.025.043.007.086.016.13.024a3.366,3.366,0,0,1,.329.079c.042.012.085.023.125.035s.109.04.164.062.086.033.128.051.107.048.16.075.079.04.117.061.105.058.157.09l.1.067c.052.035.1.069.154.107.031.023.06.047.089.071.052.041.1.082.152.126a3.347,3.347,0,0,1,.618.741l.128.21,1.862,3.038,2.336,3.813.594.97a1.529,1.529,0,0,1,.138.286,1.63,1.63,0,0,1,.049.946,1.8,1.8,0,0,1-.821,1.115l-1.05.642h0a1.844,1.844,0,0,1-.223.114l-.049.021a1.81,1.81,0,0,1-.229.076l-.028.006a1.83,1.83,0,0,1-.218.038l-.043.006a2.013,2.013,0,0,1-.234.005l-.044,0a1.8,1.8,0,0,1-.235-.03h0a1.709,1.709,0,0,1-.242-.07l-.021-.007a1.638,1.638,0,0,1-.452-.261h0a1.685,1.685,0,0,1-.188-.18l-.015-.017a1.529,1.529,0,0,1-.148-.2l-1.741-2.846a4.616,4.616,0,0,0-2.9-2.094,4.772,4.772,0,0,0-3.645.6A1.747,1.747,0,0,0,43.3,94.8c-.02.149-.045.3-.071.44-.02.105-.043.21-.066.314-.007.034-.015.07-.023.1-.031.131-.064.26-.1.387a.139.139,0,0,1,0,.015,7.4,7.4,0,0,1-.823,1.856,0,0,0,0,0,0,0,8.2,8.2,0,0,1-2.773,2.656,1.746,1.746,0,1,0,1.814,2.984,12.776,12.776,0,0,0,2.264-1.737l7.292,11.5a7.236,7.236,0,0,0,6.067,3.292c.127,0,.255-.007.382-.014.05.091.1.181.156.271a5.759,5.759,0,0,0,.7.926Zm1.481-12.838v0c.029.082.061.162.095.243,0,.009.007.019.012.029.03.073.063.145.1.216.008.016.014.033.023.049.032.067.068.134.1.2.011.02.02.04.031.059.046.085.1.17.146.254.087.144.183.281.281.415.035.047.072.094.108.14.064.082.131.161.2.239.048.054.1.111.146.164s.078.076.117.115a5.753,5.753,0,0,0,.443.4c.017.013.032.026.048.038a5.671,5.671,0,0,0,.965.618,5.75,5.75,0,0,0-.617,1.9,3.708,3.708,0,0,1-2.883-1.675L45.721,98.783a11.238,11.238,0,0,0,.853-2.463,1.3,1.3,0,0,1,.374.033,1.154,1.154,0,0,1,.725.519l1.741,2.846.008.012a4.851,4.851,0,0,0,.276.4c.073.1.151.185.229.274.027.031.052.064.08.1l.012.046q.041.181.093.36c.011.034.021.069.031.1.043.135.088.268.141.4,0,.014.011.026.016.039.048.12.1.237.159.354.016.034.033.068.05.1.065.127.134.253.208.376a5.721,5.721,0,0,0,3.509,2.581A5.739,5.739,0,0,0,54.436,108.036ZM55.55,87.253l.586-.358A2.269,2.269,0,1,1,58.5,90.767l-.583.356-1.726-2.817Zm13.014,20.976a2.209,2.209,0,0,1,.633,4.034l-5.767,3.525a2.193,2.193,0,0,1-1.532.289c-.03-.006-.061-.014-.092-.018l-.047-.009a2.2,2.2,0,0,1-1.645-1.709.134.134,0,0,0,0-.02,2.224,2.224,0,0,1,.586-1.96c.014-.013.027-.028.04-.041s.052-.048.078-.072.054-.047.083-.069l.063-.05c.052-.038.1-.075.159-.109l0,0,1.146-.7a5.95,5.95,0,0,0,.593-.314l4.412-2.7A2.2,2.2,0,0,1,68.564,108.229Zm-4.017-7.654a2.269,2.269,0,0,1,2.161,3.984l-1.039.635a5.837,5.837,0,0,0-.6.317l-4.389,2.682a2.276,2.276,0,0,1-2.368-.446h0c-.049-.045-.1-.092-.14-.142l-.035-.042c-.033-.038-.065-.076-.1-.117-.043-.057-.083-.116-.121-.177s-.073-.127-.1-.193c-.01-.021-.018-.042-.028-.064-.02-.045-.04-.09-.057-.136-.009-.025-.016-.048-.024-.073-.015-.044-.028-.088-.04-.133-.007-.025-.013-.05-.018-.075q-.015-.067-.027-.136l-.011-.071c-.007-.047-.011-.095-.014-.142,0-.023,0-.046,0-.068,0-.049,0-.1,0-.146,0-.022,0-.043,0-.064,0-.05.008-.1.014-.148,0-.021,0-.042.007-.063.006-.044.016-.087.025-.131a2.265,2.265,0,0,1,.728-1.241c.015-.014.029-.03.044-.044s.043-.038.065-.056c.055-.031.11-.059.164-.092l5.666-3.463Q64.429,100.655,64.547,100.574Zm-2.713-6.967a2.27,2.27,0,0,1,.858,4c-.058.032-.115.064-.173.1l-4.375,2.674c.014-.011.028-.024.043-.035.084-.066.167-.134.246-.2.049-.044.1-.09.143-.136.071-.069.142-.139.209-.213.046-.049.09-.1.134-.152.063-.075.125-.149.183-.226.041-.054.082-.108.121-.165.056-.079.108-.16.16-.243.035-.057.071-.114.1-.172.05-.087.1-.177.14-.268.028-.057.058-.113.084-.171.046-.1.085-.2.125-.309.018-.05.04-.1.057-.15.054-.157.1-.316.141-.479s.066-.312.089-.468c.007-.05.011-.1.017-.15.013-.107.023-.214.029-.321,0-.058,0-.116,0-.175,0-.1,0-.2,0-.3,0-.059-.006-.118-.009-.177-.007-.1-.019-.2-.032-.3-.007-.055-.014-.111-.023-.166-.019-.113-.043-.224-.07-.335-.009-.04-.016-.081-.026-.121-.04-.15-.085-.3-.139-.445-.011-.028-.024-.056-.035-.085-.038-.1-.075-.2-.12-.294l.4-.246A2.256,2.256,0,0,1,61.834,93.608ZM103.356,75.97a.557.557,0,0,1-.25.346l-2.089,1.29a.559.559,0,0,1-.768-.182L78.255,41.777a1.746,1.746,0,1,0-2.971,1.834L94.133,74.159l-40.58,8.834L42.806,65.574,68.9,33.267l2.108,3.418a1.746,1.746,0,1,0,2.972-1.834l-5.254-8.515a.558.558,0,0,1,.182-.768L71,24.28a.558.558,0,0,1,.768.182l31.521,51.087A.554.554,0,0,1,103.356,75.97Zm0,0" transform="translate(0 -15.884)"/>
    </g>
  </g>
</svg>
