<svg xmlns="http://www.w3.org/2000/svg" xmlns:xlink="http://www.w3.org/1999/xlink" width="150" height="150" viewBox="0 0 150 150">
  <defs>
    <clipPath id="clip-path">
      <rect id="Rectangle_380774" data-name="Rectangle 380774" width="150" height="150" transform="translate(305 1185)" fill="none" stroke="#707070" stroke-width="1"/>
    </clipPath>
  </defs>
  <g id="Mask_Group_449" data-name="Mask Group 449" transform="translate(-305 -1185)" clip-path="url(#clip-path)">
    <g id="Group_1077938" data-name="Group 1077938" transform="translate(321.421 1154.522)">
      <path id="Path_830524" data-name="Path 830524" d="M184.447,187.731h-13.78v16.077h.131a8.034,8.034,0,0,0,2.225,4.365l5.683,5.683v34.164h24.116V213.857l4.421-5.894a8.048,8.048,0,0,0,1.553-4.154h.054V187.731Z" transform="translate(-130.474 -91.331)" fill="#e8a864"/>
      <rect id="Rectangle_380779" data-name="Rectangle 380779" width="8.038" height="12.058" transform="translate(2.01 90.37)" fill="#e5e5e5"/>
      <rect id="Rectangle_380780" data-name="Rectangle 380780" width="8.038" height="6.029" transform="translate(2.01 96.399)" fill="#cfcfcf"/>
      <g id="Group_1077933" data-name="Group 1077933" transform="translate(10.048 70.275)">
        <path id="Path_830525" data-name="Path 830525" d="M47.691,119.465h0a5.023,5.023,0,0,1,5.024,5.024V146.6a5.023,5.023,0,0,1-5.024,5.024h0a5.023,5.023,0,0,1-5.024-5.024V124.489A5.023,5.023,0,0,1,47.691,119.465Z" transform="translate(-42.667 -109.417)" fill="#4398d1"/>
        <path id="Path_830526" data-name="Path 830526" d="M91.362,76.8h0a6.029,6.029,0,0,1,6.029,6.029V123.02a6.029,6.029,0,0,1-6.029,6.029h0a6.029,6.029,0,0,1-6.029-6.029V82.827A6.029,6.029,0,0,1,91.362,76.8Z" transform="translate(-75.285 -76.798)" fill="#4398d1"/>
      </g>
      <rect id="Rectangle_380781" data-name="Rectangle 380781" width="8.038" height="12.058" transform="translate(110.53 90.37)" fill="#e5e5e5"/>
      <g id="Group_1077934" data-name="Group 1077934" transform="translate(88.425 70.275)">
        <path id="Path_830527" data-name="Path 830527" d="M431.691,151.619h0a5.023,5.023,0,0,1-5.024-5.024V124.489a5.023,5.023,0,0,1,5.024-5.024h0a5.023,5.023,0,0,1,5.024,5.024V146.6A5.023,5.023,0,0,1,431.691,151.619Z" transform="translate(-414.609 -109.417)" fill="#4398d1"/>
        <path id="Path_830528" data-name="Path 830528" d="M381.5,129.049h0a6.029,6.029,0,0,1-6.029-6.029V82.827A6.029,6.029,0,0,1,381.5,76.8h0a6.028,6.028,0,0,1,6.029,6.029V123.02A6.029,6.029,0,0,1,381.5,129.049Z" transform="translate(-375.467 -76.798)" fill="#4398d1"/>
      </g>
      <path id="Path_830529" data-name="Path 830529" d="M180.746,162.131H136.533v12.058H192.8V162.131Z" transform="translate(-104.379 -71.76)" fill="#e5e5e5"/>
      <path id="Path_830530" data-name="Path 830530" d="M180.746,187.731H136.533v6.029H192.8v-6.029Z" transform="translate(-104.379 -91.331)" fill="#cfcfcf"/>
      <g id="Group_1077935" data-name="Group 1077935" transform="translate(44.212 82.333)">
        <path id="Path_830531" data-name="Path 830531" d="M191.752,128a4.018,4.018,0,0,0-4.019,4.019v6.029a4.019,4.019,0,0,0,8.039,0v-6.029A4.018,4.018,0,0,0,191.752,128Z" transform="translate(-187.733 -127.998)" fill="#f2bb80"/>
        <path id="Path_830532" data-name="Path 830532" d="M225.885,128a4.018,4.018,0,0,0-4.019,4.019v6.029a4.019,4.019,0,0,0,8.039,0v-6.029A4.018,4.018,0,0,0,225.885,128Z" transform="translate(-213.827 -127.998)" fill="#f2bb80"/>
        <path id="Path_830533" data-name="Path 830533" d="M260.019,128A4.018,4.018,0,0,0,256,132.017v6.029a4.019,4.019,0,0,0,8.039,0v-6.029A4.018,4.018,0,0,0,260.019,128Z" transform="translate(-239.923 -127.998)" fill="#f2bb80"/>
        <path id="Path_830534" data-name="Path 830534" d="M294.152,128a4.018,4.018,0,0,0-4.019,4.019v6.029a4.019,4.019,0,0,0,8.039,0v-6.029A4.018,4.018,0,0,0,294.152,128Z" transform="translate(-266.017 -127.998)" fill="#f2bb80"/>
      </g>
      <g id="Group_1077936" data-name="Group 1077936" transform="translate(10.048 92.381)">
        <path id="Path_830535" data-name="Path 830535" d="M47.691,179.956a5.023,5.023,0,0,1-5.024-5.024V189a5.024,5.024,0,1,0,10.048,0V174.932A5.023,5.023,0,0,1,47.691,179.956Z" transform="translate(-42.667 -173.927)" fill="#3e8cc7"/>
        <path id="Path_830536" data-name="Path 830536" d="M91.362,176.694a6.029,6.029,0,0,1-6.029-6.029v24.116a6.029,6.029,0,0,0,12.058,0V170.665A6.029,6.029,0,0,1,91.362,176.694Z" transform="translate(-75.285 -170.665)" fill="#3e8cc7"/>
      </g>
      <rect id="Rectangle_380782" data-name="Rectangle 380782" width="8.038" height="6.029" transform="translate(110.53 96.399)" fill="#cfcfcf"/>
      <g id="Group_1077937" data-name="Group 1077937" transform="translate(88.425 92.381)">
        <path id="Path_830537" data-name="Path 830537" d="M431.691,179.956a5.023,5.023,0,0,0,5.024-5.024V189a5.024,5.024,0,1,1-10.048,0V174.932A5.023,5.023,0,0,0,431.691,179.956Z" transform="translate(-414.609 -173.927)" fill="#3e8cc7"/>
        <path id="Path_830538" data-name="Path 830538" d="M381.5,176.694a6.029,6.029,0,0,0,6.029-6.029v24.116a6.029,6.029,0,0,1-12.058,0V170.665A6.029,6.029,0,0,0,381.5,176.694Z" transform="translate(-375.467 -170.665)" fill="#3e8cc7"/>
      </g>
      <path id="Path_830539" data-name="Path 830539" d="M190.763,213.853c0-6.029-3.073-11.073-7.637-12.59l-4.421-1.477v-4.019h6.029a4.006,4.006,0,0,0,3.463-2.01,3.927,3.927,0,0,0,.468-2.834,4.246,4.246,0,0,0-4.22-3.2H170.666v14.757a8.042,8.042,0,0,0,2.355,5.685l5.683,5.683v34.164H202.82V213.853Z" transform="translate(-130.473 -91.327)" fill="#f2bb80"/>
      <path id="Path_830540" data-name="Path 830540" d="M2.01,104.439H8.039v3.014a6.989,6.989,0,0,0,10.048,6.329V116.5a8.039,8.039,0,1,0,16.077,0V104.439h4.019v6.718a9.98,9.98,0,0,0,2.944,7.1l5.094,5.1V156.69h4.019V122.526a2,2,0,0,0-.589-1.421l-5.683-5.685a6.066,6.066,0,0,1-1.767-4.262V98.41H53.973a2.414,2.414,0,0,1,1.945.942c.014.02.03.04.044.062a1.775,1.775,0,0,1,.2.44,1.9,1.9,0,0,1,.076.38,1.707,1.707,0,0,1,0,.38,1.667,1.667,0,0,1-.026.2,2.1,2.1,0,0,1-.231.6,1.982,1.982,0,0,1-1.722,1.011H48.232a2.01,2.01,0,0,0-2.01,2.01v4.019a2.008,2.008,0,0,0,1.375,1.907l4.421,1.477c3.589,1.192,6.262,6.624,6.262,10.683H62.3c0-5.529-3.441-12.645-9-14.5l-3.057-1.019v-.561h4.019a5.99,5.99,0,0,0,4.421-2.01H76.367v7.369a6.066,6.066,0,0,1-1.206,3.617L70.74,121.32a2.009,2.009,0,0,0-.4,1.206V156.69h4.019v-33.5l4.019-5.358a10.1,10.1,0,0,0,2.01-6.029v-7.369h6.029V116.5a8.039,8.039,0,0,0,16.077,0v-2.715a6.961,6.961,0,0,0,3.014.705,7.034,7.034,0,0,0,7.034-7.034v-3.014h6.029a2.01,2.01,0,0,0,2.01-2.01V90.371a2.01,2.01,0,0,0-2.01-2.01H112.54V85.347a6.989,6.989,0,0,0-10.048-6.329V76.3a8.039,8.039,0,0,0-16.077,0V88.361H78.377v-2.01A6,6,0,0,0,68.328,81.89a5.936,5.936,0,0,0-8.039,0,5.936,5.936,0,0,0-8.039,0A6,6,0,0,0,42.2,86.352v2.01H34.164V76.3a8.039,8.039,0,0,0-16.077,0v2.715a6.961,6.961,0,0,0-3.014-.705,7.034,7.034,0,0,0-7.034,7.034v3.014H2.01A2.01,2.01,0,0,0,0,90.371v12.058A2.01,2.01,0,0,0,2.01,104.439ZM116.56,92.381v8.039H112.54V92.381ZM105.507,82.333a3.015,3.015,0,0,1,3.014,3.014v22.106a3.014,3.014,0,1,1-6.029,0V85.347A3.015,3.015,0,0,1,105.507,82.333ZM90.434,76.3a4.019,4.019,0,1,1,8.039,0V116.5a4.019,4.019,0,0,1-8.039,0ZM86.415,92.381v8.039H60.29v-.056a6.084,6.084,0,0,0-.125-1.19c-.012-.054-.038-.1-.05-.161-.036-.147-.088-.283-.135-.426a5.655,5.655,0,0,0-.308-.752c-.058-.121-.086-.257-.153-.374.022-.016.044-.032.066-.05.093-.06.173-.133.261-.2.151-.113.309-.217.45-.344.117.1.251.187.376.281s.247.2.382.285a6.355,6.355,0,0,0,.587.32c.137.066.265.145.4.2a5.6,5.6,0,0,0,.719.223c.127.034.245.082.376.109a5.825,5.825,0,0,0,2.343,0c.131-.026.249-.074.376-.109a5.6,5.6,0,0,0,.719-.223c.143-.058.271-.137.4-.2a6.677,6.677,0,0,0,.589-.32c.133-.088.253-.189.38-.285s.259-.177.376-.281c.117.1.251.187.376.281s.247.2.382.285a6.354,6.354,0,0,0,.587.32c.137.066.265.145.4.2a5.6,5.6,0,0,0,.719.223c.127.034.245.082.376.109a6.014,6.014,0,0,0,7.09-4.695,6.12,6.12,0,0,0,.121-1.21h8.038ZM72.348,84.342a2.01,2.01,0,0,1,2.01,2.01v6.029a2.01,2.01,0,1,1-4.019,0V86.352A2.01,2.01,0,0,1,72.348,84.342Zm-8.039,0a2.01,2.01,0,0,1,2.01,2.01v6.029a2.01,2.01,0,1,1-4.019,0V86.352A2.01,2.01,0,0,1,64.309,84.342Zm-8.039,0a2.01,2.01,0,0,1,2.01,2.01v6.029a2.01,2.01,0,1,1-4.019,0V86.352A2.01,2.01,0,0,1,56.27,84.342Zm-10.048,2.01a2.01,2.01,0,0,1,4.019,0v6.029a2.01,2.01,0,1,1-4.019,0ZM42.2,92.381a5.957,5.957,0,0,0,.114,1.131c.022.118.06.227.088.342.046.179.08.364.141.536H40.193a2.01,2.01,0,0,0-2.01,2.01v4.019H34.164V92.381ZM22.106,76.3a4.019,4.019,0,1,1,8.039,0V116.5a4.019,4.019,0,0,1-8.039,0V76.3ZM12.058,85.347a3.014,3.014,0,1,1,6.029,0v22.106a3.014,3.014,0,0,1-6.029,0ZM4.019,92.381H8.039v8.039H4.019Z"/>
    </g>
  </g>
</svg>
