<svg xmlns="http://www.w3.org/2000/svg" xmlns:xlink="http://www.w3.org/1999/xlink" width="190" height="190" viewBox="0 0 190 190">
  <defs>
    <clipPath id="clip-path">
      <rect id="Rectangle_380577" data-name="Rectangle 380577" width="190" height="190" transform="translate(-9459 -9509)" fill="#fff" stroke="#707070" stroke-width="1"/>
    </clipPath>
  </defs>
  <g id="Mask_Group_433" data-name="Mask Group 433" transform="translate(9459 9509)" clip-path="url(#clip-path)">
    <g id="Group_1077237" data-name="Group 1077237" transform="translate(-9443.542 -9492.645)">
      <g id="Group_1078436" data-name="Group 1078436">
        <path id="Path_829012" data-name="Path 829012" d="M21.018,73.127l11.49-7.66h90.466a7.754,7.754,0,0,0,7.754-7.754V11.187a7.754,7.754,0,0,0-7.754-7.754H24.754A7.754,7.754,0,0,0,17,11.187V70.976a2.585,2.585,0,0,0,4.018,2.151Z" transform="translate(23.771 1.585)" fill="#fff"/>
        <circle id="Ellipse_5919" data-name="Ellipse 5919" cx="20.678" cy="20.678" r="20.678" transform="translate(98.928 15.356)" fill="#ffae7e"/>
        <path id="Path_829013" data-name="Path 829013" d="M112.71,103.127l-11.49-7.66H10.754A7.754,7.754,0,0,1,3,87.713V41.187a7.754,7.754,0,0,1,7.754-7.754h98.22a7.754,7.754,0,0,1,7.754,7.754v59.789a2.585,2.585,0,0,1-4.018,2.151Z" transform="translate(1.585 49.126)" fill="#7816c2"/>
        <circle id="Ellipse_5920" data-name="Ellipse 5920" cx="20.678" cy="20.678" r="20.678" transform="translate(66.618 92.898)" fill="#fff"/>
        <path id="Path_829014" data-name="Path 829014" d="M32,48.6l5.169,5.169L47.508,43.433" transform="translate(47.542 64.974)" fill="#fff"/>
        <path id="Path_829015" data-name="Path 829015" d="M124.559,2.434H26.339A10.351,10.351,0,0,0,16,12.772V72.561a5.169,5.169,0,0,0,8.037,4.3l10.839-7.225h89.683A10.351,10.351,0,0,0,134.9,59.3V12.772A10.351,10.351,0,0,0,124.559,2.433ZM129.728,59.3a5.175,5.175,0,0,1-5.169,5.169H34.093a2.587,2.587,0,0,0-1.434.434l-11.49,7.659V12.773A5.175,5.175,0,0,1,26.339,7.6h98.22a5.175,5.175,0,0,1,5.169,5.169Z" transform="translate(22.187)"/>
        <path id="Path_829016" data-name="Path 829016" d="M61.763,6.433A23.29,23.29,0,0,0,38.5,29.7c1.221,30.838,45.309,30.83,46.525,0A23.29,23.29,0,0,0,61.763,6.433Zm0,41.356A18.113,18.113,0,0,1,43.669,29.7c.849-23.946,35.341-23.94,36.186,0A18.113,18.113,0,0,1,61.763,47.789Z" transform="translate(57.843 6.339)"/>
        <path id="Path_829017" data-name="Path 829017" d="M54.047,10.19a8.6,8.6,0,0,0-10.079,9.175,2.294,2.294,0,1,0,4.588,0,3.866,3.866,0,0,1,3.682-4.587h1.81a3.687,3.687,0,0,1,3.682,3.682c.128,2.047-1.829,3.272-3.35,4.2-2.646,1.452-5.87,8.2-1.237,8.891a2.294,2.294,0,0,0,2.294-2.293,3.336,3.336,0,0,1,1.488-2.781c8.418-4.173,6.569-15.783-2.877-16.29Z" transform="translate(66.461 12.079)" fill="#fff"/>
        <path id="Path_829018" data-name="Path 829018" d="M48.905,18.978A2.294,2.294,0,1,0,51.2,21.271a2.293,2.293,0,0,0-2.294-2.294Z" transform="translate(70.697 26.218)" fill="#fff"/>
        <path id="Path_829019" data-name="Path 829019" d="M53.6,8.434H22.585a2.585,2.585,0,1,0,0,5.17H53.6a2.585,2.585,0,1,0,0-5.17Z" transform="translate(28.525 9.508)" fill="#ffae7e"/>
        <path id="Path_829020" data-name="Path 829020" d="M53.6,13.434H22.585a2.585,2.585,0,1,0,0,5.17H53.6a2.585,2.585,0,1,0,0-5.17Z" transform="translate(28.525 17.432)" fill="#ffae7e"/>
        <path id="Path_829021" data-name="Path 829021" d="M53.6,18.434H22.585a2.585,2.585,0,1,0,0,5.17H53.6a2.585,2.585,0,1,0,0-5.17Z" transform="translate(28.525 25.355)" fill="#ffae7e"/>
        <path id="Path_829022" data-name="Path 829022" d="M110.559,32.434H12.339A10.351,10.351,0,0,0,2,42.772V89.3A10.351,10.351,0,0,0,12.339,99.637h89.683l10.839,7.225a5.2,5.2,0,0,0,8.037-4.3V42.772a10.351,10.351,0,0,0-10.339-10.339Zm5.169,70.127-11.49-7.66a2.587,2.587,0,0,0-1.434-.434H12.339A5.175,5.175,0,0,1,7.169,89.3V42.772A5.175,5.175,0,0,1,12.339,37.6h98.22a5.175,5.175,0,0,1,5.169,5.169s.014,59.8,0,59.788Z" transform="translate(0 47.542)"/>
        <path id="Path_829023" data-name="Path 829023" d="M49.263,36.434A23.29,23.29,0,0,0,26,59.7c1.221,30.838,45.309,30.83,46.525,0A23.29,23.29,0,0,0,49.263,36.434Zm0,41.356A18.113,18.113,0,0,1,31.169,59.7c.849-23.946,35.341-23.94,36.186,0A18.113,18.113,0,0,1,49.263,77.789Z" transform="translate(38.033 53.881)"/>
        <g id="Group_1077236" data-name="Group 1077236" transform="translate(16.216 95.483)">
          <path id="Path_829024" data-name="Path 829024" d="M41.1,38.434H10.085a2.585,2.585,0,1,0,0,5.17H41.1a2.585,2.585,0,1,0,0-5.17Z" transform="translate(-7.5 -38.433)" fill="#fff"/>
          <path id="Path_829025" data-name="Path 829025" d="M41.1,43.434H10.085a2.585,2.585,0,1,0,0,5.17H41.1a2.585,2.585,0,1,0,0-5.17Z" transform="translate(-7.5 -30.51)" fill="#fff"/>
          <path id="Path_829026" data-name="Path 829026" d="M41.1,48.434H10.085a2.585,2.585,0,1,0,0,5.17H41.1a2.585,2.585,0,1,0,0-5.17Z" transform="translate(-7.5 -22.586)" fill="#fff"/>
        </g>
        <path id="Path_829027" data-name="Path 829027" d="M47.266,43.191,38.754,51.7,35.412,48.36a2.585,2.585,0,1,0-3.655,3.655l5.17,5.169a2.584,2.584,0,0,0,3.655,0L50.921,46.846a2.585,2.585,0,1,0-3.655-3.655Z" transform="translate(45.957 63.389)" fill="#7816c2"/>
        <path id="Path_829028" data-name="Path 829028" d="M64.569,10.367a4.785,4.785,0,1,1-4.785-4.785,4.784,4.784,0,0,1,4.785,4.785Z" transform="translate(83.99 4.99)"/>
      </g>
    </g>
  </g>
</svg>
