<svg xmlns="http://www.w3.org/2000/svg" xmlns:xlink="http://www.w3.org/1999/xlink" width="190" height="202" viewBox="0 0 190 202">
  <defs>
    <clipPath id="clip-path">
      <rect id="Rectangle_380578" data-name="Rectangle 380578" width="190" height="202" transform="translate(-9459 -8885)" fill="#fff" stroke="#707070" stroke-width="1"/>
    </clipPath>
  </defs>
  <g id="Mask_Group_434" data-name="Mask Group 434" transform="translate(9459 8885)" clip-path="url(#clip-path)">
    <g id="_10_Invitation_Letter" data-name="10 Invitation Letter" transform="translate(-9435.559 -8863.91)">
      <g id="Group_1078438" data-name="Group 1078438">
        <path id="Path_829040" data-name="Path 829040" d="M28.877,24.8a2.652,2.652,0,0,0-2.652.019L10.312,34.231a2.652,2.652,0,0,0-.467,4.217L25.758,53.379a2.652,2.652,0,0,0,1.793.719,2.6,2.6,0,0,0,1.061-.22A2.652,2.652,0,0,0,30.2,51.446V27.1A2.652,2.652,0,0,0,28.877,24.8Z" transform="translate(0.014 35.439)" fill="#08f"/>
        <path id="Path_829041" data-name="Path 829041" d="M66.915,34.234,51,24.819A2.652,2.652,0,0,0,47,27.1V51.449a2.652,2.652,0,0,0,1.591,2.432,2.6,2.6,0,0,0,1.061.22,2.652,2.652,0,0,0,1.817-.719L67.381,38.451a2.652,2.652,0,0,0-.467-4.217Z" transform="translate(62.779 35.437)" fill="#08f"/>
        <path id="Path_829042" data-name="Path 829042" d="M99.867,3H20.3A5.3,5.3,0,0,0,15,8.3V86.886a2.652,2.652,0,0,0,.838,1.933l26.521,24.85a2.652,2.652,0,0,0,1.814.719H76a2.652,2.652,0,0,0,1.814-.719l26.521-24.85a2.652,2.652,0,0,0,.838-1.933V8.3a5.3,5.3,0,0,0-5.3-5.3Z" transform="translate(9.912)" fill="#f5f5f5"/>
        <path id="Path_829043" data-name="Path 829043" d="M130.219,86.211,87.785,43.777A2.652,2.652,0,0,0,85.91,43H54.085a2.652,2.652,0,0,0-1.875.777L9.777,86.211a2.652,2.652,0,0,0,1.875,4.527H128.344a2.652,2.652,0,0,0,1.875-4.527Z" transform="translate(0 66.084)" fill="#d5fff5"/>
        <path id="Path_829044" data-name="Path 829044" d="M83.141,28.219a2.652,2.652,0,0,0-2.867.5L37.84,68.5a2.652,2.652,0,0,0-.061,3.808l42.433,42.433a2.652,2.652,0,0,0,4.519-1.875V30.651A2.652,2.652,0,0,0,83.141,28.219Z" transform="translate(46.264 41.304)" fill="#84caff"/>
        <path id="Path_829045" data-name="Path 829045" d="M13.466,28.718A2.652,2.652,0,0,0,9,30.651v82.215a2.652,2.652,0,0,0,4.527,1.875L55.961,72.308A2.652,2.652,0,0,0,55.9,68.5Z" transform="translate(0 41.303)" fill="#84caff"/>
        <path id="Path_829046" data-name="Path 829046" d="M77.107,29.08a2.652,2.652,0,0,0-2.143-1.806L58.908,24.945,51.747,10.4a2.758,2.758,0,0,0-4.753,0L39.813,24.945,23.765,27.276A2.652,2.652,0,0,0,22.293,31.8L33.909,43.12,31.167,59.1a2.652,2.652,0,0,0,3.848,2.8L49.36,54.354,63.714,61.9a2.692,2.692,0,0,0,1.236.3,2.652,2.652,0,0,0,2.612-3.1L64.82,43.12,76.436,31.8a2.652,2.652,0,0,0,.671-2.721Z" transform="translate(20.638 9.988)" fill="#ffae7e"/>
        <path id="Path_829047" data-name="Path 829047" d="M46.565,38.3H30.652a2.652,2.652,0,1,1,0-5.3H46.565a2.652,2.652,0,1,1,0,5.3Z" transform="translate(31.39 49.563)" fill="#78777f"/>
        <path id="Path_829048" data-name="Path 829048" d="M46.565,42.3H30.652a2.652,2.652,0,1,1,0-5.3H46.565a2.652,2.652,0,1,1,0,5.3Z" transform="translate(31.39 56.171)" fill="#78777f"/>
        <g id="Group_1077240" data-name="Group 1077240" transform="translate(9 3)">
          <path id="Path_829049" data-name="Path 829049" d="M131,71.954c0-.066-.024-.125-.027-.188s.016-.066,0-.1a.459.459,0,0,1-.045-.133,2.652,2.652,0,0,0-.35-.984l-.019-.04a2.607,2.607,0,0,0-.777-.745c-.037-.027-.056-.069-.1-.093l-14.6-8.643V8.3a5.3,5.3,0,0,0-5.3-5.3H30.217a5.3,5.3,0,0,0-5.3,5.3V61.028L10.3,69.671c-.04.024-.058.066-.1.093a2.607,2.607,0,0,0-.777.745l-.019.04a2.652,2.652,0,0,0-.35.984c0,.048-.04.085-.045.133a.633.633,0,0,0,0,.1c0,.034-.016.122-.016.188v82.215c0,.042.016.08.019.122a2.506,2.506,0,0,0,.058.393,2.559,2.559,0,0,0,.1.379c.013.04.013.082.029.122s.09.141.13.215a2.525,2.525,0,0,0,.207.345,2.864,2.864,0,0,0,.265.284,2.592,2.592,0,0,0,.284.265,2.824,2.824,0,0,0,.345.207c.074.04.135.1.215.13.032.013.066,0,.1.019a2.618,2.618,0,0,0,.907.172H128.344a2.618,2.618,0,0,0,.918-.183.185.185,0,0,0,.1-.019c.08-.034.141-.09.215-.13a2.829,2.829,0,0,0,.345-.207,2.594,2.594,0,0,0,.284-.265,2.865,2.865,0,0,0,.265-.284,2.523,2.523,0,0,0,.207-.345c.04-.074.1-.135.13-.215s.016-.082.029-.122a2.559,2.559,0,0,0,.1-.379,2.5,2.5,0,0,0,.058-.4c0-.04.019-.077.019-.119ZM89.724,111.8l24.519-22.975,11.449-10.741v69.686Zm34.228-39.36-8.869,8.314V67.181ZM30.217,8.3h79.563v77.42L87.186,106.9l-2.336,2.18h-29.7L52.82,106.9l-22.6-21.18ZM14.3,78.081,25.748,88.819l24.519,22.975L14.3,147.767Zm10.608,2.671-8.869-8.314,8.869-5.256Zm-6.858,70.766,37.129-37.129H84.813l37.129,37.129Z" transform="translate(-9 -3)"/>
          <path id="Path_829050" data-name="Path 829050" d="M33.9,43.12,31.159,59.1a2.652,2.652,0,0,0,3.848,2.8L49.36,54.354,63.714,61.9a2.692,2.692,0,0,0,1.236.3,2.652,2.652,0,0,0,2.612-3.1L64.82,43.12,76.436,31.8a2.652,2.652,0,0,0-1.472-4.524L58.908,24.945,51.747,10.4a2.758,2.758,0,0,0-4.753,0L39.813,24.945,23.765,27.276A2.652,2.652,0,0,0,22.293,31.8Zm8.046-13.125a2.652,2.652,0,0,0,2-1.453L49.36,17.57l5.416,10.98a2.652,2.652,0,0,0,2,1.453l12.109,1.758L60.131,40.3a2.652,2.652,0,0,0-.761,2.347l2.069,12.062L50.607,49.018a2.652,2.652,0,0,0-2.472,0L37.293,54.7l2.069-12.062A2.652,2.652,0,0,0,38.6,40.3l-8.752-8.542Z" transform="translate(11.638 6.989)"/>
          <path id="Path_829051" data-name="Path 829051" d="M46.565,33H30.652a2.652,2.652,0,1,0,0,5.3H46.565a2.652,2.652,0,1,0,0-5.3Z" transform="translate(22.39 46.563)"/>
          <path id="Path_829052" data-name="Path 829052" d="M46.565,37H30.652a2.652,2.652,0,1,0,0,5.3H46.565a2.652,2.652,0,1,0,0-5.3Z" transform="translate(22.39 53.171)"/>
        </g>
      </g>
    </g>
  </g>
</svg>
