<svg xmlns="http://www.w3.org/2000/svg" xmlns:xlink="http://www.w3.org/1999/xlink" width="190" height="202" viewBox="0 0 190 202">
  <defs>
    <clipPath id="clip-path">
      <rect id="Rectangle_380579" data-name="Rectangle 380579" width="190" height="202" transform="translate(-9459 -8304)" fill="#fff" stroke="#707070" stroke-width="1"/>
    </clipPath>
  </defs>
  <g id="Mask_Group_435" data-name="Mask Group 435" transform="translate(9459 8304)" clip-path="url(#clip-path)">
    <g id="Group_1077246" data-name="Group 1077246" transform="translate(-9427 -8293.113)">
      <g id="Group_1078439" data-name="Group 1078439">
        <g id="Group_1077241" data-name="Group 1077241" transform="translate(2.795 28.667)">
          <path id="Path_829053" data-name="Path 829053" d="M106.989,79.725a3.573,3.573,0,0,0-.948,3.362L87.765,101.364A38.137,38.137,0,0,0,78.827,115.6l-2.745,7.7,7.605-2.627a38.126,38.126,0,0,0,14.59-9.067l8.712-8.709v39.532h-64a16.495,16.495,0,0,1-32.989,0V35.872h96.989Z" transform="translate(-10 -35.872)" fill="#fff"/>
        </g>
        <g id="Group_1077242" data-name="Group 1077242" transform="translate(19.29 135.223)">
          <path id="Path_829054" data-name="Path 829054" d="M154.568,433.608a16.692,16.692,0,0,0,16.495-16.495H85.511a16.5,16.5,0,0,1-16.495,16.495Z" transform="translate(-69.016 -417.113)" fill="#bdd3dd"/>
        </g>
        <g id="Group_1077243" data-name="Group 1077243" transform="translate(68.877 75.881)">
          <path id="Path_829055" data-name="Path 829055" d="M286.77,215.173l-18.144,18.141a38.147,38.147,0,0,1-14.59,9.068l-7.6,2.626,2.744-7.7a38.114,38.114,0,0,1,8.939-14.232L276.393,204.8a3.517,3.517,0,0,0,.945,1.69l7.739,7.742A3.537,3.537,0,0,0,286.77,215.173Z" transform="translate(-246.431 -204.796)" fill="#d98964"/>
        </g>
        <g id="Group_1077244" data-name="Group 1077244" transform="translate(98.738 51.725)">
          <path id="Path_829056" data-name="Path 829056" d="M362.054,151.956l-7.74-7.74a3.572,3.572,0,0,1,0-5.051l18.147-18.147a9.045,9.045,0,0,1,12.791,12.791l-18.147,18.147a3.572,3.572,0,0,1-5.051,0Z" transform="translate(-353.268 -118.368)" fill="#eab7a2"/>
        </g>
        <g id="Group_1077245" data-name="Group 1077245" transform="translate(0 25.872)">
          <path id="Path_829057" data-name="Path 829057" d="M129.622,108.28h39.925a2.795,2.795,0,1,0,0-5.59H129.622a2.795,2.795,0,1,0,0,5.59Z" transform="translate(-91.379 -81.219)"/>
          <path id="Path_829058" data-name="Path 829058" d="M70.788,177h56.369a2.795,2.795,0,1,0,0-5.59H70.788a2.795,2.795,0,0,0,0,5.59Z" transform="translate(-48.989 -130.729)"/>
          <path id="Path_829059" data-name="Path 829059" d="M70.788,245.712h41.729a2.795,2.795,0,0,0,0-5.59H70.788a2.795,2.795,0,0,0,0,5.59Z" transform="translate(-48.989 -180.239)"/>
          <path id="Path_829060" data-name="Path 829060" d="M68.568,312.782a2.8,2.8,0,0,0,2.631-1.853c.925-2.582,4.564-9.954,9-9.954.355,0,.978.041,1.157.316.618.95.21,2.626.005,3.629a28.2,28.2,0,0,1-1.319,4.1,2.8,2.8,0,0,0,1.571,3.553c2.048.833,3.367-.769,4.03-2.471a18.221,18.221,0,0,1,2.365-4.016c.64-.8,1.631-1.941,2.764-1.941a1.357,1.357,0,0,1,.812.157c.421.613.166,2.882-.522,4.661a2.822,2.822,0,0,0,2.6,3.816h6.483a2.795,2.795,0,1,0,0-5.59h-2.9a8.669,8.669,0,0,0-1.049-6.036c-2.085-3.058-6.485-3.229-9.44-1.4a6.578,6.578,0,0,0-6.564-4.369c-4,0-7.773,2.469-10.911,7.139a32.928,32.928,0,0,0-3.351,6.519,2.8,2.8,0,0,0,2.631,3.738Z" transform="translate(-47.39 -220.056)"/>
          <path id="Path_829061" data-name="Path 829061" d="M138.816,58.515,132.7,52.4a11.854,11.854,0,0,0-16.744,0L102.578,65.773V28.667a2.8,2.8,0,0,0-2.795-2.795H2.795A2.8,2.8,0,0,0,0,28.667V135.223a19.469,19.469,0,0,0,19.29,19.29H61.125a2.795,2.795,0,0,0,0-5.59H32.868l.06-.059a19.129,19.129,0,0,0,5.452-10.845h79.878a13.847,13.847,0,0,1-13.416,10.9H85.691a2.795,2.795,0,0,0,0,5.59h19.15a19.511,19.511,0,0,0,19.29-19.29,2.8,2.8,0,0,0-2.795-2.795H102.579V96.846l7.709-7.708a6.335,6.335,0,0,0,4.264-1.851L132.7,69.141a11.769,11.769,0,0,0,3.122-5.545,9.046,9.046,0,0,1-.957,11.665L121.6,88.53a2.8,2.8,0,0,0,0,3.953,2.825,2.825,0,0,0,3.953,0l13.268-13.268a14.636,14.636,0,0,0,0-20.7ZM5.59,135.223V31.462h91.4V71.545a6.3,6.3,0,0,0-1.046,3.279l-17.36,17.36q-1,1-1.922,2.068a42.486,42.486,0,0,0-7.86,13.73q-1.28,3.587-2.556,7.176a2.823,2.823,0,0,0,3.545,3.58c2.517-.87,5.039-1.729,7.552-2.609a41.484,41.484,0,0,0,15.706-9.751l3.941-3.939v29.991h-61.2a2.8,2.8,0,0,0-2.795,2.795,13.843,13.843,0,0,1-13.7,13.7,13.823,13.823,0,0,1-13.7-13.7Zm83.5-32.8c-4.433,4.435-9.776,7.106-15.632,9.129,2.055-5.768,4.69-11.032,9.074-15.416l15.929-15.93,6.423,6.425Zm39.651-37.235L110.6,83.335a.794.794,0,0,1-1.1,0l-7.744-7.744a.787.787,0,0,1,0-1.094L119.908,56.35a6.25,6.25,0,1,1,8.838,8.839Z" transform="translate(0 -25.872)"/>
          <path id="Path_829062" data-name="Path 829062" d="M257.788,467.854a2.793,2.793,0,1,0-.975,3.354A2.824,2.824,0,0,0,257.788,467.854Z" transform="translate(-181.862 -343.078)"/>
        </g>
      </g>
    </g>
  </g>
</svg>
