<svg xmlns="http://www.w3.org/2000/svg" xmlns:xlink="http://www.w3.org/1999/xlink" width="190" height="207" viewBox="0 0 190 207">
  <defs>
    <clipPath id="clip-path">
      <rect id="Rectangle_380580" data-name="Rectangle 380580" width="190" height="207" transform="translate(-9459 -7894)" fill="#fff" stroke="#707070" stroke-width="1"/>
    </clipPath>
  </defs>
  <g id="Mask_Group_436" data-name="Mask Group 436" transform="translate(9459 7894)" clip-path="url(#clip-path)">
    <g id="Group_1077248" data-name="Group 1077248" transform="translate(-9475.791 -7869.59)">
      <g id="Group_1077247" data-name="Group 1077247" transform="translate(46.111 2.317)">
        <g id="Group_1078440" data-name="Group 1078440">
          <path id="Path_829063" data-name="Path 829063" d="M357.858,326.975h-28.8a2.545,2.545,0,0,1-2.545-2.545V250.154a2.545,2.545,0,0,1,2.545-2.545h28.8a2.545,2.545,0,0,1,2.545,2.545V324.43A2.545,2.545,0,0,1,357.858,326.975Z" transform="translate(-241.488 -173.428)" fill="#c1e29a"/>
          <path id="Path_829064" data-name="Path 829064" d="M385.653,326.975h13.072a2.545,2.545,0,0,0,2.545-2.545V250.154a2.545,2.545,0,0,0-2.545-2.545H394.88C394.634,257.1,393.165,313.086,385.653,326.975Z" transform="translate(-282.356 -173.428)" fill="#8baa66"/>
          <path id="Path_829065" data-name="Path 829065" d="M290.222,92.99a9.5,9.5,0,0,1,3.864,3.784l18.482,2.1,9.826-2.1a43.311,43.311,0,0,1,1.7-8.3l4.556-14.725,4.442-15.893a4.538,4.538,0,0,0-4.371-5.759H328.7a4.538,4.538,0,0,0-4.265,2.988l-4.348,11.961L323.074,46.7a4.538,4.538,0,1,0-8.98-1.317l-3.179,21.669V42.037a4.538,4.538,0,0,0-4.538-4.538h-.1a4.538,4.538,0,0,0-4.538,4.538V67.049l-3.129-19.255a4.538,4.538,0,0,0-4.479-3.81h-.116a4.538,4.538,0,0,0-4.5,5.15l3.27,24.052a8.866,8.866,0,0,1-1.619,6.415,1.382,1.382,0,0,1-2.331-.153l-3.357-6.164a4.9,4.9,0,1,0-8.41,5.02l4.33,6.645a23.755,23.755,0,0,0,8.818,8.041Z" transform="translate(-206.772 -28.231)" fill="#ffd3a3"/>
          <path id="Path_829066" data-name="Path 829066" d="M333.918,229.36a9.491,9.491,0,0,1,1.206,4.554l.041,1.084h26.82v-1.127a43.325,43.325,0,0,1,.241-4.51H333.918Z" transform="translate(-246.604 -160.817)" fill="#ffbe84"/>
          <path id="Path_829067" data-name="Path 829067" d="M132.879,306.243h-28.8a2.545,2.545,0,0,1-2.545-2.545V220.154a2.545,2.545,0,0,1,2.545-2.545h28.8a2.545,2.545,0,0,1,2.545,2.545V303.7A2.545,2.545,0,0,1,132.879,306.243Z" transform="translate(-86.017 -152.696)" fill="#ffae7e"/>
          <path id="Path_829068" data-name="Path 829068" d="M160.673,306.243h13.072a2.545,2.545,0,0,0,2.545-2.545V220.154a2.545,2.545,0,0,0-2.545-2.545H169.9C169.654,227.1,168.186,292.354,160.673,306.243Z" transform="translate(-126.883 -152.696)" fill="#fc6f1b"/>
          <path id="Path_829069" data-name="Path 829069" d="M65.243,62.99a9.5,9.5,0,0,1,3.864,3.784l18.481,2.1,9.826-2.1a43.315,43.315,0,0,1,1.7-8.3l4.556-14.725,4.442-15.893a4.538,4.538,0,0,0-4.371-5.759h-.014a4.538,4.538,0,0,0-4.265,2.988L95.109,37.049,98.095,16.7a4.538,4.538,0,1,0-8.98-1.317L85.936,37.049V12.037A4.538,4.538,0,0,0,81.4,7.5h-.1a4.538,4.538,0,0,0-4.538,4.538V37.049L73.634,17.794a4.538,4.538,0,0,0-4.479-3.81h-.116a4.538,4.538,0,0,0-4.5,5.15l3.271,24.052A8.866,8.866,0,0,1,66.194,49.6a1.382,1.382,0,0,1-2.331-.153l-3.357-6.164A4.9,4.9,0,1,0,52.1,48.3l4.33,6.645a23.752,23.752,0,0,0,8.818,8.041Z" transform="translate(-51.3 -7.499)" fill="#ffe6c2"/>
          <path id="Path_829070" data-name="Path 829070" d="M108.938,199.36a9.491,9.491,0,0,1,1.206,4.554l.041,1.084H137v-1.127a43.325,43.325,0,0,1,.241-4.51H108.938Z" transform="translate(-91.131 -140.085)" fill="#ffd3a3"/>
          <path id="Path_829071" data-name="Path 829071" d="M276.808,427.993h-28.8a2.545,2.545,0,0,1-2.545-2.545V396.335a2.545,2.545,0,0,1,2.545-2.545h28.8a2.545,2.545,0,0,1,2.545,2.545v29.114A2.545,2.545,0,0,1,276.808,427.993Z" transform="translate(-185.479 -274.447)" fill="#88bde7"/>
          <path id="Path_829072" data-name="Path 829072" d="M304.6,427.994h13.072a2.545,2.545,0,0,0,2.545-2.545V396.336a2.545,2.545,0,0,0-2.545-2.545H313.83C313.583,403.281,312.115,414.105,304.6,427.994Z" transform="translate(-226.346 -274.448)" fill="#5faee2"/>
          <path id="Path_829073" data-name="Path 829073" d="M209.172,239.172a9.5,9.5,0,0,1,3.864,3.784l18.482,2.1,9.826-2.1a43.318,43.318,0,0,1,1.7-8.3l4.556-14.725,4.442-15.893a4.538,4.538,0,0,0-4.371-5.759h-.014a4.538,4.538,0,0,0-4.265,2.988l-4.348,11.961,2.985-20.351a4.538,4.538,0,1,0-8.98-1.317l-3.179,21.669V188.219a4.538,4.538,0,0,0-4.538-4.538h-.1a4.538,4.538,0,0,0-4.538,4.538v25.012l-3.129-19.255a4.538,4.538,0,0,0-4.479-3.81h-.116a4.538,4.538,0,0,0-4.5,5.15l3.271,24.052a8.866,8.866,0,0,1-1.619,6.415,1.382,1.382,0,0,1-2.331-.153l-3.357-6.164a4.9,4.9,0,1,0-8.41,5.02l4.33,6.645a23.748,23.748,0,0,0,8.818,8.041Z" transform="translate(-150.763 -129.25)" fill="#ffe6c2"/>
          <path id="Path_829074" data-name="Path 829074" d="M252.867,375.542a9.491,9.491,0,0,1,1.206,4.554l.041,1.084h26.82v-1.127a43.334,43.334,0,0,1,.241-4.51H252.867Z" transform="translate(-190.594 -261.836)" fill="#ffd3a3"/>
        </g>
      </g>
      <path id="Path_829075" data-name="Path 829075" d="M173.515,26.581a6.863,6.863,0,0,0-9.4-1.474l.585-3.986a6.847,6.847,0,0,0-12.139-5.256,6.9,6.9,0,0,0-13.8.259v2.114a6.986,6.986,0,0,0-10.571-.138,6.852,6.852,0,0,0-1.629,5.433l3.271,24.052a6.524,6.524,0,0,1-.425,3.361l-2.55-4.683a7.218,7.218,0,1,0-12.386,7.393l1.606,2.464a6.841,6.841,0,0,0-2.354,5.167V63.4a6.983,6.983,0,0,0-10.571-.138,6.853,6.853,0,0,0-1.629,5.433l3.271,24.052a6.525,6.525,0,0,1-.425,3.361l-2.55-4.682a7.153,7.153,0,0,0-3.982-3.371V69.775A4.871,4.871,0,0,0,94.315,65.1a40.963,40.963,0,0,1,1.82-11.119l4.556-14.725c.006-.02.012-.041.018-.061L105.151,23.3a6.859,6.859,0,0,0-10.536-7.463l.585-3.986A6.847,6.847,0,0,0,83.06,6.6a6.905,6.905,0,0,0-13.8.258V8.969a6.984,6.984,0,0,0-10.571-.138,6.853,6.853,0,0,0-1.629,5.433l3.271,24.052a6.523,6.523,0,0,1-.425,3.361l-2.55-4.683a7.218,7.218,0,1,0-12.386,7.393l4.33,6.645a26.127,26.127,0,0,0,9.678,8.825,7.175,7.175,0,0,1,3.752,5.276,4.871,4.871,0,0,0-3.412,4.641V82.955a2.317,2.317,0,1,0,4.634,0V69.774a.228.228,0,0,1,.228-.228h28.8a.228.228,0,0,1,.228.228v18.25a7.3,7.3,0,0,0-1.379.629,7.213,7.213,0,0,0-2.391,10.164L93.2,104.6v48.715a.228.228,0,0,1-.228.228h-28.8a.228.228,0,0,1-.228-.228v-61.4a2.317,2.317,0,1,0-4.634,0v61.4a4.868,4.868,0,0,0,4.862,4.862h28.8a4.868,4.868,0,0,0,4.862-4.862V110.3a26.1,26.1,0,0,0,5.6,3.984,7.174,7.174,0,0,1,3.752,5.276,4.871,4.871,0,0,0-3.412,4.641v29.113a4.868,4.868,0,0,0,4.862,4.862h5.944a2.317,2.317,0,1,0,0-4.634h-5.944a.228.228,0,0,1-.228-.228V124.2a.228.228,0,0,1,.228-.228h28.8a.228.228,0,0,1,.228.228v29.113a.228.228,0,0,1-.228.228H123.546a2.317,2.317,0,1,0,0,4.634H162.48a4.867,4.867,0,0,0,4.862-4.862V79.043a4.87,4.87,0,0,0-3.522-4.674,40.962,40.962,0,0,1,1.82-11.119l.645-2.083a2.317,2.317,0,0,0-4.427-1.37l-.645,2.084a45.591,45.591,0,0,0-2.024,12.3h-9.53a6.871,6.871,0,0,0-10.58-3.912l.585-3.986a6.847,6.847,0,0,0-12.139-5.257,6.864,6.864,0,0,0-6.851-6.6h-.167l-2.154-3.306a2.584,2.584,0,1,1,4.434-2.646l3.357,6.164a3.7,3.7,0,0,0,6.239.408,11.134,11.134,0,0,0,2.042-8.091l-3.271-24.052a2.192,2.192,0,0,1,.528-1.76,2.3,2.3,0,0,1,3.981,1.1l3.129,19.255a2.317,2.317,0,0,0,4.6-.372V16.123a2.27,2.27,0,0,1,4.539,0V41.135a2.317,2.317,0,0,0,4.61.336L155.725,19.8a2.234,2.234,0,0,1,2.2-1.9,2.221,2.221,0,0,1,2.2,2.543L157.134,40.8a2.317,2.317,0,0,0,4.47,1.128l4.348-11.961a2.232,2.232,0,0,1,2.1-1.462,2.221,2.221,0,0,1,2.139,2.819L165.76,47.185l-1.24,4.006a2.317,2.317,0,1,0,4.427,1.37l1.249-4.036c.006-.02.012-.041.018-.061l4.441-15.893a6.8,6.8,0,0,0-1.141-5.99ZM67.37,64.912a11.8,11.8,0,0,0-6.234-9.154A21.488,21.488,0,0,1,53.178,48.5l-4.331-6.645a2.584,2.584,0,1,1,4.434-2.646l3.357,6.164a3.7,3.7,0,0,0,6.239.408,11.134,11.134,0,0,0,2.042-8.092L61.648,13.64a2.192,2.192,0,0,1,.528-1.76,2.3,2.3,0,0,1,3.981,1.1l3.129,19.255a2.317,2.317,0,0,0,4.6-.372V6.855a2.27,2.27,0,0,1,4.539,0V31.867a2.317,2.317,0,0,0,4.61.336l3.18-21.668a2.234,2.234,0,0,1,2.2-1.9,2.221,2.221,0,0,1,2.2,2.543L87.627,31.53a2.317,2.317,0,0,0,4.47,1.128L96.446,20.7a2.232,2.232,0,0,1,2.1-1.462,2.221,2.221,0,0,1,2.139,2.819L96.254,37.917,91.707,52.611a45.592,45.592,0,0,0-2.024,12.3H67.37Zm95.111,13.9a.228.228,0,0,1,.228.228v74.276a.228.228,0,0,1-.228.228H142.3q.005-.114.005-.228V124.2a4.87,4.87,0,0,0-3.522-4.674,40.954,40.954,0,0,1,1.82-11.119l4.556-14.725c.006-.02.012-.041.018-.061l4.139-14.811h13.167ZM122.9,61.286V86.3a2.317,2.317,0,0,0,4.61.336l3.179-21.669a2.233,2.233,0,0,1,2.2-1.9,2.221,2.221,0,0,1,2.2,2.543l-2.986,20.351a2.317,2.317,0,0,0,4.47,1.128l4.348-11.961a2.234,2.234,0,0,1,3.87-.584,2.2,2.2,0,0,1,.37,1.94L140.72,92.347l-4.547,14.694a45.59,45.59,0,0,0-2.024,12.3H111.835a11.8,11.8,0,0,0-6.234-9.153c-6.031-3.182-8.1-7.475-12.288-13.9a2.584,2.584,0,1,1,4.434-2.646L101.1,99.8a3.7,3.7,0,0,0,6.239.409,11.134,11.134,0,0,0,2.042-8.091l-3.271-24.052a2.192,2.192,0,0,1,.528-1.76,2.3,2.3,0,0,1,3.981,1.1l3.129,19.255a2.317,2.317,0,0,0,4.6-.372V61.286a2.271,2.271,0,0,1,4.54,0Z"/>
    </g>
  </g>
</svg>
