<svg xmlns="http://www.w3.org/2000/svg" width="154" height="154" viewBox="0 0 154 154">
  <g id="Group_1075367" data-name="Group 1075367" transform="translate(-385.5 -2058.299)">
    <g id="Group_159182" data-name="Group 159182" transform="translate(385.5 2058.299)">
      <path id="Union_12" data-name="Union 12" d="M77,0A77,77,0,1,1,0,77,77,77,0,0,1,77,0Z" transform="translate(0 0)" fill="#ffae7e"/>
    </g>
    <g id="Group_1077252" data-name="Group 1077252" transform="translate(378.903 2086.415)">
      <g id="Group_1077250" data-name="Group 1077250" transform="translate(46.802 1.498)">
        <circle id="Ellipse_5921" data-name="Ellipse 5921" cx="8.622" cy="8.622" r="8.622" transform="translate(0 38.798)" fill="#ffddcf"/>
        <path id="Path_829076" data-name="Path 829076" d="M200.9,45.213v.029a2.863,2.863,0,0,1-2.87,2.846H176.648c-1.563-.487-3.349-.966-5.376-1.437C122.558,35.325,152.68,10.1,152.68,10.1a34.607,34.607,0,0,1,12.3-2.248C184.818,7.853,200.9,24.581,200.9,45.213Z" transform="translate(-126.18 -7.853)" fill="#eaaa83"/>
        <path id="Path_829077" data-name="Path 829077" d="M104.1,57.619H70.791a2.863,2.863,0,0,1-2.87-2.846v-.029c0-16.14,9.842-29.891,23.627-35.112-3.475,7.428-6.83,21.375,12.3,27.929C111.745,50.268,110.2,53.882,104.1,57.619Z" transform="translate(-65.048 -17.385)" fill="#e4996d"/>
        <circle id="Ellipse_5922" data-name="Ellipse 5922" cx="8.622" cy="8.622" r="8.622" transform="translate(60.353 38.798)" fill="#ffcbbe"/>
        <path id="Path_829078" data-name="Path 829078" d="M209.623,364.664H185.33s-29.7-6.365-5.517-32.33a33.1,33.1,0,0,1,37.876,20.789A8.578,8.578,0,0,1,209.623,364.664Z" transform="translate(-147.912 -269.824)" fill="#c1e29a"/>
        <path id="Path_829079" data-name="Path 829079" d="M121.136,367.723H99.6a8.578,8.578,0,0,1-8.065-11.541,33.1,33.1,0,0,1,24.081-20.789C113.054,343.208,110.12,358.274,121.136,367.723Z" transform="translate(-83.718 -272.883)" fill="#6dc847"/>
        <path id="Path_829080" data-name="Path 829080" d="M184.408,120.969a32.606,32.606,0,0,1-2.254,11.964,31.493,31.493,0,0,1-8.993,12.562q-.764.65-1.573,1.241a29.506,29.506,0,0,1-6.111,3.466q-1,.421-2.029.765a28.949,28.949,0,0,1-8.831,1.494c-38.669-11.544-19.85-40.32-19.85-40.32a13.415,13.415,0,0,0,3.657-4.668c3.347-8.35,7.184-15,21.377-14.539,3.151.1,6.288.616,9.109-.857.6-.311,1.231-.674,1.889-1.1,1.063-.683,2.781-.172,2.817,1.13.344,12.188,7.636,14.527,8.521,16.863a34.494,34.494,0,0,1,2.269,12Z" transform="translate(-115.433 -74.868)" fill="#ffddcf"/>
        <path id="Path_829081" data-name="Path 829081" d="M128.605,243.473c-.128,0-.258,0-.387,0a29.22,29.22,0,0,1-17.854-6.1,30.976,30.976,0,0,1-6.149-6.306,31.8,31.8,0,0,1-3.92-7.124,32.607,32.607,0,0,1-2.254-11.964,21.023,21.023,0,0,1,.261-4.164c.708-3.159,6.734-2.788,8.361-3.334a7.167,7.167,0,0,0,2.092-1.33c-2.277,14.4.031,31.625,19.85,40.32Z" transform="translate(-89.42 -165.88)" fill="#ffcbbe"/>
        <g id="Group_1077249" data-name="Group 1077249" transform="translate(29.292 30.176)">
          <path id="Path_829082" data-name="Path 829082" d="M209.321,176.029a2.846,2.846,0,0,0,2.591-1.737,4.312,4.312,0,0,1,4.222-2.565,4.224,4.224,0,0,1,4.027,4.027,4.144,4.144,0,0,1-1.747,3.683,12.193,12.193,0,0,0-5.441,10.012l-.012,3.828a2.866,2.866,0,1,0,5.732,0v-1.917a10.194,10.194,0,0,1,3.635-7.755,10.017,10.017,0,1,0-15.761-11.441,2.8,2.8,0,0,0,2.605,3.861Z" transform="translate(-206.353 -165.97)" fill="#c1e29a"/>
          <circle id="Ellipse_5923" data-name="Ellipse 5923" cx="2.874" cy="2.874" r="2.874" transform="translate(6.632 35.924)" fill="#c1e29a"/>
        </g>
      </g>
      <g id="Group_1077251" data-name="Group 1077251" transform="translate(45.372 0)">
        <path id="Path_829083" data-name="Path 829083" d="M122.25,41.229a4.241,4.241,0,0,0,.707-2.342c0-29.809-31.253-48.712-56.217-33.52a1.431,1.431,0,0,0,1.488,2.446c23.044-14.022,51.867,3.474,51.867,31.073a1.43,1.43,0,0,1-1.439,1.416h-2.244a33.747,33.747,0,0,0-1.572-5.227,1.667,1.667,0,0,0-.7-.784c-2.775-1.932-7.47-6.526-7.726-15.593-.068-2.417-3-3.59-5.023-2.292-3.8,2.451-5.155,1.891-10.177,1.729-13.231-.429-18.439,4.681-22.752,15.435a11.72,11.72,0,0,1-4.91,5.187c-.8.2-4.484.235-6.933,1.545H52.546a1.43,1.43,0,0,1-1.439-1.414,36.5,36.5,0,0,1,12.44-27.655,1.431,1.431,0,0,0-1.875-2.163,39.359,39.359,0,0,0-13.427,29.82,4.239,4.239,0,0,0,.706,2.34,10.053,10.053,0,0,0,6.967,17.732,33.273,33.273,0,0,0,6.921,11.483A34.491,34.491,0,0,0,53.281,84.3,10.009,10.009,0,0,0,62.688,97.77H89.9a1.431,1.431,0,0,0,0-2.863H62.687a7.14,7.14,0,0,1-6.724-9.61,31.633,31.633,0,0,1,8.913-12.836,30.639,30.639,0,0,0,41.452,0A31.65,31.65,0,0,1,115.238,85.3a7.14,7.14,0,0,1-6.724,9.609H95.667a1.431,1.431,0,0,0,0,2.863h12.847A10.009,10.009,0,0,0,117.92,84.3a34.51,34.51,0,0,0-9.557-13.855,33.173,33.173,0,0,0,6.992-11.706l1.679-.179A9.8,9.8,0,0,0,122.25,41.229ZM51.353,43a9.614,9.614,0,0,0,2.928.169A34.653,34.653,0,0,0,55.05,56.1,7.2,7.2,0,0,1,51.353,43ZM109.24,64.707a28.021,28.021,0,0,1-46.487,1.136,30.7,30.7,0,0,1-5.9-18.243,20.215,20.215,0,0,1,.227-3.851c.417-1.86,6.46-1.916,7.484-2.314,2.375-.925,5.5-4.166,6.557-6.8,3.722-9.281,7.633-14.041,20-13.64,5.4.175,7.279.742,11.819-2.183a.656.656,0,0,1,.613,0c.236,8.035,3.793,14.151,8.768,17.7A31.243,31.243,0,0,1,109.24,64.707Zm7.491-9-.5.053a34.031,34.031,0,0,0,.679-12.6,9.931,9.931,0,0,0,2.94-.169,6.946,6.946,0,0,1-3.117,12.716Z" transform="translate(-45.372 0)"/>
        <path id="Path_829084" data-name="Path 829084" d="M209.607,158.471a11.463,11.463,0,0,0-10.612,7.079c-2.149,5.166,5.719,8.371,7.976,3.251a2.9,2.9,0,0,1,2.823-1.714,2.835,2.835,0,0,1,1.562,5.1,13.652,13.652,0,0,0-6.065,11.189l-.012,3.831a4.3,4.3,0,1,0,8.595.006V185.3A8.761,8.761,0,0,1,217,178.631,11.428,11.428,0,0,0,209.607,158.471Zm5.543,17.98a11.618,11.618,0,0,0-4.139,8.845v1.917a1.436,1.436,0,0,1-2.45,1.014c-.561-.562-.42-.794-.408-4.844a10.793,10.793,0,0,1,4.818-8.832,5.7,5.7,0,0,0-3.354-10.331,5.774,5.774,0,0,0-5.266,3.428c-.755,1.713-3.416.691-2.713-1a8.586,8.586,0,1,1,13.512,9.8Z" transform="translate(-169.378 -128.227)"/>
        <path id="Path_829085" data-name="Path 829085" d="M237.907,346.706a4.305,4.305,0,1,0,4.305,4.305A4.31,4.31,0,0,0,237.907,346.706Zm0,5.748a1.443,1.443,0,1,1,1.443-1.443A1.444,1.444,0,0,1,237.907,352.454Z" transform="translate(-197.679 -280.538)"/>
      </g>
    </g>
  </g>
</svg>
