<svg xmlns="http://www.w3.org/2000/svg" width="154" height="154" viewBox="0 0 154 154">
  <g id="Group_1077065" data-name="Group 1077065" transform="translate(-385.5 -2058.299)">
    <g id="Group_159182" data-name="Group 159182" transform="translate(385.5 2058.299)">
      <path id="Union_12" data-name="Union 12" d="M77,0A77,77,0,1,1,0,77,77,77,0,0,1,77,0Z" transform="translate(0 0)" fill="#ffae7e"/>
    </g>
    <g id="Group_1077271" data-name="Group 1077271" transform="translate(419.383 2082.089)">
      <g id="Group_1077266" data-name="Group 1077266">
        <g id="Group_1077254" data-name="Group 1077254" transform="translate(2.056 12.822)">
          <g id="Group_1077253" data-name="Group 1077253" transform="translate(0 0)">
            <ellipse id="Ellipse_5924" data-name="Ellipse 5924" cx="41.823" cy="41.82" rx="41.823" ry="41.82" transform="translate(0 0.084) rotate(-0.057)" fill="#e5ecec"/>
          </g>
        </g>
        <g id="Group_1077256" data-name="Group 1077256" transform="translate(12.239 22.99)">
          <g id="Group_1077255" data-name="Group 1077255">
            <path id="Path_829086" data-name="Path 829086" d="M95.359,182.973A31.677,31.677,0,0,1,76.095,126.14q.319-.245.645-.483a31.684,31.684,0,1,1,18.619,57.315Z" transform="translate(-63.67 -119.597)" fill="#7816c2"/>
          </g>
        </g>
        <g id="Group_1077257" data-name="Group 1077257" transform="translate(12.239 22.99)">
          <path id="Path_829087" data-name="Path 829087" d="M84.621,121.47a31.745,31.745,0,1,1-14.867,11.165" transform="translate(-63.67 -119.597)" fill="#7816c2"/>
        </g>
        <g id="Group_1077260" data-name="Group 1077260">
          <g id="Group_1077258" data-name="Group 1077258">
            <path id="Path_829088" data-name="Path 829088" fill="#f5737f"/>
          </g>
          <g id="Group_1077259" data-name="Group 1077259" transform="translate(23.39 27.132)">
            <path id="Path_829089" data-name="Path 829089" d="M123.6,144.986a1.921,1.921,0,1,1,1.886-1.546A1.937,1.937,0,0,1,123.6,144.986Z" transform="translate(-121.681 -141.147)"/>
          </g>
        </g>
        <g id="Group_1077262" data-name="Group 1077262" transform="translate(22.319 33.066)">
          <g id="Group_1077261" data-name="Group 1077261" transform="translate(0)">
            <ellipse id="Ellipse_5925" data-name="Ellipse 5925" cx="21.555" cy="21.556" rx="21.555" ry="21.556" transform="translate(0 43.111) rotate(-89.885)" fill="#e5ecec"/>
          </g>
        </g>
        <g id="Group_1077264" data-name="Group 1077264" transform="translate(58.519 66.605)">
          <g id="Group_1077263" data-name="Group 1077263">
            <path id="Path_829090" data-name="Path 829090" d="M306.348,350.332a1.921,1.921,0,1,1,1.9-1.621A1.94,1.94,0,0,1,306.348,350.332Z" transform="translate(-304.427 -346.494)"/>
          </g>
        </g>
        <g id="Group_1077265" data-name="Group 1077265" transform="translate(32.451 43.198)">
          <ellipse id="Ellipse_5926" data-name="Ellipse 5926" cx="11.423" cy="11.423" rx="11.423" ry="11.423" transform="translate(0 22.845) rotate(-89.771)" fill="#7816c2"/>
        </g>
      </g>
      <g id="Group_1077270" data-name="Group 1077270" transform="translate(0.184 0)">
        <g id="Group_1077267" data-name="Group 1077267" transform="translate(73.016 1.922)">
          <path id="Path_829091" data-name="Path 829091" d="M390.877,10,382.5,18.377a5.821,5.821,0,0,0-1.7,3.9l.19,10.662,10.8-10.812Z" transform="translate(-380.799 -10.001)" fill="#c1e29a"/>
        </g>
        <g id="Group_1077269" data-name="Group 1077269">
          <g id="Group_1077268" data-name="Group 1077268" transform="translate(73.205 14.051)">
            <path id="Path_829092" data-name="Path 829092" d="M404.71,74,392.58,73.1l-10.8,10.812,10.645.172a5.821,5.821,0,0,0,3.9-1.7Z" transform="translate(-381.785 -73.097)" fill="#c1e29a"/>
          </g>
          <path id="Path_829093" data-name="Path 829093" d="M98.889,14.29a1.922,1.922,0,0,0-1.659-1.248l-10.48-.784L85.966,1.779A1.922,1.922,0,0,0,82.69.564L74.314,8.94a7.717,7.717,0,0,0-2.263,5.192c0,.035,0,.07,0,.1l.114,6.418a43.79,43.79,0,1,0,6.268,6.2l6.343.1h.1a7.719,7.719,0,0,0,5.192-2.263l8.377-8.376a1.922,1.922,0,0,0,.443-2.028ZM77.032,11.658l5.413-5.413.529,7.071L76,20.3,75.9,14.225a3.884,3.884,0,0,1,1.137-2.567ZM44.7,94.576A39.9,39.9,0,1,1,71.323,24.984l-4.452,4.452a33.581,33.581,0,0,0-33.561-6.381,1.922,1.922,0,1,0,1.306,3.616A29.742,29.742,0,0,1,64.147,32.16l-4.46,4.459a23.473,23.473,0,1,0-4.319,38.97,1.922,1.922,0,1,0-1.752-3.422A19.38,19.38,0,0,1,44.7,74.311a19.633,19.633,0,1,1,12.255-34.96l-4.484,4.484a13.362,13.362,0,1,0,2.77,2.667l4.468-4.468A19.614,19.614,0,0,1,63.34,60.853a1.922,1.922,0,0,0,3.649,1.212,23.459,23.459,0,0,0-4.554-22.757l4.453-4.453a29.767,29.767,0,1,1-46.241,2.307,1.922,1.922,0,0,0-3.1-2.268,33.613,33.613,0,1,0,52.067-2.76l4.449-4.449A39.877,39.877,0,0,1,44.7,94.576Zm9.5-39.9A9.509,9.509,0,1,1,49.7,46.6l-6.131,6.131a1.922,1.922,0,1,0,2.718,2.718l6.2-6.2A9.447,9.447,0,0,1,54.2,54.678Zm33.149-32.7a3.886,3.886,0,0,1-2.569,1.137l-6.053-.1,3.693-3.693c.041-.041.08-.084.116-.128l3.156-3.161,7.07.529Z" transform="translate(-0.956 -0.001)"/>
        </g>
      </g>
    </g>
  </g>
</svg>
