<svg id="Group_1078427" data-name="Group 1078427" xmlns="http://www.w3.org/2000/svg" width="184.153" height="184.434" viewBox="0 0 184.153 184.434">
  <path id="Path_828750" data-name="Path 828750" d="M233.076,155.846,221.816,153.5h-11.5l-9.747,3.093a8.232,8.232,0,0,0-6.553,8.059l-1.512,8.886,23.564,3.952,23.564-3.952v-9.634A8.232,8.232,0,0,0,233.076,155.846Z" transform="translate(-123.987 -99.32)" fill="#6fbbc6"/>
  <path id="Path_828751" data-name="Path 828751" d="M215.879,157.582l-13.679,2.85a5.192,5.192,0,0,0-4.134,5.084v8.958l-5.566-.935v-9.634a8.231,8.231,0,0,1,6.554-8.06l11.259-2.345h5.474Z" transform="translate(-123.987 -99.32)" fill="#61aab8"/>
  <path id="Path_828752" data-name="Path 828752" d="M242.429,165.039,236.5,180.575l7.236,3.952,7.236-3.952-6.062-15.887Z" transform="translate(-151.659 -106.356)" fill="#f9f8f9"/>
  <path id="Path_828753" data-name="Path 828753" d="M246.252,142.457a5.752,5.752,0,0,1-5.752-5.752V126.5H252v10.205A5.752,5.752,0,0,1,246.252,142.457Z" transform="translate(-154.175 -82.34)" fill="#ffd18d"/>
  <g id="Group_1077131" data-name="Group 1077131" transform="translate(148.067)">
    <g id="Group_1077130" data-name="Group 1077130" transform="translate(13.034 16.973)">
      <path id="Path_828754" data-name="Path 828754" d="M442,53.238h10.02V215.592H442Z" transform="translate(-442.002 -53.238)" fill="#e8e8e8"/>
    </g>
    <path id="Path_828755" data-name="Path 828755" d="M438.588,474.5h-7.051l-6.415.407c-4.1,0-7.726,2.94-7.726,7.039l.036,2.132a1.113,1.113,0,0,0,1.113,1.113l5.942.442H444.9a1.113,1.113,0,0,0,1.113-1.113v-2.6A7.423,7.423,0,0,0,438.588,474.5Z" transform="translate(-413.493 -301.199)" fill="#e8e8e8"/>
    <path id="Path_828756" data-name="Path 828756" d="M431.346,474.5a7.42,7.42,0,0,0-7.422,7.422v3.711h-6.309a1.112,1.112,0,0,1-1.113-1.113v-2.6a7.42,7.42,0,0,1,7.422-7.422Z" transform="translate(-412.931 -301.199)" fill="#dcdbdd"/>
    <path id="Path_828757" data-name="Path 828757" d="M432.7,46.066,427.135,40.5l-3.352,6.234-13.359,63.1a1.484,1.484,0,0,0,.519,1.431l15.565,12.994a1.484,1.484,0,0,0,1.877,0l3.768-2.134,12.479-10.187a1.484,1.484,0,0,0,.519-1.431Z" transform="translate(-409.092 -28.254)" fill="#7816c2"/>
    <path id="Path_828758" data-name="Path 828758" d="M429.94,122.126l-4.078,3.332a1.487,1.487,0,0,1-1.878,0l-16.558-13.519a1.484,1.484,0,0,1-.52-1.432l12.45-64.44,5.566-5.566,2.308,2.308-.824.824-12.491,64.659a1.109,1.109,0,0,0,.39,1.072Z" transform="translate(-406.879 -28.254)" fill="#3f0868"/>
    <path id="Path_828759" data-name="Path 828759" d="M449.727,17.334a9.837,9.837,0,0,0-14.611-8.6s-1.19,1.31-1.843,1.971a9.06,9.06,0,0,0-2.59,6.682,8.772,8.772,0,0,0,9.21,9.171c3.724,0,6.6-1.537,8.267-4.589a10.14,10.14,0,0,1,.964-1.237A9.825,9.825,0,0,0,449.727,17.334Z" transform="translate(-421.85 -7.5)" fill="#f9f8f9"/>
    <path id="Path_828760" data-name="Path 828760" d="M448.067,22.829a9.836,9.836,0,1,1-14.008-12,9.836,9.836,0,0,0,14.008,12Z" transform="translate(-420.792 -9.596)" fill="#e8e8e8"/>
  </g>
  <path id="Path_828761" data-name="Path 828761" d="M235.933,274.11l-34.326-3.77-32.1,3.77v68.281h64.46l1.962-5.937V323.28l-5.752-15.333,5.752-14.354Z" transform="translate(-109.529 -172.802)" fill="#c6805d"/>
  <path id="Path_828762" data-name="Path 828762" d="M232.152,338.154v5.938l-33.693,5.349-34.96-5.349V324.98l3.652-15.029L163.5,295.293V275.81l2.969-2.767,2.969,2.767V336.67a1.484,1.484,0,0,0,1.484,1.484Z" transform="translate(-105.749 -174.502)" fill="#ba7052"/>
  <path id="Path_828763" data-name="Path 828763" d="M227.208,207.5H152.247l-3.6,1.433a1.856,1.856,0,0,0-1.855,1.855l.087,20.789a1.856,1.856,0,0,0,1.855,1.855l77.409.166a1.856,1.856,0,0,0,1.855-1.855l1.07-3.833V209.355A1.855,1.855,0,0,0,227.208,207.5Z" transform="translate(-95.238 -133.281)" fill="#c6805d"/>
  <path id="Path_828764" data-name="Path 828764" d="M227,227.91v4.824a1.856,1.856,0,0,1-1.855,1.855H145.355a1.856,1.856,0,0,1-1.855-1.855V209.355a1.856,1.856,0,0,1,1.855-1.855h4.824v18.555a1.856,1.856,0,0,0,1.855,1.855Z" transform="translate(-93.171 -133.281)" fill="#ba7052"/>
  <g id="Group_1077133" data-name="Group 1077133">
    <g id="Group_1077132" data-name="Group 1077132" transform="translate(13.034 16.973)">
      <path id="Path_828765" data-name="Path 828765" d="M43,53.238H53.02V215.592H43Z" transform="translate(-43 -53.238)" fill="#e8e8e8"/>
    </g>
    <path id="Path_828766" data-name="Path 828766" d="M39.586,474.5H32.535l-6.415.407c-4.1,0-7.726,2.94-7.726,7.039l.036,2.132a1.113,1.113,0,0,0,1.113,1.113l5.941.442h20.41a1.113,1.113,0,0,0,1.113-1.113v-2.6A7.422,7.422,0,0,0,39.586,474.5Z" transform="translate(-14.491 -301.199)" fill="#e8e8e8"/>
    <path id="Path_828767" data-name="Path 828767" d="M32.344,474.5a7.42,7.42,0,0,0-7.422,7.422v3.711H18.613A1.112,1.112,0,0,1,17.5,484.52v-2.6a7.42,7.42,0,0,1,7.422-7.422Z" transform="translate(-13.929 -301.199)" fill="#dcdbdd"/>
    <path id="Path_828768" data-name="Path 828768" d="M33.7,46.066,28.133,40.5l-3.352,6.234-13.359,63.1a1.484,1.484,0,0,0,.519,1.431l15.565,12.994a1.484,1.484,0,0,0,1.877,0l3.768-2.134L45.63,111.94a1.484,1.484,0,0,0,.519-1.431Z" transform="translate(-10.09 -28.254)" fill="#7816c2"/>
    <path id="Path_828769" data-name="Path 828769" d="M30.938,122.126l-4.078,3.332a1.487,1.487,0,0,1-1.878,0L8.424,111.939a1.484,1.484,0,0,1-.52-1.432l12.45-64.44L25.921,40.5l2.308,2.308-.824.824L14.914,108.291a1.109,1.109,0,0,0,.39,1.072Z" transform="translate(-7.877 -28.254)" fill="#3f0868"/>
    <path id="Path_828770" data-name="Path 828770" d="M50.725,17.334a9.837,9.837,0,0,0-14.611-8.6s-1.19,1.31-1.843,1.971a9.06,9.06,0,0,0-2.59,6.682,8.772,8.772,0,0,0,9.21,9.171c3.724,0,6.6-1.537,8.267-4.589a10.139,10.139,0,0,1,.964-1.237A9.817,9.817,0,0,0,50.725,17.334Z" transform="translate(-22.848 -7.5)" fill="#f9f8f9"/>
    <path id="Path_828771" data-name="Path 828771" d="M49.065,22.829a9.836,9.836,0,1,1-14.008-12,9.836,9.836,0,0,0,14.008,12Z" transform="translate(-21.79 -9.596)" fill="#e8e8e8"/>
  </g>
  <path id="Path_828772" data-name="Path 828772" d="M171.5,333h65.684v29.688H171.5Z" transform="translate(-110.78 -212.209)" fill="#ba7052"/>
  <path id="Path_828773" data-name="Path 828773" d="M163.5,333h5.938v29.688H163.5Z" transform="translate(-105.749 -212.209)" fill="#af644e"/>
  <path id="Path_828774" data-name="Path 828774" d="M241.071,333.193a23.2,23.2,0,0,0-37-18.635,16.372,16.372,0,0,1-1.29,1.4,22.443,22.443,0,0,0-7.394,17.23c0,12.809,9.519,22.246,22.329,22.246,6.1,0,11.6-1.824,15.74-5.669,1.046-.971,3.061-2.766,3.061-2.766A23.087,23.087,0,0,0,241.071,333.193Z" transform="translate(-125.801 -197.744)" fill="#ffae7e"/>
  <path id="Path_828775" data-name="Path 828775" d="M235.329,354.729a23.194,23.194,0,1,1-32.445-32.445,23.195,23.195,0,0,0,32.445,32.445Z" transform="translate(-124.616 -205.469)" fill="#ffd05b"/>
  <circle id="Ellipse_5914" data-name="Ellipse 5914" cx="12.061" cy="12.061" r="12.061" transform="translate(80.017 123.389)" fill="#f9f8f9"/>
  <circle id="Ellipse_5915" data-name="Ellipse 5915" cx="5.752" cy="5.752" r="5.752" transform="translate(61.276 38.594)" fill="#61aab8"/>
  <circle id="Ellipse_5916" data-name="Ellipse 5916" cx="5.752" cy="5.752" r="5.752" transform="translate(111.374 38.594)" fill="#61aab8"/>
  <path id="Path_828776" data-name="Path 828776" d="M227.288,464.5H153.07l-4.2,1.094a1.856,1.856,0,0,0-1.855,1.855l-.095,8.717a1.856,1.856,0,0,0,1.855,1.855l77.922.3a1.856,1.856,0,0,0,1.855-1.855l.6-4.544v-5.566a1.855,1.855,0,0,0-1.855-1.855Z" transform="translate(-95.319 -294.91)" fill="#c6805d"/>
  <path id="Path_828777" data-name="Path 828777" d="M227,471.922v5.566a1.856,1.856,0,0,1-1.855,1.855H145.355a1.856,1.856,0,0,1-1.855-1.855V466.355a1.856,1.856,0,0,1,1.855-1.855h5.566v5.938a1.484,1.484,0,0,0,1.484,1.484Z" transform="translate(-93.171 -294.91)" fill="#ba7052"/>
  <g id="Group_1077134" data-name="Group 1077134" transform="translate(79.089 21.895)">
    <path id="Path_828778" data-name="Path 828778" d="M248.367,79.488a12.993,12.993,0,0,0-19.179-11.421,37.072,37.072,0,0,0-4.042,4.309,12.063,12.063,0,0,0-1.934,7.217c0,7.173,4.995,11.708,12.168,11.708,4.923,0,11.409-5.6,11.409-5.6A12.93,12.93,0,0,0,248.367,79.488Z" transform="translate(-222.391 -66.5)" fill="#ffd18d"/>
    <path id="Path_828779" data-name="Path 828779" d="M245.4,88.359a12.99,12.99,0,1,1-17.6-17.634,12.984,12.984,0,0,0,17.6,17.634Z" transform="translate(-221.001 -69.157)" fill="#fbbd80"/>
  </g>
</svg>
