<svg xmlns="http://www.w3.org/2000/svg" width="154" height="154" viewBox="0 0 154 154">
  <g id="Group_1077067" data-name="Group 1077067" transform="translate(-385.5 -2058.299)">
    <g id="Group_159182" data-name="Group 159182" transform="translate(385.5 2058.299)">
      <path id="Union_12" data-name="Union 12" d="M77,0A77,77,0,1,1,0,77,77,77,0,0,1,77,0Z" transform="translate(0 0)" fill="#ffae7e"/>
    </g>
    <g id="Group_1077274" data-name="Group 1077274" transform="translate(413.118 2085.916)">
      <g id="Group_1077273" data-name="Group 1077273" transform="translate(1.929 1.93)">
        <path id="Path_829102" data-name="Path 829102" d="M12.163,219.088c7.093,19.3,22.629,40.539,37.3,36.609,11.416-3.059,15.662-19.587,15.33-36.318-7.694-2.473-11.991-11.253-13.744-21.962A75.266,75.266,0,0,0,34.507,199.9c-9.056,2.426-19.29,7.192-24.507,12.408C10.59,214.508,11.316,216.784,12.163,219.088Z" transform="translate(-10 -161.264)" fill="#d5fff5"/>
        <path id="Path_829103" data-name="Path 829103" d="M218.823,46.154c1.753,10.708,6.049,19.486,13.742,21.96v0q.326.105.661.195c16.417,4.4,33.924-22.739,39.458-43.391-5.216-5.216-15.45-9.981-24.507-12.408S227.875,9.095,220.75,11c-.555,2.071-1.038,4.258-1.442,6.523a88.379,88.379,0,0,0-.487,28.627Z" transform="translate(-177.777 -10.001)" fill="#c1e29a"/>
      </g>
      <path id="Path_829104" data-name="Path 829104" d="M98.2,15.485c-6.16-6.16-17.517-10.8-25.371-12.907A76.212,76.212,0,0,0,53.971,0,37.537,37.537,0,0,0,44.4,1.07a1.929,1.929,0,0,0-1.364,1.364c-.566,2.114-1.052,4.322-1.457,6.586a1.891,1.891,0,0,0-.035.2,92.756,92.756,0,0,0-.789,27.037A77.871,77.871,0,0,0,25.936,38.7C18.083,40.8,6.726,45.447.565,51.607a1.929,1.929,0,0,0-.5,1.863c.616,2.3,1.367,4.642,2.232,6.991l0,.009A92.567,92.567,0,0,0,14.5,83.239c5.3,7.083,13.634,15.527,23.286,15.527a15.86,15.86,0,0,0,4.1-.54C47.777,96.647,52.4,91.728,55.267,84c2.179-5.882,3.339-13.286,3.392-21.53a15.87,15.87,0,0,0,2.324.173c9.652,0,17.99-8.444,23.286-15.527A92.281,92.281,0,0,0,98.7,17.348,1.929,1.929,0,0,0,98.2,15.485ZM40.888,94.5a12.009,12.009,0,0,1-3.106.408c-6.285,0-13.457-4.964-20.2-13.979A88.178,88.178,0,0,1,6.393,60.395c1.04-.807,2.7-2.061,4.425-3.224a1.929,1.929,0,0,0-2.158-3.2c-1.336.9-2.618,1.84-3.634,2.608q-.5-1.511-.929-3.007C8.9,49.255,17.881,44.852,26.935,42.427a73.788,73.788,0,0,1,14.436-2.341A47.578,47.578,0,0,0,43.856,48.8l.014.036q.15.372.3.736l.017.04a31.381,31.381,0,0,0,1.738,3.468l.025.043.007.011c.036.062.071.125.107.186.077.128.157.251.235.377.051.081.1.163.152.243q.163.257.331.506.081.121.163.24c.114.166.229.331.346.492.049.067.1.133.147.2.126.17.253.34.382.5l.043.053c.254.322.514.63.779.929a6.176,6.176,0,0,1-10.188-.752,1.929,1.929,0,1,0-3.341,1.929A10.035,10.035,0,0,0,51.485,59.49a16.327,16.327,0,0,0,1.96,1.243l.084.046c.177.094.356.184.537.271l.15.072q.26.123.525.236l.064.029C54.87,75.817,51.269,91.718,40.888,94.5ZM81.179,44.806c-6.74,9.015-13.912,13.979-20.2,13.979a12.007,12.007,0,0,1-3.106-.408c-.187-.05-.371-.106-.553-.165l-.017-.006C48.965,55.524,45.94,44.252,44.879,37.771c0-.014-.006-.028-.009-.042q-.029-.175-.056-.346a86.823,86.823,0,0,1,.315-26.221c1.3-.178,3.369-.434,5.447-.58a1.929,1.929,0,1,0-.269-3.849c-1.6.112-3.173.283-4.435.44.189-.891.39-1.771.607-2.635a36.44,36.44,0,0,1,7.493-.679A72.178,72.178,0,0,1,71.83,6.3c9.054,2.426,18.031,6.83,22.838,11.148A88.478,88.478,0,0,1,81.179,44.806Z" transform="translate(0)"/>
      <path id="Path_829105" data-name="Path 829105" d="M354.893,134.023a1.929,1.929,0,1,0,3.341,1.929,6.18,6.18,0,0,1,10.7,0,1.929,1.929,0,1,0,3.341-1.929,10.037,10.037,0,0,0-17.386,0Z" transform="translate(-286.225 -104.118)"/>
      <path id="Path_829106" data-name="Path 829106" d="M252.763,102.72a1.929,1.929,0,1,0,3.858,0,10.038,10.038,0,0,0-15.057-8.693,1.929,1.929,0,0,0,1.929,3.341,6.18,6.18,0,0,1,9.27,5.352Z" transform="translate(-194.188 -74.806)"/>
      <path id="Path_829107" data-name="Path 829107" d="M289.92,209.332a6.18,6.18,0,0,1-10.339-2.77,1.929,1.929,0,1,0-3.726,1,10.04,10.04,0,0,0,16.794,4.5,1.929,1.929,0,1,0-2.728-2.728Z" transform="translate(-222.589 -165.561)"/>
      <path id="Path_829108" data-name="Path 829108" d="M74.425,301.258h0a1.929,1.929,0,0,0-1.929,1.929,6.18,6.18,0,0,1-9.27,5.352A1.929,1.929,0,0,0,61.3,311.88a10.038,10.038,0,0,0,15.057-8.693A1.929,1.929,0,0,0,74.425,301.258Z" transform="translate(-48.694 -243.144)"/>
      <path id="Path_829109" data-name="Path 829109" d="M158.483,400.735a10.065,10.065,0,0,0-7.1,7.1,1.929,1.929,0,1,0,3.726,1,6.18,6.18,0,0,1,10.339-2.77,1.929,1.929,0,1,0,2.728-2.728A10.066,10.066,0,0,0,158.483,400.735Z" transform="translate(-122.129 -323.158)"/>
      <path id="Path_829110" data-name="Path 829110" d="M281.431,38.864l.092.014a1.929,1.929,0,0,0,.61-3.809l-.144-.022a1.929,1.929,0,1,0-.558,3.817Z" transform="translate(-225.811 -28.268)"/>
      <path id="Path_829111" data-name="Path 829111" d="M66.992,267.74a1.924,1.924,0,0,0,.714-.138l.078-.03a1.929,1.929,0,1,0-1.363-3.609l-.145.056a1.929,1.929,0,0,0,.716,3.721Z" transform="translate(-52.512 -212.942)"/>
    </g>
  </g>
</svg>
