<svg xmlns="http://www.w3.org/2000/svg" width="154" height="154" viewBox="0 0 154 154">
  <g id="Group_1077068" data-name="Group 1077068" transform="translate(-385.5 -2058.299)">
    <g id="Group_159182" data-name="Group 159182" transform="translate(385.5 2058.299)">
      <path id="Union_12" data-name="Union 12" d="M77,0A77,77,0,1,1,0,77,77,77,0,0,1,77,0Z" transform="translate(0 0)" fill="#ffae7e"/>
    </g>
    <g id="Page-1" transform="translate(417.488 2090.289)">
      <g id="_039---Positive-Interactions" data-name="039---Positive-Interactions" transform="translate(-0.001 -0.02)">
        <g id="Icons_copy" transform="translate(1.5 1.519)">
          <path id="Shape" d="M60.011,37.506a23.281,23.281,0,0,1-.465,4.606,22.827,22.827,0,0,1-3.016,7.412,21.81,21.81,0,0,1-3.376,4.126v.015a22.486,22.486,0,0,1-11.043,5.881,23.282,23.282,0,0,1-4.606.465A22.513,22.513,0,0,1,15,37.506a23.281,23.281,0,0,1,.465-4.606A22.642,22.642,0,0,1,32.9,15.465,23.281,23.281,0,0,1,37.506,15,22.513,22.513,0,0,1,60.011,37.506Z" transform="translate(6.007 6.018)" fill="#c1e29a"/>
          <path id="Shape-2" data-name="Shape" d="M30.757,15c-.75,0-1.5.042-2.233.114A22.518,22.518,0,0,1,48.761,37.506a23.281,23.281,0,0,1-.465,4.606,22.827,22.827,0,0,1-3.016,7.412A21.811,21.811,0,0,1,41.9,53.649v.015a22.486,22.486,0,0,1-11.043,5.881c-.776.15-1.569.272-2.374.351.75.074,1.5.114,2.269.114a23.281,23.281,0,0,0,4.606-.465,22.486,22.486,0,0,0,11.043-5.881v-.015a21.811,21.811,0,0,0,3.376-4.126A22.826,22.826,0,0,0,52.8,42.112a23.282,23.282,0,0,0,.465-4.606A22.513,22.513,0,0,0,30.757,15Z" transform="translate(12.755 6.018)" fill="#549414"/>
          <circle id="Oval" cx="9.002" cy="9.002" r="9.002" transform="translate(10.504 6.014)" fill="#ffe0b2"/>
          <path id="Shape-3" data-name="Shape" d="M14.751,5a8.977,8.977,0,0,0-2.251.3,8.99,8.99,0,0,1,0,17.413A9,9,0,1,0,14.751,5Z" transform="translate(4.756 1.014)" fill="#dfc49c"/>
          <path id="Shape-4" data-name="Shape" d="M40.01,20.509a17.071,17.071,0,0,1-.105,1.965,22.369,22.369,0,0,0-10.157,5.071,8.876,8.876,0,0,0-6.242-2.536h-3a9,9,0,1,0-9-9,9,9,0,0,0,9,9h-3a9,9,0,0,0-9,9v1.86A19.5,19.5,0,1,1,40.01,20.509Z" transform="translate(-0.999 -0.992)" fill="#d5fff5"/>
          <path id="Shape-5" data-name="Shape" d="M14.751,1a19.553,19.553,0,0,0-2.251.14A19.5,19.5,0,0,1,29.754,20.5a17.069,17.069,0,0,1-.105,1.965,22.415,22.415,0,0,0-8.024,3.422,8.813,8.813,0,0,1,2.368,1.65A22.369,22.369,0,0,1,34.15,22.472a17.07,17.07,0,0,0,.105-1.967A19.5,19.5,0,0,0,14.751,1Z" transform="translate(4.756 -0.988)" fill="#00838f"/>
          <path id="Shape-6" data-name="Shape" d="M27.245,19.536A22.4,22.4,0,0,0,19.968,31.9,17.07,17.07,0,0,1,18,32,19.355,19.355,0,0,1,6,27.863V26a9,9,0,0,1,9-9h6A8.876,8.876,0,0,1,27.245,19.536Z" transform="translate(1.503 7.018)" fill="#7816c2"/>
          <path id="Shape-7" data-name="Shape" d="M17.84,17h-4.5a8.876,8.876,0,0,1,6.242,2.536,22.384,22.384,0,0,0-7.257,12.29A19.59,19.59,0,0,0,14.839,32,17.071,17.071,0,0,0,16.8,31.9a22.4,22.4,0,0,1,7.277-12.363A8.876,8.876,0,0,0,17.84,17Z" transform="translate(4.667 7.018)" fill="#430870"/>
          <path id="Shape-8" data-name="Shape" d="M52.5,53.118h-3a9,9,0,0,0-9,9v1.86A19.449,19.449,0,0,1,33,48.617a17.068,17.068,0,0,1,.105-1.965A22.486,22.486,0,0,0,44.148,40.77a8.852,8.852,0,0,0-.645,3.346A9,9,0,0,0,52.5,53.118Z" transform="translate(15.013 18.912)" fill="#d5fff5"/>
          <path id="Shape-9" data-name="Shape" d="M58,46a9,9,0,0,1-18,0,8.852,8.852,0,0,1,.645-3.346v-.015a21.811,21.811,0,0,0,3.376-4.126A8.873,8.873,0,0,1,49,37a9,9,0,0,1,9,9Z" transform="translate(18.516 17.026)" fill="#ffe0b2"/>
          <path id="Shape-10" data-name="Shape" d="M46.751,37a8.87,8.87,0,0,0-2.228.3A8.99,8.99,0,0,1,44.5,54.7,9,9,0,1,0,46.751,37Z" transform="translate(20.767 17.026)" fill="#dfc49c"/>
          <path id="Shape-11" data-name="Shape" d="M67.166,52.5a19.449,19.449,0,0,1-7.5,15.364v-1.86a9,9,0,0,0-9-9h-3a9,9,0,0,0,0-18,8.873,8.873,0,0,0-4.981,1.515A22.826,22.826,0,0,0,45.7,33.105,17.069,17.069,0,0,1,47.661,33a19.5,19.5,0,0,1,19.5,19.5Z" transform="translate(19.857 15.024)" fill="#d5fff5"/>
          <path id="Shape-12" data-name="Shape" d="M46.662,33a17.068,17.068,0,0,0-1.965.105.346.346,0,0,1-.02.075,19.458,19.458,0,0,1,13.61,30.259,8.968,8.968,0,0,1,.378,2.569v1.86A19.5,19.5,0,0,0,46.662,33Z" transform="translate(20.856 15.024)" fill="#00838f"/>
          <path id="Shape-13" data-name="Shape" d="M62.006,58v1.86a19.466,19.466,0,0,1-24.006,0V58a9,9,0,0,1,9-9h6a9,9,0,0,1,9,9Z" transform="translate(17.515 23.03)" fill="#48cfaf"/>
          <path id="Shape-14" data-name="Shape" d="M49.751,49h-4.5a9,9,0,0,1,9,9v1.86A19.328,19.328,0,0,1,44.5,63.854a19.551,19.551,0,0,0,2.251.15,19.355,19.355,0,0,0,12-4.141V58A9,9,0,0,0,49.751,49Z" transform="translate(20.767 23.03)" fill="#158b6f"/>
        </g>
        <g id="Icons">
          <path id="Shape-15" data-name="Shape" d="M40.437,26.433,29.495,37.376l-1.94-1.94a1.5,1.5,0,0,0-2.122,2.122l3,3a1.5,1.5,0,0,0,2.122,0l12-12a1.5,1.5,0,0,0-2.122-2.122Z" transform="translate(11.016 11.546)"/>
          <path id="Shape-16" data-name="Shape" d="M70.017,49.022h-.209a23.856,23.856,0,0,0-26.8-26.8v-.209A21.005,21.005,0,1,0,8.934,38.429c.024.026.059.039.084.063a20.975,20.975,0,0,0,6.369,3.451c.03.014.062.023.093.035a20.909,20.909,0,0,0,6.525,1.043h.209a23.856,23.856,0,0,0,26.8,26.8v.209a20.968,20.968,0,0,0,7.934,16.414c.024.026.059.039.084.063A20.975,20.975,0,0,0,63.4,89.955c.03.013.062.022.093.035a20.8,20.8,0,0,0,13.053,0c.032-.012.063-.021.093-.035A20.949,20.949,0,0,0,83.006,86.5c.027-.024.062-.038.086-.063A20.986,20.986,0,0,0,70.017,49.022Zm0,24.006a7.464,7.464,0,0,1-7.052-10.034,24.072,24.072,0,0,0,3.1-3.823,7.386,7.386,0,0,1,3.952-1.146,7.5,7.5,0,1,1,0,15ZM4,22.015a18,18,0,0,1,36.009,0c0,.281-.009.54-.02.8a23.9,23.9,0,0,0-8.716,4.306,10.259,10.259,0,0,0-2.657-1.448,10.5,10.5,0,1,0-13.22,0,10.519,10.519,0,0,0-6.776,8.35A17.914,17.914,0,0,1,4,22.015Zm10.5-4.5a7.5,7.5,0,1,1,7.5,7.5A7.5,7.5,0,0,1,14.5,17.514Zm7.5,22.506a17.893,17.893,0,0,1-4.5-.593V35.519a1.5,1.5,0,0,0-3,0v2.851a18,18,0,0,1-3-1.752v-1.1a7.511,7.511,0,0,1,7.5-7.5h6a7.386,7.386,0,0,1,3.947,1.139A23.986,23.986,0,0,0,22.8,40C22.544,40.011,22.285,40.02,22.006,40.02Zm3,6A21.005,21.005,0,1,1,46.011,67.026,21.005,21.005,0,0,1,25.006,46.021ZM52.013,70.027c0-.281.009-.54.02-.8a23.844,23.844,0,0,0,7.5-3.391,10.485,10.485,0,0,0,3.881,7.838,10.519,10.519,0,0,0-6.782,8.351A17.914,17.914,0,0,1,52.013,70.027Zm13.5,17.4v-3.9a1.5,1.5,0,1,0-3,0v2.851a18,18,0,0,1-3-1.752v-1.1a7.511,7.511,0,0,1,7.5-7.5h6a7.511,7.511,0,0,1,7.5,7.5v1.091a18,18,0,0,1-3,1.76V83.53a1.5,1.5,0,0,0-3,0v3.9a17.389,17.389,0,0,1-9,0ZM83.4,82.03a10.519,10.519,0,0,0-6.782-8.351,10.5,10.5,0,0,0-6.6-18.656,10.342,10.342,0,0,0-1.832.179,23.948,23.948,0,0,0,1.037-3.16c.257-.011.516-.02.8-.02A17.974,17.974,0,0,1,83.4,82.03Z" transform="translate(-0.999 -0.98)"/>
          <path id="Shape-17" data-name="Shape" d="M39.062,2.44a1.5,1.5,0,0,0-2.122,0l-4.5,4.5a1.5,1.5,0,0,0,0,2.122l4.5,4.5a1.5,1.5,0,0,0,2.122-2.122L37.2,9.575A36.051,36.051,0,0,1,71.009,45.511a1.5,1.5,0,0,0,3,0A39.058,39.058,0,0,0,37.067,6.557l2-2a1.5,1.5,0,0,0,0-2.122Z" transform="translate(14.513 -0.469)"/>
          <path id="Shape-18" data-name="Shape" d="M5,31.5a1.5,1.5,0,1,0-3,0A39.058,39.058,0,0,0,38.944,70.454l-2,2a1.5,1.5,0,1,0,2.122,2.122l4.5-4.5a1.5,1.5,0,0,0,0-2.122l-4.5-4.5a1.5,1.5,0,0,0-2.122,2.122l1.866,1.866A36.051,36.051,0,0,1,5,31.5Z" transform="translate(-0.498 13.541)"/>
        </g>
      </g>
    </g>
  </g>
</svg>
