<svg xmlns="http://www.w3.org/2000/svg" width="154" height="154" viewBox="0 0 154 154">
  <g id="Group_1077069" data-name="Group 1077069" transform="translate(-385.5 -2058.299)">
    <g id="Group_159182" data-name="Group 159182" transform="translate(385.5 2058.299)">
      <path id="Union_12" data-name="Union 12" d="M77,0A77,77,0,1,1,0,77,77,77,0,0,1,77,0Z" transform="translate(0 0)" fill="#ffae7e"/>
    </g>
    <g id="Group_1077280" data-name="Group 1077280" transform="translate(417.491 2090.502)">
      <g id="Group_1077275" data-name="Group 1077275" transform="translate(8.758 8.418)">
        <path id="Path_829112" data-name="Path 829112" d="M64.173,312.4l2.431-1.783,4.937,2.847-.328,3.018,1.838,3.184,2.778,1.227v5.7l-2.778,1.227L71.214,331l.328,3.018L66.6,336.862l-2.431-1.783H60.49l-2.431,1.783-4.937-2.847L53.449,331l-1.838-3.185-2.778-1.227v-5.7l2.778-1.227,1.838-3.184-.328-3.018,4.937-2.847L60.49,312.4Z" transform="translate(-48.834 -264.673)" fill="#7816c2"/>
        <path id="Path_829113" data-name="Path 829113" d="M325.661,49.887l2.431-1.783,4.937,2.847-.328,3.018,1.838,3.185,2.778,1.227v5.7L334.54,65.3,332.7,68.489l.328,3.018-4.937,2.847-2.431-1.783h-3.683l-2.431,1.783-4.937-2.847.328-3.018L313.1,65.3l-2.778-1.227v-5.7l2.778-1.227,1.837-3.185-.328-3.018,4.937-2.847,2.431,1.783Z" transform="translate(-264.561 -48.104)" fill="#a7eed4"/>
        <path id="Path_829114" data-name="Path 829114" d="M321.608,71.347l-5.434-8.241V59.354l5.434-8.241v-1.5L319.546,48.1l-4.937,2.847.328,3.018L313.1,57.155l-2.778,1.227v5.7l2.778,1.227,1.838,3.185-.328,3.018,4.937,2.847,2.062-1.512v-1.5Z" transform="translate(-264.56 -48.105)" fill="#71e4bf"/>
        <path id="Path_829115" data-name="Path 829115" d="M60.12,333.855l-5.434-8.241v-3.752l5.434-8.241v-1.5l-2.062-1.512-4.938,2.847.328,3.018-1.838,3.185-2.778,1.227v5.7l2.778,1.227L53.448,331l-.328,3.018,4.937,2.847,2.062-1.512v-1.5Z" transform="translate(-48.833 -264.673)" fill="#41086d"/>
      </g>
      <g id="Group_1077276" data-name="Group 1077276" transform="translate(0.257 0)">
        <path id="Path_829116" data-name="Path 829116" d="M95.225,315.679l1.615,2.069,4.565-3.565v7.78c.131,15.383-16.806,25.5-30.267,18.127L69.9,342.4c15.186,8.313,34.28-3.1,34.134-20.44,0,0,0-7.84,0-7.84l4.642,3.624,1.616-2.069-7.532-5.881Z" transform="translate(-57.71 -255.583)"/>
        <path id="Path_829117" data-name="Path 829117" d="M226.473,29.439l-1.616-2.069-4.6,3.595V23.443c-.019-15.55,17.35-26.059,30.8-18.077l1.308-2.276c-15.4-8.965-34.74,2.716-34.729,20.353v7.521l-4.6-3.595-1.615,2.069,7.532,5.881Z" transform="translate(-174.458 0)"/>
        <path id="Path_829118" data-name="Path 829118" d="M52.46,330.747l2.748-2.024h2.832l2.748,2.024,6.429-3.7-.375-3.469,1.405-2.439,3.188-1.415v-7.4l-3.188-1.415-1.405-2.439.375-3.469-6.429-3.7-2.756,2.031H55.216L52.46,301.31l-6.429,3.7.375,3.469L45,310.914l-3.188,1.415v7.4L45,321.143l1.405,2.439-.375,3.469Zm-8.023-12.726v-3.986l2.41-1.07,2.26-3.922-.283-2.616,3.458-1.987,2.071,1.526h4.54l2.071-1.526,3.457,1.987-.283,2.616,2.26,3.923,2.41,1.07v3.986l-2.41,1.07-2.26,3.922.283,2.616-3.458,1.987L58.9,326.1H54.344l-2.062,1.52-3.458-1.987.283-2.616-2.26-3.922Z" transform="translate(-34.54 -248.58)"/>
        <path id="Path_829119" data-name="Path 829119" d="M321.786,39.309l-2.756,2.031h-2.814l-2.756-2.031L307.03,43l.375,3.469L306,48.913l-3.189,1.415v7.4L306,59.142l1.405,2.439-.375,3.469,6.429,3.7,2.748-2.024h2.832l2.748,2.024,6.429-3.7-.375-3.469,1.405-2.439,3.189-1.415v-7.4l-3.189-1.415-1.405-2.439L328.214,43Zm8.023,12.726V56.02l-2.41,1.07-2.26,3.922.282,2.616-3.457,1.988L319.9,64.1h-4.557l-2.062,1.52-3.457-1.987.282-2.616-2.26-3.922-2.411-1.07V52.035l2.41-1.07,2.26-3.922-.282-2.616,3.457-1.987,2.071,1.526h4.54l2.071-1.526,3.457,1.987-.282,2.616,2.26,3.922Z" transform="translate(-249.863 -32.43)"/>
        <path id="Path_829120" data-name="Path 829120" d="M80.481,26.854l-1.571,2.1A20.659,20.659,0,0,1,87.178,45.57,20.449,20.449,0,0,1,66.653,65.715H23.45c-22.744.139-31.715,28.62-13.339,41.877l1.51-2.147A20.6,20.6,0,0,1,2.866,88.614,20.213,20.213,0,0,1,23.45,68.34h43.2C88.953,68.178,98.152,40.223,80.481,26.854Z" transform="translate(-0.257 -22.154)"/>
      </g>
      <g id="Group_1077279" data-name="Group 1077279" transform="translate(18.319 20.231)">
        <g id="Group_1077277" data-name="Group 1077277" transform="translate(45.761)">
          <path id="Path_829121" data-name="Path 829121" d="M364.951,115.6h2.625v2.625h-2.625Z" transform="translate(-364.951 -115.604)" fill="#fff"/>
          <path id="Path_829122" data-name="Path 829122" d="M394.951,115.6h2.625v2.625h-2.625Z" transform="translate(-389.701 -115.604)" fill="#fff"/>
        </g>
        <g id="Group_1077278" data-name="Group 1077278" transform="translate(0 45.94)">
          <path id="Path_829123" data-name="Path 829123" d="M103.463,378.113h2.625v2.625h-2.625Z" transform="translate(-103.463 -378.113)" fill="#fff"/>
          <path id="Path_829124" data-name="Path 829124" d="M133.463,378.113h2.625v2.625h-2.625Z" transform="translate(-128.213 -378.113)" fill="#fff"/>
        </g>
      </g>
    </g>
  </g>
</svg>
