<svg xmlns="http://www.w3.org/2000/svg" width="190" height="185.64" viewBox="0 0 190 185.64">
  <g id="Group_1078428" data-name="Group 1078428" transform="translate(0 0)">
    <path id="Path_828785" data-name="Path 828785" d="M228.469,249.673l-41.9-41.9a6.71,6.71,0,1,1,9.489-9.489L185.263,187.49a6.694,6.694,0,0,1-1.97-4.747,6.894,6.894,0,0,1,.086-1.074,6.7,6.7,0,0,1,10.736-4.221l-4.107-4.107a6.712,6.712,0,0,1-1.971-4.753,6.415,6.415,0,0,1,.09-1.092,6.713,6.713,0,0,1,11.373-3.647l4.7,4.7a6.71,6.71,0,1,1,9.489-9.489L240.922,186.3l.077-.109a12.27,12.27,0,0,1,17.369.013l12.7,12.7a13.031,13.031,0,0,1,3.815,9.195l.007,7.944a14.022,14.022,0,0,0,4.11,9.9l2.832,2.831-32.388,32.387-3.618-3.618a14.026,14.026,0,0,0-9-4.078,13.015,13.015,0,0,1-8.355-3.789Zm0,0" transform="translate(-115.274 -98.796)" fill="#fecbaa"/>
    <path id="Path_828786" data-name="Path 828786" d="M354.339,379.352l36.76-36.76a3.1,3.1,0,0,1,4.386,0l13.093,13.091a3.1,3.1,0,0,1,0,4.386l-36.761,36.762a3.1,3.1,0,0,1-4.386,0l-13.091-13.093a3.1,3.1,0,0,1,0-4.386Zm0,0" transform="translate(-222.274 -214.887)" fill="#ffae7e"/>
    <path id="Path_828787" data-name="Path 828787" d="M116.518,249.684l41.9-41.9a6.71,6.71,0,1,0-9.49-9.489L159.723,187.5a6.706,6.706,0,0,0-8.851-10.043l4.107-4.107a6.709,6.709,0,0,0,1.971-4.752,6.4,6.4,0,0,0-.09-1.092,6.685,6.685,0,0,0-5.552-5.532,6.709,6.709,0,0,0-5.822,1.883l-4.7,4.7a6.708,6.708,0,0,0,1.884-5.82,6.641,6.641,0,0,0-1.876-3.676,6.716,6.716,0,0,0-9.5.007l-27.233,27.233-.077-.107a12.27,12.27,0,0,0-17.369.013l-12.7,12.7a13.025,13.025,0,0,0-3.815,9.195l-.009,7.944a14.012,14.012,0,0,1-4.108,9.9l-2.832,2.831,32.387,32.387,3.62-3.618a14.026,14.026,0,0,1,9-4.078,13.029,13.029,0,0,0,8.355-3.789Zm0,0" transform="translate(-39.72 -98.802)" fill="#fecbaa"/>
    <path id="Path_828788" data-name="Path 828788" d="M62.643,379.362,25.882,342.6a3.1,3.1,0,0,0-4.386,0L8.4,355.693a3.1,3.1,0,0,0,0,4.386l36.761,36.76a3.1,3.1,0,0,0,4.386,0l13.093-13.091A3.1,3.1,0,0,0,62.643,379.362Zm0,0" transform="translate(-4.713 -214.892)" fill="#7816c2"/>
    <path id="Path_828789" data-name="Path 828789" d="M216.321,97.058V156.32a6.71,6.71,0,1,1-13.42,0v15.26a6.705,6.705,0,0,1-13.359.842v5.808a6.708,6.708,0,0,1-1.967,4.753,6.291,6.291,0,0,1-.835.709,6.712,6.712,0,0,1-10.621-5.462V171.58a6.709,6.709,0,1,1-13.419,0V133.066l-.13.023A12.273,12.273,0,0,1,150.3,120.8V102.84a13.034,13.034,0,0,1,3.8-9.2l5.611-5.621a14.022,14.022,0,0,0,4.1-9.909v-4h45.8v5.117a14.036,14.036,0,0,0,3.48,9.248,13.018,13.018,0,0,1,3.23,8.587Zm0,0" transform="translate(-94.523 -46.605)" fill="#fedfc5"/>
    <path id="Path_828790" data-name="Path 828790" d="M208.795,198.283a6.716,6.716,0,0,0-9.5.007L210.089,187.5a6.706,6.706,0,0,0-8.851-10.043l4.107-4.107a6.707,6.707,0,0,0,1.97-4.752,6.255,6.255,0,0,0-.09-1.092,6.713,6.713,0,0,0-11.372-3.649l-4.7,4.7a6.71,6.71,0,1,0-9.489-9.489l-27.233,27.233-.077-.107a12.224,12.224,0,0,0-11.113-3.34,18.006,18.006,0,0,0,9.454,7.151v33.768a12.29,12.29,0,0,0,14.674,12.053,12.3,12.3,0,0,0,7.119,6.249l34.3-34.3a6.708,6.708,0,0,0,.009-9.495Zm0,0" transform="translate(-90.084 -98.802)" fill="#ffae85"/>
    <path id="Path_828791" data-name="Path 828791" d="M242.627,208.512v-23.7a12.285,12.285,0,0,0-1.639,1.377l-.075.107-27.233-27.233a6.716,6.716,0,0,0-9.5-.007,6.716,6.716,0,0,0,.007,9.5l-4.7-4.7a6.707,6.707,0,0,0-11.373,3.649,6.4,6.4,0,0,0-.088,1.092A6.7,6.7,0,0,0,190,173.342l4.107,4.107a6.707,6.707,0,0,0-8.853,10.043l10.791,10.791a6.709,6.709,0,1,0-9.488,9.489l28.073,28.073a12.323,12.323,0,0,0,2.306.216,12.167,12.167,0,0,0,7.181-2.324,12.274,12.274,0,0,0,5.094-9.963v-3.025q.568.052,1.144.052a12.3,12.3,0,0,0,12.275-12.288Zm0,0" transform="translate(-115.267 -98.797)" fill="#ffae85"/>
    <path id="Path_828792" data-name="Path 828792" d="M216.321,97.058V156.32a6.711,6.711,0,0,1-6.71,6.72c-.1,0-.207,0-.316-.007a6.638,6.638,0,0,1-3.6-1.261s0,0-.009,0a6.707,6.707,0,0,1-2.783-5.448v15.26a6.705,6.705,0,0,1-13.359.842v5.808a6.708,6.708,0,0,1-1.967,4.753,6.291,6.291,0,0,1-.835.709,6.712,6.712,0,0,1-10.621-5.462V171.58a6.709,6.709,0,1,1-13.419,0V133.066l-.13.023A12.273,12.273,0,0,1,150.3,120.8V102.84a13.034,13.034,0,0,1,3.8-9.2l5.611-5.621a14.048,14.048,0,0,0,4.1-9.909v-4h45.8v5.117a12.642,12.642,0,0,0,.442,3.463,13.94,13.94,0,0,0,3.038,5.785,13.123,13.123,0,0,1,3.23,8.587Zm0,0" transform="translate(-94.523 -46.604)" fill="#fedfc5"/>
    <path id="Path_828793" data-name="Path 828793" d="M238.159,97.058V156.32a6.711,6.711,0,0,1-6.71,6.72c-.1,0-.207,0-.316-.007a6.638,6.638,0,0,1-3.6-1.261l.115-57.107a8.756,8.756,0,0,0-.223-1.584C224.862,90.608,214.333,82.25,201.6,82.25H185.02a13.973,13.973,0,0,0,.626-4.141v-4h45.8v5.117a12.642,12.642,0,0,0,.442,3.463,13.939,13.939,0,0,0,3.038,5.785,13.123,13.123,0,0,1,3.23,8.587Zm0,0" transform="translate(-116.36 -46.604)" fill="#fecbaa"/>
    <path id="Path_828794" data-name="Path 828794" d="M224.789,32.218H172.8a3.1,3.1,0,0,1-3.1-3.1V10.6a3.1,3.1,0,0,1,3.1-3.1h51.99a3.1,3.1,0,0,1,3.1,3.1V29.116A3.1,3.1,0,0,1,224.789,32.218Zm0,0" transform="translate(-106.725 -4.717)" fill="#83d9ff"/>
    <path id="Path_828795" data-name="Path 828795" d="M204.695,447.792l-.558,2.727.538-2.73a2.783,2.783,0,1,0-1.076,5.461l.051.01a2.838,2.838,0,0,0,.526.051,2.784,2.784,0,0,0,.519-5.519Zm0,0" transform="translate(-126.632 -281.584)"/>
    <path id="Path_828796" data-name="Path 828796" d="M263.455,450.271l.277,2.769-.286-2.767a2.783,2.783,0,0,0,.281,5.552c.1,0,.193-.006.288-.014l.077-.009a2.783,2.783,0,0,0-.638-5.53Zm0,0" transform="translate(-164.112 -283.168)"/>
    <path id="Path_828797" data-name="Path 828797" d="M234.03,451.235h-.041a2.768,2.768,0,0,0-2.885,2.657,2.8,2.8,0,0,0,2.673,2.9c.043,0,.086,0,.129,0a2.783,2.783,0,0,0,.123-5.563Zm0,0" transform="translate(-145.341 -283.781)"/>
    <path id="Path_828798" data-name="Path 828798" d="M176.317,439.967l-.035-.013a2.768,2.768,0,0,0-3.543,1.684,2.792,2.792,0,1,0,3.578-1.671Zm0,0" transform="translate(-108.534 -276.586)"/>
    <path id="Path_828799" data-name="Path 828799" d="M292.451,444.893l.686,2.7-.694-2.695a2.784,2.784,0,0,0,.691,5.479,2.755,2.755,0,0,0,.7-.09l.074-.019a2.783,2.783,0,0,0-1.454-5.374Zm0,0" transform="translate(-182.604 -279.739)"/>
    <path id="Path_828800" data-name="Path 828800" d="M320.271,435.189l1.1,2.554-1.112-2.551a2.783,2.783,0,1,0,2.222,5.1l.068-.03a2.783,2.783,0,0,0-2.282-5.076Zm0,0" transform="translate(-200.363 -273.544)"/>
    <path id="Path_828801" data-name="Path 828801" d="M149.272,84.259a2.784,2.784,0,1,0-1.3-5.242l-.033.017a2.779,2.779,0,0,0,1.334,5.224Zm0,0" transform="translate(-92.121 -49.487)"/>
    <path id="Path_828802" data-name="Path 828802" d="M64.727,168.516a2.783,2.783,0,0,0,3.759-1.173l.049-.1a2.784,2.784,0,1,0-3.808,1.27Zm0,0" transform="translate(-39.77 -102.658)"/>
    <path id="Path_828803" data-name="Path 828803" d="M53.488,196.438a2.779,2.779,0,0,0,3.528-1.744l.036-.11a2.784,2.784,0,1,0-3.565,1.854Zm0,0" transform="translate(-32.449 -120.109)"/>
    <path id="Path_828804" data-name="Path 828804" d="M80.109,142.656A2.781,2.781,0,0,0,84,142.043l.036-.049a2.783,2.783,0,0,0-4.528-3.237l2.243,1.65L79.5,138.768a2.783,2.783,0,0,0,.613,3.888Zm0,0" transform="translate(-49.661 -86.535)"/>
    <path id="Path_828805" data-name="Path 828805" d="M123.829,100.416a2.8,2.8,0,1,0-1.612-5.058l-.07.051a2.786,2.786,0,0,0,1.682,5.007Zm0,0" transform="translate(-76.126 -59.633)"/>
    <path id="Path_828806" data-name="Path 828806" d="M49.771,313.259a2.783,2.783,0,1,0-.036-.122l.036.122Zm0,0" transform="translate(-31.217 -194.722)"/>
    <path id="Path_828807" data-name="Path 828807" d="M101.174,120.195a2.792,2.792,0,1,0-1.944-4.772l-.046.046a2.781,2.781,0,0,0,1.99,4.726Zm0,0" transform="translate(-61.878 -72.077)"/>
    <path id="Path_828808" data-name="Path 828808" d="M48.893,282.618a2.784,2.784,0,0,0-5.524.689l.016.112a2.783,2.783,0,0,0,5.508-.8Zm0,0" transform="translate(-27.263 -176.215)"/>
    <path id="Path_828809" data-name="Path 828809" d="M44.291,255.751h.084a2.783,2.783,0,0,0,2.78-2.7l0-.119a2.784,2.784,0,1,0-2.867,2.819Zm0,0" transform="translate(-26.157 -157.319)"/>
    <path id="Path_828810" data-name="Path 828810" d="M46.625,225.744a2.872,2.872,0,0,0,.494.043,2.786,2.786,0,0,0,2.737-2.293c.007-.041.013-.081.019-.122a2.784,2.784,0,1,0-3.25,2.372Zm0,0" transform="translate(-27.881 -138.475)"/>
    <path id="Path_828811" data-name="Path 828811" d="M403.429,146.149a2.783,2.783,0,0,0,4.582-3.16l-2.314,1.548,2.3-1.561a2.784,2.784,0,0,0-4.608,3.124Zm0,0" transform="translate(-253.396 -89.15)"/>
    <path id="Path_828812" data-name="Path 828812" d="M438.413,229.04a2.782,2.782,0,0,0-2.454,3.077l.015.12a2.785,2.785,0,0,0,2.753,2.389,2.844,2.844,0,0,0,.4-.028,2.8,2.8,0,0,0-.71-5.559Zm0,0" transform="translate(-274.166 -144.033)"/>
    <path id="Path_828813" data-name="Path 828813" d="M429.752,201.856l.012.036a2.783,2.783,0,0,0,2.669,2,2.742,2.742,0,0,0,.786-.115,2.783,2.783,0,0,0,1.886-3.456l-.012-.036a2.783,2.783,0,1,0-5.34,1.571Zm0,0" transform="translate(-270.203 -124.703)"/>
    <path id="Path_828814" data-name="Path 828814" d="M418.836,173a2.8,2.8,0,0,0,2.511,1.563,2.781,2.781,0,0,0,2.492-4l-2.522,1.176,2.519-1.181a2.783,2.783,0,0,0-5.04,2.363Zm0,0" transform="translate(-263.218 -106.258)"/>
    <path id="Path_828815" data-name="Path 828815" d="M384.016,122.11a2.8,2.8,0,1,0-.084-.088Zm0,0" transform="translate(-240.993 -73.802)"/>
    <path id="Path_828816" data-name="Path 828816" d="M440.182,260.385a2.8,2.8,0,0,0-.238,5.6c.054,0,.1,0,.158,0a2.784,2.784,0,0,0,2.776-2.63l0-.115A2.779,2.779,0,0,0,440.182,260.385Zm0,0" transform="translate(-275.031 -163.757)"/>
    <path id="Path_828817" data-name="Path 828817" d="M335,84.494l.067.036a2.773,2.773,0,0,0,3.749-1.144,2.792,2.792,0,0,0-1.131-3.767l-1.347,2.435,1.338-2.441A2.783,2.783,0,1,0,335,84.494Zm0,0" transform="translate(-209.774 -49.854)"/>
    <path id="Path_828818" data-name="Path 828818" d="M360.971,101.337l.043.033a2.784,2.784,0,0,0,3.365-4.436l-.019-.013a2.783,2.783,0,1,0-3.389,4.415Zm0,0" transform="translate(-226.332 -60.592)"/>
    <path id="Path_828819" data-name="Path 828819" d="M188.282,138.763l-13.065-13.088a5.878,5.878,0,0,0-8.322,0l-.3.3-.858-.858a11.233,11.233,0,0,1-2.437-3.646,2.713,2.713,0,0,0-.2-.516,11.255,11.255,0,0,1-.648-3.781v-3.7a2.8,2.8,0,1,0-.017-4.947,15.691,15.691,0,0,0-4.6-10.466l-12.675-12.7a15.039,15.039,0,0,0-19.23-1.726l-1.345-1.352V50.453a15.8,15.8,0,0,0-3.921-10.423,11.232,11.232,0,0,1-2.789-7.413V30.285h.191a5.891,5.891,0,0,0,5.884-5.885V5.886A5.891,5.891,0,0,0,118.064,0H66.075a5.891,5.891,0,0,0-5.884,5.885V24.4a5.891,5.891,0,0,0,5.884,5.885H66.5v1.221a11.167,11.167,0,0,1-3.285,7.942l-5.611,5.621a15.7,15.7,0,0,0-4.617,11.166V74.192a15.007,15.007,0,0,0,1.616,6.784,14.945,14.945,0,0,0-9.766,4.389l-12.675,12.7a15.7,15.7,0,0,0-4.617,11.166v7.95a11.165,11.165,0,0,1-3.283,7.942l-.848.849-.01.009-.3-.3a5.878,5.878,0,0,0-8.322,0L1.717,138.763a5.9,5.9,0,0,0,0,8.324l4.475,4.481a2.783,2.783,0,1,0,3.939-3.933l-4.473-4.482a.323.323,0,0,1,0-.457l13.067-13.088a.312.312,0,0,1,.442,0l2.271,2.276h0l31.017,31.07,3.475,3.482a.323.323,0,0,1,0,.457L42.865,179.981a.312.312,0,0,1-.444,0L18.011,155.528a2.783,2.783,0,1,0-3.94,3.933l24.412,24.453a5.878,5.878,0,0,0,8.322,0L59.87,170.825a5.9,5.9,0,0,0,0-8.322l-.142-.142,1.648-1.651a11.184,11.184,0,0,1,7.2-3.264,15.749,15.749,0,0,0,10.134-4.6l12-12.029a9.53,9.53,0,0,0,6.888-7.26,9.49,9.49,0,0,0,13.561-8.587v-6.609a9.486,9.486,0,0,0,13.419-8.651V90.178l8.561,8.6a2.783,2.783,0,0,0,3.946-3.927l-7.138-7.173A9.479,9.479,0,0,1,141.218,89.3l12.675,12.7a10.175,10.175,0,0,1,2.99,7.233v7.95a16.7,16.7,0,0,0,4.91,11.875l.864.865-4.037,4.044L134.2,158.421l-1.361-1.364-.042-.041-.239-.241a16.758,16.758,0,0,0-10.778-4.885,10.206,10.206,0,0,1-6.564-2.979l-9.145-9.1a2.783,2.783,0,1,0-3.925,3.946l9.14,9.089a15.749,15.749,0,0,0,10.135,4.6,11.189,11.189,0,0,1,7.2,3.263l.135.135a2.68,2.68,0,0,0,.23.232l1.283,1.284-.142.144a5.9,5.9,0,0,0,0,8.322l13.065,13.088a5.879,5.879,0,0,0,8.324,0l36.764-36.828a5.9,5.9,0,0,0,0-8.322Zm-23.966-27.675-.052-.009-.507-.1Zm-89.545,37.83a10.187,10.187,0,0,1-6.554,2.973,16.758,16.758,0,0,0-10.779,4.885L55.8,158.421l-1.479-1.481c-.019-.019-.038-.039-.057-.057L27.342,129.918l.864-.865a16.7,16.7,0,0,0,4.91-11.875v-7.95a10.169,10.169,0,0,1,2.99-7.233L48.781,89.3A9.477,9.477,0,0,1,60.063,87.69l-7.149,7.161a2.783,2.783,0,0,0,3.94,3.933l8.54-8.555v34.747a9.49,9.49,0,0,0,13.613,8.563,9.538,9.538,0,0,0,4.717,6.409Zm44.246-39.2a3.927,3.927,0,1,1-7.854,0V78.671a2.783,2.783,0,0,0-5.566,0v46.305a3.924,3.924,0,0,1-7.8.651V78.639a2.812,2.812,0,0,0-5.624.032v46.3a9.543,9.543,0,0,0,.058,1.044v5.608a3.926,3.926,0,1,1-7.852,0V78.605a2.784,2.784,0,0,0-5.568,0v46.369a3.926,3.926,0,1,1-7.852,0V73.2a2.783,2.783,0,1,0-5.566,0v9.576a2.732,2.732,0,0,0-.67.32,9.524,9.524,0,0,1-6.168-8.908V56.235A10.175,10.175,0,0,1,61.548,49l5.611-5.621A16.694,16.694,0,0,0,72.07,31.505V30.285h5.6a2.783,2.783,0,0,0,0-5.566H66.075a.319.319,0,0,1-.317-.319V5.885a.319.319,0,0,1,.317-.319h51.988a.319.319,0,0,1,.319.319V24.4a.318.318,0,0,1-.319.319H90.732a2.783,2.783,0,0,0,0,5.566h21.574v2.332A16.806,16.806,0,0,0,116.475,43.7a10.233,10.233,0,0,1,2.541,6.751Zm65.326,33.436-36.764,36.828a.3.3,0,0,1-.222.093.3.3,0,0,1-.222-.093l-13.065-13.088a.323.323,0,0,1,0-.457l2.1-2.108h0l21.342-21.379,13.317-13.341a.311.311,0,0,1,.442,0L184.342,142.7A.323.323,0,0,1,184.342,143.153Zm0,0"/>
    <path id="Path_828820" data-name="Path 828820" d="M196.78,32.8a2.969,2.969,0,1,0,2.964,2.969A2.97,2.97,0,0,0,196.78,32.8Zm0,0" transform="translate(-121.893 -20.631)"/>
    <path id="Path_828821" data-name="Path 828821" d="M458.378,374.688a2.969,2.969,0,1,0,2.963,2.969A2.97,2.97,0,0,0,458.378,374.688Zm0,0" transform="translate(-286.413 -235.644)"/>
    <path id="Path_828822" data-name="Path 828822" d="M114.939,446.172a2.964,2.964,0,1,0-2.963,2.969A2.97,2.97,0,0,0,114.939,446.172Zm0,0" transform="translate(-68.558 -278.732)"/>
  </g>
</svg>
