<svg xmlns="http://www.w3.org/2000/svg" width="190" height="190" viewBox="0 0 190 190">
  <g id="Group_1078429" data-name="Group 1078429" transform="translate(0 -0.001)">
    <g id="Group_1077141" data-name="Group 1077141" transform="translate(46.268 69.51)">
      <path id="Path_828823" data-name="Path 828823" d="M124.679,187.309h97.465v92.217H124.679Z" transform="translate(-124.679 -187.309)" fill="#f1f4f6"/>
    </g>
    <g id="Group_1077142" data-name="Group 1077142" transform="translate(72.508 116.742)">
      <path id="Path_828824" data-name="Path 828824" d="M240.374,359.573V337.081a22.492,22.492,0,0,0-44.984,0v22.492Z" transform="translate(-195.39 -314.589)" fill="#c6865c"/>
    </g>
    <g id="Group_1077149" data-name="Group 1077149" transform="translate(138.859 69.51)">
      <g id="Group_1077143" data-name="Group 1077143">
        <path id="Path_828825" data-name="Path 828825" d="M374.189,187.309h33.738V202.3H374.189Z" transform="translate(-374.189 -187.309)" fill="#d0e2e7"/>
      </g>
      <g id="Group_1077144" data-name="Group 1077144" transform="translate(26.241)">
        <path id="Path_828826" data-name="Path 828826" d="M444.9,187.309h7.5V202.3h-7.5Z" transform="translate(-444.901 -187.309)" fill="#b4d0d5"/>
      </g>
      <g id="Group_1077145" data-name="Group 1077145" transform="translate(4.873 14.995)">
        <path id="Path_828827" data-name="Path 828827" d="M387.321,227.716h23.991v62.228H387.321Z" transform="translate(-387.321 -227.716)" fill="#9bb9c1"/>
      </g>
      <g id="Group_1077146" data-name="Group 1077146" transform="translate(20.618 14.995)">
        <path id="Path_828828" data-name="Path 828828" d="M429.748,227.716H438v62.228h-8.247Z" transform="translate(-429.748 -227.716)" fill="#86a0af"/>
      </g>
      <g id="Group_1077147" data-name="Group 1077147" transform="translate(0 77.222)">
        <path id="Path_828829" data-name="Path 828829" d="M0,0H33.738V14.995H0Z" transform="translate(33.738 14.995) rotate(180)" fill="#d0e2e7"/>
      </g>
      <g id="Group_1077148" data-name="Group 1077148" transform="translate(26.24 77.222)">
        <path id="Path_828830" data-name="Path 828830" d="M0,0H7.5V14.995H0Z" transform="translate(7.497 14.995) rotate(180)" fill="#b4d0d5"/>
      </g>
    </g>
    <g id="Group_1077156" data-name="Group 1077156" transform="translate(17.403 69.51)">
      <g id="Group_1077150" data-name="Group 1077150" transform="translate(0 0)">
        <path id="Path_828831" data-name="Path 828831" d="M0,0H33.738V14.995H0Z" transform="translate(33.738 14.995) rotate(180)" fill="#d0e2e7"/>
      </g>
      <g id="Group_1077151" data-name="Group 1077151" transform="translate(26.241 0)">
        <path id="Path_828832" data-name="Path 828832" d="M0,0H7.5V14.995H0Z" transform="translate(7.497 14.995) rotate(180)" fill="#b4d0d5"/>
      </g>
      <g id="Group_1077152" data-name="Group 1077152" transform="translate(4.874 14.994)">
        <path id="Path_828833" data-name="Path 828833" d="M0,0H23.991V62.228H0Z" transform="translate(23.991 62.228) rotate(180)" fill="#9bb9c1"/>
      </g>
      <g id="Group_1077153" data-name="Group 1077153" transform="translate(20.618 14.995)">
        <path id="Path_828834" data-name="Path 828834" d="M102.455,227.716H110.7v62.228h-8.247Z" transform="translate(-102.455 -227.716)" fill="#86a0af"/>
      </g>
      <g id="Group_1077154" data-name="Group 1077154" transform="translate(0 77.222)">
        <path id="Path_828835" data-name="Path 828835" d="M46.9,395.4H80.634V410.4H46.9Z" transform="translate(-46.896 -395.403)" fill="#d0e2e7"/>
      </g>
      <g id="Group_1077155" data-name="Group 1077155" transform="translate(26.241 77.222)">
        <path id="Path_828836" data-name="Path 828836" d="M117.608,395.4h7.5V410.4h-7.5Z" transform="translate(-117.608 -395.403)" fill="#b4d0d5"/>
      </g>
    </g>
    <g id="Group_1077157" data-name="Group 1077157" transform="translate(8.781 161.727)">
      <path id="Path_828837" data-name="Path 828837" d="M23.663,435.809H196.1v12.746H23.663Z" transform="translate(-23.663 -435.809)" fill="#9bb9c1"/>
    </g>
    <g id="Group_1077158" data-name="Group 1077158" transform="translate(2.783 174.472)">
      <path id="Path_828838" data-name="Path 828838" d="M7.5,470.155H191.934V482.9H7.5Z" transform="translate(-7.5 -470.155)" fill="#86a0af"/>
    </g>
    <g id="Group_1077159" data-name="Group 1077159" transform="translate(8.781 2.783)">
      <path id="Path_828839" data-name="Path 828839" d="M196.1,43.862,109.882,7.5,23.663,43.862V74.226H196.1Z" transform="translate(-23.663 -7.5)" fill="#d0e2e7"/>
    </g>
    <g id="Group_1077160" data-name="Group 1077160" transform="translate(172.597 35.509)">
      <path id="Path_828840" data-name="Path 828840" d="M465.1,95.687v34h8.622V99.323Z" transform="translate(-465.104 -95.687)" fill="#b4d0d5"/>
    </g>
    <g id="Group_1077163" data-name="Group 1077163" transform="translate(20.777 29.376)">
      <g id="Group_1077161" data-name="Group 1077161">
        <path id="Path_828841" data-name="Path 828841" d="M104.9,98.77a23.833,23.833,0,0,1-7.027-16.964,24.331,24.331,0,0,1,.148-2.645L55.988,96.89V107.3h57.444Z" transform="translate(-55.988 -79.161)" fill="#9bb9c1"/>
      </g>
      <g id="Group_1077162" data-name="Group 1077162" transform="translate(91.002)">
        <path id="Path_828842" data-name="Path 828842" d="M316.622,79.161a24.427,24.427,0,0,1,.148,2.645,23.834,23.834,0,0,1-7.027,16.965l-8.528,8.528h57.444V96.89Z" transform="translate(-301.215 -79.161)" fill="#9bb9c1"/>
      </g>
    </g>
    <g id="Group_1077166" data-name="Group 1077166" transform="translate(74.662 20.027)">
      <g id="Group_1077164" data-name="Group 1077164">
        <path id="Path_828843" data-name="Path 828843" d="M238.357,57.479a11.994,11.994,0,0,0-16.825-.132,11.994,11.994,0,0,0-16.825,17.1l16.825,16.825,16.825-16.825a12,12,0,0,0,0-16.965Z" transform="translate(-201.194 -53.967)" fill="#ffae7e"/>
      </g>
      <g id="Group_1077165" data-name="Group 1077165" transform="translate(7.957 0.011)">
        <path id="Path_828844" data-name="Path 828844" d="M251.841,57.5a11.943,11.943,0,0,0-8.056-3.5,20.424,20.424,0,0,1-19.923,24.949c-.412,0-.821-.016-1.227-.04l12.382,12.381,16.825-16.825A12,12,0,0,0,251.841,57.5Z" transform="translate(-222.635 -53.996)" fill="#ffae7e"/>
      </g>
    </g>
    <g id="Group_1077167" data-name="Group 1077167" transform="translate(72.508 88.628)">
      <path id="Path_828845" data-name="Path 828845" d="M195.39,238.827h44.984v12.746H195.39Z" transform="translate(-195.39 -238.827)" fill="#86a0af"/>
    </g>
    <g id="Group_1077168" data-name="Group 1077168" transform="translate(0 0.001)">
      <path id="Path_828846" data-name="Path 828846" d="M187.217,171.689H184v-9.962a2.783,2.783,0,0,0-2.783-2.783H175.38V146.732a2.783,2.783,0,0,0-2.783-2.783h-2.09v-9.241a2.783,2.783,0,1,0-5.566,0v9.241H146.516V87.287h18.425v34.419a2.783,2.783,0,0,0,5.566,0V87.287h2.09A2.783,2.783,0,0,0,175.38,84.5V72.293h5.838A2.783,2.783,0,0,0,184,69.51V39.146a2.784,2.784,0,0,0-1.7-2.565L96.081.219a2.782,2.782,0,0,0-2.163,0L7.7,36.581A2.784,2.784,0,0,0,6,39.146V69.509A2.783,2.783,0,0,0,8.78,72.293H14.62V84.5A2.783,2.783,0,0,0,17.4,87.287h2.09v9.241a2.783,2.783,0,0,0,5.566,0V87.287H43.484v56.661H25.059V109.53a2.783,2.783,0,0,0-5.566,0v34.419H17.4a2.783,2.783,0,0,0-2.783,2.783v12.212H8.781A2.783,2.783,0,0,0,6,161.726v9.962H2.783A2.783,2.783,0,0,0,0,174.472v12.746A2.783,2.783,0,0,0,2.783,190H187.217A2.783,2.783,0,0,0,190,187.217V174.472A2.783,2.783,0,0,0,187.217,171.689Zm-45.574-12.746v-9.428h28.171v9.428Zm28.171-77.222H141.643V72.293h28.171ZM48.358,72.293v9.428H20.186V72.293Zm.693,14.995h2.09A2.783,2.783,0,0,0,53.924,84.5V72.293H88.451a2.783,2.783,0,1,0,0-5.566H11.564V40.992L95,5.8l83.436,35.188V66.727H101.549a2.783,2.783,0,1,0,0,5.566h34.527V84.5a2.783,2.783,0,0,0,2.783,2.783h2.09v56.661h-2.09a2.783,2.783,0,0,0-2.783,2.783v12.212h-15.8V139.235a25.275,25.275,0,1,0-50.55,0v19.709h-15.8V146.732a2.783,2.783,0,0,0-2.783-2.783h-2.09V87.287Zm48.732,71.656V119.726a19.736,19.736,0,0,1,16.925,19.508v19.709Zm-22.492,0V139.234a19.736,19.736,0,0,1,16.925-19.508v39.217Zm-55.105-9.428H48.358v9.428H20.186Zm-8.622,14.994H178.436v7.179H11.564Zm172.869,19.924H5.566v-7.179H184.434Z" transform="translate(0 0)"/>
      <path id="Path_828847" data-name="Path 828847" d="M102.156,92.086a21.068,21.068,0,0,1-6.212-15,21.707,21.707,0,0,1,.132-2.343,2.784,2.784,0,0,0-3.849-2.867L50.19,89.609a2.784,2.784,0,0,0-1.7,2.565v10.408a2.783,2.783,0,0,0,2.783,2.783h57.444a2.783,2.783,0,0,0,1.968-4.751ZM54.054,99.8V94.02L90.423,78.682a26.577,26.577,0,0,0,7.8,17.34L102,99.8Z" transform="translate(-30.494 -45.069)"/>
      <path id="Path_828848" data-name="Path 828848" d="M294.53,100.614a2.783,2.783,0,0,0,1.968,4.751h57.444a2.783,2.783,0,0,0,2.783-2.783V92.173a2.784,2.784,0,0,0-1.7-2.565L312.986,71.88a2.784,2.784,0,0,0-3.849,2.867,21.706,21.706,0,0,1,.132,2.343,21.069,21.069,0,0,1-6.212,15Zm12.464-4.592a26.577,26.577,0,0,0,7.8-17.34L351.159,94.02V99.8H303.217Z" transform="translate(-184.719 -45.068)"/>
      <path id="Path_828849" data-name="Path 828849" d="M216.815,89.379a2.784,2.784,0,0,0,1.968-.815l16.825-16.825a14.78,14.78,0,0,0,0-20.9,14.858,14.858,0,0,0-18.793-1.744,14.857,14.857,0,0,0-18.793,1.744,14.779,14.779,0,0,0,0,20.9l16.825,16.825A2.784,2.784,0,0,0,216.815,89.379ZM199.26,61.289a9.222,9.222,0,0,1,15.618-6.616,2.783,2.783,0,0,0,3.873,0,9.249,9.249,0,0,1,12.92.1h0a9.213,9.213,0,0,1,0,13.028L216.815,82.659,201.959,67.8A9.151,9.151,0,0,1,199.26,61.289Z" transform="translate(-121.815 -29.267)"/>
      <path id="Path_828850" data-name="Path 828850" d="M190.674,249.639h44.984a2.783,2.783,0,0,0,2.783-2.783V234.11a2.783,2.783,0,0,0-2.783-2.783H190.674a2.783,2.783,0,0,0-2.783,2.783v12.746A2.783,2.783,0,0,0,190.674,249.639Zm2.783-12.746h39.417v7.179H193.457Z" transform="translate(-118.166 -145.483)"/>
    </g>
  </g>
</svg>
