<svg xmlns="http://www.w3.org/2000/svg" width="189.691" height="192.029" viewBox="0 0 189.691 192.029">
  <g id="Group_1078430" data-name="Group 1078430" transform="translate(-3.116 0)">
    <g id="Group_1077177" data-name="Group 1077177" transform="translate(5.929 2.811)">
      <g id="Group_1077176" data-name="Group 1077176">
        <g id="Group_1077174" data-name="Group 1077174" transform="translate(0 71.299)">
          <g id="Group_1077170" data-name="Group 1077170" transform="translate(11.252)">
            <path id="Path_828851" data-name="Path 828851" d="M206.971,241.769H70.26a10.467,10.467,0,0,1,0-20.934H206.971A22.985,22.985,0,0,0,206.971,241.769Z" transform="translate(-52.601 -212.117)" fill="#f7f7f7"/>
            <path id="Path_828852" data-name="Path 828852" d="M224.409,220.834H213.157a22.985,22.985,0,0,0,0,20.934h11.252a22.985,22.985,0,0,1,0-20.934Z" transform="translate(-70.04 -212.117)" fill="#efefef"/>
            <path id="Path_828853" data-name="Path 828853" d="M59.8,235.961a19.2,19.2,0,0,1-19.182-19.373,19.351,19.351,0,0,1,19.393-19h136.5a5.668,5.668,0,0,1,0,11.337H59.8a7.848,7.848,0,0,0,0,15.7H196.51a5.668,5.668,0,0,1,0,11.337Z" transform="translate(-40.617 -197.592)" fill="#ffae7e"/>
          </g>
          <g id="Group_1077173" data-name="Group 1077173" transform="translate(0 38.369)">
            <g id="Group_1077171" data-name="Group 1077171" transform="translate(0 38.369)">
              <path id="Path_828854" data-name="Path 828854" d="M203.539,446.37H44.324a10.467,10.467,0,0,1,0-20.934H203.538a22.983,22.983,0,0,0,0,20.934Z" transform="translate(-25.141 -416.718)" fill="#f7f7f7"/>
              <path id="Path_828855" data-name="Path 828855" d="M463.315,425.436H452.064a22.985,22.985,0,0,0,0,20.934h11.252A22.982,22.982,0,0,1,463.315,425.436Z" transform="translate(-284.918 -416.718)" fill="#efefef"/>
              <path id="Path_828856" data-name="Path 828856" d="M29.8,440.562a19.2,19.2,0,0,1-19.182-19.373,19.351,19.351,0,0,1,19.393-19h159a5.668,5.668,0,0,1,0,11.337H29.8a7.848,7.848,0,0,0,0,15.7H189.014a5.669,5.669,0,0,1,0,11.337H29.8Z" transform="translate(-10.617 -402.193)" fill="#d5fff5"/>
            </g>
            <g id="Group_1077172" data-name="Group 1077172" transform="translate(0)">
              <path id="Path_828857" data-name="Path 828857" d="M25.729,323.135H184.944a10.467,10.467,0,0,1,0,20.934H25.729a22.985,22.985,0,0,0,0-20.934Z" transform="translate(-20.061 -314.417)" fill="#f7f7f7"/>
              <path id="Path_828858" data-name="Path 828858" d="M16.285,338.261a5.668,5.668,0,0,1,0-11.337H175.5a7.848,7.848,0,0,0,0-15.7H16.285a5.668,5.668,0,0,1,0-11.337H175.5a19.2,19.2,0,0,1,19.181,19.373,19.351,19.351,0,0,1-19.393,19Z" transform="translate(-10.617 -299.892)" fill="#7816c2"/>
              <path id="Path_828859" data-name="Path 828859" d="M444.755,305.583a19.044,19.044,0,0,0-13.624-5.691H419.879a19.2,19.2,0,0,1,19.181,19.373,19.351,19.351,0,0,1-19.393,19h11.252a19.351,19.351,0,0,0,19.393-19A19.052,19.052,0,0,0,444.755,305.583Z" transform="translate(-266.248 -299.892)" fill="#b5eaff"/>
            </g>
          </g>
        </g>
        <g id="Group_1077175" data-name="Group 1077175" transform="translate(4.693)">
          <path id="Path_828860" data-name="Path 828860" d="M221.014,134.467H116l11.252-37.885h82.514Z" transform="translate(-81.166 -63.168)" fill="#288a9a"/>
          <path id="Path_828861" data-name="Path 828861" d="M100.772,8.745,26.131,28.351a4.023,4.023,0,0,0,0,7.782l74.641,19.605a38.175,38.175,0,0,0,19.4,0l74.641-19.605a4.023,4.023,0,0,0,0-7.782L120.167,8.745A38.175,38.175,0,0,0,100.772,8.745Z" transform="translate(-23.13 -7.493)" fill="#3498ac"/>
          <path id="Path_828862" data-name="Path 828862" d="M305.279,28.351,230.638,8.745a38.175,38.175,0,0,0-19.4,0L199.9,11.724a38.181,38.181,0,0,1,15.735.772L290.276,32.1a4.023,4.023,0,0,1,0,7.782l15-3.751a4.023,4.023,0,0,0,0-7.782Z" transform="translate(-133.601 -7.493)" fill="#288a9a"/>
          <path id="Path_828863" data-name="Path 828863" d="M318.49,200.286H302.3s0-24.431,8.095-24.431S318.49,200.286,318.49,200.286Z" transform="translate(-197.595 -112.709)" fill="#ffe66b"/>
        </g>
      </g>
      <path id="Path_828864" data-name="Path 828864" d="M106.377,368.487,93,375.507V330.118h13.38Z" transform="translate(-62.099 -209.114)" fill="#3498ac"/>
    </g>
    <path id="Path_828865" data-name="Path 828865" d="M251.56,54.484a10.423,10.423,0,0,1-11.123,0v-8a5.561,5.561,0,0,1,11.123,0Z" transform="translate(-148.311 -25.577)" fill="#ffe66b"/>
    <path id="Path_828866" data-name="Path 828866" d="M185.266,175.119a20.244,20.244,0,0,1,0-10.176c9.971-1.365,10.008-15.423.056-16.849a21.867,21.867,0,0,0,7.484-16.217,22.229,22.229,0,0,0-12.792-20.2c4.041-5.747-.6-13.765-7.539-13.348a20.251,20.251,0,0,1,0-10.07c11.209.587,11.946-16.963.6-16.963H152.57l-8.025-27.02,38.471-10.1c6.633-1.742,6.642-11.479,0-13.224l-74.641-19.6a41.062,41.062,0,0,0-20.825,0L59.8,8.632c-3.4.894-2.131,6.375,1.429,5.441l27.755-7.29a35.436,35.436,0,0,1,17.966,0l74.641,19.605a1.211,1.211,0,0,1,0,2.341L124.143,43.818l-18.08-16.394V20.911c-.46-11.109-16.29-11.107-16.749,0v8a2.813,2.813,0,0,0,1.34,2.4,13.167,13.167,0,0,0,12.318.912l14.676,13.307-10.7,2.811a35.436,35.436,0,0,1-17.966,0l-74.641-19.6a1.211,1.211,0,0,1,0-2.341L46.99,17.812c3.4-.894,2.13-6.376-1.429-5.441L12.909,20.947c-6.633,1.742-6.642,11.479,0,13.224l38.47,10.1L43.354,71.3H36.575a21.991,21.991,0,0,0-14.89,38.369H11.6c-10.692.366-11.463,15.4-.938,16.909a20.21,20.21,0,0,1,0,10.176C.688,138.114.65,152.172,10.6,153.6a21.952,21.952,0,0,0,14.51,38.43H184.326c10.657-.351,11.494-15.383.94-16.91ZM100.436,27.179a7.443,7.443,0,0,1-5.5,0V20.911a2.749,2.749,0,0,1,5.5,0Zm70.376,99.449a5.035,5.035,0,0,1,0,10.07H53.02v-10.07ZM47.394,160.483l-7.754,4.068V126.627h7.754ZM34.014,136.7H16.441a25.863,25.863,0,0,0,0-10.07H34.014Zm1.357,34.913a2.814,2.814,0,0,0,2.762.084L50.9,165H179.484a25.928,25.928,0,0,0,0,10.07H25.112a5.035,5.035,0,0,1,0-10.07h8.9V169.2a2.814,2.814,0,0,0,1.358,2.407ZM166.708,98.328H36.364a5.035,5.035,0,0,1,0-10.07h76.2c-.071,2-.06,4.941,2.767,4.941h16.189c2.836,0,2.838-2.937,2.767-4.941h32.424a25.929,25.929,0,0,0,0,10.07ZM123.424,68.769c2.479,0,4.838,8.8,5.226,18.8H118.2c.387-10.009,2.747-18.8,5.226-18.8ZM175.93,79.777a2.858,2.858,0,0,1-2.855,2.855H133.916c-.185-1.912-.431-3.82-.772-5.711h39.931A2.859,2.859,0,0,1,175.93,79.777ZM146.7,71.3H131.738q-2.008-5.909-5.5-7.541V49.084L139.1,45.705ZM56.823,45.705,87.55,53.776a41.221,41.221,0,0,0,20.825,0l12.236-3.214V63.755q-3.486,1.623-5.5,7.541H49.223Zm-32.086,59.1a16.257,16.257,0,0,1-4.743-11.676,16.529,16.529,0,0,1,16.581-16.21H113.7c-.341,1.891-.587,3.8-.772,5.711H36.364a10.661,10.661,0,0,0,0,21.322H173.075c3.572,0,3.735,5.711,0,5.711H36.364a16.254,16.254,0,0,1-11.626-4.858Zm-16,13.339a2.858,2.858,0,0,1,2.855-2.855H170.812a16.372,16.372,0,1,1-.212,32.743H155.847c-3.52,0-3.68,5.626,0,5.626h28.48a2.855,2.855,0,0,1,0,5.711H53.02v-5.711h88c3.52,0,3.68-5.626,0-5.626h-88v-5.711H170.812a10.661,10.661,0,0,0,0-21.322H11.6a2.857,2.857,0,0,1-2.855-2.855ZM11.6,148.034a2.856,2.856,0,0,1,0-5.711H34.014v5.711ZM184.327,186.4H25.112A16.39,16.39,0,0,1,8.743,169.87a16.529,16.529,0,0,1,16.581-16.21h8.691v5.711h-8.9c-14.145.587-14.134,20.739,0,21.322H184.326A2.855,2.855,0,0,1,184.327,186.4Z"/>
  </g>
</svg>
