<svg xmlns="http://www.w3.org/2000/svg" xmlns:xlink="http://www.w3.org/1999/xlink" width="210" height="196" viewBox="0 0 210 196">
  <defs>
    <clipPath id="clip-path">
      <rect id="Rectangle_380691" data-name="Rectangle 380691" width="210" height="196" transform="translate(370 1785)" fill="#fff" stroke="#707070" stroke-width="1"/>
    </clipPath>
  </defs>
  <g id="Mask_Group_443" data-name="Mask Group 443" transform="translate(-370 -1785)" clip-path="url(#clip-path)">
    <g id="Group_1077559" data-name="Group 1077559" transform="translate(400.006 1807.899)">
      <g id="Group_1077558" data-name="Group 1077558" transform="translate(3 2.5)">
        <g id="Group_1077517" data-name="Group 1077517" transform="translate(2.445 19.557)">
          <g id="Group_1077516" data-name="Group 1077516">
            <path id="Path_829917" data-name="Path 829917" d="M83.673,8.1h22a8.576,8.576,0,0,1,8.381,8.731V134.52a8.576,8.576,0,0,1-8.381,8.731H12.081A8.576,8.576,0,0,1,3.7,134.52V16.831A8.576,8.576,0,0,1,12.081,8.1h21.3" transform="translate(-3.7 -8.1)" fill="#d5fff5"/>
          </g>
        </g>
        <g id="Group_1077519" data-name="Group 1077519" transform="translate(13.969 31.081)">
          <g id="Group_1077518" data-name="Group 1077518">
            <path id="Path_829918" data-name="Path 829918" d="M75.8,11.4H94.656V91.024H30.049a8.2,8.2,0,0,0-8.032,8.381v17.461a7.005,7.005,0,0,1-6.985,6.985A8.2,8.2,0,0,1,7,115.47V11.4H25.858" transform="translate(-7 -11.4)" fill="#fff"/>
          </g>
        </g>
        <g id="Group_1077522" data-name="Group 1077522" transform="translate(27.24 50.289)">
          <g id="Group_1077520" data-name="Group 1077520">
            <path id="Path_829919" data-name="Path 829919" d="M10.8,16.9H29.658V35.758H10.8Z" transform="translate(-10.8 -16.9)" fill="#c1e29a"/>
          </g>
          <g id="Group_1077521" data-name="Group 1077521" transform="translate(0 30.732)">
            <path id="Path_829920" data-name="Path 829920" d="M10.8,25.7H29.658V44.558H10.8Z" transform="translate(-10.8 -25.7)" fill="#c1e29a"/>
          </g>
        </g>
        <g id="Group_1077523" data-name="Group 1077523" transform="translate(22.001 110.705)">
          <path id="Path_829921" data-name="Path 829921" d="M9.3,66.678h92.894a8.123,8.123,0,0,0,8.032-8.032V48.518H30.952V41.534a7.334,7.334,0,0,0-14.668,0V58.646c0,5.238-2.794,7.334-6.985,8.032Z" transform="translate(-9.3 -34.2)" fill="#2aabf5"/>
        </g>
        <g id="Group_1077525" data-name="Group 1077525" transform="translate(37.717 110.356)">
          <g id="Group_1077524" data-name="Group 1077524">
            <path id="Path_829922" data-name="Path 829922" d="M13.8,34.449a8.485,8.485,0,0,1,5.937,5.937v8.032h90.8V42.481A8.2,8.2,0,0,0,102.5,34.1Z" transform="translate(-13.8 -34.1)" fill="#fff"/>
          </g>
        </g>
        <g id="Group_1077526" data-name="Group 1077526" transform="translate(33.177 2.445)">
          <path id="Path_829923" data-name="Path 829923" d="M61.741,19.963V35.678c0,2.445-2.1,4.889-4.54,4.889H17.04a4.706,4.706,0,0,1-4.54-4.889V19.963c0-2.445,2.1-4.889,4.54-4.889H27.866V12.629a9.429,9.429,0,0,1,18.858,0v2.794H57.55a4.573,4.573,0,0,1,4.191,4.54Z" transform="translate(-12.5 -3.2)" fill="#ffae7e"/>
        </g>
        <g id="Group_1077531" data-name="Group 1077531" transform="translate(131.659 2.445)">
          <g id="Group_1077527" data-name="Group 1077527" transform="translate(0.349 90.799)">
            <path id="Path_829924" data-name="Path 829924" d="M40.8,29.2v1.048l9.778,16.064,9.429-16.064V29.2Z" transform="translate(-40.8 -29.2)" fill="#fff"/>
          </g>
          <g id="Group_1077528" data-name="Group 1077528" transform="translate(0.349 26.541)">
            <path id="Path_829925" data-name="Path 829925" d="M40.8,10.8H60.008V75.407H40.8Z" transform="translate(-40.8 -10.8)" fill="#cc8b64"/>
          </g>
          <g id="Group_1077529" data-name="Group 1077529" transform="translate(0.349 16.414)">
            <path id="Path_829926" data-name="Path 829926" d="M40.8,7.9H60.008V19.075H40.8Z" transform="translate(-40.8 -7.9)" fill="#fff"/>
          </g>
          <g id="Group_1077530" data-name="Group 1077530">
            <path id="Path_829927" data-name="Path 829927" d="M60.257,19.614V12.978a9.778,9.778,0,1,0-19.557,0v6.635Z" transform="translate(-40.7 -3.2)" fill="#cc8b64"/>
          </g>
        </g>
        <g id="Group_1077534" data-name="Group 1077534" transform="translate(0 16.414)">
          <g id="Group_1077532" data-name="Group 1077532" transform="translate(79.624)">
            <path id="Path_829928" data-name="Path 829928" d="M58.977,102.539a2.754,2.754,0,0,1-2.794-2.794V19.074c0-3.492-2.445-6.286-5.588-6.286h-22A2.754,2.754,0,0,1,25.8,9.994,2.57,2.57,0,0,1,28.594,7.2h22c5.937,0,10.826,5.238,10.826,11.175V99.4C61.421,101.491,60.374,102.539,58.977,102.539Z" transform="translate(-25.8 -7.2)" fill="#242222"/>
          </g>
          <g id="Group_1077533" data-name="Group 1077533" transform="translate(0 0.698)">
            <path id="Path_829929" data-name="Path 829929" d="M107.419,148.139H13.826C7.889,148.139,3,142.9,3,136.963V18.575A10.959,10.959,0,0,1,13.826,7.4h21.3a2.754,2.754,0,0,1,2.794,2.794,2.57,2.57,0,0,1-2.794,2.794h-21.3c-3.143,0-5.588,2.794-5.588,6.286V137.313c0,3.492,2.445,6.286,5.588,6.286h93.593c3.143,0,5.588-2.794,5.588-6.286v-2.445a2.754,2.754,0,0,1,2.794-2.794,2.57,2.57,0,0,1,2.794,2.794v2.445c-.349,5.588-5.238,10.826-11.175,10.826Z" transform="translate(-3 -7.4)" fill="#242222"/>
          </g>
        </g>
        <g id="Group_1077535" data-name="Group 1077535" transform="translate(30.732 0)">
          <path id="Path_829930" data-name="Path 829930" d="M58.946,44.757H18.785A7.313,7.313,0,0,1,11.8,37.423V21.708c0-3.842,3.492-7.334,6.985-7.334h8.381A12,12,0,0,1,39.04,2.5,11.776,11.776,0,0,1,50.913,14.374v.349h8.381c3.492,0,6.635,3.492,6.635,6.985V37.423a7.313,7.313,0,0,1-6.985,7.334ZM18.785,19.612a1.956,1.956,0,0,0-1.746,2.1V37.423a1.964,1.964,0,0,0,1.746,2.1H58.946a1.956,1.956,0,0,0,1.746-2.1V21.708a1.912,1.912,0,0,0-1.4-1.746H48.469a2.754,2.754,0,0,1-2.794-2.794V14.374A6.631,6.631,0,0,0,39.04,7.738a6.942,6.942,0,0,0-6.985,6.635v2.445a2.754,2.754,0,0,1-2.794,2.794Z" transform="translate(-11.8 -2.5)" fill="#242222"/>
        </g>
        <g id="Group_1077538" data-name="Group 1077538" transform="translate(11.524 27.938)">
          <g id="Group_1077536" data-name="Group 1077536" transform="translate(68.449)">
            <path id="Path_829931" data-name="Path 829931" d="M47.552,96.061a2.754,2.754,0,0,1-2.794-2.794V16.088H28.694A2.754,2.754,0,0,1,25.9,13.294,2.57,2.57,0,0,1,28.694,10.5H47.552a2.754,2.754,0,0,1,2.794,2.794V92.918C50,94.664,48.949,96.061,47.552,96.061Z" transform="translate(-25.9 -10.5)" fill="#242222"/>
          </g>
          <g id="Group_1077537" data-name="Group 1077537" transform="translate(0 0.349)">
            <path id="Path_829932" data-name="Path 829932" d="M16.777,127.94c-5.937,0-10.477-4.889-10.477-11.175V13.394A2.754,2.754,0,0,1,9.094,10.6H27.952a2.754,2.754,0,0,1,2.794,2.794,2.57,2.57,0,0,1-2.794,2.794H11.538V117.114c0,3.143,2.445,5.937,5.238,5.937a4.246,4.246,0,0,0,4.191-4.191V101.4c0-5.937,4.889-11.175,10.826-11.175h89.4c5.937,0,10.477,4.889,10.477,11.175v5.937a2.754,2.754,0,0,1-2.794,2.794H38.08a2.754,2.754,0,0,1-2.794-2.794V99.3a6.918,6.918,0,0,0-3.842-3.841c-.349,0-.349,0-.7-.349a5.646,5.646,0,0,0-4.889,5.588v17.461a9,9,0,0,1-9.08,9.778Zm24.1-23.4h85.561V101.05c0-3.143-2.445-5.937-5.238-5.937H39.826a12.4,12.4,0,0,1,1.4,3.143v6.286Z" transform="translate(-6.3 -10.6)" fill="#242222"/>
          </g>
        </g>
        <g id="Group_1077539" data-name="Group 1077539" transform="translate(19.208 121.182)">
          <path id="Path_829933" data-name="Path 829933" d="M104.188,61.646H11.294A2.754,2.754,0,0,1,8.5,58.852a2.57,2.57,0,0,1,2.794-2.794h92.894c3.143,0,5.238-2.445,5.238-5.937V39.994a2.754,2.754,0,0,1,2.794-2.794,2.57,2.57,0,0,1,2.794,2.794V50.121C115.014,56.757,110.125,61.646,104.188,61.646Z" transform="translate(-8.5 -37.2)" fill="#242222"/>
        </g>
        <g id="Group_1077540" data-name="Group 1077540" transform="translate(129.214)">
          <path id="Path_829934" data-name="Path 829934" d="M52.223,116a1.915,1.915,0,0,1-2.1-1.4L40.349,98.188a2.1,2.1,0,0,1-.349-1.4V14.723a12.223,12.223,0,1,1,24.446,0V96.791a2.1,2.1,0,0,1-.349,1.4L54.318,114.6a2.358,2.358,0,0,1-2.1,1.4ZM45.238,96.093l6.985,11.874,6.985-11.874V14.723a6.985,6.985,0,0,0-13.969,0Z" transform="translate(-40 -2.5)" fill="#242222"/>
        </g>
        <g id="Group_1077541" data-name="Group 1077541" transform="translate(129.214 91.148)">
          <path id="Path_829935" data-name="Path 829935" d="M62,34.188H42.794A2.754,2.754,0,0,1,40,31.394,2.57,2.57,0,0,1,42.794,28.6H62a2.794,2.794,0,1,1,0,5.588Z" transform="translate(-40 -28.6)" fill="#242222"/>
        </g>
        <g id="Group_1077542" data-name="Group 1077542" transform="translate(129.214 16.414)">
          <path id="Path_829936" data-name="Path 829936" d="M62,12.788H42.794A3,3,0,0,1,40,9.994,2.754,2.754,0,0,1,42.794,7.2H62a2.7,2.7,0,0,1,2.445,2.794A2.7,2.7,0,0,1,62,12.788Z" transform="translate(-40 -7.2)" fill="#242222"/>
        </g>
        <g id="Group_1077543" data-name="Group 1077543" transform="translate(129.214 26.192)">
          <path id="Path_829937" data-name="Path 829937" d="M62,15.588H42.794A2.754,2.754,0,0,1,40,12.794,2.57,2.57,0,0,1,42.794,10H62a2.794,2.794,0,0,1,0,5.588Z" transform="translate(-40 -10)" fill="#242222"/>
        </g>
        <g id="Group_1077544" data-name="Group 1077544" transform="translate(138.992 26.541)">
          <path id="Path_829938" data-name="Path 829938" d="M45.594,80.295A2.754,2.754,0,0,1,42.8,77.5V12.894A2.754,2.754,0,0,1,45.594,10.1a2.57,2.57,0,0,1,2.794,2.794V77.85a2.963,2.963,0,0,1-2.794,2.445Z" transform="translate(-42.8 -10.1)" fill="#242222"/>
        </g>
        <g id="Group_1077547" data-name="Group 1077547" transform="translate(24.446 47.146)">
          <g id="Group_1077545" data-name="Group 1077545" transform="translate(0 0)">
            <path id="Path_829939" data-name="Path 829939" d="M31.652,40.446H12.794A2.754,2.754,0,0,1,10,37.652V18.794A2.754,2.754,0,0,1,12.794,16H31.652a2.754,2.754,0,0,1,2.794,2.794V37.652A2.754,2.754,0,0,1,31.652,40.446ZM15.238,35.207h13.62V21.588H15.238Z" transform="translate(-10 -16)" fill="#242222"/>
          </g>
          <g id="Group_1077546" data-name="Group 1077546" transform="translate(0 30.732)">
            <path id="Path_829940" data-name="Path 829940" d="M31.652,49.246H12.794A2.754,2.754,0,0,1,10,46.452V27.594A2.754,2.754,0,0,1,12.794,24.8H31.652a2.754,2.754,0,0,1,2.794,2.794V46.452A2.754,2.754,0,0,1,31.652,49.246ZM15.238,44.007h13.62V30.388H15.238Z" transform="translate(-10 -24.8)" fill="#242222"/>
          </g>
        </g>
        <g id="Group_1077548" data-name="Group 1077548" transform="translate(81.021 78.576)">
          <path id="Path_829941" data-name="Path 829941" d="M35.629,30.238H28.994A2.754,2.754,0,0,1,26.2,27.445C26.2,25.7,27.6,25,28.994,25h6.635a2.754,2.754,0,0,1,2.794,2.794C38.423,29.54,37.026,30.238,35.629,30.238Z" transform="translate(-26.2 -25)" fill="#242222"/>
        </g>
        <g id="Group_1077549" data-name="Group 1077549" transform="translate(54.479 78.576)">
          <path id="Path_829942" data-name="Path 829942" d="M37.808,30.238H21.394A2.754,2.754,0,0,1,18.6,27.445C18.6,25.7,20,25,21.394,25H37.808A2.754,2.754,0,0,1,40.6,27.794C40.6,29.54,39.2,30.238,37.808,30.238Z" transform="translate(-18.6 -25)" fill="#242222"/>
        </g>
        <g id="Group_1077550" data-name="Group 1077550" transform="translate(54.479 87.656)">
          <path id="Path_829943" data-name="Path 829943" d="M44.094,33.188h-22.7A2.754,2.754,0,0,1,18.6,30.394,2.57,2.57,0,0,1,21.394,27.6h22.7a2.794,2.794,0,1,1,0,5.588Z" transform="translate(-18.6 -27.6)" fill="#242222"/>
        </g>
        <g id="Group_1077551" data-name="Group 1077551" transform="translate(71.242 96.736)">
          <path id="Path_829944" data-name="Path 829944" d="M42.607,35.788H26.194A2.754,2.754,0,0,1,23.4,32.994,2.57,2.57,0,0,1,26.194,30.2H42.608a2.794,2.794,0,0,1,0,5.588Z" transform="translate(-23.4 -30.2)" fill="#242222"/>
        </g>
        <g id="Group_1077552" data-name="Group 1077552" transform="translate(54.479 96.736)">
          <path id="Path_829945" data-name="Path 829945" d="M28.029,35.788H21.394A2.754,2.754,0,0,1,18.6,32.994,2.57,2.57,0,0,1,21.394,30.2h6.635a2.794,2.794,0,0,1,0,5.588Z" transform="translate(-18.6 -30.2)" fill="#242222"/>
        </g>
        <g id="Group_1077553" data-name="Group 1077553" transform="translate(81.021 47.146)">
          <path id="Path_829946" data-name="Path 829946" d="M35.629,21.588H28.994A2.754,2.754,0,0,1,26.2,18.794,2.57,2.57,0,0,1,28.994,16h6.635a2.794,2.794,0,1,1,0,5.588Z" transform="translate(-26.2 -16)" fill="#242222"/>
        </g>
        <g id="Group_1077554" data-name="Group 1077554" transform="translate(54.479 47.146)">
          <path id="Path_829947" data-name="Path 829947" d="M37.808,21.588H21.394A2.754,2.754,0,0,1,18.6,18.794,2.57,2.57,0,0,1,21.394,16H37.808a2.794,2.794,0,1,1,0,5.588Z" transform="translate(-18.6 -16)" fill="#242222"/>
        </g>
        <g id="Group_1077555" data-name="Group 1077555" transform="translate(54.479 56.924)">
          <path id="Path_829948" data-name="Path 829948" d="M54.57,24.388H21.394A2.754,2.754,0,0,1,18.6,21.594,2.57,2.57,0,0,1,21.394,18.8H54.57a2.794,2.794,0,1,1,0,5.588Z" transform="translate(-18.6 -18.8)" fill="#242222"/>
        </g>
        <g id="Group_1077556" data-name="Group 1077556" transform="translate(71.242 66.004)">
          <path id="Path_829949" data-name="Path 829949" d="M42.607,26.988H26.194A2.754,2.754,0,0,1,23.4,24.194,2.57,2.57,0,0,1,26.194,21.4H42.608a2.794,2.794,0,0,1,0,5.588Z" transform="translate(-23.4 -21.4)" fill="#242222"/>
        </g>
        <g id="Group_1077557" data-name="Group 1077557" transform="translate(54.479 66.004)">
          <path id="Path_829950" data-name="Path 829950" d="M28.029,26.988H21.394A2.754,2.754,0,0,1,18.6,24.194,2.57,2.57,0,0,1,21.394,21.4h6.635a2.794,2.794,0,0,1,0,5.588Z" transform="translate(-18.6 -21.4)" fill="#242222"/>
        </g>
      </g>
    </g>
  </g>
</svg>
