<svg xmlns="http://www.w3.org/2000/svg" xmlns:xlink="http://www.w3.org/1999/xlink" width="150" height="150" viewBox="0 0 150 150">
  <defs>
    <clipPath id="clip-path">
      <rect id="Rectangle_378112" data-name="Rectangle 378112" width="150" height="150" transform="translate(303 1185)" fill="none" stroke="#707070" stroke-width="1"/>
    </clipPath>
  </defs>
  <g id="Mask_Group_411" data-name="Mask Group 411" transform="translate(-303 -1185)" clip-path="url(#clip-path)">
    <g id="Group_1077767" data-name="Group 1077767" transform="translate(316.001 1202.126)">
      <path id="Path_830370" data-name="Path 830370" d="M52.416,36.975a19,19,0,1,0-32.364-.053,6.137,6.137,0,0,0,5.227,2.932H47.221a6.1,6.1,0,0,0,5.195-2.879Zm0,0" transform="translate(-13.075 -5.685)" fill="#c47a4a"/>
      <path id="Path_830371" data-name="Path 830371" d="M104.673,36.971a6.1,6.1,0,0,1-5.2,2.88h-4.6a6.1,6.1,0,0,0,5.2-2.88A19,19,0,0,0,86.211,8.137,19,19,0,0,1,107.5,26.571a18.922,18.922,0,0,1-2.826,10.4Zm0,0" transform="translate(-65.332 -5.683)" fill="#b26944"/>
      <path id="Path_830372" data-name="Path 830372" d="M61.11,99.154A11.051,11.051,0,0,1,50.059,88.1V78.035a4.789,4.789,0,0,1,4.79-4.789H67.372a4.788,4.788,0,0,1,4.789,4.789V88.1A11.05,11.05,0,0,1,61.11,99.154Zm0,0" transform="translate(-37.936 -55.129)" fill="#fdd1a7"/>
      <path id="Path_830373" data-name="Path 830373" d="M59.628,62.457C57.909,75.473,41.945,72.985,41.945,72.985V62.457Zm0,0" transform="translate(-31.787 -46.953)" fill="#c47a4a"/>
      <path id="Path_830374" data-name="Path 830374" d="M47.487,350.566a19,19,0,1,0-37.278-.1,6.047,6.047,0,0,1-1.221,5,6.548,6.548,0,0,0,5.061,10.7H43.668a6.548,6.548,0,0,0,5.061-10.7,5.915,5.915,0,0,1-1.242-4.9Zm0,0" transform="translate(-5.684 -248.064)" fill="#7816c2"/>
      <path id="Path_830375" data-name="Path 830375" d="M110.765,359.623a6.551,6.551,0,0,1-6.548,6.551h-4a6.548,6.548,0,0,0,5.061-10.707,5.908,5.908,0,0,1-1.242-4.9A19,19,0,0,0,87.4,327.945a19.333,19.333,0,0,1,3.006-.078,19,19,0,0,1,17.631,22.7,5.908,5.908,0,0,0,1.242,4.9,6.517,6.517,0,0,1,1.487,4.156Zm0,0" transform="translate(-66.232 -248.064)" fill="#3f066a"/>
      <path id="Path_830376" data-name="Path 830376" d="M61.11,418.991a11.051,11.051,0,0,1-11.052-11.052V397.872a4.79,4.79,0,0,1,4.79-4.79H67.372a4.789,4.789,0,0,1,4.789,4.79v10.067A11.05,11.05,0,0,1,61.11,418.991Zm0,0" transform="translate(-37.936 -297.505)" fill="#fdd1a7"/>
      <path id="Path_830377" data-name="Path 830377" d="M59.628,382.293c-1.719,13.017-17.682,10.529-17.682,10.529V382.293Zm0,0" transform="translate(-31.787 -289.329)" fill="#7816c2"/>
      <path id="Path_830378" data-name="Path 830378" d="M373.037,36.975a19,19,0,1,0-32.364-.053,6.139,6.139,0,0,0,5.228,2.933h21.941a6.107,6.107,0,0,0,5.195-2.88Zm0,0" transform="translate(-256.047 -5.685)" fill="#756f6f"/>
      <path id="Path_830379" data-name="Path 830379" d="M425.291,36.971a6.1,6.1,0,0,1-5.195,2.88h-4.6a6.1,6.1,0,0,0,5.193-2.88A19,19,0,0,0,406.829,8.137a19,19,0,0,1,21.289,18.435,18.915,18.915,0,0,1-2.827,10.4Zm0,0" transform="translate(-308.301 -5.683)" fill="#5b5555"/>
      <path id="Path_830380" data-name="Path 830380" d="M381.728,99.154A11.051,11.051,0,0,1,370.676,88.1V78.035a4.789,4.789,0,0,1,4.79-4.789H387.99a4.789,4.789,0,0,1,4.79,4.789V88.1a11.051,11.051,0,0,1-11.052,11.052Zm0,0" transform="translate(-280.904 -55.129)" fill="#fdd1a7"/>
      <path id="Path_830381" data-name="Path 830381" d="M380.248,62.457c-1.719,13.016-17.681,10.528-17.681,10.528V62.457Zm0,0" transform="translate(-274.758 -46.953)" fill="#756f6f"/>
      <path id="Path_830382" data-name="Path 830382" d="M368.1,350.566a19,19,0,1,0-37.278-.1,6.046,6.046,0,0,1-1.221,5,6.547,6.547,0,0,0,5.06,10.7h29.619a6.548,6.548,0,0,0,5.061-10.7,5.914,5.914,0,0,1-1.241-4.9Zm0,0" transform="translate(-248.652 -248.064)" fill="#ffae7e"/>
      <path id="Path_830383" data-name="Path 830383" d="M431.386,359.623a6.551,6.551,0,0,1-6.549,6.551h-4a6.548,6.548,0,0,0,5.061-10.707,5.9,5.9,0,0,1-1.242-4.9,19.016,19.016,0,0,0-16.641-22.623,19.33,19.33,0,0,1,3.006-.078,19.015,19.015,0,0,1,17.631,22.7,5.9,5.9,0,0,0,1.242,4.9,6.516,6.516,0,0,1,1.487,4.156Zm0,0" transform="translate(-309.203 -248.064)" fill="#fa8916"/>
      <path id="Path_830384" data-name="Path 830384" d="M381.728,418.991a11.051,11.051,0,0,1-11.052-11.052V397.872a4.79,4.79,0,0,1,4.79-4.79H387.99a4.79,4.79,0,0,1,4.79,4.79v10.067a11.051,11.051,0,0,1-11.052,11.052Zm0,0" transform="translate(-280.904 -297.505)" fill="#fdd1a7"/>
      <path id="Path_830385" data-name="Path 830385" d="M380.248,382.293c-1.719,13.017-17.681,10.529-17.681,10.529V382.293Zm0,0" transform="translate(-274.758 -289.329)" fill="#ffae7e"/>
      <path id="Path_830386" data-name="Path 830386" d="M236.814,233H206.532a2.539,2.539,0,0,0-2.539,2.539v16.407a2.538,2.538,0,0,0,2.539,2.539H223.1v2.134a2.539,2.539,0,0,0,4.25,1.877l4.4-4.01h5.072a2.54,2.54,0,0,0,2.539-2.539V235.535A2.54,2.54,0,0,0,236.814,233Zm0,0" transform="translate(-154.589 -176.189)" fill="#00c2f8"/>
      <path id="Path_830387" data-name="Path 830387" d="M326.362,235.536v16.407a2.539,2.539,0,0,1-2.537,2.538h-5.016a2.538,2.538,0,0,0,2.537-2.538V235.536a2.538,2.538,0,0,0-2.537-2.54h5.016A2.538,2.538,0,0,1,326.362,235.536Zm0,0" transform="translate(-241.598 -176.189)" fill="#00abef"/>
      <path id="Path_830388" data-name="Path 830388" d="M164.539,167.027h25.712a2.539,2.539,0,0,1,2.539,2.539v14.122a2.539,2.539,0,0,1-2.539,2.539h-5.969v2.866a2.539,2.539,0,0,1-4.257,1.869l-5.152-4.735H164.539A2.54,2.54,0,0,1,162,183.689V169.566a2.54,2.54,0,0,1,2.539-2.539Zm0,0" transform="translate(-122.766 -126.197)" fill="#9ab47b"/>
      <path id="Path_830389" data-name="Path 830389" d="M264.243,169.571v14.122a2.539,2.539,0,0,1-2.539,2.538h-5.418a2.538,2.538,0,0,0,2.539-2.538V169.571a2.538,2.538,0,0,0-2.539-2.539H261.7A2.54,2.54,0,0,1,264.243,169.571Zm0,0" transform="translate(-194.217 -126.201)" fill="#69814c"/>
      <path id="Path_830390" data-name="Path 830390" d="M122.1,106.249a4.069,4.069,0,0,1-.863-3.392,20.816,20.816,0,0,0-12.209-23.2,50.431,50.431,0,0,0-.378-36.475,12.888,12.888,0,0,0,4.722-7.353,7.87,7.87,0,0,0,5.165-3.582,20.74,20.74,0,0,0-.967-23.252,1.817,1.817,0,0,0-2.922,2.159,17.108,17.108,0,0,1,.8,19.182,4.244,4.244,0,0,1-1.754,1.582V22.906a6.611,6.611,0,0,0-6.485-6.6q.047-.278.085-.562a1.816,1.816,0,0,0-3.6-.476,9.314,9.314,0,0,1-6.7,8.209,20.915,20.915,0,0,1-8.32.832,1.817,1.817,0,0,0-.716,3.543v4.06a4.318,4.318,0,0,1-1.782-1.624A17.179,17.179,0,0,1,101.237,4.138a16.855,16.855,0,0,1,7.678,2.04,1.816,1.816,0,0,0,1.725-3.2,20.809,20.809,0,0,0-29.755,12.34,50.371,50.371,0,0,0-37.783,0A20.81,20.81,0,1,0,5.428,32.186a7.923,7.923,0,0,0,5.2,3.638,12.9,12.9,0,0,0,4.722,7.355,50.432,50.432,0,0,0-.38,36.471,20.664,20.664,0,0,0-4.543,2.671,1.816,1.816,0,1,0,2.227,2.869,17.185,17.185,0,0,1,27.367,16.956,7.693,7.693,0,0,0,1.62,6.411,4.671,4.671,0,0,1,1.075,3,4.738,4.738,0,0,1-4.732,4.732H34.625a12.777,12.777,0,0,0,1.416-5.858V100.367a6.612,6.612,0,0,0-6.487-6.6c.031-.186.061-.373.086-.562a1.816,1.816,0,1,0-3.6-.476,9.309,9.309,0,0,1-3.6,6.608c-4.589,3.446-11.927,2.375-12,2.364a1.816,1.816,0,0,0-.559,3.589c.042.007.19.029.429.057v5.089a12.777,12.777,0,0,0,1.416,5.858H8.365a4.738,4.738,0,0,1-4.733-4.732,4.671,4.671,0,0,1,1.075-3,7.84,7.84,0,0,0,1.6-6.5,17.274,17.274,0,0,1-.314-3.28,17,17,0,0,1,1.828-7.716,1.816,1.816,0,1,0-3.244-1.635,20.6,20.6,0,0,0-2.216,9.351,20.9,20.9,0,0,0,.38,3.972A4.224,4.224,0,0,1,1.9,106.25a8.364,8.364,0,0,0,6.464,13.674H14.5a12.84,12.84,0,0,0,17.358,0h6.13a8.355,8.355,0,0,0,8.127-10.336,50.475,50.475,0,0,0,31.776,0,8.355,8.355,0,0,0,8.127,10.336h6.13a12.84,12.84,0,0,0,17.358,0h6.13a8.365,8.365,0,0,0,6.464-13.675ZM13.939,110.434V105.49c3.072-.086,7.312-.731,10.661-3.237a12.21,12.21,0,0,0,3.884-4.859h.952a2.977,2.977,0,0,1,2.973,2.973v10.067a9.235,9.235,0,0,1-18.47,0ZM98.175,26.909a12.926,12.926,0,0,0,7.956-6.975h.954a2.976,2.976,0,0,1,2.973,2.972V32.973a9.235,9.235,0,0,1-18.47,0V28.027a22.488,22.488,0,0,0,6.587-1.118ZM8.523,30.285a17.18,17.18,0,1,1,29.272.048,4.245,4.245,0,0,1-1.753,1.584V22.906a6.612,6.612,0,0,0-6.485-6.6q.045-.278.084-.562a1.816,1.816,0,0,0-3.6-.476,9.312,9.312,0,0,1-6.7,8.209,20.915,20.915,0,0,1-8.32.832,1.817,1.817,0,0,0-.716,3.543V31.91a4.329,4.329,0,0,1-1.783-1.625Zm5.416,2.688V28.027a22.493,22.493,0,0,0,6.587-1.118,12.926,12.926,0,0,0,7.956-6.975h.954a2.975,2.975,0,0,1,2.972,2.972V32.973a9.235,9.235,0,1,1-18.47,0ZM43.674,104.78a4.029,4.029,0,0,1-.09-1.923A20.794,20.794,0,0,0,18.426,78.515a46.8,46.8,0,0,1,.12-33.539A12.856,12.856,0,0,0,35.72,35.825a7.858,7.858,0,0,0,5.164-3.581,20.738,20.738,0,0,0,3.1-11.394c-.013-.64-.059-1.275-.131-1.9a46.744,46.744,0,0,1,36.3,0,21.078,21.078,0,0,0-.137,2.365,20.756,20.756,0,0,0,3.067,10.875,7.927,7.927,0,0,0,5.2,3.639,12.857,12.857,0,0,0,17.173,9.152,46.79,46.79,0,0,1,.123,33.534,20.809,20.809,0,0,0-25.562,20.26,20.908,20.908,0,0,0,.38,3.973,4.394,4.394,0,0,1-.084,2.041,46.749,46.749,0,0,1-36.633-.006Zm57.149,14.889a9.245,9.245,0,0,1-9.235-9.235V105.49c3.072-.086,7.312-.731,10.661-3.237a12.213,12.213,0,0,0,3.885-4.859h.951a2.977,2.977,0,0,1,2.973,2.973v10.067a9.245,9.245,0,0,1-9.235,9.235Zm14.809-3.377h-3.358a12.778,12.778,0,0,0,1.417-5.858V100.367a6.612,6.612,0,0,0-6.487-6.6c.031-.186.061-.373.086-.562a1.816,1.816,0,0,0-3.6-.476,9.309,9.309,0,0,1-3.6,6.608c-4.589,3.446-11.927,2.375-12,2.364a1.816,1.816,0,0,0-.559,3.589c.042.007.19.029.429.057v5.089a12.777,12.777,0,0,0,1.416,5.858H86.014a4.738,4.738,0,0,1-4.732-4.732,4.67,4.67,0,0,1,1.075-3,7.843,7.843,0,0,0,1.6-6.5,17.284,17.284,0,0,1-.314-3.281,17.181,17.181,0,0,1,18.084-17.156,17.192,17.192,0,0,1,15.944,20.531,7.692,7.692,0,0,0,1.62,6.41,4.675,4.675,0,0,1,1.075,3,4.738,4.738,0,0,1-4.733,4.733Zm0,0" transform="translate(0 0)"/>
      <path id="Path_830391" data-name="Path 830391" d="M203.664,196.27V179.863a4.36,4.36,0,0,0-4.356-4.356H188.923V163.886a4.36,4.36,0,0,0-4.356-4.355H158.855a4.36,4.36,0,0,0-4.356,4.355v14.122a4.36,4.36,0,0,0,4.356,4.356h5.814V196.27a4.36,4.36,0,0,0,4.356,4.356h3.454a1.816,1.816,0,0,0,0-3.633h-3.454a.723.723,0,0,1-.723-.723V182.364h.18l4.631,4.256a4.311,4.311,0,0,0,2.928,1.158,4.392,4.392,0,0,0,1.771-.377,4.3,4.3,0,0,0,2.6-3.988v-1.049h4.152a4.358,4.358,0,0,0,4.2-3.224h10.539a.723.723,0,0,1,.723.723V196.27a.723.723,0,0,1-.723.723h-5.072a1.819,1.819,0,0,0-1.224.474l-4.4,4.011a.723.723,0,0,1-1.21-.535v-2.134a1.816,1.816,0,0,0-1.816-1.816H180.84a1.816,1.816,0,1,0,0,3.633h2.932v.318a4.3,4.3,0,0,0,2.6,3.985,4.386,4.386,0,0,0,1.777.379,4.312,4.312,0,0,0,2.917-1.146l3.878-3.536h4.368a4.36,4.36,0,0,0,4.356-4.356Zm-18.373-18.261a.723.723,0,0,1-.723.723H178.6a1.817,1.817,0,0,0-1.816,1.816v2.866a.722.722,0,0,1-1.211.533l-5.152-4.735a1.817,1.817,0,0,0-1.23-.48H158.855a.723.723,0,0,1-.723-.723V163.886a.723.723,0,0,1,.723-.722h25.713a.723.723,0,0,1,.723.722v14.122Zm0,0" transform="translate(-117.083 -120.517)"/>
      <path id="Path_830392" data-name="Path 830392" d="M203.036,199.172H194a1.816,1.816,0,0,0,0,3.633h9.037a1.816,1.816,0,1,0,0-3.633Zm0,0" transform="translate(-145.64 -150.557)"/>
      <path id="Path_830393" data-name="Path 830393" d="M283.382,273.485a1.816,1.816,0,1,0,0-3.633h-8.535a1.816,1.816,0,1,0,0,3.633Zm0,0" transform="translate(-206.907 -204.119)"/>
    </g>
  </g>
</svg>
