<svg xmlns="http://www.w3.org/2000/svg" xmlns:xlink="http://www.w3.org/1999/xlink" width="150" height="150" viewBox="0 0 150 150">
  <defs>
    <clipPath id="clip-path">
      <rect id="Rectangle_378125" data-name="Rectangle 378125" width="150" height="150" transform="translate(305 1185)" fill="none" stroke="#707070" stroke-width="1"/>
    </clipPath>
  </defs>
  <g id="Mask_Group_415" data-name="Mask Group 415" transform="translate(-305 -1185)" clip-path="url(#clip-path)">
    <g id="Group_1077770" data-name="Group 1077770" transform="translate(322.117 1215.202)">
      <path id="Path_830411" data-name="Path 830411" d="M143.247,34.627A26.626,26.626,0,0,0,93.6,21.256,26.626,26.626,0,0,0,43.945,34.627c0,37.262,49.651,69.35,49.651,69.35s49.651-32.087,49.651-69.35Zm0,0" transform="translate(-33.655 -5.743)" fill="#e86266"/>
      <path id="Path_830412" data-name="Path 830412" d="M266.382,37.229c0,37.263-49.656,69.348-49.656,69.348a144.5,144.5,0,0,1-12-8.977c7.928-5.448,48.306-34.84,48.306-68.445A26.5,26.5,0,0,0,246.241,11.4a26.638,26.638,0,0,1,20.14,25.834Zm0,0" transform="translate(-156.788 -8.344)" fill="#d13237"/>
      <path id="Path_830413" data-name="Path 830413" d="M65.354,150.749A3,3,0,0,1,62.4,148.3l-7.335-38.963-7.805,18.548a3,3,0,0,1-5.451.185l-2.086-4.147H10.5a3,3,0,0,1,0-6.007H41.577a3.006,3.006,0,0,1,2.675,1.638L53.4,97.8a3,3,0,0,1,5.72.609l6.048,32.13,2.5-15.034A3,3,0,0,1,70.637,113h9.8a3,3,0,0,1,2.516,1.364l4.6,7.065,1.985-2.416a3,3,0,0,1,2.32-1.1h29a3,3,0,0,1,0,6.007H93.284L89.6,128.407a3,3,0,0,1-4.837-.267l-5.952-9.133h-5.63l-4.865,29.232a3,3,0,0,1-2.93,2.511h-.033Zm0,0" transform="translate(-5.744 -73.113)" fill="#d5fff5"/>
      <path id="Path_830414" data-name="Path 830414" d="M115.123,43.048h-5.98a48.685,48.685,0,0,0,2.2-14.164,28.455,28.455,0,0,0-6.26-17.779,1.756,1.756,0,0,0-2.737,2.2,24.6,24.6,0,0,1,5.484,15.577,45.663,45.663,0,0,1-2.375,14.164H99.9a1.756,1.756,0,0,0,0,3.512h15.226a1.248,1.248,0,0,1,0,2.5H87.54a1.756,1.756,0,0,0-1.356.64L82.5,54.179a1.248,1.248,0,0,1-2.009-.111L74.54,44.935a1.756,1.756,0,0,0-1.472-.8h-5.63a1.756,1.756,0,0,0-1.732,1.468L60.841,74.838a1.24,1.24,0,0,1-1.2,1.042h-.032a1.247,1.247,0,0,1-1.226-1.016L51.05,35.9a1.757,1.757,0,0,0-3.345-.356L39.9,54.093a1.248,1.248,0,0,1-2.265.076l-2.085-4.147a1.756,1.756,0,0,0-1.569-.967H4.759a1.248,1.248,0,1,1,0-2.5H35.832a1.242,1.242,0,0,1,1.111.68,1.756,1.756,0,0,0,3.183-.117l9.152-21.75a1.257,1.257,0,0,1,1.282-.756,1.24,1.24,0,0,1,1.094,1.01L57.7,57.757a1.755,1.755,0,0,0,1.726,1.43h.018a1.757,1.757,0,0,0,1.714-1.467l2.5-15.035a1.244,1.244,0,0,1,1.231-1.042h9.8a1.241,1.241,0,0,1,1.045.566l4.6,7.065a1.757,1.757,0,0,0,2.829.156l1.984-2.416a1.247,1.247,0,0,1,.964-.455h5.774a1.756,1.756,0,1,0,0-3.512H86.121a4.743,4.743,0,0,0-3.677,1.738l-.465.565-3.3-5.058A4.743,4.743,0,0,0,74.7,38.132h-9.8A4.745,4.745,0,0,0,60.2,42.109l-.876,5.266-4.216-22.4a4.73,4.73,0,0,0-4.173-3.852,4.788,4.788,0,0,0-4.891,2.887l-8.2,19.479a4.767,4.767,0,0,0-2.012-.443H14.421a45.636,45.636,0,0,1-2.375-14.164A24.87,24.87,0,0,1,58.423,16.4a1.755,1.755,0,0,0,3.035,0A24.872,24.872,0,0,1,96.836,8.238,1.756,1.756,0,0,0,98.8,5.324a28.38,28.38,0,0,0-38.857,6.97A28.379,28.379,0,0,0,8.533,28.884a48.654,48.654,0,0,0,2.2,14.164H4.76a4.76,4.76,0,1,0,0,9.52h9.788A100.2,100.2,0,0,0,31.06,75.816a1.756,1.756,0,0,0,2.579-2.384A98.985,98.985,0,0,1,18.488,52.566H32.9l1.6,3.181a4.76,4.76,0,0,0,8.639-.293l5.541-13.168,6.255,33.227a4.763,4.763,0,0,0,4.677,3.879h.05a4.753,4.753,0,0,0,4.645-3.978L68.927,47.65h3.19l5.431,8.335a4.759,4.759,0,0,0,7.665.423l3.157-3.842h13.023C94.7,65.309,83.978,76.347,75.962,83.5a163.466,163.466,0,0,1-16.022,12.62A165.429,165.429,0,0,1,39.166,79.083a1.756,1.756,0,0,0-2.443,2.523,161.67,161.67,0,0,0,22.264,18.1,1.758,1.758,0,0,0,1.906,0,156.642,156.642,0,0,0,17.36-13.546c8.589-7.658,20.213-19.673,27.08-33.6h9.789a4.759,4.759,0,1,0,0-9.519Zm0,0" transform="translate(0 0)"/>
    </g>
  </g>
</svg>
