<svg xmlns="http://www.w3.org/2000/svg" width="169" height="169" viewBox="0 0 169 169">
  <g id="Group_1078445" data-name="Group 1078445" transform="translate(-384.743 -2057.999)">
    <g id="Group_159182" data-name="Group 159182" transform="translate(384.743 2057.999)">
      <path id="Union_12" data-name="Union 12" d="M84.5,0A84.5,84.5,0,1,1,0,84.5,84.5,84.5,0,0,1,84.5,0Z" transform="translate(0 0)" fill="#ffae7e"/>
    </g>
    <g id="Group_1077311" data-name="Group 1077311" transform="translate(415.232 2101.032)">
      <g id="Group_1077309" data-name="Group 1077309" transform="translate(12.41 1.417)">
        <g id="Group_1077308" data-name="Group 1077308" transform="translate(51.324)">
          <path id="Path_829200" data-name="Path 829200" d="M328.553,26.714a19.2,19.2,0,1,1-1.041-6.254,19.215,19.215,0,0,1,1.041,6.254Z" transform="translate(-290.123 -7.5)" fill="#ffb09e"/>
        </g>
        <path id="Path_829201" data-name="Path 829201" d="M400.691,20.46A19.223,19.223,0,0,0,382.516,7.5a19.426,19.426,0,0,0-2.166.122,19.214,19.214,0,0,1,.02,38.185,19.19,19.19,0,0,0,21.361-19.093,19.186,19.186,0,0,0-1.041-6.254Z" transform="translate(-311.978 -7.5)" fill="#ffa78f"/>
        <path id="Path_829202" data-name="Path 829202" d="M96.454,85.4l-9.464,16L28.864,72.326A18.769,18.769,0,0,1,18.493,55.54V7.5H48.071V20.127a106.927,106.927,0,0,1-.794,13.009l-2.2,17.912a2.433,2.433,0,0,0-.017.285,2.328,2.328,0,0,0,1.77,2.256,37.712,37.712,0,0,1,12.72,5.8L84.844,77.22Z" transform="translate(-18.493 -7.5)" fill="#ffcebf"/>
        <path id="Path_829203" data-name="Path 829203" d="M191.964,85.4l-1.117,1.889L176.032,77.22,150.743,59.391a37.712,37.712,0,0,0-12.72-5.8,2.328,2.328,0,0,1-1.77-2.256,2.432,2.432,0,0,1,.017-.285l2.2-17.912a106.927,106.927,0,0,0,.794-13.009V7.5h4.321V20.127a106.927,106.927,0,0,1-.794,13.009l-2.2,17.912a2.432,2.432,0,0,0-.017.285,2.328,2.328,0,0,0,1.77,2.256,37.712,37.712,0,0,1,12.72,5.8L180.353,77.22Z" transform="translate(-114.003 -7.5)" fill="#ffa78f"/>
        <path id="Path_829204" data-name="Path 829204" d="M330.021,75.022a19.216,19.216,0,0,1-38.088,3.647l8.739-3.71a6.465,6.465,0,0,0,3.007-2.608l1.288-2.131a6.465,6.465,0,0,1,8.643-2.325l4.112,2.255a6.465,6.465,0,0,0,4.958.527l6.3-1.88A19.188,19.188,0,0,1,330.021,75.022Z" transform="translate(-240.267 -55.837)" fill="#ffeee6"/>
        <path id="Path_829205" data-name="Path 829205" d="M400.7,76.09l-3.961,1.182a19.218,19.218,0,0,1-16.378,24.167,19.49,19.49,0,0,0,2.691.114A19.23,19.23,0,0,0,400.7,76.09Z" transform="translate(-311.988 -63.13)" fill="#ffdfcf"/>
        <path id="Path_829206" data-name="Path 829206" d="M358.465,145.351h-2.341a2.007,2.007,0,0,1-2.007-2.007V141a2.007,2.007,0,0,1,2.007-2.007h2.341A2.007,2.007,0,0,1,360.473,141v2.341A2.007,2.007,0,0,1,358.465,145.351Z" transform="translate(-290.702 -114.149)" fill="#fd8087"/>
        <path id="Path_829207" data-name="Path 829207" d="M435.452,122.606h-2.341A2.007,2.007,0,0,1,431.1,120.6v-2.341a2.007,2.007,0,0,1,2.007-2.007h2.341a2.007,2.007,0,0,1,2.007,2.007V120.6A2.007,2.007,0,0,1,435.452,122.606Z" transform="translate(-353.142 -95.702)" fill="#fe99a0"/>
        <path id="Path_829208" data-name="Path 829208" d="M198.339,275.06c-1.817,1.337-4.185,2.88-6.074,4.075a6.4,6.4,0,0,1-6.481.208,10.249,10.249,0,0,0-3.964-1.208l-5.429-.5a7.617,7.617,0,0,1-6.336-4.668l-.082-.2a10.247,10.247,0,0,0-4.315-4.934l-2.413-1.4a9.683,9.683,0,0,1-4.128-11.951l1.214-3.049a37.711,37.711,0,0,1,12.72,5.8Z" transform="translate(-131.988 -205.34)" fill="#ffeee6"/>
        <path id="Path_829209" data-name="Path 829209" d="M174.887,257.231l25.289,17.829,2.158,1.521c.761-.517,1.5-1.033,2.163-1.521l-25.289-17.829a37.712,37.712,0,0,0-12.72-5.8l-.467,1.173A37.7,37.7,0,0,1,174.887,257.231Z" transform="translate(-138.146 -205.34)" fill="#ffdfcf"/>
      </g>
      <g id="Group_1077310" data-name="Group 1077310" transform="translate(10.993 0)">
        <path id="Path_829210" data-name="Path 829210" d="M216.4,26.052a20.631,20.631,0,1,0-40.173-1.538h0v0a20.612,20.612,0,0,0,6.231,11.232L166.771,51.433a39.389,39.389,0,0,0-12.141-5.3,1.029,1.029,0,0,1-.687-.993l2.2-17.912a108.744,108.744,0,0,0,.8-13.182V1.417a1.417,1.417,0,1,0-2.834,0V14.044a105.9,105.9,0,0,1-.783,12.837l-2.2,17.92a3.915,3.915,0,0,0,1.373,3.365l-.743,1.866a11.167,11.167,0,0,0,2.105,11.579,1.417,1.417,0,1,0,2.1-1.908,8.316,8.316,0,0,1-1.567-8.623l.749-1.881a36.018,36.018,0,0,1,9.58,4.282l-2.544,2.544a1.417,1.417,0,0,0,2,2l2.922-2.922L189.845,71.14c-1.5,1.034-3.129,2.084-4.378,2.874a4.981,4.981,0,0,1-5.045.162A11.6,11.6,0,0,0,175.91,72.8l-5.429-.5a6.184,6.184,0,0,1-5.157-3.8,12.057,12.057,0,0,0-4.1-5.241,1.417,1.417,0,0,0-1.642,2.31,9.235,9.235,0,0,1,3.125,4.016,9.012,9.012,0,0,0,7.515,5.536l5.429.5a8.783,8.783,0,0,1,3.416,1.041,7.938,7.938,0,0,0,7.917-.255c1.512-.956,3.568-2.287,5.326-3.533l10.785,7.6a1.417,1.417,0,1,0,1.633-2.316l-35.588-25.09,16.4-16.4a1.423,1.423,0,0,0-.124-2.116,17.813,17.813,0,0,1-6.155-9.47l7.652-3.248a7.836,7.836,0,0,0,3.666-3.179l1.287-2.131a5.037,5.037,0,0,1,6.748-1.816l4.112,2.255a7.932,7.932,0,0,0,6.044.642l4.946-1.476c3.524,13.463-9.445,25.8-22.726,21.425a1.417,1.417,0,1,0-.875,2.7c10.561,3.746,23.517-3.014,26.285-14.207ZM207.955,14.9a5.079,5.079,0,0,1-3.871-.411l-4.112-2.255a7.864,7.864,0,0,0-10.537,2.835L188.148,17.2a5.02,5.02,0,0,1-2.348,2.036l-7.037,2.987c-.047-.528-.073-1.06-.073-1.592a17.8,17.8,0,0,1,34.091-7.172Z" transform="translate(-124.532 0)"/>
        <path id="Path_829211" data-name="Path 829211" d="M12.41,12.023a1.417,1.417,0,0,0,1.417-1.417V1.417a1.417,1.417,0,1,0-2.834,0v9.189A1.417,1.417,0,0,0,12.41,12.023Z" transform="translate(-10.993 0)"/>
        <path id="Path_829212" data-name="Path 829212" d="M81.541,162.2,23.415,133.115A17.258,17.258,0,0,1,13.827,117.6V85.43a1.417,1.417,0,0,0-2.834,0V117.6a20.186,20.186,0,0,0,11.154,18.053L80.273,164.73a1.417,1.417,0,0,0,1.268-2.535Z" transform="translate(-10.993 -68.139)"/>
        <path id="Path_829213" data-name="Path 829213" d="M54.243,266.915a1.417,1.417,0,1,0,1.451-2.434,7.551,7.551,0,0,1-3.667-6.456v-.417a1.417,1.417,0,1,0-2.834,0v.417A10.4,10.4,0,0,0,54.243,266.915Z" transform="translate(-41.975 -207.784)"/>
        <path id="Path_829214" data-name="Path 829214" d="M259.441,350.639a1.4,1.4,0,1,0-1.4,1.4A1.4,1.4,0,0,0,259.441,350.639Z" transform="translate(-210.231 -283.254)"/>
        <path id="Path_829215" data-name="Path 829215" d="M311.656,363.328a1.4,1.4,0,1,0-1.4,1.4A1.4,1.4,0,0,0,311.656,363.328Z" transform="translate(-252.58 -293.545)"/>
        <path id="Path_829216" data-name="Path 829216" d="M228.138,315.369a1.4,1.4,0,1,0-1.4-1.4A1.4,1.4,0,0,0,228.138,315.369Z" transform="translate(-185.976 -253.515)"/>
        <path id="Path_829217" data-name="Path 829217" d="M350.041,131.494a3.428,3.428,0,0,0-3.424,3.424v2.341a3.428,3.428,0,0,0,3.424,3.424h2.341a3.428,3.428,0,0,0,3.424-3.424v-2.341a3.428,3.428,0,0,0-3.424-3.424Zm2.931,3.424v2.341a.591.591,0,0,1-.59.59h-2.341a.591.591,0,0,1-.59-.59v-2.341a.591.591,0,0,1,.59-.59h2.341A.591.591,0,0,1,352.973,134.918Z" transform="translate(-283.202 -106.649)"/>
        <path id="Path_829218" data-name="Path 829218" d="M427.027,117.938h2.341a3.428,3.428,0,0,0,3.424-3.424v-2.341a3.428,3.428,0,0,0-3.424-3.424h-2.341a3.428,3.428,0,0,0-3.424,3.424v2.341A3.428,3.428,0,0,0,427.027,117.938Zm-.59-5.766a.591.591,0,0,1,.59-.59h2.341a.591.591,0,0,1,.59.59v2.341a.591.591,0,0,1-.59.59h-2.341a.591.591,0,0,1-.59-.59Z" transform="translate(-345.642 -88.2)"/>
        <circle id="Ellipse_5936" data-name="Ellipse 5936" cx="1.397" cy="1.397" r="1.397" transform="translate(76.219 31.539)"/>
        <path id="Path_829219" data-name="Path 829219" d="M387.218,95.8a1.4,1.4,0,1,0-1.4,1.4A1.4,1.4,0,0,0,387.218,95.8Z" transform="translate(-313.865 -76.569)"/>
      </g>
    </g>
  </g>
</svg>
