<svg xmlns="http://www.w3.org/2000/svg" width="189.064" height="189.064" viewBox="0 0 189.064 189.064">
  <g id="Group_1078434" data-name="Group 1078434" transform="translate(-1 -1)">
    <path id="Path_828952" data-name="Path 828952" d="M34,40h85.384v67.087H34Z" transform="translate(67.631 79.927)" fill="#d3a06c"/>
    <path id="Path_828953" data-name="Path 828953" d="M38.593,22h6.1A21.256,21.256,0,0,0,25.42,34.2H5.049A3.058,3.058,0,0,1,2,31.148v-6.1A3.058,3.058,0,0,1,5.049,22H38.593Z" transform="translate(2.049 43.038)" fill="#838f9b"/>
    <path id="Path_828954" data-name="Path 828954" d="M34.3,22H153.224a3.058,3.058,0,0,1,3.049,3.049v6.1a3.058,3.058,0,0,1-3.049,3.049H35.272A21.256,21.256,0,0,0,16,22Z" transform="translate(30.741 43.038)" fill="#838f9b"/>
    <path id="Path_828955" data-name="Path 828955" d="M5,54.246l.091-.366a11.91,11.91,0,0,0,2.958.366H23.3v24.4H5Z" transform="translate(8.198 108.373)" fill="#fcd770"/>
    <path id="Path_828956" data-name="Path 828956" d="M44.61,36A42.7,42.7,0,0,1,87.3,78.692v36.593H72.055V69.544L56.808,54.3H29.363V75.642H2.04A42.661,42.661,0,0,1,44.61,36Z" transform="translate(2.131 71.729)" fill="#fcd770"/>
    <path id="Path_828957" data-name="Path 828957" d="M53.692,57.247v45.741H11v-24.4H24.722a7.624,7.624,0,1,0,0-15.247H11V42H38.445V57.247Z" transform="translate(20.494 84.026)" fill="#e6e9ed"/>
    <path id="Path_828958" data-name="Path 828958" d="M35.247,57.247H20V42Z" transform="translate(38.939 84.026)" fill="#fc6e51"/>
    <path id="Path_828959" data-name="Path 828959" d="M43.167,49a7.624,7.624,0,1,1,0,15.247H14.2a11.91,11.91,0,0,1-2.958-.366A12.2,12.2,0,0,1,2,52.049c0-1.037.03-2.043.122-3.049H43.167Z" transform="translate(2.049 98.372)" fill="#f0d0b4"/>
    <path id="Path_828960" data-name="Path 828960" d="M49.618,34.2a20.87,20.87,0,0,1,2.074,9.148A21.346,21.346,0,1,1,9,43.346,20.871,20.871,0,0,1,11.074,34.2a21.324,21.324,0,0,1,38.545,0Z" transform="translate(16.396 43.038)" fill="#f0d0b4"/>
    <path id="Path_828961" data-name="Path 828961" d="M34,2h73.186V62.988H34Z" transform="translate(67.631 2.049)" fill="#d3a06c"/>
    <path id="Path_828962" data-name="Path 828962" d="M6,2H79.186V62.988H6Z" transform="translate(10.247 2.049)" fill="#d3a06c"/>
    <g id="Group_1077201" data-name="Group 1077201" transform="translate(40.643 4.049)">
      <path id="Path_828963" data-name="Path 828963" d="M38.4,18V30.2H14V18Z" transform="translate(-14 30.791)" fill="#ecc19c"/>
      <path id="Path_828964" data-name="Path 828964" d="M14,2H38.4V14.2H14Z" transform="translate(-14 -2)" fill="#ecc19c"/>
      <path id="Path_828965" data-name="Path 828965" d="M42,2H66.4V14.2H42Z" transform="translate(43.384 -2)" fill="#ecc19c"/>
      <path id="Path_828966" data-name="Path 828966" d="M42,18H66.4V30.2H42Z" transform="translate(43.384 30.791)" fill="#ecc19c"/>
      <path id="Path_828967" data-name="Path 828967" d="M44,40H68.4V52.2H44Z" transform="translate(47.483 75.878)" fill="#ecc19c"/>
    </g>
    <path id="Path_828968" data-name="Path 828968" d="M33,112.186h91.483V39H33ZM69.593,45.1h18.3v6.1h-18.3ZM39.1,45.1h24.4V57.3H93.988V45.1h24.4v60.988H39.1Z" transform="translate(65.582 77.878)"/>
    <path id="Path_828969" data-name="Path 828969" d="M57,57h6.1v6.1H57Z" transform="translate(114.768 114.768)"/>
    <path id="Path_828970" data-name="Path 828970" d="M53,57h6.1v6.1H53Z" transform="translate(106.57 114.768)"/>
    <path id="Path_828971" data-name="Path 828971" d="M49,57h6.1v6.1H49Z" transform="translate(98.372 114.768)"/>
    <path id="Path_828972" data-name="Path 828972" d="M183.965,61.988h-6.1V1H98.581V61.988h-6.1V1H13.2V61.988H7.1a6.1,6.1,0,0,0-6.1,6.1v6.1a6.1,6.1,0,0,0,6.1,6.1H23.148a24.208,24.208,0,0,0,10.13,26.423A45.819,45.819,0,0,0,1,150.422a15.256,15.256,0,0,0,9.148,13.954v25.688H92.483V150.422A45.819,45.819,0,0,0,60.2,106.708a24.208,24.208,0,0,0,10.13-26.423H183.965a6.1,6.1,0,0,0,6.1-6.1v-6.1A6.1,6.1,0,0,0,183.965,61.988ZM129.076,7.1h18.3v6.1h-18.3Zm-24.4,0h18.3V19.3h30.494V7.1h18.3v54.89h-18.3v-12.2H122.977v12.2h-18.3Zm42.692,54.89h-18.3v-6.1h18.3ZM43.692,7.1h18.3v6.1h-18.3Zm-24.4,0h18.3V19.3H68.087V7.1h18.3v54.89h-18.3v-12.2H37.593v12.2H19.3Zm24.4,54.89v-6.1h18.3v6.1ZM7.1,74.186v-6.1h23.56a24.6,24.6,0,0,0-5.013,6.1Zm9.148,91.483h12.2v18.3h-12.2Zm28.969-21.346H34.544V129.076H55.89v15.247H71.137v39.642H34.544v-18.3H45.217a10.673,10.673,0,1,0,0-21.346Zm16.772-10.935,4.836,4.836H61.988Zm24.4,17.034v33.544H77.235V140.011L60.2,122.977H28.445v21.346H19.3v6.1h25.92a4.574,4.574,0,1,1,0,9.148H16.247A9.159,9.159,0,0,1,7.1,150.422a39.642,39.642,0,1,1,79.285,0ZM46.741,104.68a18.3,18.3,0,1,1,18.3-18.3A18.315,18.315,0,0,1,46.741,104.68ZM183.965,74.186H67.837a24.538,24.538,0,0,0-5.013-6.1H183.965Z"/>
    <path id="Path_828973" data-name="Path 828973" d="M49,53H79.494v6.1H49Z" transform="translate(98.372 106.57)"/>
  </g>
</svg>
