<svg xmlns="http://www.w3.org/2000/svg" width="109.992" height="121.333" viewBox="0 0 109.992 121.333">
  <g id="Group_1078427" data-name="Group 1078427" transform="translate(-917.869 -383.695)">
    <path id="Union_38" data-name="Union 38" d="M12825.9,11832.6l-37.685-21.453a17.367,17.367,0,0,1-8.747-14.938l-.262-43.365a17.358,17.358,0,0,1,8.563-15.041l37.423-21.909a17.356,17.356,0,0,1,17.31-.107l37.685,21.457a17.347,17.347,0,0,1,8.747,14.938l.266,43.362a17.362,17.362,0,0,1-8.566,15.042l-.161-.271.161.271-37.423,21.909a17.286,17.286,0,0,1-7.835,2.342c-.3.016-.609.024-.914.024A17.31,17.31,0,0,1,12825.9,11832.6Z" transform="translate(-11861.333 -11329.836)" fill="#264100"/>
    <path id="Path_831044" data-name="Path 831044" d="M316,233.8l-3.4,3.4-1.336-1.336a1.033,1.033,0,1,0-1.461,1.461l2.066,2.066a1.033,1.033,0,0,0,1.461,0l4.133-4.133A1.033,1.033,0,1,0,316,233.8Z" transform="translate(665.702 205.762)" fill="#fff"/>
    <path id="Path_831045" data-name="Path 831045" d="M311.869,179.4a1.033,1.033,0,0,0,1.461,0l4.133-4.133A1.033,1.033,0,0,0,316,173.8l-3.4,3.4-1.336-1.336a1.033,1.033,0,0,0-1.461,1.461Z" transform="translate(665.703 257.497)" fill="#fff"/>
    <path id="Path_831046" data-name="Path 831046" d="M311.869,299.4a1.033,1.033,0,0,0,1.461,0l4.133-4.133A1.033,1.033,0,1,0,316,293.8l-3.4,3.4-1.336-1.336a1.033,1.033,0,0,0-1.461,1.461Z" transform="translate(665.703 154.027)" fill="#fff"/>
    <path id="Path_831047" data-name="Path 831047" d="M189.533,250.566h12.536a1.033,1.033,0,0,0,0-2.066H189.533a1.033,1.033,0,0,0,0,2.066Z" transform="translate(770.035 192.829)" fill="#fff"/>
    <path id="Path_831048" data-name="Path 831048" d="M189.534,190.567H202.07a1.033,1.033,0,1,0,0-2.066H189.534a1.033,1.033,0,0,0,0,2.066Z" transform="translate(770.034 244.563)" fill="#fff"/>
    <path id="Path_831049" data-name="Path 831049" d="M202.07,308.5H189.534a1.033,1.033,0,0,0,0,2.066H202.07a1.033,1.033,0,1,0,0-2.066Z" transform="translate(770.034 141.094)" fill="#fff"/>
    <path id="Path_831050" data-name="Path 831050" d="M81.667,2.066H63.859a7.221,7.221,0,0,0-10.114,0H35.931a5.172,5.172,0,0,0-5.166,5.166V50.9a1.033,1.033,0,1,0,2.066,0V7.232a3.1,3.1,0,0,1,3.1-3.1H52.266A7.173,7.173,0,0,0,51.642,6.2H35.931A1.033,1.033,0,0,0,34.9,7.232V54H23.533A1.033,1.033,0,0,0,22.5,55.034a7.241,7.241,0,0,0,7.232,7.232h1.033v3.1a5.166,5.166,0,0,0,5.166,5.166H81.667a5.172,5.172,0,0,0,5.166-5.166V7.232A5.172,5.172,0,0,0,81.667,2.066ZM52.6,12.4a1.033,1.033,0,0,0,1.033-1.033V7.232a5.166,5.166,0,0,1,10.332,0v4.133A1.034,1.034,0,0,0,65,12.4h2.066a3.1,3.1,0,0,1,2.922,2.066H47.611A3.1,3.1,0,0,1,50.534,12.4ZM51.567,8.265v2.066H50.534A5.172,5.172,0,0,0,45.368,15.5,1.033,1.033,0,0,0,46.4,16.531H71.2A1.033,1.033,0,0,0,72.231,15.5a5.172,5.172,0,0,0-5.166-5.166H66.031V8.266h14.6V55.034a5.166,5.166,0,0,1-10.332,0A1.033,1.033,0,0,0,69.269,54h-32.3V8.265ZM29.732,60.2a5.175,5.175,0,0,1-5.062-4.133H68.309a7.206,7.206,0,0,0,2.1,4.133Zm55.034,5.166a3.1,3.1,0,0,1-3.1,3.1H35.931a3.1,3.1,0,0,1-3.1-3.1v-3.1H75.468A7.232,7.232,0,0,0,82.7,55.034V7.232A1.033,1.033,0,0,0,81.667,6.2H65.958a7.158,7.158,0,0,0-.62-2.066H81.667a3.1,3.1,0,0,1,3.1,3.1Z" transform="translate(913.167 407.096)" fill="#fff"/>
    <path id="Path_831051" data-name="Path 831051" d="M266.6,36.2a3.1,3.1,0,1,0-2.191-.909A3.1,3.1,0,0,0,266.6,36.2Zm-.731-3.83a1.034,1.034,0,1,1-.3.731A1.026,1.026,0,0,1,265.869,32.369Z" transform="translate(705.366 381.229)" fill="#fff"/>
  </g>
</svg>
